<?xml version="1.0" encoding="UTF-8" standalone="no"?>
<svg
   xmlns:dc="http://purl.org/dc/elements/1.1/"
   xmlns:cc="http://creativecommons.org/ns#"
   xmlns:rdf="http://www.w3.org/1999/02/22-rdf-syntax-ns#"
   xmlns:svg="http://www.w3.org/2000/svg"
   xmlns="http://www.w3.org/2000/svg"
   xmlns:sodipodi="http://sodipodi.sourceforge.net/DTD/sodipodi-0.dtd"
   xmlns:inkscape="http://www.inkscape.org/namespaces/inkscape"
   width="188.36436mm"
   height="188.40344mm"
   viewBox="0 0 188.36436 188.40343"
   version="1.1"
   id="svg8"
   inkscape:version="1.0.2 (e86c870879, 2021-01-15)"
   sodipodi:docname="10_10_blue.svg">
  <defs
     id="defs2" />
  <sodipodi:namedview
     id="base"
     pagecolor="#ffffff"
     bordercolor="#666666"
     borderopacity="1.0"
     inkscape:pageopacity="0.0"
     inkscape:pageshadow="2"
     inkscape:zoom="0.35"
     inkscape:cx="645.6419"
     inkscape:cy="731.54708"
     inkscape:document-units="mm"
     inkscape:current-layer="layer1"
     inkscape:document-rotation="0"
     showgrid="false"
     inkscape:window-width="2155"
     inkscape:window-height="1262"
     inkscape:window-x="138"
     inkscape:window-y="-11"
     inkscape:window-maximized="1" />
  <metadata
     id="metadata5">
    <rdf:RDF>
      <cc:Work
         rdf:about="">
        <dc:format>image/svg+xml</dc:format>
        <dc:type
           rdf:resource="http://purl.org/dc/dcmitype/StillImage" />
        <dc:title />
      </cc:Work>
    </rdf:RDF>
  </metadata>
  <g
     inkscape:label="Layer 1"
     inkscape:groupmode="layer"
     id="layer1"
     transform="translate(64.992748,196.57898)">
    <path
       style="fill:#bfd3de;fill-opacity:1;stroke:#ffffff;stroke-width:1.99549;stroke-linecap:round;stroke-linejoin:round;stroke-miterlimit:4;stroke-dasharray:none;stroke-dashoffset:0;stroke-opacity:1"
       d="m -59.434123,-73.591841 44.15343,-14.346236 a 46.759613,46.759651 71.999991 0 1 -1.996686,-19.333783 l -46.20712,-4.85674 a 93.185476,93.185524 71.999991 0 0 4.050376,38.536759 z"
       id="path884-6-8-0-8-70"
       inkscape:connector-curvature="0" />
    <path
       style="fill:#bfd3de;fill-opacity:1;stroke:#ffffff;stroke-width:1.99549;stroke-linecap:round;stroke-linejoin:round;stroke-miterlimit:4;stroke-dasharray:none;stroke-dashoffset:0;stroke-opacity:1"
       d="M -8.7244533,-17.246098 10.158664,-59.657958 A 46.759614,46.759651 23.999991 0 1 -5.5451773,-71.11097 l -34.5278857,31.088768 a 93.185477,93.185525 23.999991 0 0 31.3486097,22.776104 z"
       id="path884-6-8-0-8-8-31"
       inkscape:connector-curvature="0" />
    <path
       style="fill:#bfd3de;fill-opacity:1;stroke:#ffffff;stroke-width:1.99549;stroke-linecap:round;stroke-linejoin:round;stroke-miterlimit:4;stroke-dasharray:none;stroke-dashoffset:0;stroke-opacity:1"
       d="m -40.059616,-40.034192 34.5010257,-31.06475 a 46.759614,46.759651 47.999991 0 1 -9.6878107,-16.850181 l -44.187704,14.357272 a 93.185477,93.185525 47.999991 0 0 19.374506,33.557649 z"
       id="path884-6-8-0-8-7-72"
       inkscape:connector-curvature="0" />
    <path
       style="fill:#bfd3de;fill-opacity:1;stroke:#ffffff;stroke-width:1.99549;stroke-linecap:round;stroke-linejoin:round;stroke-miterlimit:4;stroke-dasharray:none;stroke-dashoffset:0;stroke-opacity:1"
       d="m 29.170433,-9.1732895 1.4e-4,-46.4255775 a 46.759651,46.759614 89.999991 0 1 -19.00456,-4.075563 l -18.8978116,42.44479 a 93.185525,93.185477 89.999991 0 0 37.9022316,8.0563505 z"
       id="path884-6-8-0-8-84-43"
       inkscape:connector-curvature="0" />
    <path
       style="fill:#bfd3de;fill-opacity:1;stroke:#ffffff;stroke-width:1.99549;stroke-linecap:round;stroke-linejoin:round;stroke-miterlimit:4;stroke-dasharray:none;stroke-dashoffset:0;stroke-opacity:1"
       d="M 67.072731,-17.229623 48.189754,-59.641659 a 46.759651,46.759614 65.999991 0 1 -19.019162,4.006685 l -1.59e-4,46.4616845 a 93.185525,93.185477 65.999991 0 0 37.902298,-8.0563335 z"
       id="path884-6-8-0-8-76-3"
       inkscape:connector-curvature="0" />
    <path
       style="fill:#296c92;fill-opacity:1;stroke:#ffffff;stroke-width:1.99549;stroke-linecap:round;stroke-linejoin:round;stroke-miterlimit:4;stroke-dasharray:none;stroke-dashoffset:0;stroke-opacity:1"
       d="M 98.421342,-40.005716 63.920456,-71.070563 a 46.759651,46.759614 41.999991 0 1 -15.745092,11.39622 l 18.897485,42.444883 a 93.185525,93.185477 41.999991 0 0 31.348619,-22.776098 z"
       id="path884-6-8-0-8-81-2"
       inkscape:connector-curvature="0" />
    <path
       style="fill:#296c92;fill-opacity:1;stroke:#ffffff;stroke-width:1.99549;stroke-linecap:round;stroke-linejoin:round;stroke-miterlimit:4;stroke-dasharray:none;stroke-dashoffset:0;stroke-opacity:1"
       d="M 117.79588,-73.563324 73.642497,-87.909735 a 46.759651,46.759614 17.999991 0 1 -9.748784,16.814971 l 34.527629,31.089048 a 93.185525,93.185477 17.999991 0 0 19.374488,-33.55769 z"
       id="path884-6-8-0-8-9-21"
       inkscape:connector-curvature="0" />
    <path
       style="fill:#296c92;fill-opacity:1;stroke:#ffffff;stroke-width:1.99549;stroke-linecap:round;stroke-linejoin:round;stroke-miterlimit:4;stroke-dasharray:none;stroke-dashoffset:0;stroke-opacity:1"
       d="m 121.86341,-112.09444 -46.171321,4.8527 a 46.759614,46.759651 83.999991 0 1 -2.066715,19.326407 l 44.187636,14.357616 a 93.185477,93.185525 83.999991 0 0 4.05034,-38.536803 z"
       id="path884-6-8-0-8-2-62"
       inkscape:connector-curvature="0" />
    <path
       style="fill:#296c92;fill-opacity:1;stroke:#ffffff;stroke-width:1.99549;stroke-linecap:round;stroke-linejoin:round;stroke-miterlimit:4;stroke-dasharray:none;stroke-dashoffset:0;stroke-opacity:1"
       d="m 109.88928,-148.94692 -40.205854,23.21271 a 46.759614,46.759651 59.999991 0 1 5.972766,18.49618 l 46.207188,-4.85639 a 93.185477,93.185525 59.999991 0 0 -11.97411,-36.8525 z"
       id="path884-6-8-0-8-6-18"
       inkscape:connector-curvature="0" />
    <path
       style="fill:#296c92;fill-opacity:1;stroke:#ffffff;stroke-width:1.99549;stroke-linecap:round;stroke-linejoin:round;stroke-miterlimit:4;stroke-dasharray:none;stroke-dashoffset:0;stroke-opacity:1"
       d="m 83.976743,-177.75206 -27.288374,37.55909 a 46.759614,46.759651 35.999991 0 1 12.979449,14.46775 l 40.237062,-23.2307 a 93.185477,93.185525 35.999991 0 0 -25.928155,-28.79613 z"
       id="path884-6-8-0-8-1-65"
       inkscape:connector-curvature="0" />
    <path
       style="fill:#296c92;fill-opacity:1;stroke:#ffffff;stroke-width:1.99549;stroke-linecap:round;stroke-linejoin:round;stroke-miterlimit:4;stroke-dasharray:none;stroke-dashoffset:0;stroke-opacity:1"
       d="m 48.588368,-193.52728 -9.652505,45.41113 a 46.759614,46.759651 11.999991 0 1 17.741883,7.93772 l 27.309624,-37.58818 a 93.185477,93.185525 11.999991 0 0 -35.398997,-15.76066 z"
       id="path884-6-8-0-8-64-57"
       inkscape:connector-curvature="0" />
    <path
       style="fill:#296c92;fill-opacity:1;stroke:#ffffff;stroke-width:1.99549;stroke-linecap:round;stroke-linejoin:round;stroke-miterlimit:4;stroke-dasharray:none;stroke-dashoffset:0;stroke-opacity:1"
       d="m 9.8431263,-193.54489 9.6523617,45.41116 a 46.759651,46.759614 77.999991 0 1 19.436585,0.0352 l 9.660082,-45.44635 a 93.185525,93.185477 77.999991 0 0 -38.7490237,0 z"
       id="path884-6-8-0-8-3-11"
       inkscape:connector-curvature="0" />
    <path
       style="fill:#296c92;fill-opacity:1;stroke:#ffffff;stroke-width:1.99549;stroke-linecap:round;stroke-linejoin:round;stroke-miterlimit:4;stroke-dasharray:none;stroke-dashoffset:0;stroke-opacity:1"
       d="m -25.559587,-177.80186 27.2882524,37.55917 a 46.759651,46.759614 53.999991 0 1 17.7705246,-7.8734 l -9.6597603,-45.44642 a 93.185525,93.185477 53.999991 0 0 -35.3990167,15.76065 z"
       id="path884-6-8-0-8-5-9"
       inkscape:connector-curvature="0" />
    <path
       style="fill:#296c92;fill-opacity:1;stroke:#ffffff;stroke-width:1.99549;stroke-linecap:round;stroke-linejoin:round;stroke-miterlimit:4;stroke-dasharray:none;stroke-dashoffset:0;stroke-opacity:1"
       d="m -51.498313,-149.02032 40.20575,23.21289 a 46.759651,46.759614 29.999991 0 1 13.0317868,-14.42065 l -27.3093508,-37.58838 a 93.185525,93.185477 29.999991 0 0 -25.928186,28.79614 z"
       id="path884-6-8-0-8-27-7"
       inkscape:connector-curvature="0" />
    <path
       style="fill:#296c92;fill-opacity:1;stroke:#ffffff;stroke-width:1.99549;stroke-linecap:round;stroke-linejoin:round;stroke-miterlimit:4;stroke-dasharray:none;stroke-dashoffset:0;stroke-opacity:1"
       d="m -63.484499,-112.1286 46.171323,4.85286 a 46.759651,46.759614 5.999991 0 1 6.039714,-18.47441 l -40.236908,-23.23099 a 93.185525,93.185477 5.999991 0 0 -11.974129,36.85254 z"
       id="path884-6-8-0-8-38-5"
       inkscape:connector-curvature="0" />
  </g>
</svg>
