<?xml version="1.0" encoding="UTF-8" standalone="no"?>
<svg
   xmlns:dc="http://purl.org/dc/elements/1.1/"
   xmlns:cc="http://creativecommons.org/ns#"
   xmlns:rdf="http://www.w3.org/1999/02/22-rdf-syntax-ns#"
   xmlns:svg="http://www.w3.org/2000/svg"
   xmlns="http://www.w3.org/2000/svg"
   xmlns:sodipodi="http://sodipodi.sourceforge.net/DTD/sodipodi-0.dtd"
   xmlns:inkscape="http://www.inkscape.org/namespaces/inkscape"
   width="188.39841mm"
   height="188.37508mm"
   viewBox="0 0 188.3984 188.37507"
   version="1.1"
   id="svg8"
   inkscape:version="1.0.2 (e86c870879, 2021-01-15)"
   sodipodi:docname="10_13_blue.svg">
  <defs
     id="defs2" />
  <sodipodi:namedview
     id="base"
     pagecolor="#ffffff"
     bordercolor="#666666"
     borderopacity="1.0"
     inkscape:pageopacity="0.0"
     inkscape:pageshadow="2"
     inkscape:zoom="0.35"
     inkscape:cx="179.30781"
     inkscape:cy="905.28629"
     inkscape:document-units="mm"
     inkscape:current-layer="layer1"
     inkscape:document-rotation="0"
     showgrid="false"
     inkscape:window-width="2155"
     inkscape:window-height="1262"
     inkscape:window-x="138"
     inkscape:window-y="-11"
     inkscape:window-maximized="1" />
  <metadata
     id="metadata5">
    <rdf:RDF>
      <cc:Work
         rdf:about="">
        <dc:format>image/svg+xml</dc:format>
        <dc:type
           rdf:resource="http://purl.org/dc/dcmitype/StillImage" />
        <dc:title />
      </cc:Work>
    </rdf:RDF>
  </metadata>
  <g
     inkscape:label="Layer 1"
     inkscape:groupmode="layer"
     id="layer1"
     transform="translate(-58.391476,484.45224)">
    <path
       style="fill:#bfd3de;fill-opacity:1;stroke:#ffffff;stroke-width:1.99549;stroke-linecap:round;stroke-linejoin:round;stroke-miterlimit:4;stroke-dasharray:none;stroke-dashoffset:0;stroke-opacity:1"
       d="m 97.835477,-465.65749 27.288243,37.55917 a 46.759651,46.759613 53.999991 0 1 17.77051,-7.87343 l -9.65975,-45.44639 a 93.185524,93.185476 53.999991 0 0 -35.399003,15.76065 z"
       id="path884-6-8-0-8-85"
       inkscape:connector-curvature="0" />
    <path
       style="fill:#bfd3de;fill-opacity:1;stroke:#ffffff;stroke-width:1.99549;stroke-linecap:round;stroke-linejoin:round;stroke-miterlimit:4;stroke-dasharray:none;stroke-dashoffset:0;stroke-opacity:1"
       d="m 59.91764,-400.01794 46.17128,4.85293 a 46.759651,46.759614 5.999991 0 1 6.03971,-18.47442 l -40.236881,-23.23101 a 93.185525,93.185477 5.999991 0 0 -11.974109,36.8525 z"
       id="path884-6-8-0-8-8-2"
       inkscape:connector-curvature="0" />
    <path
       style="fill:#bfd3de;fill-opacity:1;stroke:#ffffff;stroke-width:1.99549;stroke-linecap:round;stroke-linejoin:round;stroke-miterlimit:4;stroke-dasharray:none;stroke-dashoffset:0;stroke-opacity:1"
       d="m 71.907307,-436.86136 40.205733,23.21289 a 46.759651,46.759614 29.999991 0 1 13.03178,-14.42065 l -27.309328,-37.58836 a 93.185525,93.185477 29.999991 0 0 -25.92817,28.79613 z"
       id="path884-6-8-0-8-7-79"
       inkscape:connector-curvature="0" />
    <path
       style="fill:#bfd3de;fill-opacity:1;stroke:#ffffff;stroke-width:1.99549;stroke-linecap:round;stroke-linejoin:round;stroke-miterlimit:4;stroke-dasharray:none;stroke-dashoffset:0;stroke-opacity:1"
       d="m 63.950107,-361.48313 44.153393,-14.34616 a 46.759614,46.759651 71.999991 0 1 -1.99664,-19.33382 l -46.207141,-4.85673 a 93.185477,93.185525 71.999991 0 0 4.050388,38.53671 z"
       id="path884-6-8-0-8-84-3"
       inkscape:connector-curvature="0" />
    <path
       style="fill:#bfd3de;fill-opacity:1;stroke:#ffffff;stroke-width:1.99549;stroke-linecap:round;stroke-linejoin:round;stroke-miterlimit:4;stroke-dasharray:none;stroke-dashoffset:0;stroke-opacity:1"
       d="m 83.32459,-327.92544 34.50108,-31.06482 a 46.759614,46.759651 47.999991 0 1 -9.68783,-16.85017 l -44.187733,14.3573 a 93.185477,93.185525 47.999991 0 0 19.374483,33.55769 z"
       id="path884-6-8-0-8-76-09"
       inkscape:connector-curvature="0" />
    <path
       style="fill:#296c92;fill-opacity:1;stroke:#ffffff;stroke-width:1.99549;stroke-linecap:round;stroke-linejoin:round;stroke-miterlimit:4;stroke-dasharray:none;stroke-dashoffset:0;stroke-opacity:1"
       d="m 114.6732,-305.14934 18.88306,-42.41186 a 46.759614,46.759651 23.999991 0 1 -15.70395,-11.45285 l -34.527839,31.08877 a 93.185477,93.185525 23.999991 0 0 31.348609,22.77611 z"
       id="path884-6-8-0-8-81-76"
       inkscape:connector-curvature="0" />
    <path
       style="fill:#296c92;fill-opacity:1;stroke:#ffffff;stroke-width:1.99549;stroke-linecap:round;stroke-linejoin:round;stroke-miterlimit:4;stroke-dasharray:none;stroke-dashoffset:0;stroke-opacity:1"
       d="m 152.57544,-297.09293 1e-4,-46.42565 a 46.759651,46.759614 89.999991 0 1 -19.00453,-4.07553 l -18.89781,42.44477 a 93.185525,93.185477 89.999991 0 0 37.9023,8.05633 z"
       id="path884-6-8-0-8-9-5"
       inkscape:connector-curvature="0" />
    <path
       style="fill:#296c92;fill-opacity:1;stroke:#ffffff;stroke-width:1.99549;stroke-linecap:round;stroke-linejoin:round;stroke-miterlimit:4;stroke-dasharray:none;stroke-dashoffset:0;stroke-opacity:1"
       d="m 190.47764,-305.13125 -18.88291,-42.41197 a 46.759651,46.759614 65.999991 0 1 -19.01916,4.00663 l -1.7e-4,46.46168 a 93.185525,93.185477 65.999991 0 0 37.9023,-8.05642 z"
       id="path884-6-8-0-8-2-4"
       inkscape:connector-curvature="0" />
    <path
       style="fill:#296c92;fill-opacity:1;stroke:#ffffff;stroke-width:1.99549;stroke-linecap:round;stroke-linejoin:round;stroke-miterlimit:4;stroke-dasharray:none;stroke-dashoffset:0;stroke-opacity:1"
       d="m 221.82623,-327.90736 -34.5009,-31.06492 a 46.759651,46.759614 41.999991 0 1 -15.74522,11.39607 l 18.8975,42.44493 a 93.185525,93.185477 41.999991 0 0 31.34861,-22.77609 z"
       id="path884-6-8-0-8-6-51"
       inkscape:connector-curvature="0" />
    <path
       style="fill:#296c92;fill-opacity:1;stroke:#ffffff;stroke-width:1.99549;stroke-linecap:round;stroke-linejoin:round;stroke-miterlimit:4;stroke-dasharray:none;stroke-dashoffset:0;stroke-opacity:1"
       d="m 241.21412,-361.45293 -44.15339,-14.34639 a 46.759651,46.759614 17.999991 0 1 -9.74877,16.81497 l 34.52764,31.08904 a 93.185525,93.185477 17.999991 0 0 19.37451,-33.55764 z"
       id="path884-6-8-0-8-1-17"
       inkscape:connector-curvature="0" />
    <path
       style="fill:#296c92;fill-opacity:1;stroke:#ffffff;stroke-width:1.99549;stroke-linecap:round;stroke-linejoin:round;stroke-miterlimit:4;stroke-dasharray:none;stroke-dashoffset:0;stroke-opacity:1"
       d="m 245.28164,-399.98409 -46.17134,4.85274 a 46.759614,46.759651 83.999991 0 1 -2.06668,19.32642 l 44.18763,14.35761 a 93.185477,93.185525 83.999991 0 0 4.05038,-38.53676 z"
       id="path884-6-8-0-8-64-410"
       inkscape:connector-curvature="0" />
    <path
       style="fill:#296c92;fill-opacity:1;stroke:#ffffff;stroke-width:1.99549;stroke-linecap:round;stroke-linejoin:round;stroke-miterlimit:4;stroke-dasharray:none;stroke-dashoffset:0;stroke-opacity:1"
       d="m 233.32545,-436.83844 -40.20584,23.21276 a 46.759614,46.759651 59.999991 0 1 5.97277,18.49616 l 46.20717,-4.85641 a 93.185477,93.185525 59.999991 0 0 -11.97411,-36.85251 z"
       id="path884-6-8-0-8-3-59"
       inkscape:connector-curvature="0" />
    <path
       style="fill:#296c92;fill-opacity:1;stroke:#ffffff;stroke-width:1.99549;stroke-linecap:round;stroke-linejoin:round;stroke-miterlimit:4;stroke-dasharray:none;stroke-dashoffset:0;stroke-opacity:1"
       d="m 207.41291,-465.64356 -27.28837,37.55909 a 46.759614,46.759651 35.999991 0 1 12.97945,14.46776 l 40.23708,-23.23069 a 93.185477,93.185525 35.999991 0 0 -25.92816,-28.79616 z"
       id="path884-6-8-0-8-5-0"
       inkscape:connector-curvature="0" />
    <path
       style="fill:#296c92;fill-opacity:1;stroke:#ffffff;stroke-width:1.99549;stroke-linecap:round;stroke-linejoin:round;stroke-miterlimit:4;stroke-dasharray:none;stroke-dashoffset:0;stroke-opacity:1"
       d="m 172.02452,-481.41877 -9.6525,45.41112 a 46.759614,46.759651 11.999991 0 1 17.74189,7.93774 l 27.30962,-37.58819 a 93.185477,93.185525 11.999991 0 0 -35.39901,-15.76067 z"
       id="path884-6-8-0-8-27-5"
       inkscape:connector-curvature="0" />
    <path
       style="fill:#296c92;fill-opacity:1;stroke:#ffffff;stroke-width:1.99549;stroke-linecap:round;stroke-linejoin:round;stroke-miterlimit:4;stroke-dasharray:none;stroke-dashoffset:0;stroke-opacity:1"
       d="m 133.23448,-481.41814 9.65238,45.41115 a 46.759651,46.759614 77.999991 0 1 19.43658,0.0352 l 9.66009,-45.44634 a 93.185525,93.185477 77.999991 0 0 -38.74905,-10e-6 z"
       id="path884-6-8-0-8-38-29"
       inkscape:connector-curvature="0" />
  </g>
</svg>
