<?xml version="1.0" encoding="UTF-8" standalone="no"?>
<svg
   xmlns:dc="http://purl.org/dc/elements/1.1/"
   xmlns:cc="http://creativecommons.org/ns#"
   xmlns:rdf="http://www.w3.org/1999/02/22-rdf-syntax-ns#"
   xmlns:svg="http://www.w3.org/2000/svg"
   xmlns="http://www.w3.org/2000/svg"
   xmlns:sodipodi="http://sodipodi.sourceforge.net/DTD/sodipodi-0.dtd"
   xmlns:inkscape="http://www.inkscape.org/namespaces/inkscape"
   width="188.39835mm"
   height="188.36079mm"
   viewBox="0 0 188.39834 188.36079"
   version="1.1"
   id="svg8"
   inkscape:version="1.0.2 (e86c870879, 2021-01-15)"
   sodipodi:docname="10_14_blue.svg">
  <defs
     id="defs2" />
  <sodipodi:namedview
     id="base"
     pagecolor="#ffffff"
     bordercolor="#666666"
     borderopacity="1.0"
     inkscape:pageopacity="0.0"
     inkscape:pageshadow="2"
     inkscape:zoom="0.35"
     inkscape:cx="461.05046"
     inkscape:cy="704.10098"
     inkscape:document-units="mm"
     inkscape:current-layer="layer1"
     inkscape:document-rotation="0"
     showgrid="false"
     inkscape:window-width="2155"
     inkscape:window-height="1262"
     inkscape:window-x="138"
     inkscape:window-y="-11"
     inkscape:window-maximized="1" />
  <metadata
     id="metadata5">
    <rdf:RDF>
      <cc:Work
         rdf:about="">
        <dc:format>image/svg+xml</dc:format>
        <dc:type
           rdf:resource="http://purl.org/dc/dcmitype/StillImage" />
        <dc:title />
      </cc:Work>
    </rdf:RDF>
  </metadata>
  <g
     inkscape:label="Layer 1"
     inkscape:groupmode="layer"
     id="layer1"
     transform="translate(16.152933,552.17434)">
    <path
       style="fill:#bfd3de;fill-opacity:1;stroke:#ffffff;stroke-width:1.99549;stroke-linecap:round;stroke-linejoin:round;stroke-miterlimit:4;stroke-dasharray:none;stroke-dashoffset:0;stroke-opacity:1"
       d="m 58.682687,-549.14024 9.652356,45.41114 a 46.759651,46.759613 77.999991 0 1 19.436581,0.0352 l 9.660093,-45.44633 a 93.185524,93.185476 77.999991 0 0 -38.74903,0 z"
       id="path884-6-8-0-8-59"
       inkscape:connector-curvature="0" />
    <path
       style="fill:#bfd3de;fill-opacity:1;stroke:#ffffff;stroke-width:1.99549;stroke-linecap:round;stroke-linejoin:round;stroke-miterlimit:4;stroke-dasharray:none;stroke-dashoffset:0;stroke-opacity:1"
       d="m -2.6549921,-504.5981 40.2057011,23.21292 a 46.759651,46.759614 29.999991 0 1 13.031769,-14.42064 l -27.309313,-37.5884 a 93.185525,93.185477 29.999991 0 0 -25.9281571,28.79612 z"
       id="path884-6-8-0-8-8-318"
       inkscape:connector-curvature="0" />
    <path
       style="fill:#bfd3de;fill-opacity:1;stroke:#ffffff;stroke-width:1.99549;stroke-linecap:round;stroke-linejoin:round;stroke-miterlimit:4;stroke-dasharray:none;stroke-dashoffset:0;stroke-opacity:1"
       d="m 23.283683,-533.3796 27.288235,37.55918 a 46.759651,46.759614 53.999991 0 1 17.770526,-7.87342 l -9.659748,-45.44638 a 93.185525,93.185477 53.999991 0 0 -35.399005,15.76064 z"
       id="path884-6-8-0-8-7-92"
       inkscape:connector-curvature="0" />
    <path
       style="fill:#bfd3de;fill-opacity:1;stroke:#ffffff;stroke-width:1.99549;stroke-linecap:round;stroke-linejoin:round;stroke-miterlimit:4;stroke-dasharray:none;stroke-dashoffset:0;stroke-opacity:1"
       d="m -14.644671,-467.75464 46.171239,4.85293 a 46.759651,46.759614 5.999991 0 1 6.039754,-18.47443 l -40.2369137,-23.23098 a 93.185525,93.185477 5.999991 0 0 -11.9740793,36.85248 z"
       id="path884-6-8-0-8-84-31"
       inkscape:connector-curvature="0" />
    <path
       style="fill:#bfd3de;fill-opacity:1;stroke:#ffffff;stroke-width:1.99549;stroke-linecap:round;stroke-linejoin:round;stroke-miterlimit:4;stroke-dasharray:none;stroke-dashoffset:0;stroke-opacity:1"
       d="m -10.59434,-429.21786 44.153508,-14.34627 a 46.759614,46.759651 71.999991 0 1 -1.996692,-19.33378 l -46.207147,-4.85673 a 93.185477,93.185525 71.999991 0 0 4.050331,38.53678 z"
       id="path884-6-8-0-8-76-37"
       inkscape:connector-curvature="0" />
    <path
       style="fill:#296c92;fill-opacity:1;stroke:#ffffff;stroke-width:1.99549;stroke-linecap:round;stroke-linejoin:round;stroke-miterlimit:4;stroke-dasharray:none;stroke-dashoffset:0;stroke-opacity:1"
       d="m 8.7801614,-395.66023 34.5009956,-31.06472 a 46.759614,46.759651 47.999991 0 1 -9.68798,-16.85007 l -44.187692,14.35726 a 93.185477,93.185525 47.999991 0 0 19.3745059,33.55764 z"
       id="path884-6-8-0-8-81-4"
       inkscape:connector-curvature="0" />
    <path
       style="fill:#296c92;fill-opacity:1;stroke:#ffffff;stroke-width:1.99549;stroke-linecap:round;stroke-linejoin:round;stroke-miterlimit:4;stroke-dasharray:none;stroke-dashoffset:0;stroke-opacity:1"
       d="M 40.128746,-372.8841 59.011852,-415.296 A 46.759614,46.759651 23.999991 0 1 43.30802,-426.74902 l -34.5278586,31.08879 a 93.185477,93.185525 23.999991 0 0 31.3486726,22.77608 z"
       id="path884-6-8-0-8-9-494"
       inkscape:connector-curvature="0" />
    <path
       style="fill:#296c92;fill-opacity:1;stroke:#ffffff;stroke-width:1.99549;stroke-linecap:round;stroke-linejoin:round;stroke-miterlimit:4;stroke-dasharray:none;stroke-dashoffset:0;stroke-opacity:1"
       d="m 78.023611,-364.81125 1e-4,-46.42564 a 46.759651,46.759614 89.999991 0 1 -19.004502,-4.07555 l -18.897829,42.44479 a 93.185525,93.185477 89.999991 0 0 37.902318,8.05635 z"
       id="path884-6-8-0-8-2-67"
       inkscape:connector-curvature="0" />
    <path
       style="fill:#296c92;fill-opacity:1;stroke:#ffffff;stroke-width:1.99549;stroke-linecap:round;stroke-linejoin:round;stroke-miterlimit:4;stroke-dasharray:none;stroke-dashoffset:0;stroke-opacity:1"
       d="m 115.92585,-372.86765 -18.882896,-42.412 a 46.759651,46.759614 65.999991 0 1 -19.019175,4.00667 l -1.84e-4,46.46169 a 93.185525,93.185477 65.999991 0 0 37.902245,-8.05637 z"
       id="path884-6-8-0-8-6-3"
       inkscape:connector-curvature="0" />
    <path
       style="fill:#296c92;fill-opacity:1;stroke:#ffffff;stroke-width:1.99549;stroke-linecap:round;stroke-linejoin:round;stroke-miterlimit:4;stroke-dasharray:none;stroke-dashoffset:0;stroke-opacity:1"
       d="m 147.28178,-395.62729 -34.50092,-31.06487 a 46.759651,46.759614 41.999991 0 1 -15.745213,11.39605 l 18.897513,42.44491 a 93.185525,93.185477 41.999991 0 0 31.34862,-22.7761 z"
       id="path884-6-8-0-8-1-97"
       inkscape:connector-curvature="0" />
    <path
       style="fill:#296c92;fill-opacity:1;stroke:#ffffff;stroke-width:1.99549;stroke-linecap:round;stroke-linejoin:round;stroke-miterlimit:4;stroke-dasharray:none;stroke-dashoffset:0;stroke-opacity:1"
       d="m 166.66968,-429.17284 -44.1534,-14.34638 a 46.759651,46.759614 17.999991 0 1 -9.74877,16.81497 l 34.52764,31.08905 a 93.185525,93.185477 17.999991 0 0 19.37452,-33.55763 z"
       id="path884-6-8-0-8-64-47"
       inkscape:connector-curvature="0" />
    <path
       style="fill:#296c92;fill-opacity:1;stroke:#ffffff;stroke-width:1.99549;stroke-linecap:round;stroke-linejoin:round;stroke-miterlimit:4;stroke-dasharray:none;stroke-dashoffset:0;stroke-opacity:1"
       d="m 170.73717,-467.70399 -46.17134,4.85273 a 46.759614,46.759651 83.999991 0 1 -2.06667,19.32643 l 44.18763,14.3576 a 93.185477,93.185525 83.999991 0 0 4.05037,-38.53676 z"
       id="path884-6-8-0-8-3-3"
       inkscape:connector-curvature="0" />
    <path
       style="fill:#296c92;fill-opacity:1;stroke:#ffffff;stroke-width:1.99549;stroke-linecap:round;stroke-linejoin:round;stroke-miterlimit:4;stroke-dasharray:none;stroke-dashoffset:0;stroke-opacity:1"
       d="m 158.78098,-504.55836 -40.20582,23.21276 a 46.759614,46.759651 59.999991 0 1 5.97275,18.49617 l 46.20718,-4.85639 a 93.185477,93.185525 59.999991 0 0 -11.97411,-36.85254 z"
       id="path884-6-8-0-8-5-64"
       inkscape:connector-curvature="0" />
    <path
       style="fill:#296c92;fill-opacity:1;stroke:#ffffff;stroke-width:1.99549;stroke-linecap:round;stroke-linejoin:round;stroke-miterlimit:4;stroke-dasharray:none;stroke-dashoffset:0;stroke-opacity:1"
       d="m 132.86844,-533.36348 -27.28837,37.55909 a 46.759614,46.759651 35.999991 0 1 12.97946,14.46777 l 40.23707,-23.23069 a 93.185477,93.185525 35.999991 0 0 -25.92816,-28.79617 z"
       id="path884-6-8-0-8-27-42"
       inkscape:connector-curvature="0" />
    <path
       style="fill:#296c92;fill-opacity:1;stroke:#ffffff;stroke-width:1.99549;stroke-linecap:round;stroke-linejoin:round;stroke-miterlimit:4;stroke-dasharray:none;stroke-dashoffset:0;stroke-opacity:1"
       d="m 97.431717,-549.14024 -9.652491,45.41113 a 46.759614,46.759651 11.999991 0 1 17.741884,7.93773 l 27.30963,-37.58819 a 93.185477,93.185525 11.999991 0 0 -35.399023,-15.76067 z"
       id="path884-6-8-0-8-38-4"
       inkscape:connector-curvature="0" />
  </g>
</svg>
