<?xml version="1.0" encoding="UTF-8" standalone="no"?>
<svg
   xmlns:dc="http://purl.org/dc/elements/1.1/"
   xmlns:cc="http://creativecommons.org/ns#"
   xmlns:rdf="http://www.w3.org/1999/02/22-rdf-syntax-ns#"
   xmlns:svg="http://www.w3.org/2000/svg"
   xmlns="http://www.w3.org/2000/svg"
   xmlns:sodipodi="http://sodipodi.sourceforge.net/DTD/sodipodi-0.dtd"
   xmlns:inkscape="http://www.inkscape.org/namespaces/inkscape"
   width="188.35077mm"
   height="188.39903mm"
   viewBox="0 0 188.35076 188.39902"
   version="1.1"
   id="svg8"
   inkscape:version="1.0.2 (e86c870879, 2021-01-15)"
   sodipodi:docname="10_11_blue.svg">
  <defs
     id="defs2" />
  <sodipodi:namedview
     id="base"
     pagecolor="#ffffff"
     bordercolor="#666666"
     borderopacity="1.0"
     inkscape:pageopacity="0.0"
     inkscape:pageshadow="2"
     inkscape:zoom="0.35"
     inkscape:cx="1087.2947"
     inkscape:cy="367.57675"
     inkscape:document-units="mm"
     inkscape:current-layer="layer1"
     inkscape:document-rotation="0"
     showgrid="false"
     inkscape:window-width="2155"
     inkscape:window-height="1262"
     inkscape:window-x="138"
     inkscape:window-y="-11"
     inkscape:window-maximized="1" />
  <metadata
     id="metadata5">
    <rdf:RDF>
      <cc:Work
         rdf:about="">
        <dc:format>image/svg+xml</dc:format>
        <dc:type
           rdf:resource="http://purl.org/dc/dcmitype/StillImage" />
        <dc:title />
      </cc:Work>
    </rdf:RDF>
  </metadata>
  <g
     inkscape:label="Layer 1"
     inkscape:groupmode="layer"
     id="layer1"
     transform="translate(181.84671,342.18326)">
    <path
       style="fill:#bfd3de;fill-opacity:1;stroke:#ffffff;stroke-width:1.99549;stroke-linecap:round;stroke-linejoin:round;stroke-miterlimit:4;stroke-dasharray:none;stroke-dashoffset:0;stroke-opacity:1"
       d="m -180.33848,-257.72658 46.17131,4.85288 a 46.759651,46.759613 5.999991 0 1 6.03969,-18.47442 l -40.23689,-23.23098 a 93.185524,93.185476 5.999991 0 0 -11.97411,36.85252 z"
       id="path884-6-8-0-8-91"
       inkscape:connector-curvature="0" />
    <path
       style="fill:#bfd3de;fill-opacity:1;stroke:#ffffff;stroke-width:1.99549;stroke-linecap:round;stroke-linejoin:round;stroke-miterlimit:4;stroke-dasharray:none;stroke-dashoffset:0;stroke-opacity:1"
       d="m -156.93077,-185.6267 34.50105,-31.06471 a 46.759614,46.759651 47.999991 0 1 -9.68782,-16.85018 l -44.18773,14.35725 a 93.185477,93.185525 47.999991 0 0 19.3745,33.55764 z"
       id="path884-6-8-0-8-8-7"
       inkscape:connector-curvature="0" />
    <path
       style="fill:#bfd3de;fill-opacity:1;stroke:#ffffff;stroke-width:1.99549;stroke-linecap:round;stroke-linejoin:round;stroke-miterlimit:4;stroke-dasharray:none;stroke-dashoffset:0;stroke-opacity:1"
       d="m -176.28811,-219.18982 44.15343,-14.34623 a 46.759614,46.759651 71.999991 0 1 -1.99667,-19.3338 l -46.20711,-4.85673 a 93.185477,93.185525 71.999991 0 0 4.05037,38.53676 z"
       id="path884-6-8-0-8-7-66"
       inkscape:connector-curvature="0" />
    <path
       style="fill:#bfd3de;fill-opacity:1;stroke:#ffffff;stroke-width:1.99549;stroke-linecap:round;stroke-linejoin:round;stroke-miterlimit:4;stroke-dasharray:none;stroke-dashoffset:0;stroke-opacity:1"
       d="m -125.59557,-162.83859 18.88311,-42.41182 a 46.759614,46.759651 23.999991 0 1 -15.70385,-11.45306 l -34.52786,31.08881 a 93.185477,93.185525 23.999991 0 0 31.3486,22.77607 z"
       id="path884-6-8-0-8-84-1"
       inkscape:connector-curvature="0" />
    <path
       style="fill:#bfd3de;fill-opacity:1;stroke:#ffffff;stroke-width:1.99549;stroke-linecap:round;stroke-linejoin:round;stroke-miterlimit:4;stroke-dasharray:none;stroke-dashoffset:0;stroke-opacity:1"
       d="m -87.693294,-154.78216 7.1e-5,-46.42572 a 46.759651,46.759614 89.999991 0 1 -19.004537,-4.0755 l -18.89781,42.44479 a 93.185525,93.185477 89.999991 0 0 37.902276,8.05643 z"
       id="path884-6-8-0-8-76-49"
       inkscape:connector-curvature="0" />
    <path
       style="fill:#296c92;fill-opacity:1;stroke:#ffffff;stroke-width:1.99549;stroke-linecap:round;stroke-linejoin:round;stroke-miterlimit:4;stroke-dasharray:none;stroke-dashoffset:0;stroke-opacity:1"
       d="m -49.791041,-162.83853 -18.882916,-42.41192 a 46.759651,46.759614 65.999991 0 1 -19.019118,4.00686 l -1.78e-4,46.46163 a 93.185525,93.185477 65.999991 0 0 37.902263,-8.05637 z"
       id="path884-6-8-0-8-81-86"
       inkscape:connector-curvature="0" />
    <path
       style="fill:#296c92;fill-opacity:1;stroke:#ffffff;stroke-width:1.99549;stroke-linecap:round;stroke-linejoin:round;stroke-miterlimit:4;stroke-dasharray:none;stroke-dashoffset:0;stroke-opacity:1"
       d="m -18.442407,-185.61459 -34.500915,-31.0649 a 46.759651,46.759614 41.999991 0 1 -15.745223,11.39605 l 18.897504,42.44491 a 93.185525,93.185477 41.999991 0 0 31.348614,-22.77616 z"
       id="path884-6-8-0-8-9-218"
       inkscape:connector-curvature="0" />
    <path
       style="fill:#296c92;fill-opacity:1;stroke:#ffffff;stroke-width:1.99549;stroke-linecap:round;stroke-linejoin:round;stroke-miterlimit:4;stroke-dasharray:none;stroke-dashoffset:0;stroke-opacity:1"
       d="M 0.94548139,-219.1601 -43.207893,-233.50651 a 46.759651,46.759614 17.999991 0 1 -9.748795,16.81494 l 34.527648,31.08907 a 93.185525,93.185477 17.999991 0 0 19.37450099,-33.5577 z"
       id="path884-6-8-0-8-2-68"
       inkscape:connector-curvature="0" />
    <path
       style="fill:#296c92;fill-opacity:1;stroke:#ffffff;stroke-width:1.99549;stroke-linecap:round;stroke-linejoin:round;stroke-miterlimit:4;stroke-dasharray:none;stroke-dashoffset:0;stroke-opacity:1"
       d="m 4.995824,-257.69684 -46.171339,4.85267 a 46.759614,46.759651 83.999991 0 1 -2.066679,19.32644 L 0.94544161,-219.1601 A 93.185477,93.185525 83.999991 0 0 4.995814,-257.69684 Z"
       id="path884-6-8-0-8-6-17"
       inkscape:connector-curvature="0" />
    <path
       style="fill:#296c92;fill-opacity:1;stroke:#ffffff;stroke-width:1.99549;stroke-linecap:round;stroke-linejoin:round;stroke-miterlimit:4;stroke-dasharray:none;stroke-dashoffset:0;stroke-opacity:1"
       d="m -6.9603551,-294.55122 -40.2058279,23.21276 a 46.759614,46.759651 59.999991 0 1 5.972755,18.49616 l 46.2071644,-4.85641 a 93.185477,93.185525 59.999991 0 0 -11.9741113,-36.85251 z"
       id="path884-6-8-0-8-1-23"
       inkscape:connector-curvature="0" />
    <path
       style="fill:#296c92;fill-opacity:1;stroke:#ffffff;stroke-width:1.99549;stroke-linecap:round;stroke-linejoin:round;stroke-miterlimit:4;stroke-dasharray:none;stroke-dashoffset:0;stroke-opacity:1"
       d="m -32.872883,-323.35635 -27.288373,37.5591 a 46.759614,46.759651 35.999991 0 1 12.979454,14.46775 l 40.2370747,-23.23069 a 93.185477,93.185525 35.999991 0 0 -25.9281547,-28.79615 z"
       id="path884-6-8-0-8-64-84"
       inkscape:connector-curvature="0" />
    <path
       style="fill:#296c92;fill-opacity:1;stroke:#ffffff;stroke-width:1.99549;stroke-linecap:round;stroke-linejoin:round;stroke-miterlimit:4;stroke-dasharray:none;stroke-dashoffset:0;stroke-opacity:1"
       d="m -68.261261,-339.13155 -9.652512,45.41113 a 46.759614,46.759651 11.999991 0 1 17.74189,7.93772 l 27.309619,-37.58819 a 93.185477,93.185525 11.999991 0 0 -35.398996,-15.76065 z"
       id="path884-6-8-0-8-3-10"
       inkscape:connector-curvature="0" />
    <path
       style="fill:#296c92;fill-opacity:1;stroke:#ffffff;stroke-width:1.99549;stroke-linecap:round;stroke-linejoin:round;stroke-miterlimit:4;stroke-dasharray:none;stroke-dashoffset:0;stroke-opacity:1"
       d="m -107.00651,-339.14916 9.652362,45.41115 a 46.759651,46.759614 77.999991 0 1 19.436586,0.0352 l 9.660092,-45.44635 a 93.185525,93.185477 77.999991 0 0 -38.74904,-10e-6 z"
       id="path884-6-8-0-8-5-29"
       inkscape:connector-curvature="0" />
    <path
       style="fill:#296c92;fill-opacity:1;stroke:#ffffff;stroke-width:1.99549;stroke-linecap:round;stroke-linejoin:round;stroke-miterlimit:4;stroke-dasharray:none;stroke-dashoffset:0;stroke-opacity:1"
       d="m -142.40923,-323.40614 27.28825,37.55918 a 46.759651,46.759614 53.999991 0 1 17.770536,-7.87341 l -9.659756,-45.44641 a 93.185525,93.185477 53.999991 0 0 -35.39903,15.76064 z"
       id="path884-6-8-0-8-27-64"
       inkscape:connector-curvature="0" />
    <path
       style="fill:#296c92;fill-opacity:1;stroke:#ffffff;stroke-width:1.99549;stroke-linecap:round;stroke-linejoin:round;stroke-miterlimit:4;stroke-dasharray:none;stroke-dashoffset:0;stroke-opacity:1"
       d="m -168.36437,-294.5791 40.20577,23.21288 a 46.759651,46.759614 29.999991 0 1 13.03177,-14.42064 l -27.30935,-37.58839 a 93.185525,93.185477 29.999991 0 0 -25.92819,28.79615 z"
       id="path884-6-8-0-8-38-02"
       inkscape:connector-curvature="0" />
  </g>
</svg>
