<?xml version="1.0" encoding="UTF-8" standalone="no"?>
<svg
   xmlns:dc="http://purl.org/dc/elements/1.1/"
   xmlns:cc="http://creativecommons.org/ns#"
   xmlns:rdf="http://www.w3.org/1999/02/22-rdf-syntax-ns#"
   xmlns:svg="http://www.w3.org/2000/svg"
   xmlns="http://www.w3.org/2000/svg"
   xmlns:sodipodi="http://sodipodi.sourceforge.net/DTD/sodipodi-0.dtd"
   xmlns:inkscape="http://www.inkscape.org/namespaces/inkscape"
   width="188.38121mm"
   height="188.3903mm"
   viewBox="0 0 188.38121 188.3903"
   version="1.1"
   id="svg8"
   inkscape:version="1.0.2 (e86c870879, 2021-01-15)"
   sodipodi:docname="10_1_blue.svg">
  <defs
     id="defs2" />
  <sodipodi:namedview
     id="base"
     pagecolor="#ffffff"
     bordercolor="#666666"
     borderopacity="1.0"
     inkscape:pageopacity="0.0"
     inkscape:pageshadow="2"
     inkscape:zoom="0.35"
     inkscape:cx="-266.86111"
     inkscape:cy="750.29892"
     inkscape:document-units="mm"
     inkscape:current-layer="layer1"
     inkscape:document-rotation="0"
     showgrid="false"
     inkscape:window-width="2155"
     inkscape:window-height="1262"
     inkscape:window-x="138"
     inkscape:window-y="-11"
     inkscape:window-maximized="1" />
  <metadata
     id="metadata5">
    <rdf:RDF>
      <cc:Work
         rdf:about="">
        <dc:format>image/svg+xml</dc:format>
        <dc:type
           rdf:resource="http://purl.org/dc/dcmitype/StillImage" />
        <dc:title />
      </cc:Work>
    </rdf:RDF>
  </metadata>
  <g
     inkscape:label="Layer 1"
     inkscape:groupmode="layer"
     id="layer1"
     transform="translate(-176.44033,50.349922)">
    <path
       style="fill:#bfd3de;fill-opacity:1;stroke:#ffffff;stroke-width:1.99549;stroke-linecap:round;stroke-linejoin:round;stroke-miterlimit:4;stroke-dasharray:none;stroke-dashoffset:0;stroke-opacity:1"
       d="M 325.39776,-31.537555 298.10939,6.0215288 A 46.759613,46.759651 35.999991 0 1 311.08885,20.489264 L 351.32592,-2.7414143 A 93.185476,93.185524 35.999991 0 0 325.39776,-31.537555 Z"
       id="path884-6-8-0-8-36"
       inkscape:connector-curvature="0" />
    <path
       style="fill:#bfd3de;fill-opacity:1;stroke:#ffffff;stroke-width:1.99549;stroke-linecap:round;stroke-linejoin:round;stroke-miterlimit:4;stroke-dasharray:none;stroke-dashoffset:0;stroke-opacity:1"
       d="m 251.25358,-47.315823 9.6523,45.4111338 a 46.759651,46.759614 77.999991 0 1 19.43658,0.035195 l 9.66013,-45.4463234 a 93.185525,93.185477 77.999991 0 0 -38.74901,-5e-6 z"
       id="path884-6-8-0-8-8-4"
       inkscape:connector-curvature="0" />
    <path
       style="fill:#bfd3de;fill-opacity:1;stroke:#ffffff;stroke-width:1.99549;stroke-linecap:round;stroke-linejoin:round;stroke-miterlimit:4;stroke-dasharray:none;stroke-dashoffset:0;stroke-opacity:1"
       d="m 289.99876,-47.298214 -9.65251,45.4111046 a 46.759614,46.759651 11.999991 0 1 17.74189,7.9377302 l 27.30961,-37.5881578 a 93.185477,93.185525 11.999991 0 0 -35.399,-15.760659 z"
       id="path884-6-8-0-8-7-2"
       inkscape:connector-curvature="0" />
    <path
       style="fill:#bfd3de;fill-opacity:1;stroke:#ffffff;stroke-width:1.99549;stroke-linecap:round;stroke-linejoin:round;stroke-miterlimit:4;stroke-dasharray:none;stroke-dashoffset:0;stroke-opacity:1"
       d="m 215.85089,-31.572807 27.28816,37.5591635 a 46.759651,46.759614 53.999991 0 1 17.77056,-7.8734006 l -9.65977,-45.4464109 a 93.185525,93.185477 53.999991 0 0 -35.39895,15.760648 z"
       id="path884-6-8-0-8-84-6"
       inkscape:connector-curvature="0" />
    <path
       style="fill:#bfd3de;fill-opacity:1;stroke:#ffffff;stroke-width:1.99549;stroke-linecap:round;stroke-linejoin:round;stroke-miterlimit:4;stroke-dasharray:none;stroke-dashoffset:0;stroke-opacity:1"
       d="M 189.92268,-2.7766845 230.1285,20.436238 A 46.759651,46.759614 29.999991 0 1 243.16026,6.0155789 L 215.85089,-31.572807 a 93.185525,93.185477 29.999991 0 0 -25.92821,28.7961225 z"
       id="path884-6-8-0-8-76-0"
       inkscape:connector-curvature="0" />
    <path
       style="fill:#296c92;fill-opacity:1;stroke:#ffffff;stroke-width:1.99549;stroke-linecap:round;stroke-linejoin:round;stroke-miterlimit:4;stroke-dasharray:none;stroke-dashoffset:0;stroke-opacity:1"
       d="m 177.94857,34.075816 46.17127,4.852877 a 46.759651,46.759614 5.999991 0 1 6.03951,-18.474471 L 189.92249,-2.7767476 A 93.185525,93.185477 5.999991 0 0 177.94838,34.075762 Z"
       id="path884-6-8-0-8-81-0"
       inkscape:connector-curvature="0" />
    <path
       style="fill:#296c92;fill-opacity:1;stroke:#ffffff;stroke-width:1.99549;stroke-linecap:round;stroke-linejoin:round;stroke-miterlimit:4;stroke-dasharray:none;stroke-dashoffset:0;stroke-opacity:1"
       d="M 181.99891,72.612561 226.15236,58.266342 A 46.759614,46.759651 71.999991 0 1 224.1557,38.932553 l -46.20713,-4.856737 a 93.185477,93.185525 71.999991 0 0 4.05043,38.536777 z"
       id="path884-6-8-0-8-9-4"
       inkscape:connector-curvature="0" />
    <path
       style="fill:#296c92;fill-opacity:1;stroke:#ffffff;stroke-width:1.99549;stroke-linecap:round;stroke-linejoin:round;stroke-miterlimit:4;stroke-dasharray:none;stroke-dashoffset:0;stroke-opacity:1"
       d="M 201.35623,106.17572 235.85727,75.11098 A 46.759614,46.759651 47.999991 0 1 226.1695,58.260806 l -44.18775,14.357287 a 93.185477,93.185525 47.999991 0 0 19.37457,33.557657 z"
       id="path884-6-8-0-8-2-1"
       inkscape:connector-curvature="0" />
    <path
       style="fill:#296c92;fill-opacity:1;stroke:#ffffff;stroke-width:1.99549;stroke-linecap:round;stroke-linejoin:round;stroke-miterlimit:4;stroke-dasharray:none;stroke-dashoffset:0;stroke-opacity:1"
       d="M 232.70485,128.95179 251.58798,86.539899 A 46.759614,46.759651 23.999991 0 1 235.88413,75.086883 l -34.52789,31.088797 a 93.185477,93.185525 23.999991 0 0 31.34861,22.7761 z"
       id="path884-6-8-0-8-6-0"
       inkscape:connector-curvature="0" />
    <path
       style="fill:#296c92;fill-opacity:1;stroke:#ffffff;stroke-width:1.99549;stroke-linecap:round;stroke-linejoin:round;stroke-miterlimit:4;stroke-dasharray:none;stroke-dashoffset:0;stroke-opacity:1"
       d="m 270.59977,137.02462 8e-5,-46.425643 a 46.759651,46.759614 89.999991 0 1 -19.00453,-4.075523 l -18.89781,42.444786 a 93.185525,93.185477 89.999991 0 0 37.90227,8.05637 z"
       id="path884-6-8-0-8-1-6"
       inkscape:connector-curvature="0" />
    <path
       style="fill:#296c92;fill-opacity:1;stroke:#ffffff;stroke-width:1.99549;stroke-linecap:round;stroke-linejoin:round;stroke-miterlimit:4;stroke-dasharray:none;stroke-dashoffset:0;stroke-opacity:1"
       d="M 308.50201,128.98628 289.61905,86.574305 a 46.759651,46.759614 65.999991 0 1 -19.01916,4.006665 l -1.7e-4,46.46167 a 93.185525,93.185477 65.999991 0 0 37.90228,-8.05636 z"
       id="path884-6-8-0-8-64-0"
       inkscape:connector-curvature="0" />
    <path
       style="fill:#296c92;fill-opacity:1;stroke:#ffffff;stroke-width:1.99549;stroke-linecap:round;stroke-linejoin:round;stroke-miterlimit:4;stroke-dasharray:none;stroke-dashoffset:0;stroke-opacity:1"
       d="M 339.85791,106.22665 305.35698,75.16176 a 46.759651,46.759614 41.999991 0 1 -15.74521,11.396067 l 18.89752,42.444923 a 93.185525,93.185477 41.999991 0 0 31.34862,-22.77611 z"
       id="path884-6-8-0-8-3-9"
       inkscape:connector-curvature="0" />
    <path
       style="fill:#296c92;fill-opacity:1;stroke:#ffffff;stroke-width:1.99549;stroke-linecap:round;stroke-linejoin:round;stroke-miterlimit:4;stroke-dasharray:none;stroke-dashoffset:0;stroke-opacity:1"
       d="M 359.2458,72.681077 315.0924,58.334695 a 46.759651,46.759614 17.999991 0 1 -9.74878,16.814977 l 34.52764,31.089058 A 93.185525,93.185477 17.999991 0 0 359.2458,72.681077 Z"
       id="path884-6-8-0-8-5-7"
       inkscape:connector-curvature="0" />
    <path
       style="fill:#296c92;fill-opacity:1;stroke:#ffffff;stroke-width:1.99549;stroke-linecap:round;stroke-linejoin:round;stroke-miterlimit:4;stroke-dasharray:none;stroke-dashoffset:0;stroke-opacity:1"
       d="m 363.3133,34.149915 -46.17133,4.852731 a 46.759614,46.759651 83.999991 0 1 -2.06669,19.326437 L 359.2629,72.68669 a 93.185477,93.185525 83.999991 0 0 4.0504,-38.536775 z"
       id="path884-6-8-0-8-27-9"
       inkscape:connector-curvature="0" />
    <path
       style="fill:#296c92;fill-opacity:1;stroke:#ffffff;stroke-width:1.99549;stroke-linecap:round;stroke-linejoin:round;stroke-miterlimit:4;stroke-dasharray:none;stroke-dashoffset:0;stroke-opacity:1"
       d="M 351.32592,-2.7414143 311.12009,20.471364 a 46.759614,46.759651 59.999991 0 1 5.97276,18.496165 l 46.20717,-4.856396 a 93.185477,93.185525 59.999991 0 0 -11.9741,-36.8525473 z"
       id="path884-6-8-0-8-38-1"
       inkscape:connector-curvature="0" />
  </g>
</svg>
