<?xml version="1.0" encoding="UTF-8" standalone="no"?>
<svg
   xmlns:dc="http://purl.org/dc/elements/1.1/"
   xmlns:cc="http://creativecommons.org/ns#"
   xmlns:rdf="http://www.w3.org/1999/02/22-rdf-syntax-ns#"
   xmlns:svg="http://www.w3.org/2000/svg"
   xmlns="http://www.w3.org/2000/svg"
   xmlns:sodipodi="http://sodipodi.sourceforge.net/DTD/sodipodi-0.dtd"
   xmlns:inkscape="http://www.inkscape.org/namespaces/inkscape"
   width="188.37155mm"
   height="188.41248mm"
   viewBox="0 0 188.37155 188.41247"
   version="1.1"
   id="svg8"
   inkscape:version="1.0.2 (e86c870879, 2021-01-15)"
   sodipodi:docname="10_2_blue.svg">
  <defs
     id="defs2" />
  <sodipodi:namedview
     id="base"
     pagecolor="#ffffff"
     bordercolor="#666666"
     borderopacity="1.0"
     inkscape:pageopacity="0.0"
     inkscape:pageshadow="2"
     inkscape:zoom="0.35"
     inkscape:cx="-468.02623"
     inkscape:cy="420.63971"
     inkscape:document-units="mm"
     inkscape:current-layer="layer1"
     inkscape:document-rotation="0"
     showgrid="false"
     inkscape:window-width="2155"
     inkscape:window-height="1262"
     inkscape:window-x="138"
     inkscape:window-y="-11"
     inkscape:window-maximized="1" />
  <metadata
     id="metadata5">
    <rdf:RDF>
      <cc:Work
         rdf:about="">
        <dc:format>image/svg+xml</dc:format>
        <dc:type
           rdf:resource="http://purl.org/dc/dcmitype/StillImage" />
        <dc:title />
      </cc:Work>
    </rdf:RDF>
  </metadata>
  <g
     inkscape:label="Layer 1"
     inkscape:groupmode="layer"
     id="layer1"
     transform="translate(-229.66527,-36.87241)">
    <path
       style="fill:#bfd3de;fill-opacity:1;stroke:#ffffff;stroke-width:1.99549;stroke-linecap:round;stroke-linejoin:round;stroke-miterlimit:4;stroke-dasharray:none;stroke-dashoffset:0;stroke-opacity:1"
       d="M 404.55446,84.495445 364.34864,107.7082 a 46.759613,46.759651 59.999991 0 1 5.97277,18.49615 l 46.20716,-4.85639 A 93.185476,93.185524 59.999991 0 0 404.55446,84.495445 Z"
       id="path884-6-8-0-8-32"
       inkscape:connector-curvature="0" />
    <path
       style="fill:#bfd3de;fill-opacity:1;stroke:#ffffff;stroke-width:1.99549;stroke-linecap:round;stroke-linejoin:round;stroke-miterlimit:4;stroke-dasharray:none;stroke-dashoffset:0;stroke-opacity:1"
       d="m 343.23798,39.924124 -9.65255,45.411081 a 46.759614,46.759651 11.999991 0 1 17.74189,7.937724 l 27.30965,-37.588155 a 93.185477,93.185525 11.999991 0 0 -35.39899,-15.76065 z"
       id="path884-6-8-0-8-8-8"
       inkscape:connector-curvature="0" />
    <path
       style="fill:#bfd3de;fill-opacity:1;stroke:#ffffff;stroke-width:1.99549;stroke-linecap:round;stroke-linejoin:round;stroke-miterlimit:4;stroke-dasharray:none;stroke-dashoffset:0;stroke-opacity:1"
       d="M 378.62631,55.699298 351.33794,93.258375 A 46.759614,46.759651 35.999991 0 1 364.3174,107.72613 L 404.55445,84.495459 A 93.185477,93.185525 35.999991 0 0 378.62629,55.699311 Z"
       id="path884-6-8-0-8-7-8"
       inkscape:connector-curvature="0" />
    <path
       style="fill:#bfd3de;fill-opacity:1;stroke:#ffffff;stroke-width:1.99549;stroke-linecap:round;stroke-linejoin:round;stroke-miterlimit:4;stroke-dasharray:none;stroke-dashoffset:0;stroke-opacity:1"
       d="m 304.49276,39.906516 9.65228,45.411097 a 46.759651,46.759614 77.999991 0 1 19.43662,0.03523 l 9.66008,-45.446345 a 93.185525,93.185477 77.999991 0 0 -38.74898,1.7e-5 z"
       id="path884-6-8-0-8-84-67"
       inkscape:connector-curvature="0" />
    <path
       style="fill:#bfd3de;fill-opacity:1;stroke:#ffffff;stroke-width:1.99549;stroke-linecap:round;stroke-linejoin:round;stroke-miterlimit:4;stroke-dasharray:none;stroke-dashoffset:0;stroke-opacity:1"
       d="m 269.09372,55.66713 27.2883,37.55924 a 46.759651,46.759614 53.999991 0 1 17.77051,-7.873435 L 304.49276,39.906516 A 93.185525,93.185477 53.999991 0 0 269.09372,55.66713 Z"
       id="path884-6-8-0-8-76-7"
       inkscape:connector-curvature="0" />
    <path
       style="fill:#296c92;fill-opacity:1;stroke:#ffffff;stroke-width:1.99549;stroke-linecap:round;stroke-linejoin:round;stroke-miterlimit:4;stroke-dasharray:none;stroke-dashoffset:0;stroke-opacity:1"
       d="m 243.16557,84.463251 40.20571,23.212869 A 46.759651,46.759614 29.999991 0 1 296.40289,93.255348 L 269.09357,55.666994 a 93.185525,93.185477 29.999991 0 0 -25.92815,28.796128 z"
       id="path884-6-8-0-8-81-1"
       inkscape:connector-curvature="0" />
    <path
       style="fill:#296c92;fill-opacity:1;stroke:#ffffff;stroke-width:1.99549;stroke-linecap:round;stroke-linejoin:round;stroke-miterlimit:4;stroke-dasharray:none;stroke-dashoffset:0;stroke-opacity:1"
       d="m 231.19143,121.31574 46.17132,4.8529 a 46.759651,46.759614 5.999991 0 1 6.03972,-18.47441 L 243.16557,84.463251 A 93.185525,93.185477 5.999991 0 0 231.1915,121.31581 Z"
       id="path884-6-8-0-8-9-8"
       inkscape:connector-curvature="0" />
    <path
       style="fill:#296c92;fill-opacity:1;stroke:#ffffff;stroke-width:1.99549;stroke-linecap:round;stroke-linejoin:round;stroke-miterlimit:4;stroke-dasharray:none;stroke-dashoffset:0;stroke-opacity:1"
       d="m 235.22386,159.85054 44.15343,-14.34621 a 46.759614,46.759651 71.999991 0 1 -1.99663,-19.33377 l -46.20715,-4.85674 a 93.185477,93.185525 71.999991 0 0 4.05042,38.53679 z"
       id="path884-6-8-0-8-2-2"
       inkscape:connector-curvature="0" />
    <path
       style="fill:#296c92;fill-opacity:1;stroke:#ffffff;stroke-width:1.99549;stroke-linecap:round;stroke-linejoin:round;stroke-miterlimit:4;stroke-dasharray:none;stroke-dashoffset:0;stroke-opacity:1"
       d="m 254.59838,193.40815 34.50107,-31.06473 a 46.759614,46.759651 47.999991 0 1 -9.68781,-16.85018 l -44.18775,14.35728 a 93.185477,93.185525 47.999991 0 0 19.3745,33.55762 z"
       id="path884-6-8-0-8-6-4"
       inkscape:connector-curvature="0" />
    <path
       style="fill:#296c92;fill-opacity:1;stroke:#ffffff;stroke-width:1.99549;stroke-linecap:round;stroke-linejoin:round;stroke-miterlimit:4;stroke-dasharray:none;stroke-dashoffset:0;stroke-opacity:1"
       d="m 285.9336,216.1963 18.88308,-42.4119 a 46.759614,46.759651 23.999991 0 1 -15.70383,-11.45302 l -34.52786,31.08881 a 93.185477,93.185525 23.999991 0 0 31.34862,22.7761 z"
       id="path884-6-8-0-8-1-2"
       inkscape:connector-curvature="0" />
    <path
       style="fill:#296c92;fill-opacity:1;stroke:#ffffff;stroke-width:1.99549;stroke-linecap:round;stroke-linejoin:round;stroke-miterlimit:4;stroke-dasharray:none;stroke-dashoffset:0;stroke-opacity:1"
       d="m 323.8285,224.26914 7e-5,-46.42566 a 46.759651,46.759614 89.999991 0 1 -19.00452,-4.07552 l -18.89782,42.44479 a 93.185525,93.185477 89.999991 0 0 37.90227,8.05638 z"
       id="path884-6-8-0-8-64-9"
       inkscape:connector-curvature="0" />
    <path
       style="fill:#296c92;fill-opacity:1;stroke:#ffffff;stroke-width:1.99549;stroke-linecap:round;stroke-linejoin:round;stroke-miterlimit:4;stroke-dasharray:none;stroke-dashoffset:0;stroke-opacity:1"
       d="M 361.73073,216.23078 342.84779,173.8188 a 46.759651,46.759614 65.999991 0 1 -19.01917,4.00667 l -1.6e-4,46.46167 a 93.185525,93.185477 65.999991 0 0 37.90226,-8.05637 z"
       id="path884-6-8-0-8-3-90"
       inkscape:connector-curvature="0" />
    <path
       style="fill:#296c92;fill-opacity:1;stroke:#ffffff;stroke-width:1.99549;stroke-linecap:round;stroke-linejoin:round;stroke-miterlimit:4;stroke-dasharray:none;stroke-dashoffset:0;stroke-opacity:1"
       d="m 393.08665,193.47114 -34.50093,-31.06487 a 46.759651,46.759614 41.999991 0 1 -15.74522,11.39605 l 18.89751,42.44492 a 93.185525,93.185477 41.999991 0 0 31.34864,-22.7761 z"
       id="path884-6-8-0-8-5-2"
       inkscape:connector-curvature="0" />
    <path
       style="fill:#296c92;fill-opacity:1;stroke:#ffffff;stroke-width:1.99549;stroke-linecap:round;stroke-linejoin:round;stroke-miterlimit:4;stroke-dasharray:none;stroke-dashoffset:0;stroke-opacity:1"
       d="m 412.47453,159.92557 -44.15339,-14.34638 a 46.759651,46.759614 17.999991 0 1 -9.74879,16.81498 l 34.52764,31.08906 a 93.185525,93.185477 17.999991 0 0 19.37454,-33.55766 z"
       id="path884-6-8-0-8-27-8"
       inkscape:connector-curvature="0" />
    <path
       style="fill:#296c92;fill-opacity:1;stroke:#ffffff;stroke-width:1.99549;stroke-linecap:round;stroke-linejoin:round;stroke-miterlimit:4;stroke-dasharray:none;stroke-dashoffset:0;stroke-opacity:1"
       d="m 416.52857,121.34796 -46.17133,4.85275 a 46.759614,46.759651 83.999991 0 1 -2.06669,19.32642 l 44.18763,14.35762 a 93.185477,93.185525 83.999991 0 0 4.05039,-38.53679 z"
       id="path884-6-8-0-8-38-6"
       inkscape:connector-curvature="0" />
  </g>
</svg>
