<?xml version="1.0" encoding="UTF-8" standalone="no"?>
<svg
   xmlns:dc="http://purl.org/dc/elements/1.1/"
   xmlns:cc="http://creativecommons.org/ns#"
   xmlns:rdf="http://www.w3.org/1999/02/22-rdf-syntax-ns#"
   xmlns:svg="http://www.w3.org/2000/svg"
   xmlns="http://www.w3.org/2000/svg"
   xmlns:sodipodi="http://sodipodi.sourceforge.net/DTD/sodipodi-0.dtd"
   xmlns:inkscape="http://www.inkscape.org/namespaces/inkscape"
   width="188.35735mm"
   height="188.41089mm"
   viewBox="0 0 188.35734 188.41088"
   version="1.1"
   id="svg8"
   inkscape:version="1.0.2 (e86c870879, 2021-01-15)"
   sodipodi:docname="10_3_blue.svg">
  <defs
     id="defs2" />
  <sodipodi:namedview
     id="base"
     pagecolor="#ffffff"
     bordercolor="#666666"
     borderopacity="1.0"
     inkscape:pageopacity="0.0"
     inkscape:pageshadow="2"
     inkscape:zoom="0.35"
     inkscape:cx="-357.78962"
     inkscape:cy="302.40606"
     inkscape:document-units="mm"
     inkscape:current-layer="layer1"
     inkscape:document-rotation="0"
     showgrid="false"
     inkscape:window-width="2155"
     inkscape:window-height="1262"
     inkscape:window-x="138"
     inkscape:window-y="-11"
     inkscape:window-maximized="1" />
  <metadata
     id="metadata5">
    <rdf:RDF>
      <cc:Work
         rdf:about="">
        <dc:format>image/svg+xml</dc:format>
        <dc:type
           rdf:resource="http://purl.org/dc/dcmitype/StillImage" />
        <dc:title />
      </cc:Work>
    </rdf:RDF>
  </metadata>
  <g
     inkscape:label="Layer 1"
     inkscape:groupmode="layer"
     id="layer1"
     transform="translate(-200.4985,-68.155063)">
    <path
       style="fill:#bfd3de;fill-opacity:1;stroke:#ffffff;stroke-width:1.99549;stroke-linecap:round;stroke-linejoin:round;stroke-miterlimit:4;stroke-dasharray:none;stroke-dashoffset:0;stroke-opacity:1"
       d="m 387.34759,152.62196 -46.17132,4.85272 a 46.759613,46.759651 83.999991 0 1 -2.06666,19.32643 l 44.18761,14.35761 a 93.185476,93.185524 83.999991 0 0 4.05037,-38.53676 z"
       id="path884-6-8-0-8-53"
       inkscape:connector-curvature="0" />
    <path
       style="fill:#bfd3de;fill-opacity:1;stroke:#ffffff;stroke-width:1.99549;stroke-linecap:round;stroke-linejoin:round;stroke-miterlimit:4;stroke-dasharray:none;stroke-dashoffset:0;stroke-opacity:1"
       d="m 349.46099,86.964379 -27.2884,37.559041 a 46.759614,46.759651 35.999991 0 1 12.97946,14.46774 l 40.23709,-23.23065 A 93.185477,93.185525 35.999991 0 0 349.46099,86.964379 Z"
       id="path884-6-8-0-8-8-5"
       inkscape:connector-curvature="0" />
    <path
       style="fill:#bfd3de;fill-opacity:1;stroke:#ffffff;stroke-width:1.99549;stroke-linecap:round;stroke-linejoin:round;stroke-miterlimit:4;stroke-dasharray:none;stroke-dashoffset:0;stroke-opacity:1"
       d="m 375.37349,115.76944 -40.20582,23.21275 a 46.759614,46.759651 59.999991 0 1 5.97276,18.49617 l 46.20714,-4.85639 a 93.185477,93.185525 59.999991 0 0 -11.97409,-36.85252 z"
       id="path884-6-8-0-8-7-28"
       inkscape:connector-curvature="0" />
    <path
       style="fill:#bfd3de;fill-opacity:1;stroke:#ffffff;stroke-width:1.99549;stroke-linecap:round;stroke-linejoin:round;stroke-miterlimit:4;stroke-dasharray:none;stroke-dashoffset:0;stroke-opacity:1"
       d="m 314.07263,71.189191 -9.65256,45.411039 a 46.759614,46.759651 11.999991 0 1 17.74191,7.93777 L 349.4716,86.949808 A 93.185477,93.185525 11.999991 0 0 314.07263,71.189191 Z"
       id="path884-6-8-0-8-84-0"
       inkscape:connector-curvature="0" />
    <path
       style="fill:#bfd3de;fill-opacity:1;stroke:#ffffff;stroke-width:1.99549;stroke-linecap:round;stroke-linejoin:round;stroke-miterlimit:4;stroke-dasharray:none;stroke-dashoffset:0;stroke-opacity:1"
       d="m 275.32358,71.189143 9.65238,45.411227 a 46.759651,46.759614 77.999991 0 1 19.43659,0.0352 l 9.66008,-45.446349 a 93.185525,93.185477 77.999991 0 0 -38.74905,-4.8e-5 z"
       id="path884-6-8-0-8-76-5"
       inkscape:connector-curvature="0" />
    <path
       style="fill:#296c92;fill-opacity:1;stroke:#ffffff;stroke-width:1.99549;stroke-linecap:round;stroke-linejoin:round;stroke-miterlimit:4;stroke-dasharray:none;stroke-dashoffset:0;stroke-opacity:1"
       d="m 239.9246,86.94978 27.28822,37.55914 a 46.759651,46.759614 53.999991 0 1 17.77042,-7.87359 L 275.3235,71.188959 A 93.185525,93.185477 53.999991 0 0 239.92451,86.9496 Z"
       id="path884-6-8-0-8-81-7"
       inkscape:connector-curvature="0" />
    <path
       style="fill:#296c92;fill-opacity:1;stroke:#ffffff;stroke-width:1.99549;stroke-linecap:round;stroke-linejoin:round;stroke-miterlimit:4;stroke-dasharray:none;stroke-dashoffset:0;stroke-opacity:1"
       d="m 213.99642,115.74588 40.20575,23.21291 a 46.759651,46.759614 29.999991 0 1 13.03177,-14.42063 L 239.9246,86.94978 a 93.185525,93.185477 29.999991 0 0 -25.92814,28.79619 z"
       id="path884-6-8-0-8-9-3"
       inkscape:connector-curvature="0" />
    <path
       style="fill:#296c92;fill-opacity:1;stroke:#ffffff;stroke-width:1.99549;stroke-linecap:round;stroke-linejoin:round;stroke-miterlimit:4;stroke-dasharray:none;stroke-dashoffset:0;stroke-opacity:1"
       d="m 202.00671,152.58931 46.1713,4.8529 a 46.759651,46.759614 5.999991 0 1 6.03974,-18.47438 l -40.23692,-23.231 a 93.185525,93.185477 5.999991 0 0 -11.97408,36.85257 z"
       id="path884-6-8-0-8-2-6"
       inkscape:connector-curvature="0" />
    <path
       style="fill:#296c92;fill-opacity:1;stroke:#ffffff;stroke-width:1.99549;stroke-linecap:round;stroke-linejoin:round;stroke-miterlimit:4;stroke-dasharray:none;stroke-dashoffset:0;stroke-opacity:1"
       d="m 206.05711,191.12604 44.15346,-14.3462 a 46.759614,46.759651 71.999991 0 1 -1.99668,-19.33379 l -46.20714,-4.85675 a 93.185477,93.185525 71.999991 0 0 4.05037,38.53673 z"
       id="path884-6-8-0-8-6-6"
       inkscape:connector-curvature="0" />
    <path
       style="fill:#296c92;fill-opacity:1;stroke:#ffffff;stroke-width:1.99549;stroke-linecap:round;stroke-linejoin:round;stroke-miterlimit:4;stroke-dasharray:none;stroke-dashoffset:0;stroke-opacity:1"
       d="m 225.41448,224.68923 34.50103,-31.06476 a 46.759614,46.759651 47.999991 0 1 -9.6878,-16.85017 l -44.18773,14.35729 a 93.185477,93.185525 47.999991 0 0 19.37452,33.55763 z"
       id="path884-6-8-0-8-1-7"
       inkscape:connector-curvature="0" />
    <path
       style="fill:#296c92;fill-opacity:1;stroke:#ffffff;stroke-width:1.99549;stroke-linecap:round;stroke-linejoin:round;stroke-miterlimit:4;stroke-dasharray:none;stroke-dashoffset:0;stroke-opacity:1"
       d="m 256.74968,247.47738 18.88308,-42.41192 a 46.759614,46.759651 23.999991 0 1 -15.70384,-11.45301 l -34.52786,31.08881 a 93.185477,93.185525 23.999991 0 0 31.34861,22.77611 z"
       id="path884-6-8-0-8-64-4"
       inkscape:connector-curvature="0" />
    <path
       style="fill:#296c92;fill-opacity:1;stroke:#ffffff;stroke-width:1.99549;stroke-linecap:round;stroke-linejoin:round;stroke-miterlimit:4;stroke-dasharray:none;stroke-dashoffset:0;stroke-opacity:1"
       d="m 294.64458,255.55019 8e-5,-46.42565 a 46.759651,46.759614 89.999991 0 1 -19.00453,-4.07552 l -18.89782,42.44479 a 93.185525,93.185477 89.999991 0 0 37.90227,8.05637 z"
       id="path884-6-8-0-8-3-4"
       inkscape:connector-curvature="0" />
    <path
       style="fill:#296c92;fill-opacity:1;stroke:#ffffff;stroke-width:1.99549;stroke-linecap:round;stroke-linejoin:round;stroke-miterlimit:4;stroke-dasharray:none;stroke-dashoffset:0;stroke-opacity:1"
       d="m 332.54682,247.51183 -18.88295,-42.41196 a 46.759651,46.759614 65.999991 0 1 -19.01917,4.00665 l -1.7e-4,46.46168 a 93.185525,93.185477 65.999991 0 0 37.90229,-8.05637 z"
       id="path884-6-8-0-8-5-6"
       inkscape:connector-curvature="0" />
    <path
       style="fill:#296c92;fill-opacity:1;stroke:#ffffff;stroke-width:1.99549;stroke-linecap:round;stroke-linejoin:round;stroke-miterlimit:4;stroke-dasharray:none;stroke-dashoffset:0;stroke-opacity:1"
       d="m 363.90274,224.7522 -34.50093,-31.06487 a 46.759651,46.759614 41.999991 0 1 -15.74523,11.39605 l 18.89751,42.44492 a 93.185525,93.185477 41.999991 0 0 31.34865,-22.7761 z"
       id="path884-6-8-0-8-27-4"
       inkscape:connector-curvature="0" />
    <path
       style="fill:#296c92;fill-opacity:1;stroke:#ffffff;stroke-width:1.99549;stroke-linecap:round;stroke-linejoin:round;stroke-miterlimit:4;stroke-dasharray:none;stroke-dashoffset:0;stroke-opacity:1"
       d="m 383.29722,191.15872 -44.15341,-14.34637 a 46.759651,46.759614 17.999991 0 1 -9.74877,16.81497 l 34.52764,31.08906 a 93.185525,93.185477 17.999991 0 0 19.37454,-33.55766 z"
       id="path884-6-8-0-8-38-7"
       inkscape:connector-curvature="0" />
  </g>
</svg>
