<?xml version="1.0" encoding="UTF-8" standalone="no"?>
<svg
   xmlns:dc="http://purl.org/dc/elements/1.1/"
   xmlns:cc="http://creativecommons.org/ns#"
   xmlns:rdf="http://www.w3.org/1999/02/22-rdf-syntax-ns#"
   xmlns:svg="http://www.w3.org/2000/svg"
   xmlns="http://www.w3.org/2000/svg"
   xmlns:sodipodi="http://sodipodi.sourceforge.net/DTD/sodipodi-0.dtd"
   xmlns:inkscape="http://www.inkscape.org/namespaces/inkscape"
   width="188.36288mm"
   height="188.40364mm"
   viewBox="0 0 188.36288 188.40363"
   version="1.1"
   id="svg8"
   inkscape:version="1.0.2 (e86c870879, 2021-01-15)"
   sodipodi:docname="10_4_blue.svg">
  <defs
     id="defs2" />
  <sodipodi:namedview
     id="base"
     pagecolor="#ffffff"
     bordercolor="#666666"
     borderopacity="1.0"
     inkscape:pageopacity="0.0"
     inkscape:pageshadow="2"
     inkscape:zoom="0.35"
     inkscape:cx="995.31458"
     inkscape:cy="1027.0158"
     inkscape:document-units="mm"
     inkscape:current-layer="layer1"
     inkscape:document-rotation="0"
     showgrid="false"
     inkscape:window-width="2155"
     inkscape:window-height="1262"
     inkscape:window-x="138"
     inkscape:window-y="-11"
     inkscape:window-maximized="1" />
  <metadata
     id="metadata5">
    <rdf:RDF>
      <cc:Work
         rdf:about="">
        <dc:format>image/svg+xml</dc:format>
        <dc:type
           rdf:resource="http://purl.org/dc/dcmitype/StillImage" />
        <dc:title />
      </cc:Work>
    </rdf:RDF>
  </metadata>
  <g
     inkscape:label="Layer 1"
     inkscape:groupmode="layer"
     id="layer1"
     transform="translate(157.51032,123.56461)">
    <path
       style="fill:#bfd3de;fill-opacity:1;stroke:#ffffff;stroke-width:1.99549;stroke-linecap:round;stroke-linejoin:round;stroke-miterlimit:4;stroke-dasharray:none;stroke-dashoffset:0;stroke-opacity:1"
       d="M 25.293955,-0.57344585 -18.859428,-14.919832 A 46.759651,46.759613 17.999991 0 1 -28.608187,1.8951494 L 5.9194395,32.984198 A 93.185524,93.185476 17.999991 0 0 25.293955,-0.57344585 Z"
       id="path884-6-8-0-8-78"
       inkscape:connector-curvature="0" />
    <path
       style="fill:#bfd3de;fill-opacity:1;stroke:#ffffff;stroke-width:1.99549;stroke-linecap:round;stroke-linejoin:round;stroke-miterlimit:4;stroke-dasharray:none;stroke-dashoffset:0;stroke-opacity:1"
       d="m 17.388167,-75.964506 -40.20583,23.212698 A 46.759614,46.759651 59.999991 0 1 -16.8449,-34.25564 L 29.362267,-39.112 a 93.185477,93.185525 59.999991 0 0 -11.9741,-36.852506 z"
       id="path884-6-8-0-8-8-9"
       inkscape:connector-curvature="0" />
    <path
       style="fill:#bfd3de;fill-opacity:1;stroke:#ffffff;stroke-width:1.99549;stroke-linecap:round;stroke-linejoin:round;stroke-miterlimit:4;stroke-dasharray:none;stroke-dashoffset:0;stroke-opacity:1"
       d="m 29.344341,-39.110204 -46.17132,4.852717 a 46.759614,46.759651 83.999991 0 1 -2.066684,19.326435 L 25.293935,-0.57344794 A 93.185477,93.185525 83.999991 0 0 29.344321,-39.110206 Z"
       id="path884-6-8-0-8-7-4"
       inkscape:connector-curvature="0" />
    <path
       style="fill:#bfd3de;fill-opacity:1;stroke:#ffffff;stroke-width:1.99549;stroke-linecap:round;stroke-linejoin:round;stroke-miterlimit:4;stroke-dasharray:none;stroke-dashoffset:0;stroke-opacity:1"
       d="m -8.5243633,-104.7696 -27.2883827,37.558999 a 46.759614,46.759651 35.999991 0 1 12.979456,14.467799 L 17.403783,-75.973503 A 93.185477,93.185525 35.999991 0 0 -8.5243633,-104.7696 Z"
       id="path884-6-8-0-8-84-4"
       inkscape:connector-curvature="0" />
    <path
       style="fill:#bfd3de;fill-opacity:1;stroke:#ffffff;stroke-width:1.99549;stroke-linecap:round;stroke-linejoin:round;stroke-miterlimit:4;stroke-dasharray:none;stroke-dashoffset:0;stroke-opacity:1"
       d="m -43.923361,-120.5303 -9.65252,45.411193 a 46.759614,46.759651 11.999991 0 1 17.741896,7.937706 L -8.5243633,-104.7696 a 93.185477,93.185525 11.999991 0 0 -35.3989977,-15.7607 z"
       id="path884-6-8-0-8-76-6"
       inkscape:connector-curvature="0" />
    <path
       style="fill:#296c92;fill-opacity:1;stroke:#ffffff;stroke-width:1.99549;stroke-linecap:round;stroke-linejoin:round;stroke-miterlimit:4;stroke-dasharray:none;stroke-dashoffset:0;stroke-opacity:1"
       d="m -82.672371,-120.53031 9.652343,45.411105 a 46.759651,46.759614 77.999991 0 1 19.436578,0.035 l 9.66009,-45.446292 a 93.185525,93.185477 77.999991 0 0 -38.74902,-1e-5 z"
       id="path884-6-8-0-8-81-74"
       inkscape:connector-curvature="0" />
    <path
       style="fill:#296c92;fill-opacity:1;stroke:#ffffff;stroke-width:1.99549;stroke-linecap:round;stroke-linejoin:round;stroke-miterlimit:4;stroke-dasharray:none;stroke-dashoffset:0;stroke-opacity:1"
       d="m -118.07137,-104.7697 27.28823,37.559199 a 46.759651,46.759614 53.999991 0 1 17.770523,-7.873406 l -9.659754,-45.446403 a 93.185525,93.185477 53.999991 0 0 -35.398999,15.76071 z"
       id="path884-6-8-0-8-9-1"
       inkscape:connector-curvature="0" />
    <path
       style="fill:#296c92;fill-opacity:1;stroke:#ffffff;stroke-width:1.99549;stroke-linecap:round;stroke-linejoin:round;stroke-miterlimit:4;stroke-dasharray:none;stroke-dashoffset:0;stroke-opacity:1"
       d="m -144.01009,-75.988208 40.20573,23.212906 a 46.759651,46.759614 29.999991 0 1 13.031782,-14.420605 l -27.309352,-37.588403 a 93.185525,93.185477 29.999991 0 0 -25.92816,28.796203 z"
       id="path884-6-8-0-8-2-7"
       inkscape:connector-curvature="0" />
    <path
       style="fill:#296c92;fill-opacity:1;stroke:#ffffff;stroke-width:1.99549;stroke-linecap:round;stroke-linejoin:round;stroke-miterlimit:4;stroke-dasharray:none;stroke-dashoffset:0;stroke-opacity:1"
       d="m -155.98416,-39.135707 46.17131,4.852931 a 46.759651,46.759614 5.999991 0 1 6.03971,-18.474423 l -40.23691,-23.231005 a 93.185525,93.185477 5.999991 0 0 -11.9741,36.852498 z"
       id="path884-6-8-0-8-6-1"
       inkscape:connector-curvature="0" />
    <path
       style="fill:#296c92;fill-opacity:1;stroke:#ffffff;stroke-width:1.99549;stroke-linecap:round;stroke-linejoin:round;stroke-miterlimit:4;stroke-dasharray:none;stroke-dashoffset:0;stroke-opacity:1"
       d="m -151.95171,-0.60085317 44.15344,-14.34623883 a 46.759614,46.759651 71.999991 0 1 -1.99667,-19.333781 l -46.20713,-4.856727 a 93.185477,93.185525 71.999991 0 0 4.05038,38.53674892 z"
       id="path884-6-8-0-8-1-9"
       inkscape:connector-curvature="0" />
    <path
       style="fill:#296c92;fill-opacity:1;stroke:#ffffff;stroke-width:1.99549;stroke-linecap:round;stroke-linejoin:round;stroke-miterlimit:4;stroke-dasharray:none;stroke-dashoffset:0;stroke-opacity:1"
       d="M -132.59436,32.962334 -98.093326,1.8975578 a 46.759614,46.759651 47.999991 0 1 -9.687804,-16.8501688 l -44.18773,14.35728526 a 93.185477,93.185525 47.999991 0 0 19.3745,33.55764974 z"
       id="path884-6-8-0-8-64-8"
       inkscape:connector-curvature="0" />
    <path
       style="fill:#296c92;fill-opacity:1;stroke:#ffffff;stroke-width:1.99549;stroke-linecap:round;stroke-linejoin:round;stroke-miterlimit:4;stroke-dasharray:none;stroke-dashoffset:0;stroke-opacity:1"
       d="M -101.25915,55.750461 -82.376063,13.338544 A 46.759614,46.759651 23.999991 0 1 -98.079905,1.8855347 L -132.60777,32.974348 a 93.185477,93.185525 23.999991 0 0 31.34862,22.776103 z"
       id="path884-6-8-0-8-3-7"
       inkscape:connector-curvature="0" />
    <path
       style="fill:#296c92;fill-opacity:1;stroke:#ffffff;stroke-width:1.99549;stroke-linecap:round;stroke-linejoin:round;stroke-miterlimit:4;stroke-dasharray:none;stroke-dashoffset:0;stroke-opacity:1"
       d="m -63.364237,63.823282 7.2e-5,-46.425647 a 46.759651,46.759614 89.999991 0 1 -19.00453,-4.075531 l -18.897825,42.444787 a 93.185525,93.185477 89.999991 0 0 37.902283,8.056391 z"
       id="path884-6-8-0-8-5-4"
       inkscape:connector-curvature="0" />
    <path
       style="fill:#296c92;fill-opacity:1;stroke:#ffffff;stroke-width:1.99549;stroke-linecap:round;stroke-linejoin:round;stroke-miterlimit:4;stroke-dasharray:none;stroke-dashoffset:0;stroke-opacity:1"
       d="M -25.461997,55.78492 -44.344942,13.372957 a 46.759651,46.759614 65.999991 0 1 -19.019179,4.006654 l -1.68e-4,46.461674 a 93.185525,93.185477 65.999991 0 0 37.902292,-8.056365 z"
       id="path884-6-8-0-8-27-6"
       inkscape:connector-curvature="0" />
    <path
       style="fill:#296c92;fill-opacity:1;stroke:#ffffff;stroke-width:1.99549;stroke-linecap:round;stroke-linejoin:round;stroke-miterlimit:4;stroke-dasharray:none;stroke-dashoffset:0;stroke-opacity:1"
       d="M 5.9194395,32.984198 -28.581508,1.9193305 A 46.759651,46.759614 41.999991 0 1 -44.326725,13.315386 l 18.89751,42.444925 A 93.185525,93.185477 41.999991 0 0 5.9194395,32.984198 Z"
       id="path884-6-8-0-8-38-0"
       inkscape:connector-curvature="0" />
  </g>
</svg>
