<?xml version="1.0" encoding="UTF-8" standalone="no"?>
<svg
   xmlns:dc="http://purl.org/dc/elements/1.1/"
   xmlns:cc="http://creativecommons.org/ns#"
   xmlns:rdf="http://www.w3.org/1999/02/22-rdf-syntax-ns#"
   xmlns:svg="http://www.w3.org/2000/svg"
   xmlns="http://www.w3.org/2000/svg"
   xmlns:sodipodi="http://sodipodi.sourceforge.net/DTD/sodipodi-0.dtd"
   xmlns:inkscape="http://www.inkscape.org/namespaces/inkscape"
   width="188.38725mm"
   height="188.37335mm"
   viewBox="0 0 188.38725 188.37334"
   version="1.1"
   id="svg8"
   inkscape:version="1.0.2 (e86c870879, 2021-01-15)"
   sodipodi:docname="10_5_blue.svg">
  <defs
     id="defs2" />
  <sodipodi:namedview
     id="base"
     pagecolor="#ffffff"
     bordercolor="#666666"
     borderopacity="1.0"
     inkscape:pageopacity="0.0"
     inkscape:pageshadow="2"
     inkscape:zoom="0.35"
     inkscape:cx="-294.39227"
     inkscape:cy="1185.8542"
     inkscape:document-units="mm"
     inkscape:current-layer="layer1"
     inkscape:document-rotation="0"
     showgrid="false"
     inkscape:window-width="2155"
     inkscape:window-height="1262"
     inkscape:window-x="138"
     inkscape:window-y="-11"
     inkscape:window-maximized="1" />
  <metadata
     id="metadata5">
    <rdf:RDF>
      <cc:Work
         rdf:about="">
        <dc:format>image/svg+xml</dc:format>
        <dc:type
           rdf:resource="http://purl.org/dc/dcmitype/StillImage" />
        <dc:title />
      </cc:Work>
    </rdf:RDF>
  </metadata>
  <g
     inkscape:label="Layer 1"
     inkscape:groupmode="layer"
     id="layer1"
     transform="translate(-183.72462,165.59058)">
    <path
       style="fill:#bfd3de;fill-opacity:1;stroke:#ffffff;stroke-width:1.99549;stroke-linecap:round;stroke-linejoin:round;stroke-miterlimit:4;stroke-dasharray:none;stroke-dashoffset:0;stroke-opacity:1"
       d="M 347.16161,-9.0565954 312.66069,-40.121469 a 46.759651,46.759613 41.999991 0 1 -15.7452,11.396072 l 18.8975,42.44491 a 93.185524,93.185476 41.999991 0 0 31.34862,-22.7761084 z"
       id="path884-6-8-0-8-12"
       inkscape:connector-curvature="0" />
    <path
       style="fill:#bfd3de;fill-opacity:1;stroke:#ffffff;stroke-width:1.99549;stroke-linecap:round;stroke-linejoin:round;stroke-miterlimit:4;stroke-dasharray:none;stroke-dashoffset:0;stroke-opacity:1"
       d="m 370.60362,-81.145329 -46.1713,4.852671 a 46.759614,46.759651 83.999991 0 1 -2.06668,19.326432 l 44.1876,14.357642 a 93.185477,93.185525 83.999991 0 0 4.05038,-38.536745 z"
       id="path884-6-8-0-8-8-49"
       inkscape:connector-curvature="0" />
    <path
       style="fill:#bfd3de;fill-opacity:1;stroke:#ffffff;stroke-width:1.99549;stroke-linecap:round;stroke-linejoin:round;stroke-miterlimit:4;stroke-dasharray:none;stroke-dashoffset:0;stroke-opacity:1"
       d="m 366.53614,-42.614235 -44.15338,-14.346389 a 46.759651,46.759614 17.999991 0 1 -9.74878,16.81498 l 34.52762,31.0890386 a 93.185525,93.185477 17.999991 0 0 19.37452,-33.5576396 z"
       id="path884-6-8-0-8-7-7"
       inkscape:connector-curvature="0" />
    <path
       style="fill:#bfd3de;fill-opacity:1;stroke:#ffffff;stroke-width:1.99549;stroke-linecap:round;stroke-linejoin:round;stroke-miterlimit:4;stroke-dasharray:none;stroke-dashoffset:0;stroke-opacity:1"
       d="m 358.64744,-117.99967 -40.2058,23.212671 a 46.759614,46.759651 59.999991 0 1 5.97274,18.496212 l 46.20717,-4.85641 a 93.185477,93.185525 59.999991 0 0 -11.97411,-36.852473 z"
       id="path884-6-8-0-8-84-7"
       inkscape:connector-curvature="0" />
    <path
       style="fill:#bfd3de;fill-opacity:1;stroke:#ffffff;stroke-width:1.99549;stroke-linecap:round;stroke-linejoin:round;stroke-miterlimit:4;stroke-dasharray:none;stroke-dashoffset:0;stroke-opacity:1"
       d="m 332.7193,-146.79585 -27.28841,37.55915 a 46.759614,46.759651 35.999991 0 1 12.97947,14.467738 l 40.23708,-23.230708 a 93.185477,93.185525 35.999991 0 0 -25.92814,-28.79618 z"
       id="path884-6-8-0-8-76-4"
       inkscape:connector-curvature="0" />
    <path
       style="fill:#296c92;fill-opacity:1;stroke:#ffffff;stroke-width:1.99549;stroke-linecap:round;stroke-linejoin:round;stroke-miterlimit:4;stroke-dasharray:none;stroke-dashoffset:0;stroke-opacity:1"
       d="m 297.32032,-162.5565 -9.65251,45.41107 a 46.759614,46.759651 11.999991 0 1 17.74197,7.93754 l 27.3096,-37.58815 a 93.185477,93.185525 11.999991 0 0 -35.39899,-15.76065 z"
       id="path884-6-8-0-8-81-8"
       inkscape:connector-curvature="0" />
    <path
       style="fill:#296c92;fill-opacity:1;stroke:#ffffff;stroke-width:1.99549;stroke-linecap:round;stroke-linejoin:round;stroke-miterlimit:4;stroke-dasharray:none;stroke-dashoffset:0;stroke-opacity:1"
       d="m 258.57131,-162.55654 9.65233,45.41116 a 46.759651,46.759614 77.999991 0 1 19.43659,0.0352 l 9.66009,-45.44633 a 93.185525,93.185477 77.999991 0 0 -38.74906,5e-5 z"
       id="path884-6-8-0-8-9-49"
       inkscape:connector-curvature="0" />
    <path
       style="fill:#296c92;fill-opacity:1;stroke:#ffffff;stroke-width:1.99549;stroke-linecap:round;stroke-linejoin:round;stroke-miterlimit:4;stroke-dasharray:none;stroke-dashoffset:0;stroke-opacity:1"
       d="m 223.16862,-146.81357 27.28822,37.55919 a 46.759651,46.759614 53.999991 0 1 17.77052,-7.87337 l -9.65976,-45.44643 a 93.185525,93.185477 53.999991 0 0 -35.39902,15.7607 z"
       id="path884-6-8-0-8-2-72"
       inkscape:connector-curvature="0" />
    <path
       style="fill:#296c92;fill-opacity:1;stroke:#ffffff;stroke-width:1.99549;stroke-linecap:round;stroke-linejoin:round;stroke-miterlimit:4;stroke-dasharray:none;stroke-dashoffset:0;stroke-opacity:1"
       d="m 197.2405,-118.01743 40.20572,23.212941 A 46.759651,46.759614 29.999991 0 1 250.478,-109.22514 l -27.30935,-37.58841 a 93.185525,93.185477 29.999991 0 0 -25.92814,28.79613 z"
       id="path884-6-8-0-8-6-5"
       inkscape:connector-curvature="0" />
    <path
       style="fill:#296c92;fill-opacity:1;stroke:#ffffff;stroke-width:1.99549;stroke-linecap:round;stroke-linejoin:round;stroke-miterlimit:4;stroke-dasharray:none;stroke-dashoffset:0;stroke-opacity:1"
       d="m 185.25079,-81.17394 46.17131,4.852879 a 46.759651,46.759614 5.999991 0 1 6.03971,-18.474405 l -40.2369,-23.230974 a 93.185525,93.185477 5.999991 0 0 -11.9741,36.85251 z"
       id="path884-6-8-0-8-1-4"
       inkscape:connector-curvature="0" />
    <path
       style="fill:#296c92;fill-opacity:1;stroke:#ffffff;stroke-width:1.99549;stroke-linecap:round;stroke-linejoin:round;stroke-miterlimit:4;stroke-dasharray:none;stroke-dashoffset:0;stroke-opacity:1"
       d="m 189.28323,-42.639098 44.15345,-14.346251 A 46.759614,46.759651 71.999991 0 1 231.44,-76.31913 l -46.20713,-4.856737 a 93.185477,93.185525 71.999991 0 0 4.05037,38.53676 z"
       id="path884-6-8-0-8-64-41"
       inkscape:connector-curvature="0" />
    <path
       style="fill:#296c92;fill-opacity:1;stroke:#ffffff;stroke-width:1.99549;stroke-linecap:round;stroke-linejoin:round;stroke-miterlimit:4;stroke-dasharray:none;stroke-dashoffset:0;stroke-opacity:1"
       d="m 208.6406,-9.0759301 34.50104,-31.0647709 a 46.759614,46.759651 47.999991 0 1 -9.68781,-16.850173 l -44.18773,14.357297 a 93.185477,93.185525 47.999991 0 0 19.37451,33.5576382 z"
       id="path884-6-8-0-8-3-5"
       inkscape:connector-curvature="0" />
    <path
       style="fill:#296c92;fill-opacity:1;stroke:#ffffff;stroke-width:1.99549;stroke-linecap:round;stroke-linejoin:round;stroke-miterlimit:4;stroke-dasharray:none;stroke-dashoffset:0;stroke-opacity:1"
       d="m 239.97582,13.712208 18.88308,-42.41191 a 46.759614,46.759651 23.999991 0 1 -15.70384,-11.453021 l -34.52787,31.0888055 a 93.185477,93.185525 23.999991 0 0 31.34863,22.7761255 z"
       id="path884-6-8-0-8-5-67"
       inkscape:connector-curvature="0" />
    <path
       style="fill:#296c92;fill-opacity:1;stroke:#ffffff;stroke-width:1.99549;stroke-linecap:round;stroke-linejoin:round;stroke-miterlimit:4;stroke-dasharray:none;stroke-dashoffset:0;stroke-opacity:1"
       d="m 277.87073,21.785029 7e-5,-46.425642 a 46.759651,46.759614 89.999991 0 1 -19.00453,-4.075536 l -18.89782,42.444783 a 93.185525,93.185477 89.999991 0 0 37.90228,8.056395 z"
       id="path884-6-8-0-8-27-41"
       inkscape:connector-curvature="0" />
    <path
       style="fill:#296c92;fill-opacity:1;stroke:#ffffff;stroke-width:1.99549;stroke-linecap:round;stroke-linejoin:round;stroke-miterlimit:4;stroke-dasharray:none;stroke-dashoffset:0;stroke-opacity:1"
       d="m 315.81299,13.719513 -18.88296,-42.411968 a 46.759651,46.759614 65.999991 0 1 -19.01917,4.006658 l -1.7e-4,46.461679 a 93.185525,93.185477 65.999991 0 0 37.9023,-8.056369 z"
       id="path884-6-8-0-8-38-65"
       inkscape:connector-curvature="0" />
  </g>
</svg>
