<?xml version="1.0" encoding="UTF-8" standalone="no"?>
<svg
   xmlns:dc="http://purl.org/dc/elements/1.1/"
   xmlns:cc="http://creativecommons.org/ns#"
   xmlns:rdf="http://www.w3.org/1999/02/22-rdf-syntax-ns#"
   xmlns:svg="http://www.w3.org/2000/svg"
   xmlns="http://www.w3.org/2000/svg"
   xmlns:sodipodi="http://sodipodi.sourceforge.net/DTD/sodipodi-0.dtd"
   xmlns:inkscape="http://www.inkscape.org/namespaces/inkscape"
   width="188.4082mm"
   height="188.36794mm"
   viewBox="0 0 188.4082 188.36792"
   version="1.1"
   id="svg8"
   inkscape:version="1.0.2 (e86c870879, 2021-01-15)"
   sodipodi:docname="10_6_blue.svg">
  <defs
     id="defs2" />
  <sodipodi:namedview
     id="base"
     pagecolor="#ffffff"
     bordercolor="#666666"
     borderopacity="1.0"
     inkscape:pageopacity="0.0"
     inkscape:pageshadow="2"
     inkscape:zoom="0.35"
     inkscape:cx="704.51189"
     inkscape:cy="1041.825"
     inkscape:document-units="mm"
     inkscape:current-layer="layer1"
     inkscape:document-rotation="0"
     showgrid="false"
     inkscape:window-width="2155"
     inkscape:window-height="1262"
     inkscape:window-x="138"
     inkscape:window-y="-11"
     inkscape:window-maximized="1" />
  <metadata
     id="metadata5">
    <rdf:RDF>
      <cc:Work
         rdf:about="">
        <dc:format>image/svg+xml</dc:format>
        <dc:type
           rdf:resource="http://purl.org/dc/dcmitype/StillImage" />
        <dc:title />
      </cc:Work>
    </rdf:RDF>
  </metadata>
  <g
     inkscape:label="Layer 1"
     inkscape:groupmode="layer"
     id="layer1"
     transform="translate(80.568772,127.48288)">
    <path
       style="fill:#bfd3de;fill-opacity:1;stroke:#ffffff;stroke-width:1.99549;stroke-linecap:round;stroke-linejoin:round;stroke-miterlimit:4;stroke-dasharray:none;stroke-dashoffset:0;stroke-opacity:1"
       d="M 51.52722,51.830932 32.644284,9.418969 a 46.759651,46.759613 65.999991 0 1 -19.019159,4.006679 l -1.75e-4,46.46166 a 93.185524,93.185476 65.999991 0 0 37.90227,-8.056376 z"
       id="path884-6-8-0-8-39"
       inkscape:connector-curvature="0" />
    <path
       style="fill:#bfd3de;fill-opacity:1;stroke:#ffffff;stroke-width:1.99549;stroke-linecap:round;stroke-linejoin:round;stroke-miterlimit:4;stroke-dasharray:none;stroke-dashoffset:0;stroke-opacity:1"
       d="M 102.26369,-4.4906786 58.110345,-18.837106 A 46.759651,46.759614 17.999991 0 1 48.361572,-2.0221258 L 82.889179,29.066951 A 93.185525,93.185477 17.999991 0 0 102.26369,-4.4906786 Z"
       id="path884-6-8-0-8-8-48"
       inkscape:connector-curvature="0" />
    <path
       style="fill:#bfd3de;fill-opacity:1;stroke:#ffffff;stroke-width:1.99549;stroke-linecap:round;stroke-linejoin:round;stroke-miterlimit:4;stroke-dasharray:none;stroke-dashoffset:0;stroke-opacity:1"
       d="M 82.87585,29.054831 48.374936,-2.0100435 A 46.759651,46.759614 41.999991 0 1 32.629715,9.38602 l 18.897493,42.444896 a 93.185525,93.185477 41.999991 0 0 31.34863,-22.776101 z"
       id="path884-6-8-0-8-7-9"
       inkscape:connector-curvature="0" />
    <path
       style="fill:#bfd3de;fill-opacity:1;stroke:#ffffff;stroke-width:1.99549;stroke-linecap:round;stroke-linejoin:round;stroke-miterlimit:4;stroke-dasharray:none;stroke-dashoffset:0;stroke-opacity:1"
       d="m 106.33118,-43.021811 -46.171266,4.852656 a 46.759614,46.759651 83.999991 0 1 -2.066719,19.326462 l 44.187635,14.3575992 a 93.185477,93.185525 83.999991 0 0 4.05035,-38.5367172 z"
       id="path884-6-8-0-8-84-9"
       inkscape:connector-curvature="0" />
    <path
       style="fill:#bfd3de;fill-opacity:1;stroke:#ffffff;stroke-width:1.99549;stroke-linecap:round;stroke-linejoin:round;stroke-miterlimit:4;stroke-dasharray:none;stroke-dashoffset:0;stroke-opacity:1"
       d="m 94.357113,-79.87436 -40.20589,23.212799 a 46.759614,46.759651 59.999991 0 1 5.97278,18.496161 l 46.207177,-4.856411 A 93.185477,93.185525 59.999991 0 0 94.357113,-79.87436 Z"
       id="path884-6-8-0-8-76-51"
       inkscape:connector-curvature="0" />
    <path
       style="fill:#296c92;fill-opacity:1;stroke:#ffffff;stroke-width:1.99549;stroke-linecap:round;stroke-linejoin:round;stroke-miterlimit:4;stroke-dasharray:none;stroke-dashoffset:0;stroke-opacity:1"
       d="m 68.428968,-108.67049 -27.288346,37.559047 a 46.759614,46.759651 35.999991 0 1 12.9796,14.46761 L 94.357264,-79.874494 A 93.185477,93.185525 35.999991 0 0 68.429112,-108.67063 Z"
       id="path884-6-8-0-8-81-08"
       inkscape:connector-curvature="0" />
    <path
       style="fill:#296c92;fill-opacity:1;stroke:#ffffff;stroke-width:1.99549;stroke-linecap:round;stroke-linejoin:round;stroke-miterlimit:4;stroke-dasharray:none;stroke-dashoffset:0;stroke-opacity:1"
       d="m 33.030001,-124.43117 -9.652534,45.411117 a 46.759614,46.759651 11.999991 0 1 17.741882,7.937736 L 68.428968,-108.67049 A 93.185477,93.185525 11.999991 0 0 33.029926,-124.4311 Z"
       id="path884-6-8-0-8-9-6"
       inkscape:connector-curvature="0" />
    <path
       style="fill:#296c92;fill-opacity:1;stroke:#ffffff;stroke-width:1.99549;stroke-linecap:round;stroke-linejoin:round;stroke-miterlimit:4;stroke-dasharray:none;stroke-dashoffset:0;stroke-opacity:1"
       d="m -5.715209,-124.44882 9.6523347,45.411148 a 46.759651,46.759614 77.999991 0 1 19.4365633,0.03523 l 9.660098,-45.446352 a 93.185525,93.185477 77.999991 0 0 -38.749071,4e-5 z"
       id="path884-6-8-0-8-2-16"
       inkscape:connector-curvature="0" />
    <path
       style="fill:#296c92;fill-opacity:1;stroke:#ffffff;stroke-width:1.99549;stroke-linecap:round;stroke-linejoin:round;stroke-miterlimit:4;stroke-dasharray:none;stroke-dashoffset:0;stroke-opacity:1"
       d="m -41.114171,-108.68815 27.288207,37.559215 a 46.759651,46.759614 53.999991 0 1 17.7705264,-7.873424 l -9.6597479,-45.446431 a 93.185525,93.185477 53.999991 0 0 -35.3989795,15.76065 z"
       id="path884-6-8-0-8-6-48"
       inkscape:connector-curvature="0" />
    <path
       style="fill:#296c92;fill-opacity:1;stroke:#ffffff;stroke-width:1.99549;stroke-linecap:round;stroke-linejoin:round;stroke-miterlimit:4;stroke-dasharray:none;stroke-dashoffset:0;stroke-opacity:1"
       d="m -67.052912,-79.906606 40.20575,23.212891 a 46.759651,46.759614 29.999991 0 1 13.031768,-14.420638 L -41.124749,-108.70273 A 93.185525,93.185477 29.999991 0 0 -67.0529,-79.90659 Z"
       id="path884-6-8-0-8-1-28"
       inkscape:connector-curvature="0" />
    <path
       style="fill:#296c92;fill-opacity:1;stroke:#ffffff;stroke-width:1.99549;stroke-linecap:round;stroke-linejoin:round;stroke-miterlimit:4;stroke-dasharray:none;stroke-dashoffset:0;stroke-opacity:1"
       d="m -79.042623,-43.063134 46.171325,4.852872 a 46.759651,46.759614 5.999991 0 1 6.039706,-18.474408 l -40.236904,-23.230984 a 93.185525,93.185477 5.999991 0 0 -11.974119,36.852514 z"
       id="path884-6-8-0-8-64-97"
       inkscape:connector-curvature="0" />
    <path
       style="fill:#296c92;fill-opacity:1;stroke:#ffffff;stroke-width:1.99549;stroke-linecap:round;stroke-linejoin:round;stroke-miterlimit:4;stroke-dasharray:none;stroke-dashoffset:0;stroke-opacity:1"
       d="m -75.010154,-4.5283016 44.153447,-14.3462444 a 46.759614,46.759651 71.999991 0 1 -1.996676,-19.333787 l -46.207141,-4.856727 a 93.185477,93.185525 71.999991 0 0 4.050378,38.5367526 z"
       id="path884-6-8-0-8-3-1"
       inkscape:connector-curvature="0" />
    <path
       style="fill:#296c92;fill-opacity:1;stroke:#ffffff;stroke-width:1.99549;stroke-linecap:round;stroke-linejoin:round;stroke-miterlimit:4;stroke-dasharray:none;stroke-dashoffset:0;stroke-opacity:1"
       d="M -55.652783,29.034878 -21.151756,-2.0298897 A 46.759614,46.759651 47.999991 0 1 -30.839559,-18.88007 l -44.187735,14.3572869 a 93.185477,93.185525 47.999991 0 0 19.374511,33.5576611 z"
       id="path884-6-8-0-8-5-79"
       inkscape:connector-curvature="0" />
    <path
       style="fill:#296c92;fill-opacity:1;stroke:#ffffff;stroke-width:1.99549;stroke-linecap:round;stroke-linejoin:round;stroke-miterlimit:4;stroke-dasharray:none;stroke-dashoffset:0;stroke-opacity:1"
       d="M -24.317567,51.823018 -5.4344934,9.4111123 A 46.759614,46.759651 23.999991 0 1 -21.138331,-2.0419173 L -55.666197,29.046886 a 93.185477,93.185525 23.999991 0 0 31.34863,22.776132 z"
       id="path884-6-8-0-8-27-415"
       inkscape:connector-curvature="0" />
    <path
       style="fill:#296c92;fill-opacity:1;stroke:#ffffff;stroke-width:1.99549;stroke-linecap:round;stroke-linejoin:round;stroke-miterlimit:4;stroke-dasharray:none;stroke-dashoffset:0;stroke-opacity:1"
       d="m 13.62495,59.887308 5.6e-5,-46.425654 A 46.759651,46.759614 89.999991 0 1 -5.3795198,9.3861281 L -24.277344,51.830913 a 93.185525,93.185477 89.999991 0 0 37.902294,8.056395 z"
       id="path884-6-8-0-8-38-8"
       inkscape:connector-curvature="0" />
  </g>
</svg>
