<?xml version="1.0" encoding="UTF-8" standalone="no"?>
<svg
   xmlns:dc="http://purl.org/dc/elements/1.1/"
   xmlns:cc="http://creativecommons.org/ns#"
   xmlns:rdf="http://www.w3.org/1999/02/22-rdf-syntax-ns#"
   xmlns:svg="http://www.w3.org/2000/svg"
   xmlns="http://www.w3.org/2000/svg"
   xmlns:sodipodi="http://sodipodi.sourceforge.net/DTD/sodipodi-0.dtd"
   xmlns:inkscape="http://www.inkscape.org/namespaces/inkscape"
   width="188.40509mm"
   height="188.35396mm"
   viewBox="0 0 188.40509 188.35394"
   version="1.1"
   id="svg8"
   inkscape:version="1.0.2 (e86c870879, 2021-01-15)"
   sodipodi:docname="10_7_blue.svg">
  <defs
     id="defs2" />
  <sodipodi:namedview
     id="base"
     pagecolor="#ffffff"
     bordercolor="#666666"
     borderopacity="1.0"
     inkscape:pageopacity="0.0"
     inkscape:pageshadow="2"
     inkscape:zoom="0.35"
     inkscape:cx="909.12444"
     inkscape:cy="594.91243"
     inkscape:document-units="mm"
     inkscape:current-layer="layer1"
     inkscape:document-rotation="0"
     showgrid="false"
     inkscape:window-width="2155"
     inkscape:window-height="1262"
     inkscape:window-x="138"
     inkscape:window-y="-11"
     inkscape:window-maximized="1" />
  <metadata
     id="metadata5">
    <rdf:RDF>
      <cc:Work
         rdf:about="">
        <dc:format>image/svg+xml</dc:format>
        <dc:type
           rdf:resource="http://purl.org/dc/dcmitype/StillImage" />
        <dc:title />
      </cc:Work>
    </rdf:RDF>
  </metadata>
  <g
     inkscape:label="Layer 1"
     inkscape:groupmode="layer"
     id="layer1"
     transform="translate(134.70584,160.42773)">
    <path
       style="fill:#bfd3de;fill-opacity:1;stroke:#ffffff;stroke-width:1.99549;stroke-linecap:round;stroke-linejoin:round;stroke-miterlimit:4;stroke-dasharray:none;stroke-dashoffset:0;stroke-opacity:1"
       d="m -40.505409,26.928492 7.9e-5,-46.425638 a 46.759651,46.759613 89.999991 0 1 -19.00453,-4.075505 l -18.897819,42.444767 a 93.185524,93.185476 89.999991 0 0 37.90227,8.056376 z"
       id="path884-6-8-0-8-68"
       inkscape:connector-curvature="0" />
    <path
       style="fill:#bfd3de;fill-opacity:1;stroke:#ffffff;stroke-width:1.99549;stroke-linecap:round;stroke-linejoin:round;stroke-miterlimit:4;stroke-dasharray:none;stroke-dashoffset:0;stroke-opacity:1"
       d="M 28.752723,-3.8874756 -5.7481496,-34.952374 A 46.759651,46.759614 41.999991 0 1 -21.49336,-23.556309 L -2.5958932,18.88862 A 93.185525,93.185477 41.999991 0 0 28.752723,-3.8874756 Z"
       id="path884-6-8-0-8-8-3"
       inkscape:connector-curvature="0" />
    <path
       style="fill:#bfd3de;fill-opacity:1;stroke:#ffffff;stroke-width:1.99549;stroke-linecap:round;stroke-linejoin:round;stroke-miterlimit:4;stroke-dasharray:none;stroke-dashoffset:0;stroke-opacity:1"
       d="M -2.6031408,18.872127 -21.486066,-23.539835 a 46.759651,46.759614 65.999991 0 1 -19.019172,4.006663 l -1.75e-4,46.461645 a 93.185525,93.185477 65.999991 0 0 37.9022681,-8.056366 z"
       id="path884-6-8-0-8-7-6"
       inkscape:connector-curvature="0" />
    <path
       style="fill:#bfd3de;fill-opacity:1;stroke:#ffffff;stroke-width:1.99549;stroke-linecap:round;stroke-linejoin:round;stroke-miterlimit:4;stroke-dasharray:none;stroke-dashoffset:0;stroke-opacity:1"
       d="M 48.140583,-37.433019 3.987278,-51.779445 a 46.759651,46.759614 17.999991 0 1 -9.7488217,16.814992 L 28.766105,-3.8754042 A 93.185525,93.185477 17.999991 0 0 48.140583,-37.433019 Z"
       id="path884-6-8-0-8-84-66"
       inkscape:connector-curvature="0" />
    <path
       style="fill:#bfd3de;fill-opacity:1;stroke:#ffffff;stroke-width:1.99549;stroke-linecap:round;stroke-linejoin:round;stroke-miterlimit:4;stroke-dasharray:none;stroke-dashoffset:0;stroke-opacity:1"
       d="M 52.191009,-75.969791 6.0196045,-71.117052 A 46.759614,46.759651 83.999991 0 1 3.9529441,-51.79062 l 44.1876389,14.357601 a 93.185477,93.185525 83.999991 0 0 4.050426,-38.536772 z"
       id="path884-6-8-0-8-76-8"
       inkscape:connector-curvature="0" />
    <path
       style="fill:#296c92;fill-opacity:1;stroke:#ffffff;stroke-width:1.99549;stroke-linecap:round;stroke-linejoin:round;stroke-miterlimit:4;stroke-dasharray:none;stroke-dashoffset:0;stroke-opacity:1"
       d="M 40.216911,-112.82229 0.01112526,-89.609565 A 46.759614,46.759651 59.999991 0 1 5.9840736,-71.113467 L 52.191201,-75.969852 A 93.185477,93.185525 59.999991 0 0 40.2171,-112.82236 Z"
       id="path884-6-8-0-8-81-79"
       inkscape:connector-curvature="0" />
    <path
       style="fill:#296c92;fill-opacity:1;stroke:#ffffff;stroke-width:1.99549;stroke-linecap:round;stroke-linejoin:round;stroke-miterlimit:4;stroke-dasharray:none;stroke-dashoffset:0;stroke-opacity:1"
       d="m 14.288792,-141.61845 -27.288395,37.55908 a 46.759614,46.759651 35.999991 0 1 12.97944796,14.467761 L 40.216911,-112.82229 a 93.185477,93.185525 35.999991 0 0 -25.928215,-28.79613 z"
       id="path884-6-8-0-8-9-33"
       inkscape:connector-curvature="0" />
    <path
       style="fill:#296c92;fill-opacity:1;stroke:#ffffff;stroke-width:1.99549;stroke-linecap:round;stroke-linejoin:round;stroke-miterlimit:4;stroke-dasharray:none;stroke-dashoffset:0;stroke-opacity:1"
       d="m -21.09954,-157.39367 -9.652532,45.41111 a 46.759614,46.759651 11.999991 0 1 17.741853,7.93775 L 14.299417,-141.633 a 93.185477,93.185525 11.999991 0 0 -35.399053,-15.76064 z"
       id="path884-6-8-0-8-2-5"
       inkscape:connector-curvature="0" />
    <path
       style="fill:#296c92;fill-opacity:1;stroke:#ffffff;stroke-width:1.99549;stroke-linecap:round;stroke-linejoin:round;stroke-miterlimit:4;stroke-dasharray:none;stroke-dashoffset:0;stroke-opacity:1"
       d="m -59.848538,-157.39364 9.652308,45.41117 a 46.759651,46.759614 77.999991 0 1 19.436589,0.0352 l 9.660109,-45.44635 a 93.185525,93.185477 77.999991 0 0 -38.749004,0 z"
       id="path884-6-8-0-8-6-62"
       inkscape:connector-curvature="0" />
    <path
       style="fill:#296c92;fill-opacity:1;stroke:#ffffff;stroke-width:1.99549;stroke-linecap:round;stroke-linejoin:round;stroke-miterlimit:4;stroke-dasharray:none;stroke-dashoffset:0;stroke-opacity:1"
       d="m -95.251266,-141.65062 27.288247,37.55918 a 46.759651,46.759614 53.999991 0 1 17.770514,-7.87341 l -9.659767,-45.4464 a 93.185525,93.185477 53.999991 0 0 -35.39899,15.76065 z"
       id="path884-6-8-0-8-1-3"
       inkscape:connector-curvature="0" />
    <path
       style="fill:#296c92;fill-opacity:1;stroke:#ffffff;stroke-width:1.99549;stroke-linecap:round;stroke-linejoin:round;stroke-miterlimit:4;stroke-dasharray:none;stroke-dashoffset:0;stroke-opacity:1"
       d="m -121.19,-112.86909 40.205761,23.212889 a 46.759651,46.759614 29.999991 0 1 13.031765,-14.420639 l -27.309349,-37.58839 a 93.185525,93.185477 29.999991 0 0 -25.928167,28.79614 z"
       id="path884-6-8-0-8-64-7"
       inkscape:connector-curvature="0" />
    <path
       style="fill:#296c92;fill-opacity:1;stroke:#ffffff;stroke-width:1.99549;stroke-linecap:round;stroke-linejoin:round;stroke-miterlimit:4;stroke-dasharray:none;stroke-dashoffset:0;stroke-opacity:1"
       d="m -133.17969,-76.025616 46.171328,4.852879 a 46.759651,46.759614 5.999991 0 1 6.039705,-18.474416 l -40.236913,-23.230977 a 93.185525,93.185477 5.999991 0 0 -11.97411,36.852512 z"
       id="path884-6-8-0-8-3-92"
       inkscape:connector-curvature="0" />
    <path
       style="fill:#296c92;fill-opacity:1;stroke:#ffffff;stroke-width:1.99549;stroke-linecap:round;stroke-linejoin:round;stroke-miterlimit:4;stroke-dasharray:none;stroke-dashoffset:0;stroke-opacity:1"
       d="m -129.14722,-37.490773 44.153433,-14.346246 a 46.759614,46.759651 71.999991 0 1 -1.996663,-19.33379 l -46.20714,-4.856737 a 93.185477,93.185525 71.999991 0 0 4.05037,38.536773 z"
       id="path884-6-8-0-8-5-1"
       inkscape:connector-curvature="0" />
    <path
       style="fill:#296c92;fill-opacity:1;stroke:#ffffff;stroke-width:1.99549;stroke-linecap:round;stroke-linejoin:round;stroke-miterlimit:4;stroke-dasharray:none;stroke-dashoffset:0;stroke-opacity:1"
       d="m -109.78985,-3.9275916 34.501022,-31.0647654 a 46.759614,46.759651 47.999991 0 1 -9.687804,-16.85019 l -44.187728,14.357287 a 93.185477,93.185525 47.999991 0 0 19.37451,33.5576684 z"
       id="path884-6-8-0-8-27-91"
       inkscape:connector-curvature="0" />
    <path
       style="fill:#296c92;fill-opacity:1;stroke:#ffffff;stroke-width:1.99549;stroke-linecap:round;stroke-linejoin:round;stroke-miterlimit:4;stroke-dasharray:none;stroke-dashoffset:0;stroke-opacity:1"
       d="m -78.407679,18.872116 18.883066,-42.411922 a 46.759614,46.759651 23.999991 0 1 -15.703832,-11.453016 l -34.527875,31.0888034 a 93.185477,93.185525 23.999991 0 0 31.348641,22.7761346 z"
       id="path884-6-8-0-8-38-10"
       inkscape:connector-curvature="0" />
  </g>
</svg>
