<?xml version="1.0" encoding="UTF-8" standalone="no"?>
<svg
   xmlns:dc="http://purl.org/dc/elements/1.1/"
   xmlns:cc="http://creativecommons.org/ns#"
   xmlns:rdf="http://www.w3.org/1999/02/22-rdf-syntax-ns#"
   xmlns:svg="http://www.w3.org/2000/svg"
   xmlns="http://www.w3.org/2000/svg"
   xmlns:sodipodi="http://sodipodi.sourceforge.net/DTD/sodipodi-0.dtd"
   xmlns:inkscape="http://www.inkscape.org/namespaces/inkscape"
   width="188.40509mm"
   height="188.35396mm"
   viewBox="0 0 188.40509 188.35394"
   version="1.1"
   id="svg8"
   inkscape:version="1.0.2 (e86c870879, 2021-01-15)"
   sodipodi:docname="10_7_blue.svg">
  <defs
     id="defs2" />
  <sodipodi:namedview
     id="base"
     pagecolor="#ffffff"
     bordercolor="#666666"
     borderopacity="1.0"
     inkscape:pageopacity="0.0"
     inkscape:pageshadow="2"
     inkscape:zoom="0.35"
     inkscape:cx="909.12444"
     inkscape:cy="594.91243"
     inkscape:document-units="mm"
     inkscape:current-layer="layer1"
     inkscape:document-rotation="0"
     showgrid="false"
     inkscape:window-width="1796"
     inkscape:window-height="1046"
     inkscape:window-x="113"
     inkscape:window-y="-11"
     inkscape:window-maximized="1" />
  <metadata
     id="metadata5">
    <rdf:RDF>
      <cc:Work
         rdf:about="">
        <dc:format>image/svg+xml</dc:format>
        <dc:type
           rdf:resource="http://purl.org/dc/dcmitype/StillImage" />
        <dc:title></dc:title>
      </cc:Work>
    </rdf:RDF>
  </metadata>
  <g
     inkscape:label="Layer 1"
     inkscape:groupmode="layer"
     id="layer1"
     transform="translate(134.70584,160.42773)">
    <g
       id="g1701"
       transform="rotate(168,-42.35493,130.76883)">
      <path
         style="fill:#f8cdc7;fill-opacity:1;stroke:#ffffff;stroke-width:1.99549;stroke-linecap:round;stroke-linejoin:round;stroke-miterlimit:4;stroke-dasharray:none;stroke-dashoffset:0;stroke-opacity:1"
         d="m -65.753655,231.95547 -9.65251,45.41111 a 46.759613,46.759651 11.999991 0 1 17.74189,7.93771 l 27.30962,-37.58817 a 93.185476,93.185524 11.999991 0 0 -35.399,-15.76065 z"
         id="path884-6-8-0-8-68"
         inkscape:connector-curvature="0" />
      <path
         style="fill:#f8cdc7;fill-opacity:1;stroke:#ffffff;stroke-width:1.99549;stroke-linecap:round;stroke-linejoin:round;stroke-miterlimit:4;stroke-dasharray:none;stroke-dashoffset:0;stroke-opacity:1"
         d="m -139.90533,247.69846 27.28819,37.55919 a 46.759651,46.759614 53.999991 0 1 17.770515,-7.87342 l -9.659715,-45.44641 a 93.185525,93.185477 53.999991 0 0 -35.39899,15.76064 z"
         id="path884-6-8-0-8-8-3"
         inkscape:connector-curvature="0" />
      <path
         style="fill:#f8cdc7;fill-opacity:1;stroke:#ffffff;stroke-width:1.99549;stroke-linecap:round;stroke-linejoin:round;stroke-miterlimit:4;stroke-dasharray:none;stroke-dashoffset:0;stroke-opacity:1"
         d="m -104.50268,231.95546 9.652345,45.41114 a 46.759651,46.759614 77.999991 0 1 19.43659,0.0352 l 9.66009,-45.44631 a 93.185525,93.185477 77.999991 0 0 -38.749025,-1e-5 z"
         id="path884-6-8-0-8-7-6"
         inkscape:connector-curvature="0" />
      <path
         style="fill:#f8cdc7;fill-opacity:1;stroke:#ffffff;stroke-width:1.99549;stroke-linecap:round;stroke-linejoin:round;stroke-miterlimit:4;stroke-dasharray:none;stroke-dashoffset:0;stroke-opacity:1"
         d="m -165.84403,276.47999 40.20566,23.21291 a 46.759651,46.759614 29.999991 0 1 13.03182,-14.42065 l -27.30936,-37.58838 a 93.185525,93.185477 29.999991 0 0 -25.92812,28.79612 z"
         id="path884-6-8-0-8-84-66"
         inkscape:connector-curvature="0" />
      <path
         style="fill:#f8cdc7;fill-opacity:1;stroke:#ffffff;stroke-width:1.99549;stroke-linecap:round;stroke-linejoin:round;stroke-miterlimit:4;stroke-dasharray:none;stroke-dashoffset:0;stroke-opacity:1"
         d="m -177.81819,313.33251 46.17139,4.85288 a 46.759651,46.759614 5.999991 0 1 6.03969,-18.47442 l -40.23692,-23.23098 a 93.185525,93.185477 5.999991 0 0 -11.97416,36.85252 z"
         id="path884-6-8-0-8-76-8"
         inkscape:connector-curvature="0" />
      <path
         style="fill:#296c92;fill-opacity:1;stroke:#ffffff;stroke-width:1.99549;stroke-linecap:round;stroke-linejoin:round;stroke-miterlimit:4;stroke-dasharray:none;stroke-dashoffset:0;stroke-opacity:1"
         d="m -173.76782,351.86925 44.15339,-14.34622 a 46.759614,46.759651 71.999991 0 1 -1.99687,-19.33376 l -46.20709,-4.85674 a 93.185477,93.185525 71.999991 0 0 4.05037,38.53675 z"
         id="path884-6-8-0-8-81-79"
         inkscape:connector-curvature="0" />
      <path
         style="fill:#296c92;fill-opacity:1;stroke:#ffffff;stroke-width:1.99549;stroke-linecap:round;stroke-linejoin:round;stroke-miterlimit:4;stroke-dasharray:none;stroke-dashoffset:0;stroke-opacity:1"
         d="m -154.39335,385.4269 34.50105,-31.06475 a 46.759614,46.759651 47.999991 0 1 -9.6878,-16.85018 l -44.18772,14.35728 a 93.185477,93.185525 47.999991 0 0 19.37457,33.55764 z"
         id="path884-6-8-0-8-9-33"
         inkscape:connector-curvature="0" />
      <path
         style="fill:#296c92;fill-opacity:1;stroke:#ffffff;stroke-width:1.99549;stroke-linecap:round;stroke-linejoin:round;stroke-miterlimit:4;stroke-dasharray:none;stroke-dashoffset:0;stroke-opacity:1"
         d="m -123.05819,408.21504 18.8831,-42.41189 a 46.759614,46.759651 23.999991 0 1 -15.7038,-11.45303 l -34.52788,31.08881 a 93.185477,93.185525 23.999991 0 0 31.34868,22.7761 z"
         id="path884-6-8-0-8-2-5"
         inkscape:connector-curvature="0" />
      <path
         style="fill:#296c92;fill-opacity:1;stroke:#ffffff;stroke-width:1.99549;stroke-linecap:round;stroke-linejoin:round;stroke-miterlimit:4;stroke-dasharray:none;stroke-dashoffset:0;stroke-opacity:1"
         d="m -85.155945,416.27138 1.3e-4,-46.42565 a 46.759651,46.759614 89.999991 0 1 -19.004535,-4.07552 l -18.89784,42.44479 a 93.185525,93.185477 89.999991 0 0 37.902245,8.05637 z"
         id="path884-6-8-0-8-6-62"
         inkscape:connector-curvature="0" />
      <path
         style="fill:#296c92;fill-opacity:1;stroke:#ffffff;stroke-width:1.99549;stroke-linecap:round;stroke-linejoin:round;stroke-miterlimit:4;stroke-dasharray:none;stroke-dashoffset:0;stroke-opacity:1"
         d="m -47.253695,408.23303 -18.88294,-42.41197 a 46.759651,46.759614 65.999991 0 1 -19.01916,4.00666 l -1.6e-4,46.46167 a 93.185525,93.185477 65.999991 0 0 37.90226,-8.05638 z"
         id="path884-6-8-0-8-1-3"
         inkscape:connector-curvature="0" />
      <path
         style="fill:#296c92;fill-opacity:1;stroke:#ffffff;stroke-width:1.99549;stroke-linecap:round;stroke-linejoin:round;stroke-miterlimit:4;stroke-dasharray:none;stroke-dashoffset:0;stroke-opacity:1"
         d="m -15.897765,385.47341 -34.50094,-31.06488 a 46.759651,46.759614 41.999991 0 1 -15.74521,11.39606 l 18.89751,42.44492 a 93.185525,93.185477 41.999991 0 0 31.34863,-22.7761 z"
         id="path884-6-8-0-8-64-7"
         inkscape:connector-curvature="0" />
      <path
         style="fill:#296c92;fill-opacity:1;stroke:#ffffff;stroke-width:1.99549;stroke-linecap:round;stroke-linejoin:round;stroke-miterlimit:4;stroke-dasharray:none;stroke-dashoffset:0;stroke-opacity:1"
         d="M 3.4901052,351.92785 -40.663295,337.58146 a 46.759651,46.759614 17.999991 0 1 -9.74877,16.81498 l 34.52765,31.08905 A 93.185525,93.185477 17.999991 0 0 3.4900952,351.92785 Z"
         id="path884-6-8-0-8-3-92"
         inkscape:connector-curvature="0" />
      <path
         style="fill:#296c92;fill-opacity:1;stroke:#ffffff;stroke-width:1.99549;stroke-linecap:round;stroke-linejoin:round;stroke-miterlimit:4;stroke-dasharray:none;stroke-dashoffset:0;stroke-opacity:1"
         d="m 7.5576052,313.39669 -46.1713302,4.85273 a 46.759614,46.759651 83.999991 0 1 -2.06669,19.32643 l 44.1876302,14.35761 a 93.185477,93.185525 83.999991 0 0 4.05039,-38.53677 z"
         id="path884-6-8-0-8-5-1"
         inkscape:connector-curvature="0" />
      <path
         style="fill:#296c92;fill-opacity:1;stroke:#ffffff;stroke-width:1.99549;stroke-linecap:round;stroke-linejoin:round;stroke-miterlimit:4;stroke-dasharray:none;stroke-dashoffset:0;stroke-opacity:1"
         d="m -4.3985848,276.54232 -40.2058202,23.21276 a 46.759614,46.759651 59.999991 0 1 5.97275,18.49618 l 46.2071702,-4.8564 a 93.185477,93.185525 59.999991 0 0 -11.9741,-36.85254 z"
         id="path884-6-8-0-8-27-91"
         inkscape:connector-curvature="0" />
      <path
         style="fill:#296c92;fill-opacity:1;stroke:#ffffff;stroke-width:1.99549;stroke-linecap:round;stroke-linejoin:round;stroke-miterlimit:4;stroke-dasharray:none;stroke-dashoffset:0;stroke-opacity:1"
         d="m -30.354655,247.71612 -27.28836,37.55911 a 46.759614,46.759651 35.999991 0 1 12.97945,14.46775 L -4.4264848,276.51229 A 93.185477,93.185525 35.999991 0 0 -30.354655,247.71612 Z"
         id="path884-6-8-0-8-38-10"
         inkscape:connector-curvature="0" />
    </g>
  </g>
</svg>
