<?xml version="1.0" encoding="UTF-8" standalone="no"?>
<svg
   xmlns:dc="http://purl.org/dc/elements/1.1/"
   xmlns:cc="http://creativecommons.org/ns#"
   xmlns:rdf="http://www.w3.org/1999/02/22-rdf-syntax-ns#"
   xmlns:svg="http://www.w3.org/2000/svg"
   xmlns="http://www.w3.org/2000/svg"
   xmlns:sodipodi="http://sodipodi.sourceforge.net/DTD/sodipodi-0.dtd"
   xmlns:inkscape="http://www.inkscape.org/namespaces/inkscape"
   width="188.39653mm"
   height="188.37807mm"
   viewBox="0 0 188.39653 188.37805"
   version="1.1"
   id="svg8"
   inkscape:version="1.0.2 (e86c870879, 2021-01-15)"
   sodipodi:docname="10_8_blue.svg">
  <defs
     id="defs2" />
  <sodipodi:namedview
     id="base"
     pagecolor="#ffffff"
     bordercolor="#666666"
     borderopacity="1.0"
     inkscape:pageopacity="0.0"
     inkscape:pageshadow="2"
     inkscape:zoom="0.35"
     inkscape:cx="1119.4351"
     inkscape:cy="890.90249"
     inkscape:document-units="mm"
     inkscape:current-layer="layer1"
     inkscape:document-rotation="0"
     showgrid="false"
     inkscape:window-width="2155"
     inkscape:window-height="1262"
     inkscape:window-x="138"
     inkscape:window-y="-11"
     inkscape:window-maximized="1" />
  <metadata
     id="metadata5">
    <rdf:RDF>
      <cc:Work
         rdf:about="">
        <dc:format>image/svg+xml</dc:format>
        <dc:type
           rdf:resource="http://purl.org/dc/dcmitype/StillImage" />
        <dc:title />
      </cc:Work>
    </rdf:RDF>
  </metadata>
  <g
     inkscape:label="Layer 1"
     inkscape:groupmode="layer"
     id="layer1"
     transform="translate(190.35053,238.74177)">
    <path
       style="fill:#bfd3de;fill-opacity:1;stroke:#ffffff;stroke-width:1.99549;stroke-linecap:round;stroke-linejoin:round;stroke-miterlimit:4;stroke-dasharray:none;stroke-dashoffset:0;stroke-opacity:1"
       d="m -134.04773,-59.435851 18.88308,-42.411899 a 46.759613,46.759651 23.999991 0 1 -15.70384,-11.453 l -34.52786,31.088791 a 93.185476,93.185524 23.999991 0 0 31.34862,22.776108 z"
       id="path884-6-8-0-8-55"
       inkscape:connector-curvature="0" />
    <path
       style="fill:#bfd3de;fill-opacity:1;stroke:#ffffff;stroke-width:1.99549;stroke-linecap:round;stroke-linejoin:round;stroke-miterlimit:4;stroke-dasharray:none;stroke-dashoffset:0;stroke-opacity:1"
       d="m -58.243289,-59.417818 -18.882883,-42.411962 a 46.759651,46.759614 65.999991 0 1 -19.019168,4.006665 l -2.08e-4,46.461666 a 93.185525,93.185477 65.999991 0 0 37.902259,-8.056369 z"
       id="path884-6-8-0-8-8-6"
       inkscape:connector-curvature="0" />
    <path
       style="fill:#bfd3de;fill-opacity:1;stroke:#ffffff;stroke-width:1.99549;stroke-linecap:round;stroke-linejoin:round;stroke-miterlimit:4;stroke-dasharray:none;stroke-dashoffset:0;stroke-opacity:1"
       d="m -96.14546,-51.379465 8.4e-5,-46.425634 a 46.759651,46.759614 89.999991 0 1 -19.004534,-4.075521 l -18.89781,42.44475 a 93.185525,93.185477 89.999991 0 0 37.902264,8.056386 z"
       id="path884-6-8-0-8-7-46"
       inkscape:connector-curvature="0" />
    <path
       style="fill:#bfd3de;fill-opacity:1;stroke:#ffffff;stroke-width:1.99549;stroke-linecap:round;stroke-linejoin:round;stroke-miterlimit:4;stroke-dasharray:none;stroke-dashoffset:0;stroke-opacity:1"
       d="M -26.887396,-82.177443 -61.38823,-113.24232 a 46.759651,46.759614 41.999991 0 1 -15.745265,11.39605 l 18.897521,42.444923 a 93.185525,93.185477 41.999991 0 0 31.348578,-22.776096 z"
       id="path884-6-8-0-8-84-08"
       inkscape:connector-curvature="0" />
    <path
       style="fill:#bfd3de;fill-opacity:1;stroke:#ffffff;stroke-width:1.99549;stroke-linecap:round;stroke-linejoin:round;stroke-miterlimit:4;stroke-dasharray:none;stroke-dashoffset:0;stroke-opacity:1"
       d="m -7.5128301,-115.73508 -44.1534639,-14.3464 a 46.759651,46.759614 17.999991 0 1 -9.748756,16.81498 l 34.527654,31.089057 a 93.185525,93.185477 17.999991 0 0 19.3745659,-33.557637 z"
       id="path884-6-8-0-8-76-2"
       inkscape:connector-curvature="0" />
    <path
       style="fill:#296c92;fill-opacity:1;stroke:#ffffff;stroke-width:1.99549;stroke-linecap:round;stroke-linejoin:round;stroke-miterlimit:4;stroke-dasharray:none;stroke-dashoffset:0;stroke-opacity:1"
       d="m -3.462451,-154.27182 -46.171279,4.85272 a 46.759614,46.759651 83.999991 0 1 -2.066481,19.32644 l 44.1875807,14.3576 a 93.185477,93.185525 83.999991 0 0 4.0503812,-38.53675 z"
       id="path884-6-8-0-8-81-3"
       inkscape:connector-curvature="0" />
    <path
       style="fill:#296c92;fill-opacity:1;stroke:#ffffff;stroke-width:1.99549;stroke-linecap:round;stroke-linejoin:round;stroke-miterlimit:4;stroke-dasharray:none;stroke-dashoffset:0;stroke-opacity:1"
       d="m -15.436515,-191.12433 -40.205844,23.21274 a 46.759614,46.759651 59.999991 0 1 5.972749,18.49617 l 46.207159,-4.8564 a 93.185477,93.185525 59.999991 0 0 -11.974163,-36.85252 z"
       id="path884-6-8-0-8-9-2"
       inkscape:connector-curvature="0" />
    <path
       style="fill:#296c92;fill-opacity:1;stroke:#ffffff;stroke-width:1.99549;stroke-linecap:round;stroke-linejoin:round;stroke-miterlimit:4;stroke-dasharray:none;stroke-dashoffset:0;stroke-opacity:1"
       d="m -41.349005,-219.92944 -27.288387,37.55907 a 46.759614,46.759651 35.999991 0 1 12.979415,14.46776 l 40.23709,-23.2307 a 93.185477,93.185525 35.999991 0 0 -25.928218,-28.79614 z"
       id="path884-6-8-0-8-2-8"
       inkscape:connector-curvature="0" />
    <path
       style="fill:#296c92;fill-opacity:1;stroke:#ffffff;stroke-width:1.99549;stroke-linecap:round;stroke-linejoin:round;stroke-miterlimit:4;stroke-dasharray:none;stroke-dashoffset:0;stroke-opacity:1"
       d="m -76.747993,-235.69005 -9.652563,45.41111 a 46.759614,46.759651 11.999991 0 1 17.741897,7.93772 l 27.309645,-37.58818 a 93.185477,93.185525 11.999991 0 0 -35.398981,-15.76064 z"
       id="path884-6-8-0-8-6-9"
       inkscape:connector-curvature="0" />
    <path
       style="fill:#296c92;fill-opacity:1;stroke:#ffffff;stroke-width:1.99549;stroke-linecap:round;stroke-linejoin:round;stroke-miterlimit:4;stroke-dasharray:none;stroke-dashoffset:0;stroke-opacity:1"
       d="m -115.49325,-235.70768 9.65235,45.41115 a 46.759651,46.759614 77.999991 0 1 19.43658,0.0352 l 9.660081,-45.44634 a 93.185525,93.185477 77.999991 0 0 -38.749021,1e-5 z"
       id="path884-6-8-0-8-1-40"
       inkscape:connector-curvature="0" />
    <path
       style="fill:#296c92;fill-opacity:1;stroke:#ffffff;stroke-width:1.99549;stroke-linecap:round;stroke-linejoin:round;stroke-miterlimit:4;stroke-dasharray:none;stroke-dashoffset:0;stroke-opacity:1"
       d="m -150.89597,-219.96468 27.28826,37.55919 a 46.759651,46.759614 53.999991 0 1 17.77051,-7.87342 l -9.65976,-45.44641 a 93.185525,93.185477 53.999991 0 0 -35.399,15.76064 z"
       id="path884-6-8-0-8-64-5"
       inkscape:connector-curvature="0" />
    <path
       style="fill:#296c92;fill-opacity:1;stroke:#ffffff;stroke-width:1.99549;stroke-linecap:round;stroke-linejoin:round;stroke-miterlimit:4;stroke-dasharray:none;stroke-dashoffset:0;stroke-opacity:1"
       d="m -176.83469,-191.18313 40.20576,23.21289 a 46.759651,46.759614 29.999991 0 1 13.03177,-14.42065 l -27.30936,-37.58838 a 93.185525,93.185477 29.999991 0 0 -25.92816,28.79614 z"
       id="path884-6-8-0-8-3-6"
       inkscape:connector-curvature="0" />
    <path
       style="fill:#296c92;fill-opacity:1;stroke:#ffffff;stroke-width:1.99549;stroke-linecap:round;stroke-linejoin:round;stroke-miterlimit:4;stroke-dasharray:none;stroke-dashoffset:0;stroke-opacity:1"
       d="m -188.82438,-154.33965 46.17131,4.85287 a 46.759651,46.759614 5.999991 0 1 6.03972,-18.47441 l -40.23691,-23.23099 a 93.185525,93.185477 5.999991 0 0 -11.97412,36.85253 z"
       id="path884-6-8-0-8-5-5"
       inkscape:connector-curvature="0" />
    <path
       style="fill:#296c92;fill-opacity:1;stroke:#ffffff;stroke-width:1.99549;stroke-linecap:round;stroke-linejoin:round;stroke-miterlimit:4;stroke-dasharray:none;stroke-dashoffset:0;stroke-opacity:1"
       d="m -184.79192,-115.80481 44.15343,-14.34624 a 46.759614,46.759651 71.999991 0 1 -1.99665,-19.3338 l -46.20714,-4.85674 a 93.185477,93.185525 71.999991 0 0 4.05036,38.53678 z"
       id="path884-6-8-0-8-27-92"
       inkscape:connector-curvature="0" />
    <path
       style="fill:#296c92;fill-opacity:1;stroke:#ffffff;stroke-width:1.99549;stroke-linecap:round;stroke-linejoin:round;stroke-miterlimit:4;stroke-dasharray:none;stroke-dashoffset:0;stroke-opacity:1"
       d="m -165.39635,-82.211959 34.50102,-31.064781 a 46.759614,46.759651 47.999991 0 1 -9.6878,-16.85018 l -44.18774,14.35729 a 93.185477,93.185525 47.999991 0 0 19.37452,33.557671 z"
       id="path884-6-8-0-8-38-72"
       inkscape:connector-curvature="0" />
  </g>
</svg>
