<?xml version="1.0" encoding="UTF-8" standalone="no"?>
<svg
   xmlns:dc="http://purl.org/dc/elements/1.1/"
   xmlns:cc="http://creativecommons.org/ns#"
   xmlns:rdf="http://www.w3.org/1999/02/22-rdf-syntax-ns#"
   xmlns:svg="http://www.w3.org/2000/svg"
   xmlns="http://www.w3.org/2000/svg"
   xmlns:sodipodi="http://sodipodi.sourceforge.net/DTD/sodipodi-0.dtd"
   xmlns:inkscape="http://www.inkscape.org/namespaces/inkscape"
   width="188.36058mm"
   height="188.40196mm"
   viewBox="0 0 188.36058 188.40195"
   version="1.1"
   id="svg8"
   inkscape:version="1.0.2 (e86c870879, 2021-01-15)"
   sodipodi:docname="10_9_blue.svg">
  <defs
     id="defs2" />
  <sodipodi:namedview
     id="base"
     pagecolor="#ffffff"
     bordercolor="#666666"
     borderopacity="1.0"
     inkscape:pageopacity="0.0"
     inkscape:pageshadow="2"
     inkscape:zoom="0.35"
     inkscape:cx="766.82062"
     inkscape:cy="575.50909"
     inkscape:document-units="mm"
     inkscape:current-layer="layer1"
     inkscape:document-rotation="0"
     showgrid="false"
     inkscape:window-width="2155"
     inkscape:window-height="1262"
     inkscape:window-x="138"
     inkscape:window-y="-11"
     inkscape:window-maximized="1" />
  <metadata
     id="metadata5">
    <rdf:RDF>
      <cc:Work
         rdf:about="">
        <dc:format>image/svg+xml</dc:format>
        <dc:type
           rdf:resource="http://purl.org/dc/dcmitype/StillImage" />
        <dc:title />
      </cc:Work>
    </rdf:RDF>
  </metadata>
  <g
     inkscape:label="Layer 1"
     inkscape:groupmode="layer"
     id="layer1"
     transform="translate(97.05462,155.29393)">
    <path
       style="fill:#bfd3de;fill-opacity:1;stroke:#ffffff;stroke-width:1.99549;stroke-linecap:round;stroke-linejoin:round;stroke-miterlimit:4;stroke-dasharray:none;stroke-dashoffset:0;stroke-opacity:1"
       d="m -72.121485,1.2433372 34.501026,-31.0647562 a 46.759613,46.759651 47.999991 0 1 -9.687822,-16.850164 L -91.496,-32.314307 a 93.185476,93.185524 47.999991 0 0 19.374515,33.5576442 z"
       id="path884-6-8-0-8-24"
       inkscape:connector-curvature="0" />
    <path
       style="fill:#bfd3de;fill-opacity:1;stroke:#ffffff;stroke-width:1.99549;stroke-linecap:round;stroke-linejoin:round;stroke-miterlimit:4;stroke-dasharray:none;stroke-dashoffset:0;stroke-opacity:1"
       d="m -2.8780181,32.092255 1.285e-4,-46.425619 a 46.759651,46.759614 89.999991 0 1 -19.0045324,-4.075519 l -18.897852,42.444759 a 93.185525,93.185477 89.999991 0 0 37.9022559,8.056379 z"
       id="path884-6-8-0-8-8-94"
       inkscape:connector-curvature="0" />
    <path
       style="fill:#bfd3de;fill-opacity:1;stroke:#ffffff;stroke-width:1.99549;stroke-linecap:round;stroke-linejoin:round;stroke-miterlimit:4;stroke-dasharray:none;stroke-dashoffset:0;stroke-opacity:1"
       d="m -40.772867,24.019454 18.883083,-42.411893 A 46.759614,46.759651 23.999991 0 1 -37.593625,-29.845458 L -72.121473,1.2433211 a 93.185477,93.185525 23.999991 0 0 31.348618,22.7761169 z"
       id="path884-6-8-0-8-7-29"
       inkscape:connector-curvature="0" />
    <path
       style="fill:#bfd3de;fill-opacity:1;stroke:#ffffff;stroke-width:1.99549;stroke-linecap:round;stroke-linejoin:round;stroke-miterlimit:4;stroke-dasharray:none;stroke-dashoffset:0;stroke-opacity:1"
       d="M 35.02419,24.053893 16.141334,-18.35804 a 46.759651,46.759614 65.999991 0 1 -19.0192095,4.00664 l -1.59e-4,46.461677 A 93.185525,93.185477 65.999991 0 0 35.02419,24.053893 Z"
       id="path884-6-8-0-8-84-01"
       inkscape:connector-curvature="0" />
    <path
       style="fill:#bfd3de;fill-opacity:1;stroke:#ffffff;stroke-width:1.99549;stroke-linecap:round;stroke-linejoin:round;stroke-miterlimit:4;stroke-dasharray:none;stroke-dashoffset:0;stroke-opacity:1"
       d="M 66.372857,1.2778128 31.871869,-29.787112 A 46.759651,46.759614 41.999991 0 1 16.126665,-18.391033 L 35.02419,24.053893 A 93.185525,93.185477 41.999991 0 0 66.372857,1.2778128 Z"
       id="path884-6-8-0-8-76-1"
       inkscape:connector-curvature="0" />
    <path
       style="fill:#296c92;fill-opacity:1;stroke:#ffffff;stroke-width:1.99549;stroke-linecap:round;stroke-linejoin:round;stroke-miterlimit:4;stroke-dasharray:none;stroke-dashoffset:0;stroke-opacity:1"
       d="m 85.747366,-32.279812 -44.15334,-14.346376 a 46.759651,46.759614 17.999991 0 1 -9.748597,16.815071 L 66.37303,1.2779142 A 93.185525,93.185477 17.999991 0 0 85.747545,-32.279719 Z"
       id="path884-6-8-0-8-81-5"
       inkscape:connector-curvature="0" />
    <path
       style="fill:#296c92;fill-opacity:1;stroke:#ffffff;stroke-width:1.99549;stroke-linecap:round;stroke-linejoin:round;stroke-miterlimit:4;stroke-dasharray:none;stroke-dashoffset:0;stroke-opacity:1"
       d="m 89.797782,-70.816549 -46.171338,4.852702 a 46.759614,46.759651 83.999991 0 1 -2.066692,19.326428 l 44.187614,14.357607 A 93.185477,93.185525 83.999991 0 0 89.797695,-70.8166 Z"
       id="path884-6-8-0-8-9-11"
       inkscape:connector-curvature="0" />
    <path
       style="fill:#296c92;fill-opacity:1;stroke:#ffffff;stroke-width:1.99549;stroke-linecap:round;stroke-linejoin:round;stroke-miterlimit:4;stroke-dasharray:none;stroke-dashoffset:0;stroke-opacity:1"
       d="m 77.841638,-107.67089 -40.205833,23.212735 a 46.759614,46.759651 59.999991 0 1 5.972719,18.496158 L 89.81571,-70.818394 A 93.185477,93.185525 59.999991 0 0 77.841551,-107.67094 Z"
       id="path884-6-8-0-8-2-3"
       inkscape:connector-curvature="0" />
    <path
       style="fill:#296c92;fill-opacity:1;stroke:#ffffff;stroke-width:1.99549;stroke-linecap:round;stroke-linejoin:round;stroke-miterlimit:4;stroke-dasharray:none;stroke-dashoffset:0;stroke-opacity:1"
       d="m 51.913471,-136.46699 -27.288417,37.559067 a 46.759614,46.759651 35.999991 0 1 12.979465,14.467753 l 40.237095,-23.23068 a 93.185477,93.185525 35.999991 0 0 -25.928149,-28.79613 z"
       id="path884-6-8-0-8-6-52"
       inkscape:connector-curvature="0" />
    <path
       style="fill:#296c92;fill-opacity:1;stroke:#ffffff;stroke-width:1.99549;stroke-linecap:round;stroke-linejoin:round;stroke-miterlimit:4;stroke-dasharray:none;stroke-dashoffset:0;stroke-opacity:1"
       d="m 16.525083,-152.24221 -9.6525109,45.41112 a 46.759614,46.759651 11.999991 0 1 17.7418789,7.937726 l 27.309614,-37.588186 a 93.185477,93.185525 11.999991 0 0 -35.398993,-15.76064 z"
       id="path884-6-8-0-8-1-1"
       inkscape:connector-curvature="0" />
    <path
       style="fill:#296c92;fill-opacity:1;stroke:#ffffff;stroke-width:1.99549;stroke-linecap:round;stroke-linejoin:round;stroke-miterlimit:4;stroke-dasharray:none;stroke-dashoffset:0;stroke-opacity:1"
       d="m -22.220166,-152.25984 9.652368,45.41116 a 46.759651,46.759614 77.999991 0 1 19.436579,0.0352 l 9.660091,-45.44634 a 93.185525,93.185477 77.999991 0 0 -38.74903,-1e-5 z"
       id="path884-6-8-0-8-64-1"
       inkscape:connector-curvature="0" />
    <path
       style="fill:#296c92;fill-opacity:1;stroke:#ffffff;stroke-width:1.99549;stroke-linecap:round;stroke-linejoin:round;stroke-miterlimit:4;stroke-dasharray:none;stroke-dashoffset:0;stroke-opacity:1"
       d="m -57.622868,-136.51682 27.288255,37.559193 a 46.759651,46.759614 53.999991 0 1 17.770518,-7.873423 l -9.659771,-45.44641 a 93.185525,93.185477 53.999991 0 0 -35.398994,15.76065 z"
       id="path884-6-8-0-8-3-2"
       inkscape:connector-curvature="0" />
    <path
       style="fill:#296c92;fill-opacity:1;stroke:#ffffff;stroke-width:1.99549;stroke-linecap:round;stroke-linejoin:round;stroke-miterlimit:4;stroke-dasharray:none;stroke-dashoffset:0;stroke-opacity:1"
       d="m -83.561592,-107.73527 40.205754,23.212885 a 46.759651,46.759614 29.999991 0 1 13.031778,-14.420641 l -27.309353,-37.588384 a 93.185525,93.185477 29.999991 0 0 -25.928179,28.79614 z"
       id="path884-6-8-0-8-5-8"
       inkscape:connector-curvature="0" />
    <path
       style="fill:#296c92;fill-opacity:1;stroke:#ffffff;stroke-width:1.99549;stroke-linecap:round;stroke-linejoin:round;stroke-miterlimit:4;stroke-dasharray:none;stroke-dashoffset:0;stroke-opacity:1"
       d="m -95.551286,-70.891787 46.171309,4.85287 a 46.759651,46.759614 5.999991 0 1 6.039726,-18.474418 l -40.236906,-23.230985 a 93.185525,93.185477 5.999991 0 0 -11.974129,36.852533 z"
       id="path884-6-8-0-8-27-0"
       inkscape:connector-curvature="0" />
    <path
       style="fill:#296c92;fill-opacity:1;stroke:#ffffff;stroke-width:1.99549;stroke-linecap:round;stroke-linejoin:round;stroke-miterlimit:4;stroke-dasharray:none;stroke-dashoffset:0;stroke-opacity:1"
       d="m -91.496,-32.314307 44.153438,-14.346262 a 46.759614,46.759651 71.999991 0 1 -1.996665,-19.333785 l -46.207139,-4.856739 a 93.185477,93.185525 71.999991 0 0 4.050366,38.536786 z"
       id="path884-6-8-0-8-38-83"
       inkscape:connector-curvature="0" />
  </g>
</svg>
