<?xml version="1.0" encoding="UTF-8" standalone="no"?>
<svg
   xmlns:dc="http://purl.org/dc/elements/1.1/"
   xmlns:cc="http://creativecommons.org/ns#"
   xmlns:rdf="http://www.w3.org/1999/02/22-rdf-syntax-ns#"
   xmlns:svg="http://www.w3.org/2000/svg"
   xmlns="http://www.w3.org/2000/svg"
   xmlns:sodipodi="http://sodipodi.sourceforge.net/DTD/sodipodi-0.dtd"
   xmlns:inkscape="http://www.inkscape.org/namespaces/inkscape"
   width="188.35077mm"
   height="188.39903mm"
   viewBox="0 0 188.35075 188.39903"
   version="1.1"
   id="svg8"
   inkscape:version="1.0.2 (e86c870879, 2021-01-15)"
   sodipodi:docname="11_11_blue.svg">
  <defs
     id="defs2" />
  <sodipodi:namedview
     id="base"
     pagecolor="#ffffff"
     bordercolor="#666666"
     borderopacity="1.0"
     inkscape:pageopacity="0.0"
     inkscape:pageshadow="2"
     inkscape:zoom="0.35"
     inkscape:cx="370.79854"
     inkscape:cy="693.74222"
     inkscape:document-units="mm"
     inkscape:current-layer="layer1"
     inkscape:document-rotation="0"
     showgrid="false"
     inkscape:window-width="2155"
     inkscape:window-height="1262"
     inkscape:window-x="138"
     inkscape:window-y="-11"
     inkscape:window-maximized="1" />
  <metadata
     id="metadata5">
    <rdf:RDF>
      <cc:Work
         rdf:about="">
        <dc:format>image/svg+xml</dc:format>
        <dc:type
           rdf:resource="http://purl.org/dc/dcmitype/StillImage" />
        <dc:title />
      </cc:Work>
    </rdf:RDF>
  </metadata>
  <g
     inkscape:label="Layer 1"
     inkscape:groupmode="layer"
     id="layer1"
     transform="translate(-7.7262211,549.43357)">
    <path
       style="fill:#bfd3de;fill-opacity:1;stroke:#ffffff;stroke-width:1.99549;stroke-linecap:round;stroke-linejoin:round;stroke-miterlimit:4;stroke-dasharray:none;stroke-dashoffset:0;stroke-opacity:1"
       d="m 9.2344529,-464.9769 46.1713051,4.85288 a 46.759651,46.759613 5.999991 0 1 6.039694,-18.47441 L 21.208561,-501.82941 A 93.185524,93.185476 5.999991 0 0 9.2344529,-464.9769 Z"
       id="path884-6-8-0-8-12"
       inkscape:connector-curvature="0" />
    <path
       style="fill:#bfd3de;fill-opacity:1;stroke:#ffffff;stroke-width:1.99549;stroke-linecap:round;stroke-linejoin:round;stroke-miterlimit:4;stroke-dasharray:none;stroke-dashoffset:0;stroke-opacity:1"
       d="m 32.642162,-392.87702 34.501045,-31.0647 a 46.759614,46.759651 47.999991 0 1 -9.687814,-16.85018 l -44.187734,14.35725 a 93.185477,93.185525 47.999991 0 0 19.374503,33.55763 z"
       id="path884-6-8-0-8-8-84"
       inkscape:connector-curvature="0" />
    <path
       style="fill:#bfd3de;fill-opacity:1;stroke:#ffffff;stroke-width:1.99549;stroke-linecap:round;stroke-linejoin:round;stroke-miterlimit:4;stroke-dasharray:none;stroke-dashoffset:0;stroke-opacity:1"
       d="m 13.284819,-426.44014 44.153428,-14.34623 a 46.759614,46.759651 71.999991 0 1 -1.99667,-19.33379 L 9.2344728,-464.9769 a 93.185477,93.185525 71.999991 0 0 4.0503662,38.53676 z"
       id="path884-6-8-0-8-7-1"
       inkscape:connector-curvature="0" />
    <path
       style="fill:#bfd3de;fill-opacity:1;stroke:#ffffff;stroke-width:1.99549;stroke-linecap:round;stroke-linejoin:round;stroke-miterlimit:4;stroke-dasharray:none;stroke-dashoffset:0;stroke-opacity:1"
       d="m 63.977357,-370.0889 18.883111,-42.41182 A 46.759614,46.759651 23.999991 0 1 67.15662,-423.95378 l -34.527862,31.08881 a 93.185477,93.185525 23.999991 0 0 31.348599,22.77607 z"
       id="path884-6-8-0-8-84-14"
       inkscape:connector-curvature="0" />
    <path
       style="fill:#296c92;fill-opacity:1;stroke:#ffffff;stroke-width:1.99549;stroke-linecap:round;stroke-linejoin:round;stroke-miterlimit:4;stroke-dasharray:none;stroke-dashoffset:0;stroke-opacity:1"
       d="m 101.87964,-362.03247 7e-5,-46.42573 a 46.759651,46.759614 89.999991 0 1 -19.004539,-4.0755 l -18.897814,42.4448 a 93.185525,93.185477 89.999991 0 0 37.902283,8.05643 z"
       id="path884-6-8-0-8-76-00"
       inkscape:connector-curvature="0" />
    <path
       style="fill:#296c92;fill-opacity:1;stroke:#ffffff;stroke-width:1.99549;stroke-linecap:round;stroke-linejoin:round;stroke-miterlimit:4;stroke-dasharray:none;stroke-dashoffset:0;stroke-opacity:1"
       d="m 139.78189,-370.08884 -18.88292,-42.41193 a 46.759651,46.759614 65.999991 0 1 -19.01912,4.00686 l -1.7e-4,46.46163 a 93.185525,93.185477 65.999991 0 0 37.90226,-8.05637 z"
       id="path884-6-8-0-8-81-04"
       inkscape:connector-curvature="0" />
    <path
       style="fill:#296c92;fill-opacity:1;stroke:#ffffff;stroke-width:1.99549;stroke-linecap:round;stroke-linejoin:round;stroke-miterlimit:4;stroke-dasharray:none;stroke-dashoffset:0;stroke-opacity:1"
       d="m 171.13052,-392.86491 -34.50091,-31.06489 a 46.759651,46.759614 41.999991 0 1 -15.74523,11.39605 l 18.89751,42.44491 A 93.185525,93.185477 41.999991 0 0 171.1305,-392.865 Z"
       id="path884-6-8-0-8-9-6"
       inkscape:connector-curvature="0" />
    <path
       style="fill:#296c92;fill-opacity:1;stroke:#ffffff;stroke-width:1.99549;stroke-linecap:round;stroke-linejoin:round;stroke-miterlimit:4;stroke-dasharray:none;stroke-dashoffset:0;stroke-opacity:1"
       d="m 190.51841,-426.41042 -44.15337,-14.3464 a 46.759651,46.759614 17.999991 0 1 -9.7488,16.81494 l 34.52765,31.08906 a 93.185525,93.185477 17.999991 0 0 19.3745,-33.5577 z"
       id="path884-6-8-0-8-2-02"
       inkscape:connector-curvature="0" />
    <path
       style="fill:#296c92;fill-opacity:1;stroke:#ffffff;stroke-width:1.99549;stroke-linecap:round;stroke-linejoin:round;stroke-miterlimit:4;stroke-dasharray:none;stroke-dashoffset:0;stroke-opacity:1"
       d="m 194.56875,-464.94715 -46.17134,4.85267 a 46.759614,46.759651 83.999991 0 1 -2.06667,19.32644 l 44.18763,14.35763 a 93.185477,93.185525 83.999991 0 0 4.05037,-38.53674 z"
       id="path884-6-8-0-8-6-43"
       inkscape:connector-curvature="0" />
    <path
       style="fill:#296c92;fill-opacity:1;stroke:#ffffff;stroke-width:1.99549;stroke-linecap:round;stroke-linejoin:round;stroke-miterlimit:4;stroke-dasharray:none;stroke-dashoffset:0;stroke-opacity:1"
       d="m 182.61257,-501.80153 -40.20582,23.21275 a 46.759614,46.759651 59.999991 0 1 5.97275,18.49616 l 46.20716,-4.8564 a 93.185477,93.185525 59.999991 0 0 -11.97411,-36.85251 z"
       id="path884-6-8-0-8-1-5"
       inkscape:connector-curvature="0" />
    <path
       style="fill:#296c92;fill-opacity:1;stroke:#ffffff;stroke-width:1.99549;stroke-linecap:round;stroke-linejoin:round;stroke-miterlimit:4;stroke-dasharray:none;stroke-dashoffset:0;stroke-opacity:1"
       d="m 156.70005,-530.60666 -27.28838,37.5591 a 46.759614,46.759651 35.999991 0 1 12.97946,14.46774 l 40.23707,-23.23069 a 93.185477,93.185525 35.999991 0 0 -25.92815,-28.79614 z"
       id="path884-6-8-0-8-64-3"
       inkscape:connector-curvature="0" />
    <path
       style="fill:#296c92;fill-opacity:1;stroke:#ffffff;stroke-width:1.99549;stroke-linecap:round;stroke-linejoin:round;stroke-miterlimit:4;stroke-dasharray:none;stroke-dashoffset:0;stroke-opacity:1"
       d="m 121.31167,-546.38186 -9.65251,45.41113 a 46.759614,46.759651 11.999991 0 1 17.74189,7.93772 l 27.30961,-37.58819 a 93.185477,93.185525 11.999991 0 0 -35.39899,-15.76065 z"
       id="path884-6-8-0-8-3-0"
       inkscape:connector-curvature="0" />
    <path
       style="fill:#296c92;fill-opacity:1;stroke:#ffffff;stroke-width:1.99549;stroke-linecap:round;stroke-linejoin:round;stroke-miterlimit:4;stroke-dasharray:none;stroke-dashoffset:0;stroke-opacity:1"
       d="m 82.566416,-546.39947 9.652364,45.41115 a 46.759651,46.759614 77.999991 0 1 19.43659,0.0352 l 9.66009,-45.44634 a 93.185525,93.185477 77.999991 0 0 -38.749044,-10e-6 z"
       id="path884-6-8-0-8-5-77"
       inkscape:connector-curvature="0" />
    <path
       style="fill:#296c92;fill-opacity:1;stroke:#ffffff;stroke-width:1.99549;stroke-linecap:round;stroke-linejoin:round;stroke-miterlimit:4;stroke-dasharray:none;stroke-dashoffset:0;stroke-opacity:1"
       d="m 47.1637,-530.65645 27.288251,37.55917 a 46.759651,46.759614 53.999991 0 1 17.770534,-7.8734 L 82.562724,-546.4171 A 93.185525,93.185477 53.999991 0 0 47.1637,-530.65645 Z"
       id="path884-6-8-0-8-27-62"
       inkscape:connector-curvature="0" />
    <path
       style="fill:#296c92;fill-opacity:1;stroke:#ffffff;stroke-width:1.99549;stroke-linecap:round;stroke-linejoin:round;stroke-miterlimit:4;stroke-dasharray:none;stroke-dashoffset:0;stroke-opacity:1"
       d="m 21.208561,-501.82941 40.205768,23.21287 a 46.759651,46.759614 29.999991 0 1 13.031772,-14.42064 l -27.30935,-37.58838 a 93.185525,93.185477 29.999991 0 0 -25.92819,28.79615 z"
       id="path884-6-8-0-8-38-6"
       inkscape:connector-curvature="0" />
  </g>
</svg>
