<?xml version="1.0" encoding="UTF-8" standalone="no"?>
<svg
   xmlns:dc="http://purl.org/dc/elements/1.1/"
   xmlns:cc="http://creativecommons.org/ns#"
   xmlns:rdf="http://www.w3.org/1999/02/22-rdf-syntax-ns#"
   xmlns:svg="http://www.w3.org/2000/svg"
   xmlns="http://www.w3.org/2000/svg"
   xmlns:sodipodi="http://sodipodi.sourceforge.net/DTD/sodipodi-0.dtd"
   xmlns:inkscape="http://www.inkscape.org/namespaces/inkscape"
   width="188.39841mm"
   height="188.37508mm"
   viewBox="0 0 188.39839 188.37508"
   version="1.1"
   id="svg8"
   inkscape:version="1.0.2 (e86c870879, 2021-01-15)"
   sodipodi:docname="11_13_blue.svg">
  <defs
     id="defs2" />
  <sodipodi:namedview
     id="base"
     pagecolor="#ffffff"
     bordercolor="#666666"
     borderopacity="1.0"
     inkscape:pageopacity="0.0"
     inkscape:pageshadow="2"
     inkscape:zoom="0.35"
     inkscape:cx="197.09733"
     inkscape:cy="785.73718"
     inkscape:document-units="mm"
     inkscape:current-layer="layer1"
     inkscape:document-rotation="0"
     showgrid="false"
     inkscape:window-width="2155"
     inkscape:window-height="1262"
     inkscape:window-x="138"
     inkscape:window-y="-11"
     inkscape:window-maximized="1" />
  <metadata
     id="metadata5">
    <rdf:RDF>
      <cc:Work
         rdf:about="">
        <dc:format>image/svg+xml</dc:format>
        <dc:type
           rdf:resource="http://purl.org/dc/dcmitype/StillImage" />
        <dc:title />
      </cc:Work>
    </rdf:RDF>
  </metadata>
  <g
     inkscape:label="Layer 1"
     inkscape:groupmode="layer"
     id="layer1"
     transform="translate(-53.684665,573.7739)">
    <path
       style="fill:#bfd3de;fill-opacity:1;stroke:#ffffff;stroke-width:1.99549;stroke-linecap:round;stroke-linejoin:round;stroke-miterlimit:4;stroke-dasharray:none;stroke-dashoffset:0;stroke-opacity:1"
       d="m 93.128666,-554.97915 27.288244,37.55917 a 46.759651,46.759613 53.999991 0 1 17.77051,-7.87343 l -9.65975,-45.4464 a 93.185524,93.185476 53.999991 0 0 -35.399004,15.76066 z"
       id="path884-6-8-0-8-98"
       inkscape:connector-curvature="0" />
    <path
       style="fill:#bfd3de;fill-opacity:1;stroke:#ffffff;stroke-width:1.99549;stroke-linecap:round;stroke-linejoin:round;stroke-miterlimit:4;stroke-dasharray:none;stroke-dashoffset:0;stroke-opacity:1"
       d="m 55.210829,-489.3396 46.171281,4.85293 a 46.759651,46.759614 5.999991 0 1 6.03971,-18.47442 L 67.184939,-526.1921 a 93.185525,93.185477 5.999991 0 0 -11.97411,36.8525 z"
       id="path884-6-8-0-8-8-11"
       inkscape:connector-curvature="0" />
    <path
       style="fill:#bfd3de;fill-opacity:1;stroke:#ffffff;stroke-width:1.99549;stroke-linecap:round;stroke-linejoin:round;stroke-miterlimit:4;stroke-dasharray:none;stroke-dashoffset:0;stroke-opacity:1"
       d="m 67.200497,-526.18302 40.205733,23.21289 a 46.759651,46.759614 29.999991 0 1 13.03178,-14.42065 l -27.309329,-37.58836 a 93.185525,93.185477 29.999991 0 0 -25.928169,28.79613 z"
       id="path884-6-8-0-8-7-12"
       inkscape:connector-curvature="0" />
    <path
       style="fill:#bfd3de;fill-opacity:1;stroke:#ffffff;stroke-width:1.99549;stroke-linecap:round;stroke-linejoin:round;stroke-miterlimit:4;stroke-dasharray:none;stroke-dashoffset:0;stroke-opacity:1"
       d="m 59.243296,-450.80479 44.153394,-14.34616 a 46.759614,46.759651 71.999991 0 1 -1.99664,-19.33383 l -46.207143,-4.85672 a 93.185477,93.185525 71.999991 0 0 4.050389,38.53671 z"
       id="path884-6-8-0-8-84-79"
       inkscape:connector-curvature="0" />
    <path
       style="fill:#296c92;fill-opacity:1;stroke:#ffffff;stroke-width:1.99549;stroke-linecap:round;stroke-linejoin:round;stroke-miterlimit:4;stroke-dasharray:none;stroke-dashoffset:0;stroke-opacity:1"
       d="m 78.617779,-417.2471 34.501081,-31.06482 a 46.759614,46.759651 47.999991 0 1 -9.68783,-16.85017 l -44.187734,14.3573 a 93.185477,93.185525 47.999991 0 0 19.374483,33.55769 z"
       id="path884-6-8-0-8-76-25"
       inkscape:connector-curvature="0" />
    <path
       style="fill:#296c92;fill-opacity:1;stroke:#ffffff;stroke-width:1.99549;stroke-linecap:round;stroke-linejoin:round;stroke-miterlimit:4;stroke-dasharray:none;stroke-dashoffset:0;stroke-opacity:1"
       d="m 109.96638,-394.471 18.88307,-42.41186 a 46.759614,46.759651 23.999991 0 1 -15.70395,-11.45285 l -34.52784,31.08877 a 93.185477,93.185525 23.999991 0 0 31.34861,22.77611 z"
       id="path884-6-8-0-8-81-71"
       inkscape:connector-curvature="0" />
    <path
       style="fill:#296c92;fill-opacity:1;stroke:#ffffff;stroke-width:1.99549;stroke-linecap:round;stroke-linejoin:round;stroke-miterlimit:4;stroke-dasharray:none;stroke-dashoffset:0;stroke-opacity:1"
       d="m 147.86863,-386.41459 1e-4,-46.42565 a 46.759651,46.759614 89.999991 0 1 -19.00453,-4.07553 l -18.89782,42.44477 a 93.185525,93.185477 89.999991 0 0 37.90231,8.05633 z"
       id="path884-6-8-0-8-9-03"
       inkscape:connector-curvature="0" />
    <path
       style="fill:#296c92;fill-opacity:1;stroke:#ffffff;stroke-width:1.99549;stroke-linecap:round;stroke-linejoin:round;stroke-miterlimit:4;stroke-dasharray:none;stroke-dashoffset:0;stroke-opacity:1"
       d="m 185.77083,-394.45291 -18.88291,-42.41197 a 46.759651,46.759614 65.999991 0 1 -19.01916,4.00662 l -1.7e-4,46.46169 a 93.185525,93.185477 65.999991 0 0 37.9023,-8.05642 z"
       id="path884-6-8-0-8-2-23"
       inkscape:connector-curvature="0" />
    <path
       style="fill:#296c92;fill-opacity:1;stroke:#ffffff;stroke-width:1.99549;stroke-linecap:round;stroke-linejoin:round;stroke-miterlimit:4;stroke-dasharray:none;stroke-dashoffset:0;stroke-opacity:1"
       d="m 217.11942,-417.22903 -34.5009,-31.06492 a 46.759651,46.759614 41.999991 0 1 -15.74522,11.39607 l 18.8975,42.44494 a 93.185525,93.185477 41.999991 0 0 31.34861,-22.77609 z"
       id="path884-6-8-0-8-6-20"
       inkscape:connector-curvature="0" />
    <path
       style="fill:#296c92;fill-opacity:1;stroke:#ffffff;stroke-width:1.99549;stroke-linecap:round;stroke-linejoin:round;stroke-miterlimit:4;stroke-dasharray:none;stroke-dashoffset:0;stroke-opacity:1"
       d="m 236.50731,-450.77459 -44.15339,-14.34639 a 46.759651,46.759614 17.999991 0 1 -9.74877,16.81497 l 34.52764,31.08904 a 93.185525,93.185477 17.999991 0 0 19.37451,-33.55764 z"
       id="path884-6-8-0-8-1-68"
       inkscape:connector-curvature="0" />
    <path
       style="fill:#296c92;fill-opacity:1;stroke:#ffffff;stroke-width:1.99549;stroke-linecap:round;stroke-linejoin:round;stroke-miterlimit:4;stroke-dasharray:none;stroke-dashoffset:0;stroke-opacity:1"
       d="m 240.57483,-489.30575 -46.17134,4.85273 a 46.759614,46.759651 83.999991 0 1 -2.06668,19.32643 l 44.18763,14.35761 a 93.185477,93.185525 83.999991 0 0 4.05038,-38.53676 z"
       id="path884-6-8-0-8-64-0"
       inkscape:connector-curvature="0" />
    <path
       style="fill:#296c92;fill-opacity:1;stroke:#ffffff;stroke-width:1.99549;stroke-linecap:round;stroke-linejoin:round;stroke-miterlimit:4;stroke-dasharray:none;stroke-dashoffset:0;stroke-opacity:1"
       d="m 228.61864,-526.1601 -40.20584,23.21276 a 46.759614,46.759651 59.999991 0 1 5.97277,18.49616 l 46.20717,-4.85641 a 93.185477,93.185525 59.999991 0 0 -11.97411,-36.85251 z"
       id="path884-6-8-0-8-3-8"
       inkscape:connector-curvature="0" />
    <path
       style="fill:#296c92;fill-opacity:1;stroke:#ffffff;stroke-width:1.99549;stroke-linecap:round;stroke-linejoin:round;stroke-miterlimit:4;stroke-dasharray:none;stroke-dashoffset:0;stroke-opacity:1"
       d="m 202.70609,-554.96522 -27.28836,37.55909 a 46.759614,46.759651 35.999991 0 1 12.97945,14.46776 l 40.23708,-23.2307 a 93.185477,93.185525 35.999991 0 0 -25.92817,-28.79615 z"
       id="path884-6-8-0-8-5-33"
       inkscape:connector-curvature="0" />
    <path
       style="fill:#296c92;fill-opacity:1;stroke:#ffffff;stroke-width:1.99549;stroke-linecap:round;stroke-linejoin:round;stroke-miterlimit:4;stroke-dasharray:none;stroke-dashoffset:0;stroke-opacity:1"
       d="m 167.31771,-570.74043 -9.6525,45.41111 a 46.759614,46.759651 11.999991 0 1 17.74189,7.93775 l 27.30962,-37.58819 a 93.185477,93.185525 11.999991 0 0 -35.39901,-15.76067 z"
       id="path884-6-8-0-8-27-20"
       inkscape:connector-curvature="0" />
    <path
       style="fill:#296c92;fill-opacity:1;stroke:#ffffff;stroke-width:1.99549;stroke-linecap:round;stroke-linejoin:round;stroke-miterlimit:4;stroke-dasharray:none;stroke-dashoffset:0;stroke-opacity:1"
       d="m 128.52767,-570.73981 9.65238,45.41116 a 46.759651,46.759614 77.999991 0 1 19.43658,0.0352 l 9.66009,-45.44634 a 93.185525,93.185477 77.999991 0 0 -38.74905,-2e-5 z"
       id="path884-6-8-0-8-38-54"
       inkscape:connector-curvature="0" />
  </g>
</svg>
