<?xml version="1.0" encoding="UTF-8" standalone="no"?>
<svg
   xmlns:dc="http://purl.org/dc/elements/1.1/"
   xmlns:cc="http://creativecommons.org/ns#"
   xmlns:rdf="http://www.w3.org/1999/02/22-rdf-syntax-ns#"
   xmlns:svg="http://www.w3.org/2000/svg"
   xmlns="http://www.w3.org/2000/svg"
   xmlns:sodipodi="http://sodipodi.sourceforge.net/DTD/sodipodi-0.dtd"
   xmlns:inkscape="http://www.inkscape.org/namespaces/inkscape"
   width="188.37523mm"
   height="188.38907mm"
   viewBox="0 0 188.37521 188.38907"
   version="1.1"
   id="svg8"
   inkscape:version="1.0.2 (e86c870879, 2021-01-15)"
   sodipodi:docname="11_12_blue.svg">
  <defs
     id="defs2" />
  <sodipodi:namedview
     id="base"
     pagecolor="#ffffff"
     bordercolor="#666666"
     borderopacity="1.0"
     inkscape:pageopacity="0.0"
     inkscape:pageshadow="2"
     inkscape:zoom="0.35"
     inkscape:cx="318.21176"
     inkscape:cy="546.8959"
     inkscape:document-units="mm"
     inkscape:current-layer="layer1"
     inkscape:document-rotation="0"
     showgrid="false"
     inkscape:window-width="2155"
     inkscape:window-height="1262"
     inkscape:window-x="138"
     inkscape:window-y="-11"
     inkscape:window-maximized="1" />
  <metadata
     id="metadata5">
    <rdf:RDF>
      <cc:Work
         rdf:about="">
        <dc:format>image/svg+xml</dc:format>
        <dc:type
           rdf:resource="http://purl.org/dc/dcmitype/StillImage" />
        <dc:title />
      </cc:Work>
    </rdf:RDF>
  </metadata>
  <g
     inkscape:label="Layer 1"
     inkscape:groupmode="layer"
     id="layer1"
     transform="translate(-21.639807,510.58048)">
    <path
       style="fill:#bfd3de;fill-opacity:1;stroke:#ffffff;stroke-width:1.99549;stroke-linecap:round;stroke-linejoin:round;stroke-miterlimit:4;stroke-dasharray:none;stroke-dashoffset:0;stroke-opacity:1"
       d="m 35.140083,-462.97234 40.205742,23.21289 a 46.759651,46.759613 29.999991 0 1 13.031756,-14.42065 l -27.309337,-37.58838 a 93.185524,93.185476 29.999991 0 0 -25.928161,28.79614 z"
       id="path884-6-8-0-8-60"
       inkscape:connector-curvature="0" />
    <path
       style="fill:#bfd3de;fill-opacity:1;stroke:#ffffff;stroke-width:1.99549;stroke-linecap:round;stroke-linejoin:round;stroke-miterlimit:4;stroke-dasharray:none;stroke-dashoffset:0;stroke-opacity:1"
       d="m 27.198426,-387.58505 44.153427,-14.34618 a 46.759614,46.759651 71.999991 0 1 -1.996674,-19.33379 l -46.207122,-4.85677 a 93.185477,93.185525 71.999991 0 0 4.050369,38.53674 z"
       id="path884-6-8-0-8-8-79"
       inkscape:connector-curvature="0" />
    <path
       style="fill:#bfd3de;fill-opacity:1;stroke:#ffffff;stroke-width:1.99549;stroke-linecap:round;stroke-linejoin:round;stroke-miterlimit:4;stroke-dasharray:none;stroke-dashoffset:0;stroke-opacity:1"
       d="m 23.165964,-426.11982 46.171301,4.85288 a 46.759651,46.759614 5.999991 0 1 6.039714,-18.47442 l -40.236877,-23.23097 a 93.185525,93.185477 5.999991 0 0 -11.974119,36.85251 z"
       id="path884-6-8-0-8-7-94"
       inkscape:connector-curvature="0" />
    <path
       style="fill:#bfd3de;fill-opacity:1;stroke:#ffffff;stroke-width:1.99549;stroke-linecap:round;stroke-linejoin:round;stroke-miterlimit:4;stroke-dasharray:none;stroke-dashoffset:0;stroke-opacity:1"
       d="m 46.555789,-354.0219 34.501022,-31.06467 a 46.759614,46.759651 47.999991 0 1 -9.6878,-16.85022 l -44.18773,14.3573 a 93.185477,93.185525 47.999991 0 0 19.374508,33.55759 z"
       id="path884-6-8-0-8-84-72"
       inkscape:connector-curvature="0" />
    <path
       style="fill:#296c92;fill-opacity:1;stroke:#ffffff;stroke-width:1.99549;stroke-linecap:round;stroke-linejoin:round;stroke-miterlimit:4;stroke-dasharray:none;stroke-dashoffset:0;stroke-opacity:1"
       d="m 77.904399,-331.24574 18.883108,-42.41198 a 46.759614,46.759651 23.999991 0 1 -15.703851,-11.45299 l -34.527867,31.08881 a 93.185477,93.185525 23.999991 0 0 31.34861,22.77616 z"
       id="path884-6-8-0-8-76-07"
       inkscape:connector-curvature="0" />
    <path
       style="fill:#296c92;fill-opacity:1;stroke:#ffffff;stroke-width:1.99549;stroke-linecap:round;stroke-linejoin:round;stroke-miterlimit:4;stroke-dasharray:none;stroke-dashoffset:0;stroke-opacity:1"
       d="m 115.80665,-323.18936 8e-5,-46.4256 a 46.759651,46.759614 89.999991 0 1 -19.004563,-4.07532 l -18.89781,42.44474 a 93.185525,93.185477 89.999991 0 0 37.902263,8.05638 z"
       id="path884-6-8-0-8-81-44"
       inkscape:connector-curvature="0" />
    <path
       style="fill:#296c92;fill-opacity:1;stroke:#ffffff;stroke-width:1.99549;stroke-linecap:round;stroke-linejoin:round;stroke-miterlimit:4;stroke-dasharray:none;stroke-dashoffset:0;stroke-opacity:1"
       d="m 153.70891,-331.24569 -18.88292,-42.41199 a 46.759651,46.759614 65.999991 0 1 -19.01917,4.00666 l -1.7e-4,46.46166 a 93.185525,93.185477 65.999991 0 0 37.90228,-8.05643 z"
       id="path884-6-8-0-8-9-0"
       inkscape:connector-curvature="0" />
    <path
       style="fill:#296c92;fill-opacity:1;stroke:#ffffff;stroke-width:1.99549;stroke-linecap:round;stroke-linejoin:round;stroke-miterlimit:4;stroke-dasharray:none;stroke-dashoffset:0;stroke-opacity:1"
       d="m 185.06482,-354.00528 -34.50091,-31.06489 a 46.759651,46.759614 41.999991 0 1 -15.74522,11.39602 l 18.89752,42.44494 a 93.185525,93.185477 41.999991 0 0 31.34863,-22.77617 z"
       id="path884-6-8-0-8-2-50"
       inkscape:connector-curvature="0" />
    <path
       style="fill:#296c92;fill-opacity:1;stroke:#ffffff;stroke-width:1.99549;stroke-linecap:round;stroke-linejoin:round;stroke-miterlimit:4;stroke-dasharray:none;stroke-dashoffset:0;stroke-opacity:1"
       d="m 204.43929,-387.56291 -44.15337,-14.34644 a 46.759651,46.759614 17.999991 0 1 -9.74878,16.81498 l 34.52764,31.08908 a 93.185525,93.185477 17.999991 0 0 19.3745,-33.55763 z"
       id="path884-6-8-0-8-6-3"
       inkscape:connector-curvature="0" />
    <path
       style="fill:#296c92;fill-opacity:1;stroke:#ffffff;stroke-width:1.99549;stroke-linecap:round;stroke-linejoin:round;stroke-miterlimit:4;stroke-dasharray:none;stroke-dashoffset:0;stroke-opacity:1"
       d="m 208.50681,-426.09408 -46.17133,4.85272 a 46.759614,46.759651 83.999991 0 1 -2.06669,19.32642 l 44.18763,14.3576 a 93.185477,93.185525 83.999991 0 0 4.05037,-38.53675 z"
       id="path884-6-8-0-8-1-94"
       inkscape:connector-curvature="0" />
    <path
       style="fill:#296c92;fill-opacity:1;stroke:#ffffff;stroke-width:1.99549;stroke-linecap:round;stroke-linejoin:round;stroke-miterlimit:4;stroke-dasharray:none;stroke-dashoffset:0;stroke-opacity:1"
       d="m 196.55064,-462.94845 -40.20584,23.21276 a 46.759614,46.759651 59.999991 0 1 5.97276,18.49617 l 46.20717,-4.8564 a 93.185477,93.185525 59.999991 0 0 -11.9741,-36.85252 z"
       id="path884-6-8-0-8-64-44"
       inkscape:connector-curvature="0" />
    <path
       style="fill:#296c92;fill-opacity:1;stroke:#ffffff;stroke-width:1.99549;stroke-linecap:round;stroke-linejoin:round;stroke-miterlimit:4;stroke-dasharray:none;stroke-dashoffset:0;stroke-opacity:1"
       d="m 170.63809,-491.75356 -27.28837,37.5591 a 46.759614,46.759651 35.999991 0 1 12.97946,14.46774 l 40.23707,-23.2307 a 93.185477,93.185525 35.999991 0 0 -25.92816,-28.79613 z"
       id="path884-6-8-0-8-3-90"
       inkscape:connector-curvature="0" />
    <path
       style="fill:#296c92;fill-opacity:1;stroke:#ffffff;stroke-width:1.99549;stroke-linecap:round;stroke-linejoin:round;stroke-miterlimit:4;stroke-dasharray:none;stroke-dashoffset:0;stroke-opacity:1"
       d="m 135.24971,-507.52876 -9.6525,45.41111 a 46.759614,46.759651 11.999991 0 1 17.74188,7.93774 l 27.30963,-37.58819 a 93.185477,93.185525 11.999991 0 0 -35.39901,-15.76066 z"
       id="path884-6-8-0-8-5-771"
       inkscape:connector-curvature="0" />
    <path
       style="fill:#296c92;fill-opacity:1;stroke:#ffffff;stroke-width:1.99549;stroke-linecap:round;stroke-linejoin:round;stroke-miterlimit:4;stroke-dasharray:none;stroke-dashoffset:0;stroke-opacity:1"
       d="m 96.504456,-507.54638 9.652364,45.41114 a 46.759651,46.759614 77.999991 0 1 19.43659,0.0352 l 9.6601,-45.44634 a 93.185525,93.185477 77.999991 0 0 -38.749054,-10e-6 z"
       id="path884-6-8-0-8-27-5"
       inkscape:connector-curvature="0" />
    <path
       style="fill:#296c92;fill-opacity:1;stroke:#ffffff;stroke-width:1.99549;stroke-linecap:round;stroke-linejoin:round;stroke-miterlimit:4;stroke-dasharray:none;stroke-dashoffset:0;stroke-opacity:1"
       d="m 61.068244,-491.76848 27.288269,37.55918 a 46.759651,46.759614 53.999991 0 1 17.770517,-7.87341 l -9.659756,-45.44641 a 93.185525,93.185477 53.999991 0 0 -35.39903,15.76064 z"
       id="path884-6-8-0-8-38-90"
       inkscape:connector-curvature="0" />
  </g>
</svg>
