<?xml version="1.0" encoding="UTF-8" standalone="no"?>
<svg
   xmlns:dc="http://purl.org/dc/elements/1.1/"
   xmlns:cc="http://creativecommons.org/ns#"
   xmlns:rdf="http://www.w3.org/1999/02/22-rdf-syntax-ns#"
   xmlns:svg="http://www.w3.org/2000/svg"
   xmlns="http://www.w3.org/2000/svg"
   xmlns:sodipodi="http://sodipodi.sourceforge.net/DTD/sodipodi-0.dtd"
   xmlns:inkscape="http://www.inkscape.org/namespaces/inkscape"
   width="188.36436mm"
   height="188.40344mm"
   viewBox="0 0 188.36435 188.40344"
   version="1.1"
   id="svg8"
   inkscape:version="1.0.2 (e86c870879, 2021-01-15)"
   sodipodi:docname="11_10_blue.svg">
  <defs
     id="defs2" />
  <sodipodi:namedview
     id="base"
     pagecolor="#ffffff"
     bordercolor="#666666"
     borderopacity="1.0"
     inkscape:pageopacity="0.0"
     inkscape:pageshadow="2"
     inkscape:zoom="0.35"
     inkscape:cx="637.71722"
     inkscape:cy="1034.8554"
     inkscape:document-units="mm"
     inkscape:current-layer="layer1"
     inkscape:document-rotation="0"
     showgrid="false"
     inkscape:window-width="2155"
     inkscape:window-height="1262"
     inkscape:window-x="138"
     inkscape:window-y="-11"
     inkscape:window-maximized="1" />
  <metadata
     id="metadata5">
    <rdf:RDF>
      <cc:Work
         rdf:about="">
        <dc:format>image/svg+xml</dc:format>
        <dc:type
           rdf:resource="http://purl.org/dc/dcmitype/StillImage" />
        <dc:title />
      </cc:Work>
    </rdf:RDF>
  </metadata>
  <g
     inkscape:label="Layer 1"
     inkscape:groupmode="layer"
     id="layer1"
     transform="translate(62.896014,639.68643)">
    <path
       style="fill:#bfd3de;fill-opacity:1;stroke:#ffffff;stroke-width:1.99549;stroke-linecap:round;stroke-linejoin:round;stroke-miterlimit:4;stroke-dasharray:none;stroke-dashoffset:0;stroke-opacity:1"
       d="m -57.337387,-516.69929 44.15343,-14.34624 a 46.759613,46.759651 71.999991 0 1 -1.996687,-19.33378 l -46.207121,-4.85674 a 93.185476,93.185524 71.999991 0 0 4.050378,38.53676 z"
       id="path884-6-8-0-8-14"
       inkscape:connector-curvature="0" />
    <path
       style="fill:#bfd3de;fill-opacity:1;stroke:#ffffff;stroke-width:1.99549;stroke-linecap:round;stroke-linejoin:round;stroke-miterlimit:4;stroke-dasharray:none;stroke-dashoffset:0;stroke-opacity:1"
       d="M -6.627718,-460.35355 12.2554,-502.76541 a 46.759614,46.759651 23.999991 0 1 -15.7038421,-11.45301 l -34.5278859,31.08877 a 93.185477,93.185525 23.999991 0 0 31.34861,22.7761 z"
       id="path884-6-8-0-8-8-04"
       inkscape:connector-curvature="0" />
    <path
       style="fill:#bfd3de;fill-opacity:1;stroke:#ffffff;stroke-width:1.99549;stroke-linecap:round;stroke-linejoin:round;stroke-miterlimit:4;stroke-dasharray:none;stroke-dashoffset:0;stroke-opacity:1"
       d="m -37.962881,-483.14164 34.5010259,-31.06475 a 46.759614,46.759651 47.999991 0 1 -9.6878109,-16.85018 l -44.187704,14.35727 a 93.185477,93.185525 47.999991 0 0 19.374506,33.55765 z"
       id="path884-6-8-0-8-7-64"
       inkscape:connector-curvature="0" />
    <path
       style="fill:#bfd3de;fill-opacity:1;stroke:#ffffff;stroke-width:1.99549;stroke-linecap:round;stroke-linejoin:round;stroke-miterlimit:4;stroke-dasharray:none;stroke-dashoffset:0;stroke-opacity:1"
       d="m 31.267168,-452.28074 1.4e-4,-46.42558 a 46.759651,46.759614 89.999991 0 1 -19.004559,-4.07556 l -18.8978124,42.44479 a 93.185525,93.185477 89.999991 0 0 37.9022314,8.05635 z"
       id="path884-6-8-0-8-84-67"
       inkscape:connector-curvature="0" />
    <path
       style="fill:#296c92;fill-opacity:1;stroke:#ffffff;stroke-width:1.99549;stroke-linecap:round;stroke-linejoin:round;stroke-miterlimit:4;stroke-dasharray:none;stroke-dashoffset:0;stroke-opacity:1"
       d="m 69.169467,-460.33707 -18.882978,-42.41204 a 46.759651,46.759614 65.999991 0 1 -19.019162,4.00668 l -1.59e-4,46.46169 a 93.185525,93.185477 65.999991 0 0 37.902299,-8.05633 z"
       id="path884-6-8-0-8-76-6"
       inkscape:connector-curvature="0" />
    <path
       style="fill:#296c92;fill-opacity:1;stroke:#ffffff;stroke-width:1.99549;stroke-linecap:round;stroke-linejoin:round;stroke-miterlimit:4;stroke-dasharray:none;stroke-dashoffset:0;stroke-opacity:1"
       d="m 100.51808,-483.11317 -34.500889,-31.06485 a 46.759651,46.759614 41.999991 0 1 -15.745092,11.39623 l 18.897485,42.44488 a 93.185525,93.185477 41.999991 0 0 31.348616,-22.7761 z"
       id="path884-6-8-0-8-81-45"
       inkscape:connector-curvature="0" />
    <path
       style="fill:#296c92;fill-opacity:1;stroke:#ffffff;stroke-width:1.99549;stroke-linecap:round;stroke-linejoin:round;stroke-miterlimit:4;stroke-dasharray:none;stroke-dashoffset:0;stroke-opacity:1"
       d="m 119.89262,-516.67078 -44.153388,-14.34641 a 46.759651,46.759614 17.999991 0 1 -9.748784,16.81497 l 34.527632,31.08905 a 93.185525,93.185477 17.999991 0 0 19.37448,-33.55769 z"
       id="path884-6-8-0-8-9-7"
       inkscape:connector-curvature="0" />
    <path
       style="fill:#296c92;fill-opacity:1;stroke:#ffffff;stroke-width:1.99549;stroke-linecap:round;stroke-linejoin:round;stroke-miterlimit:4;stroke-dasharray:none;stroke-dashoffset:0;stroke-opacity:1"
       d="m 123.96015,-555.20189 -46.171326,4.8527 a 46.759614,46.759651 83.999991 0 1 -2.066715,19.32641 l 44.187641,14.35761 a 93.185477,93.185525 83.999991 0 0 4.05034,-38.5368 z"
       id="path884-6-8-0-8-2-80"
       inkscape:connector-curvature="0" />
    <path
       style="fill:#296c92;fill-opacity:1;stroke:#ffffff;stroke-width:1.99549;stroke-linecap:round;stroke-linejoin:round;stroke-miterlimit:4;stroke-dasharray:none;stroke-dashoffset:0;stroke-opacity:1"
       d="m 111.98602,-592.05437 -40.205859,23.21271 a 46.759614,46.759651 59.999991 0 1 5.972766,18.49618 l 46.207183,-4.85639 a 93.185477,93.185525 59.999991 0 0 -11.9741,-36.8525 z"
       id="path884-6-8-0-8-6-191"
       inkscape:connector-curvature="0" />
    <path
       style="fill:#296c92;fill-opacity:1;stroke:#ffffff;stroke-width:1.99549;stroke-linecap:round;stroke-linejoin:round;stroke-miterlimit:4;stroke-dasharray:none;stroke-dashoffset:0;stroke-opacity:1"
       d="m 86.073478,-620.85951 -27.288374,37.55909 a 46.759614,46.759651 35.999991 0 1 12.97945,14.46775 l 40.237066,-23.2307 A 93.185477,93.185525 35.999991 0 0 86.07346,-620.8595 Z"
       id="path884-6-8-0-8-1-40"
       inkscape:connector-curvature="0" />
    <path
       style="fill:#296c92;fill-opacity:1;stroke:#ffffff;stroke-width:1.99549;stroke-linecap:round;stroke-linejoin:round;stroke-miterlimit:4;stroke-dasharray:none;stroke-dashoffset:0;stroke-opacity:1"
       d="m 50.685106,-636.63473 -9.652508,45.41113 a 46.759614,46.759651 11.999991 0 1 17.741883,7.93772 l 27.309624,-37.58818 a 93.185477,93.185525 11.999991 0 0 -35.398994,-15.76066 z"
       id="path884-6-8-0-8-64-78"
       inkscape:connector-curvature="0" />
    <path
       style="fill:#296c92;fill-opacity:1;stroke:#ffffff;stroke-width:1.99549;stroke-linecap:round;stroke-linejoin:round;stroke-miterlimit:4;stroke-dasharray:none;stroke-dashoffset:0;stroke-opacity:1"
       d="m 11.939863,-636.65234 9.65236,45.41116 a 46.759651,46.759614 77.999991 0 1 19.436585,0.0352 l 9.660082,-45.44635 a 93.185525,93.185477 77.999991 0 0 -38.749022,0 z"
       id="path884-6-8-0-8-3-71"
       inkscape:connector-curvature="0" />
    <path
       style="fill:#296c92;fill-opacity:1;stroke:#ffffff;stroke-width:1.99549;stroke-linecap:round;stroke-linejoin:round;stroke-miterlimit:4;stroke-dasharray:none;stroke-dashoffset:0;stroke-opacity:1"
       d="m -23.46285,-620.90931 27.2882506,37.55917 a 46.759651,46.759614 53.999991 0 1 17.7705244,-7.87341 l -9.659759,-45.44641 a 93.185525,93.185477 53.999991 0 0 -35.399016,15.76065 z"
       id="path884-6-8-0-8-5-4"
       inkscape:connector-curvature="0" />
    <path
       style="fill:#296c92;fill-opacity:1;stroke:#ffffff;stroke-width:1.99549;stroke-linecap:round;stroke-linejoin:round;stroke-miterlimit:4;stroke-dasharray:none;stroke-dashoffset:0;stroke-opacity:1"
       d="m -49.401577,-592.12777 40.2057493,23.21288 a 46.759651,46.759614 29.999991 0 1 13.0317868,-14.42064 l -27.3093531,-37.58839 a 93.185525,93.185477 29.999991 0 0 -25.928183,28.79615 z"
       id="path884-6-8-0-8-27-37"
       inkscape:connector-curvature="0" />
    <path
       style="fill:#296c92;fill-opacity:1;stroke:#ffffff;stroke-width:1.99549;stroke-linecap:round;stroke-linejoin:round;stroke-miterlimit:4;stroke-dasharray:none;stroke-dashoffset:0;stroke-opacity:1"
       d="m -61.387765,-555.23605 46.171324,4.85286 a 46.759651,46.759614 5.999991 0 1 6.0397144,-18.47441 l -40.2369064,-23.23099 a 93.185525,93.185477 5.999991 0 0 -11.974132,36.85254 z"
       id="path884-6-8-0-8-38-20"
       inkscape:connector-curvature="0" />
  </g>
</svg>
