<?xml version="1.0" encoding="UTF-8" standalone="no"?>
<svg
   xmlns:dc="http://purl.org/dc/elements/1.1/"
   xmlns:cc="http://creativecommons.org/ns#"
   xmlns:rdf="http://www.w3.org/1999/02/22-rdf-syntax-ns#"
   xmlns:svg="http://www.w3.org/2000/svg"
   xmlns="http://www.w3.org/2000/svg"
   xmlns:sodipodi="http://sodipodi.sourceforge.net/DTD/sodipodi-0.dtd"
   xmlns:inkscape="http://www.inkscape.org/namespaces/inkscape"
   width="188.38121mm"
   height="188.3903mm"
   viewBox="0 0 188.3812 188.3903"
   version="1.1"
   id="svg8"
   inkscape:version="1.0.2 (e86c870879, 2021-01-15)"
   sodipodi:docname="11_1_blue.svg">
  <defs
     id="defs2" />
  <sodipodi:namedview
     id="base"
     pagecolor="#ffffff"
     bordercolor="#666666"
     borderopacity="1.0"
     inkscape:pageopacity="0.0"
     inkscape:pageshadow="2"
     inkscape:zoom="0.35"
     inkscape:cx="448.47499"
     inkscape:cy="971.54277"
     inkscape:document-units="mm"
     inkscape:current-layer="layer1"
     inkscape:document-rotation="0"
     showgrid="false"
     inkscape:window-width="2155"
     inkscape:window-height="1262"
     inkscape:window-x="138"
     inkscape:window-y="-11"
     inkscape:window-maximized="1" />
  <metadata
     id="metadata5">
    <rdf:RDF>
      <cc:Work
         rdf:about="">
        <dc:format>image/svg+xml</dc:format>
        <dc:type
           rdf:resource="http://purl.org/dc/dcmitype/StillImage" />
        <dc:title />
      </cc:Work>
    </rdf:RDF>
  </metadata>
  <g
     inkscape:label="Layer 1"
     inkscape:groupmode="layer"
     id="layer1"
     transform="translate(12.825672,622.93498)">
    <path
       style="fill:#bfd3de;fill-opacity:1;stroke:#ffffff;stroke-width:1.99549;stroke-linecap:round;stroke-linejoin:round;stroke-miterlimit:4;stroke-dasharray:none;stroke-dashoffset:0;stroke-opacity:1"
       d="m 136.13175,-604.12261 -27.28837,37.55908 a 46.759613,46.759651 35.999991 0 1 12.97946,14.46773 l 40.23707,-23.23067 a 93.185476,93.185524 35.999991 0 0 -25.92816,-28.79614 z"
       id="path884-6-8-0-8-37"
       inkscape:connector-curvature="0" />
    <path
       style="fill:#bfd3de;fill-opacity:1;stroke:#ffffff;stroke-width:1.99549;stroke-linecap:round;stroke-linejoin:round;stroke-miterlimit:4;stroke-dasharray:none;stroke-dashoffset:0;stroke-opacity:1"
       d="m 61.987567,-619.90088 9.652303,45.41113 a 46.759651,46.759614 77.999991 0 1 19.436587,0.0352 l 9.660123,-45.44633 a 93.185525,93.185477 77.999991 0 0 -38.749013,0 z"
       id="path884-6-8-0-8-8-7"
       inkscape:connector-curvature="0" />
    <path
       style="fill:#bfd3de;fill-opacity:1;stroke:#ffffff;stroke-width:1.99549;stroke-linecap:round;stroke-linejoin:round;stroke-miterlimit:4;stroke-dasharray:none;stroke-dashoffset:0;stroke-opacity:1"
       d="m 100.73275,-619.88327 -9.652512,45.4111 a 46.759614,46.759651 11.999991 0 1 17.741892,7.93773 l 27.30961,-37.58816 a 93.185477,93.185525 11.999991 0 0 -35.399,-15.76066 z"
       id="path884-6-8-0-8-7-6"
       inkscape:connector-curvature="0" />
    <path
       style="fill:#bfd3de;fill-opacity:1;stroke:#ffffff;stroke-width:1.99549;stroke-linecap:round;stroke-linejoin:round;stroke-miterlimit:4;stroke-dasharray:none;stroke-dashoffset:0;stroke-opacity:1"
       d="m 26.584883,-604.15787 27.288157,37.55917 a 46.759651,46.759614 53.999991 0 1 17.770566,-7.8734 l -9.65977,-45.44642 a 93.185525,93.185477 53.999991 0 0 -35.398953,15.76065 z"
       id="path884-6-8-0-8-84-7"
       inkscape:connector-curvature="0" />
    <path
       style="fill:#296c92;fill-opacity:1;stroke:#ffffff;stroke-width:1.99549;stroke-linecap:round;stroke-linejoin:round;stroke-miterlimit:4;stroke-dasharray:none;stroke-dashoffset:0;stroke-opacity:1"
       d="m 0.65667293,-575.36174 40.20581907,23.21292 a 46.759651,46.759614 29.999991 0 1 13.031755,-14.42066 l -27.309364,-37.58839 a 93.185525,93.185477 29.999991 0 0 -25.92821007,28.79613 z"
       id="path884-6-8-0-8-76-8"
       inkscape:connector-curvature="0" />
    <path
       style="fill:#296c92;fill-opacity:1;stroke:#ffffff;stroke-width:1.99549;stroke-linecap:round;stroke-linejoin:round;stroke-miterlimit:4;stroke-dasharray:none;stroke-dashoffset:0;stroke-opacity:1"
       d="m -11.317434,-538.50925 46.171262,4.85288 a 46.759651,46.759614 5.999991 0 1 6.039517,-18.47447 L 0.65648209,-575.36181 A 93.185525,93.185477 5.999991 0 0 -11.317629,-538.5093 Z"
       id="path884-6-8-0-8-81-7"
       inkscape:connector-curvature="0" />
    <path
       style="fill:#296c92;fill-opacity:1;stroke:#ffffff;stroke-width:1.99549;stroke-linecap:round;stroke-linejoin:round;stroke-miterlimit:4;stroke-dasharray:none;stroke-dashoffset:0;stroke-opacity:1"
       d="m -7.2671011,-499.9725 44.1534501,-14.34622 a 46.759614,46.759651 71.999991 0 1 -1.99666,-19.33379 l -46.207123,-4.85674 a 93.185477,93.185525 71.999991 0 0 4.0504284,38.53678 z"
       id="path884-6-8-0-8-9-2"
       inkscape:connector-curvature="0" />
    <path
       style="fill:#296c92;fill-opacity:1;stroke:#ffffff;stroke-width:1.99549;stroke-linecap:round;stroke-linejoin:round;stroke-miterlimit:4;stroke-dasharray:none;stroke-dashoffset:0;stroke-opacity:1"
       d="m 12.09022,-466.40934 34.50104,-31.06474 a 46.759614,46.759651 47.999991 0 1 -9.687768,-16.85018 l -44.1877459,14.35729 a 93.185477,93.185525 47.999991 0 0 19.3745699,33.55766 z"
       id="path884-6-8-0-8-2-6"
       inkscape:connector-curvature="0" />
    <path
       style="fill:#296c92;fill-opacity:1;stroke:#ffffff;stroke-width:1.99549;stroke-linecap:round;stroke-linejoin:round;stroke-miterlimit:4;stroke-dasharray:none;stroke-dashoffset:0;stroke-opacity:1"
       d="m 43.43884,-443.63327 18.883132,-42.41189 a 46.759614,46.759651 23.999991 0 1 -15.703848,-11.45302 l -34.527887,31.0888 a 93.185477,93.185525 23.999991 0 0 31.348607,22.7761 z"
       id="path884-6-8-0-8-6-9"
       inkscape:connector-curvature="0" />
    <path
       style="fill:#296c92;fill-opacity:1;stroke:#ffffff;stroke-width:1.99549;stroke-linecap:round;stroke-linejoin:round;stroke-miterlimit:4;stroke-dasharray:none;stroke-dashoffset:0;stroke-opacity:1"
       d="m 81.33376,-435.56044 7.8e-5,-46.42565 a 46.759651,46.759614 89.999991 0 1 -19.004523,-4.07552 l -18.897809,42.44478 a 93.185525,93.185477 89.999991 0 0 37.902262,8.05637 z"
       id="path884-6-8-0-8-1-9"
       inkscape:connector-curvature="0" />
    <path
       style="fill:#296c92;fill-opacity:1;stroke:#ffffff;stroke-width:1.99549;stroke-linecap:round;stroke-linejoin:round;stroke-miterlimit:4;stroke-dasharray:none;stroke-dashoffset:0;stroke-opacity:1"
       d="m 119.23599,-443.59878 -18.88294,-42.41198 a 46.759651,46.759614 65.999991 0 1 -19.019164,4.00667 l -1.69e-4,46.46167 a 93.185525,93.185477 65.999991 0 0 37.902273,-8.05637 z"
       id="path884-6-8-0-8-64-9"
       inkscape:connector-curvature="0" />
    <path
       style="fill:#296c92;fill-opacity:1;stroke:#ffffff;stroke-width:1.99549;stroke-linecap:round;stroke-linejoin:round;stroke-miterlimit:4;stroke-dasharray:none;stroke-dashoffset:0;stroke-opacity:1"
       d="m 150.59191,-466.35842 -34.50094,-31.06488 a 46.759651,46.759614 41.999991 0 1 -15.74521,11.39606 l 18.89752,42.44493 a 93.185525,93.185477 41.999991 0 0 31.34862,-22.77611 z"
       id="path884-6-8-0-8-3-3"
       inkscape:connector-curvature="0" />
    <path
       style="fill:#296c92;fill-opacity:1;stroke:#ffffff;stroke-width:1.99549;stroke-linecap:round;stroke-linejoin:round;stroke-miterlimit:4;stroke-dasharray:none;stroke-dashoffset:0;stroke-opacity:1"
       d="m 169.97979,-499.90398 -44.15339,-14.34638 a 46.759651,46.759614 17.999991 0 1 -9.74879,16.81497 l 34.52764,31.08906 a 93.185525,93.185477 17.999991 0 0 19.37454,-33.55765 z"
       id="path884-6-8-0-8-5-2"
       inkscape:connector-curvature="0" />
    <path
       style="fill:#296c92;fill-opacity:1;stroke:#ffffff;stroke-width:1.99549;stroke-linecap:round;stroke-linejoin:round;stroke-miterlimit:4;stroke-dasharray:none;stroke-dashoffset:0;stroke-opacity:1"
       d="m 174.04729,-538.43515 -46.17133,4.85274 a 46.759614,46.759651 83.999991 0 1 -2.06669,19.32643 l 44.18763,14.35761 a 93.185477,93.185525 83.999991 0 0 4.05039,-38.53678 z"
       id="path884-6-8-0-8-27-9"
       inkscape:connector-curvature="0" />
    <path
       style="fill:#296c92;fill-opacity:1;stroke:#ffffff;stroke-width:1.99549;stroke-linecap:round;stroke-linejoin:round;stroke-miterlimit:4;stroke-dasharray:none;stroke-dashoffset:0;stroke-opacity:1"
       d="m 162.05991,-575.32647 -40.20582,23.21277 a 46.759614,46.759651 59.999991 0 1 5.97275,18.49617 l 46.20717,-4.8564 a 93.185477,93.185525 59.999991 0 0 -11.9741,-36.85254 z"
       id="path884-6-8-0-8-38-5"
       inkscape:connector-curvature="0" />
  </g>
</svg>
