<?xml version="1.0" encoding="UTF-8" standalone="no"?>
<svg
   xmlns:dc="http://purl.org/dc/elements/1.1/"
   xmlns:cc="http://creativecommons.org/ns#"
   xmlns:rdf="http://www.w3.org/1999/02/22-rdf-syntax-ns#"
   xmlns:svg="http://www.w3.org/2000/svg"
   xmlns="http://www.w3.org/2000/svg"
   xmlns:sodipodi="http://sodipodi.sourceforge.net/DTD/sodipodi-0.dtd"
   xmlns:inkscape="http://www.inkscape.org/namespaces/inkscape"
   width="188.39835mm"
   height="188.36079mm"
   viewBox="0 0 188.39833 188.3608"
   version="1.1"
   id="svg8"
   inkscape:version="1.0.2 (e86c870879, 2021-01-15)"
   sodipodi:docname="11_14_blue.svg">
  <defs
     id="defs2" />
  <sodipodi:namedview
     id="base"
     pagecolor="#ffffff"
     bordercolor="#666666"
     borderopacity="1.0"
     inkscape:pageopacity="0.0"
     inkscape:pageshadow="2"
     inkscape:zoom="0.35"
     inkscape:cx="38.839969"
     inkscape:cy="590.26594"
     inkscape:document-units="mm"
     inkscape:current-layer="layer1"
     inkscape:document-rotation="0"
     showgrid="false"
     inkscape:window-width="2155"
     inkscape:window-height="1262"
     inkscape:window-x="138"
     inkscape:window-y="-11"
     inkscape:window-maximized="1" />
  <metadata
     id="metadata5">
    <rdf:RDF>
      <cc:Work
         rdf:about="">
        <dc:format>image/svg+xml</dc:format>
        <dc:type
           rdf:resource="http://purl.org/dc/dcmitype/StillImage" />
        <dc:title />
      </cc:Work>
    </rdf:RDF>
  </metadata>
  <g
     inkscape:label="Layer 1"
     inkscape:groupmode="layer"
     id="layer1"
     transform="translate(-95.556926,522.05547)">
    <path
       style="fill:#bfd3de;fill-opacity:1;stroke:#ffffff;stroke-width:1.99549;stroke-linecap:round;stroke-linejoin:round;stroke-miterlimit:4;stroke-dasharray:none;stroke-dashoffset:0;stroke-opacity:1"
       d="m 170.39255,-519.02136 9.65235,45.41114 a 46.759651,46.759613 77.999991 0 1 19.43658,0.0352 l 9.6601,-45.44632 a 93.185524,93.185476 77.999991 0 0 -38.74903,0 z"
       id="path884-6-8-0-8-965"
       inkscape:connector-curvature="0" />
    <path
       style="fill:#bfd3de;fill-opacity:1;stroke:#ffffff;stroke-width:1.99549;stroke-linecap:round;stroke-linejoin:round;stroke-miterlimit:4;stroke-dasharray:none;stroke-dashoffset:0;stroke-opacity:1"
       d="m 109.05487,-474.47922 40.2057,23.21292 a 46.759651,46.759614 29.999991 0 1 13.03177,-14.42065 l -27.30932,-37.5884 a 93.185525,93.185477 29.999991 0 0 -25.92815,28.79613 z"
       id="path884-6-8-0-8-8-6"
       inkscape:connector-curvature="0" />
    <path
       style="fill:#bfd3de;fill-opacity:1;stroke:#ffffff;stroke-width:1.99549;stroke-linecap:round;stroke-linejoin:round;stroke-miterlimit:4;stroke-dasharray:none;stroke-dashoffset:0;stroke-opacity:1"
       d="m 134.99354,-503.26072 27.28824,37.55917 a 46.759651,46.759614 53.999991 0 1 17.77052,-7.87341 l -9.65975,-45.44639 a 93.185525,93.185477 53.999991 0 0 -35.399,15.76065 z"
       id="path884-6-8-0-8-7-33"
       inkscape:connector-curvature="0" />
    <path
       style="fill:#bfd3de;fill-opacity:1;stroke:#ffffff;stroke-width:1.99549;stroke-linecap:round;stroke-linejoin:round;stroke-miterlimit:4;stroke-dasharray:none;stroke-dashoffset:0;stroke-opacity:1"
       d="m 97.065188,-437.63577 46.171242,4.85294 a 46.759651,46.759614 5.999991 0 1 6.03975,-18.47444 l -40.23691,-23.23098 a 93.185525,93.185477 5.999991 0 0 -11.974082,36.85248 z"
       id="path884-6-8-0-8-84-0"
       inkscape:connector-curvature="0" />
    <path
       style="fill:#296c92;fill-opacity:1;stroke:#ffffff;stroke-width:1.99549;stroke-linecap:round;stroke-linejoin:round;stroke-miterlimit:4;stroke-dasharray:none;stroke-dashoffset:0;stroke-opacity:1"
       d="m 101.11552,-399.09898 44.15351,-14.34627 a 46.759614,46.759651 71.999991 0 1 -1.9967,-19.33379 l -46.207142,-4.85673 a 93.185477,93.185525 71.999991 0 0 4.050332,38.53679 z"
       id="path884-6-8-0-8-76-46"
       inkscape:connector-curvature="0" />
    <path
       style="fill:#296c92;fill-opacity:1;stroke:#ffffff;stroke-width:1.99549;stroke-linecap:round;stroke-linejoin:round;stroke-miterlimit:4;stroke-dasharray:none;stroke-dashoffset:0;stroke-opacity:1"
       d="m 120.49002,-365.54135 34.501,-31.06473 a 46.759614,46.759651 47.999991 0 1 -9.68798,-16.85007 l -44.1877,14.35727 a 93.185477,93.185525 47.999991 0 0 19.37451,33.55763 z"
       id="path884-6-8-0-8-81-8"
       inkscape:connector-curvature="0" />
    <path
       style="fill:#296c92;fill-opacity:1;stroke:#ffffff;stroke-width:1.99549;stroke-linecap:round;stroke-linejoin:round;stroke-miterlimit:4;stroke-dasharray:none;stroke-dashoffset:0;stroke-opacity:1"
       d="m 151.83861,-342.76522 18.8831,-42.41191 a 46.759614,46.759651 23.999991 0 1 -15.70383,-11.45302 l -34.52786,31.0888 a 93.185477,93.185525 23.999991 0 0 31.34867,22.77608 z"
       id="path884-6-8-0-8-9-67"
       inkscape:connector-curvature="0" />
    <path
       style="fill:#296c92;fill-opacity:1;stroke:#ffffff;stroke-width:1.99549;stroke-linecap:round;stroke-linejoin:round;stroke-miterlimit:4;stroke-dasharray:none;stroke-dashoffset:0;stroke-opacity:1"
       d="m 189.73347,-334.69238 10e-5,-46.42564 a 46.759651,46.759614 89.999991 0 1 -19.0045,-4.07555 l -18.89783,42.4448 a 93.185525,93.185477 89.999991 0 0 37.90232,8.05634 z"
       id="path884-6-8-0-8-2-1"
       inkscape:connector-curvature="0" />
    <path
       style="fill:#296c92;fill-opacity:1;stroke:#ffffff;stroke-width:1.99549;stroke-linecap:round;stroke-linejoin:round;stroke-miterlimit:4;stroke-dasharray:none;stroke-dashoffset:0;stroke-opacity:1"
       d="m 227.63571,-342.74878 -18.8829,-42.41199 a 46.759651,46.759614 65.999991 0 1 -19.01917,4.00667 l -1.9e-4,46.46168 a 93.185525,93.185477 65.999991 0 0 37.90225,-8.05637 z"
       id="path884-6-8-0-8-6-48"
       inkscape:connector-curvature="0" />
    <path
       style="fill:#296c92;fill-opacity:1;stroke:#ffffff;stroke-width:1.99549;stroke-linecap:round;stroke-linejoin:round;stroke-miterlimit:4;stroke-dasharray:none;stroke-dashoffset:0;stroke-opacity:1"
       d="m 258.99164,-365.50841 -34.50092,-31.06488 a 46.759651,46.759614 41.999991 0 1 -15.74521,11.39605 l 18.89751,42.44492 a 93.185525,93.185477 41.999991 0 0 31.34862,-22.77611 z"
       id="path884-6-8-0-8-1-75"
       inkscape:connector-curvature="0" />
    <path
       style="fill:#296c92;fill-opacity:1;stroke:#ffffff;stroke-width:1.99549;stroke-linecap:round;stroke-linejoin:round;stroke-miterlimit:4;stroke-dasharray:none;stroke-dashoffset:0;stroke-opacity:1"
       d="m 278.37954,-399.05396 -44.1534,-14.34639 a 46.759651,46.759614 17.999991 0 1 -9.74877,16.81497 l 34.52764,31.08906 a 93.185525,93.185477 17.999991 0 0 19.37452,-33.55764 z"
       id="path884-6-8-0-8-64-6"
       inkscape:connector-curvature="0" />
    <path
       style="fill:#296c92;fill-opacity:1;stroke:#ffffff;stroke-width:1.99549;stroke-linecap:round;stroke-linejoin:round;stroke-miterlimit:4;stroke-dasharray:none;stroke-dashoffset:0;stroke-opacity:1"
       d="m 282.44703,-437.58512 -46.17134,4.85273 a 46.759614,46.759651 83.999991 0 1 -2.06667,19.32643 l 44.18763,14.3576 a 93.185477,93.185525 83.999991 0 0 4.05037,-38.53675 z"
       id="path884-6-8-0-8-3-93"
       inkscape:connector-curvature="0" />
    <path
       style="fill:#296c92;fill-opacity:1;stroke:#ffffff;stroke-width:1.99549;stroke-linecap:round;stroke-linejoin:round;stroke-miterlimit:4;stroke-dasharray:none;stroke-dashoffset:0;stroke-opacity:1"
       d="m 270.49084,-474.43948 -40.20582,23.21276 a 46.759614,46.759651 59.999991 0 1 5.97275,18.49617 l 46.20717,-4.8564 a 93.185477,93.185525 59.999991 0 0 -11.9741,-36.85253 z"
       id="path884-6-8-0-8-5-48"
       inkscape:connector-curvature="0" />
    <path
       style="fill:#296c92;fill-opacity:1;stroke:#ffffff;stroke-width:1.99549;stroke-linecap:round;stroke-linejoin:round;stroke-miterlimit:4;stroke-dasharray:none;stroke-dashoffset:0;stroke-opacity:1"
       d="m 244.5783,-503.2446 -27.28837,37.55909 a 46.759614,46.759651 35.999991 0 1 12.97946,14.46776 l 40.23707,-23.23069 A 93.185477,93.185525 35.999991 0 0 244.5783,-503.2446 Z"
       id="path884-6-8-0-8-27-79"
       inkscape:connector-curvature="0" />
    <path
       style="fill:#296c92;fill-opacity:1;stroke:#ffffff;stroke-width:1.99549;stroke-linecap:round;stroke-linejoin:round;stroke-miterlimit:4;stroke-dasharray:none;stroke-dashoffset:0;stroke-opacity:1"
       d="m 209.14158,-519.02136 -9.6525,45.41113 a 46.759614,46.759651 11.999991 0 1 17.74189,7.93773 l 27.30962,-37.58819 a 93.185477,93.185525 11.999991 0 0 -35.39901,-15.76067 z"
       id="path884-6-8-0-8-38-15"
       inkscape:connector-curvature="0" />
  </g>
</svg>
