<?xml version="1.0" encoding="UTF-8" standalone="no"?>
<svg
   xmlns:dc="http://purl.org/dc/elements/1.1/"
   xmlns:cc="http://creativecommons.org/ns#"
   xmlns:rdf="http://www.w3.org/1999/02/22-rdf-syntax-ns#"
   xmlns:svg="http://www.w3.org/2000/svg"
   xmlns="http://www.w3.org/2000/svg"
   xmlns:sodipodi="http://sodipodi.sourceforge.net/DTD/sodipodi-0.dtd"
   xmlns:inkscape="http://www.inkscape.org/namespaces/inkscape"
   width="188.37155mm"
   height="188.41249mm"
   viewBox="0 0 188.37154 188.41249"
   version="1.1"
   id="svg8"
   inkscape:version="1.0.2 (e86c870879, 2021-01-15)"
   sodipodi:docname="11_2_blue.svg">
  <defs
     id="defs2" />
  <sodipodi:namedview
     id="base"
     pagecolor="#ffffff"
     bordercolor="#666666"
     borderopacity="1.0"
     inkscape:pageopacity="0.0"
     inkscape:pageshadow="2"
     inkscape:zoom="0.35"
     inkscape:cx="273.02415"
     inkscape:cy="704.74071"
     inkscape:document-units="mm"
     inkscape:current-layer="layer1"
     inkscape:document-rotation="0"
     showgrid="false"
     inkscape:window-width="2155"
     inkscape:window-height="1262"
     inkscape:window-x="138"
     inkscape:window-y="-11"
     inkscape:window-maximized="1" />
  <metadata
     id="metadata5">
    <rdf:RDF>
      <cc:Work
         rdf:about="">
        <dc:format>image/svg+xml</dc:format>
        <dc:type
           rdf:resource="http://purl.org/dc/dcmitype/StillImage" />
        <dc:title />
      </cc:Work>
    </rdf:RDF>
  </metadata>
  <g
     inkscape:label="Layer 1"
     inkscape:groupmode="layer"
     id="layer1"
     transform="translate(-33.595694,552.3436)">
    <path
       style="fill:#bfd3de;fill-opacity:1;stroke:#ffffff;stroke-width:1.99549;stroke-linecap:round;stroke-linejoin:round;stroke-miterlimit:4;stroke-dasharray:none;stroke-dashoffset:0;stroke-opacity:1"
       d="m 208.48489,-504.72057 -40.20582,23.21275 a 46.759613,46.759651 59.999991 0 1 5.97277,18.49616 l 46.20716,-4.85639 a 93.185476,93.185524 59.999991 0 0 -11.97411,-36.85252 z"
       id="path884-6-8-0-8-96"
       inkscape:connector-curvature="0" />
    <path
       style="fill:#bfd3de;fill-opacity:1;stroke:#ffffff;stroke-width:1.99549;stroke-linecap:round;stroke-linejoin:round;stroke-miterlimit:4;stroke-dasharray:none;stroke-dashoffset:0;stroke-opacity:1"
       d="m 147.16841,-549.29189 -9.65255,45.41108 a 46.759614,46.759651 11.999991 0 1 17.74189,7.93773 l 27.30965,-37.58816 a 93.185477,93.185525 11.999991 0 0 -35.39899,-15.76065 z"
       id="path884-6-8-0-8-8-4"
       inkscape:connector-curvature="0" />
    <path
       style="fill:#bfd3de;fill-opacity:1;stroke:#ffffff;stroke-width:1.99549;stroke-linecap:round;stroke-linejoin:round;stroke-miterlimit:4;stroke-dasharray:none;stroke-dashoffset:0;stroke-opacity:1"
       d="m 182.55674,-533.51671 -27.28837,37.55907 a 46.759614,46.759651 35.999991 0 1 12.97945,14.46776 l 40.23706,-23.23067 a 93.185477,93.185525 35.999991 0 0 -25.92816,-28.79615 z"
       id="path884-6-8-0-8-7-60"
       inkscape:connector-curvature="0" />
    <path
       style="fill:#bfd3de;fill-opacity:1;stroke:#ffffff;stroke-width:1.99549;stroke-linecap:round;stroke-linejoin:round;stroke-miterlimit:4;stroke-dasharray:none;stroke-dashoffset:0;stroke-opacity:1"
       d="m 108.42319,-549.3095 9.65228,45.4111 a 46.759651,46.759614 77.999991 0 1 19.43662,0.0352 l 9.66008,-45.44634 a 93.185525,93.185477 77.999991 0 0 -38.74898,1e-5 z"
       id="path884-6-8-0-8-84-6"
       inkscape:connector-curvature="0" />
    <path
       style="fill:#296c92;fill-opacity:1;stroke:#ffffff;stroke-width:1.99549;stroke-linecap:round;stroke-linejoin:round;stroke-miterlimit:4;stroke-dasharray:none;stroke-dashoffset:0;stroke-opacity:1"
       d="m 73.024151,-533.54888 27.288299,37.55924 a 46.759651,46.759614 53.999991 0 1 17.77051,-7.87344 l -9.65977,-45.44642 a 93.185525,93.185477 53.999991 0 0 -35.399039,15.76062 z"
       id="path884-6-8-0-8-76-83"
       inkscape:connector-curvature="0" />
    <path
       style="fill:#296c92;fill-opacity:1;stroke:#ffffff;stroke-width:1.99549;stroke-linecap:round;stroke-linejoin:round;stroke-miterlimit:4;stroke-dasharray:none;stroke-dashoffset:0;stroke-opacity:1"
       d="m 47.095998,-504.75276 40.205704,23.21287 a 46.759651,46.759614 29.999991 0 1 13.031618,-14.42077 l -27.309318,-37.58836 a 93.185525,93.185477 29.999991 0 0 -25.92816,28.79613 z"
       id="path884-6-8-0-8-81-4"
       inkscape:connector-curvature="0" />
    <path
       style="fill:#296c92;fill-opacity:1;stroke:#ffffff;stroke-width:1.99549;stroke-linecap:round;stroke-linejoin:round;stroke-miterlimit:4;stroke-dasharray:none;stroke-dashoffset:0;stroke-opacity:1"
       d="m 35.121855,-467.90027 46.171317,4.8529 a 46.759651,46.759614 5.999991 0 1 6.039721,-18.47441 L 47.095998,-504.75276 A 93.185525,93.185477 5.999991 0 0 35.12193,-467.9002 Z"
       id="path884-6-8-0-8-9-1"
       inkscape:connector-curvature="0" />
    <path
       style="fill:#296c92;fill-opacity:1;stroke:#ffffff;stroke-width:1.99549;stroke-linecap:round;stroke-linejoin:round;stroke-miterlimit:4;stroke-dasharray:none;stroke-dashoffset:0;stroke-opacity:1"
       d="m 39.154282,-429.36547 44.153436,-14.34621 a 46.759614,46.759651 71.999991 0 1 -1.996633,-19.33377 l -46.20715,-4.85674 a 93.185477,93.185525 71.999991 0 0 4.050421,38.53679 z"
       id="path884-6-8-0-8-2-4"
       inkscape:connector-curvature="0" />
    <path
       style="fill:#296c92;fill-opacity:1;stroke:#ffffff;stroke-width:1.99549;stroke-linecap:round;stroke-linejoin:round;stroke-miterlimit:4;stroke-dasharray:none;stroke-dashoffset:0;stroke-opacity:1"
       d="m 58.52881,-395.80786 34.501068,-31.06473 a 46.759614,46.759651 47.999991 0 1 -9.687818,-16.85018 l -44.187749,14.35728 a 93.185477,93.185525 47.999991 0 0 19.374506,33.55762 z"
       id="path884-6-8-0-8-6-98"
       inkscape:connector-curvature="0" />
    <path
       style="fill:#296c92;fill-opacity:1;stroke:#ffffff;stroke-width:1.99549;stroke-linecap:round;stroke-linejoin:round;stroke-miterlimit:4;stroke-dasharray:none;stroke-dashoffset:0;stroke-opacity:1"
       d="m 89.864023,-373.01971 18.883087,-42.4119 a 46.759614,46.759651 23.999991 0 1 -15.703834,-11.45301 l -34.527857,31.0888 a 93.185477,93.185525 23.999991 0 0 31.348619,22.7761 z"
       id="path884-6-8-0-8-1-8"
       inkscape:connector-curvature="0" />
    <path
       style="fill:#296c92;fill-opacity:1;stroke:#ffffff;stroke-width:1.99549;stroke-linecap:round;stroke-linejoin:round;stroke-miterlimit:4;stroke-dasharray:none;stroke-dashoffset:0;stroke-opacity:1"
       d="m 127.75893,-364.94687 7e-5,-46.42565 a 46.759651,46.759614 89.999991 0 1 -19.00453,-4.07552 l -18.897816,42.44478 a 93.185525,93.185477 89.999991 0 0 37.902266,8.05638 z"
       id="path884-6-8-0-8-64-2"
       inkscape:connector-curvature="0" />
    <path
       style="fill:#296c92;fill-opacity:1;stroke:#ffffff;stroke-width:1.99549;stroke-linecap:round;stroke-linejoin:round;stroke-miterlimit:4;stroke-dasharray:none;stroke-dashoffset:0;stroke-opacity:1"
       d="m 165.66115,-372.98523 -18.88294,-42.41198 a 46.759651,46.759614 65.999991 0 1 -19.01917,4.00667 l -1.5e-4,46.46168 a 93.185525,93.185477 65.999991 0 0 37.90226,-8.05638 z"
       id="path884-6-8-0-8-3-9"
       inkscape:connector-curvature="0" />
    <path
       style="fill:#296c92;fill-opacity:1;stroke:#ffffff;stroke-width:1.99549;stroke-linecap:round;stroke-linejoin:round;stroke-miterlimit:4;stroke-dasharray:none;stroke-dashoffset:0;stroke-opacity:1"
       d="m 197.01708,-395.74487 -34.50093,-31.06488 a 46.759651,46.759614 41.999991 0 1 -15.74523,11.39606 l 18.89751,42.44492 a 93.185525,93.185477 41.999991 0 0 31.34865,-22.7761 z"
       id="path884-6-8-0-8-5-1"
       inkscape:connector-curvature="0" />
    <path
       style="fill:#296c92;fill-opacity:1;stroke:#ffffff;stroke-width:1.99549;stroke-linecap:round;stroke-linejoin:round;stroke-miterlimit:4;stroke-dasharray:none;stroke-dashoffset:0;stroke-opacity:1"
       d="m 216.40496,-429.29044 -44.15339,-14.34638 a 46.759651,46.759614 17.999991 0 1 -9.74879,16.81498 l 34.52764,31.08906 a 93.185525,93.185477 17.999991 0 0 19.37454,-33.55766 z"
       id="path884-6-8-0-8-27-8"
       inkscape:connector-curvature="0" />
    <path
       style="fill:#296c92;fill-opacity:1;stroke:#ffffff;stroke-width:1.99549;stroke-linecap:round;stroke-linejoin:round;stroke-miterlimit:4;stroke-dasharray:none;stroke-dashoffset:0;stroke-opacity:1"
       d="m 220.459,-467.86805 -46.17134,4.85275 a 46.759614,46.759651 83.999991 0 1 -2.06668,19.32642 l 44.18763,14.35761 a 93.185477,93.185525 83.999991 0 0 4.05039,-38.53678 z"
       id="path884-6-8-0-8-38-1"
       inkscape:connector-curvature="0" />
  </g>
</svg>
