<?xml version="1.0" encoding="UTF-8" standalone="no"?>
<svg
   xmlns:dc="http://purl.org/dc/elements/1.1/"
   xmlns:cc="http://creativecommons.org/ns#"
   xmlns:rdf="http://www.w3.org/1999/02/22-rdf-syntax-ns#"
   xmlns:svg="http://www.w3.org/2000/svg"
   xmlns="http://www.w3.org/2000/svg"
   xmlns:sodipodi="http://sodipodi.sourceforge.net/DTD/sodipodi-0.dtd"
   xmlns:inkscape="http://www.inkscape.org/namespaces/inkscape"
   width="188.35735mm"
   height="188.41089mm"
   viewBox="0 0 188.35733 188.41089"
   version="1.1"
   id="svg8"
   inkscape:version="1.0.2 (e86c870879, 2021-01-15)"
   sodipodi:docname="11_3_blue.svg">
  <defs
     id="defs2" />
  <sodipodi:namedview
     id="base"
     pagecolor="#ffffff"
     bordercolor="#666666"
     borderopacity="1.0"
     inkscape:pageopacity="0.0"
     inkscape:pageshadow="2"
     inkscape:zoom="0.35"
     inkscape:cx="311.83218"
     inkscape:cy="906.50705"
     inkscape:document-units="mm"
     inkscape:current-layer="layer1"
     inkscape:document-rotation="0"
     showgrid="false"
     inkscape:window-width="2155"
     inkscape:window-height="1262"
     inkscape:window-x="138"
     inkscape:window-y="-11"
     inkscape:window-maximized="1" />
  <metadata
     id="metadata5">
    <rdf:RDF>
      <cc:Work
         rdf:about="">
        <dc:format>image/svg+xml</dc:format>
        <dc:type
           rdf:resource="http://purl.org/dc/dcmitype/StillImage" />
        <dc:title />
      </cc:Work>
    </rdf:RDF>
  </metadata>
  <g
     inkscape:label="Layer 1"
     inkscape:groupmode="layer"
     id="layer1"
     transform="translate(-23.327738,605.72761)">
    <path
       style="fill:#bfd3de;fill-opacity:1;stroke:#ffffff;stroke-width:1.99549;stroke-linecap:round;stroke-linejoin:round;stroke-miterlimit:4;stroke-dasharray:none;stroke-dashoffset:0;stroke-opacity:1"
       d="m 210.17684,-521.26071 -46.17132,4.85272 a 46.759613,46.759651 83.999991 0 1 -2.06667,19.32643 l 44.18761,14.35761 a 93.185476,93.185524 83.999991 0 0 4.05038,-38.53676 z"
       id="path884-6-8-0-8-4"
       inkscape:connector-curvature="0" />
    <path
       style="fill:#bfd3de;fill-opacity:1;stroke:#ffffff;stroke-width:1.99549;stroke-linecap:round;stroke-linejoin:round;stroke-miterlimit:4;stroke-dasharray:none;stroke-dashoffset:0;stroke-opacity:1"
       d="m 172.29023,-586.91829 -27.28839,37.55903 a 46.759614,46.759651 35.999991 0 1 12.97946,14.46775 l 40.23708,-23.23065 a 93.185477,93.185525 35.999991 0 0 -25.92815,-28.79613 z"
       id="path884-6-8-0-8-8-9"
       inkscape:connector-curvature="0" />
    <path
       style="fill:#bfd3de;fill-opacity:1;stroke:#ffffff;stroke-width:1.99549;stroke-linecap:round;stroke-linejoin:round;stroke-miterlimit:4;stroke-dasharray:none;stroke-dashoffset:0;stroke-opacity:1"
       d="m 198.20274,-558.11323 -40.20582,23.21275 a 46.759614,46.759651 59.999991 0 1 5.97276,18.49617 l 46.20714,-4.85639 a 93.185477,93.185525 59.999991 0 0 -11.9741,-36.85252 z"
       id="path884-6-8-0-8-7-4"
       inkscape:connector-curvature="0" />
    <path
       style="fill:#bfd3de;fill-opacity:1;stroke:#ffffff;stroke-width:1.99549;stroke-linecap:round;stroke-linejoin:round;stroke-miterlimit:4;stroke-dasharray:none;stroke-dashoffset:0;stroke-opacity:1"
       d="m 136.90187,-602.69348 -9.65255,45.41104 a 46.759614,46.759651 11.999991 0 1 17.7419,7.93777 l 27.30962,-37.5882 a 93.185477,93.185525 11.999991 0 0 -35.39897,-15.76061 z"
       id="path884-6-8-0-8-84-3"
       inkscape:connector-curvature="0" />
    <path
       style="fill:#296c92;fill-opacity:1;stroke:#ffffff;stroke-width:1.99549;stroke-linecap:round;stroke-linejoin:round;stroke-miterlimit:4;stroke-dasharray:none;stroke-dashoffset:0;stroke-opacity:1"
       d="m 98.152826,-602.69353 9.652384,45.41122 a 46.759651,46.759614 77.999991 0 1 19.43658,0.0352 l 9.66008,-45.44635 a 93.185525,93.185477 77.999991 0 0 -38.749044,-5e-5 z"
       id="path884-6-8-0-8-76-3"
       inkscape:connector-curvature="0" />
    <path
       style="fill:#296c92;fill-opacity:1;stroke:#ffffff;stroke-width:1.99549;stroke-linecap:round;stroke-linejoin:round;stroke-miterlimit:4;stroke-dasharray:none;stroke-dashoffset:0;stroke-opacity:1"
       d="m 62.753841,-586.93289 27.288214,37.55914 a 46.759651,46.759614 53.999991 0 1 17.770435,-7.8736 l -9.659745,-45.44636 a 93.185525,93.185477 53.999991 0 0 -35.398994,15.76064 z"
       id="path884-6-8-0-8-81-6"
       inkscape:connector-curvature="0" />
    <path
       style="fill:#296c92;fill-opacity:1;stroke:#ffffff;stroke-width:1.99549;stroke-linecap:round;stroke-linejoin:round;stroke-miterlimit:4;stroke-dasharray:none;stroke-dashoffset:0;stroke-opacity:1"
       d="m 36.82566,-558.13679 40.205744,23.21291 a 46.759651,46.759614 29.999991 0 1 13.031778,-14.42064 L 62.753841,-586.93289 A 93.185525,93.185477 29.999991 0 0 36.8257,-558.1367 Z"
       id="path884-6-8-0-8-9-3"
       inkscape:connector-curvature="0" />
    <path
       style="fill:#296c92;fill-opacity:1;stroke:#ffffff;stroke-width:1.99549;stroke-linecap:round;stroke-linejoin:round;stroke-miterlimit:4;stroke-dasharray:none;stroke-dashoffset:0;stroke-opacity:1"
       d="m 24.835948,-521.29336 46.171303,4.8529 a 46.759651,46.759614 5.999991 0 1 6.039738,-18.47438 l -40.236917,-23.231 a 93.185525,93.185477 5.999991 0 0 -11.974084,36.85257 z"
       id="path884-6-8-0-8-2-43"
       inkscape:connector-curvature="0" />
    <path
       style="fill:#296c92;fill-opacity:1;stroke:#ffffff;stroke-width:1.99549;stroke-linecap:round;stroke-linejoin:round;stroke-miterlimit:4;stroke-dasharray:none;stroke-dashoffset:0;stroke-opacity:1"
       d="m 28.886353,-482.75663 44.153457,-14.34619 a 46.759614,46.759651 71.999991 0 1 -1.996676,-19.3338 l -46.207148,-4.85675 a 93.185477,93.185525 71.999991 0 0 4.050376,38.53673 z"
       id="path884-6-8-0-8-6-1"
       inkscape:connector-curvature="0" />
    <path
       style="fill:#296c92;fill-opacity:1;stroke:#ffffff;stroke-width:1.99549;stroke-linecap:round;stroke-linejoin:round;stroke-miterlimit:4;stroke-dasharray:none;stroke-dashoffset:0;stroke-opacity:1"
       d="m 48.243717,-449.19344 34.501031,-31.06476 a 46.759614,46.759651 47.999991 0 1 -9.687804,-16.85017 l -44.187723,14.35729 a 93.185477,93.185525 47.999991 0 0 19.374515,33.55764 z"
       id="path884-6-8-0-8-1-4"
       inkscape:connector-curvature="0" />
    <path
       style="fill:#296c92;fill-opacity:1;stroke:#ffffff;stroke-width:1.99549;stroke-linecap:round;stroke-linejoin:round;stroke-miterlimit:4;stroke-dasharray:none;stroke-dashoffset:0;stroke-opacity:1"
       d="m 79.578916,-426.40529 18.883081,-42.41192 a 46.759614,46.759651 23.999991 0 1 -15.703835,-11.453 l -34.527866,31.0888 a 93.185477,93.185525 23.999991 0 0 31.348617,22.77611 z"
       id="path884-6-8-0-8-64-4"
       inkscape:connector-curvature="0" />
    <path
       style="fill:#296c92;fill-opacity:1;stroke:#ffffff;stroke-width:1.99549;stroke-linecap:round;stroke-linejoin:round;stroke-miterlimit:4;stroke-dasharray:none;stroke-dashoffset:0;stroke-opacity:1"
       d="m 117.47382,-418.33248 8e-5,-46.42565 a 46.759651,46.759614 89.999991 0 1 -19.004533,-4.07552 l -18.897813,42.44479 a 93.185525,93.185477 89.999991 0 0 37.902266,8.05637 z"
       id="path884-6-8-0-8-3-1"
       inkscape:connector-curvature="0" />
    <path
       style="fill:#296c92;fill-opacity:1;stroke:#ffffff;stroke-width:1.99549;stroke-linecap:round;stroke-linejoin:round;stroke-miterlimit:4;stroke-dasharray:none;stroke-dashoffset:0;stroke-opacity:1"
       d="m 155.37606,-426.37084 -18.88295,-42.41196 a 46.759651,46.759614 65.999991 0 1 -19.01917,4.00665 l -1.7e-4,46.46168 a 93.185525,93.185477 65.999991 0 0 37.90229,-8.05637 z"
       id="path884-6-8-0-8-5-8"
       inkscape:connector-curvature="0" />
    <path
       style="fill:#296c92;fill-opacity:1;stroke:#ffffff;stroke-width:1.99549;stroke-linecap:round;stroke-linejoin:round;stroke-miterlimit:4;stroke-dasharray:none;stroke-dashoffset:0;stroke-opacity:1"
       d="m 186.73198,-449.13048 -34.50093,-31.06486 a 46.759651,46.759614 41.999991 0 1 -15.74523,11.39605 l 18.89752,42.44493 a 93.185525,93.185477 41.999991 0 0 31.34864,-22.77612 z"
       id="path884-6-8-0-8-27-7"
       inkscape:connector-curvature="0" />
    <path
       style="fill:#296c92;fill-opacity:1;stroke:#ffffff;stroke-width:1.99549;stroke-linecap:round;stroke-linejoin:round;stroke-miterlimit:4;stroke-dasharray:none;stroke-dashoffset:0;stroke-opacity:1"
       d="m 206.12646,-482.72395 -44.1534,-14.34637 a 46.759651,46.759614 17.999991 0 1 -9.74878,16.81497 l 34.52764,31.08906 a 93.185525,93.185477 17.999991 0 0 19.37454,-33.55766 z"
       id="path884-6-8-0-8-38-7"
       inkscape:connector-curvature="0" />
  </g>
</svg>
