<?xml version="1.0" encoding="UTF-8" standalone="no"?>
<svg
   xmlns:dc="http://purl.org/dc/elements/1.1/"
   xmlns:cc="http://creativecommons.org/ns#"
   xmlns:rdf="http://www.w3.org/1999/02/22-rdf-syntax-ns#"
   xmlns:svg="http://www.w3.org/2000/svg"
   xmlns="http://www.w3.org/2000/svg"
   xmlns:sodipodi="http://sodipodi.sourceforge.net/DTD/sodipodi-0.dtd"
   xmlns:inkscape="http://www.inkscape.org/namespaces/inkscape"
   width="188.36288mm"
   height="188.40364mm"
   viewBox="0 0 188.36287 188.40364"
   version="1.1"
   id="svg8"
   inkscape:version="1.0.2 (e86c870879, 2021-01-15)"
   sodipodi:docname="11_4_blue.svg">
  <defs
     id="defs2" />
  <sodipodi:namedview
     id="base"
     pagecolor="#ffffff"
     bordercolor="#666666"
     borderopacity="1.0"
     inkscape:pageopacity="0.0"
     inkscape:pageshadow="2"
     inkscape:zoom="0.35"
     inkscape:cx="355.96133"
     inkscape:cy="356.03838"
     inkscape:document-units="mm"
     inkscape:current-layer="layer1"
     inkscape:document-rotation="0"
     showgrid="false"
     inkscape:window-width="2155"
     inkscape:window-height="1262"
     inkscape:window-x="138"
     inkscape:window-y="-11"
     inkscape:window-maximized="1" />
  <metadata
     id="metadata5">
    <rdf:RDF>
      <cc:Work
         rdf:about="">
        <dc:format>image/svg+xml</dc:format>
        <dc:type
           rdf:resource="http://purl.org/dc/dcmitype/StillImage" />
        <dc:title />
      </cc:Work>
    </rdf:RDF>
  </metadata>
  <g
     inkscape:label="Layer 1"
     inkscape:groupmode="layer"
     id="layer1"
     transform="translate(-11.6519,460.08277)">
    <path
       style="fill:#bfd3de;fill-opacity:1;stroke:#ffffff;stroke-width:1.99549;stroke-linecap:round;stroke-linejoin:round;stroke-miterlimit:4;stroke-dasharray:none;stroke-dashoffset:0;stroke-opacity:1"
       d="M 194.45617,-337.09161 150.30279,-351.438 a 46.759651,46.759613 17.999991 0 1 -9.74876,16.81498 l 34.52763,31.08905 a 93.185524,93.185476 17.999991 0 0 19.37451,-33.55764 z"
       id="path884-6-8-0-8-57"
       inkscape:connector-curvature="0" />
    <path
       style="fill:#bfd3de;fill-opacity:1;stroke:#ffffff;stroke-width:1.99549;stroke-linecap:round;stroke-linejoin:round;stroke-miterlimit:4;stroke-dasharray:none;stroke-dashoffset:0;stroke-opacity:1"
       d="m 186.55039,-412.48267 -40.20583,23.2127 a 46.759614,46.759651 59.999991 0 1 5.97276,18.49616 l 46.20717,-4.85636 a 93.185477,93.185525 59.999991 0 0 -11.9741,-36.8525 z"
       id="path884-6-8-0-8-8-0"
       inkscape:connector-curvature="0" />
    <path
       style="fill:#bfd3de;fill-opacity:1;stroke:#ffffff;stroke-width:1.99549;stroke-linecap:round;stroke-linejoin:round;stroke-miterlimit:4;stroke-dasharray:none;stroke-dashoffset:0;stroke-opacity:1"
       d="m 198.50656,-375.62837 -46.17132,4.85272 a 46.759614,46.759651 83.999991 0 1 -2.06668,19.32643 l 44.18759,14.35761 a 93.185477,93.185525 83.999991 0 0 4.05039,-38.53676 z"
       id="path884-6-8-0-8-7-9"
       inkscape:connector-curvature="0" />
    <path
       style="fill:#bfd3de;fill-opacity:1;stroke:#ffffff;stroke-width:1.99549;stroke-linecap:round;stroke-linejoin:round;stroke-miterlimit:4;stroke-dasharray:none;stroke-dashoffset:0;stroke-opacity:1"
       d="m 160.63786,-441.28777 -27.28839,37.559 a 46.759614,46.759651 35.999991 0 1 12.97946,14.4678 l 40.23707,-23.2307 a 93.185477,93.185525 35.999991 0 0 -25.92814,-28.7961 z"
       id="path884-6-8-0-8-84-63"
       inkscape:connector-curvature="0" />
    <path
       style="fill:#296c92;fill-opacity:1;stroke:#ffffff;stroke-width:1.99549;stroke-linecap:round;stroke-linejoin:round;stroke-miterlimit:4;stroke-dasharray:none;stroke-dashoffset:0;stroke-opacity:1"
       d="m 125.23886,-457.04847 -9.65252,45.4112 a 46.759614,46.759651 11.999991 0 1 17.7419,7.9377 l 27.30962,-37.5882 a 93.185477,93.185525 11.999991 0 0 -35.399,-15.7607 z"
       id="path884-6-8-0-8-76-5"
       inkscape:connector-curvature="0" />
    <path
       style="fill:#296c92;fill-opacity:1;stroke:#ffffff;stroke-width:1.99549;stroke-linecap:round;stroke-linejoin:round;stroke-miterlimit:4;stroke-dasharray:none;stroke-dashoffset:0;stroke-opacity:1"
       d="m 86.48985,-457.04847 9.652343,45.4111 a 46.759651,46.759614 77.999991 0 1 19.436577,0.035 l 9.66009,-45.4463 a 93.185525,93.185477 77.999991 0 0 -38.749019,0 z"
       id="path884-6-8-0-8-81-49"
       inkscape:connector-curvature="0" />
    <path
       style="fill:#296c92;fill-opacity:1;stroke:#ffffff;stroke-width:1.99549;stroke-linecap:round;stroke-linejoin:round;stroke-miterlimit:4;stroke-dasharray:none;stroke-dashoffset:0;stroke-opacity:1"
       d="m 51.090848,-441.28787 27.288233,37.5592 a 46.759651,46.759614 53.999991 0 1 17.770523,-7.8734 l -9.659754,-45.4464 a 93.185525,93.185477 53.999991 0 0 -35.399002,15.7607 z"
       id="path884-6-8-0-8-9-4"
       inkscape:connector-curvature="0" />
    <path
       style="fill:#296c92;fill-opacity:1;stroke:#ffffff;stroke-width:1.99549;stroke-linecap:round;stroke-linejoin:round;stroke-miterlimit:4;stroke-dasharray:none;stroke-dashoffset:0;stroke-opacity:1"
       d="m 25.152128,-412.50637 40.205732,23.2129 a 46.759651,46.759614 29.999991 0 1 13.031783,-14.4206 l -27.309356,-37.5884 a 93.185525,93.185477 29.999991 0 0 -25.92816,28.7962 z"
       id="path884-6-8-0-8-2-5"
       inkscape:connector-curvature="0" />
    <path
       style="fill:#296c92;fill-opacity:1;stroke:#ffffff;stroke-width:1.99549;stroke-linecap:round;stroke-linejoin:round;stroke-miterlimit:4;stroke-dasharray:none;stroke-dashoffset:0;stroke-opacity:1"
       d="m 13.178058,-375.65387 46.171311,4.85293 a 46.759651,46.759614 5.999991 0 1 6.03971,-18.47442 l -40.236911,-23.23101 a 93.185525,93.185477 5.999991 0 0 -11.974101,36.8525 z"
       id="path884-6-8-0-8-6-96"
       inkscape:connector-curvature="0" />
    <path
       style="fill:#296c92;fill-opacity:1;stroke:#ffffff;stroke-width:1.99549;stroke-linecap:round;stroke-linejoin:round;stroke-miterlimit:4;stroke-dasharray:none;stroke-dashoffset:0;stroke-opacity:1"
       d="m 17.210509,-337.11902 44.153437,-14.34624 a 46.759614,46.759651 71.999991 0 1 -1.996667,-19.33378 l -46.207132,-4.85672 a 93.185477,93.185525 71.999991 0 0 4.050382,38.53674 z"
       id="path884-6-8-0-8-1-6"
       inkscape:connector-curvature="0" />
    <path
       style="fill:#296c92;fill-opacity:1;stroke:#ffffff;stroke-width:1.99549;stroke-linecap:round;stroke-linejoin:round;stroke-miterlimit:4;stroke-dasharray:none;stroke-dashoffset:0;stroke-opacity:1"
       d="m 36.567862,-303.55584 34.501033,-31.06477 a 46.759614,46.759651 47.999991 0 1 -9.687808,-16.85017 l -44.18773,14.35729 a 93.185477,93.185525 47.999991 0 0 19.374506,33.55764 z"
       id="path884-6-8-0-8-64-23"
       inkscape:connector-curvature="0" />
    <path
       style="fill:#296c92;fill-opacity:1;stroke:#ffffff;stroke-width:1.99549;stroke-linecap:round;stroke-linejoin:round;stroke-miterlimit:4;stroke-dasharray:none;stroke-dashoffset:0;stroke-opacity:1"
       d="m 67.903072,-280.76771 18.883086,-42.41191 a 46.759614,46.759651 23.999991 0 1 -15.703842,-11.45301 l -34.527864,31.08881 a 93.185477,93.185525 23.999991 0 0 31.348621,22.7761 z"
       id="path884-6-8-0-8-3-18"
       inkscape:connector-curvature="0" />
    <path
       style="fill:#296c92;fill-opacity:1;stroke:#ffffff;stroke-width:1.99549;stroke-linecap:round;stroke-linejoin:round;stroke-miterlimit:4;stroke-dasharray:none;stroke-dashoffset:0;stroke-opacity:1"
       d="m 105.79798,-272.69489 8e-5,-46.42564 a 46.759651,46.759614 89.999991 0 1 -19.004534,-4.07553 l -18.897822,42.44478 a 93.185525,93.185477 89.999991 0 0 37.902276,8.05639 z"
       id="path884-6-8-0-8-5-7"
       inkscape:connector-curvature="0" />
    <path
       style="fill:#296c92;fill-opacity:1;stroke:#ffffff;stroke-width:1.99549;stroke-linecap:round;stroke-linejoin:round;stroke-miterlimit:4;stroke-dasharray:none;stroke-dashoffset:0;stroke-opacity:1"
       d="m 143.70022,-280.73325 -18.88294,-42.41196 a 46.759651,46.759614 65.999991 0 1 -19.01918,4.00666 l -1.7e-4,46.46167 a 93.185525,93.185477 65.999991 0 0 37.90229,-8.05637 z"
       id="path884-6-8-0-8-27-3"
       inkscape:connector-curvature="0" />
    <path
       style="fill:#296c92;fill-opacity:1;stroke:#ffffff;stroke-width:1.99549;stroke-linecap:round;stroke-linejoin:round;stroke-miterlimit:4;stroke-dasharray:none;stroke-dashoffset:0;stroke-opacity:1"
       d="m 175.08166,-303.53397 -34.50095,-31.06486 a 46.759651,46.759614 41.999991 0 1 -15.74521,11.39605 l 18.89751,42.44492 a 93.185525,93.185477 41.999991 0 0 31.34865,-22.77611 z"
       id="path884-6-8-0-8-38-13"
       inkscape:connector-curvature="0" />
  </g>
</svg>
