<?xml version="1.0" encoding="UTF-8" standalone="no"?>
<svg
   xmlns:dc="http://purl.org/dc/elements/1.1/"
   xmlns:cc="http://creativecommons.org/ns#"
   xmlns:rdf="http://www.w3.org/1999/02/22-rdf-syntax-ns#"
   xmlns:svg="http://www.w3.org/2000/svg"
   xmlns="http://www.w3.org/2000/svg"
   xmlns:sodipodi="http://sodipodi.sourceforge.net/DTD/sodipodi-0.dtd"
   xmlns:inkscape="http://www.inkscape.org/namespaces/inkscape"
   width="188.38725mm"
   height="188.37335mm"
   viewBox="0 0 188.38724 188.37335"
   version="1.1"
   id="svg8"
   inkscape:version="1.0.2 (e86c870879, 2021-01-15)"
   sodipodi:docname="11_5_blue.svg">
  <defs
     id="defs2" />
  <sodipodi:namedview
     id="base"
     pagecolor="#ffffff"
     bordercolor="#666666"
     borderopacity="1.0"
     inkscape:pageopacity="0.0"
     inkscape:pageshadow="2"
     inkscape:zoom="0.35"
     inkscape:cx="783.39729"
     inkscape:cy="1106.3052"
     inkscape:document-units="mm"
     inkscape:current-layer="layer1"
     inkscape:document-rotation="0"
     showgrid="false"
     inkscape:window-width="2155"
     inkscape:window-height="1262"
     inkscape:window-x="138"
     inkscape:window-y="-11"
     inkscape:window-maximized="1" />
  <metadata
     id="metadata5">
    <rdf:RDF>
      <cc:Work
         rdf:about="">
        <dc:format>image/svg+xml</dc:format>
        <dc:type
           rdf:resource="http://purl.org/dc/dcmitype/StillImage" />
        <dc:title />
      </cc:Work>
    </rdf:RDF>
  </metadata>
  <g
     inkscape:label="Layer 1"
     inkscape:groupmode="layer"
     id="layer1"
     transform="translate(101.44053,658.59088)">
    <path
       style="fill:#bfd3de;fill-opacity:1;stroke:#ffffff;stroke-width:1.99549;stroke-linecap:round;stroke-linejoin:round;stroke-miterlimit:4;stroke-dasharray:none;stroke-dashoffset:0;stroke-opacity:1"
       d="m 61.99646,-502.05689 -34.50092,-31.06488 a 46.759651,46.759613 41.999991 0 1 -15.745203,11.39607 l 18.897499,42.44492 a 93.185524,93.185476 41.999991 0 0 31.348624,-22.77611 z"
       id="path884-6-8-0-8-82"
       inkscape:connector-curvature="0" />
    <path
       style="fill:#bfd3de;fill-opacity:1;stroke:#ffffff;stroke-width:1.99549;stroke-linecap:round;stroke-linejoin:round;stroke-miterlimit:4;stroke-dasharray:none;stroke-dashoffset:0;stroke-opacity:1"
       d="m 85.438471,-574.14563 -46.171308,4.85267 a 46.759614,46.759651 83.999991 0 1 -2.066678,19.32643 l 44.187605,14.35765 a 93.185477,93.185525 83.999991 0 0 4.050381,-38.53675 z"
       id="path884-6-8-0-8-8-92"
       inkscape:connector-curvature="0" />
    <path
       style="fill:#bfd3de;fill-opacity:1;stroke:#ffffff;stroke-width:1.99549;stroke-linecap:round;stroke-linejoin:round;stroke-miterlimit:4;stroke-dasharray:none;stroke-dashoffset:0;stroke-opacity:1"
       d="m 81.370984,-535.61453 -44.153376,-14.34639 a 46.759651,46.759614 17.999991 0 1 -9.748779,16.81498 l 34.527614,31.08904 a 93.185525,93.185477 17.999991 0 0 19.374523,-33.55764 z"
       id="path884-6-8-0-8-7-98"
       inkscape:connector-curvature="0" />
    <path
       style="fill:#bfd3de;fill-opacity:1;stroke:#ffffff;stroke-width:1.99549;stroke-linecap:round;stroke-linejoin:round;stroke-miterlimit:4;stroke-dasharray:none;stroke-dashoffset:0;stroke-opacity:1"
       d="m 73.482285,-610.99997 -40.2058,23.21267 a 46.759614,46.759651 59.999991 0 1 5.972739,18.49621 l 46.207172,-4.85641 a 93.185477,93.185525 59.999991 0 0 -11.974111,-36.85247 z"
       id="path884-6-8-0-8-84-4"
       inkscape:connector-curvature="0" />
    <path
       style="fill:#296c92;fill-opacity:1;stroke:#ffffff;stroke-width:1.99549;stroke-linecap:round;stroke-linejoin:round;stroke-miterlimit:4;stroke-dasharray:none;stroke-dashoffset:0;stroke-opacity:1"
       d="M 47.554146,-639.79615 20.265734,-602.237 a 46.759614,46.759651 35.999991 0 1 12.979472,14.46774 l 40.237079,-23.23071 a 93.185477,93.185525 35.999991 0 0 -25.928139,-28.79618 z"
       id="path884-6-8-0-8-76-4"
       inkscape:connector-curvature="0" />
    <path
       style="fill:#296c92;fill-opacity:1;stroke:#ffffff;stroke-width:1.99549;stroke-linecap:round;stroke-linejoin:round;stroke-miterlimit:4;stroke-dasharray:none;stroke-dashoffset:0;stroke-opacity:1"
       d="m 12.155165,-655.5568 -9.6525036,45.41107 a 46.759614,46.759651 11.999991 0 1 17.7419626,7.93754 l 27.309605,-37.58815 a 93.185477,93.185525 11.999991 0 0 -35.39899,-15.76065 z"
       id="path884-6-8-0-8-81-0"
       inkscape:connector-curvature="0" />
    <path
       style="fill:#296c92;fill-opacity:1;stroke:#ffffff;stroke-width:1.99549;stroke-linecap:round;stroke-linejoin:round;stroke-miterlimit:4;stroke-dasharray:none;stroke-dashoffset:0;stroke-opacity:1"
       d="m -26.593847,-655.55684 9.652338,45.41116 a 46.759651,46.759614 77.999991 0 1 19.4365836,0.0352 l 9.6600904,-45.44633 a 93.185525,93.185477 77.999991 0 0 -38.749053,5e-5 z"
       id="path884-6-8-0-8-9-9"
       inkscape:connector-curvature="0" />
    <path
       style="fill:#296c92;fill-opacity:1;stroke:#ffffff;stroke-width:1.99549;stroke-linecap:round;stroke-linejoin:round;stroke-miterlimit:4;stroke-dasharray:none;stroke-dashoffset:0;stroke-opacity:1"
       d="m -61.996535,-639.81387 27.288224,37.55919 a 46.759651,46.759614 53.999991 0 1 17.770515,-7.87337 l -9.659759,-45.44643 a 93.185525,93.185477 53.999991 0 0 -35.399021,15.76071 z"
       id="path884-6-8-0-8-2-2"
       inkscape:connector-curvature="0" />
    <path
       style="fill:#296c92;fill-opacity:1;stroke:#ffffff;stroke-width:1.99549;stroke-linecap:round;stroke-linejoin:round;stroke-miterlimit:4;stroke-dasharray:none;stroke-dashoffset:0;stroke-opacity:1"
       d="m -87.924655,-611.01773 40.205727,23.21294 a 46.759651,46.759614 29.999991 0 1 13.031774,-14.42065 l -27.309347,-37.58841 a 93.185525,93.185477 29.999991 0 0 -25.928146,28.79613 z"
       id="path884-6-8-0-8-6-5"
       inkscape:connector-curvature="0" />
    <path
       style="fill:#296c92;fill-opacity:1;stroke:#ffffff;stroke-width:1.99549;stroke-linecap:round;stroke-linejoin:round;stroke-miterlimit:4;stroke-dasharray:none;stroke-dashoffset:0;stroke-opacity:1"
       d="m -99.914365,-574.17424 46.171314,4.85288 a 46.759651,46.759614 5.999991 0 1 6.03971,-18.47441 l -40.236906,-23.23097 a 93.185525,93.185477 5.999991 0 0 -11.974101,36.85251 z"
       id="path884-6-8-0-8-1-7"
       inkscape:connector-curvature="0" />
    <path
       style="fill:#296c92;fill-opacity:1;stroke:#ffffff;stroke-width:1.99549;stroke-linecap:round;stroke-linejoin:round;stroke-miterlimit:4;stroke-dasharray:none;stroke-dashoffset:0;stroke-opacity:1"
       d="m -95.881918,-535.6394 44.153442,-14.34625 a 46.759614,46.759651 71.999991 0 1 -1.996672,-19.33378 l -46.207134,-4.85674 a 93.185477,93.185525 71.999991 0 0 4.050369,38.53676 z"
       id="path884-6-8-0-8-64-45"
       inkscape:connector-curvature="0" />
    <path
       style="fill:#296c92;fill-opacity:1;stroke:#ffffff;stroke-width:1.99549;stroke-linecap:round;stroke-linejoin:round;stroke-miterlimit:4;stroke-dasharray:none;stroke-dashoffset:0;stroke-opacity:1"
       d="m -76.524548,-502.07623 34.501037,-31.06477 a 46.759614,46.759651 47.999991 0 1 -9.687814,-16.85017 l -44.187733,14.3573 a 93.185477,93.185525 47.999991 0 0 19.374515,33.55763 z"
       id="path884-6-8-0-8-3-6"
       inkscape:connector-curvature="0" />
    <path
       style="fill:#296c92;fill-opacity:1;stroke:#ffffff;stroke-width:1.99549;stroke-linecap:round;stroke-linejoin:round;stroke-miterlimit:4;stroke-dasharray:none;stroke-dashoffset:0;stroke-opacity:1"
       d="M -45.189334,-479.28809 -26.306258,-521.7 a 46.759614,46.759651 23.999991 0 1 -15.703834,-11.45302 l -34.527869,31.0888 a 93.185477,93.185525 23.999991 0 0 31.348627,22.77613 z"
       id="path884-6-8-0-8-5-5"
       inkscape:connector-curvature="0" />
    <path
       style="fill:#296c92;fill-opacity:1;stroke:#ffffff;stroke-width:1.99549;stroke-linecap:round;stroke-linejoin:round;stroke-miterlimit:4;stroke-dasharray:none;stroke-dashoffset:0;stroke-opacity:1"
       d="m -7.2944191,-471.21527 6.96e-5,-46.42564 a 46.759651,46.759614 89.999991 0 1 -19.0045365,-4.07554 l -18.897821,42.44479 a 93.185525,93.185477 89.999991 0 0 37.9022879,8.05639 z"
       id="path884-6-8-0-8-27-97"
       inkscape:connector-curvature="0" />
    <path
       style="fill:#296c92;fill-opacity:1;stroke:#ffffff;stroke-width:1.99549;stroke-linecap:round;stroke-linejoin:round;stroke-miterlimit:4;stroke-dasharray:none;stroke-dashoffset:0;stroke-opacity:1"
       d="m 30.647836,-479.28078 -18.882963,-42.41197 a 46.759651,46.759614 65.999991 0 1 -19.0191636,4.00665 l -1.713e-4,46.46168 a 93.185525,93.185477 65.999991 0 0 37.9022979,-8.05636 z"
       id="path884-6-8-0-8-38-78"
       inkscape:connector-curvature="0" />
  </g>
</svg>
