<?xml version="1.0" encoding="UTF-8" standalone="no"?>
<svg
   xmlns:dc="http://purl.org/dc/elements/1.1/"
   xmlns:cc="http://creativecommons.org/ns#"
   xmlns:rdf="http://www.w3.org/1999/02/22-rdf-syntax-ns#"
   xmlns:svg="http://www.w3.org/2000/svg"
   xmlns="http://www.w3.org/2000/svg"
   xmlns:sodipodi="http://sodipodi.sourceforge.net/DTD/sodipodi-0.dtd"
   xmlns:inkscape="http://www.inkscape.org/namespaces/inkscape"
   width="188.4082mm"
   height="188.36794mm"
   viewBox="0 0 188.40819 188.36793"
   version="1.1"
   id="svg8"
   inkscape:version="1.0.2 (e86c870879, 2021-01-15)"
   sodipodi:docname="11_6_blue.svg">
  <defs
     id="defs2" />
  <sodipodi:namedview
     id="base"
     pagecolor="#ffffff"
     bordercolor="#666666"
     borderopacity="1.0"
     inkscape:pageopacity="0.0"
     inkscape:pageshadow="2"
     inkscape:zoom="0.35"
     inkscape:cx="696.58716"
     inkscape:cy="993.7047"
     inkscape:document-units="mm"
     inkscape:current-layer="layer1"
     inkscape:document-rotation="0"
     showgrid="false"
     inkscape:window-width="2155"
     inkscape:window-height="1262"
     inkscape:window-x="138"
     inkscape:window-y="-11"
     inkscape:window-maximized="1" />
  <metadata
     id="metadata5">
    <rdf:RDF>
      <cc:Work
         rdf:about="">
        <dc:format>image/svg+xml</dc:format>
        <dc:type
           rdf:resource="http://purl.org/dc/dcmitype/StillImage" />
        <dc:title />
      </cc:Work>
    </rdf:RDF>
  </metadata>
  <g
     inkscape:label="Layer 1"
     inkscape:groupmode="layer"
     id="layer1"
     transform="translate(78.472015,628.79865)">
    <path
       style="fill:#bfd3de;fill-opacity:1;stroke:#ffffff;stroke-width:1.99549;stroke-linecap:round;stroke-linejoin:round;stroke-miterlimit:4;stroke-dasharray:none;stroke-dashoffset:0;stroke-opacity:1"
       d="M 53.623978,-449.48484 34.741042,-491.8968 a 46.759651,46.759613 65.999991 0 1 -19.019159,4.00667 l -1.76e-4,46.46167 a 93.185524,93.185476 65.999991 0 0 37.902271,-8.05638 z"
       id="path884-6-8-0-8-841"
       inkscape:connector-curvature="0" />
    <path
       style="fill:#bfd3de;fill-opacity:1;stroke:#ffffff;stroke-width:1.99549;stroke-linecap:round;stroke-linejoin:round;stroke-miterlimit:4;stroke-dasharray:none;stroke-dashoffset:0;stroke-opacity:1"
       d="m 104.36045,-505.80645 -44.153347,-14.34643 a 46.759651,46.759614 17.999991 0 1 -9.748773,16.81498 l 34.527607,31.08908 a 93.185525,93.185477 17.999991 0 0 19.374513,-33.55763 z"
       id="path884-6-8-0-8-8-8"
       inkscape:connector-curvature="0" />
    <path
       style="fill:#bfd3de;fill-opacity:1;stroke:#ffffff;stroke-width:1.99549;stroke-linecap:round;stroke-linejoin:round;stroke-miterlimit:4;stroke-dasharray:none;stroke-dashoffset:0;stroke-opacity:1"
       d="m 84.972608,-472.26094 -34.500914,-31.06488 a 46.759651,46.759614 41.999991 0 1 -15.745222,11.39607 l 18.897494,42.44489 a 93.185525,93.185477 41.999991 0 0 31.34863,-22.7761 z"
       id="path884-6-8-0-8-7-3"
       inkscape:connector-curvature="0" />
    <path
       style="fill:#bfd3de;fill-opacity:1;stroke:#ffffff;stroke-width:1.99549;stroke-linecap:round;stroke-linejoin:round;stroke-miterlimit:4;stroke-dasharray:none;stroke-dashoffset:0;stroke-opacity:1"
       d="m 108.42794,-544.33758 -46.171268,4.85265 a 46.759614,46.759651 83.999991 0 1 -2.066719,19.32646 l 44.187637,14.3576 a 93.185477,93.185525 83.999991 0 0 4.05035,-38.53671 z"
       id="path884-6-8-0-8-84-2"
       inkscape:connector-curvature="0" />
    <path
       style="fill:#296c92;fill-opacity:1;stroke:#ffffff;stroke-width:1.99549;stroke-linecap:round;stroke-linejoin:round;stroke-miterlimit:4;stroke-dasharray:none;stroke-dashoffset:0;stroke-opacity:1"
       d="m 96.453871,-581.19013 -40.20589,23.2128 a 46.759614,46.759651 59.999991 0 1 5.97278,18.49616 l 46.207179,-4.85641 a 93.185477,93.185525 59.999991 0 0 -11.974069,-36.85255 z"
       id="path884-6-8-0-8-76-9"
       inkscape:connector-curvature="0" />
    <path
       style="fill:#296c92;fill-opacity:1;stroke:#ffffff;stroke-width:1.99549;stroke-linecap:round;stroke-linejoin:round;stroke-miterlimit:4;stroke-dasharray:none;stroke-dashoffset:0;stroke-opacity:1"
       d="m 70.525726,-609.98626 -27.288347,37.55904 a 46.759614,46.759651 35.999991 0 1 12.979601,14.46761 l 40.237041,-23.23066 A 93.185477,93.185525 35.999991 0 0 70.52587,-609.98641 Z"
       id="path884-6-8-0-8-81-67"
       inkscape:connector-curvature="0" />
    <path
       style="fill:#296c92;fill-opacity:1;stroke:#ffffff;stroke-width:1.99549;stroke-linecap:round;stroke-linejoin:round;stroke-miterlimit:4;stroke-dasharray:none;stroke-dashoffset:0;stroke-opacity:1"
       d="m 35.126759,-625.74695 -9.652534,45.41112 a 46.759614,46.759651 11.999991 0 1 17.741882,7.93774 l 27.309619,-37.58817 a 93.185477,93.185525 11.999991 0 0 -35.399043,-15.76062 z"
       id="path884-6-8-0-8-9-5"
       inkscape:connector-curvature="0" />
    <path
       style="fill:#296c92;fill-opacity:1;stroke:#ffffff;stroke-width:1.99549;stroke-linecap:round;stroke-linejoin:round;stroke-miterlimit:4;stroke-dasharray:none;stroke-dashoffset:0;stroke-opacity:1"
       d="m -3.6184511,-625.76459 9.6523347,45.41114 a 46.759651,46.759614 77.999991 0 1 19.4365634,0.0352 l 9.660097,-45.44636 a 93.185525,93.185477 77.999991 0 0 -38.7490701,4e-5 z"
       id="path884-6-8-0-8-2-0"
       inkscape:connector-curvature="0" />
    <path
       style="fill:#296c92;fill-opacity:1;stroke:#ffffff;stroke-width:1.99549;stroke-linecap:round;stroke-linejoin:round;stroke-miterlimit:4;stroke-dasharray:none;stroke-dashoffset:0;stroke-opacity:1"
       d="m -39.017413,-610.00393 27.288207,37.55922 a 46.759651,46.759614 53.999991 0 1 17.7705263,-7.87342 l -9.6597479,-45.44643 a 93.185525,93.185477 53.999991 0 0 -35.3989794,15.76064 z"
       id="path884-6-8-0-8-6-19"
       inkscape:connector-curvature="0" />
    <path
       style="fill:#296c92;fill-opacity:1;stroke:#ffffff;stroke-width:1.99549;stroke-linecap:round;stroke-linejoin:round;stroke-miterlimit:4;stroke-dasharray:none;stroke-dashoffset:0;stroke-opacity:1"
       d="m -64.956154,-581.22238 40.20575,23.21289 a 46.759651,46.759614 29.999991 0 1 13.031768,-14.42064 l -27.309355,-37.58837 a 93.185525,93.185477 29.999991 0 0 -25.928151,28.79614 z"
       id="path884-6-8-0-8-1-0"
       inkscape:connector-curvature="0" />
    <path
       style="fill:#296c92;fill-opacity:1;stroke:#ffffff;stroke-width:1.99549;stroke-linecap:round;stroke-linejoin:round;stroke-miterlimit:4;stroke-dasharray:none;stroke-dashoffset:0;stroke-opacity:1"
       d="m -76.945861,-544.37891 46.171321,4.85287 a 46.759651,46.759614 5.999991 0 1 6.039706,-18.4744 l -40.236905,-23.23099 a 93.185525,93.185477 5.999991 0 0 -11.974114,36.85251 z"
       id="path884-6-8-0-8-64-456"
       inkscape:connector-curvature="0" />
    <path
       style="fill:#296c92;fill-opacity:1;stroke:#ffffff;stroke-width:1.99549;stroke-linecap:round;stroke-linejoin:round;stroke-miterlimit:4;stroke-dasharray:none;stroke-dashoffset:0;stroke-opacity:1"
       d="m -72.913395,-505.84408 44.153446,-14.34624 a 46.759614,46.759651 71.999991 0 1 -1.996676,-19.33379 l -46.207142,-4.85672 a 93.185477,93.185525 71.999991 0 0 4.050381,38.53675 z"
       id="path884-6-8-0-8-3-7"
       inkscape:connector-curvature="0" />
    <path
       style="fill:#296c92;fill-opacity:1;stroke:#ffffff;stroke-width:1.99549;stroke-linecap:round;stroke-linejoin:round;stroke-miterlimit:4;stroke-dasharray:none;stroke-dashoffset:0;stroke-opacity:1"
       d="m -53.556023,-472.2809 34.501025,-31.06476 a 46.759614,46.759651 47.999991 0 1 -9.687803,-16.85018 l -44.187733,14.35728 a 93.185477,93.185525 47.999991 0 0 19.374511,33.55766 z"
       id="path884-6-8-0-8-5-3"
       inkscape:connector-curvature="0" />
    <path
       style="fill:#296c92;fill-opacity:1;stroke:#ffffff;stroke-width:1.99549;stroke-linecap:round;stroke-linejoin:round;stroke-miterlimit:4;stroke-dasharray:none;stroke-dashoffset:0;stroke-opacity:1"
       d="m -22.220808,-449.49276 18.8830725,-42.4119 a 46.759614,46.759651 23.999991 0 1 -15.7038385,-11.45303 l -34.527868,31.0888 a 93.185477,93.185525 23.999991 0 0 31.348634,22.77613 z"
       id="path884-6-8-0-8-27-2"
       inkscape:connector-curvature="0" />
    <path
       style="fill:#296c92;fill-opacity:1;stroke:#ffffff;stroke-width:1.99549;stroke-linecap:round;stroke-linejoin:round;stroke-miterlimit:4;stroke-dasharray:none;stroke-dashoffset:0;stroke-opacity:1"
       d="m 15.721707,-441.42846 5.7e-5,-46.42566 a 46.759651,46.759614 89.999991 0 1 -19.0045258,-4.07553 l -18.8978232,42.44479 a 93.185525,93.185477 89.999991 0 0 37.902292,8.0564 z"
       id="path884-6-8-0-8-38-2"
       inkscape:connector-curvature="0" />
  </g>
</svg>
