<?xml version="1.0" encoding="UTF-8" standalone="no"?>
<svg
   xmlns:dc="http://purl.org/dc/elements/1.1/"
   xmlns:cc="http://creativecommons.org/ns#"
   xmlns:rdf="http://www.w3.org/1999/02/22-rdf-syntax-ns#"
   xmlns:svg="http://www.w3.org/2000/svg"
   xmlns="http://www.w3.org/2000/svg"
   xmlns:sodipodi="http://sodipodi.sourceforge.net/DTD/sodipodi-0.dtd"
   xmlns:inkscape="http://www.inkscape.org/namespaces/inkscape"
   width="188.40509mm"
   height="188.35396mm"
   viewBox="0 0 188.40508 188.35395"
   version="1.1"
   id="svg8"
   inkscape:version="1.0.2 (e86c870879, 2021-01-15)"
   sodipodi:docname="11_7_blue.svg">
  <defs
     id="defs2" />
  <sodipodi:namedview
     id="base"
     pagecolor="#ffffff"
     bordercolor="#666666"
     borderopacity="1.0"
     inkscape:pageopacity="0.0"
     inkscape:pageshadow="2"
     inkscape:zoom="0.35"
     inkscape:cx="778.34256"
     inkscape:cy="1032.5063"
     inkscape:document-units="mm"
     inkscape:current-layer="layer1"
     inkscape:document-rotation="0"
     showgrid="false"
     inkscape:window-width="2155"
     inkscape:window-height="1262"
     inkscape:window-x="138"
     inkscape:window-y="-11"
     inkscape:window-maximized="1" />
  <metadata
     id="metadata5">
    <rdf:RDF>
      <cc:Work
         rdf:about="">
        <dc:format>image/svg+xml</dc:format>
        <dc:type
           rdf:resource="http://purl.org/dc/dcmitype/StillImage" />
        <dc:title />
      </cc:Work>
    </rdf:RDF>
  </metadata>
  <g
     inkscape:label="Layer 1"
     inkscape:groupmode="layer"
     id="layer1"
     transform="translate(100.10313,639.06491)">
    <path
       style="fill:#bfd3de;fill-opacity:1;stroke:#ffffff;stroke-width:1.99549;stroke-linecap:round;stroke-linejoin:round;stroke-miterlimit:4;stroke-dasharray:none;stroke-dashoffset:0;stroke-opacity:1"
       d="m -5.9027004,-451.70869 7.88e-5,-46.42564 a 46.759651,46.759613 89.999991 0 1 -19.0045294,-4.07551 l -18.897821,42.44477 a 93.185524,93.185476 89.999991 0 0 37.9022716,8.05638 z"
       id="path884-6-8-0-8-828"
       inkscape:connector-curvature="0" />
    <path
       style="fill:#bfd3de;fill-opacity:1;stroke:#ffffff;stroke-width:1.99549;stroke-linecap:round;stroke-linejoin:round;stroke-miterlimit:4;stroke-dasharray:none;stroke-dashoffset:0;stroke-opacity:1"
       d="m 63.355436,-482.52466 -34.500872,-31.0649 a 46.759651,46.759614 41.999991 0 1 -15.745216,11.39606 l 18.897472,42.44493 a 93.185525,93.185477 41.999991 0 0 31.348616,-22.77609 z"
       id="path884-6-8-0-8-8-1"
       inkscape:connector-curvature="0" />
    <path
       style="fill:#bfd3de;fill-opacity:1;stroke:#ffffff;stroke-width:1.99549;stroke-linecap:round;stroke-linejoin:round;stroke-miterlimit:4;stroke-dasharray:none;stroke-dashoffset:0;stroke-opacity:1"
       d="m 31.999572,-459.76506 -18.882929,-42.41196 a 46.759651,46.759614 65.999991 0 1 -19.0191729,4.00666 l -1.747e-4,46.46165 a 93.185525,93.185477 65.999991 0 0 37.9022726,-8.05637 z"
       id="path884-6-8-0-8-7-0"
       inkscape:connector-curvature="0" />
    <path
       style="fill:#bfd3de;fill-opacity:1;stroke:#ffffff;stroke-width:1.99549;stroke-linecap:round;stroke-linejoin:round;stroke-miterlimit:4;stroke-dasharray:none;stroke-dashoffset:0;stroke-opacity:1"
       d="m 82.743296,-516.07021 -44.153305,-14.34642 a 46.759651,46.759614 17.999991 0 1 -9.748822,16.81499 l 34.527649,31.08905 a 93.185525,93.185477 17.999991 0 0 19.374478,-33.55762 z"
       id="path884-6-8-0-8-84-1"
       inkscape:connector-curvature="0" />
    <path
       style="fill:#296c92;fill-opacity:1;stroke:#ffffff;stroke-width:1.99549;stroke-linecap:round;stroke-linejoin:round;stroke-miterlimit:4;stroke-dasharray:none;stroke-dashoffset:0;stroke-opacity:1"
       d="m 86.793723,-554.60698 -46.171405,4.85274 a 46.759614,46.759651 83.999991 0 1 -2.066661,19.32643 l 44.187639,14.3576 a 93.185477,93.185525 83.999991 0 0 4.050427,-38.53677 z"
       id="path884-6-8-0-8-76-7"
       inkscape:connector-curvature="0" />
    <path
       style="fill:#296c92;fill-opacity:1;stroke:#ffffff;stroke-width:1.99549;stroke-linecap:round;stroke-linejoin:round;stroke-miterlimit:4;stroke-dasharray:none;stroke-dashoffset:0;stroke-opacity:1"
       d="m 74.819624,-591.45948 -40.205786,23.21273 a 46.759614,46.759651 59.999991 0 1 5.972949,18.4961 l 46.207127,-4.85639 a 93.185477,93.185525 59.999991 0 0 -11.974101,-36.85251 z"
       id="path884-6-8-0-8-81-2"
       inkscape:connector-curvature="0" />
    <path
       style="fill:#296c92;fill-opacity:1;stroke:#ffffff;stroke-width:1.99549;stroke-linecap:round;stroke-linejoin:round;stroke-miterlimit:4;stroke-dasharray:none;stroke-dashoffset:0;stroke-opacity:1"
       d="m 48.891505,-620.25564 -27.288395,37.55909 a 46.759614,46.759651 35.999991 0 1 12.979448,14.46775 l 40.237066,-23.23068 A 93.185477,93.185525 35.999991 0 0 48.891409,-620.2556 Z"
       id="path884-6-8-0-8-9-28"
       inkscape:connector-curvature="0" />
    <path
       style="fill:#296c92;fill-opacity:1;stroke:#ffffff;stroke-width:1.99549;stroke-linecap:round;stroke-linejoin:round;stroke-miterlimit:4;stroke-dasharray:none;stroke-dashoffset:0;stroke-opacity:1"
       d="m 13.503173,-636.03085 -9.6525315,45.4111 a 46.759614,46.759651 11.999991 0 1 17.7418535,7.93775 l 27.309636,-37.58819 a 93.185477,93.185525 11.999991 0 0 -35.399054,-15.76063 z"
       id="path884-6-8-0-8-2-68"
       inkscape:connector-curvature="0" />
    <path
       style="fill:#296c92;fill-opacity:1;stroke:#ffffff;stroke-width:1.99549;stroke-linecap:round;stroke-linejoin:round;stroke-miterlimit:4;stroke-dasharray:none;stroke-dashoffset:0;stroke-opacity:1"
       d="m -25.245829,-636.03082 9.652308,45.41116 a 46.759651,46.759614 77.999991 0 1 19.4365932,0.0352 l 9.6601088,-45.44635 a 93.185525,93.185477 77.999991 0 0 -38.749008,0 z"
       id="path884-6-8-0-8-6-8"
       inkscape:connector-curvature="0" />
    <path
       style="fill:#296c92;fill-opacity:1;stroke:#ffffff;stroke-width:1.99549;stroke-linecap:round;stroke-linejoin:round;stroke-miterlimit:4;stroke-dasharray:none;stroke-dashoffset:0;stroke-opacity:1"
       d="m -60.648557,-620.28781 27.288246,37.55918 a 46.759651,46.759614 53.999991 0 1 17.770515,-7.87341 l -9.659768,-45.4464 a 93.185525,93.185477 53.999991 0 0 -35.398989,15.76065 z"
       id="path884-6-8-0-8-1-3"
       inkscape:connector-curvature="0" />
    <path
       style="fill:#296c92;fill-opacity:1;stroke:#ffffff;stroke-width:1.99549;stroke-linecap:round;stroke-linejoin:round;stroke-miterlimit:4;stroke-dasharray:none;stroke-dashoffset:0;stroke-opacity:1"
       d="m -86.587289,-591.50628 40.205758,23.21289 a 46.759651,46.759614 29.999991 0 1 13.031766,-14.42064 l -27.30935,-37.58838 a 93.185525,93.185477 29.999991 0 0 -25.928164,28.79613 z"
       id="path884-6-8-0-8-64-7"
       inkscape:connector-curvature="0" />
    <path
       style="fill:#296c92;fill-opacity:1;stroke:#ffffff;stroke-width:1.99549;stroke-linecap:round;stroke-linejoin:round;stroke-miterlimit:4;stroke-dasharray:none;stroke-dashoffset:0;stroke-opacity:1"
       d="m -98.576977,-554.6628 46.171323,4.85288 a 46.759651,46.759614 5.999991 0 1 6.039705,-18.47442 l -40.236916,-23.23098 a 93.185525,93.185477 5.999991 0 0 -11.974102,36.85251 z"
       id="path884-6-8-0-8-3-65"
       inkscape:connector-curvature="0" />
    <path
       style="fill:#296c92;fill-opacity:1;stroke:#ffffff;stroke-width:1.99549;stroke-linecap:round;stroke-linejoin:round;stroke-miterlimit:4;stroke-dasharray:none;stroke-dashoffset:0;stroke-opacity:1"
       d="m -94.544512,-516.12796 44.153433,-14.34625 a 46.759614,46.759651 71.999991 0 1 -1.996663,-19.33379 l -46.207137,-4.85673 a 93.185477,93.185525 71.999991 0 0 4.050367,38.53677 z"
       id="path884-6-8-0-8-5-84"
       inkscape:connector-curvature="0" />
    <path
       style="fill:#296c92;fill-opacity:1;stroke:#ffffff;stroke-width:1.99549;stroke-linecap:round;stroke-linejoin:round;stroke-miterlimit:4;stroke-dasharray:none;stroke-dashoffset:0;stroke-opacity:1"
       d="m -75.187141,-482.56478 34.501021,-31.06476 a 46.759614,46.759651 47.999991 0 1 -9.687803,-16.85019 l -44.187734,14.35728 a 93.185477,93.185525 47.999991 0 0 19.374516,33.55767 z"
       id="path884-6-8-0-8-27-6"
       inkscape:connector-curvature="0" />
    <path
       style="fill:#296c92;fill-opacity:1;stroke:#ffffff;stroke-width:1.99549;stroke-linecap:round;stroke-linejoin:round;stroke-miterlimit:4;stroke-dasharray:none;stroke-dashoffset:0;stroke-opacity:1"
       d="m -43.804972,-459.76507 18.883067,-42.41192 a 46.759614,46.759651 23.999991 0 1 -15.703832,-11.45302 l -34.527869,31.0888 a 93.185477,93.185525 23.999991 0 0 31.348634,22.77614 z"
       id="path884-6-8-0-8-38-9"
       inkscape:connector-curvature="0" />
  </g>
</svg>
