<?xml version="1.0" encoding="UTF-8" standalone="no"?>
<svg
   xmlns:dc="http://purl.org/dc/elements/1.1/"
   xmlns:cc="http://creativecommons.org/ns#"
   xmlns:rdf="http://www.w3.org/1999/02/22-rdf-syntax-ns#"
   xmlns:svg="http://www.w3.org/2000/svg"
   xmlns="http://www.w3.org/2000/svg"
   xmlns:sodipodi="http://sodipodi.sourceforge.net/DTD/sodipodi-0.dtd"
   xmlns:inkscape="http://www.inkscape.org/namespaces/inkscape"
   width="188.39653mm"
   height="188.37807mm"
   viewBox="0 0 188.39652 188.37806"
   version="1.1"
   id="svg8"
   inkscape:version="1.0.2 (e86c870879, 2021-01-15)"
   sodipodi:docname="11_8_blue.svg">
  <defs
     id="defs2" />
  <sodipodi:namedview
     id="base"
     pagecolor="#ffffff"
     bordercolor="#666666"
     borderopacity="1.0"
     inkscape:pageopacity="0.0"
     inkscape:pageshadow="2"
     inkscape:zoom="0.35"
     inkscape:cx="905.79607"
     inkscape:cy="1211.3535"
     inkscape:document-units="mm"
     inkscape:current-layer="layer1"
     inkscape:document-rotation="0"
     showgrid="false"
     inkscape:window-width="2155"
     inkscape:window-height="1262"
     inkscape:window-x="138"
     inkscape:window-y="-11"
     inkscape:window-maximized="1" />
  <metadata
     id="metadata5">
    <rdf:RDF>
      <cc:Work
         rdf:about="">
        <dc:format>image/svg+xml</dc:format>
        <dc:type
           rdf:resource="http://purl.org/dc/dcmitype/StillImage" />
        <dc:title />
      </cc:Work>
    </rdf:RDF>
  </metadata>
  <g
     inkscape:label="Layer 1"
     inkscape:groupmode="layer"
     id="layer1"
     transform="translate(133.82521,686.38489)">
    <path
       style="fill:#bfd3de;fill-opacity:1;stroke:#ffffff;stroke-width:1.99549;stroke-linecap:round;stroke-linejoin:round;stroke-miterlimit:4;stroke-dasharray:none;stroke-dashoffset:0;stroke-opacity:1"
       d="m -77.522399,-507.07898 18.883081,-42.41189 a 46.759613,46.759651 23.999991 0 1 -15.703845,-11.453 l -34.527857,31.08879 a 93.185476,93.185524 23.999991 0 0 31.348621,22.7761 z"
       id="path884-6-8-0-8-52"
       inkscape:connector-curvature="0" />
    <path
       style="fill:#bfd3de;fill-opacity:1;stroke:#ffffff;stroke-width:1.99549;stroke-linecap:round;stroke-linejoin:round;stroke-miterlimit:4;stroke-dasharray:none;stroke-dashoffset:0;stroke-opacity:1"
       d="m -1.717959,-507.06094 -18.882883,-42.41197 a 46.759651,46.759614 65.999991 0 1 -19.019167,4.00667 l -2.08e-4,46.46167 a 93.185525,93.185477 65.999991 0 0 37.902258,-8.05637 z"
       id="path884-6-8-0-8-8-02"
       inkscape:connector-curvature="0" />
    <path
       style="fill:#bfd3de;fill-opacity:1;stroke:#ffffff;stroke-width:1.99549;stroke-linecap:round;stroke-linejoin:round;stroke-miterlimit:4;stroke-dasharray:none;stroke-dashoffset:0;stroke-opacity:1"
       d="m -39.62013,-499.02259 8.4e-5,-46.42563 a 46.759651,46.759614 89.999991 0 1 -19.004535,-4.07553 l -18.897813,42.44476 a 93.185525,93.185477 89.999991 0 0 37.902268,8.05638 z"
       id="path884-6-8-0-8-7-63"
       inkscape:connector-curvature="0" />
    <path
       style="fill:#bfd3de;fill-opacity:1;stroke:#ffffff;stroke-width:1.99549;stroke-linecap:round;stroke-linejoin:round;stroke-miterlimit:4;stroke-dasharray:none;stroke-dashoffset:0;stroke-opacity:1"
       d="m 29.637935,-529.82057 -34.5008348,-31.06488 a 46.759651,46.759614 41.999991 0 1 -15.7452652,11.39606 l 18.8975214,42.44492 a 93.185525,93.185477 41.999991 0 0 31.3485786,-22.7761 z"
       id="path884-6-8-0-8-84-78"
       inkscape:connector-curvature="0" />
    <path
       style="fill:#296c92;fill-opacity:1;stroke:#ffffff;stroke-width:1.99549;stroke-linecap:round;stroke-linejoin:round;stroke-miterlimit:4;stroke-dasharray:none;stroke-dashoffset:0;stroke-opacity:1"
       d="M 49.0125,-563.3782 4.8590365,-577.72461 a 46.759651,46.759614 17.999991 0 1 -9.7487562,16.81499 l 34.5276547,31.08905 A 93.185525,93.185477 17.999991 0 0 49.0125,-563.3782 Z"
       id="path884-6-8-0-8-76-2"
       inkscape:connector-curvature="0" />
    <path
       style="fill:#296c92;fill-opacity:1;stroke:#ffffff;stroke-width:1.99549;stroke-linecap:round;stroke-linejoin:round;stroke-miterlimit:4;stroke-dasharray:none;stroke-dashoffset:0;stroke-opacity:1"
       d="m 53.062879,-601.91494 -46.1712789,4.85271 a 46.759614,46.759651 83.999991 0 1 -2.0664812,19.32645 l 44.1875811,14.3576 a 93.185477,93.185525 83.999991 0 0 4.050381,-38.53675 z"
       id="path884-6-8-0-8-81-62"
       inkscape:connector-curvature="0" />
    <path
       style="fill:#296c92;fill-opacity:1;stroke:#ffffff;stroke-width:1.99549;stroke-linecap:round;stroke-linejoin:round;stroke-miterlimit:4;stroke-dasharray:none;stroke-dashoffset:0;stroke-opacity:1"
       d="m 41.088816,-638.76746 -40.20584415,23.21274 a 46.759614,46.759651 59.999991 0 1 5.97274895,18.49617 l 46.2071582,-4.85639 a 93.185477,93.185525 59.999991 0 0 -11.974163,-36.85253 z"
       id="path884-6-8-0-8-9-8"
       inkscape:connector-curvature="0" />
    <path
       style="fill:#296c92;fill-opacity:1;stroke:#ffffff;stroke-width:1.99549;stroke-linecap:round;stroke-linejoin:round;stroke-miterlimit:4;stroke-dasharray:none;stroke-dashoffset:0;stroke-opacity:1"
       d="m 15.176325,-667.57257 -27.288387,37.55907 a 46.759614,46.759651 35.999991 0 1 12.97941571,14.46776 L 41.104444,-638.77643 a 93.185477,93.185525 35.999991 0 0 -25.928219,-28.79615 z"
       id="path884-6-8-0-8-2-8"
       inkscape:connector-curvature="0" />
    <path
       style="fill:#296c92;fill-opacity:1;stroke:#ffffff;stroke-width:1.99549;stroke-linecap:round;stroke-linejoin:round;stroke-miterlimit:4;stroke-dasharray:none;stroke-dashoffset:0;stroke-opacity:1"
       d="m -20.222663,-683.33318 -9.652562,45.41111 a 46.759614,46.759651 11.999991 0 1 17.741897,7.93773 l 27.309645,-37.58819 a 93.185477,93.185525 11.999991 0 0 -35.398982,-15.76064 z"
       id="path884-6-8-0-8-6-4"
       inkscape:connector-curvature="0" />
    <path
       style="fill:#296c92;fill-opacity:1;stroke:#ffffff;stroke-width:1.99549;stroke-linecap:round;stroke-linejoin:round;stroke-miterlimit:4;stroke-dasharray:none;stroke-dashoffset:0;stroke-opacity:1"
       d="m -58.967925,-683.35081 9.652359,45.41116 a 46.759651,46.759614 77.999991 0 1 19.436577,0.0352 l 9.660081,-45.44634 a 93.185525,93.185477 77.999991 0 0 -38.749021,0 z"
       id="path884-6-8-0-8-1-1"
       inkscape:connector-curvature="0" />
    <path
       style="fill:#296c92;fill-opacity:1;stroke:#ffffff;stroke-width:1.99549;stroke-linecap:round;stroke-linejoin:round;stroke-miterlimit:4;stroke-dasharray:none;stroke-dashoffset:0;stroke-opacity:1"
       d="m -94.370638,-667.6078 27.288255,37.55918 a 46.759651,46.759614 53.999991 0 1 17.770513,-7.87341 l -9.659759,-45.44641 a 93.185525,93.185477 53.999991 0 0 -35.399,15.76064 z"
       id="path884-6-8-0-8-64-22"
       inkscape:connector-curvature="0" />
    <path
       style="fill:#296c92;fill-opacity:1;stroke:#ffffff;stroke-width:1.99549;stroke-linecap:round;stroke-linejoin:round;stroke-miterlimit:4;stroke-dasharray:none;stroke-dashoffset:0;stroke-opacity:1"
       d="m -120.30935,-638.82626 40.205754,23.2129 a 46.759651,46.759614 29.999991 0 1 13.031767,-14.42065 l -27.309362,-37.58838 a 93.185525,93.185477 29.999991 0 0 -25.928149,28.79613 z"
       id="path884-6-8-0-8-3-2"
       inkscape:connector-curvature="0" />
    <path
       style="fill:#296c92;fill-opacity:1;stroke:#ffffff;stroke-width:1.99549;stroke-linecap:round;stroke-linejoin:round;stroke-miterlimit:4;stroke-dasharray:none;stroke-dashoffset:0;stroke-opacity:1"
       d="m -132.29905,-601.98278 46.171315,4.85288 a 46.759651,46.759614 5.999991 0 1 6.039719,-18.47442 l -40.236904,-23.23098 a 93.185525,93.185477 5.999991 0 0 -11.97413,36.85252 z"
       id="path884-6-8-0-8-5-0"
       inkscape:connector-curvature="0" />
    <path
       style="fill:#296c92;fill-opacity:1;stroke:#ffffff;stroke-width:1.99549;stroke-linecap:round;stroke-linejoin:round;stroke-miterlimit:4;stroke-dasharray:none;stroke-dashoffset:0;stroke-opacity:1"
       d="m -128.26658,-563.44793 44.153425,-14.34625 a 46.759614,46.759651 71.999991 0 1 -1.996659,-19.3338 l -46.207136,-4.85673 a 93.185477,93.185525 71.999991 0 0 4.05037,38.53678 z"
       id="path884-6-8-0-8-27-1"
       inkscape:connector-curvature="0" />
    <path
       style="fill:#296c92;fill-opacity:1;stroke:#ffffff;stroke-width:1.99549;stroke-linecap:round;stroke-linejoin:round;stroke-miterlimit:4;stroke-dasharray:none;stroke-dashoffset:0;stroke-opacity:1"
       d="M -108.87102,-529.85508 -74.37,-560.91987 a 46.759614,46.759651 47.999991 0 1 -9.687804,-16.85017 l -44.187736,14.35728 a 93.185477,93.185525 47.999991 0 0 19.37452,33.55768 z"
       id="path884-6-8-0-8-38-55"
       inkscape:connector-curvature="0" />
  </g>
</svg>
