<?xml version="1.0" encoding="UTF-8" standalone="no"?>
<svg
   xmlns:dc="http://purl.org/dc/elements/1.1/"
   xmlns:cc="http://creativecommons.org/ns#"
   xmlns:rdf="http://www.w3.org/1999/02/22-rdf-syntax-ns#"
   xmlns:svg="http://www.w3.org/2000/svg"
   xmlns="http://www.w3.org/2000/svg"
   xmlns:sodipodi="http://sodipodi.sourceforge.net/DTD/sodipodi-0.dtd"
   xmlns:inkscape="http://www.inkscape.org/namespaces/inkscape"
   width="188.36058mm"
   height="188.40195mm"
   viewBox="0 0 188.36057 188.40194"
   version="1.1"
   id="svg8"
   inkscape:version="1.0.2 (e86c870879, 2021-01-15)"
   sodipodi:docname="11_9_blue.svg">
  <defs
     id="defs2" />
  <sodipodi:namedview
     id="base"
     pagecolor="#ffffff"
     bordercolor="#666666"
     borderopacity="1.0"
     inkscape:pageopacity="0.0"
     inkscape:pageshadow="2"
     inkscape:zoom="0.35"
     inkscape:cx="638.8959"
     inkscape:cy="810.24582"
     inkscape:document-units="mm"
     inkscape:current-layer="layer1"
     inkscape:document-rotation="0"
     showgrid="false"
     inkscape:window-width="2155"
     inkscape:window-height="1262"
     inkscape:window-x="138"
     inkscape:window-y="-11"
     inkscape:window-maximized="1" />
  <metadata
     id="metadata5">
    <rdf:RDF>
      <cc:Work
         rdf:about="">
        <dc:format>image/svg+xml</dc:format>
        <dc:type
           rdf:resource="http://purl.org/dc/dcmitype/StillImage" />
        <dc:title />
      </cc:Work>
    </rdf:RDF>
  </metadata>
  <g
     inkscape:label="Layer 1"
     inkscape:groupmode="layer"
     id="layer1"
     transform="translate(63.207872,580.25848)">
    <path
       style="fill:#bfd3de;fill-opacity:1;stroke:#ffffff;stroke-width:1.99549;stroke-linecap:round;stroke-linejoin:round;stroke-miterlimit:4;stroke-dasharray:none;stroke-dashoffset:0;stroke-opacity:1"
       d="m -38.274738,-423.72121 34.5010249,-31.06476 a 46.759613,46.759651 47.999991 0 1 -9.6878219,-16.85016 l -44.187719,14.35727 a 93.185476,93.185524 47.999991 0 0 19.374516,33.55765 z"
       id="path884-6-8-0-8-42"
       inkscape:connector-curvature="0" />
    <path
       style="fill:#bfd3de;fill-opacity:1;stroke:#ffffff;stroke-width:1.99549;stroke-linecap:round;stroke-linejoin:round;stroke-miterlimit:4;stroke-dasharray:none;stroke-dashoffset:0;stroke-opacity:1"
       d="m 30.968728,-392.8723 1.29e-4,-46.42561 a 46.759651,46.759614 89.999991 0 1 -19.004533,-4.07552 l -18.8978521,42.44476 a 93.185525,93.185477 89.999991 0 0 37.9022561,8.05637 z"
       id="path884-6-8-0-8-8-93"
       inkscape:connector-curvature="0" />
    <path
       style="fill:#bfd3de;fill-opacity:1;stroke:#ffffff;stroke-width:1.99549;stroke-linecap:round;stroke-linejoin:round;stroke-miterlimit:4;stroke-dasharray:none;stroke-dashoffset:0;stroke-opacity:1"
       d="m -6.9261206,-400.9451 18.8830836,-42.41189 a 46.759614,46.759651 23.999991 0 1 -15.703842,-11.45302 l -34.527848,31.08878 a 93.185477,93.185525 23.999991 0 0 31.3486182,22.77612 z"
       id="path884-6-8-0-8-7-04"
       inkscape:connector-curvature="0" />
    <path
       style="fill:#bfd3de;fill-opacity:1;stroke:#ffffff;stroke-width:1.99549;stroke-linecap:round;stroke-linejoin:round;stroke-miterlimit:4;stroke-dasharray:none;stroke-dashoffset:0;stroke-opacity:1"
       d="M 68.870936,-400.91066 49.98808,-443.32259 a 46.759651,46.759614 65.999991 0 1 -19.019209,4.00664 l -1.59e-4,46.46168 a 93.185525,93.185477 65.999991 0 0 37.902224,-8.05639 z"
       id="path884-6-8-0-8-84-5"
       inkscape:connector-curvature="0" />
    <path
       style="fill:#296c92;fill-opacity:1;stroke:#ffffff;stroke-width:1.99549;stroke-linecap:round;stroke-linejoin:round;stroke-miterlimit:4;stroke-dasharray:none;stroke-dashoffset:0;stroke-opacity:1"
       d="m 100.2196,-423.68674 -34.500985,-31.06492 a 46.759651,46.759614 41.999991 0 1 -15.745204,11.39608 l 18.897525,42.44492 a 93.185525,93.185477 41.999991 0 0 31.348664,-22.77608 z"
       id="path884-6-8-0-8-76-0"
       inkscape:connector-curvature="0" />
    <path
       style="fill:#296c92;fill-opacity:1;stroke:#ffffff;stroke-width:1.99549;stroke-linecap:round;stroke-linejoin:round;stroke-miterlimit:4;stroke-dasharray:none;stroke-dashoffset:0;stroke-opacity:1"
       d="m 119.59411,-457.24436 -44.153337,-14.34638 a 46.759651,46.759614 17.999991 0 1 -9.748598,16.81507 l 34.527605,31.08903 a 93.185525,93.185477 17.999991 0 0 19.37451,-33.55763 z"
       id="path884-6-8-0-8-81-3"
       inkscape:connector-curvature="0" />
    <path
       style="fill:#296c92;fill-opacity:1;stroke:#ffffff;stroke-width:1.99549;stroke-linecap:round;stroke-linejoin:round;stroke-miterlimit:4;stroke-dasharray:none;stroke-dashoffset:0;stroke-opacity:1"
       d="m 123.64453,-495.7811 -46.171339,4.8527 a 46.759614,46.759651 83.999991 0 1 -2.066693,19.32643 l 44.187612,14.35761 a 93.185477,93.185525 83.999991 0 0 4.05033,-38.53679 z"
       id="path884-6-8-0-8-9-37"
       inkscape:connector-curvature="0" />
    <path
       style="fill:#296c92;fill-opacity:1;stroke:#ffffff;stroke-width:1.99549;stroke-linecap:round;stroke-linejoin:round;stroke-miterlimit:4;stroke-dasharray:none;stroke-dashoffset:0;stroke-opacity:1"
       d="m 111.68838,-532.63544 -40.205828,23.21273 a 46.759614,46.759651 59.999991 0 1 5.972719,18.49616 l 46.207189,-4.85639 a 93.185477,93.185525 59.999991 0 0 -11.97416,-36.85255 z"
       id="path884-6-8-0-8-2-3"
       inkscape:connector-curvature="0" />
    <path
       style="fill:#296c92;fill-opacity:1;stroke:#ffffff;stroke-width:1.99549;stroke-linecap:round;stroke-linejoin:round;stroke-miterlimit:4;stroke-dasharray:none;stroke-dashoffset:0;stroke-opacity:1"
       d="M 85.760218,-561.43154 58.4718,-523.87247 a 46.759614,46.759651 35.999991 0 1 12.979465,14.46775 l 40.237095,-23.23068 a 93.185477,93.185525 35.999991 0 0 -25.928148,-28.79613 z"
       id="path884-6-8-0-8-6-2"
       inkscape:connector-curvature="0" />
    <path
       style="fill:#296c92;fill-opacity:1;stroke:#ffffff;stroke-width:1.99549;stroke-linecap:round;stroke-linejoin:round;stroke-miterlimit:4;stroke-dasharray:none;stroke-dashoffset:0;stroke-opacity:1"
       d="m 50.37183,-577.20676 -9.652512,45.41112 a 46.759614,46.759651 11.999991 0 1 17.74188,7.93773 l 27.309614,-37.58819 a 93.185477,93.185525 11.999991 0 0 -35.398994,-15.76064 z"
       id="path884-6-8-0-8-1-65"
       inkscape:connector-curvature="0" />
    <path
       style="fill:#296c92;fill-opacity:1;stroke:#ffffff;stroke-width:1.99549;stroke-linecap:round;stroke-linejoin:round;stroke-miterlimit:4;stroke-dasharray:none;stroke-dashoffset:0;stroke-opacity:1"
       d="m 11.626584,-577.22439 9.652365,45.41116 a 46.759651,46.759614 77.999991 0 1 19.436578,0.0352 l 9.660092,-45.44634 a 93.185525,93.185477 77.999991 0 0 -38.749027,0 z"
       id="path884-6-8-0-8-64-48"
       inkscape:connector-curvature="0" />
    <path
       style="fill:#296c92;fill-opacity:1;stroke:#ffffff;stroke-width:1.99549;stroke-linecap:round;stroke-linejoin:round;stroke-miterlimit:4;stroke-dasharray:none;stroke-dashoffset:0;stroke-opacity:1"
       d="m -23.77612,-561.48137 27.2882531,37.55919 a 46.759651,46.759614 53.999991 0 1 17.7705179,-7.87342 l -9.659771,-45.44641 a 93.185525,93.185477 53.999991 0 0 -35.398992,15.76065 z"
       id="path884-6-8-0-8-3-5"
       inkscape:connector-curvature="0" />
    <path
       style="fill:#296c92;fill-opacity:1;stroke:#ffffff;stroke-width:1.99549;stroke-linecap:round;stroke-linejoin:round;stroke-miterlimit:4;stroke-dasharray:none;stroke-dashoffset:0;stroke-opacity:1"
       d="m -49.714843,-532.69982 40.2057511,23.21288 A 46.759651,46.759614 29.999991 0 1 3.522686,-523.90758 l -27.309351,-37.58838 a 93.185525,93.185477 29.999991 0 0 -25.928178,28.79614 z"
       id="path884-6-8-0-8-5-18"
       inkscape:connector-curvature="0" />
    <path
       style="fill:#296c92;fill-opacity:1;stroke:#ffffff;stroke-width:1.99549;stroke-linecap:round;stroke-linejoin:round;stroke-miterlimit:4;stroke-dasharray:none;stroke-dashoffset:0;stroke-opacity:1"
       d="m -61.704539,-495.85634 46.171309,4.85287 a 46.759651,46.759614 5.999991 0 1 6.0397253,-18.47442 l -40.2369093,-23.23098 a 93.185525,93.185477 5.999991 0 0 -11.974125,36.85253 z"
       id="path884-6-8-0-8-27-0"
       inkscape:connector-curvature="0" />
    <path
       style="fill:#296c92;fill-opacity:1;stroke:#ffffff;stroke-width:1.99549;stroke-linecap:round;stroke-linejoin:round;stroke-miterlimit:4;stroke-dasharray:none;stroke-dashoffset:0;stroke-opacity:1"
       d="m -57.649254,-457.27886 44.153439,-14.34626 a 46.759614,46.759651 71.999991 0 1 -1.996666,-19.33378 l -46.207137,-4.85674 a 93.185477,93.185525 71.999991 0 0 4.050364,38.53678 z"
       id="path884-6-8-0-8-38-0"
       inkscape:connector-curvature="0" />
  </g>
</svg>
