<?xml version="1.0" encoding="UTF-8" standalone="no"?>
<svg
   xmlns:dc="http://purl.org/dc/elements/1.1/"
   xmlns:cc="http://creativecommons.org/ns#"
   xmlns:rdf="http://www.w3.org/1999/02/22-rdf-syntax-ns#"
   xmlns:svg="http://www.w3.org/2000/svg"
   xmlns="http://www.w3.org/2000/svg"
   xmlns:sodipodi="http://sodipodi.sourceforge.net/DTD/sodipodi-0.dtd"
   xmlns:inkscape="http://www.inkscape.org/namespaces/inkscape"
   width="188.36436mm"
   height="188.40344mm"
   viewBox="0 0 188.36436 188.40344"
   version="1.1"
   id="svg8"
   inkscape:version="1.0.2 (e86c870879, 2021-01-15)"
   sodipodi:docname="12_10_blue.svg">
  <defs
     id="defs2" />
  <sodipodi:namedview
     id="base"
     pagecolor="#ffffff"
     bordercolor="#666666"
     borderopacity="1.0"
     inkscape:pageopacity="0.0"
     inkscape:pageshadow="2"
     inkscape:zoom="0.35"
     inkscape:cx="837.07042"
     inkscape:cy="457.26133"
     inkscape:document-units="mm"
     inkscape:current-layer="layer1"
     inkscape:document-rotation="0"
     showgrid="false"
     inkscape:window-width="2155"
     inkscape:window-height="1262"
     inkscape:window-x="138"
     inkscape:window-y="-11"
     inkscape:window-maximized="1" />
  <metadata
     id="metadata5">
    <rdf:RDF>
      <cc:Work
         rdf:about="">
        <dc:format>image/svg+xml</dc:format>
        <dc:type
           rdf:resource="http://purl.org/dc/dcmitype/StillImage" />
        <dc:title />
      </cc:Work>
    </rdf:RDF>
  </metadata>
  <g
     inkscape:label="Layer 1"
     inkscape:groupmode="layer"
     id="layer1"
     transform="translate(115.64155,-27.182941)">
    <path
       style="fill:#bfd3de;fill-opacity:1;stroke:#ffffff;stroke-width:1.99549;stroke-linecap:round;stroke-linejoin:round;stroke-miterlimit:4;stroke-dasharray:none;stroke-dashoffset:0;stroke-opacity:1"
       d="m -110.08292,150.17008 44.153431,-14.34624 a 46.759613,46.759651 71.999991 0 1 -1.996687,-19.33378 l -46.207124,-4.85674 a 93.185476,93.185524 71.999991 0 0 4.05038,38.53676 z"
       id="path884-6-8-0-8-11"
       inkscape:connector-curvature="0" />
    <path
       style="fill:#bfd3de;fill-opacity:1;stroke:#ffffff;stroke-width:1.99549;stroke-linecap:round;stroke-linejoin:round;stroke-miterlimit:4;stroke-dasharray:none;stroke-dashoffset:0;stroke-opacity:1"
       d="m -59.37325,206.51582 18.883118,-42.41186 a 46.759614,46.759651 23.999991 0 1 -15.703842,-11.45301 l -34.527886,31.08877 a 93.185477,93.185525 23.999991 0 0 31.34861,22.7761 z"
       id="path884-6-8-0-8-8-17"
       inkscape:connector-curvature="0" />
    <path
       style="fill:#bfd3de;fill-opacity:1;stroke:#ffffff;stroke-width:1.99549;stroke-linecap:round;stroke-linejoin:round;stroke-miterlimit:4;stroke-dasharray:none;stroke-dashoffset:0;stroke-opacity:1"
       d="m -90.708413,183.72773 34.501026,-31.06475 a 46.759614,46.759651 47.999991 0 1 -9.687811,-16.85018 l -44.187702,14.35727 a 93.185477,93.185525 47.999991 0 0 19.374504,33.55765 z"
       id="path884-6-8-0-8-7-29"
       inkscape:connector-curvature="0" />
    <path
       style="fill:#296c92;fill-opacity:1;stroke:#ffffff;stroke-width:1.99549;stroke-linecap:round;stroke-linejoin:round;stroke-miterlimit:4;stroke-dasharray:none;stroke-dashoffset:0;stroke-opacity:1"
       d="m -21.478364,214.58863 1.4e-4,-46.42558 a 46.759651,46.759614 89.999991 0 1 -19.004559,-4.07556 l -18.897812,42.44479 a 93.185525,93.185477 89.999991 0 0 37.902231,8.05635 z"
       id="path884-6-8-0-8-84-07"
       inkscape:connector-curvature="0" />
    <path
       style="fill:#296c92;fill-opacity:1;stroke:#ffffff;stroke-width:1.99549;stroke-linecap:round;stroke-linejoin:round;stroke-miterlimit:4;stroke-dasharray:none;stroke-dashoffset:0;stroke-opacity:1"
       d="M 16.423935,206.5323 -2.459043,164.12026 a 46.759651,46.759614 65.999991 0 1 -19.019162,4.00669 l -1.59e-4,46.46168 a 93.185525,93.185477 65.999991 0 0 37.902299,-8.05633 z"
       id="path884-6-8-0-8-76-31"
       inkscape:connector-curvature="0" />
    <path
       style="fill:#296c92;fill-opacity:1;stroke:#ffffff;stroke-width:1.99549;stroke-linecap:round;stroke-linejoin:round;stroke-miterlimit:4;stroke-dasharray:none;stroke-dashoffset:0;stroke-opacity:1"
       d="M 47.772545,183.75621 13.271659,152.69136 a 46.759651,46.759614 41.999991 0 1 -15.7450918,11.39622 l 18.8974848,42.44488 a 93.185525,93.185477 41.999991 0 0 31.348619,-22.7761 z"
       id="path884-6-8-0-8-81-28"
       inkscape:connector-curvature="0" />
    <path
       style="fill:#296c92;fill-opacity:1;stroke:#ffffff;stroke-width:1.99549;stroke-linecap:round;stroke-linejoin:round;stroke-miterlimit:4;stroke-dasharray:none;stroke-dashoffset:0;stroke-opacity:1"
       d="M 67.147088,150.1986 22.9937,135.85219 a 46.759651,46.759614 17.999991 0 1 -9.748784,16.81497 l 34.527629,31.08905 a 93.185525,93.185477 17.999991 0 0 19.374484,-33.55769 z"
       id="path884-6-8-0-8-9-08"
       inkscape:connector-curvature="0" />
    <path
       style="fill:#296c92;fill-opacity:1;stroke:#ffffff;stroke-width:1.99549;stroke-linecap:round;stroke-linejoin:round;stroke-miterlimit:4;stroke-dasharray:none;stroke-dashoffset:0;stroke-opacity:1"
       d="m 71.214616,111.66748 -46.171324,4.8527 a 46.759614,46.759651 83.999991 0 1 -2.066715,19.32641 l 44.187639,14.35761 a 93.185477,93.185525 83.999991 0 0 4.050341,-38.5368 z"
       id="path884-6-8-0-8-2-2"
       inkscape:connector-curvature="0" />
    <path
       style="fill:#296c92;fill-opacity:1;stroke:#ffffff;stroke-width:1.99549;stroke-linecap:round;stroke-linejoin:round;stroke-miterlimit:4;stroke-dasharray:none;stroke-dashoffset:0;stroke-opacity:1"
       d="M 59.240486,74.815001 19.034629,98.027714 a 46.759614,46.759651 59.999991 0 1 5.972766,18.496176 L 71.214581,111.6675 A 93.185477,93.185525 59.999991 0 0 59.240477,74.815006 Z"
       id="path884-6-8-0-8-6-33"
       inkscape:connector-curvature="0" />
    <path
       style="fill:#296c92;fill-opacity:1;stroke:#ffffff;stroke-width:1.99549;stroke-linecap:round;stroke-linejoin:round;stroke-miterlimit:4;stroke-dasharray:none;stroke-dashoffset:0;stroke-opacity:1"
       d="M 33.327946,46.009865 6.0395723,83.568956 A 46.759614,46.759651 35.999991 0 1 19.019022,98.036701 L 59.256088,74.806005 a 93.185477,93.185525 35.999991 0 0 -25.92816,-28.79613 z"
       id="path884-6-8-0-8-1-18"
       inkscape:connector-curvature="0" />
    <path
       style="fill:#296c92;fill-opacity:1;stroke:#ffffff;stroke-width:1.99549;stroke-linecap:round;stroke-linejoin:round;stroke-miterlimit:4;stroke-dasharray:none;stroke-dashoffset:0;stroke-opacity:1"
       d="M -2.0604258,30.234647 -11.712934,75.645773 A 46.759614,46.759651 11.999991 0 1 6.0289489,83.583495 L 33.338573,45.995311 A 93.185477,93.185525 11.999991 0 0 -2.0604208,30.234656 Z"
       id="path884-6-8-0-8-64-93"
       inkscape:connector-curvature="0" />
    <path
       style="fill:#296c92;fill-opacity:1;stroke:#ffffff;stroke-width:1.99549;stroke-linecap:round;stroke-linejoin:round;stroke-miterlimit:4;stroke-dasharray:none;stroke-dashoffset:0;stroke-opacity:1"
       d="m -40.805669,30.217037 9.65236,45.411159 a 46.759651,46.759614 77.999991 0 1 19.436585,0.03519 l 9.6600818,-45.446347 a 93.185525,93.185477 77.999991 0 0 -38.7490218,4e-6 z"
       id="path884-6-8-0-8-3-8"
       inkscape:connector-curvature="0" />
    <path
       style="fill:#296c92;fill-opacity:1;stroke:#ffffff;stroke-width:1.99549;stroke-linecap:round;stroke-linejoin:round;stroke-miterlimit:4;stroke-dasharray:none;stroke-dashoffset:0;stroke-opacity:1"
       d="m -76.208382,45.960059 27.288251,37.559177 a 46.759651,46.759614 53.999991 0 1 17.770524,-7.873409 l -9.659759,-45.446413 a 93.185525,93.185477 53.999991 0 0 -35.399016,15.760645 z"
       id="path884-6-8-0-8-5-2"
       inkscape:connector-curvature="0" />
    <path
       style="fill:#296c92;fill-opacity:1;stroke:#ffffff;stroke-width:1.99549;stroke-linecap:round;stroke-linejoin:round;stroke-miterlimit:4;stroke-dasharray:none;stroke-dashoffset:0;stroke-opacity:1"
       d="m -102.14711,74.741607 40.20575,23.21288 A 46.759651,46.759614 29.999991 0 1 -48.909573,83.533844 L -76.218926,45.945458 a 93.185525,93.185477 29.999991 0 0 -25.928184,28.796149 z"
       id="path884-6-8-0-8-27-5"
       inkscape:connector-curvature="0" />
    <path
       style="fill:#296c92;fill-opacity:1;stroke:#ffffff;stroke-width:1.99549;stroke-linecap:round;stroke-linejoin:round;stroke-miterlimit:4;stroke-dasharray:none;stroke-dashoffset:0;stroke-opacity:1"
       d="m -114.1333,111.63332 46.171327,4.85286 a 46.759651,46.759614 5.999991 0 1 6.039714,-18.474409 L -102.15917,74.780785 a 93.185525,93.185477 5.999991 0 0 -11.97413,36.852535 z"
       id="path884-6-8-0-8-38-04"
       inkscape:connector-curvature="0" />
  </g>
</svg>
