<?xml version="1.0" encoding="UTF-8" standalone="no"?>
<svg
   xmlns:dc="http://purl.org/dc/elements/1.1/"
   xmlns:cc="http://creativecommons.org/ns#"
   xmlns:rdf="http://www.w3.org/1999/02/22-rdf-syntax-ns#"
   xmlns:svg="http://www.w3.org/2000/svg"
   xmlns="http://www.w3.org/2000/svg"
   xmlns:sodipodi="http://sodipodi.sourceforge.net/DTD/sodipodi-0.dtd"
   xmlns:inkscape="http://www.inkscape.org/namespaces/inkscape"
   width="188.38121mm"
   height="188.3903mm"
   viewBox="0 0 188.38121 188.3903"
   version="1.1"
   id="svg8"
   inkscape:version="1.0.2 (e86c870879, 2021-01-15)"
   sodipodi:docname="12_1_blue.svg">
  <defs
     id="defs2" />
  <sodipodi:namedview
     id="base"
     pagecolor="#ffffff"
     bordercolor="#666666"
     borderopacity="1.0"
     inkscape:pageopacity="0.0"
     inkscape:pageshadow="2"
     inkscape:zoom="0.35"
     inkscape:cx="58.853101"
     inkscape:cy="384.58461"
     inkscape:document-units="mm"
     inkscape:current-layer="layer1"
     inkscape:document-rotation="0"
     showgrid="false"
     inkscape:window-width="2155"
     inkscape:window-height="1262"
     inkscape:window-x="138"
     inkscape:window-y="-11"
     inkscape:window-maximized="1" />
  <metadata
     id="metadata5">
    <rdf:RDF>
      <cc:Work
         rdf:about="">
        <dc:format>image/svg+xml</dc:format>
        <dc:type
           rdf:resource="http://purl.org/dc/dcmitype/StillImage" />
        <dc:title />
      </cc:Work>
    </rdf:RDF>
  </metadata>
  <g
     inkscape:label="Layer 1"
     inkscape:groupmode="layer"
     id="layer1"
     transform="translate(-90.261784,-46.41199)">
    <path
       style="fill:#bfd3de;fill-opacity:1;stroke:#ffffff;stroke-width:1.99549;stroke-linecap:round;stroke-linejoin:round;stroke-miterlimit:4;stroke-dasharray:none;stroke-dashoffset:0;stroke-opacity:1"
       d="m 239.2192,65.224357 -27.28836,37.559083 a 46.759613,46.759651 35.999991 0 1 12.97946,14.46774 L 265.14737,94.020498 A 93.185476,93.185524 35.999991 0 0 239.2192,65.224357 Z"
       id="path884-6-8-0-8-70"
       inkscape:connector-curvature="0" />
    <path
       style="fill:#bfd3de;fill-opacity:1;stroke:#ffffff;stroke-width:1.99549;stroke-linecap:round;stroke-linejoin:round;stroke-miterlimit:4;stroke-dasharray:none;stroke-dashoffset:0;stroke-opacity:1"
       d="m 165.07502,49.446088 9.65231,45.411135 a 46.759651,46.759614 77.999991 0 1 19.43658,0.03519 l 9.66013,-45.446323 a 93.185525,93.185477 77.999991 0 0 -38.74902,-6e-6 z"
       id="path884-6-8-0-8-8-8"
       inkscape:connector-curvature="0" />
    <path
       style="fill:#bfd3de;fill-opacity:1;stroke:#ffffff;stroke-width:1.99549;stroke-linecap:round;stroke-linejoin:round;stroke-miterlimit:4;stroke-dasharray:none;stroke-dashoffset:0;stroke-opacity:1"
       d="m 203.82021,49.463697 -9.65252,45.411105 a 46.759614,46.759651 11.999991 0 1 17.7419,7.937728 L 239.2192,65.224375 a 93.185477,93.185525 11.999991 0 0 -35.399,-15.76066 z"
       id="path884-6-8-0-8-7-1"
       inkscape:connector-curvature="0" />
    <path
       style="fill:#296c92;fill-opacity:1;stroke:#ffffff;stroke-width:1.99549;stroke-linecap:round;stroke-linejoin:round;stroke-miterlimit:4;stroke-dasharray:none;stroke-dashoffset:0;stroke-opacity:1"
       d="m 129.67234,65.189105 27.28816,37.559165 a 46.759651,46.759614 53.999991 0 1 17.77056,-7.873402 l -9.65977,-45.446412 a 93.185525,93.185477 53.999991 0 0 -35.39895,15.760649 z"
       id="path884-6-8-0-8-84-4"
       inkscape:connector-curvature="0" />
    <path
       style="fill:#296c92;fill-opacity:1;stroke:#ffffff;stroke-width:1.99549;stroke-linecap:round;stroke-linejoin:round;stroke-miterlimit:4;stroke-dasharray:none;stroke-dashoffset:0;stroke-opacity:1"
       d="m 103.74413,93.985227 40.20582,23.212923 A 46.759651,46.759614 29.999991 0 1 156.9817,102.77749 L 129.67234,65.189105 a 93.185525,93.185477 29.999991 0 0 -25.92821,28.796122 z"
       id="path884-6-8-0-8-76-3"
       inkscape:connector-curvature="0" />
    <path
       style="fill:#296c92;fill-opacity:1;stroke:#ffffff;stroke-width:1.99549;stroke-linecap:round;stroke-linejoin:round;stroke-miterlimit:4;stroke-dasharray:none;stroke-dashoffset:0;stroke-opacity:1"
       d="m 91.770022,130.83772 46.171258,4.85288 a 46.759651,46.759614 5.999991 0 1 6.03952,-18.47447 L 103.74394,93.985164 A 93.185525,93.185477 5.999991 0 0 91.769827,130.83767 Z"
       id="path884-6-8-0-8-81-7"
       inkscape:connector-curvature="0" />
    <path
       style="fill:#296c92;fill-opacity:1;stroke:#ffffff;stroke-width:1.99549;stroke-linecap:round;stroke-linejoin:round;stroke-miterlimit:4;stroke-dasharray:none;stroke-dashoffset:0;stroke-opacity:1"
       d="M 95.820355,169.37447 139.9738,155.02825 a 46.759614,46.759651 71.999991 0 1 -1.99666,-19.33379 l -46.207118,-4.85674 a 93.185477,93.185525 71.999991 0 0 4.050428,38.53678 z"
       id="path884-6-8-0-8-9-3"
       inkscape:connector-curvature="0" />
    <path
       style="fill:#296c92;fill-opacity:1;stroke:#ffffff;stroke-width:1.99549;stroke-linecap:round;stroke-linejoin:round;stroke-miterlimit:4;stroke-dasharray:none;stroke-dashoffset:0;stroke-opacity:1"
       d="m 115.17768,202.93763 34.50104,-31.06474 a 46.759614,46.759651 47.999991 0 1 -9.68777,-16.85018 L 95.803202,169.38 a 93.185477,93.185525 47.999991 0 0 19.374568,33.55766 z"
       id="path884-6-8-0-8-2-4"
       inkscape:connector-curvature="0" />
    <path
       style="fill:#296c92;fill-opacity:1;stroke:#ffffff;stroke-width:1.99549;stroke-linecap:round;stroke-linejoin:round;stroke-miterlimit:4;stroke-dasharray:none;stroke-dashoffset:0;stroke-opacity:1"
       d="m 146.5263,225.7137 18.88313,-42.41189 a 46.759614,46.759651 23.999991 0 1 -15.70385,-11.45302 l -34.52789,31.0888 a 93.185477,93.185525 23.999991 0 0 31.34861,22.7761 z"
       id="path884-6-8-0-8-6-3"
       inkscape:connector-curvature="0" />
    <path
       style="fill:#296c92;fill-opacity:1;stroke:#ffffff;stroke-width:1.99549;stroke-linecap:round;stroke-linejoin:round;stroke-miterlimit:4;stroke-dasharray:none;stroke-dashoffset:0;stroke-opacity:1"
       d="m 184.42122,233.78653 7e-5,-46.42564 a 46.759651,46.759614 89.999991 0 1 -19.00452,-4.07553 l -18.89781,42.44479 a 93.185525,93.185477 89.999991 0 0 37.90226,8.05636 z"
       id="path884-6-8-0-8-1-4"
       inkscape:connector-curvature="0" />
    <path
       style="fill:#296c92;fill-opacity:1;stroke:#ffffff;stroke-width:1.99549;stroke-linecap:round;stroke-linejoin:round;stroke-miterlimit:4;stroke-dasharray:none;stroke-dashoffset:0;stroke-opacity:1"
       d="M 222.32345,225.74819 203.4405,183.33621 a 46.759651,46.759614 65.999991 0 1 -19.01916,4.00667 l -1.7e-4,46.46167 a 93.185525,93.185477 65.999991 0 0 37.90227,-8.05637 z"
       id="path884-6-8-0-8-64-5"
       inkscape:connector-curvature="0" />
    <path
       style="fill:#296c92;fill-opacity:1;stroke:#ffffff;stroke-width:1.99549;stroke-linecap:round;stroke-linejoin:round;stroke-miterlimit:4;stroke-dasharray:none;stroke-dashoffset:0;stroke-opacity:1"
       d="m 253.67936,202.98855 -34.50093,-31.06488 a 46.759651,46.759614 41.999991 0 1 -15.74521,11.39607 l 18.89752,42.44492 a 93.185525,93.185477 41.999991 0 0 31.34861,-22.77611 z"
       id="path884-6-8-0-8-3-9"
       inkscape:connector-curvature="0" />
    <path
       style="fill:#296c92;fill-opacity:1;stroke:#ffffff;stroke-width:1.99549;stroke-linecap:round;stroke-linejoin:round;stroke-miterlimit:4;stroke-dasharray:none;stroke-dashoffset:0;stroke-opacity:1"
       d="m 273.06724,169.44299 -44.15339,-14.34638 a 46.759651,46.759614 17.999991 0 1 -9.74878,16.81497 l 34.52764,31.08906 a 93.185525,93.185477 17.999991 0 0 19.37453,-33.55765 z"
       id="path884-6-8-0-8-5-9"
       inkscape:connector-curvature="0" />
    <path
       style="fill:#296c92;fill-opacity:1;stroke:#ffffff;stroke-width:1.99549;stroke-linecap:round;stroke-linejoin:round;stroke-miterlimit:4;stroke-dasharray:none;stroke-dashoffset:0;stroke-opacity:1"
       d="m 277.13474,130.91183 -46.17132,4.85273 a 46.759614,46.759651 83.999991 0 1 -2.0667,19.32643 l 44.18763,14.35761 a 93.185477,93.185525 83.999991 0 0 4.05039,-38.53677 z"
       id="path884-6-8-0-8-27-0"
       inkscape:connector-curvature="0" />
    <path
       style="fill:#296c92;fill-opacity:1;stroke:#ffffff;stroke-width:1.99549;stroke-linecap:round;stroke-linejoin:round;stroke-miterlimit:4;stroke-dasharray:none;stroke-dashoffset:0;stroke-opacity:1"
       d="m 265.14737,94.020498 -40.20583,23.212782 a 46.759614,46.759651 59.999991 0 1 5.97276,18.49616 l 46.20717,-4.8564 a 93.185477,93.185525 59.999991 0 0 -11.9741,-36.852542 z"
       id="path884-6-8-0-8-38-8"
       inkscape:connector-curvature="0" />
  </g>
</svg>
