<?xml version="1.0" encoding="UTF-8" standalone="no"?>
<svg
   xmlns:dc="http://purl.org/dc/elements/1.1/"
   xmlns:cc="http://creativecommons.org/ns#"
   xmlns:rdf="http://www.w3.org/1999/02/22-rdf-syntax-ns#"
   xmlns:svg="http://www.w3.org/2000/svg"
   xmlns="http://www.w3.org/2000/svg"
   xmlns:sodipodi="http://sodipodi.sourceforge.net/DTD/sodipodi-0.dtd"
   xmlns:inkscape="http://www.inkscape.org/namespaces/inkscape"
   width="188.35077mm"
   height="188.39903mm"
   viewBox="0 0 188.35076 188.39903"
   version="1.1"
   id="svg8"
   inkscape:version="1.0.2 (e86c870879, 2021-01-15)"
   sodipodi:docname="12_11_blue.svg">
  <defs
     id="defs2" />
  <sodipodi:namedview
     id="base"
     pagecolor="#ffffff"
     bordercolor="#666666"
     borderopacity="1.0"
     inkscape:pageopacity="0.0"
     inkscape:pageshadow="2"
     inkscape:zoom="0.35"
     inkscape:cx="710.15172"
     inkscape:cy="230.43385"
     inkscape:document-units="mm"
     inkscape:current-layer="layer1"
     inkscape:document-rotation="0"
     showgrid="false"
     inkscape:window-width="2155"
     inkscape:window-height="1262"
     inkscape:window-x="138"
     inkscape:window-y="-11"
     inkscape:window-maximized="1" />
  <metadata
     id="metadata5">
    <rdf:RDF>
      <cc:Work
         rdf:about="">
        <dc:format>image/svg+xml</dc:format>
        <dc:type
           rdf:resource="http://purl.org/dc/dcmitype/StillImage" />
        <dc:title />
      </cc:Work>
    </rdf:RDF>
  </metadata>
  <g
     inkscape:label="Layer 1"
     inkscape:groupmode="layer"
     id="layer1"
     transform="translate(82.060979,-87.197712)">
    <path
       style="fill:#bfd3de;fill-opacity:1;stroke:#ffffff;stroke-width:1.99549;stroke-linecap:round;stroke-linejoin:round;stroke-miterlimit:4;stroke-dasharray:none;stroke-dashoffset:0;stroke-opacity:1"
       d="m -80.552748,171.65439 46.171306,4.85287 a 46.759651,46.759613 5.999991 0 1 6.039693,-18.47441 l -40.23689,-23.23098 a 93.185524,93.185476 5.999991 0 0 -11.974109,36.85252 z"
       id="path884-6-8-0-8-42"
       inkscape:connector-curvature="0" />
    <path
       style="fill:#bfd3de;fill-opacity:1;stroke:#ffffff;stroke-width:1.99549;stroke-linecap:round;stroke-linejoin:round;stroke-miterlimit:4;stroke-dasharray:none;stroke-dashoffset:0;stroke-opacity:1"
       d="m -57.145038,243.75426 34.501044,-31.0647 a 46.759614,46.759651 47.999991 0 1 -9.687814,-16.85018 l -44.187734,14.35725 a 93.185477,93.185525 47.999991 0 0 19.374504,33.55763 z"
       id="path884-6-8-0-8-8-64"
       inkscape:connector-curvature="0" />
    <path
       style="fill:#bfd3de;fill-opacity:1;stroke:#ffffff;stroke-width:1.99549;stroke-linecap:round;stroke-linejoin:round;stroke-miterlimit:4;stroke-dasharray:none;stroke-dashoffset:0;stroke-opacity:1"
       d="m -76.502381,210.19115 44.153428,-14.34623 a 46.759614,46.759651 71.999991 0 1 -1.99667,-19.3338 l -46.207105,-4.85674 a 93.185477,93.185525 71.999991 0 0 4.050367,38.53676 z"
       id="path884-6-8-0-8-7-92"
       inkscape:connector-curvature="0" />
    <path
       style="fill:#296c92;fill-opacity:1;stroke:#ffffff;stroke-width:1.99549;stroke-linecap:round;stroke-linejoin:round;stroke-miterlimit:4;stroke-dasharray:none;stroke-dashoffset:0;stroke-opacity:1"
       d="M -25.809844,266.54238 -6.9267327,224.13056 A 46.759614,46.759651 23.999991 0 1 -22.630581,212.6775 l -34.527861,31.08881 a 93.185477,93.185525 23.999991 0 0 31.348598,22.77607 z"
       id="path884-6-8-0-8-84-71"
       inkscape:connector-curvature="0" />
    <path
       style="fill:#296c92;fill-opacity:1;stroke:#ffffff;stroke-width:1.99549;stroke-linecap:round;stroke-linejoin:round;stroke-miterlimit:4;stroke-dasharray:none;stroke-dashoffset:0;stroke-opacity:1"
       d="m 12.092435,274.59881 7e-5,-46.42572 a 46.759651,46.759614 89.999991 0 1 -19.0045342,-4.07551 l -18.8978148,42.4448 a 93.185525,93.185477 89.999991 0 0 37.902279,8.05643 z"
       id="path884-6-8-0-8-76-5"
       inkscape:connector-curvature="0" />
    <path
       style="fill:#296c92;fill-opacity:1;stroke:#ffffff;stroke-width:1.99549;stroke-linecap:round;stroke-linejoin:round;stroke-miterlimit:4;stroke-dasharray:none;stroke-dashoffset:0;stroke-opacity:1"
       d="M 49.994687,266.54244 31.111771,224.13052 a 46.759651,46.759614 65.999991 0 1 -19.019118,4.00685 l -1.78e-4,46.46163 a 93.185525,93.185477 65.999991 0 0 37.902263,-8.05636 z"
       id="path884-6-8-0-8-81-49"
       inkscape:connector-curvature="0" />
    <path
       style="fill:#296c92;fill-opacity:1;stroke:#ffffff;stroke-width:1.99549;stroke-linecap:round;stroke-linejoin:round;stroke-miterlimit:4;stroke-dasharray:none;stroke-dashoffset:0;stroke-opacity:1"
       d="m 81.343321,243.76638 -34.500915,-31.0649 a 46.759651,46.759614 41.999991 0 1 -15.745223,11.39605 l 18.897504,42.44491 a 93.185525,93.185477 41.999991 0 0 31.348614,-22.77616 z"
       id="path884-6-8-0-8-9-18"
       inkscape:connector-curvature="0" />
    <path
       style="fill:#296c92;fill-opacity:1;stroke:#ffffff;stroke-width:1.99549;stroke-linecap:round;stroke-linejoin:round;stroke-miterlimit:4;stroke-dasharray:none;stroke-dashoffset:0;stroke-opacity:1"
       d="M 100.73121,210.22086 56.577835,195.87446 A 46.759651,46.759614 17.999991 0 1 46.82904,212.6894 l 34.527648,31.08906 a 93.185525,93.185477 17.999991 0 0 19.374502,-33.55769 z"
       id="path884-6-8-0-8-2-18"
       inkscape:connector-curvature="0" />
    <path
       style="fill:#296c92;fill-opacity:1;stroke:#ffffff;stroke-width:1.99549;stroke-linecap:round;stroke-linejoin:round;stroke-miterlimit:4;stroke-dasharray:none;stroke-dashoffset:0;stroke-opacity:1"
       d="m 104.78155,171.68413 -46.171337,4.85267 a 46.759614,46.759651 83.999991 0 1 -2.066679,19.32644 l 44.187636,14.35763 a 93.185477,93.185525 83.999991 0 0 4.05037,-38.53674 z"
       id="path884-6-8-0-8-6-34"
       inkscape:connector-curvature="0" />
    <path
       style="fill:#296c92;fill-opacity:1;stroke:#ffffff;stroke-width:1.99549;stroke-linecap:round;stroke-linejoin:round;stroke-miterlimit:4;stroke-dasharray:none;stroke-dashoffset:0;stroke-opacity:1"
       d="M 92.825373,134.82975 52.619545,158.0425 a 46.759614,46.759651 59.999991 0 1 5.972755,18.49616 l 46.20716,-4.8564 A 93.185477,93.185525 59.999991 0 0 92.825353,134.82975 Z"
       id="path884-6-8-0-8-1-68"
       inkscape:connector-curvature="0" />
    <path
       style="fill:#296c92;fill-opacity:1;stroke:#ffffff;stroke-width:1.99549;stroke-linecap:round;stroke-linejoin:round;stroke-miterlimit:4;stroke-dasharray:none;stroke-dashoffset:0;stroke-opacity:1"
       d="m 66.912846,106.02462 -27.288374,37.5591 a 46.759614,46.759651 35.999991 0 1 12.979454,14.46775 L 92.841001,134.82078 A 93.185477,93.185525 35.999991 0 0 66.912847,106.02463 Z"
       id="path884-6-8-0-8-64-11"
       inkscape:connector-curvature="0" />
    <path
       style="fill:#296c92;fill-opacity:1;stroke:#ffffff;stroke-width:1.99549;stroke-linecap:round;stroke-linejoin:round;stroke-miterlimit:4;stroke-dasharray:none;stroke-dashoffset:0;stroke-opacity:1"
       d="m 31.524467,90.249424 -9.652512,45.411126 a 46.759614,46.759651 11.999991 0 1 17.74189,7.93772 L 66.923464,106.01008 A 93.185477,93.185525 11.999991 0 0 31.524468,90.249434 Z"
       id="path884-6-8-0-8-3-85"
       inkscape:connector-curvature="0" />
    <path
       style="fill:#296c92;fill-opacity:1;stroke:#ffffff;stroke-width:1.99549;stroke-linecap:round;stroke-linejoin:round;stroke-miterlimit:4;stroke-dasharray:none;stroke-dashoffset:0;stroke-opacity:1"
       d="m -7.2207842,90.23181 9.652364,45.41115 a 46.759651,46.759614 77.999991 0 1 19.4365862,0.0352 l 9.660092,-45.446339 a 93.185525,93.185477 77.999991 0 0 -38.7490422,-1.1e-5 z"
       id="path884-6-8-0-8-5-4"
       inkscape:connector-curvature="0" />
    <path
       style="fill:#296c92;fill-opacity:1;stroke:#ffffff;stroke-width:1.99549;stroke-linecap:round;stroke-linejoin:round;stroke-miterlimit:4;stroke-dasharray:none;stroke-dashoffset:0;stroke-opacity:1"
       d="M -42.6235,105.97483 -15.33525,143.534 A 46.759651,46.759614 53.999991 0 1 2.435284,135.6606 L -7.2244771,90.214183 A 93.185525,93.185477 53.999991 0 0 -42.6235,105.97483 Z"
       id="path884-6-8-0-8-27-61"
       inkscape:connector-curvature="0" />
    <path
       style="fill:#296c92;fill-opacity:1;stroke:#ffffff;stroke-width:1.99549;stroke-linecap:round;stroke-linejoin:round;stroke-miterlimit:4;stroke-dasharray:none;stroke-dashoffset:0;stroke-opacity:1"
       d="m -68.578639,134.80187 40.205767,23.21287 a 46.759651,46.759614 29.999991 0 1 13.031773,-14.42063 l -27.30935,-37.58839 a 93.185525,93.185477 29.999991 0 0 -25.92819,28.79615 z"
       id="path884-6-8-0-8-38-49"
       inkscape:connector-curvature="0" />
  </g>
</svg>
