<?xml version="1.0" encoding="UTF-8" standalone="no"?>
<svg
   xmlns:dc="http://purl.org/dc/elements/1.1/"
   xmlns:cc="http://creativecommons.org/ns#"
   xmlns:rdf="http://www.w3.org/1999/02/22-rdf-syntax-ns#"
   xmlns:svg="http://www.w3.org/2000/svg"
   xmlns="http://www.w3.org/2000/svg"
   xmlns:sodipodi="http://sodipodi.sourceforge.net/DTD/sodipodi-0.dtd"
   xmlns:inkscape="http://www.inkscape.org/namespaces/inkscape"
   width="188.37523mm"
   height="188.38907mm"
   viewBox="0 0 188.37522 188.38907"
   version="1.1"
   id="svg8"
   inkscape:version="1.0.2 (e86c870879, 2021-01-15)"
   sodipodi:docname="12_12_blue.svg">
  <defs
     id="defs2" />
  <sodipodi:namedview
     id="base"
     pagecolor="#ffffff"
     bordercolor="#666666"
     borderopacity="1.0"
     inkscape:pageopacity="0.0"
     inkscape:pageshadow="2"
     inkscape:zoom="0.35"
     inkscape:cx="1088.9936"
     inkscape:cy="715.0161"
     inkscape:document-units="mm"
     inkscape:current-layer="layer1"
     inkscape:document-rotation="0"
     showgrid="false"
     inkscape:window-width="2155"
     inkscape:window-height="1262"
     inkscape:window-x="138"
     inkscape:window-y="-11"
     inkscape:window-maximized="1" />
  <metadata
     id="metadata5">
    <rdf:RDF>
      <cc:Work
         rdf:about="">
        <dc:format>image/svg+xml</dc:format>
        <dc:type
           rdf:resource="http://purl.org/dc/dcmitype/StillImage" />
        <dc:title />
      </cc:Work>
    </rdf:RDF>
  </metadata>
  <g
     inkscape:label="Layer 1"
     inkscape:groupmode="layer"
     id="layer1"
     transform="translate(182.29622,41.014675)">
    <path
       style="fill:#bfd3de;fill-opacity:1;stroke:#ffffff;stroke-width:1.99549;stroke-linecap:round;stroke-linejoin:round;stroke-miterlimit:4;stroke-dasharray:none;stroke-dashoffset:0;stroke-opacity:1"
       d="m -168.79594,6.5934677 40.20574,23.2128873 a 46.759651,46.759613 29.999991 0 1 13.03176,-14.420653 l -27.30934,-37.588376 a 93.185524,93.185476 29.999991 0 0 -25.92816,28.7961417 z"
       id="path884-6-8-0-8-52"
       inkscape:connector-curvature="0" />
    <path
       style="fill:#bfd3de;fill-opacity:1;stroke:#ffffff;stroke-width:1.99549;stroke-linecap:round;stroke-linejoin:round;stroke-miterlimit:4;stroke-dasharray:none;stroke-dashoffset:0;stroke-opacity:1"
       d="m -176.7376,81.980758 44.15343,-14.346183 a 46.759614,46.759651 71.999991 0 1 -1.99667,-19.33379 l -46.20713,-4.856773 a 93.185477,93.185525 71.999991 0 0 4.05037,38.536746 z"
       id="path884-6-8-0-8-8-60"
       inkscape:connector-curvature="0" />
    <path
       style="fill:#bfd3de;fill-opacity:1;stroke:#ffffff;stroke-width:1.99549;stroke-linecap:round;stroke-linejoin:round;stroke-miterlimit:4;stroke-dasharray:none;stroke-dashoffset:0;stroke-opacity:1"
       d="m -180.77006,43.445982 46.1713,4.852884 a 46.759651,46.759614 5.999991 0 1 6.03972,-18.474418 L -168.79592,6.5934739 a 93.185525,93.185477 5.999991 0 0 -11.97412,36.8525141 z"
       id="path884-6-8-0-8-7-99"
       inkscape:connector-curvature="0" />
    <path
       style="fill:#296c92;fill-opacity:1;stroke:#ffffff;stroke-width:1.99549;stroke-linecap:round;stroke-linejoin:round;stroke-miterlimit:4;stroke-dasharray:none;stroke-dashoffset:0;stroke-opacity:1"
       d="m -157.38023,115.54391 34.50102,-31.064672 a 46.759614,46.759651 47.999991 0 1 -9.6878,-16.850223 l -44.18773,14.357296 a 93.185477,93.185525 47.999991 0 0 19.37451,33.557599 z"
       id="path884-6-8-0-8-84-04"
       inkscape:connector-curvature="0" />
    <path
       style="fill:#296c92;fill-opacity:1;stroke:#ffffff;stroke-width:1.99549;stroke-linecap:round;stroke-linejoin:round;stroke-miterlimit:4;stroke-dasharray:none;stroke-dashoffset:0;stroke-opacity:1"
       d="m -126.03162,138.32007 18.8831,-42.411982 a 46.759614,46.759651 23.999991 0 1 -15.70385,-11.452996 l -34.52786,31.088818 a 93.185477,93.185525 23.999991 0 0 31.34861,22.77616 z"
       id="path884-6-8-0-8-76-45"
       inkscape:connector-curvature="0" />
    <path
       style="fill:#296c92;fill-opacity:1;stroke:#ffffff;stroke-width:1.99549;stroke-linecap:round;stroke-linejoin:round;stroke-miterlimit:4;stroke-dasharray:none;stroke-dashoffset:0;stroke-opacity:1"
       d="m -88.129373,146.37644 8.2e-5,-46.425591 a 46.759651,46.759614 89.999991 0 1 -19.004569,-4.075324 l -18.89781,42.444735 a 93.185525,93.185477 89.999991 0 0 37.902263,8.05638 z"
       id="path884-6-8-0-8-81-491"
       inkscape:connector-curvature="0" />
    <path
       style="fill:#296c92;fill-opacity:1;stroke:#ffffff;stroke-width:1.99549;stroke-linecap:round;stroke-linejoin:round;stroke-miterlimit:4;stroke-dasharray:none;stroke-dashoffset:0;stroke-opacity:1"
       d="M -50.227111,138.32011 -69.110033,95.908128 a 46.759651,46.759614 65.999991 0 1 -19.019169,4.006653 l -1.71e-4,46.461659 a 93.185525,93.185477 65.999991 0 0 37.902283,-8.05643 z"
       id="path884-6-8-0-8-9-9"
       inkscape:connector-curvature="0" />
    <path
       style="fill:#296c92;fill-opacity:1;stroke:#ffffff;stroke-width:1.99549;stroke-linecap:round;stroke-linejoin:round;stroke-miterlimit:4;stroke-dasharray:none;stroke-dashoffset:0;stroke-opacity:1"
       d="M -18.871205,115.56053 -53.372111,84.495636 a 46.759651,46.759614 41.999991 0 1 -15.74522,11.396021 l 18.897514,42.444933 a 93.185525,93.185477 41.999991 0 0 31.348633,-22.77616 z"
       id="path884-6-8-0-8-2-7"
       inkscape:connector-curvature="0" />
    <path
       style="fill:#296c92;fill-opacity:1;stroke:#ffffff;stroke-width:1.99549;stroke-linecap:round;stroke-linejoin:round;stroke-miterlimit:4;stroke-dasharray:none;stroke-dashoffset:0;stroke-opacity:1"
       d="M 0.50326893,82.002891 -43.650108,67.656452 a 46.759651,46.759614 17.999991 0 1 -9.748776,16.814987 l 34.527641,31.089071 A 93.185525,93.185477 17.999991 0 0 0.50325942,82.002887 Z"
       id="path884-6-8-0-8-6-04"
       inkscape:connector-curvature="0" />
    <path
       style="fill:#296c92;fill-opacity:1;stroke:#ffffff;stroke-width:1.99549;stroke-linecap:round;stroke-linejoin:round;stroke-miterlimit:4;stroke-dasharray:none;stroke-dashoffset:0;stroke-opacity:1"
       d="M 4.5707832,43.471722 -41.600547,48.324446 A 46.759614,46.759651 83.999991 0 1 -43.66723,67.650868 L 0.52039436,82.008465 A 93.185477,93.185525 83.999991 0 0 4.5707641,43.471716 Z"
       id="path884-6-8-0-8-1-40"
       inkscape:connector-curvature="0" />
    <path
       style="fill:#296c92;fill-opacity:1;stroke:#ffffff;stroke-width:1.99549;stroke-linecap:round;stroke-linejoin:round;stroke-miterlimit:4;stroke-dasharray:none;stroke-dashoffset:0;stroke-opacity:1"
       d="M -7.3853881,6.6173558 -47.59122,29.830119 a 46.759614,46.759651 59.999991 0 1 5.97276,18.496161 L 4.5887093,43.469881 A 93.185477,93.185525 59.999991 0 0 -7.3853911,6.6173653 Z"
       id="path884-6-8-0-8-64-85"
       inkscape:connector-curvature="0" />
    <path
       style="fill:#296c92;fill-opacity:1;stroke:#ffffff;stroke-width:1.99549;stroke-linecap:round;stroke-linejoin:round;stroke-miterlimit:4;stroke-dasharray:none;stroke-dashoffset:0;stroke-opacity:1"
       d="m -33.297929,-22.187755 -27.288378,37.559098 a 46.759614,46.759651 35.999991 0 1 12.97946,14.467746 L -7.3697721,6.6083864 A 93.185477,93.185525 35.999991 0 0 -33.297932,-22.187746 Z"
       id="path884-6-8-0-8-3-1"
       inkscape:connector-curvature="0" />
    <path
       style="fill:#296c92;fill-opacity:1;stroke:#ffffff;stroke-width:1.99549;stroke-linecap:round;stroke-linejoin:round;stroke-miterlimit:4;stroke-dasharray:none;stroke-dashoffset:0;stroke-opacity:1"
       d="m -68.686314,-37.96296 -9.652504,45.4111175 a 46.759614,46.759651 11.999991 0 1 17.741885,7.9377345 l 27.309626,-37.588186 A 93.185477,93.185525 11.999991 0 0 -68.686314,-37.96296 Z"
       id="path884-6-8-0-8-5-67"
       inkscape:connector-curvature="0" />
    <path
       style="fill:#296c92;fill-opacity:1;stroke:#ffffff;stroke-width:1.99549;stroke-linecap:round;stroke-linejoin:round;stroke-miterlimit:4;stroke-dasharray:none;stroke-dashoffset:0;stroke-opacity:1"
       d="m -107.43157,-37.980576 9.652368,45.4111434 a 46.759651,46.759614 77.999991 0 1 19.436593,0.035211 l 9.660091,-45.4463445 a 93.185525,93.185477 77.999991 0 0 -38.749052,-10e-6 z"
       id="path884-6-8-0-8-27-67"
       inkscape:connector-curvature="0" />
    <path
       style="fill:#296c92;fill-opacity:1;stroke:#ffffff;stroke-width:1.99549;stroke-linecap:round;stroke-linejoin:round;stroke-miterlimit:4;stroke-dasharray:none;stroke-dashoffset:0;stroke-opacity:1"
       d="m -142.86778,-22.202674 27.28827,37.559177 A 46.759651,46.759614 53.999991 0 1 -97.808992,7.4830928 L -107.46875,-37.96332 a 93.185525,93.185477 53.999991 0 0 -35.39903,15.760646 z"
       id="path884-6-8-0-8-38-88"
       inkscape:connector-curvature="0" />
  </g>
</svg>
