<?xml version="1.0" encoding="UTF-8" standalone="no"?>
<svg
   xmlns:dc="http://purl.org/dc/elements/1.1/"
   xmlns:cc="http://creativecommons.org/ns#"
   xmlns:rdf="http://www.w3.org/1999/02/22-rdf-syntax-ns#"
   xmlns:svg="http://www.w3.org/2000/svg"
   xmlns="http://www.w3.org/2000/svg"
   xmlns:sodipodi="http://sodipodi.sourceforge.net/DTD/sodipodi-0.dtd"
   xmlns:inkscape="http://www.inkscape.org/namespaces/inkscape"
   width="188.39835mm"
   height="188.36079mm"
   viewBox="0 0 188.39834 188.3608"
   version="1.1"
   id="svg8"
   inkscape:version="1.0.2 (e86c870879, 2021-01-15)"
   sodipodi:docname="12_14_blue.svg">
  <defs
     id="defs2" />
  <sodipodi:namedview
     id="base"
     pagecolor="#ffffff"
     bordercolor="#666666"
     borderopacity="1.0"
     inkscape:pageopacity="0.0"
     inkscape:pageshadow="2"
     inkscape:zoom="0.35"
     inkscape:cx="903.90757"
     inkscape:cy="515.52934"
     inkscape:document-units="mm"
     inkscape:current-layer="layer1"
     inkscape:document-rotation="0"
     showgrid="false"
     inkscape:window-width="2155"
     inkscape:window-height="1262"
     inkscape:window-x="138"
     inkscape:window-y="-11"
     inkscape:window-maximized="1" />
  <metadata
     id="metadata5">
    <rdf:RDF>
      <cc:Work
         rdf:about="">
        <dc:format>image/svg+xml</dc:format>
        <dc:type
           rdf:resource="http://purl.org/dc/dcmitype/StillImage" />
        <dc:title />
      </cc:Work>
    </rdf:RDF>
  </metadata>
  <g
     inkscape:label="Layer 1"
     inkscape:groupmode="layer"
     id="layer1"
     transform="translate(133.32555,-11.766198)">
    <path
       style="fill:#bfd3de;fill-opacity:1;stroke:#ffffff;stroke-width:1.99549;stroke-linecap:round;stroke-linejoin:round;stroke-miterlimit:4;stroke-dasharray:none;stroke-dashoffset:0;stroke-opacity:1"
       d="m -58.489931,14.8003 9.652356,45.411143 a 46.759651,46.759613 77.999991 0 1 19.43658,0.03518 L -19.7409,14.8003 a 93.185524,93.185476 77.999991 0 0 -38.749031,0 z"
       id="path884-6-8-0-8-30"
       inkscape:connector-curvature="0" />
    <path
       style="fill:#bfd3de;fill-opacity:1;stroke:#ffffff;stroke-width:1.99549;stroke-linecap:round;stroke-linejoin:round;stroke-miterlimit:4;stroke-dasharray:none;stroke-dashoffset:0;stroke-opacity:1"
       d="m -119.82761,59.342443 40.2057,23.21292 a 46.759651,46.759614 29.999991 0 1 13.03177,-14.420648 l -27.309314,-37.5884 a 93.185525,93.185477 29.999991 0 0 -25.928156,28.796128 z"
       id="path884-6-8-0-8-8-4"
       inkscape:connector-curvature="0" />
    <path
       style="fill:#bfd3de;fill-opacity:1;stroke:#ffffff;stroke-width:1.99549;stroke-linecap:round;stroke-linejoin:round;stroke-miterlimit:4;stroke-dasharray:none;stroke-dashoffset:0;stroke-opacity:1"
       d="M -93.888935,30.560942 -66.6007,68.120118 a 46.759651,46.759614 53.999991 0 1 17.770525,-7.873417 L -58.489923,14.800319 A 93.185525,93.185477 53.999991 0 0 -93.888927,30.56096 Z"
       id="path884-6-8-0-8-7-0"
       inkscape:connector-curvature="0" />
    <path
       style="fill:#296c92;fill-opacity:1;stroke:#ffffff;stroke-width:1.99549;stroke-linecap:round;stroke-linejoin:round;stroke-miterlimit:4;stroke-dasharray:none;stroke-dashoffset:0;stroke-opacity:1"
       d="m -131.81729,96.185899 46.17124,4.852931 a 46.759651,46.759614 5.999991 0 1 6.039753,-18.474436 L -119.84321,59.333418 a 93.185525,93.185477 5.999991 0 0 -11.97408,36.852481 z"
       id="path884-6-8-0-8-84-45"
       inkscape:connector-curvature="0" />
    <path
       style="fill:#296c92;fill-opacity:1;stroke:#ffffff;stroke-width:1.99549;stroke-linecap:round;stroke-linejoin:round;stroke-miterlimit:4;stroke-dasharray:none;stroke-dashoffset:0;stroke-opacity:1"
       d="m -127.76696,134.72268 44.153509,-14.34627 a 46.759614,46.759651 71.999991 0 1 -1.996692,-19.33378 l -46.207147,-4.856731 a 93.185477,93.185525 71.999991 0 0 4.05033,38.536781 z"
       id="path884-6-8-0-8-76-351"
       inkscape:connector-curvature="0" />
    <path
       style="fill:#296c92;fill-opacity:1;stroke:#ffffff;stroke-width:1.99549;stroke-linecap:round;stroke-linejoin:round;stroke-miterlimit:4;stroke-dasharray:none;stroke-dashoffset:0;stroke-opacity:1"
       d="m -108.39246,168.28031 34.500999,-31.06473 a 46.759614,46.759651 47.999991 0 1 -9.687981,-16.85006 l -44.187688,14.35726 a 93.185477,93.185525 47.999991 0 0 19.3745,33.55764 z"
       id="path884-6-8-0-8-81-589"
       inkscape:connector-curvature="0" />
    <path
       style="fill:#296c92;fill-opacity:1;stroke:#ffffff;stroke-width:1.99549;stroke-linecap:round;stroke-linejoin:round;stroke-miterlimit:4;stroke-dasharray:none;stroke-dashoffset:0;stroke-opacity:1"
       d="m -77.043872,191.05644 18.883105,-42.4119 a 46.759614,46.759651 23.999991 0 1 -15.703831,-11.45302 l -34.527862,31.08879 a 93.185477,93.185525 23.999991 0 0 31.348675,22.77608 z"
       id="path884-6-8-0-8-9-87"
       inkscape:connector-curvature="0" />
    <path
       style="fill:#296c92;fill-opacity:1;stroke:#ffffff;stroke-width:1.99549;stroke-linecap:round;stroke-linejoin:round;stroke-miterlimit:4;stroke-dasharray:none;stroke-dashoffset:0;stroke-opacity:1"
       d="m -39.149007,199.12929 10e-5,-46.42564 a 46.759651,46.759614 89.999991 0 1 -19.004502,-4.07555 l -18.89783,42.44479 a 93.185525,93.185477 89.999991 0 0 37.902319,8.05635 z"
       id="path884-6-8-0-8-2-14"
       inkscape:connector-curvature="0" />
    <path
       style="fill:#296c92;fill-opacity:1;stroke:#ffffff;stroke-width:1.99549;stroke-linecap:round;stroke-linejoin:round;stroke-miterlimit:4;stroke-dasharray:none;stroke-dashoffset:0;stroke-opacity:1"
       d="m -1.2467703,191.07289 -18.8828947,-42.412 a 46.759651,46.759614 65.999991 0 1 -19.019174,4.00667 l -1.85e-4,46.46169 a 93.185525,93.185477 65.999991 0 0 37.9022497,-8.05637 z"
       id="path884-6-8-0-8-6-47"
       inkscape:connector-curvature="0" />
    <path
       style="fill:#296c92;fill-opacity:1;stroke:#ffffff;stroke-width:1.99549;stroke-linecap:round;stroke-linejoin:round;stroke-miterlimit:4;stroke-dasharray:none;stroke-dashoffset:0;stroke-opacity:1"
       d="M 30.109167,168.31325 -4.3917598,137.24837 a 46.759651,46.759614 41.999991 0 1 -15.7452122,11.39606 l 18.8975179,42.44491 A 93.185525,93.185477 41.999991 0 0 30.109158,168.31323 Z"
       id="path884-6-8-0-8-1-2"
       inkscape:connector-curvature="0" />
    <path
       style="fill:#296c92;fill-opacity:1;stroke:#ffffff;stroke-width:1.99549;stroke-linecap:round;stroke-linejoin:round;stroke-miterlimit:4;stroke-dasharray:none;stroke-dashoffset:0;stroke-opacity:1"
       d="M 49.497058,134.7677 5.3436605,120.42132 a 46.759651,46.759614 17.999991 0 1 -9.7487699,16.81497 l 34.5276384,31.08905 a 93.185525,93.185477 17.999991 0 0 19.37452,-33.55763 z"
       id="path884-6-8-0-8-64-09"
       inkscape:connector-curvature="0" />
    <path
       style="fill:#296c92;fill-opacity:1;stroke:#ffffff;stroke-width:1.99549;stroke-linecap:round;stroke-linejoin:round;stroke-miterlimit:4;stroke-dasharray:none;stroke-dashoffset:0;stroke-opacity:1"
       d="m 53.564553,96.23655 -46.1713389,4.85273 a 46.759614,46.759651 83.999991 0 1 -2.066676,19.32643 l 44.1876349,14.3576 a 93.185477,93.185525 83.999991 0 0 4.050371,-38.536756 z"
       id="path884-6-8-0-8-3-19"
       inkscape:connector-curvature="0" />
    <path
       style="fill:#296c92;fill-opacity:1;stroke:#ffffff;stroke-width:1.99549;stroke-linecap:round;stroke-linejoin:round;stroke-miterlimit:4;stroke-dasharray:none;stroke-dashoffset:0;stroke-opacity:1"
       d="M 41.608363,59.382182 1.4025404,82.594942 a 46.759614,46.759651 59.999991 0 1 5.972752,18.496168 L 53.582465,96.234715 A 93.185477,93.185525 59.999991 0 0 41.608363,59.382182 Z"
       id="path884-6-8-0-8-5-00"
       inkscape:connector-curvature="0" />
    <path
       style="fill:#296c92;fill-opacity:1;stroke:#ffffff;stroke-width:1.99549;stroke-linecap:round;stroke-linejoin:round;stroke-miterlimit:4;stroke-dasharray:none;stroke-dashoffset:0;stroke-opacity:1"
       d="M 15.695819,30.57706 -11.592544,68.136151 A 46.759614,46.759651 35.999991 0 1 1.386909,82.603916 L 41.623987,59.373223 A 93.185477,93.185525 35.999991 0 0 15.695819,30.57706 Z"
       id="path884-6-8-0-8-27-19"
       inkscape:connector-curvature="0" />
    <path
       style="fill:#296c92;fill-opacity:1;stroke:#ffffff;stroke-width:1.99549;stroke-linecap:round;stroke-linejoin:round;stroke-miterlimit:4;stroke-dasharray:none;stroke-dashoffset:0;stroke-opacity:1"
       d="m -19.7409,14.8003 -9.652492,45.411131 a 46.759614,46.759651 11.999991 0 1 17.741881,7.937729 L 15.658116,30.560975 A 93.185477,93.185525 11.999991 0 0 -19.7409,14.8003 Z"
       id="path884-6-8-0-8-38-5"
       inkscape:connector-curvature="0" />
  </g>
</svg>
