<?xml version="1.0" encoding="UTF-8" standalone="no"?>
<svg
   xmlns:dc="http://purl.org/dc/elements/1.1/"
   xmlns:cc="http://creativecommons.org/ns#"
   xmlns:rdf="http://www.w3.org/1999/02/22-rdf-syntax-ns#"
   xmlns:svg="http://www.w3.org/2000/svg"
   xmlns="http://www.w3.org/2000/svg"
   xmlns:sodipodi="http://sodipodi.sourceforge.net/DTD/sodipodi-0.dtd"
   xmlns:inkscape="http://www.inkscape.org/namespaces/inkscape"
   width="188.39841mm"
   height="188.37508mm"
   viewBox="0 0 188.3984 188.37508"
   version="1.1"
   id="svg8"
   inkscape:version="1.0.2 (e86c870879, 2021-01-15)"
   sodipodi:docname="12_13_blue.svg">
  <defs
     id="defs2" />
  <sodipodi:namedview
     id="base"
     pagecolor="#ffffff"
     bordercolor="#666666"
     borderopacity="1.0"
     inkscape:pageopacity="0.0"
     inkscape:pageshadow="2"
     inkscape:zoom="0.35"
     inkscape:cx="1087.8792"
     inkscape:cy="693.85765"
     inkscape:document-units="mm"
     inkscape:current-layer="layer1"
     inkscape:document-rotation="0"
     showgrid="false"
     inkscape:window-width="2155"
     inkscape:window-height="1262"
     inkscape:window-x="138"
     inkscape:window-y="-11"
     inkscape:window-maximized="1" />
  <metadata
     id="metadata5">
    <rdf:RDF>
      <cc:Work
         rdf:about="">
        <dc:format>image/svg+xml</dc:format>
        <dc:type
           rdf:resource="http://purl.org/dc/dcmitype/StillImage" />
        <dc:title />
      </cc:Work>
    </rdf:RDF>
  </metadata>
  <g
     inkscape:label="Layer 1"
     inkscape:groupmode="layer"
     id="layer1"
     transform="translate(182.00138,35.416501)">
    <path
       style="fill:#bfd3de;fill-opacity:1;stroke:#ffffff;stroke-width:1.99549;stroke-linecap:round;stroke-linejoin:round;stroke-miterlimit:4;stroke-dasharray:none;stroke-dashoffset:0;stroke-opacity:1"
       d="m -142.55738,-16.621753 27.28825,37.559177 a 46.759651,46.759613 53.999991 0 1 17.770505,-7.873429 l -9.659755,-45.446399 a 93.185524,93.185476 53.999991 0 0 -35.399,15.760651 z"
       id="path884-6-8-0-8-94"
       inkscape:connector-curvature="0" />
    <path
       style="fill:#bfd3de;fill-opacity:1;stroke:#ffffff;stroke-width:1.99549;stroke-linecap:round;stroke-linejoin:round;stroke-miterlimit:4;stroke-dasharray:none;stroke-dashoffset:0;stroke-opacity:1"
       d="m -180.47521,49.017801 46.17128,4.852926 a 46.759651,46.759614 5.999991 0 1 6.03971,-18.474416 L -168.5011,12.165298 a 93.185525,93.185477 5.999991 0 0 -11.97411,36.852503 z"
       id="path884-6-8-0-8-8-66"
       inkscape:connector-curvature="0" />
    <path
       style="fill:#bfd3de;fill-opacity:1;stroke:#ffffff;stroke-width:1.99549;stroke-linecap:round;stroke-linejoin:round;stroke-miterlimit:4;stroke-dasharray:none;stroke-dashoffset:0;stroke-opacity:1"
       d="m -168.48555,12.174382 40.20574,23.212889 a 46.759651,46.759614 29.999991 0 1 13.03178,-14.420648 l -27.30933,-37.588362 a 93.185525,93.185477 29.999991 0 0 -25.92817,28.796134 z"
       id="path884-6-8-0-8-7-32"
       inkscape:connector-curvature="0" />
    <path
       style="fill:#296c92;fill-opacity:1;stroke:#ffffff;stroke-width:1.99549;stroke-linecap:round;stroke-linejoin:round;stroke-miterlimit:4;stroke-dasharray:none;stroke-dashoffset:0;stroke-opacity:1"
       d="m -176.44275,87.552614 44.1534,-14.346159 A 46.759614,46.759651 71.999991 0 1 -134.286,53.872627 l -46.20713,-4.856726 a 93.185477,93.185525 71.999991 0 0 4.05038,38.536713 z"
       id="path884-6-8-0-8-84-2"
       inkscape:connector-curvature="0" />
    <path
       style="fill:#296c92;fill-opacity:1;stroke:#ffffff;stroke-width:1.99549;stroke-linecap:round;stroke-linejoin:round;stroke-miterlimit:4;stroke-dasharray:none;stroke-dashoffset:0;stroke-opacity:1"
       d="m -157.06826,121.1103 34.50108,-31.064821 a 46.759614,46.759651 47.999991 0 1 -9.68783,-16.850164 l -44.18774,14.357299 a 93.185477,93.185525 47.999991 0 0 19.37449,33.557686 z"
       id="path884-6-8-0-8-76-47"
       inkscape:connector-curvature="0" />
    <path
       style="fill:#296c92;fill-opacity:1;stroke:#ffffff;stroke-width:1.99549;stroke-linecap:round;stroke-linejoin:round;stroke-miterlimit:4;stroke-dasharray:none;stroke-dashoffset:0;stroke-opacity:1"
       d="m -125.71966,143.8864 18.88307,-42.41186 a 46.759614,46.759651 23.999991 0 1 -15.70395,-11.452846 l -34.52784,31.088766 a 93.185477,93.185525 23.999991 0 0 31.34861,22.77611 z"
       id="path884-6-8-0-8-81-58"
       inkscape:connector-curvature="0" />
    <path
       style="fill:#296c92;fill-opacity:1;stroke:#ffffff;stroke-width:1.99549;stroke-linecap:round;stroke-linejoin:round;stroke-miterlimit:4;stroke-dasharray:none;stroke-dashoffset:0;stroke-opacity:1"
       d="m -87.817413,151.94281 1e-4,-46.42565 a 46.759651,46.759614 89.999991 0 1 -19.004527,-4.07553 l -18.89782,42.44477 a 93.185525,93.185477 89.999991 0 0 37.902306,8.05633 z"
       id="path884-6-8-0-8-9-37"
       inkscape:connector-curvature="0" />
    <path
       style="fill:#296c92;fill-opacity:1;stroke:#ffffff;stroke-width:1.99549;stroke-linecap:round;stroke-linejoin:round;stroke-miterlimit:4;stroke-dasharray:none;stroke-dashoffset:0;stroke-opacity:1"
       d="m -49.91521,143.90449 -18.882917,-42.41197 a 46.759651,46.759614 65.999991 0 1 -19.019153,4.00663 l -1.73e-4,46.46169 a 93.185525,93.185477 65.999991 0 0 37.902302,-8.05643 z"
       id="path884-6-8-0-8-2-51"
       inkscape:connector-curvature="0" />
    <path
       style="fill:#296c92;fill-opacity:1;stroke:#ffffff;stroke-width:1.99549;stroke-linecap:round;stroke-linejoin:round;stroke-miterlimit:4;stroke-dasharray:none;stroke-dashoffset:0;stroke-opacity:1"
       d="M -18.566627,121.12838 -53.067522,90.063455 a 46.759651,46.759614 41.999991 0 1 -15.745221,11.396075 l 18.897503,42.44494 a 93.185525,93.185477 41.999991 0 0 31.348605,-22.7761 z"
       id="path884-6-8-0-8-6-4"
       inkscape:connector-curvature="0" />
    <path
       style="fill:#296c92;fill-opacity:1;stroke:#ffffff;stroke-width:1.99549;stroke-linecap:round;stroke-linejoin:round;stroke-miterlimit:4;stroke-dasharray:none;stroke-dashoffset:0;stroke-opacity:1"
       d="M 0.82127015,87.582808 -43.332119,73.23642 a 46.759651,46.759614 17.999991 0 1 -9.748773,16.814969 L -18.55325,121.14043 A 93.185525,93.185477 17.999991 0 0 0.82125529,87.582795 Z"
       id="path884-6-8-0-8-1-601"
       inkscape:connector-curvature="0" />
    <path
       style="fill:#296c92;fill-opacity:1;stroke:#ffffff;stroke-width:1.99549;stroke-linecap:round;stroke-linejoin:round;stroke-miterlimit:4;stroke-dasharray:none;stroke-dashoffset:0;stroke-opacity:1"
       d="M 4.8887854,49.051657 -41.282551,53.904386 A 46.759614,46.759651 83.999991 0 1 -43.34923,73.23081 L 0.83839514,87.588418 A 93.185477,93.185525 83.999991 0 0 4.8887787,49.051664 Z"
       id="path884-6-8-0-8-64-7"
       inkscape:connector-curvature="0" />
    <path
       style="fill:#296c92;fill-opacity:1;stroke:#ffffff;stroke-width:1.99549;stroke-linecap:round;stroke-linejoin:round;stroke-miterlimit:4;stroke-dasharray:none;stroke-dashoffset:0;stroke-opacity:1"
       d="M -7.0674047,12.197298 -47.27324,35.410059 a 46.759614,46.759651 59.999991 0 1 5.972765,18.496166 L 4.9066995,49.049814 A 93.185477,93.185525 59.999991 0 0 -7.0674114,12.197306 Z"
       id="path884-6-8-0-8-3-7"
       inkscape:connector-curvature="0" />
    <path
       style="fill:#296c92;fill-opacity:1;stroke:#ffffff;stroke-width:1.99549;stroke-linecap:round;stroke-linejoin:round;stroke-miterlimit:4;stroke-dasharray:none;stroke-dashoffset:0;stroke-opacity:1"
       d="m -32.979949,-16.607821 -27.288367,37.559093 a 46.759614,46.759651 35.999991 0 1 12.979451,14.467756 L -7.0517868,12.188337 A 93.185477,93.185525 35.999991 0 0 -32.979949,-16.607821 Z"
       id="path884-6-8-0-8-5-59"
       inkscape:connector-curvature="0" />
    <path
       style="fill:#296c92;fill-opacity:1;stroke:#ffffff;stroke-width:1.99549;stroke-linecap:round;stroke-linejoin:round;stroke-miterlimit:4;stroke-dasharray:none;stroke-dashoffset:0;stroke-opacity:1"
       d="m -68.368334,-32.383029 -9.652502,45.411115 a 46.759614,46.759651 11.999991 0 1 17.74189,7.937742 l 27.309626,-37.588189 a 93.185477,93.185525 11.999991 0 0 -35.399014,-15.760668 z"
       id="path884-6-8-0-8-27-677"
       inkscape:connector-curvature="0" />
    <path
       style="fill:#296c92;fill-opacity:1;stroke:#ffffff;stroke-width:1.99549;stroke-linecap:round;stroke-linejoin:round;stroke-miterlimit:4;stroke-dasharray:none;stroke-dashoffset:0;stroke-opacity:1"
       d="m -107.15838,-32.382404 9.652385,45.411154 a 46.759651,46.759614 77.999991 0 1 19.436581,0.0352 l 9.660093,-45.446342 a 93.185525,93.185477 77.999991 0 0 -38.749059,-1.6e-5 z"
       id="path884-6-8-0-8-38-6"
       inkscape:connector-curvature="0" />
  </g>
</svg>
