<?xml version="1.0" encoding="UTF-8" standalone="no"?>
<svg
   xmlns:dc="http://purl.org/dc/elements/1.1/"
   xmlns:cc="http://creativecommons.org/ns#"
   xmlns:rdf="http://www.w3.org/1999/02/22-rdf-syntax-ns#"
   xmlns:svg="http://www.w3.org/2000/svg"
   xmlns="http://www.w3.org/2000/svg"
   xmlns:sodipodi="http://sodipodi.sourceforge.net/DTD/sodipodi-0.dtd"
   xmlns:inkscape="http://www.inkscape.org/namespaces/inkscape"
   width="188.37155mm"
   height="188.41249mm"
   viewBox="0 0 188.37155 188.41249"
   version="1.1"
   id="svg8"
   inkscape:version="1.0.2 (e86c870879, 2021-01-15)"
   sodipodi:docname="12_2_blue.svg">
  <defs
     id="defs2" />
  <sodipodi:namedview
     id="base"
     pagecolor="#ffffff"
     bordercolor="#666666"
     borderopacity="1.0"
     inkscape:pageopacity="0.0"
     inkscape:pageshadow="2"
     inkscape:zoom="0.35"
     inkscape:cx="-102.31202"
     inkscape:cy="237.78256"
     inkscape:document-units="mm"
     inkscape:current-layer="layer1"
     inkscape:document-rotation="0"
     showgrid="false"
     inkscape:window-width="2155"
     inkscape:window-height="1262"
     inkscape:window-x="138"
     inkscape:window-y="-11"
     inkscape:window-maximized="1" />
  <metadata
     id="metadata5">
    <rdf:RDF>
      <cc:Work
         rdf:about="">
        <dc:format>image/svg+xml</dc:format>
        <dc:type
           rdf:resource="http://purl.org/dc/dcmitype/StillImage" />
        <dc:title />
      </cc:Work>
    </rdf:RDF>
  </metadata>
  <g
     inkscape:label="Layer 1"
     inkscape:groupmode="layer"
     id="layer1"
     transform="translate(-132.90339,-85.253365)">
    <path
       style="fill:#bfd3de;fill-opacity:1;stroke:#ffffff;stroke-width:1.99549;stroke-linecap:round;stroke-linejoin:round;stroke-miterlimit:4;stroke-dasharray:none;stroke-dashoffset:0;stroke-opacity:1"
       d="m 307.79258,132.8764 -40.20582,23.21275 a 46.759613,46.759651 59.999991 0 1 5.97278,18.49616 l 46.20715,-4.85639 A 93.185476,93.185524 59.999991 0 0 307.79258,132.8764 Z"
       id="path884-6-8-0-8-83"
       inkscape:connector-curvature="0" />
    <path
       style="fill:#bfd3de;fill-opacity:1;stroke:#ffffff;stroke-width:1.99549;stroke-linecap:round;stroke-linejoin:round;stroke-miterlimit:4;stroke-dasharray:none;stroke-dashoffset:0;stroke-opacity:1"
       d="m 246.4761,88.305079 -9.65255,45.411081 a 46.759614,46.759651 11.999991 0 1 17.74189,7.93772 l 27.30965,-37.58815 A 93.185477,93.185525 11.999991 0 0 246.4761,88.305079 Z"
       id="path884-6-8-0-8-8-3"
       inkscape:connector-curvature="0" />
    <path
       style="fill:#bfd3de;fill-opacity:1;stroke:#ffffff;stroke-width:1.99549;stroke-linecap:round;stroke-linejoin:round;stroke-miterlimit:4;stroke-dasharray:none;stroke-dashoffset:0;stroke-opacity:1"
       d="m 281.86443,104.08025 -27.28837,37.55908 a 46.759614,46.759651 35.999991 0 1 12.97946,14.46775 l 40.23705,-23.23067 a 93.185477,93.185525 35.999991 0 0 -25.92815,-28.79614 z"
       id="path884-6-8-0-8-7-4"
       inkscape:connector-curvature="0" />
    <path
       style="fill:#296c92;fill-opacity:1;stroke:#ffffff;stroke-width:1.99549;stroke-linecap:round;stroke-linejoin:round;stroke-miterlimit:4;stroke-dasharray:none;stroke-dashoffset:0;stroke-opacity:1"
       d="m 207.73088,88.287471 9.65229,45.411099 a 46.759651,46.759614 77.999991 0 1 19.43662,0.0352 l 9.66008,-45.446346 a 93.185525,93.185477 77.999991 0 0 -38.74899,1.7e-5 z"
       id="path884-6-8-0-8-84-5"
       inkscape:connector-curvature="0" />
    <path
       style="fill:#296c92;fill-opacity:1;stroke:#ffffff;stroke-width:1.99549;stroke-linecap:round;stroke-linejoin:round;stroke-miterlimit:4;stroke-dasharray:none;stroke-dashoffset:0;stroke-opacity:1"
       d="m 172.33184,104.04809 27.2883,37.55924 a 46.759651,46.759614 53.999991 0 1 17.77051,-7.87344 l -9.65977,-45.446419 a 93.185525,93.185477 53.999991 0 0 -35.39904,15.760619 z"
       id="path884-6-8-0-8-76-4"
       inkscape:connector-curvature="0" />
    <path
       style="fill:#296c92;fill-opacity:1;stroke:#ffffff;stroke-width:1.99549;stroke-linecap:round;stroke-linejoin:round;stroke-miterlimit:4;stroke-dasharray:none;stroke-dashoffset:0;stroke-opacity:1"
       d="m 146.40369,132.84421 40.20571,23.21287 A 46.759651,46.759614 29.999991 0 1 199.64101,141.6363 L 172.3317,104.04795 a 93.185525,93.185477 29.999991 0 0 -25.92816,28.79613 z"
       id="path884-6-8-0-8-81-5"
       inkscape:connector-curvature="0" />
    <path
       style="fill:#296c92;fill-opacity:1;stroke:#ffffff;stroke-width:1.99549;stroke-linecap:round;stroke-linejoin:round;stroke-miterlimit:4;stroke-dasharray:none;stroke-dashoffset:0;stroke-opacity:1"
       d="m 134.42955,169.6967 46.17132,4.8529 a 46.759651,46.759614 5.999991 0 1 6.03972,-18.47441 l -40.2369,-23.23098 a 93.185525,93.185477 5.999991 0 0 -11.97407,36.85255 z"
       id="path884-6-8-0-8-9-1"
       inkscape:connector-curvature="0" />
    <path
       style="fill:#296c92;fill-opacity:1;stroke:#ffffff;stroke-width:1.99549;stroke-linecap:round;stroke-linejoin:round;stroke-miterlimit:4;stroke-dasharray:none;stroke-dashoffset:0;stroke-opacity:1"
       d="m 138.46198,208.2315 44.15343,-14.34621 a 46.759614,46.759651 71.999991 0 1 -1.99663,-19.33378 l -46.20715,-4.85674 a 93.185477,93.185525 71.999991 0 0 4.05042,38.5368 z"
       id="path884-6-8-0-8-2-6"
       inkscape:connector-curvature="0" />
    <path
       style="fill:#296c92;fill-opacity:1;stroke:#ffffff;stroke-width:1.99549;stroke-linecap:round;stroke-linejoin:round;stroke-miterlimit:4;stroke-dasharray:none;stroke-dashoffset:0;stroke-opacity:1"
       d="m 157.8365,241.78911 34.50107,-31.06473 a 46.759614,46.759651 47.999991 0 1 -9.68782,-16.85018 l -44.18774,14.35727 a 93.185477,93.185525 47.999991 0 0 19.3745,33.55763 z"
       id="path884-6-8-0-8-6-1"
       inkscape:connector-curvature="0" />
    <path
       style="fill:#296c92;fill-opacity:1;stroke:#ffffff;stroke-width:1.99549;stroke-linecap:round;stroke-linejoin:round;stroke-miterlimit:4;stroke-dasharray:none;stroke-dashoffset:0;stroke-opacity:1"
       d="m 189.17172,264.57726 18.88308,-42.41191 a 46.759614,46.759651 23.999991 0 1 -15.70383,-11.45301 l -34.52786,31.08881 a 93.185477,93.185525 23.999991 0 0 31.34862,22.7761 z"
       id="path884-6-8-0-8-1-1"
       inkscape:connector-curvature="0" />
    <path
       style="fill:#296c92;fill-opacity:1;stroke:#ffffff;stroke-width:1.99549;stroke-linecap:round;stroke-linejoin:round;stroke-miterlimit:4;stroke-dasharray:none;stroke-dashoffset:0;stroke-opacity:1"
       d="m 227.06662,272.6501 7e-5,-46.42566 a 46.759651,46.759614 89.999991 0 1 -19.00452,-4.07552 l -18.89782,42.44479 a 93.185525,93.185477 89.999991 0 0 37.90226,8.05638 z"
       id="path884-6-8-0-8-64-2"
       inkscape:connector-curvature="0" />
    <path
       style="fill:#296c92;fill-opacity:1;stroke:#ffffff;stroke-width:1.99549;stroke-linecap:round;stroke-linejoin:round;stroke-miterlimit:4;stroke-dasharray:none;stroke-dashoffset:0;stroke-opacity:1"
       d="M 264.96885,264.61173 246.0859,222.19975 a 46.759651,46.759614 65.999991 0 1 -19.01916,4.00667 l -1.6e-4,46.46168 a 93.185525,93.185477 65.999991 0 0 37.90226,-8.05638 z"
       id="path884-6-8-0-8-3-0"
       inkscape:connector-curvature="0" />
    <path
       style="fill:#296c92;fill-opacity:1;stroke:#ffffff;stroke-width:1.99549;stroke-linecap:round;stroke-linejoin:round;stroke-miterlimit:4;stroke-dasharray:none;stroke-dashoffset:0;stroke-opacity:1"
       d="m 296.32477,241.85209 -34.50093,-31.06487 a 46.759651,46.759614 41.999991 0 1 -15.74522,11.39606 l 18.89751,42.44492 a 93.185525,93.185477 41.999991 0 0 31.34864,-22.77611 z"
       id="path884-6-8-0-8-5-8"
       inkscape:connector-curvature="0" />
    <path
       style="fill:#296c92;fill-opacity:1;stroke:#ffffff;stroke-width:1.99549;stroke-linecap:round;stroke-linejoin:round;stroke-miterlimit:4;stroke-dasharray:none;stroke-dashoffset:0;stroke-opacity:1"
       d="m 315.71265,208.30653 -44.15338,-14.34638 a 46.759651,46.759614 17.999991 0 1 -9.74879,16.81498 l 34.52764,31.08905 a 93.185525,93.185477 17.999991 0 0 19.37453,-33.55765 z"
       id="path884-6-8-0-8-27-8"
       inkscape:connector-curvature="0" />
    <path
       style="fill:#296c92;fill-opacity:1;stroke:#ffffff;stroke-width:1.99549;stroke-linecap:round;stroke-linejoin:round;stroke-miterlimit:4;stroke-dasharray:none;stroke-dashoffset:0;stroke-opacity:1"
       d="m 319.76669,169.72892 -46.17133,4.85274 a 46.759614,46.759651 83.999991 0 1 -2.06669,19.32643 l 44.18763,14.35761 a 93.185477,93.185525 83.999991 0 0 4.05039,-38.53678 z"
       id="path884-6-8-0-8-38-2"
       inkscape:connector-curvature="0" />
  </g>
</svg>
