<?xml version="1.0" encoding="UTF-8" standalone="no"?>
<svg
   xmlns:dc="http://purl.org/dc/elements/1.1/"
   xmlns:cc="http://creativecommons.org/ns#"
   xmlns:rdf="http://www.w3.org/1999/02/22-rdf-syntax-ns#"
   xmlns:svg="http://www.w3.org/2000/svg"
   xmlns="http://www.w3.org/2000/svg"
   xmlns:sodipodi="http://sodipodi.sourceforge.net/DTD/sodipodi-0.dtd"
   xmlns:inkscape="http://www.inkscape.org/namespaces/inkscape"
   width="188.35735mm"
   height="188.41089mm"
   viewBox="0 0 188.35734 188.41089"
   version="1.1"
   id="svg8"
   inkscape:version="1.0.2 (e86c870879, 2021-01-15)"
   sodipodi:docname="12_3_blue.svg">
  <defs
     id="defs2" />
  <sodipodi:namedview
     id="base"
     pagecolor="#ffffff"
     bordercolor="#666666"
     borderopacity="1.0"
     inkscape:pageopacity="0.0"
     inkscape:pageshadow="2"
     inkscape:zoom="0.35"
     inkscape:cx="-189.21828"
     inkscape:cy="-117.59396"
     inkscape:document-units="mm"
     inkscape:current-layer="layer1"
     inkscape:document-rotation="0"
     showgrid="false"
     inkscape:window-width="2155"
     inkscape:window-height="1262"
     inkscape:window-x="138"
     inkscape:window-y="-11"
     inkscape:window-maximized="1" />
  <metadata
     id="metadata5">
    <rdf:RDF>
      <cc:Work
         rdf:about="">
        <dc:format>image/svg+xml</dc:format>
        <dc:type
           rdf:resource="http://purl.org/dc/dcmitype/StillImage" />
        <dc:title />
      </cc:Work>
    </rdf:RDF>
  </metadata>
  <g
     inkscape:label="Layer 1"
     inkscape:groupmode="layer"
     id="layer1"
     transform="translate(-155.89734,-179.28007)">
    <path
       style="fill:#bfd3de;fill-opacity:1;stroke:#ffffff;stroke-width:1.99549;stroke-linecap:round;stroke-linejoin:round;stroke-miterlimit:4;stroke-dasharray:none;stroke-dashoffset:0;stroke-opacity:1"
       d="m 342.74644,263.74697 -46.17133,4.85272 a 46.759613,46.759651 83.999991 0 1 -2.06666,19.32643 l 44.18761,14.35761 a 93.185476,93.185524 83.999991 0 0 4.05038,-38.53676 z"
       id="path884-6-8-0-8-54"
       inkscape:connector-curvature="0" />
    <path
       style="fill:#bfd3de;fill-opacity:1;stroke:#ffffff;stroke-width:1.99549;stroke-linecap:round;stroke-linejoin:round;stroke-miterlimit:4;stroke-dasharray:none;stroke-dashoffset:0;stroke-opacity:1"
       d="m 304.85983,198.08939 -27.28839,37.55903 a 46.759614,46.759651 35.999991 0 1 12.97946,14.46775 l 40.23708,-23.23065 a 93.185477,93.185525 35.999991 0 0 -25.92815,-28.79613 z"
       id="path884-6-8-0-8-8-9"
       inkscape:connector-curvature="0" />
    <path
       style="fill:#bfd3de;fill-opacity:1;stroke:#ffffff;stroke-width:1.99549;stroke-linecap:round;stroke-linejoin:round;stroke-miterlimit:4;stroke-dasharray:none;stroke-dashoffset:0;stroke-opacity:1"
       d="m 330.77234,226.89445 -40.20582,23.21275 a 46.759614,46.759651 59.999991 0 1 5.97276,18.49617 l 46.20714,-4.85639 a 93.185477,93.185525 59.999991 0 0 -11.9741,-36.85252 z"
       id="path884-6-8-0-8-7-5"
       inkscape:connector-curvature="0" />
    <path
       style="fill:#296c92;fill-opacity:1;stroke:#ffffff;stroke-width:1.99549;stroke-linecap:round;stroke-linejoin:round;stroke-miterlimit:4;stroke-dasharray:none;stroke-dashoffset:0;stroke-opacity:1"
       d="m 269.47147,182.3142 -9.65255,45.41104 a 46.759614,46.759651 11.999991 0 1 17.7419,7.93777 l 27.30962,-37.58819 A 93.185477,93.185525 11.999991 0 0 269.47147,182.3142 Z"
       id="path884-6-8-0-8-84-1"
       inkscape:connector-curvature="0" />
    <path
       style="fill:#296c92;fill-opacity:1;stroke:#ffffff;stroke-width:1.99549;stroke-linecap:round;stroke-linejoin:round;stroke-miterlimit:4;stroke-dasharray:none;stroke-dashoffset:0;stroke-opacity:1"
       d="m 230.72242,182.31415 9.65239,45.41122 a 46.759651,46.759614 77.999991 0 1 19.43658,0.0352 l 9.66008,-45.44635 a 93.185525,93.185477 77.999991 0 0 -38.74905,-5e-5 z"
       id="path884-6-8-0-8-76-35"
       inkscape:connector-curvature="0" />
    <path
       style="fill:#296c92;fill-opacity:1;stroke:#ffffff;stroke-width:1.99549;stroke-linecap:round;stroke-linejoin:round;stroke-miterlimit:4;stroke-dasharray:none;stroke-dashoffset:0;stroke-opacity:1"
       d="m 195.32344,198.07479 27.28821,37.55914 a 46.759651,46.759614 53.999991 0 1 17.77044,-7.87359 l -9.65975,-45.44637 a 93.185525,93.185477 53.999991 0 0 -35.39899,15.76064 z"
       id="path884-6-8-0-8-81-4"
       inkscape:connector-curvature="0" />
    <path
       style="fill:#296c92;fill-opacity:1;stroke:#ffffff;stroke-width:1.99549;stroke-linecap:round;stroke-linejoin:round;stroke-miterlimit:4;stroke-dasharray:none;stroke-dashoffset:0;stroke-opacity:1"
       d="M 169.39526,226.87089 209.601,250.0838 a 46.759651,46.759614 29.999991 0 1 13.03178,-14.42064 l -27.30934,-37.58837 a 93.185525,93.185477 29.999991 0 0 -25.92814,28.79619 z"
       id="path884-6-8-0-8-9-8"
       inkscape:connector-curvature="0" />
    <path
       style="fill:#296c92;fill-opacity:1;stroke:#ffffff;stroke-width:1.99549;stroke-linecap:round;stroke-linejoin:round;stroke-miterlimit:4;stroke-dasharray:none;stroke-dashoffset:0;stroke-opacity:1"
       d="m 157.40555,263.71432 46.1713,4.8529 a 46.759651,46.759614 5.999991 0 1 6.03974,-18.47438 l -40.23692,-23.231 a 93.185525,93.185477 5.999991 0 0 -11.97408,36.85257 z"
       id="path884-6-8-0-8-2-1"
       inkscape:connector-curvature="0" />
    <path
       style="fill:#296c92;fill-opacity:1;stroke:#ffffff;stroke-width:1.99549;stroke-linecap:round;stroke-linejoin:round;stroke-miterlimit:4;stroke-dasharray:none;stroke-dashoffset:0;stroke-opacity:1"
       d="m 161.45595,302.25105 44.15346,-14.34619 a 46.759614,46.759651 71.999991 0 1 -1.99668,-19.3338 l -46.20715,-4.85675 a 93.185477,93.185525 71.999991 0 0 4.05038,38.53673 z"
       id="path884-6-8-0-8-6-6"
       inkscape:connector-curvature="0" />
    <path
       style="fill:#296c92;fill-opacity:1;stroke:#ffffff;stroke-width:1.99549;stroke-linecap:round;stroke-linejoin:round;stroke-miterlimit:4;stroke-dasharray:none;stroke-dashoffset:0;stroke-opacity:1"
       d="m 180.81332,335.81424 34.50103,-31.06476 a 46.759614,46.759651 47.999991 0 1 -9.68781,-16.85017 l -44.18772,14.35729 a 93.185477,93.185525 47.999991 0 0 19.37452,33.55764 z"
       id="path884-6-8-0-8-1-6"
       inkscape:connector-curvature="0" />
    <path
       style="fill:#296c92;fill-opacity:1;stroke:#ffffff;stroke-width:1.99549;stroke-linecap:round;stroke-linejoin:round;stroke-miterlimit:4;stroke-dasharray:none;stroke-dashoffset:0;stroke-opacity:1"
       d="m 212.14851,358.60239 18.88309,-42.41192 a 46.759614,46.759651 23.999991 0 1 -15.70384,-11.453 l -34.52786,31.0888 a 93.185477,93.185525 23.999991 0 0 31.34861,22.77611 z"
       id="path884-6-8-0-8-64-9"
       inkscape:connector-curvature="0" />
    <path
       style="fill:#296c92;fill-opacity:1;stroke:#ffffff;stroke-width:1.99549;stroke-linecap:round;stroke-linejoin:round;stroke-miterlimit:4;stroke-dasharray:none;stroke-dashoffset:0;stroke-opacity:1"
       d="m 250.04342,366.6752 8e-5,-46.42565 a 46.759651,46.759614 89.999991 0 1 -19.00453,-4.07552 l -18.89782,42.44479 a 93.185525,93.185477 89.999991 0 0 37.90227,8.05637 z"
       id="path884-6-8-0-8-3-4"
       inkscape:connector-curvature="0" />
    <path
       style="fill:#296c92;fill-opacity:1;stroke:#ffffff;stroke-width:1.99549;stroke-linecap:round;stroke-linejoin:round;stroke-miterlimit:4;stroke-dasharray:none;stroke-dashoffset:0;stroke-opacity:1"
       d="m 287.94566,358.63684 -18.88295,-42.41196 a 46.759651,46.759614 65.999991 0 1 -19.01917,4.00665 l -1.7e-4,46.46168 a 93.185525,93.185477 65.999991 0 0 37.90229,-8.05637 z"
       id="path884-6-8-0-8-5-80"
       inkscape:connector-curvature="0" />
    <path
       style="fill:#296c92;fill-opacity:1;stroke:#ffffff;stroke-width:1.99549;stroke-linecap:round;stroke-linejoin:round;stroke-miterlimit:4;stroke-dasharray:none;stroke-dashoffset:0;stroke-opacity:1"
       d="m 319.30158,335.87721 -34.50093,-31.06487 a 46.759651,46.759614 41.999991 0 1 -15.74523,11.39605 l 18.89751,42.44493 a 93.185525,93.185477 41.999991 0 0 31.34865,-22.77611 z"
       id="path884-6-8-0-8-27-9"
       inkscape:connector-curvature="0" />
    <path
       style="fill:#296c92;fill-opacity:1;stroke:#ffffff;stroke-width:1.99549;stroke-linecap:round;stroke-linejoin:round;stroke-miterlimit:4;stroke-dasharray:none;stroke-dashoffset:0;stroke-opacity:1"
       d="m 338.69606,302.28373 -44.1534,-14.34637 a 46.759651,46.759614 17.999991 0 1 -9.74878,16.81497 l 34.52764,31.08906 a 93.185525,93.185477 17.999991 0 0 19.37454,-33.55766 z"
       id="path884-6-8-0-8-38-1"
       inkscape:connector-curvature="0" />
  </g>
</svg>
