<?xml version="1.0" encoding="UTF-8" standalone="no"?>
<svg
   xmlns:dc="http://purl.org/dc/elements/1.1/"
   xmlns:cc="http://creativecommons.org/ns#"
   xmlns:rdf="http://www.w3.org/1999/02/22-rdf-syntax-ns#"
   xmlns:svg="http://www.w3.org/2000/svg"
   xmlns="http://www.w3.org/2000/svg"
   xmlns:sodipodi="http://sodipodi.sourceforge.net/DTD/sodipodi-0.dtd"
   xmlns:inkscape="http://www.inkscape.org/namespaces/inkscape"
   width="188.36288mm"
   height="188.40364mm"
   viewBox="0 0 188.36288 188.40364"
   version="1.1"
   id="svg8"
   inkscape:version="1.0.2 (e86c870879, 2021-01-15)"
   sodipodi:docname="12_4_blue.svg">
  <defs
     id="defs2" />
  <sodipodi:namedview
     id="base"
     pagecolor="#ffffff"
     bordercolor="#666666"
     borderopacity="1.0"
     inkscape:pageopacity="0.0"
     inkscape:pageshadow="2"
     inkscape:zoom="0.35"
     inkscape:cx="1295.3145"
     inkscape:cy="784.1587"
     inkscape:document-units="mm"
     inkscape:current-layer="layer1"
     inkscape:document-rotation="0"
     showgrid="false"
     inkscape:window-width="2155"
     inkscape:window-height="1262"
     inkscape:window-x="138"
     inkscape:window-y="-11"
     inkscape:window-maximized="1" />
  <metadata
     id="metadata5">
    <rdf:RDF>
      <cc:Work
         rdf:about="">
        <dc:format>image/svg+xml</dc:format>
        <dc:type
           rdf:resource="http://purl.org/dc/dcmitype/StillImage" />
        <dc:title />
      </cc:Work>
    </rdf:RDF>
  </metadata>
  <g
     inkscape:label="Layer 1"
     inkscape:groupmode="layer"
     id="layer1"
     transform="translate(236.8853,59.308656)">
    <path
       style="fill:#bfd3de;fill-opacity:1;stroke:#ffffff;stroke-width:1.99549;stroke-linecap:round;stroke-linejoin:round;stroke-miterlimit:4;stroke-dasharray:none;stroke-dashoffset:0;stroke-opacity:1"
       d="M -54.081022,63.682505 -98.234403,49.336119 a 46.759651,46.759613 17.999991 0 1 -9.748757,16.814982 l 34.527623,31.089049 a 93.185524,93.185476 17.999991 0 0 19.374515,-33.557645 z"
       id="path884-6-8-0-8-0"
       inkscape:connector-curvature="0" />
    <path
       style="fill:#bfd3de;fill-opacity:1;stroke:#ffffff;stroke-width:1.99549;stroke-linecap:round;stroke-linejoin:round;stroke-miterlimit:4;stroke-dasharray:none;stroke-dashoffset:0;stroke-opacity:1"
       d="m -61.986809,-11.708555 -40.205831,23.212699 a 46.759614,46.759651 59.999991 0 1 5.972765,18.496167 l 46.207165,-4.856359 a 93.185477,93.185525 59.999991 0 0 -11.974099,-36.852507 z"
       id="path884-6-8-0-8-8-6"
       inkscape:connector-curvature="0" />
    <path
       style="fill:#bfd3de;fill-opacity:1;stroke:#ffffff;stroke-width:1.99549;stroke-linecap:round;stroke-linejoin:round;stroke-miterlimit:4;stroke-dasharray:none;stroke-dashoffset:0;stroke-opacity:1"
       d="m -50.030636,25.145748 -46.171318,4.852716 a 46.759614,46.759651 83.999991 0 1 -2.066684,19.326435 l 44.187596,14.357604 a 93.185477,93.185525 83.999991 0 0 4.050386,-38.536757 z"
       id="path884-6-8-0-8-7-3"
       inkscape:connector-curvature="0" />
    <path
       style="fill:#296c92;fill-opacity:1;stroke:#ffffff;stroke-width:1.99549;stroke-linecap:round;stroke-linejoin:round;stroke-miterlimit:4;stroke-dasharray:none;stroke-dashoffset:0;stroke-opacity:1"
       d="m -87.899339,-40.513649 -27.288381,37.5589997 a 46.759614,46.759651 35.999991 0 1 12.97945,14.4677983 l 40.237077,-23.2307 a 93.185477,93.185525 35.999991 0 0 -25.928146,-28.796098 z"
       id="path884-6-8-0-8-84-42"
       inkscape:connector-curvature="0" />
    <path
       style="fill:#296c92;fill-opacity:1;stroke:#ffffff;stroke-width:1.99549;stroke-linecap:round;stroke-linejoin:round;stroke-miterlimit:4;stroke-dasharray:none;stroke-dashoffset:0;stroke-opacity:1"
       d="m -123.29834,-56.27435 -9.65252,45.411194 a 46.759614,46.759651 11.999991 0 1 17.7419,7.9377066 L -87.899339,-40.513649 A 93.185477,93.185525 11.999991 0 0 -123.29834,-56.27435 Z"
       id="path884-6-8-0-8-76-8"
       inkscape:connector-curvature="0" />
    <path
       style="fill:#296c92;fill-opacity:1;stroke:#ffffff;stroke-width:1.99549;stroke-linecap:round;stroke-linejoin:round;stroke-miterlimit:4;stroke-dasharray:none;stroke-dashoffset:0;stroke-opacity:1"
       d="m -162.04735,-56.274355 9.65235,45.411102 a 46.759651,46.759614 77.999991 0 1 19.43657,0.035 l 9.66009,-45.446295 a 93.185525,93.185477 77.999991 0 0 -38.74902,-6e-6 z"
       id="path884-6-8-0-8-81-1"
       inkscape:connector-curvature="0" />
    <path
       style="fill:#296c92;fill-opacity:1;stroke:#ffffff;stroke-width:1.99549;stroke-linecap:round;stroke-linejoin:round;stroke-miterlimit:4;stroke-dasharray:none;stroke-dashoffset:0;stroke-opacity:1"
       d="m -197.44635,-40.51375 27.28823,37.5592004 a 46.759651,46.759614 53.999991 0 1 17.77053,-7.8734054 l -9.65976,-45.4464 a 93.185525,93.185477 53.999991 0 0 -35.399,15.760706 z"
       id="path884-6-8-0-8-9-0"
       inkscape:connector-curvature="0" />
    <path
       style="fill:#296c92;fill-opacity:1;stroke:#ffffff;stroke-width:1.99549;stroke-linecap:round;stroke-linejoin:round;stroke-miterlimit:4;stroke-dasharray:none;stroke-dashoffset:0;stroke-opacity:1"
       d="m -223.38507,-11.732256 40.20573,23.212906 a 46.759651,46.759614 29.999991 0 1 13.03179,-14.4206056 l -27.30936,-37.5883984 a 93.185525,93.185477 29.999991 0 0 -25.92816,28.796198 z"
       id="path884-6-8-0-8-2-3"
       inkscape:connector-curvature="0" />
    <path
       style="fill:#296c92;fill-opacity:1;stroke:#ffffff;stroke-width:1.99549;stroke-linecap:round;stroke-linejoin:round;stroke-miterlimit:4;stroke-dasharray:none;stroke-dashoffset:0;stroke-opacity:1"
       d="m -235.35914,25.120244 46.17131,4.852931 a 46.759651,46.759614 5.999991 0 1 6.03971,-18.474423 l -40.23691,-23.231004 a 93.185525,93.185477 5.999991 0 0 -11.9741,36.852497 z"
       id="path884-6-8-0-8-6-9"
       inkscape:connector-curvature="0" />
    <path
       style="fill:#296c92;fill-opacity:1;stroke:#ffffff;stroke-width:1.99549;stroke-linecap:round;stroke-linejoin:round;stroke-miterlimit:4;stroke-dasharray:none;stroke-dashoffset:0;stroke-opacity:1"
       d="m -231.32669,63.655098 44.15344,-14.346239 a 46.759614,46.759651 71.999991 0 1 -1.99667,-19.333781 l -46.20713,-4.856726 a 93.185477,93.185525 71.999991 0 0 4.05038,38.536748 z"
       id="path884-6-8-0-8-1-13"
       inkscape:connector-curvature="0" />
    <path
       style="fill:#296c92;fill-opacity:1;stroke:#ffffff;stroke-width:1.99549;stroke-linecap:round;stroke-linejoin:round;stroke-miterlimit:4;stroke-dasharray:none;stroke-dashoffset:0;stroke-opacity:1"
       d="m -211.96933,97.21828 34.50103,-31.064771 a 46.759614,46.759651 47.999991 0 1 -9.68781,-16.850169 l -44.18773,14.357286 a 93.185477,93.185525 47.999991 0 0 19.37451,33.557644 z"
       id="path884-6-8-0-8-64-4"
       inkscape:connector-curvature="0" />
    <path
       style="fill:#296c92;fill-opacity:1;stroke:#ffffff;stroke-width:1.99549;stroke-linecap:round;stroke-linejoin:round;stroke-miterlimit:4;stroke-dasharray:none;stroke-dashoffset:0;stroke-opacity:1"
       d="m -180.63412,120.00641 18.88308,-42.411915 A 46.759614,46.759651 23.999991 0 1 -177.45488,66.141486 L -211.98274,97.2303 a 93.185477,93.185525 23.999991 0 0 31.34862,22.7761 z"
       id="path884-6-8-0-8-3-6"
       inkscape:connector-curvature="0" />
    <path
       style="fill:#296c92;fill-opacity:1;stroke:#ffffff;stroke-width:1.99549;stroke-linecap:round;stroke-linejoin:round;stroke-miterlimit:4;stroke-dasharray:none;stroke-dashoffset:0;stroke-opacity:1"
       d="m -142.73921,128.07923 7e-5,-46.425644 a 46.759651,46.759614 89.999991 0 1 -19.00453,-4.07553 l -18.89782,42.444784 a 93.185525,93.185477 89.999991 0 0 37.90228,8.05639 z"
       id="path884-6-8-0-8-5-0"
       inkscape:connector-curvature="0" />
    <path
       style="fill:#296c92;fill-opacity:1;stroke:#ffffff;stroke-width:1.99549;stroke-linecap:round;stroke-linejoin:round;stroke-miterlimit:4;stroke-dasharray:none;stroke-dashoffset:0;stroke-opacity:1"
       d="m -104.83697,120.04087 -18.88295,-42.411961 a 46.759651,46.759614 65.999991 0 1 -19.01918,4.006653 l -1.6e-4,46.461678 a 93.185525,93.185477 65.999991 0 0 37.90229,-8.05637 z"
       id="path884-6-8-0-8-27-97"
       inkscape:connector-curvature="0" />
    <path
       style="fill:#296c92;fill-opacity:1;stroke:#ffffff;stroke-width:1.99549;stroke-linecap:round;stroke-linejoin:round;stroke-miterlimit:4;stroke-dasharray:none;stroke-dashoffset:0;stroke-opacity:1"
       d="M -73.455537,97.24015 -107.95648,66.175282 a 46.759651,46.759614 41.999991 0 1 -15.74522,11.396055 l 18.89751,42.444923 a 93.185525,93.185477 41.999991 0 0 31.348653,-22.77611 z"
       id="path884-6-8-0-8-38-85"
       inkscape:connector-curvature="0" />
  </g>
</svg>
