<?xml version="1.0" encoding="UTF-8" standalone="no"?>
<svg
   xmlns:dc="http://purl.org/dc/elements/1.1/"
   xmlns:cc="http://creativecommons.org/ns#"
   xmlns:rdf="http://www.w3.org/1999/02/22-rdf-syntax-ns#"
   xmlns:svg="http://www.w3.org/2000/svg"
   xmlns="http://www.w3.org/2000/svg"
   xmlns:sodipodi="http://sodipodi.sourceforge.net/DTD/sodipodi-0.dtd"
   xmlns:inkscape="http://www.inkscape.org/namespaces/inkscape"
   width="188.38725mm"
   height="188.37335mm"
   viewBox="0 0 188.38725 188.37335"
   version="1.1"
   id="svg8"
   inkscape:version="1.0.2 (e86c870879, 2021-01-15)"
   sodipodi:docname="12_5_blue.svg">
  <defs
     id="defs2" />
  <sodipodi:namedview
     id="base"
     pagecolor="#ffffff"
     bordercolor="#666666"
     borderopacity="1.0"
     inkscape:pageopacity="0.0"
     inkscape:pageshadow="2"
     inkscape:zoom="0.35"
     inkscape:cx="1162.7505"
     inkscape:cy="522.99695"
     inkscape:document-units="mm"
     inkscape:current-layer="layer1"
     inkscape:document-rotation="0"
     showgrid="false"
     inkscape:window-width="2155"
     inkscape:window-height="1262"
     inkscape:window-x="138"
     inkscape:window-y="-11"
     inkscape:window-maximized="1" />
  <metadata
     id="metadata5">
    <rdf:RDF>
      <cc:Work
         rdf:about="">
        <dc:format>image/svg+xml</dc:format>
        <dc:type
           rdf:resource="http://purl.org/dc/dcmitype/StillImage" />
        <dc:title />
      </cc:Work>
    </rdf:RDF>
  </metadata>
  <g
     inkscape:label="Layer 1"
     inkscape:groupmode="layer"
     id="layer1"
     transform="translate(201.81106,-9.7903917)">
    <path
       style="fill:#bfd3de;fill-opacity:1;stroke:#ffffff;stroke-width:1.99549;stroke-linecap:round;stroke-linejoin:round;stroke-miterlimit:4;stroke-dasharray:none;stroke-dashoffset:0;stroke-opacity:1"
       d="m -38.374071,166.32438 -34.50092,-31.06488 a 46.759651,46.759613 41.999991 0 1 -15.745203,11.39608 l 18.897499,42.44491 a 93.185524,93.185476 41.999991 0 0 31.348624,-22.77611 z"
       id="path884-6-8-0-8-4"
       inkscape:connector-curvature="0" />
    <path
       style="fill:#bfd3de;fill-opacity:1;stroke:#ffffff;stroke-width:1.99549;stroke-linecap:round;stroke-linejoin:round;stroke-miterlimit:4;stroke-dasharray:none;stroke-dashoffset:0;stroke-opacity:1"
       d="m -14.93206,94.235643 -46.171308,4.852671 a 46.759614,46.759651 83.999991 0 1 -2.066678,19.326436 l 44.187605,14.35764 a 93.185477,93.185525 83.999991 0 0 4.050381,-38.536747 z"
       id="path884-6-8-0-8-8-0"
       inkscape:connector-curvature="0" />
    <path
       style="fill:#bfd3de;fill-opacity:1;stroke:#ffffff;stroke-width:1.99549;stroke-linecap:round;stroke-linejoin:round;stroke-miterlimit:4;stroke-dasharray:none;stroke-dashoffset:0;stroke-opacity:1"
       d="m -18.999547,132.76674 -44.153376,-14.34639 a 46.759651,46.759614 17.999991 0 1 -9.748779,16.81498 l 34.527614,31.08904 a 93.185525,93.185477 17.999991 0 0 19.374523,-33.55764 z"
       id="path884-6-8-0-8-7-2"
       inkscape:connector-curvature="0" />
    <path
       style="fill:#296c92;fill-opacity:1;stroke:#ffffff;stroke-width:1.99549;stroke-linecap:round;stroke-linejoin:round;stroke-miterlimit:4;stroke-dasharray:none;stroke-dashoffset:0;stroke-opacity:1"
       d="m -26.888246,57.381305 -40.2058,23.212668 a 46.759614,46.759651 59.999991 0 1 5.972739,18.496212 l 46.207172,-4.856409 A 93.185477,93.185525 59.999991 0 0 -26.888246,57.381305 Z"
       id="path884-6-8-0-8-84-8"
       inkscape:connector-curvature="0" />
    <path
       style="fill:#296c92;fill-opacity:1;stroke:#ffffff;stroke-width:1.99549;stroke-linecap:round;stroke-linejoin:round;stroke-miterlimit:4;stroke-dasharray:none;stroke-dashoffset:0;stroke-opacity:1"
       d="M -52.816385,28.585119 -80.104797,66.144275 A 46.759614,46.759651 35.999991 0 1 -67.125325,80.61201 L -26.888246,57.381305 A 93.185477,93.185525 35.999991 0 0 -52.816385,28.585119 Z"
       id="path884-6-8-0-8-76-46"
       inkscape:connector-curvature="0" />
    <path
       style="fill:#296c92;fill-opacity:1;stroke:#ffffff;stroke-width:1.99549;stroke-linecap:round;stroke-linejoin:round;stroke-miterlimit:4;stroke-dasharray:none;stroke-dashoffset:0;stroke-opacity:1"
       d="m -88.215366,12.824472 -9.652504,45.411067 a 46.759614,46.759651 11.999991 0 1 17.741963,7.93754 l 27.309605,-37.588144 a 93.185477,93.185525 11.999991 0 0 -35.39899,-15.760651 z"
       id="path884-6-8-0-8-81-8"
       inkscape:connector-curvature="0" />
    <path
       style="fill:#296c92;fill-opacity:1;stroke:#ffffff;stroke-width:1.99549;stroke-linecap:round;stroke-linejoin:round;stroke-miterlimit:4;stroke-dasharray:none;stroke-dashoffset:0;stroke-opacity:1"
       d="m -126.96438,12.82443 9.65234,45.411161 a 46.759651,46.759614 77.999991 0 1 19.436583,0.03521 l 9.660091,-45.446328 a 93.185525,93.185477 77.999991 0 0 -38.749054,5e-5 z"
       id="path884-6-8-0-8-9-6"
       inkscape:connector-curvature="0" />
    <path
       style="fill:#296c92;fill-opacity:1;stroke:#ffffff;stroke-width:1.99549;stroke-linecap:round;stroke-linejoin:round;stroke-miterlimit:4;stroke-dasharray:none;stroke-dashoffset:0;stroke-opacity:1"
       d="m -162.36707,28.567405 27.28823,37.559189 a 46.759651,46.759614 53.999991 0 1 17.77051,-7.873375 l -9.65976,-45.446426 a 93.185525,93.185477 53.999991 0 0 -35.39902,15.760703 z"
       id="path884-6-8-0-8-2-5"
       inkscape:connector-curvature="0" />
    <path
       style="fill:#296c92;fill-opacity:1;stroke:#ffffff;stroke-width:1.99549;stroke-linecap:round;stroke-linejoin:round;stroke-miterlimit:4;stroke-dasharray:none;stroke-dashoffset:0;stroke-opacity:1"
       d="m -188.29519,57.363546 40.20573,23.212938 a 46.759651,46.759614 29.999991 0 1 13.03177,-14.420655 l -27.30934,-37.588404 a 93.185525,93.185477 29.999991 0 0 -25.92815,28.796126 z"
       id="path884-6-8-0-8-6-7"
       inkscape:connector-curvature="0" />
    <path
       style="fill:#296c92;fill-opacity:1;stroke:#ffffff;stroke-width:1.99549;stroke-linecap:round;stroke-linejoin:round;stroke-miterlimit:4;stroke-dasharray:none;stroke-dashoffset:0;stroke-opacity:1"
       d="m -200.2849,94.207032 46.17132,4.85288 a 46.759651,46.759614 5.999991 0 1 6.03971,-18.474406 l -40.23691,-23.230974 a 93.185525,93.185477 5.999991 0 0 -11.9741,36.85251 z"
       id="path884-6-8-0-8-1-10"
       inkscape:connector-curvature="0" />
    <path
       style="fill:#296c92;fill-opacity:1;stroke:#ffffff;stroke-width:1.99549;stroke-linecap:round;stroke-linejoin:round;stroke-miterlimit:4;stroke-dasharray:none;stroke-dashoffset:0;stroke-opacity:1"
       d="m -196.25245,132.74187 44.15344,-14.34625 a 46.759614,46.759651 71.999991 0 1 -1.99667,-19.333778 l -46.20713,-4.856736 a 93.185477,93.185525 71.999991 0 0 4.05037,38.536754 z"
       id="path884-6-8-0-8-64-0"
       inkscape:connector-curvature="0" />
    <path
       style="fill:#296c92;fill-opacity:1;stroke:#ffffff;stroke-width:1.99549;stroke-linecap:round;stroke-linejoin:round;stroke-miterlimit:4;stroke-dasharray:none;stroke-dashoffset:0;stroke-opacity:1"
       d="m -176.89508,166.30504 34.50104,-31.06477 a 46.759614,46.759651 47.999991 0 1 -9.68782,-16.85017 l -44.18773,14.3573 a 93.185477,93.185525 47.999991 0 0 19.37452,33.55763 z"
       id="path884-6-8-0-8-3-5"
       inkscape:connector-curvature="0" />
    <path
       style="fill:#296c92;fill-opacity:1;stroke:#ffffff;stroke-width:1.99549;stroke-linecap:round;stroke-linejoin:round;stroke-miterlimit:4;stroke-dasharray:none;stroke-dashoffset:0;stroke-opacity:1"
       d="m -145.55986,189.09318 18.88307,-42.41191 a 46.759614,46.759651 23.999991 0 1 -15.70383,-11.45302 l -34.52787,31.0888 a 93.185477,93.185525 23.999991 0 0 31.34863,22.77613 z"
       id="path884-6-8-0-8-5-6"
       inkscape:connector-curvature="0" />
    <path
       style="fill:#296c92;fill-opacity:1;stroke:#ffffff;stroke-width:1.99549;stroke-linecap:round;stroke-linejoin:round;stroke-miterlimit:4;stroke-dasharray:none;stroke-dashoffset:0;stroke-opacity:1"
       d="m -107.66495,197.166 7e-5,-46.42564 a 46.759651,46.759614 89.999991 0 1 -19.00454,-4.07554 l -18.89782,42.44479 a 93.185525,93.185477 89.999991 0 0 37.90229,8.05639 z"
       id="path884-6-8-0-8-27-1"
       inkscape:connector-curvature="0" />
    <path
       style="fill:#296c92;fill-opacity:1;stroke:#ffffff;stroke-width:1.99549;stroke-linecap:round;stroke-linejoin:round;stroke-miterlimit:4;stroke-dasharray:none;stroke-dashoffset:0;stroke-opacity:1"
       d="m -69.722695,189.10049 -18.882963,-42.41197 a 46.759651,46.759614 65.999991 0 1 -19.019162,4.00666 l -1.7e-4,46.46167 a 93.185525,93.185477 65.999991 0 0 37.902295,-8.05636 z"
       id="path884-6-8-0-8-38-0"
       inkscape:connector-curvature="0" />
  </g>
</svg>
