<?xml version="1.0" encoding="UTF-8" standalone="no"?>
<svg
   xmlns:dc="http://purl.org/dc/elements/1.1/"
   xmlns:cc="http://creativecommons.org/ns#"
   xmlns:rdf="http://www.w3.org/1999/02/22-rdf-syntax-ns#"
   xmlns:svg="http://www.w3.org/2000/svg"
   xmlns="http://www.w3.org/2000/svg"
   xmlns:sodipodi="http://sodipodi.sourceforge.net/DTD/sodipodi-0.dtd"
   xmlns:inkscape="http://www.inkscape.org/namespaces/inkscape"
   width="188.4082mm"
   height="188.36794mm"
   viewBox="0 0 188.4082 188.36793"
   version="1.1"
   id="svg8"
   inkscape:version="1.0.2 (e86c870879, 2021-01-15)"
   sodipodi:docname="12_6_blue.svg">
  <defs
     id="defs2" />
  <sodipodi:namedview
     id="base"
     pagecolor="#ffffff"
     bordercolor="#666666"
     borderopacity="1.0"
     inkscape:pageopacity="0.0"
     inkscape:pageshadow="2"
     inkscape:zoom="0.35"
     inkscape:cx="1153.0832"
     inkscape:cy="496.1107"
     inkscape:document-units="mm"
     inkscape:current-layer="layer1"
     inkscape:document-rotation="0"
     showgrid="false"
     inkscape:window-width="2155"
     inkscape:window-height="1262"
     inkscape:window-x="138"
     inkscape:window-y="-11"
     inkscape:window-maximized="1" />
  <metadata
     id="metadata5">
    <rdf:RDF>
      <cc:Work
         rdf:about="">
        <dc:format>image/svg+xml</dc:format>
        <dc:type
           rdf:resource="http://purl.org/dc/dcmitype/StillImage" />
        <dc:title />
      </cc:Work>
    </rdf:RDF>
  </metadata>
  <g
     inkscape:label="Layer 1"
     inkscape:groupmode="layer"
     id="layer1"
     transform="translate(199.25326,-16.904045)">
    <path
       style="fill:#bfd3de;fill-opacity:1;stroke:#ffffff;stroke-width:1.99549;stroke-linecap:round;stroke-linejoin:round;stroke-miterlimit:4;stroke-dasharray:none;stroke-dashoffset:0;stroke-opacity:1"
       d="m -67.157263,196.21786 -18.882936,-42.41197 a 46.759651,46.759613 65.999991 0 1 -19.019161,4.00668 l -1.7e-4,46.46166 a 93.185524,93.185476 65.999991 0 0 37.902267,-8.05637 z"
       id="path884-6-8-0-8-14"
       inkscape:connector-curvature="0" />
    <path
       style="fill:#bfd3de;fill-opacity:1;stroke:#ffffff;stroke-width:1.99549;stroke-linecap:round;stroke-linejoin:round;stroke-miterlimit:4;stroke-dasharray:none;stroke-dashoffset:0;stroke-opacity:1"
       d="m -16.420791,139.89625 -44.153348,-14.34643 a 46.759651,46.759614 17.999991 0 1 -9.748772,16.81498 l 34.527607,31.08908 a 93.185525,93.185477 17.999991 0 0 19.374513,-33.55763 z"
       id="path884-6-8-0-8-8-5"
       inkscape:connector-curvature="0" />
    <path
       style="fill:#bfd3de;fill-opacity:1;stroke:#ffffff;stroke-width:1.99549;stroke-linecap:round;stroke-linejoin:round;stroke-miterlimit:4;stroke-dasharray:none;stroke-dashoffset:0;stroke-opacity:1"
       d="m -35.808634,173.44176 -34.500913,-31.06488 a 46.759651,46.759614 41.999991 0 1 -15.745222,11.39606 l 18.897494,42.4449 a 93.185525,93.185477 41.999991 0 0 31.34863,-22.7761 z"
       id="path884-6-8-0-8-7-52"
       inkscape:connector-curvature="0" />
    <path
       style="fill:#296c92;fill-opacity:1;stroke:#ffffff;stroke-width:1.99549;stroke-linecap:round;stroke-linejoin:round;stroke-miterlimit:4;stroke-dasharray:none;stroke-dashoffset:0;stroke-opacity:1"
       d="m -12.353301,101.36511 -46.171269,4.85266 a 46.759614,46.759651 83.999991 0 1 -2.066718,19.32646 l 44.187632,14.3576 a 93.185477,93.185525 83.999991 0 0 4.050355,-38.53672 z"
       id="path884-6-8-0-8-84-6"
       inkscape:connector-curvature="0" />
    <path
       style="fill:#296c92;fill-opacity:1;stroke:#ffffff;stroke-width:1.99549;stroke-linecap:round;stroke-linejoin:round;stroke-miterlimit:4;stroke-dasharray:none;stroke-dashoffset:0;stroke-opacity:1"
       d="m -24.32737,64.512564 -40.20589,23.2128 a 46.759614,46.759651 59.999991 0 1 5.972779,18.496156 l 46.20718,-4.85641 A 93.185477,93.185525 59.999991 0 0 -24.32737,64.512564 Z"
       id="path884-6-8-0-8-76-34"
       inkscape:connector-curvature="0" />
    <path
       style="fill:#296c92;fill-opacity:1;stroke:#ffffff;stroke-width:1.99549;stroke-linecap:round;stroke-linejoin:round;stroke-miterlimit:4;stroke-dasharray:none;stroke-dashoffset:0;stroke-opacity:1"
       d="m -50.255516,35.716434 -27.288346,37.559048 a 46.759614,46.759651 35.999991 0 1 12.979601,14.467609 L -24.32722,64.51243 A 93.185477,93.185525 35.999991 0 0 -50.255371,35.716292 Z"
       id="path884-6-8-0-8-81-70"
       inkscape:connector-curvature="0" />
    <path
       style="fill:#296c92;fill-opacity:1;stroke:#ffffff;stroke-width:1.99549;stroke-linecap:round;stroke-linejoin:round;stroke-miterlimit:4;stroke-dasharray:none;stroke-dashoffset:0;stroke-opacity:1"
       d="m -85.654483,19.955753 -9.652534,45.411119 a 46.759614,46.759651 11.999991 0 1 17.741882,7.937736 L -50.255516,35.716434 A 93.185477,93.185525 11.999991 0 0 -85.654558,19.95582 Z"
       id="path884-6-8-0-8-9-38"
       inkscape:connector-curvature="0" />
    <path
       style="fill:#296c92;fill-opacity:1;stroke:#ffffff;stroke-width:1.99549;stroke-linecap:round;stroke-linejoin:round;stroke-miterlimit:4;stroke-dasharray:none;stroke-dashoffset:0;stroke-opacity:1"
       d="m -124.39969,19.938105 9.65233,45.411148 a 46.759651,46.759614 77.999991 0 1 19.436565,0.03523 l 9.660098,-45.446355 a 93.185525,93.185477 77.999991 0 0 -38.749073,4e-5 z"
       id="path884-6-8-0-8-2-61"
       inkscape:connector-curvature="0" />
    <path
       style="fill:#296c92;fill-opacity:1;stroke:#ffffff;stroke-width:1.99549;stroke-linecap:round;stroke-linejoin:round;stroke-miterlimit:4;stroke-dasharray:none;stroke-dashoffset:0;stroke-opacity:1"
       d="m -159.79865,35.698773 27.2882,37.559216 a 46.759651,46.759614 53.999991 0 1 17.77053,-7.873423 l -9.65975,-45.446428 a 93.185525,93.185477 53.999991 0 0 -35.39898,15.760643 z"
       id="path884-6-8-0-8-6-93"
       inkscape:connector-curvature="0" />
    <path
       style="fill:#296c92;fill-opacity:1;stroke:#ffffff;stroke-width:1.99549;stroke-linecap:round;stroke-linejoin:round;stroke-miterlimit:4;stroke-dasharray:none;stroke-dashoffset:0;stroke-opacity:1"
       d="m -185.7374,64.480318 40.20575,23.212891 a 46.759651,46.759614 29.999991 0 1 13.03177,-14.420638 l -27.30935,-37.588374 a 93.185525,93.185477 29.999991 0 0 -25.92815,28.796137 z"
       id="path884-6-8-0-8-1-60"
       inkscape:connector-curvature="0" />
    <path
       style="fill:#296c92;fill-opacity:1;stroke:#ffffff;stroke-width:1.99549;stroke-linecap:round;stroke-linejoin:round;stroke-miterlimit:4;stroke-dasharray:none;stroke-dashoffset:0;stroke-opacity:1"
       d="m -197.7271,101.32379 46.17132,4.85287 a 46.759651,46.759614 5.999991 0 1 6.0397,-18.474405 l -40.2369,-23.230984 a 93.185525,93.185477 5.999991 0 0 -11.97411,36.852509 z"
       id="path884-6-8-0-8-64-58"
       inkscape:connector-curvature="0" />
    <path
       style="fill:#296c92;fill-opacity:1;stroke:#ffffff;stroke-width:1.99549;stroke-linecap:round;stroke-linejoin:round;stroke-miterlimit:4;stroke-dasharray:none;stroke-dashoffset:0;stroke-opacity:1"
       d="m -193.69464,139.85862 44.15345,-14.34624 a 46.759614,46.759651 71.999991 0 1 -1.99668,-19.33379 l -46.20714,-4.85672 a 93.185477,93.185525 71.999991 0 0 4.05038,38.53675 z"
       id="path884-6-8-0-8-3-2"
       inkscape:connector-curvature="0" />
    <path
       style="fill:#296c92;fill-opacity:1;stroke:#ffffff;stroke-width:1.99549;stroke-linecap:round;stroke-linejoin:round;stroke-miterlimit:4;stroke-dasharray:none;stroke-dashoffset:0;stroke-opacity:1"
       d="m -174.33726,173.4218 34.50102,-31.06477 a 46.759614,46.759651 47.999991 0 1 -9.6878,-16.85018 l -44.18774,14.35729 a 93.185477,93.185525 47.999991 0 0 19.37452,33.55766 z"
       id="path884-6-8-0-8-5-92"
       inkscape:connector-curvature="0" />
    <path
       style="fill:#296c92;fill-opacity:1;stroke:#ffffff;stroke-width:1.99549;stroke-linecap:round;stroke-linejoin:round;stroke-miterlimit:4;stroke-dasharray:none;stroke-dashoffset:0;stroke-opacity:1"
       d="m -143.00205,196.20994 18.88307,-42.4119 a 46.759614,46.759651 23.999991 0 1 -15.70383,-11.45303 l -34.52787,31.0888 a 93.185477,93.185525 23.999991 0 0 31.34863,22.77613 z"
       id="path884-6-8-0-8-27-15"
       inkscape:connector-curvature="0" />
    <path
       style="fill:#296c92;fill-opacity:1;stroke:#ffffff;stroke-width:1.99549;stroke-linecap:round;stroke-linejoin:round;stroke-miterlimit:4;stroke-dasharray:none;stroke-dashoffset:0;stroke-opacity:1"
       d="m -105.05953,204.27423 5e-5,-46.42565 a 46.759651,46.759614 89.999991 0 1 -19.00452,-4.07553 l -18.89783,42.44479 a 93.185525,93.185477 89.999991 0 0 37.9023,8.05639 z"
       id="path884-6-8-0-8-38-3"
       inkscape:connector-curvature="0" />
  </g>
</svg>
