<?xml version="1.0" encoding="UTF-8" standalone="no"?>
<svg
   xmlns:dc="http://purl.org/dc/elements/1.1/"
   xmlns:cc="http://creativecommons.org/ns#"
   xmlns:rdf="http://www.w3.org/1999/02/22-rdf-syntax-ns#"
   xmlns:svg="http://www.w3.org/2000/svg"
   xmlns="http://www.w3.org/2000/svg"
   xmlns:sodipodi="http://sodipodi.sourceforge.net/DTD/sodipodi-0.dtd"
   xmlns:inkscape="http://www.inkscape.org/namespaces/inkscape"
   width="188.40509mm"
   height="188.35396mm"
   viewBox="0 0 188.40509 188.35395"
   version="1.1"
   id="svg8"
   inkscape:version="1.0.2 (e86c870879, 2021-01-15)"
   sodipodi:docname="12_7_blue.svg">
  <defs
     id="defs2" />
  <sodipodi:namedview
     id="base"
     pagecolor="#ffffff"
     bordercolor="#666666"
     borderopacity="1.0"
     inkscape:pageopacity="0.0"
     inkscape:pageshadow="2"
     inkscape:zoom="0.35"
     inkscape:cx="983.41003"
     inkscape:cy="383.48378"
     inkscape:document-units="mm"
     inkscape:current-layer="layer1"
     inkscape:document-rotation="0"
     showgrid="false"
     inkscape:window-width="2155"
     inkscape:window-height="1262"
     inkscape:window-x="138"
     inkscape:window-y="-11"
     inkscape:window-maximized="1" />
  <metadata
     id="metadata5">
    <rdf:RDF>
      <cc:Work
         rdf:about="">
        <dc:format>image/svg+xml</dc:format>
        <dc:type
           rdf:resource="http://purl.org/dc/dcmitype/StillImage" />
        <dc:title />
      </cc:Work>
    </rdf:RDF>
  </metadata>
  <g
     inkscape:label="Layer 1"
     inkscape:groupmode="layer"
     id="layer1"
     transform="translate(154.36057,-46.703249)">
    <path
       style="fill:#bfd3de;fill-opacity:1;stroke:#ffffff;stroke-width:1.99549;stroke-linecap:round;stroke-linejoin:round;stroke-miterlimit:4;stroke-dasharray:none;stroke-dashoffset:0;stroke-opacity:1"
       d="m -60.160138,234.05947 7.9e-5,-46.42564 a 46.759651,46.759613 89.999991 0 1 -19.00453,-4.07551 l -18.89782,42.44477 a 93.185524,93.185476 89.999991 0 0 37.902271,8.05638 z"
       id="path884-6-8-0-8-85"
       inkscape:connector-curvature="0" />
    <path
       style="fill:#bfd3de;fill-opacity:1;stroke:#ffffff;stroke-width:1.99549;stroke-linecap:round;stroke-linejoin:round;stroke-miterlimit:4;stroke-dasharray:none;stroke-dashoffset:0;stroke-opacity:1"
       d="M 9.0979981,203.2435 -25.402874,172.1786 a 46.759651,46.759614 41.999991 0 1 -15.745216,11.39607 l 18.897472,42.44493 A 93.185525,93.185477 41.999991 0 0 9.0979981,203.2435 Z"
       id="path884-6-8-0-8-8-92"
       inkscape:connector-curvature="0" />
    <path
       style="fill:#bfd3de;fill-opacity:1;stroke:#ffffff;stroke-width:1.99549;stroke-linecap:round;stroke-linejoin:round;stroke-miterlimit:4;stroke-dasharray:none;stroke-dashoffset:0;stroke-opacity:1"
       d="m -22.257865,226.0031 -18.88293,-42.41196 a 46.759651,46.759614 65.999991 0 1 -19.019173,4.00666 l -1.74e-4,46.46165 a 93.185525,93.185477 65.999991 0 0 37.902273,-8.05637 z"
       id="path884-6-8-0-8-7-49"
       inkscape:connector-curvature="0" />
    <path
       style="fill:#296c92;fill-opacity:1;stroke:#ffffff;stroke-width:1.99549;stroke-linecap:round;stroke-linejoin:round;stroke-miterlimit:4;stroke-dasharray:none;stroke-dashoffset:0;stroke-opacity:1"
       d="m 28.485859,169.69796 -44.153306,-14.34643 a 46.759651,46.759614 17.999991 0 1 -9.748821,16.81499 L 9.1113803,203.25557 A 93.185525,93.185477 17.999991 0 0 28.485859,169.69796 Z"
       id="path884-6-8-0-8-84-0"
       inkscape:connector-curvature="0" />
    <path
       style="fill:#296c92;fill-opacity:1;stroke:#ffffff;stroke-width:1.99549;stroke-linecap:round;stroke-linejoin:round;stroke-miterlimit:4;stroke-dasharray:none;stroke-dashoffset:0;stroke-opacity:1"
       d="m 32.536285,131.16118 -46.171405,4.85274 a 46.759614,46.759651 83.999991 0 1 -2.06666,19.32643 l 44.187639,14.35761 a 93.185477,93.185525 83.999991 0 0 4.050426,-38.53678 z"
       id="path884-6-8-0-8-76-82"
       inkscape:connector-curvature="0" />
    <path
       style="fill:#296c92;fill-opacity:1;stroke:#ffffff;stroke-width:1.99549;stroke-linecap:round;stroke-linejoin:round;stroke-miterlimit:4;stroke-dasharray:none;stroke-dashoffset:0;stroke-opacity:1"
       d="m 20.562186,94.308683 -40.205785,23.212727 a 46.759614,46.759651 59.999991 0 1 5.972948,18.4961 l 46.207127,-4.85639 a 93.185477,93.185525 59.999991 0 0 -11.9741,-36.852508 z"
       id="path884-6-8-0-8-81-52"
       inkscape:connector-curvature="0" />
    <path
       style="fill:#296c92;fill-opacity:1;stroke:#ffffff;stroke-width:1.99549;stroke-linecap:round;stroke-linejoin:round;stroke-miterlimit:4;stroke-dasharray:none;stroke-dashoffset:0;stroke-opacity:1"
       d="M -5.3659327,65.512527 -32.654327,103.07161 a 46.759614,46.759651 35.999991 0 1 12.979447,14.46776 L 20.562186,94.308683 A 93.185477,93.185525 35.999991 0 0 -5.3660285,65.512558 Z"
       id="path884-6-8-0-8-9-35"
       inkscape:connector-curvature="0" />
    <path
       style="fill:#296c92;fill-opacity:1;stroke:#ffffff;stroke-width:1.99549;stroke-linecap:round;stroke-linejoin:round;stroke-miterlimit:4;stroke-dasharray:none;stroke-dashoffset:0;stroke-opacity:1"
       d="m -40.754265,49.737309 -9.652531,45.411106 a 46.759614,46.759651 11.999991 0 1 17.741853,7.937745 L -5.3553072,65.49797 A 93.185477,93.185525 11.999991 0 0 -40.754361,49.737339 Z"
       id="path884-6-8-0-8-2-33"
       inkscape:connector-curvature="0" />
    <path
       style="fill:#296c92;fill-opacity:1;stroke:#ffffff;stroke-width:1.99549;stroke-linecap:round;stroke-linejoin:round;stroke-miterlimit:4;stroke-dasharray:none;stroke-dashoffset:0;stroke-opacity:1"
       d="m -79.503267,49.73734 9.652308,45.411165 a 46.759651,46.759614 77.999991 0 1 19.436593,0.03519 l 9.660109,-45.446351 a 93.185525,93.185477 77.999991 0 0 -38.749008,2e-6 z"
       id="path884-6-8-0-8-6-0"
       inkscape:connector-curvature="0" />
    <path
       style="fill:#296c92;fill-opacity:1;stroke:#ffffff;stroke-width:1.99549;stroke-linecap:round;stroke-linejoin:round;stroke-miterlimit:4;stroke-dasharray:none;stroke-dashoffset:0;stroke-opacity:1"
       d="m -114.906,65.480354 27.288252,37.559186 a 46.759651,46.759614 53.999991 0 1 17.770514,-7.873414 l -9.659768,-45.446404 a 93.185525,93.185477 53.999991 0 0 -35.398988,15.760651 z"
       id="path884-6-8-0-8-1-9"
       inkscape:connector-curvature="0" />
    <path
       style="fill:#296c92;fill-opacity:1;stroke:#ffffff;stroke-width:1.99549;stroke-linecap:round;stroke-linejoin:round;stroke-miterlimit:4;stroke-dasharray:none;stroke-dashoffset:0;stroke-opacity:1"
       d="m -140.84473,94.261885 40.20576,23.212885 a 46.759651,46.759614 29.999991 0 1 13.031767,-14.42064 L -114.91655,65.46575 a 93.185525,93.185477 29.999991 0 0 -25.92817,28.796133 z"
       id="path884-6-8-0-8-64-25"
       inkscape:connector-curvature="0" />
    <path
       style="fill:#296c92;fill-opacity:1;stroke:#ffffff;stroke-width:1.99549;stroke-linecap:round;stroke-linejoin:round;stroke-miterlimit:4;stroke-dasharray:none;stroke-dashoffset:0;stroke-opacity:1"
       d="m -152.83441,131.10536 46.17132,4.85288 a 46.759651,46.759614 5.999991 0 1 6.0397,-18.47442 L -140.8603,94.252846 a 93.185525,93.185477 5.999991 0 0 -11.9741,36.852514 z"
       id="path884-6-8-0-8-3-28"
       inkscape:connector-curvature="0" />
    <path
       style="fill:#296c92;fill-opacity:1;stroke:#ffffff;stroke-width:1.99549;stroke-linecap:round;stroke-linejoin:round;stroke-miterlimit:4;stroke-dasharray:none;stroke-dashoffset:0;stroke-opacity:1"
       d="m -148.80195,169.6402 44.15343,-14.34624 a 46.759614,46.759651 71.999991 0 1 -1.99666,-19.33379 l -46.20714,-4.85674 a 93.185477,93.185525 71.999991 0 0 4.05037,38.53677 z"
       id="path884-6-8-0-8-5-7"
       inkscape:connector-curvature="0" />
    <path
       style="fill:#296c92;fill-opacity:1;stroke:#ffffff;stroke-width:1.99549;stroke-linecap:round;stroke-linejoin:round;stroke-miterlimit:4;stroke-dasharray:none;stroke-dashoffset:0;stroke-opacity:1"
       d="m -129.44458,203.20338 34.501022,-31.06476 a 46.759614,46.759651 47.999991 0 1 -9.687802,-16.85019 l -44.18773,14.35729 a 93.185477,93.185525 47.999991 0 0 19.37451,33.55766 z"
       id="path884-6-8-0-8-27-6"
       inkscape:connector-curvature="0" />
    <path
       style="fill:#296c92;fill-opacity:1;stroke:#ffffff;stroke-width:1.99549;stroke-linecap:round;stroke-linejoin:round;stroke-miterlimit:4;stroke-dasharray:none;stroke-dashoffset:0;stroke-opacity:1"
       d="m -98.062409,226.00309 18.883066,-42.41192 a 46.759614,46.759651 23.999991 0 1 -15.703832,-11.45302 l -34.527865,31.08881 a 93.185477,93.185525 23.999991 0 0 31.348631,22.77613 z"
       id="path884-6-8-0-8-38-4"
       inkscape:connector-curvature="0" />
  </g>
</svg>
