<?xml version="1.0" encoding="UTF-8" standalone="no"?>
<svg
   xmlns:dc="http://purl.org/dc/elements/1.1/"
   xmlns:cc="http://creativecommons.org/ns#"
   xmlns:rdf="http://www.w3.org/1999/02/22-rdf-syntax-ns#"
   xmlns:svg="http://www.w3.org/2000/svg"
   xmlns="http://www.w3.org/2000/svg"
   xmlns:sodipodi="http://sodipodi.sourceforge.net/DTD/sodipodi-0.dtd"
   xmlns:inkscape="http://www.inkscape.org/namespaces/inkscape"
   width="188.39653mm"
   height="188.37807mm"
   viewBox="0 0 188.39653 188.37806"
   version="1.1"
   id="svg8"
   inkscape:version="1.0.2 (e86c870879, 2021-01-15)"
   sodipodi:docname="12_8_blue.svg">
  <defs
     id="defs2" />
  <sodipodi:namedview
     id="base"
     pagecolor="#ffffff"
     bordercolor="#666666"
     borderopacity="1.0"
     inkscape:pageopacity="0.0"
     inkscape:pageshadow="2"
     inkscape:zoom="0.35"
     inkscape:cx="1316.5779"
     inkscape:cy="793.75959"
     inkscape:document-units="mm"
     inkscape:current-layer="layer1"
     inkscape:document-rotation="0"
     showgrid="false"
     inkscape:window-width="2155"
     inkscape:window-height="1262"
     inkscape:window-x="138"
     inkscape:window-y="-11"
     inkscape:window-maximized="1" />
  <metadata
     id="metadata5">
    <rdf:RDF>
      <cc:Work
         rdf:about="">
        <dc:format>image/svg+xml</dc:format>
        <dc:type
           rdf:resource="http://purl.org/dc/dcmitype/StillImage" />
        <dc:title />
      </cc:Work>
    </rdf:RDF>
  </metadata>
  <g
     inkscape:label="Layer 1"
     inkscape:groupmode="layer"
     id="layer1"
     transform="translate(242.51122,61.848891)">
    <path
       style="fill:#bfd3de;fill-opacity:1;stroke:#ffffff;stroke-width:1.99549;stroke-linecap:round;stroke-linejoin:round;stroke-miterlimit:4;stroke-dasharray:none;stroke-dashoffset:0;stroke-opacity:1"
       d="m -186.20842,117.45702 18.88308,-42.411895 a 46.759613,46.759651 23.999991 0 1 -15.70384,-11.452998 l -34.52786,31.088789 a 93.185476,93.185524 23.999991 0 0 31.34862,22.776104 z"
       id="path884-6-8-0-8-78"
       inkscape:connector-curvature="0" />
    <path
       style="fill:#bfd3de;fill-opacity:1;stroke:#ffffff;stroke-width:1.99549;stroke-linecap:round;stroke-linejoin:round;stroke-miterlimit:4;stroke-dasharray:none;stroke-dashoffset:0;stroke-opacity:1"
       d="m -110.40398,117.47506 -18.88288,-42.411968 a 46.759651,46.759614 65.999991 0 1 -19.01917,4.006668 l -2.1e-4,46.46167 a 93.185525,93.185477 65.999991 0 0 37.90226,-8.05637 z"
       id="path884-6-8-0-8-8-86"
       inkscape:connector-curvature="0" />
    <path
       style="fill:#bfd3de;fill-opacity:1;stroke:#ffffff;stroke-width:1.99549;stroke-linecap:round;stroke-linejoin:round;stroke-miterlimit:4;stroke-dasharray:none;stroke-dashoffset:0;stroke-opacity:1"
       d="m -148.30615,125.51341 9e-5,-46.425634 A 46.759651,46.759614 89.999991 0 1 -167.3106,75.012251 L -186.20841,117.457 a 93.185525,93.185477 89.999991 0 0 37.90227,8.05639 z"
       id="path884-6-8-0-8-7-9"
       inkscape:connector-curvature="0" />
    <path
       style="fill:#296c92;fill-opacity:1;stroke:#ffffff;stroke-width:1.99549;stroke-linecap:round;stroke-linejoin:round;stroke-miterlimit:4;stroke-dasharray:none;stroke-dashoffset:0;stroke-opacity:1"
       d="M -79.048084,94.715432 -113.54892,63.650553 a 46.759651,46.759614 41.999991 0 1 -15.74526,11.396056 l 18.89752,42.444921 a 93.185525,93.185477 41.999991 0 0 31.348576,-22.776098 z"
       id="path884-6-8-0-8-84-66"
       inkscape:connector-curvature="0" />
    <path
       style="fill:#296c92;fill-opacity:1;stroke:#ffffff;stroke-width:1.99549;stroke-linecap:round;stroke-linejoin:round;stroke-miterlimit:4;stroke-dasharray:none;stroke-dashoffset:0;stroke-opacity:1"
       d="M -59.673518,61.157795 -103.82698,46.811391 a 46.759651,46.759614 17.999991 0 1 -9.74876,16.814987 l 34.527656,31.089054 a 93.185525,93.185477 17.999991 0 0 19.374566,-33.557637 z"
       id="path884-6-8-0-8-76-6"
       inkscape:connector-curvature="0" />
    <path
       style="fill:#296c92;fill-opacity:1;stroke:#ffffff;stroke-width:1.99549;stroke-linecap:round;stroke-linejoin:round;stroke-miterlimit:4;stroke-dasharray:none;stroke-dashoffset:0;stroke-opacity:1"
       d="m -55.623139,22.621056 -46.171281,4.852715 a 46.759614,46.759651 83.999991 0 1 -2.06648,19.326444 l 44.187582,14.357602 a 93.185477,93.185525 83.999991 0 0 4.050381,-38.536748 z"
       id="path884-6-8-0-8-81-2"
       inkscape:connector-curvature="0" />
    <path
       style="fill:#296c92;fill-opacity:1;stroke:#ffffff;stroke-width:1.99549;stroke-linecap:round;stroke-linejoin:round;stroke-miterlimit:4;stroke-dasharray:none;stroke-dashoffset:0;stroke-opacity:1"
       d="M -67.597203,-14.231457 -107.80305,8.9812818 a 46.759614,46.759651 59.999991 0 1 5.97275,18.4961702 l 46.207161,-4.856396 a 93.185477,93.185525 59.999991 0 0 -11.974164,-36.852524 z"
       id="path884-6-8-0-8-9-7"
       inkscape:connector-curvature="0" />
    <path
       style="fill:#296c92;fill-opacity:1;stroke:#ffffff;stroke-width:1.99549;stroke-linecap:round;stroke-linejoin:round;stroke-miterlimit:4;stroke-dasharray:none;stroke-dashoffset:0;stroke-opacity:1"
       d="m -93.509694,-43.036568 -27.288386,37.5590714 a 46.759614,46.759651 35.999991 0 1 12.97942,14.4677574 l 40.237085,-23.2306948 a 93.185477,93.185525 35.999991 0 0 -25.928219,-28.796145 z"
       id="path884-6-8-0-8-2-69"
       inkscape:connector-curvature="0" />
    <path
       style="fill:#296c92;fill-opacity:1;stroke:#ffffff;stroke-width:1.99549;stroke-linecap:round;stroke-linejoin:round;stroke-miterlimit:4;stroke-dasharray:none;stroke-dashoffset:0;stroke-opacity:1"
       d="m -128.90868,-58.797178 -9.65256,45.411111 a 46.759614,46.759651 11.999991 0 1 17.74189,7.9377259 l 27.309648,-37.5881879 a 93.185477,93.185525 11.999991 0 0 -35.398978,-15.76064 z"
       id="path884-6-8-0-8-6-68"
       inkscape:connector-curvature="0" />
    <path
       style="fill:#296c92;fill-opacity:1;stroke:#ffffff;stroke-width:1.99549;stroke-linecap:round;stroke-linejoin:round;stroke-miterlimit:4;stroke-dasharray:none;stroke-dashoffset:0;stroke-opacity:1"
       d="m -167.65394,-58.814806 9.65235,45.41115 a 46.759651,46.759614 77.999991 0 1 19.43658,0.0352 l 9.66008,-45.446338 a 93.185525,93.185477 77.999991 0 0 -38.74902,6e-6 z"
       id="path884-6-8-0-8-1-94"
       inkscape:connector-curvature="0" />
    <path
       style="fill:#296c92;fill-opacity:1;stroke:#ffffff;stroke-width:1.99549;stroke-linecap:round;stroke-linejoin:round;stroke-miterlimit:4;stroke-dasharray:none;stroke-dashoffset:0;stroke-opacity:1"
       d="m -203.05666,-43.071802 27.28826,37.5591854 a 46.759651,46.759614 53.999991 0 1 17.77051,-7.8734154 l -9.65976,-45.44641 a 93.185525,93.185477 53.999991 0 0 -35.399,15.760642 z"
       id="path884-6-8-0-8-64-8"
       inkscape:connector-curvature="0" />
    <path
       style="fill:#296c92;fill-opacity:1;stroke:#ffffff;stroke-width:1.99549;stroke-linecap:round;stroke-linejoin:round;stroke-miterlimit:4;stroke-dasharray:none;stroke-dashoffset:0;stroke-opacity:1"
       d="m -228.99537,-14.290259 40.20576,23.212895 a 46.759651,46.759614 29.999991 0 1 13.03176,-14.4206491 l -27.30936,-37.5883819 a 93.185525,93.185477 29.999991 0 0 -25.92815,28.796138 z"
       id="path884-6-8-0-8-3-3"
       inkscape:connector-curvature="0" />
    <path
       style="fill:#296c92;fill-opacity:1;stroke:#ffffff;stroke-width:1.99549;stroke-linecap:round;stroke-linejoin:round;stroke-miterlimit:4;stroke-dasharray:none;stroke-dashoffset:0;stroke-opacity:1"
       d="m -240.98507,22.553223 46.17132,4.852872 a 46.759651,46.759614 5.999991 0 1 6.03972,-18.4744121 l -40.23691,-23.2309859 a 93.185525,93.185477 5.999991 0 0 -11.97413,36.852526 z"
       id="path884-6-8-0-8-5-77"
       inkscape:connector-curvature="0" />
    <path
       style="fill:#296c92;fill-opacity:1;stroke:#ffffff;stroke-width:1.99549;stroke-linecap:round;stroke-linejoin:round;stroke-miterlimit:4;stroke-dasharray:none;stroke-dashoffset:0;stroke-opacity:1"
       d="m -236.9526,61.088067 44.15343,-14.346245 a 46.759614,46.759651 71.999991 0 1 -1.99666,-19.333799 l -46.20714,-4.856736 a 93.185477,93.185525 71.999991 0 0 4.05037,38.53678 z"
       id="path884-6-8-0-8-27-2"
       inkscape:connector-curvature="0" />
    <path
       style="fill:#296c92;fill-opacity:1;stroke:#ffffff;stroke-width:1.99549;stroke-linecap:round;stroke-linejoin:round;stroke-miterlimit:4;stroke-dasharray:none;stroke-dashoffset:0;stroke-opacity:1"
       d="m -217.55704,94.680916 34.50102,-31.064784 a 46.759614,46.759651 47.999991 0 1 -9.6878,-16.850175 l -44.18774,14.357285 a 93.185477,93.185525 47.999991 0 0 19.37452,33.557674 z"
       id="path884-6-8-0-8-38-7"
       inkscape:connector-curvature="0" />
  </g>
</svg>
