<?xml version="1.0" encoding="UTF-8" standalone="no"?>
<svg
   xmlns:dc="http://purl.org/dc/elements/1.1/"
   xmlns:cc="http://creativecommons.org/ns#"
   xmlns:rdf="http://www.w3.org/1999/02/22-rdf-syntax-ns#"
   xmlns:svg="http://www.w3.org/2000/svg"
   xmlns="http://www.w3.org/2000/svg"
   xmlns:sodipodi="http://sodipodi.sourceforge.net/DTD/sodipodi-0.dtd"
   xmlns:inkscape="http://www.inkscape.org/namespaces/inkscape"
   width="188.36058mm"
   height="188.40195mm"
   viewBox="0 0 188.36058 188.40194"
   version="1.1"
   id="svg8"
   inkscape:version="1.0.2 (e86c870879, 2021-01-15)"
   sodipodi:docname="12_9_blue.svg">
  <defs
     id="defs2" />
  <sodipodi:namedview
     id="base"
     pagecolor="#ffffff"
     bordercolor="#666666"
     borderopacity="1.0"
     inkscape:pageopacity="0.0"
     inkscape:pageshadow="2"
     inkscape:zoom="0.35"
     inkscape:cx="1081.1063"
     inkscape:cy="624.08051"
     inkscape:document-units="mm"
     inkscape:current-layer="layer1"
     inkscape:document-rotation="0"
     showgrid="false"
     inkscape:window-width="2155"
     inkscape:window-height="1262"
     inkscape:window-x="138"
     inkscape:window-y="-11"
     inkscape:window-maximized="1" />
  <metadata
     id="metadata5">
    <rdf:RDF>
      <cc:Work
         rdf:about="">
        <dc:format>image/svg+xml</dc:format>
        <dc:type
           rdf:resource="http://purl.org/dc/dcmitype/StillImage" />
        <dc:title />
      </cc:Work>
    </rdf:RDF>
  </metadata>
  <g
     inkscape:label="Layer 1"
     inkscape:groupmode="layer"
     id="layer1"
     transform="translate(180.20937,16.954634)">
    <path
       style="fill:#bfd3de;fill-opacity:1;stroke:#ffffff;stroke-width:1.99549;stroke-linecap:round;stroke-linejoin:round;stroke-miterlimit:4;stroke-dasharray:none;stroke-dashoffset:0;stroke-opacity:1"
       d="m -155.27623,139.58263 34.50102,-31.06475 a 46.759613,46.759651 47.999991 0 1 -9.68782,-16.850166 l -44.18772,14.357276 a 93.185476,93.185524 47.999991 0 0 19.37452,33.55764 z"
       id="path884-6-8-0-8-08"
       inkscape:connector-curvature="0" />
    <path
       style="fill:#bfd3de;fill-opacity:1;stroke:#ffffff;stroke-width:1.99549;stroke-linecap:round;stroke-linejoin:round;stroke-miterlimit:4;stroke-dasharray:none;stroke-dashoffset:0;stroke-opacity:1"
       d="m -86.032767,170.43155 1.29e-4,-46.42562 a 46.759651,46.759614 89.999991 0 1 -19.004532,-4.07552 l -18.89785,42.44476 a 93.185525,93.185477 89.999991 0 0 37.902253,8.05638 z"
       id="path884-6-8-0-8-8-1"
       inkscape:connector-curvature="0" />
    <path
       style="fill:#bfd3de;fill-opacity:1;stroke:#ffffff;stroke-width:1.99549;stroke-linecap:round;stroke-linejoin:round;stroke-miterlimit:4;stroke-dasharray:none;stroke-dashoffset:0;stroke-opacity:1"
       d="m -123.92762,162.35875 18.88309,-42.41189 a 46.759614,46.759651 23.999991 0 1 -15.70384,-11.45302 l -34.52785,31.08878 a 93.185477,93.185525 23.999991 0 0 31.34862,22.77611 z"
       id="path884-6-8-0-8-7-7"
       inkscape:connector-curvature="0" />
    <path
       style="fill:#296c92;fill-opacity:1;stroke:#ffffff;stroke-width:1.99549;stroke-linecap:round;stroke-linejoin:round;stroke-miterlimit:4;stroke-dasharray:none;stroke-dashoffset:0;stroke-opacity:1"
       d="m -48.130559,162.39319 -18.882856,-42.41193 a 46.759651,46.759614 65.999991 0 1 -19.019209,4.00664 l -1.59e-4,46.46167 a 93.185525,93.185477 65.999991 0 0 37.902224,-8.05638 z"
       id="path884-6-8-0-8-84-7"
       inkscape:connector-curvature="0" />
    <path
       style="fill:#296c92;fill-opacity:1;stroke:#ffffff;stroke-width:1.99549;stroke-linecap:round;stroke-linejoin:round;stroke-miterlimit:4;stroke-dasharray:none;stroke-dashoffset:0;stroke-opacity:1"
       d="M -16.781892,139.61711 -51.28288,108.55219 a 46.759651,46.759614 41.999991 0 1 -15.745204,11.39607 l 18.897525,42.44493 a 93.185525,93.185477 41.999991 0 0 31.348667,-22.77608 z"
       id="path884-6-8-0-8-76-460"
       inkscape:connector-curvature="0" />
    <path
       style="fill:#296c92;fill-opacity:1;stroke:#ffffff;stroke-width:1.99549;stroke-linecap:round;stroke-linejoin:round;stroke-miterlimit:4;stroke-dasharray:none;stroke-dashoffset:0;stroke-opacity:1"
       d="M 2.592617,106.05948 -41.560722,91.713109 a 46.759651,46.759614 17.999991 0 1 -9.748598,16.815071 l 34.527601,31.08903 A 93.185525,93.185477 17.999991 0 0 2.5927964,106.05958 Z"
       id="path884-6-8-0-8-81-6"
       inkscape:connector-curvature="0" />
    <path
       style="fill:#296c92;fill-opacity:1;stroke:#ffffff;stroke-width:1.99549;stroke-linecap:round;stroke-linejoin:round;stroke-miterlimit:4;stroke-dasharray:none;stroke-dashoffset:0;stroke-opacity:1"
       d="M 6.6430333,67.522748 -39.528304,72.37545 a 46.759614,46.759651 83.999991 0 1 -2.066693,19.326428 L 2.592617,106.05948 A 93.185477,93.185525 83.999991 0 0 6.6429465,67.522697 Z"
       id="path884-6-8-0-8-9-73"
       inkscape:connector-curvature="0" />
    <path
       style="fill:#296c92;fill-opacity:1;stroke:#ffffff;stroke-width:1.99549;stroke-linecap:round;stroke-linejoin:round;stroke-miterlimit:4;stroke-dasharray:none;stroke-dashoffset:0;stroke-opacity:1"
       d="M -5.3131111,30.668411 -45.518943,53.881143 a 46.759614,46.759651 59.999991 0 1 5.972719,18.496158 L 6.6609614,67.520904 A 93.185477,93.185525 59.999991 0 0 -5.3131978,30.66836 Z"
       id="path884-6-8-0-8-2-52"
       inkscape:connector-curvature="0" />
    <path
       style="fill:#296c92;fill-opacity:1;stroke:#ffffff;stroke-width:1.99549;stroke-linecap:round;stroke-linejoin:round;stroke-miterlimit:4;stroke-dasharray:none;stroke-dashoffset:0;stroke-opacity:1"
       d="M -31.241278,1.872311 -58.529695,39.431374 A 46.759614,46.759651 35.999991 0 1 -45.55023,53.899128 L -5.3131346,30.668443 A 93.185477,93.185525 35.999991 0 0 -31.241283,1.8723191 Z"
       id="path884-6-8-0-8-6-79"
       inkscape:connector-curvature="0" />
    <path
       style="fill:#296c92;fill-opacity:1;stroke:#ffffff;stroke-width:1.99549;stroke-linecap:round;stroke-linejoin:round;stroke-miterlimit:4;stroke-dasharray:none;stroke-dashoffset:0;stroke-opacity:1"
       d="m -66.629666,-13.902911 -9.652511,45.411118 a 46.759614,46.759651 11.999991 0 1 17.74188,7.937726 L -31.230683,1.8577465 A 93.185477,93.185525 11.999991 0 0 -66.629677,-13.902895 Z"
       id="path884-6-8-0-8-1-3"
       inkscape:connector-curvature="0" />
    <path
       style="fill:#296c92;fill-opacity:1;stroke:#ffffff;stroke-width:1.99549;stroke-linecap:round;stroke-linejoin:round;stroke-miterlimit:4;stroke-dasharray:none;stroke-dashoffset:0;stroke-opacity:1"
       d="m -105.37491,-13.920542 9.652364,45.411157 a 46.759651,46.759614 77.999991 0 1 19.436578,0.0352 l 9.660091,-45.446339 a 93.185525,93.185477 77.999991 0 0 -38.749023,-8e-6 z"
       id="path884-6-8-0-8-64-1"
       inkscape:connector-curvature="0" />
    <path
       style="fill:#296c92;fill-opacity:1;stroke:#ffffff;stroke-width:1.99549;stroke-linecap:round;stroke-linejoin:round;stroke-miterlimit:4;stroke-dasharray:none;stroke-dashoffset:0;stroke-opacity:1"
       d="m -140.77761,1.8224806 27.28825,37.5591894 a 46.759651,46.759614 53.999991 0 1 17.770516,-7.873421 l -9.659776,-45.446414 a 93.185525,93.185477 53.999991 0 0 -35.39899,15.7606515 z"
       id="path884-6-8-0-8-3-62"
       inkscape:connector-curvature="0" />
    <path
       style="fill:#296c92;fill-opacity:1;stroke:#ffffff;stroke-width:1.99549;stroke-linecap:round;stroke-linejoin:round;stroke-miterlimit:4;stroke-dasharray:none;stroke-dashoffset:0;stroke-opacity:1"
       d="m -166.71634,30.604028 40.20575,23.212884 a 46.759651,46.759614 29.999991 0 1 13.03178,-14.42064 L -140.78816,1.807885 a 93.185525,93.185477 29.999991 0 0 -25.92818,28.796143 z"
       id="path884-6-8-0-8-5-5"
       inkscape:connector-curvature="0" />
    <path
       style="fill:#296c92;fill-opacity:1;stroke:#ffffff;stroke-width:1.99549;stroke-linecap:round;stroke-linejoin:round;stroke-miterlimit:4;stroke-dasharray:none;stroke-dashoffset:0;stroke-opacity:1"
       d="m -178.70603,67.447511 46.1713,4.85287 a 46.759651,46.759614 5.999991 0 1 6.03973,-18.474419 l -40.23691,-23.230985 a 93.185525,93.185477 5.999991 0 0 -11.97412,36.852534 z"
       id="path884-6-8-0-8-27-98"
       inkscape:connector-curvature="0" />
    <path
       style="fill:#296c92;fill-opacity:1;stroke:#ffffff;stroke-width:1.99549;stroke-linecap:round;stroke-linejoin:round;stroke-miterlimit:4;stroke-dasharray:none;stroke-dashoffset:0;stroke-opacity:1"
       d="m -174.65075,106.02499 44.15344,-14.346262 a 46.759614,46.759651 71.999991 0 1 -1.99667,-19.333785 l -46.20713,-4.856738 a 93.185477,93.185525 71.999991 0 0 4.05036,38.536785 z"
       id="path884-6-8-0-8-38-28"
       inkscape:connector-curvature="0" />
  </g>
</svg>
