<?xml version="1.0" encoding="UTF-8" standalone="no"?>
<svg
   xmlns:dc="http://purl.org/dc/elements/1.1/"
   xmlns:cc="http://creativecommons.org/ns#"
   xmlns:rdf="http://www.w3.org/1999/02/22-rdf-syntax-ns#"
   xmlns:svg="http://www.w3.org/2000/svg"
   xmlns="http://www.w3.org/2000/svg"
   xmlns:sodipodi="http://sodipodi.sourceforge.net/DTD/sodipodi-0.dtd"
   xmlns:inkscape="http://www.inkscape.org/namespaces/inkscape"
   width="188.37523mm"
   height="188.38907mm"
   viewBox="0 0 188.37521 188.38908"
   version="1.1"
   id="svg8"
   inkscape:version="1.0.2 (e86c870879, 2021-01-15)"
   sodipodi:docname="13_12_blue.svg">
  <defs
     id="defs2" />
  <sodipodi:namedview
     id="base"
     pagecolor="#ffffff"
     bordercolor="#666666"
     borderopacity="1.0"
     inkscape:pageopacity="0.0"
     inkscape:pageshadow="2"
     inkscape:zoom="0.35"
     inkscape:cx="975.75832"
     inkscape:cy="690.54547"
     inkscape:document-units="mm"
     inkscape:current-layer="layer1"
     inkscape:document-rotation="0"
     showgrid="false"
     inkscape:window-width="2155"
     inkscape:window-height="1262"
     inkscape:window-x="138"
     inkscape:window-y="-11"
     inkscape:window-maximized="1" />
  <metadata
     id="metadata5">
    <rdf:RDF>
      <cc:Work
         rdf:about="">
        <dc:format>image/svg+xml</dc:format>
        <dc:type
           rdf:resource="http://purl.org/dc/dcmitype/StillImage" />
        <dc:title />
      </cc:Work>
    </rdf:RDF>
  </metadata>
  <g
     inkscape:label="Layer 1"
     inkscape:groupmode="layer"
     id="layer1"
     transform="translate(152.33607,34.540154)">
    <path
       style="fill:#296c92;fill-opacity:1;stroke:#ffffff;stroke-width:1.99549;stroke-linecap:round;stroke-linejoin:round;stroke-miterlimit:4;stroke-dasharray:none;stroke-dashoffset:0;stroke-opacity:1"
       d="m -138.8358,13.06799 40.205746,23.212887 A 46.759651,46.759613 29.999991 0 1 -85.598297,21.860224 L -112.90763,-15.728152 A 93.185524,93.185476 29.999991 0 0 -138.8358,13.06799 Z"
       id="path884-6-8-0-8-252"
       inkscape:connector-curvature="0" />
    <path
       style="fill:#bfd3de;fill-opacity:1;stroke:#ffffff;stroke-width:1.99549;stroke-linecap:round;stroke-linejoin:round;stroke-miterlimit:4;stroke-dasharray:none;stroke-dashoffset:0;stroke-opacity:1"
       d="m -146.77745,88.45528 44.15342,-14.346183 a 46.759614,46.759651 71.999991 0 1 -1.99667,-19.33379 l -46.20712,-4.856773 a 93.185477,93.185525 71.999991 0 0 4.05037,38.536746 z"
       id="path884-6-8-0-8-8-88"
       inkscape:connector-curvature="0" />
    <path
       style="fill:#bfd3de;fill-opacity:1;stroke:#ffffff;stroke-width:1.99549;stroke-linecap:round;stroke-linejoin:round;stroke-miterlimit:4;stroke-dasharray:none;stroke-dashoffset:0;stroke-opacity:1"
       d="m -150.80991,49.920504 46.1713,4.852884 A 46.759651,46.759614 5.999991 0 1 -98.5989,36.29897 L -138.83578,13.067996 A 93.185525,93.185477 5.999991 0 0 -150.8099,49.92051 Z"
       id="path884-6-8-0-8-7-05"
       inkscape:connector-curvature="0" />
    <path
       style="fill:#296c92;fill-opacity:1;stroke:#ffffff;stroke-width:1.99549;stroke-linecap:round;stroke-linejoin:round;stroke-miterlimit:4;stroke-dasharray:none;stroke-dashoffset:0;stroke-opacity:1"
       d="m -127.42009,122.01843 34.501022,-31.06467 a 46.759614,46.759651 47.999991 0 1 -9.687802,-16.850223 l -44.18773,14.357296 a 93.185477,93.185525 47.999991 0 0 19.37451,33.557597 z"
       id="path884-6-8-0-8-84-65"
       inkscape:connector-curvature="0" />
    <path
       style="fill:#296c92;fill-opacity:1;stroke:#ffffff;stroke-width:1.99549;stroke-linecap:round;stroke-linejoin:round;stroke-miterlimit:4;stroke-dasharray:none;stroke-dashoffset:0;stroke-opacity:1"
       d="m -96.071479,144.79459 18.883107,-42.41198 a 46.759614,46.759651 23.999991 0 1 -15.70385,-11.452996 l -34.527868,31.088816 a 93.185477,93.185525 23.999991 0 0 31.348611,22.77616 z"
       id="path884-6-8-0-8-76-92"
       inkscape:connector-curvature="0" />
    <path
       style="fill:#296c92;fill-opacity:1;stroke:#ffffff;stroke-width:1.99549;stroke-linecap:round;stroke-linejoin:round;stroke-miterlimit:4;stroke-dasharray:none;stroke-dashoffset:0;stroke-opacity:1"
       d="m -58.169228,152.85097 8.2e-5,-46.4256 a 46.759651,46.759614 89.999991 0 1 -19.004566,-4.07532 l -18.89781,42.44474 a 93.185525,93.185477 89.999991 0 0 37.90226,8.05638 z"
       id="path884-6-8-0-8-81-105"
       inkscape:connector-curvature="0" />
    <path
       style="fill:#296c92;fill-opacity:1;stroke:#ffffff;stroke-width:1.99549;stroke-linecap:round;stroke-linejoin:round;stroke-miterlimit:4;stroke-dasharray:none;stroke-dashoffset:0;stroke-opacity:1"
       d="m -20.266966,144.79463 -18.882922,-42.41198 a 46.759651,46.759614 65.999991 0 1 -19.019169,4.00665 l -1.71e-4,46.46167 a 93.185525,93.185477 65.999991 0 0 37.902283,-8.05643 z"
       id="path884-6-8-0-8-9-45"
       inkscape:connector-curvature="0" />
    <path
       style="fill:#296c92;fill-opacity:1;stroke:#ffffff;stroke-width:1.99549;stroke-linecap:round;stroke-linejoin:round;stroke-miterlimit:4;stroke-dasharray:none;stroke-dashoffset:0;stroke-opacity:1"
       d="M 11.08894,122.03505 -23.411966,90.970158 a 46.759651,46.759614 41.999991 0 1 -15.74522,11.396022 l 18.897514,42.44493 a 93.185525,93.185477 41.999991 0 0 31.348633,-22.77616 z"
       id="path884-6-8-0-8-2-46"
       inkscape:connector-curvature="0" />
    <path
       style="fill:#296c92;fill-opacity:1;stroke:#ffffff;stroke-width:1.99549;stroke-linecap:round;stroke-linejoin:round;stroke-miterlimit:4;stroke-dasharray:none;stroke-dashoffset:0;stroke-opacity:1"
       d="M 30.463414,88.477413 -13.689963,74.130974 a 46.759651,46.759614 17.999991 0 1 -9.748776,16.814987 L 11.088902,122.03504 A 93.185525,93.185477 17.999991 0 0 30.463404,88.477409 Z"
       id="path884-6-8-0-8-6-7"
       inkscape:connector-curvature="0" />
    <path
       style="fill:#296c92;fill-opacity:1;stroke:#ffffff;stroke-width:1.99549;stroke-linecap:round;stroke-linejoin:round;stroke-miterlimit:4;stroke-dasharray:none;stroke-dashoffset:0;stroke-opacity:1"
       d="m 34.530928,49.946244 -46.17133,4.852724 a 46.759614,46.759651 83.999991 0 1 -2.066683,19.326422 l 44.187624,14.357597 a 93.185477,93.185525 83.999991 0 0 4.05037,-38.536749 z"
       id="path884-6-8-0-8-1-62"
       inkscape:connector-curvature="0" />
    <path
       style="fill:#296c92;fill-opacity:1;stroke:#ffffff;stroke-width:1.99549;stroke-linecap:round;stroke-linejoin:round;stroke-miterlimit:4;stroke-dasharray:none;stroke-dashoffset:0;stroke-opacity:1"
       d="m 22.574757,13.091878 -40.205832,23.212763 a 46.759614,46.759651 59.999991 0 1 5.97276,18.496161 l 46.207169,-4.856399 a 93.185477,93.185525 59.999991 0 0 -11.9741,-36.852516 z"
       id="path884-6-8-0-8-64-9"
       inkscape:connector-curvature="0" />
    <path
       style="fill:#296c92;fill-opacity:1;stroke:#ffffff;stroke-width:1.99549;stroke-linecap:round;stroke-linejoin:round;stroke-miterlimit:4;stroke-dasharray:none;stroke-dashoffset:0;stroke-opacity:1"
       d="M -3.3377842,-15.713233 -30.626162,21.845865 a 46.759614,46.759651 35.999991 0 1 12.97946,14.467746 L 22.590373,13.082908 A 93.185477,93.185525 35.999991 0 0 -3.3377873,-15.713224 Z"
       id="path884-6-8-0-8-3-50"
       inkscape:connector-curvature="0" />
    <path
       style="fill:#296c92;fill-opacity:1;stroke:#ffffff;stroke-width:1.99549;stroke-linecap:round;stroke-linejoin:round;stroke-miterlimit:4;stroke-dasharray:none;stroke-dashoffset:0;stroke-opacity:1"
       d="m -38.726169,-31.488438 -9.652504,45.411117 a 46.759614,46.759651 11.999991 0 1 17.741885,7.937735 L -3.3271615,-15.727772 A 93.185477,93.185525 11.999991 0 0 -38.726169,-31.488438 Z"
       id="path884-6-8-0-8-5-7"
       inkscape:connector-curvature="0" />
    <path
       style="fill:#296c92;fill-opacity:1;stroke:#ffffff;stroke-width:1.99549;stroke-linecap:round;stroke-linejoin:round;stroke-miterlimit:4;stroke-dasharray:none;stroke-dashoffset:0;stroke-opacity:1"
       d="m -77.471423,-31.506054 9.652366,45.411143 a 46.759651,46.759614 77.999991 0 1 19.436593,0.03521 l 9.660092,-45.446344 a 93.185525,93.185477 77.999991 0 0 -38.749051,-10e-6 z"
       id="path884-6-8-0-8-27-71"
       inkscape:connector-curvature="0" />
    <path
       style="fill:#296c92;fill-opacity:1;stroke:#ffffff;stroke-width:1.99549;stroke-linecap:round;stroke-linejoin:round;stroke-miterlimit:4;stroke-dasharray:none;stroke-dashoffset:0;stroke-opacity:1"
       d="m -112.90763,-15.728152 27.288265,37.559177 a 46.759651,46.759614 53.999991 0 1 17.770518,-7.87341 l -9.659758,-45.446413 a 93.185525,93.185477 53.999991 0 0 -35.399025,15.760646 z"
       id="path884-6-8-0-8-38-5"
       inkscape:connector-curvature="0" />
  </g>
</svg>
