<?xml version="1.0" encoding="UTF-8" standalone="no"?>
<svg
   xmlns:dc="http://purl.org/dc/elements/1.1/"
   xmlns:cc="http://creativecommons.org/ns#"
   xmlns:rdf="http://www.w3.org/1999/02/22-rdf-syntax-ns#"
   xmlns:svg="http://www.w3.org/2000/svg"
   xmlns="http://www.w3.org/2000/svg"
   xmlns:sodipodi="http://sodipodi.sourceforge.net/DTD/sodipodi-0.dtd"
   xmlns:inkscape="http://www.inkscape.org/namespaces/inkscape"
   width="188.39841mm"
   height="188.37508mm"
   viewBox="0 0 188.39839 188.37509"
   version="1.1"
   id="svg8"
   inkscape:version="1.0.2 (e86c870879, 2021-01-15)"
   sodipodi:docname="13_13_blue.svg">
  <defs
     id="defs2" />
  <sodipodi:namedview
     id="base"
     pagecolor="#ffffff"
     bordercolor="#666666"
     borderopacity="1.0"
     inkscape:pageopacity="0.0"
     inkscape:pageshadow="2"
     inkscape:zoom="0.35"
     inkscape:cx="1117.5011"
     inkscape:cy="735.1013"
     inkscape:document-units="mm"
     inkscape:current-layer="layer1"
     inkscape:document-rotation="0"
     showgrid="false"
     inkscape:window-width="2155"
     inkscape:window-height="1262"
     inkscape:window-x="138"
     inkscape:window-y="-11"
     inkscape:window-maximized="1" />
  <metadata
     id="metadata5">
    <rdf:RDF>
      <cc:Work
         rdf:about="">
        <dc:format>image/svg+xml</dc:format>
        <dc:type
           rdf:resource="http://purl.org/dc/dcmitype/StillImage" />
        <dc:title />
      </cc:Work>
    </rdf:RDF>
  </metadata>
  <g
     inkscape:label="Layer 1"
     inkscape:groupmode="layer"
     id="layer1"
     transform="translate(189.83885,46.328883)">
    <path
       style="fill:#296c92;fill-opacity:1;stroke:#ffffff;stroke-width:1.99549;stroke-linecap:round;stroke-linejoin:round;stroke-miterlimit:4;stroke-dasharray:none;stroke-dashoffset:0;stroke-opacity:1"
       d="m -150.39484,-27.534135 27.28824,37.559177 a 46.759651,46.759613 53.999991 0 1 17.77051,-7.8734295 l -9.65975,-45.4463985 a 93.185524,93.185476 53.999991 0 0 -35.399,15.760651 z"
       id="path884-6-8-0-8-77"
       inkscape:connector-curvature="0" />
    <path
       style="fill:#bfd3de;fill-opacity:1;stroke:#ffffff;stroke-width:1.99549;stroke-linecap:round;stroke-linejoin:round;stroke-miterlimit:4;stroke-dasharray:none;stroke-dashoffset:0;stroke-opacity:1"
       d="m -188.31268,38.105419 46.17128,4.852926 a 46.759651,46.759614 5.999991 0 1 6.03971,-18.474416 L -176.33857,1.252916 a 93.185525,93.185477 5.999991 0 0 -11.97411,36.852503 z"
       id="path884-6-8-0-8-8-87"
       inkscape:connector-curvature="0" />
    <path
       style="fill:#bfd3de;fill-opacity:1;stroke:#ffffff;stroke-width:1.99549;stroke-linecap:round;stroke-linejoin:round;stroke-miterlimit:4;stroke-dasharray:none;stroke-dashoffset:0;stroke-opacity:1"
       d="m -176.32301,1.2619995 40.20573,23.2128895 a 46.759651,46.759614 29.999991 0 1 13.03178,-14.420648 l -27.30933,-37.588363 A 93.185525,93.185477 29.999991 0 0 -176.323,1.2620129 Z"
       id="path884-6-8-0-8-7-2"
       inkscape:connector-curvature="0" />
    <path
       style="fill:#296c92;fill-opacity:1;stroke:#ffffff;stroke-width:1.99549;stroke-linecap:round;stroke-linejoin:round;stroke-miterlimit:4;stroke-dasharray:none;stroke-dashoffset:0;stroke-opacity:1"
       d="m -184.28021,76.640232 44.15339,-14.34616 a 46.759614,46.759651 71.999991 0 1 -1.99664,-19.333827 l -46.20714,-4.856726 a 93.185477,93.185525 71.999991 0 0 4.05039,38.536713 z"
       id="path884-6-8-0-8-84-2"
       inkscape:connector-curvature="0" />
    <path
       style="fill:#296c92;fill-opacity:1;stroke:#ffffff;stroke-width:1.99549;stroke-linecap:round;stroke-linejoin:round;stroke-miterlimit:4;stroke-dasharray:none;stroke-dashoffset:0;stroke-opacity:1"
       d="m -164.90573,110.19792 34.50108,-31.064823 a 46.759614,46.759651 47.999991 0 1 -9.68783,-16.850164 l -44.18773,14.357299 a 93.185477,93.185525 47.999991 0 0 19.37448,33.557688 z"
       id="path884-6-8-0-8-76-244"
       inkscape:connector-curvature="0" />
    <path
       style="fill:#296c92;fill-opacity:1;stroke:#ffffff;stroke-width:1.99549;stroke-linecap:round;stroke-linejoin:round;stroke-miterlimit:4;stroke-dasharray:none;stroke-dashoffset:0;stroke-opacity:1"
       d="m -133.55713,132.97402 18.88307,-42.411861 a 46.759614,46.759651 23.999991 0 1 -15.70395,-11.452847 l -34.52784,31.088768 a 93.185477,93.185525 23.999991 0 0 31.34861,22.77611 z"
       id="path884-6-8-0-8-81-95"
       inkscape:connector-curvature="0" />
    <path
       style="fill:#296c92;fill-opacity:1;stroke:#ffffff;stroke-width:1.99549;stroke-linecap:round;stroke-linejoin:round;stroke-miterlimit:4;stroke-dasharray:none;stroke-dashoffset:0;stroke-opacity:1"
       d="m -95.654881,141.03043 1e-4,-46.425651 a 46.759651,46.759614 89.999991 0 1 -19.004529,-4.075533 l -18.89782,42.444774 a 93.185525,93.185477 89.999991 0 0 37.902308,8.05633 z"
       id="path884-6-8-0-8-9-51"
       inkscape:connector-curvature="0" />
    <path
       style="fill:#296c92;fill-opacity:1;stroke:#ffffff;stroke-width:1.99549;stroke-linecap:round;stroke-linejoin:round;stroke-miterlimit:4;stroke-dasharray:none;stroke-dashoffset:0;stroke-opacity:1"
       d="M -57.752678,132.99211 -76.635595,90.580139 a 46.759651,46.759614 65.999991 0 1 -19.019153,4.006624 l -1.73e-4,46.461687 a 93.185525,93.185477 65.999991 0 0 37.902302,-8.05642 z"
       id="path884-6-8-0-8-2-20"
       inkscape:connector-curvature="0" />
    <path
       style="fill:#296c92;fill-opacity:1;stroke:#ffffff;stroke-width:1.99549;stroke-linecap:round;stroke-linejoin:round;stroke-miterlimit:4;stroke-dasharray:none;stroke-dashoffset:0;stroke-opacity:1"
       d="M -26.404096,110.21599 -60.90499,79.151073 a 46.759651,46.759614 41.999991 0 1 -15.745221,11.396071 l 18.897503,42.444936 a 93.185525,93.185477 41.999991 0 0 31.348605,-22.77609 z"
       id="path884-6-8-0-8-6-4"
       inkscape:connector-curvature="0" />
    <path
       style="fill:#296c92;fill-opacity:1;stroke:#ffffff;stroke-width:1.99549;stroke-linecap:round;stroke-linejoin:round;stroke-miterlimit:4;stroke-dasharray:none;stroke-dashoffset:0;stroke-opacity:1"
       d="M -7.0161982,76.670426 -51.169587,62.324038 a 46.759651,46.759614 17.999991 0 1 -9.748774,16.814969 l 34.527643,31.089043 A 93.185525,93.185477 17.999991 0 0 -7.0162131,76.670413 Z"
       id="path884-6-8-0-8-1-53"
       inkscape:connector-curvature="0" />
    <path
       style="fill:#296c92;fill-opacity:1;stroke:#ffffff;stroke-width:1.99549;stroke-linecap:round;stroke-linejoin:round;stroke-miterlimit:4;stroke-dasharray:none;stroke-dashoffset:0;stroke-opacity:1"
       d="m -2.9486829,38.139274 -46.1713361,4.85273 a 46.759614,46.759651 83.999991 0 1 -2.066679,19.326424 l 44.1876248,14.357608 a 93.185477,93.185525 83.999991 0 0 4.0503836,-38.536754 z"
       id="path884-6-8-0-8-64-19"
       inkscape:connector-curvature="0" />
    <path
       style="fill:#296c92;fill-opacity:1;stroke:#ffffff;stroke-width:1.99549;stroke-linecap:round;stroke-linejoin:round;stroke-miterlimit:4;stroke-dasharray:none;stroke-dashoffset:0;stroke-opacity:1"
       d="m -14.904873,1.284916 -40.205836,23.212761 a 46.759614,46.759651 59.999991 0 1 5.972765,18.496165 l 46.2071752,-4.85641 A 93.185477,93.185525 59.999991 0 0 -14.90488,1.2849234 Z"
       id="path884-6-8-0-8-3-89"
       inkscape:connector-curvature="0" />
    <path
       style="fill:#296c92;fill-opacity:1;stroke:#ffffff;stroke-width:1.99549;stroke-linecap:round;stroke-linejoin:round;stroke-miterlimit:4;stroke-dasharray:none;stroke-dashoffset:0;stroke-opacity:1"
       d="M -40.817417,-27.520203 -68.105784,10.03889 a 46.759614,46.759651 35.999991 0 1 12.979451,14.467755 L -14.889255,1.2759546 A 93.185477,93.185525 35.999991 0 0 -40.817417,-27.520203 Z"
       id="path884-6-8-0-8-5-77"
       inkscape:connector-curvature="0" />
    <path
       style="fill:#296c92;fill-opacity:1;stroke:#ffffff;stroke-width:1.99549;stroke-linecap:round;stroke-linejoin:round;stroke-miterlimit:4;stroke-dasharray:none;stroke-dashoffset:0;stroke-opacity:1"
       d="m -76.205803,-43.295411 -9.652501,45.4111145 a 46.759614,46.759651 11.999991 0 1 17.74189,7.9377415 l 27.309626,-37.588188 a 93.185477,93.185525 11.999991 0 0 -35.399015,-15.760668 z"
       id="path884-6-8-0-8-27-3"
       inkscape:connector-curvature="0" />
    <path
       style="fill:#296c92;fill-opacity:1;stroke:#ffffff;stroke-width:1.99549;stroke-linecap:round;stroke-linejoin:round;stroke-miterlimit:4;stroke-dasharray:none;stroke-dashoffset:0;stroke-opacity:1"
       d="m -114.99584,-43.294786 9.65238,45.4111543 a 46.759651,46.759614 77.999991 0 1 19.436578,0.035203 l 9.660093,-45.4463415 a 93.185525,93.185477 77.999991 0 0 -38.749051,-1.6e-5 z"
       id="path884-6-8-0-8-38-79"
       inkscape:connector-curvature="0" />
  </g>
</svg>
