<?xml version="1.0" encoding="UTF-8" standalone="no"?>
<svg
   xmlns:dc="http://purl.org/dc/elements/1.1/"
   xmlns:cc="http://creativecommons.org/ns#"
   xmlns:rdf="http://www.w3.org/1999/02/22-rdf-syntax-ns#"
   xmlns:svg="http://www.w3.org/2000/svg"
   xmlns="http://www.w3.org/2000/svg"
   xmlns:sodipodi="http://sodipodi.sourceforge.net/DTD/sodipodi-0.dtd"
   xmlns:inkscape="http://www.inkscape.org/namespaces/inkscape"
   width="188.39835mm"
   height="188.36079mm"
   viewBox="0 0 188.39833 188.36081"
   version="1.1"
   id="svg8"
   inkscape:version="1.0.2 (e86c870879, 2021-01-15)"
   sodipodi:docname="13_14_blue.svg">
  <defs
     id="defs2" />
  <sodipodi:namedview
     id="base"
     pagecolor="#ffffff"
     bordercolor="#666666"
     borderopacity="1.0"
     inkscape:pageopacity="0.0"
     inkscape:pageshadow="2"
     inkscape:zoom="0.35"
     inkscape:cx="964.95803"
     inkscape:cy="596.77299"
     inkscape:document-units="mm"
     inkscape:current-layer="layer1"
     inkscape:document-rotation="0"
     showgrid="false"
     inkscape:window-width="2155"
     inkscape:window-height="1262"
     inkscape:window-x="138"
     inkscape:window-y="-11"
     inkscape:window-maximized="1" />
  <metadata
     id="metadata5">
    <rdf:RDF>
      <cc:Work
         rdf:about="">
        <dc:format>image/svg+xml</dc:format>
        <dc:type
           rdf:resource="http://purl.org/dc/dcmitype/StillImage" />
        <dc:title />
      </cc:Work>
    </rdf:RDF>
  </metadata>
  <g
     inkscape:label="Layer 1"
     inkscape:groupmode="layer"
     id="layer1"
     transform="translate(149.4785,9.7295186)">
    <path
       style="fill:#296c92;fill-opacity:1;stroke:#ffffff;stroke-width:1.99549;stroke-linecap:round;stroke-linejoin:round;stroke-miterlimit:4;stroke-dasharray:none;stroke-dashoffset:0;stroke-opacity:1"
       d="m -74.642877,-6.6954157 9.652356,45.4111427 a 46.759651,46.759613 77.999991 0 1 19.43658,0.03518 l 9.660094,-45.4463253 a 93.185524,93.185476 77.999991 0 0 -38.74903,6e-7 z"
       id="path884-6-8-0-8-65"
       inkscape:connector-curvature="0" />
    <path
       style="fill:#bfd3de;fill-opacity:1;stroke:#ffffff;stroke-width:1.99549;stroke-linecap:round;stroke-linejoin:round;stroke-miterlimit:4;stroke-dasharray:none;stroke-dashoffset:0;stroke-opacity:1"
       d="m -135.98056,37.846727 40.205704,23.21292 a 46.759651,46.759614 29.999991 0 1 13.03177,-14.420648 L -110.0524,9.0505992 a 93.185525,93.185477 29.999991 0 0 -25.92816,28.7961278 z"
       id="path884-6-8-0-8-8-85"
       inkscape:connector-curvature="0" />
    <path
       style="fill:#bfd3de;fill-opacity:1;stroke:#ffffff;stroke-width:1.99549;stroke-linecap:round;stroke-linejoin:round;stroke-miterlimit:4;stroke-dasharray:none;stroke-dashoffset:0;stroke-opacity:1"
       d="m -110.04188,9.0652255 27.288233,37.5591765 a 46.759651,46.759614 53.999991 0 1 17.770526,-7.873417 L -74.642869,-6.6953975 A 93.185525,93.185477 53.999991 0 0 -110.04187,9.0652438 Z"
       id="path884-6-8-0-8-7-9"
       inkscape:connector-curvature="0" />
    <path
       style="fill:#296c92;fill-opacity:1;stroke:#ffffff;stroke-width:1.99549;stroke-linecap:round;stroke-linejoin:round;stroke-miterlimit:4;stroke-dasharray:none;stroke-dashoffset:0;stroke-opacity:1"
       d="m -147.97024,74.690182 46.17124,4.852934 a 46.759651,46.759614 5.999991 0 1 6.039757,-18.474438 L -135.99616,37.837701 a 93.185525,93.185477 5.999991 0 0 -11.97408,36.852481 z"
       id="path884-6-8-0-8-84-8"
       inkscape:connector-curvature="0" />
    <path
       style="fill:#296c92;fill-opacity:1;stroke:#ffffff;stroke-width:1.99549;stroke-linecap:round;stroke-linejoin:round;stroke-miterlimit:4;stroke-dasharray:none;stroke-dashoffset:0;stroke-opacity:1"
       d="m -143.9199,113.22696 44.153503,-14.346265 a 46.759614,46.759651 71.999991 0 1 -1.996693,-19.333786 l -46.20715,-4.856727 a 93.185477,93.185525 71.999991 0 0 4.05034,38.536778 z"
       id="path884-6-8-0-8-76-40"
       inkscape:connector-curvature="0" />
    <path
       style="fill:#296c92;fill-opacity:1;stroke:#ffffff;stroke-width:1.99549;stroke-linecap:round;stroke-linejoin:round;stroke-miterlimit:4;stroke-dasharray:none;stroke-dashoffset:0;stroke-opacity:1"
       d="m -124.5454,146.78459 34.500992,-31.06472 a 46.759614,46.759651 47.999991 0 1 -9.68798,-16.85007 l -44.187692,14.35726 a 93.185477,93.185525 47.999991 0 0 19.37451,33.55764 z"
       id="path884-6-8-0-8-81-5"
       inkscape:connector-curvature="0" />
    <path
       style="fill:#296c92;fill-opacity:1;stroke:#ffffff;stroke-width:1.99549;stroke-linecap:round;stroke-linejoin:round;stroke-miterlimit:4;stroke-dasharray:none;stroke-dashoffset:0;stroke-opacity:1"
       d="m -93.196818,169.56073 18.883105,-42.41191 A 46.759614,46.759651 23.999991 0 1 -90.017544,115.6958 l -34.527856,31.08879 a 93.185477,93.185525 23.999991 0 0 31.348669,22.77609 z"
       id="path884-6-8-0-8-9-59"
       inkscape:connector-curvature="0" />
    <path
       style="fill:#296c92;fill-opacity:1;stroke:#ffffff;stroke-width:1.99549;stroke-linecap:round;stroke-linejoin:round;stroke-miterlimit:4;stroke-dasharray:none;stroke-dashoffset:0;stroke-opacity:1"
       d="m -55.301954,177.63357 1.01e-4,-46.42564 a 46.759651,46.759614 89.999991 0 1 -19.004502,-4.07555 l -18.89783,42.44479 a 93.185525,93.185477 89.999991 0 0 37.902319,8.05635 z"
       id="path884-6-8-0-8-2-13"
       inkscape:connector-curvature="0" />
    <path
       style="fill:#296c92;fill-opacity:1;stroke:#ffffff;stroke-width:1.99549;stroke-linecap:round;stroke-linejoin:round;stroke-miterlimit:4;stroke-dasharray:none;stroke-dashoffset:0;stroke-opacity:1"
       d="m -17.399717,169.57717 -18.882894,-42.412 a 46.759651,46.759614 65.999991 0 1 -19.019174,4.00667 l -1.85e-4,46.46169 a 93.185525,93.185477 65.999991 0 0 37.902249,-8.05637 z"
       id="path884-6-8-0-8-6-04"
       inkscape:connector-curvature="0" />
    <path
       style="fill:#296c92;fill-opacity:1;stroke:#ffffff;stroke-width:1.99549;stroke-linecap:round;stroke-linejoin:round;stroke-miterlimit:4;stroke-dasharray:none;stroke-dashoffset:0;stroke-opacity:1"
       d="m 13.95622,146.81754 -34.500926,-31.06488 a 46.759651,46.759614 41.999991 0 1 -15.745212,11.39605 l 18.897518,42.44492 a 93.185525,93.185477 41.999991 0 0 31.348612,-22.77611 z"
       id="path884-6-8-0-8-1-147"
       inkscape:connector-curvature="0" />
    <path
       style="fill:#296c92;fill-opacity:1;stroke:#ffffff;stroke-width:1.99549;stroke-linecap:round;stroke-linejoin:round;stroke-miterlimit:4;stroke-dasharray:none;stroke-dashoffset:0;stroke-opacity:1"
       d="M 33.344112,113.27199 -10.809286,98.9256 a 46.759651,46.759614 17.999991 0 1 -9.74877,16.81497 l 34.527639,31.08906 a 93.185525,93.185477 17.999991 0 0 19.374519,-33.55764 z"
       id="path884-6-8-0-8-64-68"
       inkscape:connector-curvature="0" />
    <path
       style="fill:#296c92;fill-opacity:1;stroke:#ffffff;stroke-width:1.99549;stroke-linecap:round;stroke-linejoin:round;stroke-miterlimit:4;stroke-dasharray:none;stroke-dashoffset:0;stroke-opacity:1"
       d="m 37.411606,74.740833 -46.1713382,4.852726 a 46.759614,46.759651 83.999991 0 1 -2.0666758,19.32643 l 44.187634,14.357601 a 93.185477,93.185525 83.999991 0 0 4.050371,-38.536753 z"
       id="path884-6-8-0-8-3-59"
       inkscape:connector-curvature="0" />
    <path
       style="fill:#296c92;fill-opacity:1;stroke:#ffffff;stroke-width:1.99549;stroke-linecap:round;stroke-linejoin:round;stroke-miterlimit:4;stroke-dasharray:none;stroke-dashoffset:0;stroke-opacity:1"
       d="m 25.455417,37.886466 -40.205823,23.21276 a 46.759614,46.759651 59.999991 0 1 5.9727521,18.496171 L 37.429519,74.738999 A 93.185477,93.185525 59.999991 0 0 25.455417,37.886466 Z"
       id="path884-6-8-0-8-5-62"
       inkscape:connector-curvature="0" />
    <path
       style="fill:#296c92;fill-opacity:1;stroke:#ffffff;stroke-width:1.99549;stroke-linecap:round;stroke-linejoin:round;stroke-miterlimit:4;stroke-dasharray:none;stroke-dashoffset:0;stroke-opacity:1"
       d="M -0.45712696,9.0813438 -27.74549,46.640435 A 46.759614,46.759651 35.999991 0 1 -14.766037,61.1082 L 25.471041,37.877507 A 93.185477,93.185525 35.999991 0 0 -0.45712696,9.0813438 Z"
       id="path884-6-8-0-8-27-37"
       inkscape:connector-curvature="0" />
    <path
       style="fill:#296c92;fill-opacity:1;stroke:#ffffff;stroke-width:1.99549;stroke-linecap:round;stroke-linejoin:round;stroke-miterlimit:4;stroke-dasharray:none;stroke-dashoffset:0;stroke-opacity:1"
       d="m -35.893847,-6.6954163 -9.652492,45.4111303 a 46.759614,46.759651 11.999991 0 1 17.741882,7.93773 L -0.49483009,9.0652583 A 93.185477,93.185525 11.999991 0 0 -35.893847,-6.6954163 Z"
       id="path884-6-8-0-8-38-63"
       inkscape:connector-curvature="0" />
  </g>
</svg>
