<?xml version="1.0" encoding="UTF-8" standalone="no"?>
<svg
   xmlns:dc="http://purl.org/dc/elements/1.1/"
   xmlns:cc="http://creativecommons.org/ns#"
   xmlns:rdf="http://www.w3.org/1999/02/22-rdf-syntax-ns#"
   xmlns:svg="http://www.w3.org/2000/svg"
   xmlns="http://www.w3.org/2000/svg"
   xmlns:sodipodi="http://sodipodi.sourceforge.net/DTD/sodipodi-0.dtd"
   xmlns:inkscape="http://www.inkscape.org/namespaces/inkscape"
   width="188.38121mm"
   height="188.3903mm"
   viewBox="0 0 188.3812 188.39031"
   version="1.1"
   id="svg8"
   inkscape:version="1.0.2 (e86c870879, 2021-01-15)"
   sodipodi:docname="13_1_blue.svg">
  <defs
     id="defs2" />
  <sodipodi:namedview
     id="base"
     pagecolor="#ffffff"
     bordercolor="#666666"
     borderopacity="1.0"
     inkscape:pageopacity="0.0"
     inkscape:pageshadow="2"
     inkscape:zoom="0.35"
     inkscape:cx="882.76072"
     inkscape:cy="377.25682"
     inkscape:document-units="mm"
     inkscape:current-layer="layer1"
     inkscape:document-rotation="0"
     showgrid="false"
     inkscape:window-width="2155"
     inkscape:window-height="1262"
     inkscape:window-x="138"
     inkscape:window-y="-11"
     inkscape:window-maximized="1" />
  <metadata
     id="metadata5">
    <rdf:RDF>
      <cc:Work
         rdf:about="">
        <dc:format>image/svg+xml</dc:format>
        <dc:type
           rdf:resource="http://purl.org/dc/dcmitype/StillImage" />
        <dc:title />
      </cc:Work>
    </rdf:RDF>
  </metadata>
  <g
     inkscape:label="Layer 1"
     inkscape:groupmode="layer"
     id="layer1"
     transform="translate(127.73045,-48.350801)">
    <path
       style="fill:#296c92;fill-opacity:1;stroke:#ffffff;stroke-width:1.99549;stroke-linecap:round;stroke-linejoin:round;stroke-miterlimit:4;stroke-dasharray:none;stroke-dashoffset:0;stroke-opacity:1"
       d="M 21.226974,67.163168 -6.0613953,104.72225 A 46.759613,46.759651 35.999991 0 1 6.9180702,119.18999 L 47.155136,95.959309 A 93.185476,93.185524 35.999991 0 0 21.226974,67.163168 Z"
       id="path884-6-8-0-8-89"
       inkscape:connector-curvature="0" />
    <path
       style="fill:#bfd3de;fill-opacity:1;stroke:#ffffff;stroke-width:1.99549;stroke-linecap:round;stroke-linejoin:round;stroke-miterlimit:4;stroke-dasharray:none;stroke-dashoffset:0;stroke-opacity:1"
       d="m -52.917208,51.3849 9.652304,45.411134 a 46.759651,46.759614 77.999991 0 1 19.436586,0.03519 l 9.660127,-45.446323 a 93.185525,93.185477 77.999991 0 0 -38.749017,-5e-6 z"
       id="path884-6-8-0-8-8-2"
       inkscape:connector-curvature="0" />
    <path
       style="fill:#bfd3de;fill-opacity:1;stroke:#ffffff;stroke-width:1.99549;stroke-linecap:round;stroke-linejoin:round;stroke-miterlimit:4;stroke-dasharray:none;stroke-dashoffset:0;stroke-opacity:1"
       d="m -14.172022,51.402508 -9.652515,45.411106 a 46.759614,46.759651 11.999991 0 1 17.7418918,7.937726 L 21.226966,67.163186 A 93.185477,93.185525 11.999991 0 0 -14.172031,51.402527 Z"
       id="path884-6-8-0-8-7-4"
       inkscape:connector-curvature="0" />
    <path
       style="fill:#296c92;fill-opacity:1;stroke:#ffffff;stroke-width:1.99549;stroke-linecap:round;stroke-linejoin:round;stroke-miterlimit:4;stroke-dasharray:none;stroke-dashoffset:0;stroke-opacity:1"
       d="m -88.319892,67.127916 27.288157,37.559164 a 46.759651,46.759614 53.999991 0 1 17.770567,-7.873401 l -9.659771,-45.446411 a 93.185525,93.185477 53.999991 0 0 -35.398953,15.760648 z"
       id="path884-6-8-0-8-84-3"
       inkscape:connector-curvature="0" />
    <path
       style="fill:#296c92;fill-opacity:1;stroke:#ffffff;stroke-width:1.99549;stroke-linecap:round;stroke-linejoin:round;stroke-miterlimit:4;stroke-dasharray:none;stroke-dashoffset:0;stroke-opacity:1"
       d="m -114.2481,95.924038 40.205818,23.212922 A 46.759651,46.759614 29.999991 0 1 -61.010527,104.7163 L -88.319892,67.127916 A 93.185525,93.185477 29.999991 0 0 -114.2481,95.924038 Z"
       id="path884-6-8-0-8-76-8"
       inkscape:connector-curvature="0" />
    <path
       style="fill:#296c92;fill-opacity:1;stroke:#ffffff;stroke-width:1.99549;stroke-linecap:round;stroke-linejoin:round;stroke-miterlimit:4;stroke-dasharray:none;stroke-dashoffset:0;stroke-opacity:1"
       d="m -126.22221,132.77654 46.171263,4.85287 a 46.759651,46.759614 5.999991 0 1 6.039517,-18.47447 l -40.23686,-23.230965 a 93.185525,93.185477 5.999991 0 0 -11.97411,36.852505 z"
       id="path884-6-8-0-8-81-1"
       inkscape:connector-curvature="0" />
    <path
       style="fill:#296c92;fill-opacity:1;stroke:#ffffff;stroke-width:1.99549;stroke-linecap:round;stroke-linejoin:round;stroke-miterlimit:4;stroke-dasharray:none;stroke-dashoffset:0;stroke-opacity:1"
       d="m -122.17188,171.31328 44.153454,-14.34622 a 46.759614,46.759651 71.999991 0 1 -1.99666,-19.33379 l -46.207124,-4.85673 a 93.185477,93.185525 71.999991 0 0 4.05043,38.53677 z"
       id="path884-6-8-0-8-9-8"
       inkscape:connector-curvature="0" />
    <path
       style="fill:#296c92;fill-opacity:1;stroke:#ffffff;stroke-width:1.99549;stroke-linecap:round;stroke-linejoin:round;stroke-miterlimit:4;stroke-dasharray:none;stroke-dashoffset:0;stroke-opacity:1"
       d="m -102.81455,204.87644 34.501036,-31.06474 a 46.759614,46.759651 47.999991 0 1 -9.687768,-16.85017 l -44.187748,14.35728 a 93.185477,93.185525 47.999991 0 0 19.37457,33.55766 z"
       id="path884-6-8-0-8-2-4"
       inkscape:connector-curvature="0" />
    <path
       style="fill:#296c92;fill-opacity:1;stroke:#ffffff;stroke-width:1.99549;stroke-linecap:round;stroke-linejoin:round;stroke-miterlimit:4;stroke-dasharray:none;stroke-dashoffset:0;stroke-opacity:1"
       d="m -71.465935,227.65251 18.883132,-42.41189 A 46.759614,46.759651 23.999991 0 1 -68.286651,173.7876 l -34.527889,31.0888 a 93.185477,93.185525 23.999991 0 0 31.348609,22.7761 z"
       id="path884-6-8-0-8-6-9"
       inkscape:connector-curvature="0" />
    <path
       style="fill:#296c92;fill-opacity:1;stroke:#ffffff;stroke-width:1.99549;stroke-linecap:round;stroke-linejoin:round;stroke-miterlimit:4;stroke-dasharray:none;stroke-dashoffset:0;stroke-opacity:1"
       d="m -33.571015,235.72534 7.8e-5,-46.42564 a 46.759651,46.759614 89.999991 0 1 -19.004522,-4.07553 l -18.89781,42.44479 a 93.185525,93.185477 89.999991 0 0 37.902262,8.05637 z"
       id="path884-6-8-0-8-1-3"
       inkscape:connector-curvature="0" />
    <path
       style="fill:#296c92;fill-opacity:1;stroke:#ffffff;stroke-width:1.99549;stroke-linecap:round;stroke-linejoin:round;stroke-miterlimit:4;stroke-dasharray:none;stroke-dashoffset:0;stroke-opacity:1"
       d="M 4.3312195,227.687 -14.551728,185.27503 a 46.759651,46.759614 65.999991 0 1 -19.01916,4.00666 l -1.7e-4,46.46167 A 93.185525,93.185477 65.999991 0 0 4.3312104,227.687 Z"
       id="path884-6-8-0-8-64-8"
       inkscape:connector-curvature="0" />
    <path
       style="fill:#296c92;fill-opacity:1;stroke:#ffffff;stroke-width:1.99549;stroke-linecap:round;stroke-linejoin:round;stroke-miterlimit:4;stroke-dasharray:none;stroke-dashoffset:0;stroke-opacity:1"
       d="M 35.687131,204.92736 1.1861976,173.86248 A 46.759651,46.759614 41.999991 0 1 -14.559015,185.25855 L 4.3385074,227.70347 A 93.185525,93.185477 41.999991 0 0 35.687122,204.92736 Z"
       id="path884-6-8-0-8-3-2"
       inkscape:connector-curvature="0" />
    <path
       style="fill:#296c92;fill-opacity:1;stroke:#ffffff;stroke-width:1.99549;stroke-linecap:round;stroke-linejoin:round;stroke-miterlimit:4;stroke-dasharray:none;stroke-dashoffset:0;stroke-opacity:1"
       d="M 55.075011,171.3818 10.921622,157.03542 A 46.759651,46.759614 17.999991 0 1 1.1728395,173.85039 L 35.70048,204.93945 A 93.185525,93.185477 17.999991 0 0 55.075011,171.3818 Z"
       id="path884-6-8-0-8-5-0"
       inkscape:connector-curvature="0" />
    <path
       style="fill:#296c92;fill-opacity:1;stroke:#ffffff;stroke-width:1.99549;stroke-linecap:round;stroke-linejoin:round;stroke-miterlimit:4;stroke-dasharray:none;stroke-dashoffset:0;stroke-opacity:1"
       d="m 59.142513,132.85064 -46.171324,4.85273 a 46.759614,46.759651 83.999991 0 1 -2.066695,19.32644 l 44.18763,14.3576 a 93.185477,93.185525 83.999991 0 0 4.050389,-38.53677 z"
       id="path884-6-8-0-8-27-9"
       inkscape:connector-curvature="0" />
    <path
       style="fill:#296c92;fill-opacity:1;stroke:#ffffff;stroke-width:1.99549;stroke-linecap:round;stroke-linejoin:round;stroke-miterlimit:4;stroke-dasharray:none;stroke-dashoffset:0;stroke-opacity:1"
       d="M 47.155136,95.959309 6.9493119,119.17209 a 46.759614,46.759651 59.999991 0 1 5.9727531,18.49616 l 46.207173,-4.8564 A 93.185477,93.185525 59.999991 0 0 47.155136,95.959309 Z"
       id="path884-6-8-0-8-38-0"
       inkscape:connector-curvature="0" />
  </g>
</svg>
