<?xml version="1.0" encoding="UTF-8" standalone="no"?>
<svg
   xmlns:dc="http://purl.org/dc/elements/1.1/"
   xmlns:cc="http://creativecommons.org/ns#"
   xmlns:rdf="http://www.w3.org/1999/02/22-rdf-syntax-ns#"
   xmlns:svg="http://www.w3.org/2000/svg"
   xmlns="http://www.w3.org/2000/svg"
   xmlns:sodipodi="http://sodipodi.sourceforge.net/DTD/sodipodi-0.dtd"
   xmlns:inkscape="http://www.inkscape.org/namespaces/inkscape"
   width="188.36436mm"
   height="188.40344mm"
   viewBox="0 0 188.36435 188.40345"
   version="1.1"
   id="svg8"
   inkscape:version="1.0.2 (e86c870879, 2021-01-15)"
   sodipodi:docname="13_10_blue.svg">
  <defs
     id="defs2" />
  <sodipodi:namedview
     id="base"
     pagecolor="#ffffff"
     bordercolor="#666666"
     borderopacity="1.0"
     inkscape:pageopacity="0.0"
     inkscape:pageshadow="2"
     inkscape:zoom="0.35"
     inkscape:cx="1238.1209"
     inkscape:cy="558.50496"
     inkscape:document-units="mm"
     inkscape:current-layer="layer1"
     inkscape:document-rotation="0"
     showgrid="false"
     inkscape:window-width="2155"
     inkscape:window-height="1262"
     inkscape:window-x="138"
     inkscape:window-y="-11"
     inkscape:window-maximized="1" />
  <metadata
     id="metadata5">
    <rdf:RDF>
      <cc:Work
         rdf:about="">
        <dc:format>image/svg+xml</dc:format>
        <dc:type
           rdf:resource="http://purl.org/dc/dcmitype/StillImage" />
        <dc:title />
      </cc:Work>
    </rdf:RDF>
  </metadata>
  <g
     inkscape:label="Layer 1"
     inkscape:groupmode="layer"
     id="layer1"
     transform="translate(221.75283,-0.3955646)">
    <path
       style="fill:#296c92;fill-opacity:1;stroke:#ffffff;stroke-width:1.99549;stroke-linecap:round;stroke-linejoin:round;stroke-miterlimit:4;stroke-dasharray:none;stroke-dashoffset:0;stroke-opacity:1"
       d="m -216.1942,123.3827 44.15343,-14.34623 a 46.759613,46.759651 71.999991 0 1 -1.99669,-19.333785 l -46.20712,-4.856741 a 93.185476,93.185524 71.999991 0 0 4.05038,38.536756 z"
       id="path884-6-8-0-8-94"
       inkscape:connector-curvature="0" />
    <path
       style="fill:#bfd3de;fill-opacity:1;stroke:#ffffff;stroke-width:1.99549;stroke-linecap:round;stroke-linejoin:round;stroke-miterlimit:4;stroke-dasharray:none;stroke-dashoffset:0;stroke-opacity:1"
       d="m -165.48453,179.72845 18.88312,-42.41186 a 46.759614,46.759651 23.999991 0 1 -15.70384,-11.45302 l -34.52789,31.08877 a 93.185477,93.185525 23.999991 0 0 31.34861,22.77611 z"
       id="path884-6-8-0-8-8-3"
       inkscape:connector-curvature="0" />
    <path
       style="fill:#bfd3de;fill-opacity:1;stroke:#ffffff;stroke-width:1.99549;stroke-linecap:round;stroke-linejoin:round;stroke-miterlimit:4;stroke-dasharray:none;stroke-dashoffset:0;stroke-opacity:1"
       d="m -196.81969,156.94035 34.50102,-31.06475 a 46.759614,46.759651 47.999991 0 1 -9.68781,-16.85018 l -44.1877,14.35727 a 93.185477,93.185525 47.999991 0 0 19.3745,33.55765 z"
       id="path884-6-8-0-8-7-66"
       inkscape:connector-curvature="0" />
    <path
       style="fill:#296c92;fill-opacity:1;stroke:#ffffff;stroke-width:1.99549;stroke-linecap:round;stroke-linejoin:round;stroke-miterlimit:4;stroke-dasharray:none;stroke-dashoffset:0;stroke-opacity:1"
       d="m -127.58964,187.80126 1.3e-4,-46.42558 a 46.759651,46.759614 89.999991 0 1 -19.00455,-4.07556 l -18.89782,42.44478 a 93.185525,93.185477 89.999991 0 0 37.90224,8.05636 z"
       id="path884-6-8-0-8-84-32"
       inkscape:connector-curvature="0" />
    <path
       style="fill:#296c92;fill-opacity:1;stroke:#ffffff;stroke-width:1.99549;stroke-linecap:round;stroke-linejoin:round;stroke-miterlimit:4;stroke-dasharray:none;stroke-dashoffset:0;stroke-opacity:1"
       d="m -89.687346,179.74492 -18.882974,-42.41203 a 46.759651,46.759614 65.999991 0 1 -19.01917,4.00668 l -1.5e-4,46.46169 a 93.185525,93.185477 65.999991 0 0 37.902294,-8.05634 z"
       id="path884-6-8-0-8-76-24"
       inkscape:connector-curvature="0" />
    <path
       style="fill:#296c92;fill-opacity:1;stroke:#ffffff;stroke-width:1.99549;stroke-linecap:round;stroke-linejoin:round;stroke-miterlimit:4;stroke-dasharray:none;stroke-dashoffset:0;stroke-opacity:1"
       d="m -58.338735,156.96883 -34.500886,-31.06485 a 46.759651,46.759614 41.999991 0 1 -15.745089,11.39622 l 18.897481,42.44489 a 93.185525,93.185477 41.999991 0 0 31.34862,-22.7761 z"
       id="path884-6-8-0-8-81-80"
       inkscape:connector-curvature="0" />
    <path
       style="fill:#296c92;fill-opacity:1;stroke:#ffffff;stroke-width:1.99549;stroke-linecap:round;stroke-linejoin:round;stroke-miterlimit:4;stroke-dasharray:none;stroke-dashoffset:0;stroke-opacity:1"
       d="m -38.964193,123.41122 -44.153388,-14.34641 a 46.759651,46.759614 17.999991 0 1 -9.748784,16.81497 l 34.52763,31.08905 a 93.185525,93.185477 17.999991 0 0 19.374483,-33.55769 z"
       id="path884-6-8-0-8-9-2"
       inkscape:connector-curvature="0" />
    <path
       style="fill:#296c92;fill-opacity:1;stroke:#ffffff;stroke-width:1.99549;stroke-linecap:round;stroke-linejoin:round;stroke-miterlimit:4;stroke-dasharray:none;stroke-dashoffset:0;stroke-opacity:1"
       d="m -34.896665,84.880106 -46.171324,4.852701 a 46.759614,46.759651 83.999991 0 1 -2.066715,19.326403 l 44.187639,14.35762 a 93.185477,93.185525 83.999991 0 0 4.050341,-38.536806 z"
       id="path884-6-8-0-8-2-2"
       inkscape:connector-curvature="0" />
    <path
       style="fill:#296c92;fill-opacity:1;stroke:#ffffff;stroke-width:1.99549;stroke-linecap:round;stroke-linejoin:round;stroke-miterlimit:4;stroke-dasharray:none;stroke-dashoffset:0;stroke-opacity:1"
       d="m -46.870795,48.027625 -40.205857,23.212712 a 46.759614,46.759651 59.999991 0 1 5.972766,18.496174 L -34.8967,84.880126 A 93.185477,93.185525 59.999991 0 0 -46.870803,48.02763 Z"
       id="path884-6-8-0-8-6-01"
       inkscape:connector-curvature="0" />
    <path
       style="fill:#296c92;fill-opacity:1;stroke:#ffffff;stroke-width:1.99549;stroke-linecap:round;stroke-linejoin:round;stroke-miterlimit:4;stroke-dasharray:none;stroke-dashoffset:0;stroke-opacity:1"
       d="m -72.783335,19.222488 -27.288375,37.559091 a 46.759614,46.759651 35.999991 0 1 12.979451,14.467746 l 40.237066,-23.230697 a 93.185477,93.185525 35.999991 0 0 -25.928159,-28.79613 z"
       id="path884-6-8-0-8-1-05"
       inkscape:connector-curvature="0" />
    <path
       style="fill:#296c92;fill-opacity:1;stroke:#ffffff;stroke-width:1.99549;stroke-linecap:round;stroke-linejoin:round;stroke-miterlimit:4;stroke-dasharray:none;stroke-dashoffset:0;stroke-opacity:1"
       d="m -108.17171,3.4472706 -9.6525,45.4111264 a 46.759614,46.759651 11.999991 0 1 17.74188,7.937722 L -72.772708,19.207935 A 93.185477,93.185525 11.999991 0 0 -108.1717,3.4472792 Z"
       id="path884-6-8-0-8-64-2"
       inkscape:connector-curvature="0" />
    <path
       style="fill:#296c92;fill-opacity:1;stroke:#ffffff;stroke-width:1.99549;stroke-linecap:round;stroke-linejoin:round;stroke-miterlimit:4;stroke-dasharray:none;stroke-dashoffset:0;stroke-opacity:1"
       d="m -146.91695,3.42966 9.65236,45.411159 a 46.759651,46.759614 77.999991 0 1 19.43659,0.03519 l 9.66008,-45.4463481 a 93.185525,93.185477 77.999991 0 0 -38.74903,4.8e-6 z"
       id="path884-6-8-0-8-3-77"
       inkscape:connector-curvature="0" />
    <path
       style="fill:#296c92;fill-opacity:1;stroke:#ffffff;stroke-width:1.99549;stroke-linecap:round;stroke-linejoin:round;stroke-miterlimit:4;stroke-dasharray:none;stroke-dashoffset:0;stroke-opacity:1"
       d="m -182.31966,19.172683 27.28825,37.559177 a 46.759651,46.759614 53.999991 0 1 17.77052,-7.873409 l -9.65976,-45.4464137 a 93.185525,93.185477 53.999991 0 0 -35.39901,15.7606457 z"
       id="path884-6-8-0-8-5-8"
       inkscape:connector-curvature="0" />
    <path
       style="fill:#296c92;fill-opacity:1;stroke:#ffffff;stroke-width:1.99549;stroke-linecap:round;stroke-linejoin:round;stroke-miterlimit:4;stroke-dasharray:none;stroke-dashoffset:0;stroke-opacity:1"
       d="m -208.25839,47.95423 40.20575,23.212881 a 46.759651,46.759614 29.999991 0 1 13.03179,-14.420643 l -27.30936,-37.588387 a 93.185525,93.185477 29.999991 0 0 -25.92818,28.796149 z"
       id="path884-6-8-0-8-27-2"
       inkscape:connector-curvature="0" />
    <path
       style="fill:#296c92;fill-opacity:1;stroke:#ffffff;stroke-width:1.99549;stroke-linecap:round;stroke-linejoin:round;stroke-miterlimit:4;stroke-dasharray:none;stroke-dashoffset:0;stroke-opacity:1"
       d="m -220.24458,84.845944 46.17133,4.852859 a 46.759651,46.759614 5.999991 0 1 6.03971,-18.474408 l -40.23691,-23.230987 a 93.185525,93.185477 5.999991 0 0 -11.97413,36.852536 z"
       id="path884-6-8-0-8-38-08"
       inkscape:connector-curvature="0" />
  </g>
</svg>
