<?xml version="1.0" encoding="UTF-8" standalone="no"?>
<svg
   xmlns:dc="http://purl.org/dc/elements/1.1/"
   xmlns:cc="http://creativecommons.org/ns#"
   xmlns:rdf="http://www.w3.org/1999/02/22-rdf-syntax-ns#"
   xmlns:svg="http://www.w3.org/2000/svg"
   xmlns="http://www.w3.org/2000/svg"
   xmlns:sodipodi="http://sodipodi.sourceforge.net/DTD/sodipodi-0.dtd"
   xmlns:inkscape="http://www.inkscape.org/namespaces/inkscape"
   width="188.35077mm"
   height="188.39903mm"
   viewBox="0 0 188.35075 188.39904"
   version="1.1"
   id="svg8"
   inkscape:version="1.0.2 (e86c870879, 2021-01-15)"
   sodipodi:docname="13_11_blue.svg">
  <defs
     id="defs2" />
  <sodipodi:namedview
     id="base"
     pagecolor="#ffffff"
     bordercolor="#666666"
     borderopacity="1.0"
     inkscape:pageopacity="0.0"
     inkscape:pageshadow="2"
     inkscape:zoom="0.35"
     inkscape:cx="1248.345"
     inkscape:cy="674.53463"
     inkscape:document-units="mm"
     inkscape:current-layer="layer1"
     inkscape:document-rotation="0"
     showgrid="false"
     inkscape:window-width="2155"
     inkscape:window-height="1262"
     inkscape:window-x="138"
     inkscape:window-y="-11"
     inkscape:window-maximized="1" />
  <metadata
     id="metadata5">
    <rdf:RDF>
      <cc:Work
         rdf:about="">
        <dc:format>image/svg+xml</dc:format>
        <dc:type
           rdf:resource="http://purl.org/dc/dcmitype/StillImage" />
        <dc:title />
      </cc:Work>
    </rdf:RDF>
  </metadata>
  <g
     inkscape:label="Layer 1"
     inkscape:groupmode="layer"
     id="layer1"
     transform="translate(224.45797,30.303951)">
    <path
       style="fill:#296c92;fill-opacity:1;stroke:#ffffff;stroke-width:1.99549;stroke-linecap:round;stroke-linejoin:round;stroke-miterlimit:4;stroke-dasharray:none;stroke-dashoffset:0;stroke-opacity:1"
       d="m -222.94973,54.152723 46.1713,4.852879 a 46.759651,46.759613 5.999991 0 1 6.03969,-18.474415 l -40.23689,-23.230982 a 93.185524,93.185476 5.999991 0 0 -11.9741,36.852518 z"
       id="path884-6-8-0-8-19"
       inkscape:connector-curvature="0" />
    <path
       style="fill:#bfd3de;fill-opacity:1;stroke:#ffffff;stroke-width:1.99549;stroke-linecap:round;stroke-linejoin:round;stroke-miterlimit:4;stroke-dasharray:none;stroke-dashoffset:0;stroke-opacity:1"
       d="m -199.54203,126.2526 34.50105,-31.064705 a 46.759614,46.759651 47.999991 0 1 -9.68781,-16.850175 l -44.18774,14.357246 a 93.185477,93.185525 47.999991 0 0 19.3745,33.557634 z"
       id="path884-6-8-0-8-8-8"
       inkscape:connector-curvature="0" />
    <path
       style="fill:#bfd3de;fill-opacity:1;stroke:#ffffff;stroke-width:1.99549;stroke-linecap:round;stroke-linejoin:round;stroke-miterlimit:4;stroke-dasharray:none;stroke-dashoffset:0;stroke-opacity:1"
       d="m -218.89937,92.689483 44.15343,-14.34623 a 46.759614,46.759651 71.999991 0 1 -1.99667,-19.333794 l -46.20711,-4.856738 a 93.185477,93.185525 71.999991 0 0 4.05037,38.53676 z"
       id="path884-6-8-0-8-7-69"
       inkscape:connector-curvature="0" />
    <path
       style="fill:#296c92;fill-opacity:1;stroke:#ffffff;stroke-width:1.99549;stroke-linecap:round;stroke-linejoin:round;stroke-miterlimit:4;stroke-dasharray:none;stroke-dashoffset:0;stroke-opacity:1"
       d="m -168.20683,149.04072 18.88311,-42.41182 a 46.759614,46.759651 23.999991 0 1 -15.70385,-11.453063 l -34.52786,31.088813 a 93.185477,93.185525 23.999991 0 0 31.3486,22.77607 z"
       id="path884-6-8-0-8-84-6"
       inkscape:connector-curvature="0" />
    <path
       style="fill:#296c92;fill-opacity:1;stroke:#ffffff;stroke-width:1.99549;stroke-linecap:round;stroke-linejoin:round;stroke-miterlimit:4;stroke-dasharray:none;stroke-dashoffset:0;stroke-opacity:1"
       d="m -130.30455,157.09714 7e-5,-46.42572 a 46.759651,46.759614 89.999991 0 1 -19.00454,-4.0755 l -18.89781,42.4448 a 93.185525,93.185477 89.999991 0 0 37.90228,8.05642 z"
       id="path884-6-8-0-8-76-41"
       inkscape:connector-curvature="0" />
    <path
       style="fill:#296c92;fill-opacity:1;stroke:#ffffff;stroke-width:1.99549;stroke-linecap:round;stroke-linejoin:round;stroke-miterlimit:4;stroke-dasharray:none;stroke-dashoffset:0;stroke-opacity:1"
       d="m -92.4023,149.04078 -18.88292,-42.41193 a 46.759651,46.759614 65.999991 0 1 -19.01911,4.00686 l -1.8e-4,46.46163 a 93.185525,93.185477 65.999991 0 0 37.902261,-8.05637 z"
       id="path884-6-8-0-8-81-88"
       inkscape:connector-curvature="0" />
    <path
       style="fill:#296c92;fill-opacity:1;stroke:#ffffff;stroke-width:1.99549;stroke-linecap:round;stroke-linejoin:round;stroke-miterlimit:4;stroke-dasharray:none;stroke-dashoffset:0;stroke-opacity:1"
       d="M -61.053666,126.26471 -95.554582,95.199813 A 46.759651,46.759614 41.999991 0 1 -111.2998,106.59587 l 18.8975,42.44491 a 93.185525,93.185477 41.999991 0 0 31.348614,-22.77617 z"
       id="path884-6-8-0-8-9-3"
       inkscape:connector-curvature="0" />
    <path
       style="fill:#296c92;fill-opacity:1;stroke:#ffffff;stroke-width:1.99549;stroke-linecap:round;stroke-linejoin:round;stroke-miterlimit:4;stroke-dasharray:none;stroke-dashoffset:0;stroke-opacity:1"
       d="M -41.665778,92.719201 -85.819152,78.372794 a 46.759651,46.759614 17.999991 0 1 -9.748795,16.81494 l 34.527648,31.089066 a 93.185525,93.185477 17.999991 0 0 19.374501,-33.557698 z"
       id="path884-6-8-0-8-2-3"
       inkscape:connector-curvature="0" />
    <path
       style="fill:#296c92;fill-opacity:1;stroke:#ffffff;stroke-width:1.99549;stroke-linecap:round;stroke-linejoin:round;stroke-miterlimit:4;stroke-dasharray:none;stroke-dashoffset:0;stroke-opacity:1"
       d="m -37.615435,54.182466 -46.171339,4.852673 a 46.759614,46.759651 83.999991 0 1 -2.066679,19.326439 l 44.187635,14.357627 a 93.185477,93.185525 83.999991 0 0 4.050373,-38.536738 z"
       id="path884-6-8-0-8-6-06"
       inkscape:connector-curvature="0" />
    <path
       style="fill:#296c92;fill-opacity:1;stroke:#ffffff;stroke-width:1.99549;stroke-linecap:round;stroke-linejoin:round;stroke-miterlimit:4;stroke-dasharray:none;stroke-dashoffset:0;stroke-opacity:1"
       d="M -49.571614,17.328085 -89.777442,40.54084 a 46.759614,46.759651 59.999991 0 1 5.972754,18.496161 l 46.207165,-4.856407 A 93.185477,93.185525 59.999991 0 0 -49.571634,17.328087 Z"
       id="path884-6-8-0-8-1-32"
       inkscape:connector-curvature="0" />
    <path
       style="fill:#296c92;fill-opacity:1;stroke:#ffffff;stroke-width:1.99549;stroke-linecap:round;stroke-linejoin:round;stroke-miterlimit:4;stroke-dasharray:none;stroke-dashoffset:0;stroke-opacity:1"
       d="m -75.484141,-11.477041 -27.288369,37.5591 a 46.759614,46.759651 35.999991 0 1 12.979449,14.467743 l 40.237074,-23.23069 A 93.185477,93.185525 35.999991 0 0 -75.48414,-11.477031 Z"
       id="path884-6-8-0-8-64-01"
       inkscape:connector-curvature="0" />
    <path
       style="fill:#296c92;fill-opacity:1;stroke:#ffffff;stroke-width:1.99549;stroke-linecap:round;stroke-linejoin:round;stroke-miterlimit:4;stroke-dasharray:none;stroke-dashoffset:0;stroke-opacity:1"
       d="m -110.87252,-27.252239 -9.65251,45.411127 a 46.759614,46.759651 11.999991 0 1 17.74189,7.937721 l 27.309616,-37.588195 a 93.185477,93.185525 11.999991 0 0 -35.398996,-15.760643 z"
       id="path884-6-8-0-8-3-4"
       inkscape:connector-curvature="0" />
    <path
       style="fill:#296c92;fill-opacity:1;stroke:#ffffff;stroke-width:1.99549;stroke-linecap:round;stroke-linejoin:round;stroke-miterlimit:4;stroke-dasharray:none;stroke-dashoffset:0;stroke-opacity:1"
       d="m -149.61777,-27.269853 9.65236,45.411147 a 46.759651,46.759614 77.999991 0 1 19.43659,0.03521 l 9.66009,-45.446343 a 93.185525,93.185477 77.999991 0 0 -38.74904,-1.1e-5 z"
       id="path884-6-8-0-8-5-12"
       inkscape:connector-curvature="0" />
    <path
       style="fill:#296c92;fill-opacity:1;stroke:#ffffff;stroke-width:1.99549;stroke-linecap:round;stroke-linejoin:round;stroke-miterlimit:4;stroke-dasharray:none;stroke-dashoffset:0;stroke-opacity:1"
       d="m -185.02049,-11.526832 27.28825,37.559174 a 46.759651,46.759614 53.999991 0 1 17.77054,-7.873408 l -9.65976,-45.446415 a 93.185525,93.185477 53.999991 0 0 -35.39903,15.760649 z"
       id="path884-6-8-0-8-27-53"
       inkscape:connector-curvature="0" />
    <path
       style="fill:#296c92;fill-opacity:1;stroke:#ffffff;stroke-width:1.99549;stroke-linecap:round;stroke-linejoin:round;stroke-miterlimit:4;stroke-dasharray:none;stroke-dashoffset:0;stroke-opacity:1"
       d="m -210.97563,17.300205 40.20577,23.212876 a 46.759651,46.759614 29.999991 0 1 13.03177,-14.420639 l -27.30935,-37.588386 a 93.185525,93.185477 29.999991 0 0 -25.92819,28.796149 z"
       id="path884-6-8-0-8-38-8"
       inkscape:connector-curvature="0" />
  </g>
</svg>
