<?xml version="1.0" encoding="UTF-8" standalone="no"?>
<svg
   xmlns:dc="http://purl.org/dc/elements/1.1/"
   xmlns:cc="http://creativecommons.org/ns#"
   xmlns:rdf="http://www.w3.org/1999/02/22-rdf-syntax-ns#"
   xmlns:svg="http://www.w3.org/2000/svg"
   xmlns="http://www.w3.org/2000/svg"
   xmlns:sodipodi="http://sodipodi.sourceforge.net/DTD/sodipodi-0.dtd"
   xmlns:inkscape="http://www.inkscape.org/namespaces/inkscape"
   width="188.37155mm"
   height="188.41249mm"
   viewBox="0 0 188.37154 188.4125"
   version="1.1"
   id="svg8"
   inkscape:version="1.0.2 (e86c870879, 2021-01-15)"
   sodipodi:docname="13_2_blue.svg">
  <defs
     id="defs2" />
  <sodipodi:namedview
     id="base"
     pagecolor="#ffffff"
     bordercolor="#666666"
     borderopacity="1.0"
     inkscape:pageopacity="0.0"
     inkscape:pageshadow="2"
     inkscape:zoom="0.35"
     inkscape:cx="933.02416"
     inkscape:cy="673.31191"
     inkscape:document-units="mm"
     inkscape:current-layer="layer1"
     inkscape:document-rotation="0"
     showgrid="false"
     inkscape:window-width="2155"
     inkscape:window-height="1262"
     inkscape:window-x="138"
     inkscape:window-y="-11"
     inkscape:window-maximized="1" />
  <metadata
     id="metadata5">
    <rdf:RDF>
      <cc:Work
         rdf:about="">
        <dc:format>image/svg+xml</dc:format>
        <dc:type
           rdf:resource="http://purl.org/dc/dcmitype/StillImage" />
        <dc:title />
      </cc:Work>
    </rdf:RDF>
  </metadata>
  <g
     inkscape:label="Layer 1"
     inkscape:groupmode="layer"
     id="layer1"
     transform="translate(141.02932,29.980442)">
    <path
       style="fill:#296c92;fill-opacity:1;stroke:#ffffff;stroke-width:1.99549;stroke-linecap:round;stroke-linejoin:round;stroke-miterlimit:4;stroke-dasharray:none;stroke-dashoffset:0;stroke-opacity:1"
       d="m 33.859878,17.642594 -40.2058215,23.21275 a 46.759613,46.759651 59.999991 0 1 5.97277347,18.496159 L 45.833987,54.495111 A 93.185476,93.185524 59.999991 0 0 33.859878,17.642594 Z"
       id="path884-6-8-0-8-29"
       inkscape:connector-curvature="0" />
    <path
       style="fill:#bfd3de;fill-opacity:1;stroke:#ffffff;stroke-width:1.99549;stroke-linecap:round;stroke-linejoin:round;stroke-miterlimit:4;stroke-dasharray:none;stroke-dashoffset:0;stroke-opacity:1"
       d="m -27.456602,-26.928727 -9.652555,45.411081 a 46.759614,46.759651 11.999991 0 1 17.74189,7.937723 L 7.9423833,-11.168078 A 93.185477,93.185525 11.999991 0 0 -27.456602,-26.928727 Z"
       id="path884-6-8-0-8-8-20"
       inkscape:connector-curvature="0" />
    <path
       style="fill:#bfd3de;fill-opacity:1;stroke:#ffffff;stroke-width:1.99549;stroke-linecap:round;stroke-linejoin:round;stroke-miterlimit:4;stroke-dasharray:none;stroke-dashoffset:0;stroke-opacity:1"
       d="M 7.9317232,-11.153554 -19.356648,26.405523 A 46.759614,46.759651 35.999991 0 1 -6.3771891,40.873278 L 33.859863,17.642607 A 93.185477,93.185525 35.999991 0 0 7.9317084,-11.153541 Z"
       id="path884-6-8-0-8-7-7"
       inkscape:connector-curvature="0" />
    <path
       style="fill:#296c92;fill-opacity:1;stroke:#ffffff;stroke-width:1.99549;stroke-linecap:round;stroke-linejoin:round;stroke-miterlimit:4;stroke-dasharray:none;stroke-dashoffset:0;stroke-opacity:1"
       d="m -66.201826,-26.946335 9.652284,45.411096 a 46.759651,46.759614 77.999991 0 1 19.436621,0.03523 l 9.660082,-45.446345 a 93.185525,93.185477 77.999991 0 0 -38.748987,1.7e-5 z"
       id="path884-6-8-0-8-84-1"
       inkscape:connector-curvature="0" />
    <path
       style="fill:#296c92;fill-opacity:1;stroke:#ffffff;stroke-width:1.99549;stroke-linecap:round;stroke-linejoin:round;stroke-miterlimit:4;stroke-dasharray:none;stroke-dashoffset:0;stroke-opacity:1"
       d="m -101.60086,-11.185721 27.288295,37.55924 a 46.759651,46.759614 53.999991 0 1 17.770512,-7.873436 l -9.659773,-45.446418 a 93.185525,93.185477 53.999991 0 0 -35.399034,15.760614 z"
       id="path884-6-8-0-8-76-1"
       inkscape:connector-curvature="0" />
    <path
       style="fill:#296c92;fill-opacity:1;stroke:#ffffff;stroke-width:1.99549;stroke-linecap:round;stroke-linejoin:round;stroke-miterlimit:4;stroke-dasharray:none;stroke-dashoffset:0;stroke-opacity:1"
       d="m -127.52901,17.610402 40.205699,23.212869 a 46.759651,46.759614 29.999991 0 1 13.031617,-14.420774 l -27.309316,-37.588354 a 93.185525,93.185477 29.999991 0 0 -25.92816,28.796131 z"
       id="path884-6-8-0-8-81-9"
       inkscape:connector-curvature="0" />
    <path
       style="fill:#296c92;fill-opacity:1;stroke:#ffffff;stroke-width:1.99549;stroke-linecap:round;stroke-linejoin:round;stroke-miterlimit:4;stroke-dasharray:none;stroke-dashoffset:0;stroke-opacity:1"
       d="m -139.50316,54.46289 46.171319,4.852902 a 46.759651,46.759614 5.999991 0 1 6.039721,-18.47441 l -40.23689,-23.23098 a 93.185525,93.185477 5.999991 0 0 -11.97407,36.852556 z"
       id="path884-6-8-0-8-9-1"
       inkscape:connector-curvature="0" />
    <path
       style="fill:#296c92;fill-opacity:1;stroke:#ffffff;stroke-width:1.99549;stroke-linecap:round;stroke-linejoin:round;stroke-miterlimit:4;stroke-dasharray:none;stroke-dashoffset:0;stroke-opacity:1"
       d="m -135.47073,92.997694 44.153436,-14.346215 a 46.759614,46.759651 71.999991 0 1 -1.996634,-19.333771 l -46.207152,-4.856741 a 93.185477,93.185525 71.999991 0 0 4.05042,38.536795 z"
       id="path884-6-8-0-8-2-0"
       inkscape:connector-curvature="0" />
    <path
       style="fill:#296c92;fill-opacity:1;stroke:#ffffff;stroke-width:1.99549;stroke-linecap:round;stroke-linejoin:round;stroke-miterlimit:4;stroke-dasharray:none;stroke-dashoffset:0;stroke-opacity:1"
       d="M -116.0962,126.5553 -81.595135,95.490572 A 46.759614,46.759651 47.999991 0 1 -91.282952,78.640391 L -135.4707,92.997667 a 93.185477,93.185525 47.999991 0 0 19.3745,33.557623 z"
       id="path884-6-8-0-8-6-96"
       inkscape:connector-curvature="0" />
    <path
       style="fill:#296c92;fill-opacity:1;stroke:#ffffff;stroke-width:1.99549;stroke-linecap:round;stroke-linejoin:round;stroke-miterlimit:4;stroke-dasharray:none;stroke-dashoffset:0;stroke-opacity:1"
       d="m -84.760989,149.34345 18.883083,-42.4119 A 46.759614,46.759651 23.999991 0 1 -81.581737,95.478536 l -34.527853,31.088804 a 93.185477,93.185525 23.999991 0 0 31.348616,22.7761 z"
       id="path884-6-8-0-8-1-6"
       inkscape:connector-curvature="0" />
    <path
       style="fill:#296c92;fill-opacity:1;stroke:#ffffff;stroke-width:1.99549;stroke-linecap:round;stroke-linejoin:round;stroke-miterlimit:4;stroke-dasharray:none;stroke-dashoffset:0;stroke-opacity:1"
       d="m -46.866086,157.41629 7.3e-5,-46.42565 a 46.759651,46.759614 89.999991 0 1 -19.004525,-4.07552 l -18.89782,42.44478 a 93.185525,93.185477 89.999991 0 0 37.902265,8.05638 z"
       id="path884-6-8-0-8-64-0"
       inkscape:connector-curvature="0" />
    <path
       style="fill:#296c92;fill-opacity:1;stroke:#ffffff;stroke-width:1.99549;stroke-linecap:round;stroke-linejoin:round;stroke-miterlimit:4;stroke-dasharray:none;stroke-dashoffset:0;stroke-opacity:1"
       d="M -8.9638579,149.37793 -27.846802,106.96595 a 46.759651,46.759614 65.999991 0 1 -19.019166,4.00667 l -1.59e-4,46.46168 a 93.185525,93.185477 65.999991 0 0 37.9022624,-8.05638 z"
       id="path884-6-8-0-8-3-7"
       inkscape:connector-curvature="0" />
    <path
       style="fill:#296c92;fill-opacity:1;stroke:#ffffff;stroke-width:1.99549;stroke-linecap:round;stroke-linejoin:round;stroke-miterlimit:4;stroke-dasharray:none;stroke-dashoffset:0;stroke-opacity:1"
       d="M 22.392062,126.61829 -12.108867,95.553415 a 46.759651,46.759614 41.999991 0 1 -15.745222,11.396055 l 18.8975109,42.44492 a 93.185525,93.185477 41.999991 0 0 31.3486401,-22.7761 z"
       id="path884-6-8-0-8-5-9"
       inkscape:connector-curvature="0" />
    <path
       style="fill:#296c92;fill-opacity:1;stroke:#ffffff;stroke-width:1.99549;stroke-linecap:round;stroke-linejoin:round;stroke-miterlimit:4;stroke-dasharray:none;stroke-dashoffset:0;stroke-opacity:1"
       d="M 41.779945,93.072722 -2.3734411,78.726343 A 46.759651,46.759614 17.999991 0 1 -12.122232,95.541322 L 22.405411,126.63038 A 93.185525,93.185477 17.999991 0 0 41.779945,93.072722 Z"
       id="path884-6-8-0-8-27-0"
       inkscape:connector-curvature="0" />
    <path
       style="fill:#296c92;fill-opacity:1;stroke:#ffffff;stroke-width:1.99549;stroke-linecap:round;stroke-linejoin:round;stroke-miterlimit:4;stroke-dasharray:none;stroke-dashoffset:0;stroke-opacity:1"
       d="M 45.833987,54.495111 -0.33734853,59.347857 A 46.759614,46.759651 83.999991 0 1 -2.4040348,78.674283 l 44.1876278,14.35761 a 93.185477,93.185525 83.999991 0 0 4.050394,-38.536782 z"
       id="path884-6-8-0-8-38-6"
       inkscape:connector-curvature="0" />
  </g>
</svg>
