<?xml version="1.0" encoding="UTF-8" standalone="no"?>
<svg
   xmlns:dc="http://purl.org/dc/elements/1.1/"
   xmlns:cc="http://creativecommons.org/ns#"
   xmlns:rdf="http://www.w3.org/1999/02/22-rdf-syntax-ns#"
   xmlns:svg="http://www.w3.org/2000/svg"
   xmlns="http://www.w3.org/2000/svg"
   xmlns:sodipodi="http://sodipodi.sourceforge.net/DTD/sodipodi-0.dtd"
   xmlns:inkscape="http://www.inkscape.org/namespaces/inkscape"
   width="188.35735mm"
   height="188.41089mm"
   viewBox="0 0 188.35733 188.4109"
   version="1.1"
   id="svg8"
   inkscape:version="1.0.2 (e86c870879, 2021-01-15)"
   sodipodi:docname="13_3_blue.svg">
  <defs
     id="defs2" />
  <sodipodi:namedview
     id="base"
     pagecolor="#ffffff"
     bordercolor="#666666"
     borderopacity="1.0"
     inkscape:pageopacity="0.0"
     inkscape:pageshadow="2"
     inkscape:zoom="0.35"
     inkscape:cx="1140.4036"
     inkscape:cy="775.07827"
     inkscape:document-units="mm"
     inkscape:current-layer="layer1"
     inkscape:document-rotation="0"
     showgrid="false"
     inkscape:window-width="2155"
     inkscape:window-height="1262"
     inkscape:window-x="138"
     inkscape:window-y="-11"
     inkscape:window-maximized="1" />
  <metadata
     id="metadata5">
    <rdf:RDF>
      <cc:Work
         rdf:about="">
        <dc:format>image/svg+xml</dc:format>
        <dc:type
           rdf:resource="http://purl.org/dc/dcmitype/StillImage" />
        <dc:title />
      </cc:Work>
    </rdf:RDF>
  </metadata>
  <g
     inkscape:label="Layer 1"
     inkscape:groupmode="layer"
     id="layer1"
     transform="translate(195.89847,56.906123)">
    <path
       style="fill:#296c92;fill-opacity:1;stroke:#ffffff;stroke-width:1.99549;stroke-linecap:round;stroke-linejoin:round;stroke-miterlimit:4;stroke-dasharray:none;stroke-dashoffset:0;stroke-opacity:1"
       d="m -9.0493698,27.56078 -46.1713212,4.852722 a 46.759613,46.759651 83.999991 0 1 -2.066666,19.326427 l 44.187611,14.35761 A 93.185476,93.185524 83.999991 0 0 -9.0493698,27.56078 Z"
       id="path884-6-8-0-8-86"
       inkscape:connector-curvature="0" />
    <path
       style="fill:#bfd3de;fill-opacity:1;stroke:#ffffff;stroke-width:1.99549;stroke-linecap:round;stroke-linejoin:round;stroke-miterlimit:4;stroke-dasharray:none;stroke-dashoffset:0;stroke-opacity:1"
       d="M -46.935972,-38.096807 -74.22437,-0.5377683 A 46.759614,46.759651 35.999991 0 1 -61.24491,13.92998 L -21.007823,-9.3006727 A 93.185477,93.185525 35.999991 0 0 -46.935972,-38.096807 Z"
       id="path884-6-8-0-8-8-6"
       inkscape:connector-curvature="0" />
    <path
       style="fill:#bfd3de;fill-opacity:1;stroke:#ffffff;stroke-width:1.99549;stroke-linecap:round;stroke-linejoin:round;stroke-miterlimit:4;stroke-dasharray:none;stroke-dashoffset:0;stroke-opacity:1"
       d="m -21.023469,-9.2917408 -40.20582,23.2127448 a 46.759614,46.759651 59.999991 0 1 5.972759,18.496173 L -9.0493888,27.560786 A 93.185477,93.185525 59.999991 0 0 -21.023488,-9.2917346 Z"
       id="path884-6-8-0-8-7-1"
       inkscape:connector-curvature="0" />
    <path
       style="fill:#296c92;fill-opacity:1;stroke:#ffffff;stroke-width:1.99549;stroke-linecap:round;stroke-linejoin:round;stroke-miterlimit:4;stroke-dasharray:none;stroke-dashoffset:0;stroke-opacity:1"
       d="m -82.324333,-53.871995 -9.652557,45.4110386 a 46.759614,46.759651 11.999991 0 1 17.741907,7.93777143 L -46.925366,-38.111378 a 93.185477,93.185525 11.999991 0 0 -35.398967,-15.760617 z"
       id="path884-6-8-0-8-84-4"
       inkscape:connector-curvature="0" />
    <path
       style="fill:#296c92;fill-opacity:1;stroke:#ffffff;stroke-width:1.99549;stroke-linecap:round;stroke-linejoin:round;stroke-miterlimit:4;stroke-dasharray:none;stroke-dashoffset:0;stroke-opacity:1"
       d="m -121.07338,-53.872043 9.65238,45.4112238 a 46.759651,46.759614 77.999991 0 1 19.436584,0.035177 l 9.660083,-45.4463526 a 93.185525,93.185477 77.999991 0 0 -38.749047,-4.8e-5 z"
       id="path884-6-8-0-8-76-2"
       inkscape:connector-curvature="0" />
    <path
       style="fill:#296c92;fill-opacity:1;stroke:#ffffff;stroke-width:1.99549;stroke-linecap:round;stroke-linejoin:round;stroke-miterlimit:4;stroke-dasharray:none;stroke-dashoffset:0;stroke-opacity:1"
       d="m -156.47237,-38.111405 27.28822,37.55914392 a 46.759651,46.759614 53.999991 0 1 17.77043,-7.87359662 l -9.65974,-45.4463693 a 93.185525,93.185477 53.999991 0 0 -35.399,15.760641 z"
       id="path884-6-8-0-8-81-3"
       inkscape:connector-curvature="0" />
    <path
       style="fill:#296c92;fill-opacity:1;stroke:#ffffff;stroke-width:1.99549;stroke-linecap:round;stroke-linejoin:round;stroke-miterlimit:4;stroke-dasharray:none;stroke-dashoffset:0;stroke-opacity:1"
       d="m -182.40055,-9.3153045 40.20575,23.2129125 a 46.759651,46.759614 29.999991 0 1 13.03178,-14.42063704 L -156.47237,-38.111405 a 93.185525,93.185477 29.999991 0 0 -25.92814,28.7961925 z"
       id="path884-6-8-0-8-9-4"
       inkscape:connector-curvature="0" />
    <path
       style="fill:#296c92;fill-opacity:1;stroke:#ffffff;stroke-width:1.99549;stroke-linecap:round;stroke-linejoin:round;stroke-miterlimit:4;stroke-dasharray:none;stroke-dashoffset:0;stroke-opacity:1"
       d="m -194.39026,27.528126 46.1713,4.852901 a 46.759651,46.759614 5.999991 0 1 6.03974,-18.474383 l -40.23692,-23.2309942 a 93.185525,93.185477 5.999991 0 0 -11.97408,36.8525682 z"
       id="path884-6-8-0-8-2-44"
       inkscape:connector-curvature="0" />
    <path
       style="fill:#296c92;fill-opacity:1;stroke:#ffffff;stroke-width:1.99549;stroke-linecap:round;stroke-linejoin:round;stroke-miterlimit:4;stroke-dasharray:none;stroke-dashoffset:0;stroke-opacity:1"
       d="m -190.33985,66.064854 44.15345,-14.346191 a 46.759614,46.759651 71.999991 0 1 -1.99667,-19.333797 l -46.20715,-4.856752 a 93.185477,93.185525 71.999991 0 0 4.05038,38.536737 z"
       id="path884-6-8-0-8-6-1"
       inkscape:connector-curvature="0" />
    <path
       style="fill:#296c92;fill-opacity:1;stroke:#ffffff;stroke-width:1.99549;stroke-linecap:round;stroke-linejoin:round;stroke-miterlimit:4;stroke-dasharray:none;stroke-dashoffset:0;stroke-opacity:1"
       d="m -170.98249,99.628049 34.50103,-31.064763 a 46.759614,46.759651 47.999991 0 1 -9.6878,-16.85017 l -44.18773,14.357294 a 93.185477,93.185525 47.999991 0 0 19.37452,33.557633 z"
       id="path884-6-8-0-8-1-0"
       inkscape:connector-curvature="0" />
    <path
       style="fill:#296c92;fill-opacity:1;stroke:#ffffff;stroke-width:1.99549;stroke-linecap:round;stroke-linejoin:round;stroke-miterlimit:4;stroke-dasharray:none;stroke-dashoffset:0;stroke-opacity:1"
       d="m -139.64729,122.4162 18.88308,-42.411918 a 46.759614,46.759651 23.999991 0 1 -15.70383,-11.453009 l -34.52787,31.088802 a 93.185477,93.185525 23.999991 0 0 31.34862,22.776115 z"
       id="path884-6-8-0-8-64-5"
       inkscape:connector-curvature="0" />
    <path
       style="fill:#296c92;fill-opacity:1;stroke:#ffffff;stroke-width:1.99549;stroke-linecap:round;stroke-linejoin:round;stroke-miterlimit:4;stroke-dasharray:none;stroke-dashoffset:0;stroke-opacity:1"
       d="m -101.75239,130.48901 8e-5,-46.425654 a 46.759651,46.759614 89.999991 0 1 -19.00453,-4.075517 l -18.89781,42.444791 a 93.185525,93.185477 89.999991 0 0 37.90226,8.05637 z"
       id="path884-6-8-0-8-3-9"
       inkscape:connector-curvature="0" />
    <path
       style="fill:#296c92;fill-opacity:1;stroke:#ffffff;stroke-width:1.99549;stroke-linecap:round;stroke-linejoin:round;stroke-miterlimit:4;stroke-dasharray:none;stroke-dashoffset:0;stroke-opacity:1"
       d="M -63.850148,122.45065 -82.733094,80.038684 a 46.759651,46.759614 65.999991 0 1 -19.019166,4.006656 l -1.7e-4,46.46168 a 93.185525,93.185477 65.999991 0 0 37.902282,-8.05637 z"
       id="path884-6-8-0-8-5-1"
       inkscape:connector-curvature="0" />
    <path
       style="fill:#296c92;fill-opacity:1;stroke:#ffffff;stroke-width:1.99549;stroke-linecap:round;stroke-linejoin:round;stroke-miterlimit:4;stroke-dasharray:none;stroke-dashoffset:0;stroke-opacity:1"
       d="M -32.494225,99.691012 -66.995153,68.626144 A 46.759651,46.759614 41.999991 0 1 -82.740384,80.0222 l 18.897513,42.44492 a 93.185525,93.185477 41.999991 0 0 31.348646,-22.776108 z"
       id="path884-6-8-0-8-27-1"
       inkscape:connector-curvature="0" />
    <path
       style="fill:#296c92;fill-opacity:1;stroke:#ffffff;stroke-width:1.99549;stroke-linecap:round;stroke-linejoin:round;stroke-miterlimit:4;stroke-dasharray:none;stroke-dashoffset:0;stroke-opacity:1"
       d="m -13.099746,66.097539 -44.153403,-14.34637 a 46.759651,46.759614 17.999991 0 1 -9.748778,16.814971 l 34.52764,31.089057 a 93.185525,93.185477 17.999991 0 0 19.374541,-33.557658 z"
       id="path884-6-8-0-8-38-65"
       inkscape:connector-curvature="0" />
  </g>
</svg>
