<?xml version="1.0" encoding="UTF-8" standalone="no"?>
<svg
   xmlns:dc="http://purl.org/dc/elements/1.1/"
   xmlns:cc="http://creativecommons.org/ns#"
   xmlns:rdf="http://www.w3.org/1999/02/22-rdf-syntax-ns#"
   xmlns:svg="http://www.w3.org/2000/svg"
   xmlns="http://www.w3.org/2000/svg"
   xmlns:sodipodi="http://sodipodi.sourceforge.net/DTD/sodipodi-0.dtd"
   xmlns:inkscape="http://www.inkscape.org/namespaces/inkscape"
   width="188.36288mm"
   height="188.40364mm"
   viewBox="0 0 188.36287 188.40365"
   version="1.1"
   id="svg8"
   inkscape:version="1.0.2 (e86c870879, 2021-01-15)"
   sodipodi:docname="13_4_blue.svg">
  <defs
     id="defs2" />
  <sodipodi:namedview
     id="base"
     pagecolor="#ffffff"
     bordercolor="#666666"
     borderopacity="1.0"
     inkscape:pageopacity="0.0"
     inkscape:pageshadow="2"
     inkscape:zoom="0.35"
     inkscape:cx="1113.5079"
     inkscape:cy="748.25952"
     inkscape:document-units="mm"
     inkscape:current-layer="layer1"
     inkscape:document-rotation="0"
     showgrid="false"
     inkscape:window-width="2155"
     inkscape:window-height="1262"
     inkscape:window-x="138"
     inkscape:window-y="-11"
     inkscape:window-maximized="1" />
  <metadata
     id="metadata5">
    <rdf:RDF>
      <cc:Work
         rdf:about="">
        <dc:format>image/svg+xml</dc:format>
        <dc:type
           rdf:resource="http://purl.org/dc/dcmitype/StillImage" />
        <dc:title />
      </cc:Work>
    </rdf:RDF>
  </metadata>
  <g
     inkscape:label="Layer 1"
     inkscape:groupmode="layer"
     id="layer1"
     transform="translate(188.7823,49.810328)">
    <path
       style="fill:#296c92;fill-opacity:1;stroke:#ffffff;stroke-width:1.99549;stroke-linecap:round;stroke-linejoin:round;stroke-miterlimit:4;stroke-dasharray:none;stroke-dashoffset:0;stroke-opacity:1"
       d="M -5.9780258,73.180833 -50.131407,58.834447 a 46.759651,46.759613 17.999991 0 1 -9.748759,16.814981 l 34.527625,31.089052 A 93.185524,93.185476 17.999991 0 0 -5.9780258,73.180833 Z"
       id="path884-6-8-0-8-18"
       inkscape:connector-curvature="0" />
    <path
       style="fill:#bfd3de;fill-opacity:1;stroke:#ffffff;stroke-width:1.99549;stroke-linecap:round;stroke-linejoin:round;stroke-miterlimit:4;stroke-dasharray:none;stroke-dashoffset:0;stroke-opacity:1"
       d="M -13.883813,-2.2102271 -54.089642,21.002471 a 46.759614,46.759651 59.999991 0 1 5.972763,18.496168 l 46.2071656,-4.85636 A 93.185477,93.185525 59.999991 0 0 -13.883813,-2.2102271 Z"
       id="path884-6-8-0-8-8-4"
       inkscape:connector-curvature="0" />
    <path
       style="fill:#bfd3de;fill-opacity:1;stroke:#ffffff;stroke-width:1.99549;stroke-linecap:round;stroke-linejoin:round;stroke-miterlimit:4;stroke-dasharray:none;stroke-dashoffset:0;stroke-opacity:1"
       d="m -1.9276393,34.644075 -46.1713187,4.852717 a 46.759614,46.759651 83.999991 0 1 -2.066684,19.326435 l 44.1875963,14.357604 a 93.185477,93.185525 83.999991 0 0 4.0503865,-38.536758 z"
       id="path884-6-8-0-8-7-6"
       inkscape:connector-curvature="0" />
    <path
       style="fill:#296c92;fill-opacity:1;stroke:#ffffff;stroke-width:1.99549;stroke-linecap:round;stroke-linejoin:round;stroke-miterlimit:4;stroke-dasharray:none;stroke-dashoffset:0;stroke-opacity:1"
       d="M -39.796342,-31.015321 -67.084725,6.5436781 a 46.759614,46.759651 35.999991 0 1 12.979456,14.4677989 l 40.237072,-23.230701 a 93.185477,93.185525 35.999991 0 0 -25.928145,-28.796097 z"
       id="path884-6-8-0-8-84-5"
       inkscape:connector-curvature="0" />
    <path
       style="fill:#296c92;fill-opacity:1;stroke:#ffffff;stroke-width:1.99549;stroke-linecap:round;stroke-linejoin:round;stroke-miterlimit:4;stroke-dasharray:none;stroke-dashoffset:0;stroke-opacity:1"
       d="m -75.19534,-46.776023 -9.65252,45.4111944 a 46.759614,46.759651 11.999991 0 1 17.741896,7.9377067 L -39.796342,-31.015321 A 93.185477,93.185525 11.999991 0 0 -75.19534,-46.776023 Z"
       id="path884-6-8-0-8-76-4"
       inkscape:connector-curvature="0" />
    <path
       style="fill:#296c92;fill-opacity:1;stroke:#ffffff;stroke-width:1.99549;stroke-linecap:round;stroke-linejoin:round;stroke-miterlimit:4;stroke-dasharray:none;stroke-dashoffset:0;stroke-opacity:1"
       d="m -113.94435,-46.776027 9.65234,45.4111011 a 46.759651,46.759614 77.999991 0 1 19.436581,0.034997 l 9.66009,-45.4462953 a 93.185525,93.185477 77.999991 0 0 -38.749021,-5e-6 z"
       id="path884-6-8-0-8-81-8"
       inkscape:connector-curvature="0" />
    <path
       style="fill:#296c92;fill-opacity:1;stroke:#ffffff;stroke-width:1.99549;stroke-linecap:round;stroke-linejoin:round;stroke-miterlimit:4;stroke-dasharray:none;stroke-dashoffset:0;stroke-opacity:1"
       d="m -149.34335,-31.015422 27.28823,37.5591999 a 46.759651,46.759614 53.999991 0 1 17.77052,-7.8734058 l -9.65975,-45.4463991 a 93.185525,93.185477 53.999991 0 0 -35.399,15.760705 z"
       id="path884-6-8-0-8-9-9"
       inkscape:connector-curvature="0" />
    <path
       style="fill:#296c92;fill-opacity:1;stroke:#ffffff;stroke-width:1.99549;stroke-linecap:round;stroke-linejoin:round;stroke-miterlimit:4;stroke-dasharray:none;stroke-dashoffset:0;stroke-opacity:1"
       d="m -175.28207,-2.2339289 40.20573,23.2129059 a 46.759651,46.759614 29.999991 0 1 13.03178,-14.4206051 l -27.30935,-37.5883979 a 93.185525,93.185477 29.999991 0 0 -25.92816,28.7961976 z"
       id="path884-6-8-0-8-2-9"
       inkscape:connector-curvature="0" />
    <path
       style="fill:#296c92;fill-opacity:1;stroke:#ffffff;stroke-width:1.99549;stroke-linecap:round;stroke-linejoin:round;stroke-miterlimit:4;stroke-dasharray:none;stroke-dashoffset:0;stroke-opacity:1"
       d="m -187.25614,34.618572 46.17131,4.852931 a 46.759651,46.759614 5.999991 0 1 6.03971,-18.474423 l -40.23691,-23.2310047 a 93.185525,93.185477 5.999991 0 0 -11.9741,36.8524977 z"
       id="path884-6-8-0-8-6-6"
       inkscape:connector-curvature="0" />
    <path
       style="fill:#296c92;fill-opacity:1;stroke:#ffffff;stroke-width:1.99549;stroke-linecap:round;stroke-linejoin:round;stroke-miterlimit:4;stroke-dasharray:none;stroke-dashoffset:0;stroke-opacity:1"
       d="m -183.22369,73.153426 44.15344,-14.34624 a 46.759614,46.759651 71.999991 0 1 -1.99667,-19.333781 l -46.20713,-4.856726 a 93.185477,93.185525 71.999991 0 0 4.05038,38.536749 z"
       id="path884-6-8-0-8-1-5"
       inkscape:connector-curvature="0" />
    <path
       style="fill:#296c92;fill-opacity:1;stroke:#ffffff;stroke-width:1.99549;stroke-linecap:round;stroke-linejoin:round;stroke-miterlimit:4;stroke-dasharray:none;stroke-dashoffset:0;stroke-opacity:1"
       d="m -163.86634,106.71661 34.50104,-31.064773 a 46.759614,46.759651 47.999991 0 1 -9.68781,-16.850169 l -44.18773,14.357285 a 93.185477,93.185525 47.999991 0 0 19.3745,33.557647 z"
       id="path884-6-8-0-8-64-1"
       inkscape:connector-curvature="0" />
    <path
       style="fill:#296c92;fill-opacity:1;stroke:#ffffff;stroke-width:1.99549;stroke-linecap:round;stroke-linejoin:round;stroke-miterlimit:4;stroke-dasharray:none;stroke-dashoffset:0;stroke-opacity:1"
       d="m -132.53113,129.50474 18.88309,-42.411917 a 46.759614,46.759651 23.999991 0 1 -15.70384,-11.453009 l -34.52787,31.088816 a 93.185477,93.185525 23.999991 0 0 31.34862,22.7761 z"
       id="path884-6-8-0-8-3-75"
       inkscape:connector-curvature="0" />
    <path
       style="fill:#296c92;fill-opacity:1;stroke:#ffffff;stroke-width:1.99549;stroke-linecap:round;stroke-linejoin:round;stroke-miterlimit:4;stroke-dasharray:none;stroke-dashoffset:0;stroke-opacity:1"
       d="m -94.636215,137.57756 7.1e-5,-46.425647 a 46.759651,46.759614 89.999991 0 1 -19.004526,-4.07553 l -18.89783,42.444787 a 93.185525,93.185477 89.999991 0 0 37.902285,8.05639 z"
       id="path884-6-8-0-8-5-6"
       inkscape:connector-curvature="0" />
    <path
       style="fill:#296c92;fill-opacity:1;stroke:#ffffff;stroke-width:1.99549;stroke-linecap:round;stroke-linejoin:round;stroke-miterlimit:4;stroke-dasharray:none;stroke-dashoffset:0;stroke-opacity:1"
       d="M -56.733975,129.5392 -75.616921,87.127236 a 46.759651,46.759614 65.999991 0 1 -19.019178,4.006653 l -1.69e-4,46.461681 a 93.185525,93.185477 65.999991 0 0 37.902293,-8.05637 z"
       id="path884-6-8-0-8-27-6"
       inkscape:connector-curvature="0" />
    <path
       style="fill:#296c92;fill-opacity:1;stroke:#ffffff;stroke-width:1.99549;stroke-linecap:round;stroke-linejoin:round;stroke-miterlimit:4;stroke-dasharray:none;stroke-dashoffset:0;stroke-opacity:1"
       d="M -25.352541,106.73848 -59.853487,75.673609 a 46.759651,46.759614 41.999991 0 1 -15.745216,11.396056 l 18.897509,42.444925 a 93.185525,93.185477 41.999991 0 0 31.348653,-22.77611 z"
       id="path884-6-8-0-8-38-03"
       inkscape:connector-curvature="0" />
  </g>
</svg>
