<?xml version="1.0" encoding="UTF-8" standalone="no"?>
<svg
   xmlns:dc="http://purl.org/dc/elements/1.1/"
   xmlns:cc="http://creativecommons.org/ns#"
   xmlns:rdf="http://www.w3.org/1999/02/22-rdf-syntax-ns#"
   xmlns:svg="http://www.w3.org/2000/svg"
   xmlns="http://www.w3.org/2000/svg"
   xmlns:sodipodi="http://sodipodi.sourceforge.net/DTD/sodipodi-0.dtd"
   xmlns:inkscape="http://www.inkscape.org/namespaces/inkscape"
   width="188.38725mm"
   height="188.37335mm"
   viewBox="0 0 188.38724 188.37336"
   version="1.1"
   id="svg8"
   inkscape:version="1.0.2 (e86c870879, 2021-01-15)"
   sodipodi:docname="13_5_blue.svg">
  <defs
     id="defs2" />
  <sodipodi:namedview
     id="base"
     pagecolor="#ffffff"
     bordercolor="#666666"
     borderopacity="1.0"
     inkscape:pageopacity="0.0"
     inkscape:pageshadow="2"
     inkscape:zoom="0.35"
     inkscape:cx="1000.9438"
     inkscape:cy="564.24064"
     inkscape:document-units="mm"
     inkscape:current-layer="layer1"
     inkscape:document-rotation="0"
     showgrid="false"
     inkscape:window-width="2155"
     inkscape:window-height="1262"
     inkscape:window-x="138"
     inkscape:window-y="-11"
     inkscape:window-maximized="1" />
  <metadata
     id="metadata5">
    <rdf:RDF>
      <cc:Work
         rdf:about="">
        <dc:format>image/svg+xml</dc:format>
        <dc:type
           rdf:resource="http://purl.org/dc/dcmitype/StillImage" />
        <dc:title />
      </cc:Work>
    </rdf:RDF>
  </metadata>
  <g
     inkscape:label="Layer 1"
     inkscape:groupmode="layer"
     id="layer1"
     transform="translate(158.99973,1.1220008)">
    <path
       style="fill:#296c92;fill-opacity:1;stroke:#ffffff;stroke-width:1.99549;stroke-linecap:round;stroke-linejoin:round;stroke-miterlimit:4;stroke-dasharray:none;stroke-dashoffset:0;stroke-opacity:1"
       d="M 4.4372582,155.41198 -30.063662,124.34711 a 46.759651,46.759613 41.999991 0 1 -15.745203,11.39607 l 18.897499,42.44491 A 93.185524,93.185476 41.999991 0 0 4.4372582,155.41198 Z"
       id="path884-6-8-0-8-25"
       inkscape:connector-curvature="0" />
    <path
       style="fill:#bfd3de;fill-opacity:1;stroke:#ffffff;stroke-width:1.99549;stroke-linecap:round;stroke-linejoin:round;stroke-miterlimit:4;stroke-dasharray:none;stroke-dashoffset:0;stroke-opacity:1"
       d="m 27.879269,83.323251 -46.171308,4.852671 a 46.759614,46.759651 83.999991 0 1 -2.066678,19.326428 L 23.828889,121.86 a 93.185477,93.185525 83.999991 0 0 4.05038,-38.536749 z"
       id="path884-6-8-0-8-8-5"
       inkscape:connector-curvature="0" />
    <path
       style="fill:#bfd3de;fill-opacity:1;stroke:#ffffff;stroke-width:1.99549;stroke-linecap:round;stroke-linejoin:round;stroke-miterlimit:4;stroke-dasharray:none;stroke-dashoffset:0;stroke-opacity:1"
       d="m 23.811782,121.85435 -44.153376,-14.34639 a 46.759651,46.759614 17.999991 0 1 -9.748779,16.81498 L 4.4372409,155.41197 A 93.185525,93.185477 17.999991 0 0 23.811765,121.85434 Z"
       id="path884-6-8-0-8-7-5"
       inkscape:connector-curvature="0" />
    <path
       style="fill:#296c92;fill-opacity:1;stroke:#ffffff;stroke-width:1.99549;stroke-linecap:round;stroke-linejoin:round;stroke-miterlimit:4;stroke-dasharray:none;stroke-dashoffset:0;stroke-opacity:1"
       d="m 15.923083,46.468913 -40.2058,23.212668 a 46.759614,46.759651 59.999991 0 1 5.972739,18.496212 l 46.207172,-4.85641 A 93.185477,93.185525 59.999991 0 0 15.923083,46.468913 Z"
       id="path884-6-8-0-8-84-7"
       inkscape:connector-curvature="0" />
    <path
       style="fill:#296c92;fill-opacity:1;stroke:#ffffff;stroke-width:1.99549;stroke-linecap:round;stroke-linejoin:round;stroke-miterlimit:4;stroke-dasharray:none;stroke-dashoffset:0;stroke-opacity:1"
       d="m -10.005056,17.672726 -27.288412,37.559157 a 46.759614,46.759651 35.999991 0 1 12.979472,14.467735 L 15.923083,46.468913 A 93.185477,93.185525 35.999991 0 0 -10.005056,17.672726 Z"
       id="path884-6-8-0-8-76-3"
       inkscape:connector-curvature="0" />
    <path
       style="fill:#296c92;fill-opacity:1;stroke:#ffffff;stroke-width:1.99549;stroke-linecap:round;stroke-linejoin:round;stroke-miterlimit:4;stroke-dasharray:none;stroke-dashoffset:0;stroke-opacity:1"
       d="m -45.404037,1.9120794 -9.652504,45.4110676 a 46.759614,46.759651 11.999991 0 1 17.741963,7.93754 L -10.004973,17.672543 A 93.185477,93.185525 11.999991 0 0 -45.403962,1.9118912 Z"
       id="path884-6-8-0-8-81-11"
       inkscape:connector-curvature="0" />
    <path
       style="fill:#296c92;fill-opacity:1;stroke:#ffffff;stroke-width:1.99549;stroke-linecap:round;stroke-linejoin:round;stroke-miterlimit:4;stroke-dasharray:none;stroke-dashoffset:0;stroke-opacity:1"
       d="m -84.153049,1.9120376 9.652338,45.4111604 a 46.759651,46.759614 77.999991 0 1 19.436584,0.03521 l 9.66009,-45.4463276 a 93.185525,93.185477 77.999991 0 0 -38.749053,4.98e-5 z"
       id="path884-6-8-0-8-9-6"
       inkscape:connector-curvature="0" />
    <path
       style="fill:#296c92;fill-opacity:1;stroke:#ffffff;stroke-width:1.99549;stroke-linecap:round;stroke-linejoin:round;stroke-miterlimit:4;stroke-dasharray:none;stroke-dashoffset:0;stroke-opacity:1"
       d="m -119.55574,17.655012 27.288227,37.559189 a 46.759651,46.759614 53.999991 0 1 17.770515,-7.873374 L -84.156757,1.8944005 A 93.185525,93.185477 53.999991 0 0 -119.55578,17.655104 Z"
       id="path884-6-8-0-8-2-5"
       inkscape:connector-curvature="0" />
    <path
       style="fill:#296c92;fill-opacity:1;stroke:#ffffff;stroke-width:1.99549;stroke-linecap:round;stroke-linejoin:round;stroke-miterlimit:4;stroke-dasharray:none;stroke-dashoffset:0;stroke-opacity:1"
       d="m -145.48386,46.451154 40.20573,23.212937 A 46.759651,46.759614 29.999991 0 1 -92.246356,55.243437 L -119.5557,17.655032 a 93.185525,93.185477 29.999991 0 0 -25.92815,28.796127 z"
       id="path884-6-8-0-8-6-8"
       inkscape:connector-curvature="0" />
    <path
       style="fill:#296c92;fill-opacity:1;stroke:#ffffff;stroke-width:1.99549;stroke-linecap:round;stroke-linejoin:round;stroke-miterlimit:4;stroke-dasharray:none;stroke-dashoffset:0;stroke-opacity:1"
       d="m -157.47357,83.29464 46.17132,4.852879 a 46.759651,46.759614 5.999991 0 1 6.03971,-18.474406 L -145.49945,46.44214 a 93.185525,93.185477 5.999991 0 0 -11.9741,36.85251 z"
       id="path884-6-8-0-8-1-1"
       inkscape:connector-curvature="0" />
    <path
       style="fill:#296c92;fill-opacity:1;stroke:#ffffff;stroke-width:1.99549;stroke-linecap:round;stroke-linejoin:round;stroke-miterlimit:4;stroke-dasharray:none;stroke-dashoffset:0;stroke-opacity:1"
       d="m -153.44112,121.82948 44.15344,-14.34625 a 46.759614,46.759651 71.999991 0 1 -1.99667,-19.33378 l -46.20713,-4.856737 a 93.185477,93.185525 71.999991 0 0 4.05036,38.536757 z"
       id="path884-6-8-0-8-64-87"
       inkscape:connector-curvature="0" />
    <path
       style="fill:#296c92;fill-opacity:1;stroke:#ffffff;stroke-width:1.99549;stroke-linecap:round;stroke-linejoin:round;stroke-miterlimit:4;stroke-dasharray:none;stroke-dashoffset:0;stroke-opacity:1"
       d="m -134.08375,155.39265 34.501038,-31.06477 a 46.759614,46.759651 47.999991 0 1 -9.687818,-16.85017 l -44.18773,14.35729 a 93.185477,93.185525 47.999991 0 0 19.37452,33.55764 z"
       id="path884-6-8-0-8-3-3"
       inkscape:connector-curvature="0" />
    <path
       style="fill:#296c92;fill-opacity:1;stroke:#ffffff;stroke-width:1.99549;stroke-linecap:round;stroke-linejoin:round;stroke-miterlimit:4;stroke-dasharray:none;stroke-dashoffset:0;stroke-opacity:1"
       d="m -102.74854,178.18079 18.88308,-42.41191 a 46.759614,46.759651 23.999991 0 1 -15.703834,-11.45302 l -34.527866,31.0888 a 93.185477,93.185525 23.999991 0 0 31.34862,22.77613 z"
       id="path884-6-8-0-8-5-01"
       inkscape:connector-curvature="0" />
    <path
       style="fill:#296c92;fill-opacity:1;stroke:#ffffff;stroke-width:1.99549;stroke-linecap:round;stroke-linejoin:round;stroke-miterlimit:4;stroke-dasharray:none;stroke-dashoffset:0;stroke-opacity:1"
       d="m -64.853621,186.25361 7e-5,-46.42564 a 46.759651,46.759614 89.999991 0 1 -19.004537,-4.07554 l -18.897822,42.44479 a 93.185525,93.185477 89.999991 0 0 37.902289,8.05639 z"
       id="path884-6-8-0-8-27-8"
       inkscape:connector-curvature="0" />
    <path
       style="fill:#296c92;fill-opacity:1;stroke:#ffffff;stroke-width:1.99549;stroke-linecap:round;stroke-linejoin:round;stroke-miterlimit:4;stroke-dasharray:none;stroke-dashoffset:0;stroke-opacity:1"
       d="m -26.911366,178.18809 -18.882962,-42.41197 a 46.759651,46.759614 65.999991 0 1 -19.019164,4.00666 l -1.72e-4,46.46168 a 93.185525,93.185477 65.999991 0 0 37.902298,-8.05637 z"
       id="path884-6-8-0-8-38-3"
       inkscape:connector-curvature="0" />
  </g>
</svg>
