<?xml version="1.0" encoding="UTF-8" standalone="no"?>
<svg
   xmlns:dc="http://purl.org/dc/elements/1.1/"
   xmlns:cc="http://creativecommons.org/ns#"
   xmlns:rdf="http://www.w3.org/1999/02/22-rdf-syntax-ns#"
   xmlns:svg="http://www.w3.org/2000/svg"
   xmlns="http://www.w3.org/2000/svg"
   xmlns:sodipodi="http://sodipodi.sourceforge.net/DTD/sodipodi-0.dtd"
   xmlns:inkscape="http://www.inkscape.org/namespaces/inkscape"
   width="188.4082mm"
   height="188.36794mm"
   viewBox="0 0 188.40819 188.36794"
   version="1.1"
   id="svg8"
   inkscape:version="1.0.2 (e86c870879, 2021-01-15)"
   sodipodi:docname="13_6_blue.svg">
  <defs
     id="defs2" />
  <sodipodi:namedview
     id="base"
     pagecolor="#ffffff"
     bordercolor="#666666"
     borderopacity="1.0"
     inkscape:pageopacity="0.0"
     inkscape:pageshadow="2"
     inkscape:zoom="0.35"
     inkscape:cx="1116.9908"
     inkscape:cy="797.35438"
     inkscape:document-units="mm"
     inkscape:current-layer="layer1"
     inkscape:document-rotation="0"
     showgrid="false"
     inkscape:window-width="2155"
     inkscape:window-height="1262"
     inkscape:window-x="138"
     inkscape:window-y="-11"
     inkscape:window-maximized="1" />
  <metadata
     id="metadata5">
    <rdf:RDF>
      <cc:Work
         rdf:about="">
        <dc:format>image/svg+xml</dc:format>
        <dc:type
           rdf:resource="http://purl.org/dc/dcmitype/StillImage" />
        <dc:title />
      </cc:Work>
    </rdf:RDF>
  </metadata>
  <g
     inkscape:label="Layer 1"
     inkscape:groupmode="layer"
     id="layer1"
     transform="translate(189.70383,62.800011)">
    <path
       style="fill:#296c92;fill-opacity:1;stroke:#ffffff;stroke-width:1.99549;stroke-linecap:round;stroke-linejoin:round;stroke-miterlimit:4;stroke-dasharray:none;stroke-dashoffset:0;stroke-opacity:1"
       d="M -57.607837,116.5138 -76.490773,74.101837 a 46.759651,46.759613 65.999991 0 1 -19.01916,4.006679 l -1.75e-4,46.461664 a 93.185524,93.185476 65.999991 0 0 37.902271,-8.05638 z"
       id="path884-6-8-0-8-57"
       inkscape:connector-curvature="0" />
    <path
       style="fill:#bfd3de;fill-opacity:1;stroke:#ffffff;stroke-width:1.99549;stroke-linecap:round;stroke-linejoin:round;stroke-miterlimit:4;stroke-dasharray:none;stroke-dashoffset:0;stroke-opacity:1"
       d="M -6.8713653,60.192189 -51.024713,45.845762 a 46.759651,46.759614 17.999991 0 1 -9.748772,16.81498 l 34.527607,31.089077 a 93.185525,93.185477 17.999991 0 0 19.3745127,-33.55763 z"
       id="path884-6-8-0-8-8-47"
       inkscape:connector-curvature="0" />
    <path
       style="fill:#bfd3de;fill-opacity:1;stroke:#ffffff;stroke-width:1.99549;stroke-linecap:round;stroke-linejoin:round;stroke-miterlimit:4;stroke-dasharray:none;stroke-dashoffset:0;stroke-opacity:1"
       d="M -26.259208,93.737699 -60.760121,62.672824 a 46.759651,46.759614 41.999991 0 1 -15.745222,11.396064 l 18.897494,42.444892 a 93.185525,93.185477 41.999991 0 0 31.34863,-22.776097 z"
       id="path884-6-8-0-8-7-54"
       inkscape:connector-curvature="0" />
    <path
       style="fill:#296c92;fill-opacity:1;stroke:#ffffff;stroke-width:1.99549;stroke-linecap:round;stroke-linejoin:round;stroke-miterlimit:4;stroke-dasharray:none;stroke-dashoffset:0;stroke-opacity:1"
       d="m -2.8038751,21.661057 -46.1712679,4.852655 a 46.759614,46.759651 83.999991 0 1 -2.066719,19.326463 l 44.1876319,14.357599 a 93.185477,93.185525 83.999991 0 0 4.050355,-38.536717 z"
       id="path884-6-8-0-8-84-18"
       inkscape:connector-curvature="0" />
    <path
       style="fill:#296c92;fill-opacity:1;stroke:#ffffff;stroke-width:1.99549;stroke-linecap:round;stroke-linejoin:round;stroke-miterlimit:4;stroke-dasharray:none;stroke-dashoffset:0;stroke-opacity:1"
       d="m -14.777944,-15.191493 -40.20589,23.2128002 a 46.759614,46.759651 59.999991 0 1 5.972779,18.4961608 l 46.2071799,-4.856411 a 93.185477,93.185525 59.999991 0 0 -11.9740689,-36.85255 z"
       id="path884-6-8-0-8-76-16"
       inkscape:connector-curvature="0" />
    <path
       style="fill:#296c92;fill-opacity:1;stroke:#ffffff;stroke-width:1.99549;stroke-linecap:round;stroke-linejoin:round;stroke-miterlimit:4;stroke-dasharray:none;stroke-dashoffset:0;stroke-opacity:1"
       d="M -40.70609,-43.987622 -67.994436,-6.4285751 A 46.759614,46.759651 35.999991 0 1 -55.014835,8.0390346 L -14.777794,-15.191626 A 93.185477,93.185525 35.999991 0 0 -40.705945,-43.987764 Z"
       id="path884-6-8-0-8-81-12"
       inkscape:connector-curvature="0" />
    <path
       style="fill:#296c92;fill-opacity:1;stroke:#ffffff;stroke-width:1.99549;stroke-linecap:round;stroke-linejoin:round;stroke-miterlimit:4;stroke-dasharray:none;stroke-dashoffset:0;stroke-opacity:1"
       d="m -76.105057,-59.748304 -9.652534,45.411119 a 46.759614,46.759651 11.999991 0 1 17.741883,7.9377363 L -40.70609,-43.987622 a 93.185477,93.185525 11.999991 0 0 -35.399042,-15.760615 z"
       id="path884-6-8-0-8-9-5"
       inkscape:connector-curvature="0" />
    <path
       style="fill:#296c92;fill-opacity:1;stroke:#ffffff;stroke-width:1.99549;stroke-linecap:round;stroke-linejoin:round;stroke-miterlimit:4;stroke-dasharray:none;stroke-dashoffset:0;stroke-opacity:1"
       d="m -114.85027,-59.765951 9.65234,45.411147 a 46.759651,46.759614 77.999991 0 1 19.436562,0.03523 l 9.660097,-45.446354 a 93.185525,93.185477 77.999991 0 0 -38.749069,4e-5 z"
       id="path884-6-8-0-8-2-1"
       inkscape:connector-curvature="0" />
    <path
       style="fill:#296c92;fill-opacity:1;stroke:#ffffff;stroke-width:1.99549;stroke-linecap:round;stroke-linejoin:round;stroke-miterlimit:4;stroke-dasharray:none;stroke-dashoffset:0;stroke-opacity:1"
       d="m -150.24923,-44.005284 27.28821,37.5592165 a 46.759651,46.759614 53.999991 0 1 17.77053,-7.8734235 l -9.65975,-45.446428 a 93.185525,93.185477 53.999991 0 0 -35.39898,15.760643 z"
       id="path884-6-8-0-8-6-2"
       inkscape:connector-curvature="0" />
    <path
       style="fill:#296c92;fill-opacity:1;stroke:#ffffff;stroke-width:1.99549;stroke-linecap:round;stroke-linejoin:round;stroke-miterlimit:4;stroke-dasharray:none;stroke-dashoffset:0;stroke-opacity:1"
       d="m -176.18797,-15.223738 40.20575,23.2128904 a 46.759651,46.759614 29.999991 0 1 13.03177,-14.4206378 L -150.25981,-44.01986 a 93.185525,93.185477 29.999991 0 0 -25.92815,28.796138 z"
       id="path884-6-8-0-8-1-14"
       inkscape:connector-curvature="0" />
    <path
       style="fill:#296c92;fill-opacity:1;stroke:#ffffff;stroke-width:1.99549;stroke-linecap:round;stroke-linejoin:round;stroke-miterlimit:4;stroke-dasharray:none;stroke-dashoffset:0;stroke-opacity:1"
       d="m -188.17768,21.619731 46.17132,4.852875 a 46.759651,46.759614 5.999991 0 1 6.03971,-18.4744081 l -40.2369,-23.2309839 a 93.185525,93.185477 5.999991 0 0 -11.97412,36.852511 z"
       id="path884-6-8-0-8-64-80"
       inkscape:connector-curvature="0" />
    <path
       style="fill:#296c92;fill-opacity:1;stroke:#ffffff;stroke-width:1.99549;stroke-linecap:round;stroke-linejoin:round;stroke-miterlimit:4;stroke-dasharray:none;stroke-dashoffset:0;stroke-opacity:1"
       d="m -184.14521,60.154565 44.15345,-14.346243 a 46.759614,46.759651 71.999991 0 1 -1.99668,-19.333787 l -46.20714,-4.856726 a 93.185477,93.185525 71.999991 0 0 4.05038,38.53675 z"
       id="path884-6-8-0-8-3-8"
       inkscape:connector-curvature="0" />
    <path
       style="fill:#296c92;fill-opacity:1;stroke:#ffffff;stroke-width:1.99549;stroke-linecap:round;stroke-linejoin:round;stroke-miterlimit:4;stroke-dasharray:none;stroke-dashoffset:0;stroke-opacity:1"
       d="m -164.78784,93.717744 34.50103,-31.064766 a 46.759614,46.759651 47.999991 0 1 -9.68781,-16.85018 l -44.18773,14.357286 a 93.185477,93.185525 47.999991 0 0 19.37451,33.55766 z"
       id="path884-6-8-0-8-5-91"
       inkscape:connector-curvature="0" />
    <path
       style="fill:#296c92;fill-opacity:1;stroke:#ffffff;stroke-width:1.99549;stroke-linecap:round;stroke-linejoin:round;stroke-miterlimit:4;stroke-dasharray:none;stroke-dashoffset:0;stroke-opacity:1"
       d="m -133.45262,116.50589 18.88307,-42.41191 a 46.759614,46.759651 23.999991 0 1 -15.70384,-11.453029 l -34.52787,31.088805 a 93.185477,93.185525 23.999991 0 0 31.34864,22.776134 z"
       id="path884-6-8-0-8-27-64"
       inkscape:connector-curvature="0" />
    <path
       style="fill:#296c92;fill-opacity:1;stroke:#ffffff;stroke-width:1.99549;stroke-linecap:round;stroke-linejoin:round;stroke-miterlimit:4;stroke-dasharray:none;stroke-dashoffset:0;stroke-opacity:1"
       d="m -95.510108,124.57018 5.7e-5,-46.425658 a 46.759651,46.759614 89.999991 0 1 -19.004529,-4.075526 l -18.89782,42.444784 a 93.185525,93.185477 89.999991 0 0 37.902292,8.0564 z"
       id="path884-6-8-0-8-38-64"
       inkscape:connector-curvature="0" />
  </g>
</svg>
