<?xml version="1.0" encoding="UTF-8" standalone="no"?>
<svg
   xmlns:dc="http://purl.org/dc/elements/1.1/"
   xmlns:cc="http://creativecommons.org/ns#"
   xmlns:rdf="http://www.w3.org/1999/02/22-rdf-syntax-ns#"
   xmlns:svg="http://www.w3.org/2000/svg"
   xmlns="http://www.w3.org/2000/svg"
   xmlns:sodipodi="http://sodipodi.sourceforge.net/DTD/sodipodi-0.dtd"
   xmlns:inkscape="http://www.inkscape.org/namespaces/inkscape"
   width="188.40509mm"
   height="188.35396mm"
   viewBox="0 0 188.40508 188.35396"
   version="1.1"
   id="svg8"
   inkscape:version="1.0.2 (e86c870879, 2021-01-15)"
   sodipodi:docname="13_7_blue.svg">
  <defs
     id="defs2" />
  <sodipodi:namedview
     id="base"
     pagecolor="#ffffff"
     bordercolor="#666666"
     borderopacity="1.0"
     inkscape:pageopacity="0.0"
     inkscape:pageshadow="2"
     inkscape:zoom="0.35"
     inkscape:cx="1064.4605"
     inkscape:cy="724.72743"
     inkscape:document-units="mm"
     inkscape:current-layer="layer1"
     inkscape:document-rotation="0"
     showgrid="false"
     inkscape:window-width="2155"
     inkscape:window-height="1262"
     inkscape:window-x="138"
     inkscape:window-y="-11"
     inkscape:window-maximized="1" />
  <metadata
     id="metadata5">
    <rdf:RDF>
      <cc:Work
         rdf:about="">
        <dc:format>image/svg+xml</dc:format>
        <dc:type
           rdf:resource="http://purl.org/dc/dcmitype/StillImage" />
        <dc:title />
      </cc:Work>
    </rdf:RDF>
  </metadata>
  <g
     inkscape:label="Layer 1"
     inkscape:groupmode="layer"
     id="layer1"
     transform="translate(175.80519,43.584131)">
    <path
       style="fill:#296c92;fill-opacity:1;stroke:#ffffff;stroke-width:1.99549;stroke-linecap:round;stroke-linejoin:round;stroke-miterlimit:4;stroke-dasharray:none;stroke-dashoffset:0;stroke-opacity:1"
       d="m -81.604754,143.77209 7.9e-5,-46.42564 a 46.759651,46.759613 89.999991 0 1 -19.004535,-4.075505 l -18.89782,42.444765 a 93.185524,93.185476 89.999991 0 0 37.902276,8.05638 z"
       id="path884-6-8-0-8-0"
       inkscape:connector-curvature="0" />
    <path
       style="fill:#bfd3de;fill-opacity:1;stroke:#ffffff;stroke-width:1.99549;stroke-linecap:round;stroke-linejoin:round;stroke-miterlimit:4;stroke-dasharray:none;stroke-dashoffset:0;stroke-opacity:1"
       d="M -12.346618,112.95612 -46.84749,81.891221 a 46.759651,46.759614 41.999991 0 1 -15.745216,11.396066 l 18.897472,42.444933 a 93.185525,93.185477 41.999991 0 0 31.348616,-22.7761 z"
       id="path884-6-8-0-8-8-46"
       inkscape:connector-curvature="0" />
    <path
       style="fill:#bfd3de;fill-opacity:1;stroke:#ffffff;stroke-width:1.99549;stroke-linecap:round;stroke-linejoin:round;stroke-miterlimit:4;stroke-dasharray:none;stroke-dashoffset:0;stroke-opacity:1"
       d="m -43.702481,135.71572 -18.88293,-42.41196 a 46.759651,46.759614 65.999991 0 1 -19.019173,4.006664 l -1.74e-4,46.461646 a 93.185525,93.185477 65.999991 0 0 37.902272,-8.05637 z"
       id="path884-6-8-0-8-7-545"
       inkscape:connector-curvature="0" />
    <path
       style="fill:#296c92;fill-opacity:1;stroke:#ffffff;stroke-width:1.99549;stroke-linecap:round;stroke-linejoin:round;stroke-miterlimit:4;stroke-dasharray:none;stroke-dashoffset:0;stroke-opacity:1"
       d="M 7.0412427,79.410576 -37.112063,65.06415 a 46.759651,46.759614 17.999991 0 1 -9.748821,16.814992 l 34.527648,31.089048 A 93.185525,93.185477 17.999991 0 0 7.0412427,79.410576 Z"
       id="path884-6-8-0-8-84-57"
       inkscape:connector-curvature="0" />
    <path
       style="fill:#296c92;fill-opacity:1;stroke:#ffffff;stroke-width:1.99549;stroke-linecap:round;stroke-linejoin:round;stroke-miterlimit:4;stroke-dasharray:none;stroke-dashoffset:0;stroke-opacity:1"
       d="m 11.091669,40.873804 -46.171405,4.852739 a 46.759614,46.759651 83.999991 0 1 -2.06666,19.326431 L 7.0412427,79.410576 A 93.185477,93.185525 83.999991 0 0 11.091669,40.873804 Z"
       id="path884-6-8-0-8-76-23"
       inkscape:connector-curvature="0" />
    <path
       style="fill:#296c92;fill-opacity:1;stroke:#ffffff;stroke-width:1.99549;stroke-linecap:round;stroke-linejoin:round;stroke-miterlimit:4;stroke-dasharray:none;stroke-dashoffset:0;stroke-opacity:1"
       d="M -0.88242967,4.0213032 -41.088215,27.23403 a 46.759614,46.759651 59.999991 0 1 5.972948,18.496098 L 11.09186,40.873743 A 93.185477,93.185525 59.999991 0 0 -0.88224028,4.0212323 Z"
       id="path884-6-8-0-8-81-7"
       inkscape:connector-curvature="0" />
    <path
       style="fill:#296c92;fill-opacity:1;stroke:#ffffff;stroke-width:1.99549;stroke-linecap:round;stroke-linejoin:round;stroke-miterlimit:4;stroke-dasharray:none;stroke-dashoffset:0;stroke-opacity:1"
       d="M -26.810549,-24.774853 -54.098943,12.78423 a 46.759614,46.759651 35.999991 0 1 12.979447,14.467756 L -0.88242967,4.0213032 A 93.185477,93.185525 35.999991 0 0 -26.810645,-24.774822 Z"
       id="path884-6-8-0-8-9-96"
       inkscape:connector-curvature="0" />
    <path
       style="fill:#296c92;fill-opacity:1;stroke:#ffffff;stroke-width:1.99549;stroke-linecap:round;stroke-linejoin:round;stroke-miterlimit:4;stroke-dasharray:none;stroke-dashoffset:0;stroke-opacity:1"
       d="m -62.198881,-40.550071 -9.652531,45.4111055 a 46.759614,46.759651 11.999991 0 1 17.741853,7.9377505 l 27.309636,-37.588195 a 93.185477,93.185525 11.999991 0 0 -35.399054,-15.760631 z"
       id="path884-6-8-0-8-2-94"
       inkscape:connector-curvature="0" />
    <path
       style="fill:#296c92;fill-opacity:1;stroke:#ffffff;stroke-width:1.99549;stroke-linecap:round;stroke-linejoin:round;stroke-miterlimit:4;stroke-dasharray:none;stroke-dashoffset:0;stroke-opacity:1"
       d="m -100.94788,-40.55004 9.652305,45.4111652 a 46.759651,46.759614 77.999991 0 1 19.436593,0.035194 l 9.660109,-45.4463513 a 93.185525,93.185477 77.999991 0 0 -38.749007,2e-6 z"
       id="path884-6-8-0-8-6-12"
       inkscape:connector-curvature="0" />
    <path
       style="fill:#296c92;fill-opacity:1;stroke:#ffffff;stroke-width:1.99549;stroke-linecap:round;stroke-linejoin:round;stroke-miterlimit:4;stroke-dasharray:none;stroke-dashoffset:0;stroke-opacity:1"
       d="m -136.35061,-24.807026 27.28825,37.559182 a 46.759651,46.759614 53.999991 0 1 17.77051,-7.8734102 l -9.65977,-45.4464038 a 93.185525,93.185477 53.999991 0 0 -35.39899,15.760651 z"
       id="path884-6-8-0-8-1-30"
       inkscape:connector-curvature="0" />
    <path
       style="fill:#296c92;fill-opacity:1;stroke:#ffffff;stroke-width:1.99549;stroke-linecap:round;stroke-linejoin:round;stroke-miterlimit:4;stroke-dasharray:none;stroke-dashoffset:0;stroke-opacity:1"
       d="m -162.28934,3.9745048 40.20576,23.2128902 a 46.759651,46.759614 29.999991 0 1 13.03176,-14.420642 l -27.30935,-37.588383 a 93.185525,93.185477 29.999991 0 0 -25.92816,28.7961327 z"
       id="path884-6-8-0-8-64-4"
       inkscape:connector-curvature="0" />
    <path
       style="fill:#296c92;fill-opacity:1;stroke:#ffffff;stroke-width:1.99549;stroke-linecap:round;stroke-linejoin:round;stroke-miterlimit:4;stroke-dasharray:none;stroke-dashoffset:0;stroke-opacity:1"
       d="m -174.27903,40.817979 46.17132,4.85288 A 46.759651,46.759614 5.999991 0 1 -122.068,27.196443 L -162.30492,3.9654656 a 93.185525,93.185477 5.999991 0 0 -11.9741,36.8525114 z"
       id="path884-6-8-0-8-3-88"
       inkscape:connector-curvature="0" />
    <path
       style="fill:#296c92;fill-opacity:1;stroke:#ffffff;stroke-width:1.99549;stroke-linecap:round;stroke-linejoin:round;stroke-miterlimit:4;stroke-dasharray:none;stroke-dashoffset:0;stroke-opacity:1"
       d="m -170.24657,79.352822 44.15344,-14.346245 a 46.759614,46.759651 71.999991 0 1 -1.99667,-19.33379 l -46.20713,-4.856738 a 93.185477,93.185525 71.999991 0 0 4.05036,38.536773 z"
       id="path884-6-8-0-8-5-2"
       inkscape:connector-curvature="0" />
    <path
       style="fill:#296c92;fill-opacity:1;stroke:#ffffff;stroke-width:1.99549;stroke-linecap:round;stroke-linejoin:round;stroke-miterlimit:4;stroke-dasharray:none;stroke-dashoffset:0;stroke-opacity:1"
       d="m -150.8892,112.916 34.50103,-31.064761 a 46.759614,46.759651 47.999991 0 1 -9.68781,-16.85019 l -44.18773,14.357288 A 93.185477,93.185525 47.999991 0 0 -150.8892,112.916 Z"
       id="path884-6-8-0-8-27-5"
       inkscape:connector-curvature="0" />
    <path
       style="fill:#296c92;fill-opacity:1;stroke:#ffffff;stroke-width:1.99549;stroke-linecap:round;stroke-linejoin:round;stroke-miterlimit:4;stroke-dasharray:none;stroke-dashoffset:0;stroke-opacity:1"
       d="m -119.50703,135.71571 18.88307,-42.41192 a 46.759614,46.759651 23.999991 0 1 -15.70383,-11.453016 l -34.52787,31.088806 a 93.185477,93.185525 23.999991 0 0 31.34863,22.77613 z"
       id="path884-6-8-0-8-38-7"
       inkscape:connector-curvature="0" />
  </g>
</svg>
