<?xml version="1.0" encoding="UTF-8" standalone="no"?>
<svg
   xmlns:dc="http://purl.org/dc/elements/1.1/"
   xmlns:cc="http://creativecommons.org/ns#"
   xmlns:rdf="http://www.w3.org/1999/02/22-rdf-syntax-ns#"
   xmlns:svg="http://www.w3.org/2000/svg"
   xmlns="http://www.w3.org/2000/svg"
   xmlns:sodipodi="http://sodipodi.sourceforge.net/DTD/sodipodi-0.dtd"
   xmlns:inkscape="http://www.inkscape.org/namespaces/inkscape"
   width="188.39653mm"
   height="188.37807mm"
   viewBox="0 0 188.39652 188.37807"
   version="1.1"
   id="svg8"
   inkscape:version="1.0.2 (e86c870879, 2021-01-15)"
   sodipodi:docname="13_8_blue.svg">
  <defs
     id="defs2" />
  <sodipodi:namedview
     id="base"
     pagecolor="#ffffff"
     bordercolor="#666666"
     borderopacity="1.0"
     inkscape:pageopacity="0.0"
     inkscape:pageshadow="2"
     inkscape:zoom="0.35"
     inkscape:cx="1374.7712"
     inkscape:cy="720.71747"
     inkscape:document-units="mm"
     inkscape:current-layer="layer1"
     inkscape:document-rotation="0"
     showgrid="false"
     inkscape:window-width="2155"
     inkscape:window-height="1262"
     inkscape:window-x="138"
     inkscape:window-y="-11"
     inkscape:window-maximized="1" />
  <metadata
     id="metadata5">
    <rdf:RDF>
      <cc:Work
         rdf:about="">
        <dc:format>image/svg+xml</dc:format>
        <dc:type
           rdf:resource="http://purl.org/dc/dcmitype/StillImage" />
        <dc:title />
      </cc:Work>
    </rdf:RDF>
  </metadata>
  <g
     inkscape:label="Layer 1"
     inkscape:groupmode="layer"
     id="layer1"
     transform="translate(257.90822,42.523161)">
    <path
       style="fill:#296c92;fill-opacity:1;stroke:#ffffff;stroke-width:1.99549;stroke-linecap:round;stroke-linejoin:round;stroke-miterlimit:4;stroke-dasharray:none;stroke-dashoffset:0;stroke-opacity:1"
       d="m -201.60541,136.78275 18.88308,-42.411894 a 46.759613,46.759651 23.999991 0 1 -15.70385,-11.452999 l -34.52786,31.088793 a 93.185476,93.185524 23.999991 0 0 31.34863,22.7761 z"
       id="path884-6-8-0-8-99"
       inkscape:connector-curvature="0" />
    <path
       style="fill:#bfd3de;fill-opacity:1;stroke:#ffffff;stroke-width:1.99549;stroke-linecap:round;stroke-linejoin:round;stroke-miterlimit:4;stroke-dasharray:none;stroke-dashoffset:0;stroke-opacity:1"
       d="m -125.80097,136.80079 -18.88289,-42.411968 a 46.759651,46.759614 65.999991 0 1 -19.01916,4.006668 l -2.1e-4,46.46167 a 93.185525,93.185477 65.999991 0 0 37.90226,-8.05637 z"
       id="path884-6-8-0-8-8-0"
       inkscape:connector-curvature="0" />
    <path
       style="fill:#bfd3de;fill-opacity:1;stroke:#ffffff;stroke-width:1.99549;stroke-linecap:round;stroke-linejoin:round;stroke-miterlimit:4;stroke-dasharray:none;stroke-dashoffset:0;stroke-opacity:1"
       d="m -163.70314,144.83914 8e-5,-46.425634 a 46.759651,46.759614 89.999991 0 1 -19.00454,-4.075525 l -18.89781,42.444749 a 93.185525,93.185477 89.999991 0 0 37.90227,8.05639 z"
       id="path884-6-8-0-8-7-0"
       inkscape:connector-curvature="0" />
    <path
       style="fill:#296c92;fill-opacity:1;stroke:#ffffff;stroke-width:1.99549;stroke-linecap:round;stroke-linejoin:round;stroke-miterlimit:4;stroke-dasharray:none;stroke-dashoffset:0;stroke-opacity:1"
       d="m -94.44508,114.04116 -34.50083,-31.064877 a 46.759651,46.759614 41.999991 0 1 -15.74527,11.396057 l 18.89752,42.44492 a 93.185525,93.185477 41.999991 0 0 31.34858,-22.7761 z"
       id="path884-6-8-0-8-84-41"
       inkscape:connector-curvature="0" />
    <path
       style="fill:#296c92;fill-opacity:1;stroke:#ffffff;stroke-width:1.99549;stroke-linecap:round;stroke-linejoin:round;stroke-miterlimit:4;stroke-dasharray:none;stroke-dashoffset:0;stroke-opacity:1"
       d="M -75.070514,80.483526 -119.22398,66.137121 a 46.759651,46.759614 17.999991 0 1 -9.74875,16.814988 l 34.52765,31.089051 a 93.185525,93.185477 17.999991 0 0 19.374566,-33.557634 z"
       id="path884-6-8-0-8-76-9"
       inkscape:connector-curvature="0" />
    <path
       style="fill:#296c92;fill-opacity:1;stroke:#ffffff;stroke-width:1.99549;stroke-linecap:round;stroke-linejoin:round;stroke-miterlimit:4;stroke-dasharray:none;stroke-dashoffset:0;stroke-opacity:1"
       d="m -71.020135,41.946787 -46.171275,4.852715 a 46.759614,46.759651 83.999991 0 1 -2.06649,19.326443 l 44.187585,14.357603 a 93.185477,93.185525 83.999991 0 0 4.050382,-38.536749 z"
       id="path884-6-8-0-8-81-10"
       inkscape:connector-curvature="0" />
    <path
       style="fill:#296c92;fill-opacity:1;stroke:#ffffff;stroke-width:1.99549;stroke-linecap:round;stroke-linejoin:round;stroke-miterlimit:4;stroke-dasharray:none;stroke-dashoffset:0;stroke-opacity:1"
       d="M -82.994199,5.0942732 -123.20004,28.307012 a 46.759614,46.759651 59.999991 0 1 5.97275,18.49617 l 46.207155,-4.856395 A 93.185477,93.185525 59.999991 0 0 -82.994299,5.0942622 Z"
       id="path884-6-8-0-8-9-0"
       inkscape:connector-curvature="0" />
    <path
       style="fill:#296c92;fill-opacity:1;stroke:#ffffff;stroke-width:1.99549;stroke-linecap:round;stroke-linejoin:round;stroke-miterlimit:4;stroke-dasharray:none;stroke-dashoffset:0;stroke-opacity:1"
       d="m -108.90669,-23.710837 -27.28839,37.559071 a 46.759614,46.759651 35.999991 0 1 12.97942,14.467757 L -82.978571,5.0852963 A 93.185477,93.185525 35.999991 0 0 -108.90679,-23.710848 Z"
       id="path884-6-8-0-8-2-51"
       inkscape:connector-curvature="0" />
    <path
       style="fill:#296c92;fill-opacity:1;stroke:#ffffff;stroke-width:1.99549;stroke-linecap:round;stroke-linejoin:round;stroke-miterlimit:4;stroke-dasharray:none;stroke-dashoffset:0;stroke-opacity:1"
       d="m -144.30568,-39.471448 -9.65256,45.4111113 a 46.759614,46.759651 11.999991 0 1 17.7419,7.9377257 l 27.30964,-37.588187 a 93.185477,93.185525 11.999991 0 0 -35.39898,-15.76064 z"
       id="path884-6-8-0-8-6-0"
       inkscape:connector-curvature="0" />
    <path
       style="fill:#296c92;fill-opacity:1;stroke:#ffffff;stroke-width:1.99549;stroke-linecap:round;stroke-linejoin:round;stroke-miterlimit:4;stroke-dasharray:none;stroke-dashoffset:0;stroke-opacity:1"
       d="m -183.05094,-39.489076 9.65236,45.4111507 a 46.759651,46.759614 77.999991 0 1 19.43658,0.035201 l 9.66008,-45.4463376 a 93.185525,93.185477 77.999991 0 0 -38.74902,6e-6 z"
       id="path884-6-8-0-8-1-69"
       inkscape:connector-curvature="0" />
    <path
       style="fill:#296c92;fill-opacity:1;stroke:#ffffff;stroke-width:1.99549;stroke-linecap:round;stroke-linejoin:round;stroke-miterlimit:4;stroke-dasharray:none;stroke-dashoffset:0;stroke-opacity:1"
       d="m -218.45365,-23.746072 27.28825,37.559186 a 46.759651,46.759614 53.999991 0 1 17.77052,-7.8734156 l -9.65976,-45.4464104 a 93.185525,93.185477 53.999991 0 0 -35.399,15.760642 z"
       id="path884-6-8-0-8-64-6"
       inkscape:connector-curvature="0" />
    <path
       style="fill:#296c92;fill-opacity:1;stroke:#ffffff;stroke-width:1.99549;stroke-linecap:round;stroke-linejoin:round;stroke-miterlimit:4;stroke-dasharray:none;stroke-dashoffset:0;stroke-opacity:1"
       d="m -244.39237,5.0354719 40.20576,23.2128951 a 46.759651,46.759614 29.999991 0 1 13.03177,-14.42065 l -27.30937,-37.588382 a 93.185525,93.185477 29.999991 0 0 -25.92815,28.796139 z"
       id="path884-6-8-0-8-3-5"
       inkscape:connector-curvature="0" />
    <path
       style="fill:#296c92;fill-opacity:1;stroke:#ffffff;stroke-width:1.99549;stroke-linecap:round;stroke-linejoin:round;stroke-miterlimit:4;stroke-dasharray:none;stroke-dashoffset:0;stroke-opacity:1"
       d="m -256.38206,41.878953 46.17131,4.852872 a 46.759651,46.759614 5.999991 0 1 6.03972,-18.474412 L -244.40794,5.0264271 a 93.185525,93.185477 5.999991 0 0 -11.97412,36.8525259 z"
       id="path884-6-8-0-8-5-03"
       inkscape:connector-curvature="0" />
    <path
       style="fill:#296c92;fill-opacity:1;stroke:#ffffff;stroke-width:1.99549;stroke-linecap:round;stroke-linejoin:round;stroke-miterlimit:4;stroke-dasharray:none;stroke-dashoffset:0;stroke-opacity:1"
       d="m -252.3496,80.413798 44.15343,-14.346246 a 46.759614,46.759651 71.999991 0 1 -1.99666,-19.333798 l -46.20714,-4.856736 a 93.185477,93.185525 71.999991 0 0 4.05037,38.53678 z"
       id="path884-6-8-0-8-27-92"
       inkscape:connector-curvature="0" />
    <path
       style="fill:#296c92;fill-opacity:1;stroke:#ffffff;stroke-width:1.99549;stroke-linecap:round;stroke-linejoin:round;stroke-miterlimit:4;stroke-dasharray:none;stroke-dashoffset:0;stroke-opacity:1"
       d="m -232.95404,114.00665 34.50103,-31.064788 a 46.759614,46.759651 47.999991 0 1 -9.68781,-16.850174 l -44.18773,14.357285 a 93.185477,93.185525 47.999991 0 0 19.37451,33.557677 z"
       id="path884-6-8-0-8-38-645"
       inkscape:connector-curvature="0" />
  </g>
</svg>
