<?xml version="1.0" encoding="UTF-8" standalone="no"?>
<svg
   xmlns:dc="http://purl.org/dc/elements/1.1/"
   xmlns:cc="http://creativecommons.org/ns#"
   xmlns:rdf="http://www.w3.org/1999/02/22-rdf-syntax-ns#"
   xmlns:svg="http://www.w3.org/2000/svg"
   xmlns="http://www.w3.org/2000/svg"
   xmlns:sodipodi="http://sodipodi.sourceforge.net/DTD/sodipodi-0.dtd"
   xmlns:inkscape="http://www.inkscape.org/namespaces/inkscape"
   width="188.36058mm"
   height="188.40195mm"
   viewBox="0 0 188.36057 188.40195"
   version="1.1"
   id="svg8"
   inkscape:version="1.0.2 (e86c870879, 2021-01-15)"
   sodipodi:docname="13_9_blue.svg">
  <defs
     id="defs2" />
  <sodipodi:namedview
     id="base"
     pagecolor="#ffffff"
     bordercolor="#666666"
     borderopacity="1.0"
     inkscape:pageopacity="0.0"
     inkscape:pageshadow="2"
     inkscape:zoom="0.35"
     inkscape:cx="1279.2996"
     inkscape:cy="571.03838"
     inkscape:document-units="mm"
     inkscape:current-layer="layer1"
     inkscape:document-rotation="0"
     showgrid="false"
     inkscape:window-width="2155"
     inkscape:window-height="1262"
     inkscape:window-x="138"
     inkscape:window-y="-11"
     inkscape:window-maximized="1" />
  <metadata
     id="metadata5">
    <rdf:RDF>
      <cc:Work
         rdf:about="">
        <dc:format>image/svg+xml</dc:format>
        <dc:type
           rdf:resource="http://purl.org/dc/dcmitype/StillImage" />
        <dc:title />
      </cc:Work>
    </rdf:RDF>
  </metadata>
  <g
     inkscape:label="Layer 1"
     inkscape:groupmode="layer"
     id="layer1"
     transform="translate(232.64803,2.920569)">
    <path
       style="fill:#296c92;fill-opacity:1;stroke:#ffffff;stroke-width:1.99549;stroke-linecap:round;stroke-linejoin:round;stroke-miterlimit:4;stroke-dasharray:none;stroke-dashoffset:0;stroke-opacity:1"
       d="m -207.7149,153.6167 34.50103,-31.06476 a 46.759613,46.759651 47.999991 0 1 -9.68782,-16.85016 l -44.18772,14.35728 a 93.185476,93.185524 47.999991 0 0 19.37451,33.55764 z"
       id="path884-6-8-0-8-82"
       inkscape:connector-curvature="0" />
    <path
       style="fill:#bfd3de;fill-opacity:1;stroke:#ffffff;stroke-width:1.99549;stroke-linecap:round;stroke-linejoin:round;stroke-miterlimit:4;stroke-dasharray:none;stroke-dashoffset:0;stroke-opacity:1"
       d="m -138.47143,184.46562 1.3e-4,-46.42562 a 46.759651,46.759614 89.999991 0 1 -19.00454,-4.07552 l -18.89785,42.44476 a 93.185525,93.185477 89.999991 0 0 37.90226,8.05638 z"
       id="path884-6-8-0-8-8-01"
       inkscape:connector-curvature="0" />
    <path
       style="fill:#bfd3de;fill-opacity:1;stroke:#ffffff;stroke-width:1.99549;stroke-linecap:round;stroke-linejoin:round;stroke-miterlimit:4;stroke-dasharray:none;stroke-dashoffset:0;stroke-opacity:1"
       d="m -176.36628,176.39282 18.88308,-42.4119 a 46.759614,46.759651 23.999991 0 1 -15.70384,-11.45302 l -34.52785,31.08878 a 93.185477,93.185525 23.999991 0 0 31.34862,22.77612 z"
       id="path884-6-8-0-8-7-76"
       inkscape:connector-curvature="0" />
    <path
       style="fill:#296c92;fill-opacity:1;stroke:#ffffff;stroke-width:1.99549;stroke-linecap:round;stroke-linejoin:round;stroke-miterlimit:4;stroke-dasharray:none;stroke-dashoffset:0;stroke-opacity:1"
       d="m -100.56922,176.42726 -18.88286,-42.41194 a 46.759651,46.759614 65.999991 0 1 -19.01921,4.00664 l -1.6e-4,46.46168 a 93.185525,93.185477 65.999991 0 0 37.90223,-8.05638 z"
       id="path884-6-8-0-8-84-74"
       inkscape:connector-curvature="0" />
    <path
       style="fill:#296c92;fill-opacity:1;stroke:#ffffff;stroke-width:1.99549;stroke-linecap:round;stroke-linejoin:round;stroke-miterlimit:4;stroke-dasharray:none;stroke-dashoffset:0;stroke-opacity:1"
       d="m -69.220556,153.65118 -34.500984,-31.06493 a 46.759651,46.759614 41.999991 0 1 -15.74521,11.39608 l 18.89753,42.44493 a 93.185525,93.185477 41.999991 0 0 31.348664,-22.77608 z"
       id="path884-6-8-0-8-76-0"
       inkscape:connector-curvature="0" />
    <path
       style="fill:#296c92;fill-opacity:1;stroke:#ffffff;stroke-width:1.99549;stroke-linecap:round;stroke-linejoin:round;stroke-miterlimit:4;stroke-dasharray:none;stroke-dashoffset:0;stroke-opacity:1"
       d="m -49.846047,120.09355 -44.15334,-14.34638 a 46.759651,46.759614 17.999991 0 1 -9.748593,16.81508 l 34.527597,31.08903 a 93.185525,93.185477 17.999991 0 0 19.374515,-33.55764 z"
       id="path884-6-8-0-8-81-6"
       inkscape:connector-curvature="0" />
    <path
       style="fill:#296c92;fill-opacity:1;stroke:#ffffff;stroke-width:1.99549;stroke-linecap:round;stroke-linejoin:round;stroke-miterlimit:4;stroke-dasharray:none;stroke-dashoffset:0;stroke-opacity:1"
       d="m -45.795631,81.556813 -46.171338,4.852702 a 46.759614,46.759651 83.999991 0 1 -2.066692,19.326425 l 44.187614,14.35761 a 93.185477,93.185525 83.999991 0 0 4.050329,-38.536787 z"
       id="path884-6-8-0-8-9-91"
       inkscape:connector-curvature="0" />
    <path
       style="fill:#296c92;fill-opacity:1;stroke:#ffffff;stroke-width:1.99549;stroke-linecap:round;stroke-linejoin:round;stroke-miterlimit:4;stroke-dasharray:none;stroke-dashoffset:0;stroke-opacity:1"
       d="m -57.751775,44.702476 -40.205833,23.212732 a 46.759614,46.759651 59.999991 0 1 5.972719,18.496158 l 46.207186,-4.856397 A 93.185477,93.185525 59.999991 0 0 -57.751862,44.702425 Z"
       id="path884-6-8-0-8-2-52"
       inkscape:connector-curvature="0" />
    <path
       style="fill:#296c92;fill-opacity:1;stroke:#ffffff;stroke-width:1.99549;stroke-linecap:round;stroke-linejoin:round;stroke-miterlimit:4;stroke-dasharray:none;stroke-dashoffset:0;stroke-opacity:1"
       d="M -83.679942,15.906376 -110.96836,53.46544 a 46.759614,46.759651 35.999991 0 1 12.979466,14.467753 L -57.751799,44.702508 A 93.185477,93.185525 35.999991 0 0 -83.679948,15.906384 Z"
       id="path884-6-8-0-8-6-10"
       inkscape:connector-curvature="0" />
    <path
       style="fill:#296c92;fill-opacity:1;stroke:#ffffff;stroke-width:1.99549;stroke-linecap:round;stroke-linejoin:round;stroke-miterlimit:4;stroke-dasharray:none;stroke-dashoffset:0;stroke-opacity:1"
       d="m -119.06833,0.13115437 -9.65251,45.41111863 a 46.759614,46.759651 11.999991 0 1 17.74188,7.937725 L -83.669348,15.891812 A 93.185477,93.185525 11.999991 0 0 -119.06834,0.13117055 Z"
       id="path884-6-8-0-8-1-8"
       inkscape:connector-curvature="0" />
    <path
       style="fill:#296c92;fill-opacity:1;stroke:#ffffff;stroke-width:1.99549;stroke-linecap:round;stroke-linejoin:round;stroke-miterlimit:4;stroke-dasharray:none;stroke-dashoffset:0;stroke-opacity:1"
       d="m -157.81357,0.11352344 9.65236,45.41115656 a 46.759651,46.759614 77.999991 0 1 19.43658,0.0352 l 9.66009,-45.44633919 a 93.185525,93.185477 77.999991 0 0 -38.74903,-7.49e-6 z"
       id="path884-6-8-0-8-64-08"
       inkscape:connector-curvature="0" />
    <path
       style="fill:#296c92;fill-opacity:1;stroke:#ffffff;stroke-width:1.99549;stroke-linecap:round;stroke-linejoin:round;stroke-miterlimit:4;stroke-dasharray:none;stroke-dashoffset:0;stroke-opacity:1"
       d="m -193.21628,15.856546 27.28825,37.559189 a 46.759651,46.759614 53.999991 0 1 17.77052,-7.873421 L -157.81728,0.09590006 A 93.185525,93.185477 53.999991 0 0 -193.21627,15.856552 Z"
       id="path884-6-8-0-8-3-25"
       inkscape:connector-curvature="0" />
    <path
       style="fill:#296c92;fill-opacity:1;stroke:#ffffff;stroke-width:1.99549;stroke-linecap:round;stroke-linejoin:round;stroke-miterlimit:4;stroke-dasharray:none;stroke-dashoffset:0;stroke-opacity:1"
       d="m -219.155,44.638093 40.20575,23.212884 a 46.759651,46.759614 29.999991 0 1 13.03178,-14.42064 L -193.22682,15.84195 A 93.185525,93.185477 29.999991 0 0 -219.155,44.638093 Z"
       id="path884-6-8-0-8-5-4"
       inkscape:connector-curvature="0" />
    <path
       style="fill:#296c92;fill-opacity:1;stroke:#ffffff;stroke-width:1.99549;stroke-linecap:round;stroke-linejoin:round;stroke-miterlimit:4;stroke-dasharray:none;stroke-dashoffset:0;stroke-opacity:1"
       d="m -231.1447,81.481576 46.17131,4.85287 a 46.759651,46.759614 5.999991 0 1 6.03973,-18.474418 l -40.23691,-23.230986 a 93.185525,93.185477 5.999991 0 0 -11.97413,36.852534 z"
       id="path884-6-8-0-8-27-7"
       inkscape:connector-curvature="0" />
    <path
       style="fill:#296c92;fill-opacity:1;stroke:#ffffff;stroke-width:1.99549;stroke-linecap:round;stroke-linejoin:round;stroke-miterlimit:4;stroke-dasharray:none;stroke-dashoffset:0;stroke-opacity:1"
       d="m -227.08941,120.05906 44.15344,-14.34627 a 46.759614,46.759651 71.999991 0 1 -1.99667,-19.333782 l -46.20714,-4.856738 a 93.185477,93.185525 71.999991 0 0 4.05037,38.53679 z"
       id="path884-6-8-0-8-38-9"
       inkscape:connector-curvature="0" />
  </g>
</svg>
