<?xml version="1.0" encoding="UTF-8" standalone="no"?>
<svg
   xmlns:dc="http://purl.org/dc/elements/1.1/"
   xmlns:cc="http://creativecommons.org/ns#"
   xmlns:rdf="http://www.w3.org/1999/02/22-rdf-syntax-ns#"
   xmlns:svg="http://www.w3.org/2000/svg"
   xmlns="http://www.w3.org/2000/svg"
   xmlns:sodipodi="http://sodipodi.sourceforge.net/DTD/sodipodi-0.dtd"
   xmlns:inkscape="http://www.inkscape.org/namespaces/inkscape"
   width="188.35077mm"
   height="188.39903mm"
   viewBox="0 0 188.35074 188.39905"
   version="1.1"
   id="svg8"
   inkscape:version="1.0.2 (e86c870879, 2021-01-15)"
   sodipodi:docname="14_11_blue.svg">
  <defs
     id="defs2" />
  <sodipodi:namedview
     id="base"
     pagecolor="#ffffff"
     bordercolor="#666666"
     borderopacity="1.0"
     inkscape:pageopacity="0.0"
     inkscape:pageshadow="2"
     inkscape:zoom="0.35"
     inkscape:cx="1156.7751"
     inkscape:cy="680.40175"
     inkscape:document-units="mm"
     inkscape:current-layer="layer1"
     inkscape:document-rotation="0"
     showgrid="false"
     inkscape:window-width="2155"
     inkscape:window-height="1262"
     inkscape:window-x="138"
     inkscape:window-y="-11"
     inkscape:window-maximized="1" />
  <metadata
     id="metadata5">
    <rdf:RDF>
      <cc:Work
         rdf:about="">
        <dc:format>image/svg+xml</dc:format>
        <dc:type
           rdf:resource="http://purl.org/dc/dcmitype/StillImage" />
        <dc:title />
      </cc:Work>
    </rdf:RDF>
  </metadata>
  <g
     inkscape:label="Layer 1"
     inkscape:groupmode="layer"
     id="layer1"
     transform="translate(200.23009,31.856294)">
    <path
       style="fill:#296c92;fill-opacity:1;stroke:#ffffff;stroke-width:1.99549;stroke-linecap:round;stroke-linejoin:round;stroke-miterlimit:4;stroke-dasharray:none;stroke-dashoffset:0;stroke-opacity:1"
       d="m -198.72186,52.60038 46.17131,4.852879 a 46.759651,46.759613 5.999991 0 1 6.03969,-18.474415 l -40.23689,-23.230982 a 93.185524,93.185476 5.999991 0 0 -11.97411,36.852518 z"
       id="path884-6-8-0-8-55"
       inkscape:connector-curvature="0" />
    <path
       style="fill:#296c92;fill-opacity:1;stroke:#ffffff;stroke-width:1.99549;stroke-linecap:round;stroke-linejoin:round;stroke-miterlimit:4;stroke-dasharray:none;stroke-dashoffset:0;stroke-opacity:1"
       d="m -175.31415,124.70026 34.50104,-31.064708 a 46.759614,46.759651 47.999991 0 1 -9.68781,-16.850175 l -44.18773,14.357247 a 93.185477,93.185525 47.999991 0 0 19.3745,33.557636 z"
       id="path884-6-8-0-8-8-07"
       inkscape:connector-curvature="0" />
    <path
       style="fill:#bfd3de;fill-opacity:1;stroke:#ffffff;stroke-width:1.99549;stroke-linecap:round;stroke-linejoin:round;stroke-miterlimit:4;stroke-dasharray:none;stroke-dashoffset:0;stroke-opacity:1"
       d="m -194.67149,91.13714 44.15343,-14.34623 a 46.759614,46.759651 71.999991 0 1 -1.99667,-19.333794 l -46.20711,-4.856738 a 93.185477,93.185525 71.999991 0 0 4.05037,38.53676 z"
       id="path884-6-8-0-8-7-71"
       inkscape:connector-curvature="0" />
    <path
       style="fill:#296c92;fill-opacity:1;stroke:#ffffff;stroke-width:1.99549;stroke-linecap:round;stroke-linejoin:round;stroke-miterlimit:4;stroke-dasharray:none;stroke-dashoffset:0;stroke-opacity:1"
       d="m -143.97896,147.48837 18.88312,-42.41181 a 46.759614,46.759651 23.999991 0 1 -15.70385,-11.453066 l -34.52786,31.088816 a 93.185477,93.185525 23.999991 0 0 31.34859,22.77606 z"
       id="path884-6-8-0-8-84-81"
       inkscape:connector-curvature="0" />
    <path
       style="fill:#296c92;fill-opacity:1;stroke:#ffffff;stroke-width:1.99549;stroke-linecap:round;stroke-linejoin:round;stroke-miterlimit:4;stroke-dasharray:none;stroke-dashoffset:0;stroke-opacity:1"
       d="m -106.07668,155.5448 7e-5,-46.42572 a 46.759651,46.759614 89.999991 0 1 -19.00453,-4.0755 l -18.89782,42.44479 a 93.185525,93.185477 89.999991 0 0 37.90228,8.05643 z"
       id="path884-6-8-0-8-76-83"
       inkscape:connector-curvature="0" />
    <path
       style="fill:#296c92;fill-opacity:1;stroke:#ffffff;stroke-width:1.99549;stroke-linecap:round;stroke-linejoin:round;stroke-miterlimit:4;stroke-dasharray:none;stroke-dashoffset:0;stroke-opacity:1"
       d="M -68.174424,147.48843 -87.05734,105.07651 a 46.759651,46.759614 65.999991 0 1 -19.01912,4.00686 l -1.8e-4,46.46163 a 93.185525,93.185477 65.999991 0 0 37.902266,-8.05637 z"
       id="path884-6-8-0-8-81-4"
       inkscape:connector-curvature="0" />
    <path
       style="fill:#296c92;fill-opacity:1;stroke:#ffffff;stroke-width:1.99549;stroke-linecap:round;stroke-linejoin:round;stroke-miterlimit:4;stroke-dasharray:none;stroke-dashoffset:0;stroke-opacity:1"
       d="M -36.82579,124.71237 -71.326706,93.647471 a 46.759651,46.759614 41.999991 0 1 -15.745222,11.396049 l 18.897504,42.44491 a 93.185525,93.185477 41.999991 0 0 31.348613,-22.77616 z"
       id="path884-6-8-0-8-9-6"
       inkscape:connector-curvature="0" />
    <path
       style="fill:#296c92;fill-opacity:1;stroke:#ffffff;stroke-width:1.99549;stroke-linecap:round;stroke-linejoin:round;stroke-miterlimit:4;stroke-dasharray:none;stroke-dashoffset:0;stroke-opacity:1"
       d="M -17.437902,91.166858 -61.591277,76.820451 a 46.759651,46.759614 17.999991 0 1 -9.748795,16.814941 l 34.527649,31.089068 a 93.185525,93.185477 17.999991 0 0 19.374501,-33.557701 z"
       id="path884-6-8-0-8-2-47"
       inkscape:connector-curvature="0" />
    <path
       style="fill:#296c92;fill-opacity:1;stroke:#ffffff;stroke-width:1.99549;stroke-linecap:round;stroke-linejoin:round;stroke-miterlimit:4;stroke-dasharray:none;stroke-dashoffset:0;stroke-opacity:1"
       d="m -13.38756,52.630123 -46.171339,4.852673 a 46.759614,46.759651 83.999991 0 1 -2.066678,19.326439 l 44.187635,14.357627 a 93.185477,93.185525 83.999991 0 0 4.050373,-38.536738 z"
       id="path884-6-8-0-8-6-06"
       inkscape:connector-curvature="0" />
    <path
       style="fill:#296c92;fill-opacity:1;stroke:#ffffff;stroke-width:1.99549;stroke-linecap:round;stroke-linejoin:round;stroke-miterlimit:4;stroke-dasharray:none;stroke-dashoffset:0;stroke-opacity:1"
       d="m -25.343739,15.775742 -40.205828,23.212756 a 46.759614,46.759651 59.999991 0 1 5.972755,18.496161 l 46.207165,-4.856408 A 93.185477,93.185525 59.999991 0 0 -25.343758,15.775744 Z"
       id="path884-6-8-0-8-1-23"
       inkscape:connector-curvature="0" />
    <path
       style="fill:#296c92;fill-opacity:1;stroke:#ffffff;stroke-width:1.99549;stroke-linecap:round;stroke-linejoin:round;stroke-miterlimit:4;stroke-dasharray:none;stroke-dashoffset:0;stroke-opacity:1"
       d="m -51.256266,-13.029384 -27.288373,37.5591 a 46.759614,46.759651 35.999991 0 1 12.979454,14.467743 L -25.328111,15.76677 a 93.185477,93.185525 35.999991 0 0 -25.928154,-28.796144 z"
       id="path884-6-8-0-8-64-40"
       inkscape:connector-curvature="0" />
    <path
       style="fill:#296c92;fill-opacity:1;stroke:#ffffff;stroke-width:1.99549;stroke-linecap:round;stroke-linejoin:round;stroke-miterlimit:4;stroke-dasharray:none;stroke-dashoffset:0;stroke-opacity:1"
       d="m -86.644644,-28.804582 -9.652512,45.411127 a 46.759614,46.759651 11.999991 0 1 17.741889,7.937721 l 27.309619,-37.588195 a 93.185477,93.185525 11.999991 0 0 -35.398995,-15.760643 z"
       id="path884-6-8-0-8-3-287"
       inkscape:connector-curvature="0" />
    <path
       style="fill:#296c92;fill-opacity:1;stroke:#ffffff;stroke-width:1.99549;stroke-linecap:round;stroke-linejoin:round;stroke-miterlimit:4;stroke-dasharray:none;stroke-dashoffset:0;stroke-opacity:1"
       d="m -125.3899,-28.822196 9.65237,45.411147 a 46.759651,46.759614 77.999991 0 1 19.436584,0.03521 l 9.660093,-45.446343 a 93.185525,93.185477 77.999991 0 0 -38.749047,-1.1e-5 z"
       id="path884-6-8-0-8-5-6"
       inkscape:connector-curvature="0" />
    <path
       style="fill:#296c92;fill-opacity:1;stroke:#ffffff;stroke-width:1.99549;stroke-linecap:round;stroke-linejoin:round;stroke-miterlimit:4;stroke-dasharray:none;stroke-dashoffset:0;stroke-opacity:1"
       d="m -160.79261,-13.079174 27.28825,37.559173 a 46.759651,46.759614 53.999991 0 1 17.77053,-7.873408 l -9.65976,-45.446414 a 93.185525,93.185477 53.999991 0 0 -35.39902,15.760649 z"
       id="path884-6-8-0-8-27-98"
       inkscape:connector-curvature="0" />
    <path
       style="fill:#296c92;fill-opacity:1;stroke:#ffffff;stroke-width:1.99549;stroke-linecap:round;stroke-linejoin:round;stroke-miterlimit:4;stroke-dasharray:none;stroke-dashoffset:0;stroke-opacity:1"
       d="m -186.74775,15.747862 40.20577,23.212876 A 46.759651,46.759614 29.999991 0 1 -133.51021,24.5401 l -27.30935,-37.588387 a 93.185525,93.185477 29.999991 0 0 -25.92819,28.796149 z"
       id="path884-6-8-0-8-38-5"
       inkscape:connector-curvature="0" />
  </g>
</svg>
