<?xml version="1.0" encoding="UTF-8" standalone="no"?>
<svg
   xmlns:dc="http://purl.org/dc/elements/1.1/"
   xmlns:cc="http://creativecommons.org/ns#"
   xmlns:rdf="http://www.w3.org/1999/02/22-rdf-syntax-ns#"
   xmlns:svg="http://www.w3.org/2000/svg"
   xmlns="http://www.w3.org/2000/svg"
   xmlns:sodipodi="http://sodipodi.sourceforge.net/DTD/sodipodi-0.dtd"
   xmlns:inkscape="http://www.inkscape.org/namespaces/inkscape"
   width="188.38121mm"
   height="188.3903mm"
   viewBox="0 0 188.38119 188.39032"
   version="1.1"
   id="svg8"
   inkscape:version="1.0.2 (e86c870879, 2021-01-15)"
   sodipodi:docname="14_1_blue.svg">
  <defs
     id="defs2" />
  <sodipodi:namedview
     id="base"
     pagecolor="#ffffff"
     bordercolor="#666666"
     borderopacity="1.0"
     inkscape:pageopacity="0.0"
     inkscape:pageshadow="2"
     inkscape:zoom="0.35"
     inkscape:cx="863.81117"
     inkscape:cy="721.35761"
     inkscape:document-units="mm"
     inkscape:current-layer="layer1"
     inkscape:document-rotation="0"
     showgrid="false"
     inkscape:window-width="2155"
     inkscape:window-height="1262"
     inkscape:window-x="138"
     inkscape:window-y="-11"
     inkscape:window-maximized="1" />
  <metadata
     id="metadata5">
    <rdf:RDF>
      <cc:Work
         rdf:about="">
        <dc:format>image/svg+xml</dc:format>
        <dc:type
           rdf:resource="http://purl.org/dc/dcmitype/StillImage" />
        <dc:title />
      </cc:Work>
    </rdf:RDF>
  </metadata>
  <g
     inkscape:label="Layer 1"
     inkscape:groupmode="layer"
     id="layer1"
     transform="translate(122.71673,42.692531)">
    <path
       style="fill:#296c92;fill-opacity:1;stroke:#ffffff;stroke-width:1.99549;stroke-linecap:round;stroke-linejoin:round;stroke-miterlimit:4;stroke-dasharray:none;stroke-dashoffset:0;stroke-opacity:1"
       d="M 26.240693,-23.880164 -1.0476766,13.67892 A 46.759613,46.759651 35.999991 0 1 11.931789,28.146655 L 52.168855,4.9159769 A 93.185476,93.185524 35.999991 0 0 26.240693,-23.880164 Z"
       id="path884-6-8-0-8-4"
       inkscape:connector-curvature="0" />
    <path
       style="fill:#296c92;fill-opacity:1;stroke:#ffffff;stroke-width:1.99549;stroke-linecap:round;stroke-linejoin:round;stroke-miterlimit:4;stroke-dasharray:none;stroke-dashoffset:0;stroke-opacity:1"
       d="m -47.903489,-39.658433 9.652303,45.4111347 a 46.759651,46.759614 77.999991 0 1 19.436587,0.035195 l 9.6601265,-45.4463233 a 93.185525,93.185477 77.999991 0 0 -38.7490165,-6e-6 z"
       id="path884-6-8-0-8-8-5"
       inkscape:connector-curvature="0" />
    <path
       style="fill:#bfd3de;fill-opacity:1;stroke:#ffffff;stroke-width:1.99549;stroke-linecap:round;stroke-linejoin:round;stroke-miterlimit:4;stroke-dasharray:none;stroke-dashoffset:0;stroke-opacity:1"
       d="M -9.1583038,-39.640824 -18.810818,5.7702815 A 46.759614,46.759651 11.999991 0 1 -1.0689265,13.708012 L 26.240684,-23.880146 A 93.185477,93.185525 11.999991 0 0 -9.1583119,-39.640805 Z"
       id="path884-6-8-0-8-7-9"
       inkscape:connector-curvature="0" />
    <path
       style="fill:#296c92;fill-opacity:1;stroke:#ffffff;stroke-width:1.99549;stroke-linecap:round;stroke-linejoin:round;stroke-miterlimit:4;stroke-dasharray:none;stroke-dashoffset:0;stroke-opacity:1"
       d="m -83.306173,-23.915416 27.288157,37.559163 A 46.759651,46.759614 53.999991 0 1 -38.24745,5.7703468 l -9.65977,-45.4464108 a 93.185525,93.185477 53.999991 0 0 -35.398953,15.760648 z"
       id="path884-6-8-0-8-84-0"
       inkscape:connector-curvature="0" />
    <path
       style="fill:#296c92;fill-opacity:1;stroke:#ffffff;stroke-width:1.99549;stroke-linecap:round;stroke-linejoin:round;stroke-miterlimit:4;stroke-dasharray:none;stroke-dashoffset:0;stroke-opacity:1"
       d="M -109.23438,4.8807063 -69.028564,28.093629 A 46.759651,46.759614 29.999991 0 1 -55.996809,13.67297 L -83.306173,-23.915416 A 93.185525,93.185477 29.999991 0 0 -109.23438,4.8807063 Z"
       id="path884-6-8-0-8-76-2"
       inkscape:connector-curvature="0" />
    <path
       style="fill:#296c92;fill-opacity:1;stroke:#ffffff;stroke-width:1.99549;stroke-linecap:round;stroke-linejoin:round;stroke-miterlimit:4;stroke-dasharray:none;stroke-dashoffset:0;stroke-opacity:1"
       d="m -121.20849,41.733204 46.171262,4.852878 a 46.759651,46.759614 5.999991 0 1 6.039517,-18.474469 L -109.23457,4.8806432 A 93.185525,93.185477 5.999991 0 0 -121.20869,41.73315 Z"
       id="path884-6-8-0-8-81-5"
       inkscape:connector-curvature="0" />
    <path
       style="fill:#296c92;fill-opacity:1;stroke:#ffffff;stroke-width:1.99549;stroke-linecap:round;stroke-linejoin:round;stroke-miterlimit:4;stroke-dasharray:none;stroke-dashoffset:0;stroke-opacity:1"
       d="m -117.15816,80.26995 44.153453,-14.34622 a 46.759614,46.759651 71.999991 0 1 -1.99666,-19.333789 l -46.207123,-4.856737 a 93.185477,93.185525 71.999991 0 0 4.05043,38.536777 z"
       id="path884-6-8-0-8-9-8"
       inkscape:connector-curvature="0" />
    <path
       style="fill:#296c92;fill-opacity:1;stroke:#ffffff;stroke-width:1.99549;stroke-linecap:round;stroke-linejoin:round;stroke-miterlimit:4;stroke-dasharray:none;stroke-dashoffset:0;stroke-opacity:1"
       d="m -97.800836,113.83311 34.50104,-31.064742 a 46.759614,46.759651 47.999991 0 1 -9.687768,-16.850174 l -44.187746,14.357287 a 93.185477,93.185525 47.999991 0 0 19.37457,33.557659 z"
       id="path884-6-8-0-8-2-4"
       inkscape:connector-curvature="0" />
    <path
       style="fill:#296c92;fill-opacity:1;stroke:#ffffff;stroke-width:1.99549;stroke-linecap:round;stroke-linejoin:round;stroke-miterlimit:4;stroke-dasharray:none;stroke-dashoffset:0;stroke-opacity:1"
       d="M -66.452216,136.60918 -47.569084,94.197287 A 46.759614,46.759651 23.999991 0 1 -63.272932,82.744272 l -34.527887,31.088798 a 93.185477,93.185525 23.999991 0 0 31.348607,22.7761 z"
       id="path884-6-8-0-8-6-8"
       inkscape:connector-curvature="0" />
    <path
       style="fill:#296c92;fill-opacity:1;stroke:#ffffff;stroke-width:1.99549;stroke-linecap:round;stroke-linejoin:round;stroke-miterlimit:4;stroke-dasharray:none;stroke-dashoffset:0;stroke-opacity:1"
       d="m -28.557296,144.68201 7.8e-5,-46.425644 A 46.759651,46.759614 89.999991 0 1 -47.56174,94.180842 l -18.89781,42.444778 a 93.185525,93.185477 89.999991 0 0 37.902262,8.05637 z"
       id="path884-6-8-0-8-1-4"
       inkscape:connector-curvature="0" />
    <path
       style="fill:#296c92;fill-opacity:1;stroke:#ffffff;stroke-width:1.99549;stroke-linecap:round;stroke-linejoin:round;stroke-miterlimit:4;stroke-dasharray:none;stroke-dashoffset:0;stroke-opacity:1"
       d="M 9.3449382,136.64367 -9.5380092,94.231693 a 46.759651,46.759614 65.999991 0 1 -19.0191598,4.006665 l -1.7e-4,46.461672 a 93.185525,93.185477 65.999991 0 0 37.9022681,-8.05637 z"
       id="path884-6-8-0-8-64-1"
       inkscape:connector-curvature="0" />
    <path
       style="fill:#296c92;fill-opacity:1;stroke:#ffffff;stroke-width:1.99549;stroke-linecap:round;stroke-linejoin:round;stroke-miterlimit:4;stroke-dasharray:none;stroke-dashoffset:0;stroke-opacity:1"
       d="M 40.70085,113.88403 6.1999163,82.819148 A 46.759651,46.759614 41.999991 0 1 -9.5452967,94.215215 L 9.3522262,136.66014 A 93.185525,93.185477 41.999991 0 0 40.700841,113.88403 Z"
       id="path884-6-8-0-8-3-9"
       inkscape:connector-curvature="0" />
    <path
       style="fill:#296c92;fill-opacity:1;stroke:#ffffff;stroke-width:1.99549;stroke-linecap:round;stroke-linejoin:round;stroke-miterlimit:4;stroke-dasharray:none;stroke-dashoffset:0;stroke-opacity:1"
       d="M 60.08873,80.338467 15.935341,65.992086 A 46.759651,46.759614 17.999991 0 1 6.1865582,82.80706 L 40.714199,113.89612 A 93.185525,93.185477 17.999991 0 0 60.08873,80.338467 Z"
       id="path884-6-8-0-8-5-7"
       inkscape:connector-curvature="0" />
    <path
       style="fill:#296c92;fill-opacity:1;stroke:#ffffff;stroke-width:1.99549;stroke-linecap:round;stroke-linejoin:round;stroke-miterlimit:4;stroke-dasharray:none;stroke-dashoffset:0;stroke-opacity:1"
       d="m 64.156231,41.807305 -46.171323,4.852732 a 46.759614,46.759651 83.999991 0 1 -2.066696,19.326437 l 44.18763,14.357609 a 93.185477,93.185525 83.999991 0 0 4.050389,-38.536778 z"
       id="path884-6-8-0-8-27-8"
       inkscape:connector-curvature="0" />
    <path
       style="fill:#296c92;fill-opacity:1;stroke:#ffffff;stroke-width:1.99549;stroke-linecap:round;stroke-linejoin:round;stroke-miterlimit:4;stroke-dasharray:none;stroke-dashoffset:0;stroke-opacity:1"
       d="M 52.168855,4.9159769 11.963031,28.128755 A 46.759614,46.759651 59.999991 0 1 17.935784,46.62492 L 64.142957,41.768523 A 93.185477,93.185525 59.999991 0 0 52.168855,4.9159769 Z"
       id="path884-6-8-0-8-38-3"
       inkscape:connector-curvature="0" />
  </g>
</svg>
