<?xml version="1.0" encoding="UTF-8" standalone="no"?>
<svg
   xmlns:dc="http://purl.org/dc/elements/1.1/"
   xmlns:cc="http://creativecommons.org/ns#"
   xmlns:rdf="http://www.w3.org/1999/02/22-rdf-syntax-ns#"
   xmlns:svg="http://www.w3.org/2000/svg"
   xmlns="http://www.w3.org/2000/svg"
   xmlns:sodipodi="http://sodipodi.sourceforge.net/DTD/sodipodi-0.dtd"
   xmlns:inkscape="http://www.inkscape.org/namespaces/inkscape"
   width="188.39841mm"
   height="188.37508mm"
   viewBox="0 0 188.39838 188.3751"
   version="1.1"
   id="svg8"
   inkscape:version="1.0.2 (e86c870879, 2021-01-15)"
   sodipodi:docname="14_13_blue.svg">
  <defs
     id="defs2" />
  <sodipodi:namedview
     id="base"
     pagecolor="#ffffff"
     bordercolor="#666666"
     borderopacity="1.0"
     inkscape:pageopacity="0.0"
     inkscape:pageshadow="2"
     inkscape:zoom="0.35"
     inkscape:cx="900.21682"
     inkscape:cy="695.25411"
     inkscape:document-units="mm"
     inkscape:current-layer="layer1"
     inkscape:document-rotation="0"
     showgrid="false"
     inkscape:window-width="2155"
     inkscape:window-height="1262"
     inkscape:window-x="138"
     inkscape:window-y="-11"
     inkscape:window-maximized="1" />
  <metadata
     id="metadata5">
    <rdf:RDF>
      <cc:Work
         rdf:about="">
        <dc:format>image/svg+xml</dc:format>
        <dc:type
           rdf:resource="http://purl.org/dc/dcmitype/StillImage" />
        <dc:title />
      </cc:Work>
    </rdf:RDF>
  </metadata>
  <g
     inkscape:label="Layer 1"
     inkscape:groupmode="layer"
     id="layer1"
     transform="translate(132.34906,35.78598)">
    <path
       style="fill:#296c92;fill-opacity:1;stroke:#ffffff;stroke-width:1.99549;stroke-linecap:round;stroke-linejoin:round;stroke-miterlimit:4;stroke-dasharray:none;stroke-dashoffset:0;stroke-opacity:1"
       d="m -92.905054,-16.991231 27.288242,37.559176 a 46.759651,46.759613 53.999991 0 1 17.77051,-7.873429 l -9.659751,-45.446398 a 93.185524,93.185476 53.999991 0 0 -35.399001,15.760651 z"
       id="path884-6-8-0-8-61"
       inkscape:connector-curvature="0" />
    <path
       style="fill:#296c92;fill-opacity:1;stroke:#ffffff;stroke-width:1.99549;stroke-linecap:round;stroke-linejoin:round;stroke-miterlimit:4;stroke-dasharray:none;stroke-dashoffset:0;stroke-opacity:1"
       d="m -130.82289,48.648323 46.17128,4.852926 a 46.759651,46.759614 5.999991 0 1 6.039708,-18.474416 L -118.84878,11.79582 a 93.185525,93.185477 5.999991 0 0 -11.97411,36.852503 z"
       id="path884-6-8-0-8-8-23"
       inkscape:connector-curvature="0" />
    <path
       style="fill:#bfd3de;fill-opacity:1;stroke:#ffffff;stroke-width:1.99549;stroke-linecap:round;stroke-linejoin:round;stroke-miterlimit:4;stroke-dasharray:none;stroke-dashoffset:0;stroke-opacity:1"
       d="m -118.83322,11.804903 40.205733,23.21289 a 46.759651,46.759614 29.999991 0 1 13.031776,-14.420648 l -27.309328,-37.588363 a 93.185525,93.185477 29.999991 0 0 -25.928171,28.796135 z"
       id="path884-6-8-0-8-7-91"
       inkscape:connector-curvature="0" />
    <path
       style="fill:#296c92;fill-opacity:1;stroke:#ffffff;stroke-width:1.99549;stroke-linecap:round;stroke-linejoin:round;stroke-miterlimit:4;stroke-dasharray:none;stroke-dashoffset:0;stroke-opacity:1"
       d="m -126.79042,87.183136 44.153388,-14.34616 a 46.759614,46.759651 71.999991 0 1 -1.996642,-19.333828 l -46.207136,-4.856726 a 93.185477,93.185525 71.999991 0 0 4.05039,38.536714 z"
       id="path884-6-8-0-8-84-84"
       inkscape:connector-curvature="0" />
    <path
       style="fill:#296c92;fill-opacity:1;stroke:#ffffff;stroke-width:1.99549;stroke-linecap:round;stroke-linejoin:round;stroke-miterlimit:4;stroke-dasharray:none;stroke-dashoffset:0;stroke-opacity:1"
       d="m -107.41594,120.74082 34.501082,-31.064819 a 46.759614,46.759651 47.999991 0 1 -9.687828,-16.850164 l -44.187734,14.357299 a 93.185477,93.185525 47.999991 0 0 19.37448,33.557684 z"
       id="path884-6-8-0-8-76-224"
       inkscape:connector-curvature="0" />
    <path
       style="fill:#296c92;fill-opacity:1;stroke:#ffffff;stroke-width:1.99549;stroke-linecap:round;stroke-linejoin:round;stroke-miterlimit:4;stroke-dasharray:none;stroke-dashoffset:0;stroke-opacity:1"
       d="M -76.067336,143.51692 -57.18427,101.10506 A 46.759614,46.759651 23.999991 0 1 -72.888221,89.652215 l -34.527839,31.088765 a 93.185477,93.185525 23.999991 0 0 31.348613,22.77611 z"
       id="path884-6-8-0-8-81-68"
       inkscape:connector-curvature="0" />
    <path
       style="fill:#296c92;fill-opacity:1;stroke:#ffffff;stroke-width:1.99549;stroke-linecap:round;stroke-linejoin:round;stroke-miterlimit:4;stroke-dasharray:none;stroke-dashoffset:0;stroke-opacity:1"
       d="m -38.165091,151.57333 10e-5,-46.42565 a 46.759651,46.759614 89.999991 0 1 -19.004527,-4.07553 l -18.897818,42.44477 a 93.185525,93.185477 89.999991 0 0 37.902305,8.05633 z"
       id="path884-6-8-0-8-9-3"
       inkscape:connector-curvature="0" />
    <path
       style="fill:#296c92;fill-opacity:1;stroke:#ffffff;stroke-width:1.99549;stroke-linecap:round;stroke-linejoin:round;stroke-miterlimit:4;stroke-dasharray:none;stroke-dashoffset:0;stroke-opacity:1"
       d="M -0.26288788,143.53501 -19.145804,101.12304 a 46.759651,46.759614 65.999991 0 1 -19.019154,4.00663 l -1.73e-4,46.46169 a 93.185525,93.185477 65.999991 0 0 37.9023026,-8.05643 z"
       id="path884-6-8-0-8-2-14"
       inkscape:connector-curvature="0" />
    <path
       style="fill:#296c92;fill-opacity:1;stroke:#ffffff;stroke-width:1.99549;stroke-linecap:round;stroke-linejoin:round;stroke-miterlimit:4;stroke-dasharray:none;stroke-dashoffset:0;stroke-opacity:1"
       d="M 31.085695,120.7589 -3.4151996,89.693977 A 46.759651,46.759614 41.999991 0 1 -19.160421,101.09005 l 18.89750339,42.44494 A 93.185525,93.185477 41.999991 0 0 31.085688,120.75889 Z"
       id="path884-6-8-0-8-6-89"
       inkscape:connector-curvature="0" />
    <path
       style="fill:#296c92;fill-opacity:1;stroke:#ffffff;stroke-width:1.99549;stroke-linecap:round;stroke-linejoin:round;stroke-miterlimit:4;stroke-dasharray:none;stroke-dashoffset:0;stroke-opacity:1"
       d="M 50.473592,87.21333 6.3202032,72.866942 A 46.759651,46.759614 17.999991 0 1 -3.4285702,89.681911 L 31.099072,120.77096 A 93.185525,93.185477 17.999991 0 0 50.473577,87.213316 Z"
       id="path884-6-8-0-8-1-59"
       inkscape:connector-curvature="0" />
    <path
       style="fill:#296c92;fill-opacity:1;stroke:#ffffff;stroke-width:1.99549;stroke-linecap:round;stroke-linejoin:round;stroke-miterlimit:4;stroke-dasharray:none;stroke-dashoffset:0;stroke-opacity:1"
       d="M 54.541108,48.682178 8.3697712,53.534907 A 46.759614,46.759651 83.999991 0 1 6.3030923,72.861331 L 50.490717,87.21894 a 93.185477,93.185525 83.999991 0 0 4.050384,-38.536754 z"
       id="path884-6-8-0-8-64-32"
       inkscape:connector-curvature="0" />
    <path
       style="fill:#296c92;fill-opacity:1;stroke:#ffffff;stroke-width:1.99549;stroke-linecap:round;stroke-linejoin:round;stroke-miterlimit:4;stroke-dasharray:none;stroke-dashoffset:0;stroke-opacity:1"
       d="M 42.584918,11.82782 2.379082,35.04058 a 46.759614,46.759651 59.999991 0 1 5.972765,18.496166 l 46.207175,-4.85641 A 93.185477,93.185525 59.999991 0 0 42.584911,11.827827 Z"
       id="path884-6-8-0-8-3-667"
       inkscape:connector-curvature="0" />
    <path
       style="fill:#296c92;fill-opacity:1;stroke:#ffffff;stroke-width:1.99549;stroke-linecap:round;stroke-linejoin:round;stroke-miterlimit:4;stroke-dasharray:none;stroke-dashoffset:0;stroke-opacity:1"
       d="M 16.672373,-16.9773 -10.615993,20.581793 A 46.759614,46.759651 35.999991 0 1 2.3634575,35.049549 L 42.600535,11.818858 A 93.185477,93.185525 35.999991 0 0 16.672373,-16.9773 Z"
       id="path884-6-8-0-8-5-08"
       inkscape:connector-curvature="0" />
    <path
       style="fill:#296c92;fill-opacity:1;stroke:#ffffff;stroke-width:1.99549;stroke-linecap:round;stroke-linejoin:round;stroke-miterlimit:4;stroke-dasharray:none;stroke-dashoffset:0;stroke-opacity:1"
       d="m -18.716012,-32.752507 -9.652502,45.411114 a 46.759614,46.759651 11.999991 0 1 17.74189,7.937742 l 27.309626,-37.588188 a 93.185477,93.185525 11.999991 0 0 -35.399014,-15.760668 z"
       id="path884-6-8-0-8-27-0"
       inkscape:connector-curvature="0" />
    <path
       style="fill:#296c92;fill-opacity:1;stroke:#ffffff;stroke-width:1.99549;stroke-linecap:round;stroke-linejoin:round;stroke-miterlimit:4;stroke-dasharray:none;stroke-dashoffset:0;stroke-opacity:1"
       d="m -57.506053,-32.751882 9.652381,45.411154 a 46.759651,46.759614 77.999991 0 1 19.43658,0.0352 l 9.660094,-45.446342 a 93.185525,93.185477 77.999991 0 0 -38.749055,-1.5e-5 z"
       id="path884-6-8-0-8-38-53"
       inkscape:connector-curvature="0" />
  </g>
</svg>
