<?xml version="1.0" encoding="UTF-8" standalone="no"?>
<svg
   xmlns:dc="http://purl.org/dc/elements/1.1/"
   xmlns:cc="http://creativecommons.org/ns#"
   xmlns:rdf="http://www.w3.org/1999/02/22-rdf-syntax-ns#"
   xmlns:svg="http://www.w3.org/2000/svg"
   xmlns="http://www.w3.org/2000/svg"
   xmlns:sodipodi="http://sodipodi.sourceforge.net/DTD/sodipodi-0.dtd"
   xmlns:inkscape="http://www.inkscape.org/namespaces/inkscape"
   width="188.36436mm"
   height="188.40344mm"
   viewBox="0 0 188.36434 188.40346"
   version="1.1"
   id="svg8"
   inkscape:version="1.0.2 (e86c870879, 2021-01-15)"
   sodipodi:docname="14_10_blue.svg">
  <defs
     id="defs2" />
  <sodipodi:namedview
     id="base"
     pagecolor="#ffffff"
     bordercolor="#666666"
     borderopacity="1.0"
     inkscape:pageopacity="0.0"
     inkscape:pageshadow="2"
     inkscape:zoom="0.35"
     inkscape:cx="1329.408"
     inkscape:cy="818.65779"
     inkscape:document-units="mm"
     inkscape:current-layer="layer1"
     inkscape:document-rotation="0"
     showgrid="false"
     inkscape:window-width="2155"
     inkscape:window-height="1262"
     inkscape:window-x="138"
     inkscape:window-y="-11"
     inkscape:window-maximized="1" />
  <metadata
     id="metadata5">
    <rdf:RDF>
      <cc:Work
         rdf:about="">
        <dc:format>image/svg+xml</dc:format>
        <dc:type
           rdf:resource="http://purl.org/dc/dcmitype/StillImage" />
        <dc:title />
      </cc:Work>
    </rdf:RDF>
  </metadata>
  <g
     inkscape:label="Layer 1"
     inkscape:groupmode="layer"
     id="layer1"
     transform="translate(245.90589,68.436536)">
    <path
       style="fill:#296c92;fill-opacity:1;stroke:#ffffff;stroke-width:1.99549;stroke-linecap:round;stroke-linejoin:round;stroke-miterlimit:4;stroke-dasharray:none;stroke-dashoffset:0;stroke-opacity:1"
       d="m -240.34727,54.550603 44.15343,-14.346236 a 46.759613,46.759651 71.999991 0 1 -1.99669,-19.333783 l -46.20712,-4.85674 a 93.185476,93.185524 71.999991 0 0 4.05038,38.536759 z"
       id="path884-6-8-0-8-93"
       inkscape:connector-curvature="0" />
    <path
       style="fill:#296c92;fill-opacity:1;stroke:#ffffff;stroke-width:1.99549;stroke-linecap:round;stroke-linejoin:round;stroke-miterlimit:4;stroke-dasharray:none;stroke-dashoffset:0;stroke-opacity:1"
       d="m -189.6376,110.89635 18.88312,-42.411864 a 46.759614,46.759651 23.999991 0 1 -15.70384,-11.453012 l -34.52789,31.088768 a 93.185477,93.185525 23.999991 0 0 31.34861,22.776108 z"
       id="path884-6-8-0-8-8-8"
       inkscape:connector-curvature="0" />
    <path
       style="fill:#bfd3de;fill-opacity:1;stroke:#ffffff;stroke-width:1.99549;stroke-linecap:round;stroke-linejoin:round;stroke-miterlimit:4;stroke-dasharray:none;stroke-dashoffset:0;stroke-opacity:1"
       d="m -220.97276,88.108252 34.50102,-31.06475 a 46.759614,46.759651 47.999991 0 1 -9.68781,-16.850181 l -44.1877,14.357272 a 93.185477,93.185525 47.999991 0 0 19.37451,33.557649 z"
       id="path884-6-8-0-8-7-7"
       inkscape:connector-curvature="0" />
    <path
       style="fill:#296c92;fill-opacity:1;stroke:#ffffff;stroke-width:1.99549;stroke-linecap:round;stroke-linejoin:round;stroke-miterlimit:4;stroke-dasharray:none;stroke-dashoffset:0;stroke-opacity:1"
       d="m -151.74271,118.96915 1.4e-4,-46.425573 a 46.759651,46.759614 89.999991 0 1 -19.00456,-4.075562 l -18.89781,42.444785 a 93.185525,93.185477 89.999991 0 0 37.90223,8.05635 z"
       id="path884-6-8-0-8-84-67"
       inkscape:connector-curvature="0" />
    <path
       style="fill:#296c92;fill-opacity:1;stroke:#ffffff;stroke-width:1.99549;stroke-linecap:round;stroke-linejoin:round;stroke-miterlimit:4;stroke-dasharray:none;stroke-dashoffset:0;stroke-opacity:1"
       d="m -113.84041,110.91282 -18.88298,-42.412035 a 46.759651,46.759614 65.999991 0 1 -19.01916,4.006685 l -1.6e-4,46.46168 a 93.185525,93.185477 65.999991 0 0 37.9023,-8.05633 z"
       id="path884-6-8-0-8-76-8"
       inkscape:connector-curvature="0" />
    <path
       style="fill:#296c92;fill-opacity:1;stroke:#ffffff;stroke-width:1.99549;stroke-linecap:round;stroke-linejoin:round;stroke-miterlimit:4;stroke-dasharray:none;stroke-dashoffset:0;stroke-opacity:1"
       d="M -82.491804,88.136728 -116.99269,57.071881 a 46.759651,46.759614 41.999991 0 1 -15.74509,11.39622 l 18.89748,42.444879 a 93.185525,93.185477 41.999991 0 0 31.348622,-22.776094 z"
       id="path884-6-8-0-8-81-69"
       inkscape:connector-curvature="0" />
    <path
       style="fill:#296c92;fill-opacity:1;stroke:#ffffff;stroke-width:1.99549;stroke-linecap:round;stroke-linejoin:round;stroke-miterlimit:4;stroke-dasharray:none;stroke-dashoffset:0;stroke-opacity:1"
       d="M -63.117261,54.57912 -107.27065,40.232709 a 46.759651,46.759614 17.999991 0 1 -9.74878,16.814971 l 34.527626,31.089048 a 93.185525,93.185477 17.999991 0 0 19.374484,-33.55769 z"
       id="path884-6-8-0-8-9-18"
       inkscape:connector-curvature="0" />
    <path
       style="fill:#296c92;fill-opacity:1;stroke:#ffffff;stroke-width:1.99549;stroke-linecap:round;stroke-linejoin:round;stroke-miterlimit:4;stroke-dasharray:none;stroke-dashoffset:0;stroke-opacity:1"
       d="m -59.049733,16.048005 -46.171327,4.852701 a 46.759614,46.759651 83.999991 0 1 -2.06671,19.326405 l 44.187637,14.357616 a 93.185477,93.185525 83.999991 0 0 4.050341,-38.536803 z"
       id="path884-6-8-0-8-2-32"
       inkscape:connector-curvature="0" />
    <path
       style="fill:#296c92;fill-opacity:1;stroke:#ffffff;stroke-width:1.99549;stroke-linecap:round;stroke-linejoin:round;stroke-miterlimit:4;stroke-dasharray:none;stroke-dashoffset:0;stroke-opacity:1"
       d="M -71.023863,-20.804476 -111.22972,2.4082365 a 46.759614,46.759651 59.999991 0 1 5.97277,18.4961745 l 46.207182,-4.856386 a 93.185477,93.185525 59.999991 0 0 -11.974104,-36.852496 z"
       id="path884-6-8-0-8-6-4"
       inkscape:connector-curvature="0" />
    <path
       style="fill:#296c92;fill-opacity:1;stroke:#ffffff;stroke-width:1.99549;stroke-linecap:round;stroke-linejoin:round;stroke-miterlimit:4;stroke-dasharray:none;stroke-dashoffset:0;stroke-opacity:1"
       d="m -96.936403,-49.609612 -27.288377,37.55909 a 46.759614,46.759651 35.999991 0 1 12.97945,14.4677462 l 40.237069,-23.2306962 a 93.185477,93.185525 35.999991 0 0 -25.92816,-28.79613 z"
       id="path884-6-8-0-8-1-7"
       inkscape:connector-curvature="0" />
    <path
       style="fill:#296c92;fill-opacity:1;stroke:#ffffff;stroke-width:1.99549;stroke-linecap:round;stroke-linejoin:round;stroke-miterlimit:4;stroke-dasharray:none;stroke-dashoffset:0;stroke-opacity:1"
       d="m -132.32477,-65.38483 -9.65251,45.411126 a 46.759614,46.759651 11.999991 0 1 17.74188,7.937722 l 27.309624,-37.588184 a 93.185477,93.185525 11.999991 0 0 -35.398994,-15.760655 z"
       id="path884-6-8-0-8-64-8"
       inkscape:connector-curvature="0" />
    <path
       style="fill:#296c92;fill-opacity:1;stroke:#ffffff;stroke-width:1.99549;stroke-linecap:round;stroke-linejoin:round;stroke-miterlimit:4;stroke-dasharray:none;stroke-dashoffset:0;stroke-opacity:1"
       d="m -171.07002,-65.40244 9.65236,45.411159 a 46.759651,46.759614 77.999991 0 1 19.43659,0.03519 l 9.66008,-45.446348 a 93.185525,93.185477 77.999991 0 0 -38.74902,5e-6 z"
       id="path884-6-8-0-8-3-66"
       inkscape:connector-curvature="0" />
    <path
       style="fill:#296c92;fill-opacity:1;stroke:#ffffff;stroke-width:1.99549;stroke-linecap:round;stroke-linejoin:round;stroke-miterlimit:4;stroke-dasharray:none;stroke-dashoffset:0;stroke-opacity:1"
       d="m -206.47273,-49.659418 27.28825,37.559177 a 46.759651,46.759614 53.999991 0 1 17.77052,-7.873409 l -9.65976,-45.446413 a 93.185525,93.185477 53.999991 0 0 -35.39901,15.760645 z"
       id="path884-6-8-0-8-5-39"
       inkscape:connector-curvature="0" />
    <path
       style="fill:#296c92;fill-opacity:1;stroke:#ffffff;stroke-width:1.99549;stroke-linecap:round;stroke-linejoin:round;stroke-miterlimit:4;stroke-dasharray:none;stroke-dashoffset:0;stroke-opacity:1"
       d="m -232.41146,-20.87787 40.20575,23.2128803 a 46.759651,46.759614 29.999991 0 1 13.03179,-14.4206433 l -27.30935,-37.588386 a 93.185525,93.185477 29.999991 0 0 -25.92819,28.796149 z"
       id="path884-6-8-0-8-27-5"
       inkscape:connector-curvature="0" />
    <path
       style="fill:#296c92;fill-opacity:1;stroke:#ffffff;stroke-width:1.99549;stroke-linecap:round;stroke-linejoin:round;stroke-miterlimit:4;stroke-dasharray:none;stroke-dashoffset:0;stroke-opacity:1"
       d="m -244.39765,16.013844 46.17133,4.852859 a 46.759651,46.759614 5.999991 0 1 6.03971,-18.4744087 l -40.2369,-23.2309863 a 93.185525,93.185477 5.999991 0 0 -11.97414,36.852536 z"
       id="path884-6-8-0-8-38-21"
       inkscape:connector-curvature="0" />
  </g>
</svg>
