<?xml version="1.0" encoding="UTF-8" standalone="no"?>
<svg
   xmlns:dc="http://purl.org/dc/elements/1.1/"
   xmlns:cc="http://creativecommons.org/ns#"
   xmlns:rdf="http://www.w3.org/1999/02/22-rdf-syntax-ns#"
   xmlns:svg="http://www.w3.org/2000/svg"
   xmlns="http://www.w3.org/2000/svg"
   xmlns:sodipodi="http://sodipodi.sourceforge.net/DTD/sodipodi-0.dtd"
   xmlns:inkscape="http://www.inkscape.org/namespaces/inkscape"
   width="188.39835mm"
   height="188.36079mm"
   viewBox="0 0 188.39832 188.36082"
   version="1.1"
   id="svg8"
   inkscape:version="1.0.2 (e86c870879, 2021-01-15)"
   sodipodi:docname="14_14_blue.svg">
  <defs
     id="defs2" />
  <sodipodi:namedview
     id="base"
     pagecolor="#ffffff"
     bordercolor="#666666"
     borderopacity="1.0"
     inkscape:pageopacity="0.0"
     inkscape:pageshadow="2"
     inkscape:zoom="0.35"
     inkscape:cx="933.38803"
     inkscape:cy="651.21151"
     inkscape:document-units="mm"
     inkscape:current-layer="layer1"
     inkscape:document-rotation="0"
     showgrid="false"
     inkscape:window-width="2155"
     inkscape:window-height="1262"
     inkscape:window-x="138"
     inkscape:window-y="-11"
     inkscape:window-maximized="1" />
  <metadata
     id="metadata5">
    <rdf:RDF>
      <cc:Work
         rdf:about="">
        <dc:format>image/svg+xml</dc:format>
        <dc:type
           rdf:resource="http://purl.org/dc/dcmitype/StillImage" />
        <dc:title />
      </cc:Work>
    </rdf:RDF>
  </metadata>
  <g
     inkscape:label="Layer 1"
     inkscape:groupmode="layer"
     id="layer1"
     transform="translate(141.12561,24.133042)">
    <path
       style="fill:#296c92;fill-opacity:1;stroke:#ffffff;stroke-width:1.99549;stroke-linecap:round;stroke-linejoin:round;stroke-miterlimit:4;stroke-dasharray:none;stroke-dashoffset:0;stroke-opacity:1"
       d="m -66.289989,-21.098939 9.652355,45.411143 a 46.759651,46.759613 77.999991 0 1 19.436581,0.03518 l 9.660094,-45.446325 a 93.185524,93.185476 77.999991 0 0 -38.74903,0 z"
       id="path884-6-8-0-8-85"
       inkscape:connector-curvature="0" />
    <path
       style="fill:#296c92;fill-opacity:1;stroke:#ffffff;stroke-width:1.99549;stroke-linecap:round;stroke-linejoin:round;stroke-miterlimit:4;stroke-dasharray:none;stroke-dashoffset:0;stroke-opacity:1"
       d="m -127.62767,23.443204 40.205702,23.21292 A 46.759651,46.759614 29.999991 0 1 -74.390199,32.235476 L -101.69951,-5.3529237 a 93.185525,93.185477 29.999991 0 0 -25.92816,28.7961277 z"
       id="path884-6-8-0-8-8-40"
       inkscape:connector-curvature="0" />
    <path
       style="fill:#bfd3de;fill-opacity:1;stroke:#ffffff;stroke-width:1.99549;stroke-linecap:round;stroke-linejoin:round;stroke-miterlimit:4;stroke-dasharray:none;stroke-dashoffset:0;stroke-opacity:1"
       d="m -101.68899,-5.3382974 27.288231,37.5591764 a 46.759651,46.759614 53.999991 0 1 17.770526,-7.873417 l -9.659748,-45.446382 a 93.185525,93.185477 53.999991 0 0 -35.399009,15.7606408 z"
       id="path884-6-8-0-8-7-0"
       inkscape:connector-curvature="0" />
    <path
       style="fill:#296c92;fill-opacity:1;stroke:#ffffff;stroke-width:1.99549;stroke-linecap:round;stroke-linejoin:round;stroke-miterlimit:4;stroke-dasharray:none;stroke-dashoffset:0;stroke-opacity:1"
       d="m -139.61735,60.286659 46.171242,4.852934 a 46.759651,46.759614 5.999991 0 1 6.039753,-18.474438 L -127.64327,23.434178 a 93.185525,93.185477 5.999991 0 0 -11.97408,36.852481 z"
       id="path884-6-8-0-8-84-33"
       inkscape:connector-curvature="0" />
    <path
       style="fill:#296c92;fill-opacity:1;stroke:#ffffff;stroke-width:1.99549;stroke-linecap:round;stroke-linejoin:round;stroke-miterlimit:4;stroke-dasharray:none;stroke-dashoffset:0;stroke-opacity:1"
       d="m -135.56702,98.823441 44.153511,-14.346269 a 46.759614,46.759651 71.999991 0 1 -1.996692,-19.333786 l -46.207149,-4.856727 a 93.185477,93.185525 71.999991 0 0 4.05033,38.536782 z"
       id="path884-6-8-0-8-76-75"
       inkscape:connector-curvature="0" />
    <path
       style="fill:#296c92;fill-opacity:1;stroke:#ffffff;stroke-width:1.99549;stroke-linecap:round;stroke-linejoin:round;stroke-miterlimit:4;stroke-dasharray:none;stroke-dashoffset:0;stroke-opacity:1"
       d="m -116.19252,132.38107 34.501,-31.06472 A 46.759614,46.759651 47.999991 0 1 -91.3795,84.466277 l -44.18769,14.357264 a 93.185477,93.185525 47.999991 0 0 19.3745,33.557639 z"
       id="path884-6-8-0-8-81-99"
       inkscape:connector-curvature="0" />
    <path
       style="fill:#296c92;fill-opacity:1;stroke:#ffffff;stroke-width:1.99549;stroke-linecap:round;stroke-linejoin:round;stroke-miterlimit:4;stroke-dasharray:none;stroke-dashoffset:0;stroke-opacity:1"
       d="m -84.84393,155.1572 18.883105,-42.4119 a 46.759614,46.759651 23.999991 0 1 -15.703831,-11.45302 l -34.527864,31.08879 a 93.185477,93.185525 23.999991 0 0 31.348677,22.77608 z"
       id="path884-6-8-0-8-9-21"
       inkscape:connector-curvature="0" />
    <path
       style="fill:#296c92;fill-opacity:1;stroke:#ffffff;stroke-width:1.99549;stroke-linecap:round;stroke-linejoin:round;stroke-miterlimit:4;stroke-dasharray:none;stroke-dashoffset:0;stroke-opacity:1"
       d="m -46.949066,163.23005 1.01e-4,-46.42564 a 46.759651,46.759614 89.999991 0 1 -19.004502,-4.07555 l -18.89783,42.44479 a 93.185525,93.185477 89.999991 0 0 37.902318,8.05635 z"
       id="path884-6-8-0-8-2-91"
       inkscape:connector-curvature="0" />
    <path
       style="fill:#296c92;fill-opacity:1;stroke:#ffffff;stroke-width:1.99549;stroke-linecap:round;stroke-linejoin:round;stroke-miterlimit:4;stroke-dasharray:none;stroke-dashoffset:0;stroke-opacity:1"
       d="m -9.0468288,155.17365 -18.8828942,-42.412 a 46.759651,46.759614 65.999991 0 1 -19.019175,4.00667 l -1.84e-4,46.46169 a 93.185525,93.185477 65.999991 0 0 37.9022491,-8.05637 z"
       id="path884-6-8-0-8-6-80"
       inkscape:connector-curvature="0" />
    <path
       style="fill:#296c92;fill-opacity:1;stroke:#ffffff;stroke-width:1.99549;stroke-linecap:round;stroke-linejoin:round;stroke-miterlimit:4;stroke-dasharray:none;stroke-dashoffset:0;stroke-opacity:1"
       d="M 22.309108,132.41401 -12.191818,101.34913 A 46.759651,46.759614 41.999991 0 1 -27.93703,112.74519 L -9.0395126,155.1901 A 93.185525,93.185477 41.999991 0 0 22.3091,132.414 Z"
       id="path884-6-8-0-8-1-97"
       inkscape:connector-curvature="0" />
    <path
       style="fill:#296c92;fill-opacity:1;stroke:#ffffff;stroke-width:1.99549;stroke-linecap:round;stroke-linejoin:round;stroke-miterlimit:4;stroke-dasharray:none;stroke-dashoffset:0;stroke-opacity:1"
       d="M 41.696999,98.868463 -2.456398,84.522077 a 46.759651,46.759614 17.999991 0 1 -9.74877,16.814973 L 22.322471,132.4261 A 93.185525,93.185477 17.999991 0 0 41.69699,98.868467 Z"
       id="path884-6-8-0-8-64-9"
       inkscape:connector-curvature="0" />
    <path
       style="fill:#296c92;fill-opacity:1;stroke:#ffffff;stroke-width:1.99549;stroke-linecap:round;stroke-linejoin:round;stroke-miterlimit:4;stroke-dasharray:none;stroke-dashoffset:0;stroke-opacity:1"
       d="m 45.764494,60.33731 -46.17133839,4.852726 a 46.759614,46.759651 83.999991 0 1 -2.06667601,19.32643 l 44.1876344,14.3576 a 93.185477,93.185525 83.999991 0 0 4.050371,-38.536752 z"
       id="path884-6-8-0-8-3-4"
       inkscape:connector-curvature="0" />
    <path
       style="fill:#296c92;fill-opacity:1;stroke:#ffffff;stroke-width:1.99549;stroke-linecap:round;stroke-linejoin:round;stroke-miterlimit:4;stroke-dasharray:none;stroke-dashoffset:0;stroke-opacity:1"
       d="m 33.808305,23.482943 -40.2058231,23.21276 a 46.759614,46.759651 59.999991 0 1 5.97275202,18.496171 L 45.782407,60.335476 A 93.185477,93.185525 59.999991 0 0 33.808305,23.482943 Z"
       id="path884-6-8-0-8-5-34"
       inkscape:connector-curvature="0" />
    <path
       style="fill:#296c92;fill-opacity:1;stroke:#ffffff;stroke-width:1.99549;stroke-linecap:round;stroke-linejoin:round;stroke-miterlimit:4;stroke-dasharray:none;stroke-dashoffset:0;stroke-opacity:1"
       d="M 7.8957609,-5.3221792 -19.392602,32.236912 A 46.759614,46.759651 35.999991 0 1 -6.4131496,46.704677 L 33.823929,23.473984 A 93.185477,93.185525 35.999991 0 0 7.8957609,-5.3221792 Z"
       id="path884-6-8-0-8-27-97"
       inkscape:connector-curvature="0" />
    <path
       style="fill:#296c92;fill-opacity:1;stroke:#ffffff;stroke-width:1.99549;stroke-linecap:round;stroke-linejoin:round;stroke-miterlimit:4;stroke-dasharray:none;stroke-dashoffset:0;stroke-opacity:1"
       d="m -27.540959,-21.098939 -9.652492,45.41113 a 46.759614,46.759651 11.999991 0 1 17.741882,7.93773 L 7.8580578,-5.3382646 A 93.185477,93.185525 11.999991 0 0 -27.540959,-21.098939 Z"
       id="path884-6-8-0-8-38-4"
       inkscape:connector-curvature="0" />
  </g>
</svg>
