<?xml version="1.0" encoding="UTF-8" standalone="no"?>
<svg
   xmlns:dc="http://purl.org/dc/elements/1.1/"
   xmlns:cc="http://creativecommons.org/ns#"
   xmlns:rdf="http://www.w3.org/1999/02/22-rdf-syntax-ns#"
   xmlns:svg="http://www.w3.org/2000/svg"
   xmlns="http://www.w3.org/2000/svg"
   xmlns:sodipodi="http://sodipodi.sourceforge.net/DTD/sodipodi-0.dtd"
   xmlns:inkscape="http://www.inkscape.org/namespaces/inkscape"
   width="188.37155mm"
   height="188.41249mm"
   viewBox="0 0 188.37153 188.41251"
   version="1.1"
   id="svg8"
   inkscape:version="1.0.2 (e86c870879, 2021-01-15)"
   sodipodi:docname="14_2_blue.svg">
  <defs
     id="defs2" />
  <sodipodi:namedview
     id="base"
     pagecolor="#ffffff"
     bordercolor="#666666"
     borderopacity="1.0"
     inkscape:pageopacity="0.0"
     inkscape:pageshadow="2"
     inkscape:zoom="0.35"
     inkscape:cx="928.36035"
     inkscape:cy="780.26983"
     inkscape:document-units="mm"
     inkscape:current-layer="layer1"
     inkscape:document-rotation="0"
     showgrid="false"
     inkscape:window-width="2155"
     inkscape:window-height="1262"
     inkscape:window-x="138"
     inkscape:window-y="-11"
     inkscape:window-maximized="1" />
  <metadata
     id="metadata5">
    <rdf:RDF>
      <cc:Work
         rdf:about="">
        <dc:format>image/svg+xml</dc:format>
        <dc:type
           rdf:resource="http://purl.org/dc/dcmitype/StillImage" />
        <dc:title />
      </cc:Work>
    </rdf:RDF>
  </metadata>
  <g
     inkscape:label="Layer 1"
     inkscape:groupmode="layer"
     id="layer1"
     transform="translate(139.79537,58.279724)">
    <path
       style="fill:#296c92;fill-opacity:1;stroke:#ffffff;stroke-width:1.99549;stroke-linecap:round;stroke-linejoin:round;stroke-miterlimit:4;stroke-dasharray:none;stroke-dashoffset:0;stroke-opacity:1"
       d="M 35.09383,-10.656688 -5.1119914,12.556062 A 46.759613,46.759651 59.999991 0 1 0.86078212,31.052221 L 47.067939,26.195829 A 93.185476,93.185524 59.999991 0 0 35.09383,-10.656688 Z"
       id="path884-6-8-0-8-92"
       inkscape:connector-curvature="0" />
    <path
       style="fill:#296c92;fill-opacity:1;stroke:#ffffff;stroke-width:1.99549;stroke-linecap:round;stroke-linejoin:round;stroke-miterlimit:4;stroke-dasharray:none;stroke-dashoffset:0;stroke-opacity:1"
       d="m -26.22265,-55.228009 -9.652555,45.4110806 a 46.759614,46.759651 11.999991 0 1 17.74189,7.9377237 L 9.1763355,-39.46736 A 93.185477,93.185525 11.999991 0 0 -26.22265,-55.228009 Z"
       id="path884-6-8-0-8-8-2"
       inkscape:connector-curvature="0" />
    <path
       style="fill:#bfd3de;fill-opacity:1;stroke:#ffffff;stroke-width:1.99549;stroke-linecap:round;stroke-linejoin:round;stroke-miterlimit:4;stroke-dasharray:none;stroke-dashoffset:0;stroke-opacity:1"
       d="M 9.1656754,-39.452836 -18.122696,-1.8937586 A 46.759614,46.759651 35.999991 0 1 -5.143237,12.573996 L 35.093815,-10.656675 A 93.185477,93.185525 35.999991 0 0 9.1656605,-39.452823 Z"
       id="path884-6-8-0-8-7-94"
       inkscape:connector-curvature="0" />
    <path
       style="fill:#296c92;fill-opacity:1;stroke:#ffffff;stroke-width:1.99549;stroke-linecap:round;stroke-linejoin:round;stroke-miterlimit:4;stroke-dasharray:none;stroke-dashoffset:0;stroke-opacity:1"
       d="m -64.967873,-55.245617 9.652283,45.4110965 a 46.759651,46.759614 77.999991 0 1 19.436621,0.035231 l 9.660082,-45.4463448 a 93.185525,93.185477 77.999991 0 0 -38.748986,1.7e-5 z"
       id="path884-6-8-0-8-84-8"
       inkscape:connector-curvature="0" />
    <path
       style="fill:#296c92;fill-opacity:1;stroke:#ffffff;stroke-width:1.99549;stroke-linecap:round;stroke-linejoin:round;stroke-miterlimit:4;stroke-dasharray:none;stroke-dashoffset:0;stroke-opacity:1"
       d="m -100.36691,-39.485003 27.288298,37.5592399 a 46.759651,46.759614 53.999991 0 1 17.770511,-7.8734355 l -9.659772,-45.4464184 a 93.185525,93.185477 53.999991 0 0 -35.399037,15.760614 z"
       id="path884-6-8-0-8-76-0"
       inkscape:connector-curvature="0" />
    <path
       style="fill:#296c92;fill-opacity:1;stroke:#ffffff;stroke-width:1.99549;stroke-linecap:round;stroke-linejoin:round;stroke-miterlimit:4;stroke-dasharray:none;stroke-dashoffset:0;stroke-opacity:1"
       d="m -126.29506,-10.68888 40.205702,23.212869 A 46.759651,46.759614 29.999991 0 1 -73.057742,-1.8967853 L -100.36706,-39.485138 a 93.185525,93.185477 29.999991 0 0 -25.92816,28.79613 z"
       id="path884-6-8-0-8-81-7"
       inkscape:connector-curvature="0" />
    <path
       style="fill:#296c92;fill-opacity:1;stroke:#ffffff;stroke-width:1.99549;stroke-linecap:round;stroke-linejoin:round;stroke-miterlimit:4;stroke-dasharray:none;stroke-dashoffset:0;stroke-opacity:1"
       d="m -138.26921,26.163608 46.171321,4.852902 a 46.759651,46.759614 5.999991 0 1 6.039721,-18.47441 l -40.236892,-23.23098 a 93.185525,93.185477 5.999991 0 0 -11.97407,36.852556 z"
       id="path884-6-8-0-8-9-2"
       inkscape:connector-curvature="0" />
    <path
       style="fill:#296c92;fill-opacity:1;stroke:#ffffff;stroke-width:1.99549;stroke-linecap:round;stroke-linejoin:round;stroke-miterlimit:4;stroke-dasharray:none;stroke-dashoffset:0;stroke-opacity:1"
       d="m -134.23678,64.698412 44.153438,-14.346215 a 46.759614,46.759651 71.999991 0 1 -1.996634,-19.333771 l -46.207154,-4.856741 a 93.185477,93.185525 71.999991 0 0 4.05043,38.536795 z"
       id="path884-6-8-0-8-2-8"
       inkscape:connector-curvature="0" />
    <path
       style="fill:#296c92;fill-opacity:1;stroke:#ffffff;stroke-width:1.99549;stroke-linecap:round;stroke-linejoin:round;stroke-miterlimit:4;stroke-dasharray:none;stroke-dashoffset:0;stroke-opacity:1"
       d="M -114.86225,98.256017 -80.361182,67.19129 A 46.759614,46.759651 47.999991 0 1 -90.049,50.341109 l -44.18775,14.357276 a 93.185477,93.185525 47.999991 0 0 19.37451,33.557625 z"
       id="path884-6-8-0-8-6-6"
       inkscape:connector-curvature="0" />
    <path
       style="fill:#296c92;fill-opacity:1;stroke:#ffffff;stroke-width:1.99549;stroke-linecap:round;stroke-linejoin:round;stroke-miterlimit:4;stroke-dasharray:none;stroke-dashoffset:0;stroke-opacity:1"
       d="M -83.527037,121.04417 -64.643954,78.632265 A 46.759614,46.759651 23.999991 0 1 -80.347785,67.179254 L -114.87564,98.26806 a 93.185477,93.185525 23.999991 0 0 31.348618,22.7761 z"
       id="path884-6-8-0-8-1-1"
       inkscape:connector-curvature="0" />
    <path
       style="fill:#296c92;fill-opacity:1;stroke:#ffffff;stroke-width:1.99549;stroke-linecap:round;stroke-linejoin:round;stroke-miterlimit:4;stroke-dasharray:none;stroke-dashoffset:0;stroke-opacity:1"
       d="m -45.632134,129.11701 7.3e-5,-46.425656 a 46.759651,46.759614 89.999991 0 1 -19.004525,-4.075519 l -18.89782,42.444785 a 93.185525,93.185477 89.999991 0 0 37.902265,8.05638 z"
       id="path884-6-8-0-8-64-6"
       inkscape:connector-curvature="0" />
    <path
       style="fill:#296c92;fill-opacity:1;stroke:#ffffff;stroke-width:1.99549;stroke-linecap:round;stroke-linejoin:round;stroke-miterlimit:4;stroke-dasharray:none;stroke-dashoffset:0;stroke-opacity:1"
       d="M -7.7299057,121.07864 -26.61285,78.666666 a 46.759651,46.759614 65.999991 0 1 -19.019166,4.006669 l -1.59e-4,46.461685 a 93.185525,93.185477 65.999991 0 0 37.9022626,-8.05638 z"
       id="path884-6-8-0-8-3-0"
       inkscape:connector-curvature="0" />
    <path
       style="fill:#296c92;fill-opacity:1;stroke:#ffffff;stroke-width:1.99549;stroke-linecap:round;stroke-linejoin:round;stroke-miterlimit:4;stroke-dasharray:none;stroke-dashoffset:0;stroke-opacity:1"
       d="M 23.626015,98.319006 -10.874915,67.254133 A 46.759651,46.759614 41.999991 0 1 -26.620137,78.650189 L -7.7226259,121.09511 A 93.185525,93.185477 41.999991 0 0 23.626015,98.319006 Z"
       id="path884-6-8-0-8-5-4"
       inkscape:connector-curvature="0" />
    <path
       style="fill:#296c92;fill-opacity:1;stroke:#ffffff;stroke-width:1.99549;stroke-linecap:round;stroke-linejoin:round;stroke-miterlimit:4;stroke-dasharray:none;stroke-dashoffset:0;stroke-opacity:1"
       d="M 43.013898,64.77344 -1.139489,50.427062 A 46.759651,46.759614 17.999991 0 1 -10.88828,67.24204 L 23.639363,98.331096 A 93.185525,93.185477 17.999991 0 0 43.013898,64.77344 Z"
       id="path884-6-8-0-8-27-2"
       inkscape:connector-curvature="0" />
    <path
       style="fill:#296c92;fill-opacity:1;stroke:#ffffff;stroke-width:1.99549;stroke-linecap:round;stroke-linejoin:round;stroke-miterlimit:4;stroke-dasharray:none;stroke-dashoffset:0;stroke-opacity:1"
       d="M 47.067939,26.195829 0.89660363,31.048575 A 46.759614,46.759651 83.999991 0 1 -1.1700827,50.375001 l 44.1876277,14.35761 a 93.185477,93.185525 83.999991 0 0 4.050394,-38.536782 z"
       id="path884-6-8-0-8-38-2"
       inkscape:connector-curvature="0" />
  </g>
</svg>
