<?xml version="1.0" encoding="UTF-8" standalone="no"?>
<svg
   xmlns:dc="http://purl.org/dc/elements/1.1/"
   xmlns:cc="http://creativecommons.org/ns#"
   xmlns:rdf="http://www.w3.org/1999/02/22-rdf-syntax-ns#"
   xmlns:svg="http://www.w3.org/2000/svg"
   xmlns="http://www.w3.org/2000/svg"
   xmlns:sodipodi="http://sodipodi.sourceforge.net/DTD/sodipodi-0.dtd"
   xmlns:inkscape="http://www.inkscape.org/namespaces/inkscape"
   width="188.35735mm"
   height="188.41089mm"
   viewBox="0 0 188.35732 188.41091"
   version="1.1"
   id="svg8"
   inkscape:version="1.0.2 (e86c870879, 2021-01-15)"
   sodipodi:docname="14_3_blue.svg">
  <defs
     id="defs2" />
  <sodipodi:namedview
     id="base"
     pagecolor="#ffffff"
     bordercolor="#666666"
     borderopacity="1.0"
     inkscape:pageopacity="0.0"
     inkscape:pageshadow="2"
     inkscape:zoom="0.35"
     inkscape:cx="1030.0256"
     inkscape:cy="790.6076"
     inkscape:document-units="mm"
     inkscape:current-layer="layer1"
     inkscape:document-rotation="0"
     showgrid="false"
     inkscape:window-width="2155"
     inkscape:window-height="1262"
     inkscape:window-x="138"
     inkscape:window-y="-11"
     inkscape:window-maximized="1" />
  <metadata
     id="metadata5">
    <rdf:RDF>
      <cc:Work
         rdf:about="">
        <dc:format>image/svg+xml</dc:format>
        <dc:type
           rdf:resource="http://purl.org/dc/dcmitype/StillImage" />
        <dc:title />
      </cc:Work>
    </rdf:RDF>
  </metadata>
  <g
     inkscape:label="Layer 1"
     inkscape:groupmode="layer"
     id="layer1"
     transform="translate(166.69429,61.014926)">
    <path
       style="fill:#296c92;fill-opacity:1;stroke:#ffffff;stroke-width:1.99549;stroke-linecap:round;stroke-linejoin:round;stroke-miterlimit:4;stroke-dasharray:none;stroke-dashoffset:0;stroke-opacity:1"
       d="m 20.154808,23.451977 -46.171321,4.852722 a 46.759613,46.759651 83.999991 0 1 -2.066666,19.326428 l 44.187611,14.357609 a 93.185476,93.185524 83.999991 0 0 4.050376,-38.536759 z"
       id="path884-6-8-0-8-14"
       inkscape:connector-curvature="0" />
    <path
       style="fill:#296c92;fill-opacity:1;stroke:#ffffff;stroke-width:1.99549;stroke-linecap:round;stroke-linejoin:round;stroke-miterlimit:4;stroke-dasharray:none;stroke-dashoffset:0;stroke-opacity:1"
       d="m -17.731794,-42.20561 -27.288398,37.5590389 a 46.759614,46.759651 35.999991 0 1 12.97946,14.4677483 L 8.1963547,-13.409476 A 93.185477,93.185525 35.999991 0 0 -17.731794,-42.20561 Z"
       id="path884-6-8-0-8-8-4"
       inkscape:connector-curvature="0" />
    <path
       style="fill:#bfd3de;fill-opacity:1;stroke:#ffffff;stroke-width:1.99549;stroke-linecap:round;stroke-linejoin:round;stroke-miterlimit:4;stroke-dasharray:none;stroke-dashoffset:0;stroke-opacity:1"
       d="M 8.1807091,-13.400544 -32.025111,9.8122008 a 46.759614,46.759651 59.999991 0 1 5.972759,18.4961732 L 20.154789,23.451983 A 93.185477,93.185525 59.999991 0 0 8.1806901,-13.400537 Z"
       id="path884-6-8-0-8-7-5"
       inkscape:connector-curvature="0" />
    <path
       style="fill:#296c92;fill-opacity:1;stroke:#ffffff;stroke-width:1.99549;stroke-linecap:round;stroke-linejoin:round;stroke-miterlimit:4;stroke-dasharray:none;stroke-dashoffset:0;stroke-opacity:1"
       d="m -53.120155,-57.980798 -9.652557,45.411039 a 46.759614,46.759651 11.999991 0 1 17.741907,7.9377712 l 27.309617,-37.5881932 a 93.185477,93.185525 11.999991 0 0 -35.398967,-15.760617 z"
       id="path884-6-8-0-8-84-3"
       inkscape:connector-curvature="0" />
    <path
       style="fill:#296c92;fill-opacity:1;stroke:#ffffff;stroke-width:1.99549;stroke-linecap:round;stroke-linejoin:round;stroke-miterlimit:4;stroke-dasharray:none;stroke-dashoffset:0;stroke-opacity:1"
       d="m -91.869203,-57.980846 9.652381,45.411224 a 46.759651,46.759614 77.999991 0 1 19.436584,0.03518 l 9.660083,-45.446353 a 93.185525,93.185477 77.999991 0 0 -38.749048,-4.8e-5 z"
       id="path884-6-8-0-8-76-3"
       inkscape:connector-curvature="0" />
    <path
       style="fill:#296c92;fill-opacity:1;stroke:#ffffff;stroke-width:1.99549;stroke-linecap:round;stroke-linejoin:round;stroke-miterlimit:4;stroke-dasharray:none;stroke-dashoffset:0;stroke-opacity:1"
       d="m -127.26819,-42.220207 27.288216,37.5591431 a 46.759651,46.759614 53.999991 0 1 17.770432,-7.8735961 l -9.659742,-45.44637 a 93.185525,93.185477 53.999991 0 0 -35.398996,15.760642 z"
       id="path884-6-8-0-8-81-9"
       inkscape:connector-curvature="0" />
    <path
       style="fill:#296c92;fill-opacity:1;stroke:#ffffff;stroke-width:1.99549;stroke-linecap:round;stroke-linejoin:round;stroke-miterlimit:4;stroke-dasharray:none;stroke-dashoffset:0;stroke-opacity:1"
       d="m -153.19637,-13.424107 40.20574,23.2129125 A 46.759651,46.759614 29.999991 0 1 -99.958847,-4.6318318 L -127.26819,-42.220207 a 93.185525,93.185477 29.999991 0 0 -25.92814,28.796192 z"
       id="path884-6-8-0-8-9-0"
       inkscape:connector-curvature="0" />
    <path
       style="fill:#296c92;fill-opacity:1;stroke:#ffffff;stroke-width:1.99549;stroke-linecap:round;stroke-linejoin:round;stroke-miterlimit:4;stroke-dasharray:none;stroke-dashoffset:0;stroke-opacity:1"
       d="m -165.18608,23.419323 46.1713,4.852901 a 46.759651,46.759614 5.999991 0 1 6.03974,-18.4743823 l -40.23692,-23.2309947 a 93.185525,93.185477 5.999991 0 0 -11.97408,36.852568 z"
       id="path884-6-8-0-8-2-1"
       inkscape:connector-curvature="0" />
    <path
       style="fill:#296c92;fill-opacity:1;stroke:#ffffff;stroke-width:1.99549;stroke-linecap:round;stroke-linejoin:round;stroke-miterlimit:4;stroke-dasharray:none;stroke-dashoffset:0;stroke-opacity:1"
       d="m -161.13568,61.956051 44.15346,-14.346191 a 46.759614,46.759651 71.999991 0 1 -1.99668,-19.333797 l -46.20714,-4.856752 a 93.185477,93.185525 71.999991 0 0 4.05037,38.536737 z"
       id="path884-6-8-0-8-6-0"
       inkscape:connector-curvature="0" />
    <path
       style="fill:#296c92;fill-opacity:1;stroke:#ffffff;stroke-width:1.99549;stroke-linecap:round;stroke-linejoin:round;stroke-miterlimit:4;stroke-dasharray:none;stroke-dashoffset:0;stroke-opacity:1"
       d="m -141.77831,95.519246 34.50103,-31.064762 a 46.759614,46.759651 47.999991 0 1 -9.6878,-16.85017 l -44.18773,14.357293 a 93.185477,93.185525 47.999991 0 0 19.37452,33.557633 z"
       id="path884-6-8-0-8-1-5"
       inkscape:connector-curvature="0" />
    <path
       style="fill:#296c92;fill-opacity:1;stroke:#ffffff;stroke-width:1.99549;stroke-linecap:round;stroke-linejoin:round;stroke-miterlimit:4;stroke-dasharray:none;stroke-dashoffset:0;stroke-opacity:1"
       d="M -110.44311,118.30739 -91.560032,75.895479 A 46.759614,46.759651 23.999991 0 1 -107.26387,64.44247 l -34.52786,31.088802 a 93.185477,93.185525 23.999991 0 0 31.34861,22.776108 z"
       id="path884-6-8-0-8-64-5"
       inkscape:connector-curvature="0" />
    <path
       style="fill:#296c92;fill-opacity:1;stroke:#ffffff;stroke-width:1.99549;stroke-linecap:round;stroke-linejoin:round;stroke-miterlimit:4;stroke-dasharray:none;stroke-dashoffset:0;stroke-opacity:1"
       d="m -72.548207,126.38021 7.7e-5,-46.425657 a 46.759651,46.759614 89.999991 0 1 -19.004532,-4.075516 l -18.897808,42.444793 a 93.185525,93.185477 89.999991 0 0 37.902259,8.05637 z"
       id="path884-6-8-0-8-3-2"
       inkscape:connector-curvature="0" />
    <path
       style="fill:#296c92;fill-opacity:1;stroke:#ffffff;stroke-width:1.99549;stroke-linecap:round;stroke-linejoin:round;stroke-miterlimit:4;stroke-dasharray:none;stroke-dashoffset:0;stroke-opacity:1"
       d="M -34.64597,118.34185 -53.528915,75.929881 a 46.759651,46.759614 65.999991 0 1 -19.01917,4.006657 l -1.71e-4,46.461672 a 93.185525,93.185477 65.999991 0 0 37.902286,-8.05636 z"
       id="path884-6-8-0-8-5-47"
       inkscape:connector-curvature="0" />
    <path
       style="fill:#296c92;fill-opacity:1;stroke:#ffffff;stroke-width:1.99549;stroke-linecap:round;stroke-linejoin:round;stroke-miterlimit:4;stroke-dasharray:none;stroke-dashoffset:0;stroke-opacity:1"
       d="M -3.2900469,95.58221 -37.790975,64.517341 a 46.759651,46.759614 41.999991 0 1 -15.745231,11.396056 l 18.897513,42.444923 A 93.185525,93.185477 41.999991 0 0 -3.2900469,95.58221 Z"
       id="path884-6-8-0-8-27-4"
       inkscape:connector-curvature="0" />
    <path
       style="fill:#296c92;fill-opacity:1;stroke:#ffffff;stroke-width:1.99549;stroke-linecap:round;stroke-linejoin:round;stroke-miterlimit:4;stroke-dasharray:none;stroke-dashoffset:0;stroke-opacity:1"
       d="m 16.104432,61.988736 -44.153403,-14.34637 a 46.759651,46.759614 17.999991 0 1 -9.748778,16.814971 L -3.2701085,95.546394 A 93.185525,93.185477 17.999991 0 0 16.104432,61.988736 Z"
       id="path884-6-8-0-8-38-1"
       inkscape:connector-curvature="0" />
  </g>
</svg>
