<?xml version="1.0" encoding="UTF-8" standalone="no"?>
<svg
   xmlns:dc="http://purl.org/dc/elements/1.1/"
   xmlns:cc="http://creativecommons.org/ns#"
   xmlns:rdf="http://www.w3.org/1999/02/22-rdf-syntax-ns#"
   xmlns:svg="http://www.w3.org/2000/svg"
   xmlns="http://www.w3.org/2000/svg"
   xmlns:sodipodi="http://sodipodi.sourceforge.net/DTD/sodipodi-0.dtd"
   xmlns:inkscape="http://www.inkscape.org/namespaces/inkscape"
   width="188.38725mm"
   height="188.37335mm"
   viewBox="0 0 188.38723 188.37337"
   version="1.1"
   id="svg8"
   inkscape:version="1.0.2 (e86c870879, 2021-01-15)"
   sodipodi:docname="14_5_blue.svg">
  <defs
     id="defs2" />
  <sodipodi:namedview
     id="base"
     pagecolor="#ffffff"
     bordercolor="#666666"
     borderopacity="1.0"
     inkscape:pageopacity="0.0"
     inkscape:pageshadow="2"
     inkscape:zoom="0.35"
     inkscape:cx="1123.6595"
     inkscape:cy="290.10777"
     inkscape:document-units="mm"
     inkscape:current-layer="layer1"
     inkscape:document-rotation="0"
     showgrid="false"
     inkscape:window-width="2155"
     inkscape:window-height="1262"
     inkscape:window-x="138"
     inkscape:window-y="-11"
     inkscape:window-maximized="1" />
  <metadata
     id="metadata5">
    <rdf:RDF>
      <cc:Work
         rdf:about="">
        <dc:format>image/svg+xml</dc:format>
        <dc:type
           rdf:resource="http://purl.org/dc/dcmitype/StillImage" />
        <dc:title />
      </cc:Work>
    </rdf:RDF>
  </metadata>
  <g
     inkscape:label="Layer 1"
     inkscape:groupmode="layer"
     id="layer1"
     transform="translate(191.46826,-71.40899)">
    <path
       style="fill:#296c92;fill-opacity:1;stroke:#ffffff;stroke-width:1.99549;stroke-linecap:round;stroke-linejoin:round;stroke-miterlimit:4;stroke-dasharray:none;stroke-dashoffset:0;stroke-opacity:1"
       d="m -28.031265,227.94298 -34.50092,-31.06488 a 46.759651,46.759613 41.999991 0 1 -15.745203,11.39607 l 18.897499,42.44491 a 93.185524,93.185476 41.999991 0 0 31.348624,-22.7761 z"
       id="path884-6-8-0-8-71"
       inkscape:connector-curvature="0" />
    <path
       style="fill:#296c92;fill-opacity:1;stroke:#ffffff;stroke-width:1.99549;stroke-linecap:round;stroke-linejoin:round;stroke-miterlimit:4;stroke-dasharray:none;stroke-dashoffset:0;stroke-opacity:1"
       d="m -4.5892541,155.85424 -46.1713079,4.85267 a 46.759614,46.759651 83.999991 0 1 -2.066678,19.32643 l 44.1876055,14.35765 a 93.185477,93.185525 83.999991 0 0 4.0503804,-38.53675 z"
       id="path884-6-8-0-8-8-46"
       inkscape:connector-curvature="0" />
    <path
       style="fill:#bfd3de;fill-opacity:1;stroke:#ffffff;stroke-width:1.99549;stroke-linecap:round;stroke-linejoin:round;stroke-miterlimit:4;stroke-dasharray:none;stroke-dashoffset:0;stroke-opacity:1"
       d="M -8.6567412,194.38534 -52.810117,180.03895 a 46.759651,46.759614 17.999991 0 1 -9.748779,16.81498 l 34.527614,31.08904 a 93.185525,93.185477 17.999991 0 0 19.3745235,-33.55764 z"
       id="path884-6-8-0-8-7-6"
       inkscape:connector-curvature="0" />
    <path
       style="fill:#296c92;fill-opacity:1;stroke:#ffffff;stroke-width:1.99549;stroke-linecap:round;stroke-linejoin:round;stroke-miterlimit:4;stroke-dasharray:none;stroke-dashoffset:0;stroke-opacity:1"
       d="m -16.54544,118.9999 -40.2058,23.21267 a 46.759614,46.759651 59.999991 0 1 5.972739,18.49621 l 46.2071722,-4.85641 A 93.185477,93.185525 59.999991 0 0 -16.54544,118.9999 Z"
       id="path884-6-8-0-8-84-2"
       inkscape:connector-curvature="0" />
    <path
       style="fill:#296c92;fill-opacity:1;stroke:#ffffff;stroke-width:1.99549;stroke-linecap:round;stroke-linejoin:round;stroke-miterlimit:4;stroke-dasharray:none;stroke-dashoffset:0;stroke-opacity:1"
       d="m -42.473579,90.203717 -27.288412,37.559153 a 46.759614,46.759651 35.999991 0 1 12.979472,14.46774 L -16.54544,118.9999 A 93.185477,93.185525 35.999991 0 0 -42.473579,90.203717 Z"
       id="path884-6-8-0-8-76-56"
       inkscape:connector-curvature="0" />
    <path
       style="fill:#296c92;fill-opacity:1;stroke:#ffffff;stroke-width:1.99549;stroke-linecap:round;stroke-linejoin:round;stroke-miterlimit:4;stroke-dasharray:none;stroke-dashoffset:0;stroke-opacity:1"
       d="m -77.87256,74.44307 -9.652504,45.41107 a 46.759614,46.759651 11.999991 0 1 17.741963,7.93754 l 27.309605,-37.588147 a 93.185477,93.185525 11.999991 0 0 -35.39899,-15.760651 z"
       id="path884-6-8-0-8-81-0"
       inkscape:connector-curvature="0" />
    <path
       style="fill:#296c92;fill-opacity:1;stroke:#ffffff;stroke-width:1.99549;stroke-linecap:round;stroke-linejoin:round;stroke-miterlimit:4;stroke-dasharray:none;stroke-dashoffset:0;stroke-opacity:1"
       d="m -116.62157,74.443028 9.65234,45.411162 a 46.759651,46.759614 77.999991 0 1 19.43658,0.0352 l 9.66009,-45.44633 a 93.185525,93.185477 77.999991 0 0 -38.74905,5e-5 z"
       id="path884-6-8-0-8-9-4"
       inkscape:connector-curvature="0" />
    <path
       style="fill:#296c92;fill-opacity:1;stroke:#ffffff;stroke-width:1.99549;stroke-linecap:round;stroke-linejoin:round;stroke-miterlimit:4;stroke-dasharray:none;stroke-dashoffset:0;stroke-opacity:1"
       d="m -152.02426,90.186003 27.28822,37.559187 a 46.759651,46.759614 53.999991 0 1 17.77052,-7.87337 l -9.65976,-45.446429 a 93.185525,93.185477 53.999991 0 0 -35.39902,15.760703 z"
       id="path884-6-8-0-8-2-3"
       inkscape:connector-curvature="0" />
    <path
       style="fill:#296c92;fill-opacity:1;stroke:#ffffff;stroke-width:1.99549;stroke-linecap:round;stroke-linejoin:round;stroke-miterlimit:4;stroke-dasharray:none;stroke-dashoffset:0;stroke-opacity:1"
       d="m -177.95238,118.98214 40.20573,23.21294 a 46.759651,46.759614 29.999991 0 1 13.03177,-14.42065 l -27.30935,-37.588407 a 93.185525,93.185477 29.999991 0 0 -25.92814,28.796127 z"
       id="path884-6-8-0-8-6-2"
       inkscape:connector-curvature="0" />
    <path
       style="fill:#296c92;fill-opacity:1;stroke:#ffffff;stroke-width:1.99549;stroke-linecap:round;stroke-linejoin:round;stroke-miterlimit:4;stroke-dasharray:none;stroke-dashoffset:0;stroke-opacity:1"
       d="m -189.94209,155.82563 46.17131,4.85288 a 46.759651,46.759614 5.999991 0 1 6.03971,-18.47441 l -40.2369,-23.23097 a 93.185525,93.185477 5.999991 0 0 -11.9741,36.85251 z"
       id="path884-6-8-0-8-1-2"
       inkscape:connector-curvature="0" />
    <path
       style="fill:#296c92;fill-opacity:1;stroke:#ffffff;stroke-width:1.99549;stroke-linecap:round;stroke-linejoin:round;stroke-miterlimit:4;stroke-dasharray:none;stroke-dashoffset:0;stroke-opacity:1"
       d="m -185.90964,194.36047 44.15344,-14.34625 a 46.759614,46.759651 71.999991 0 1 -1.99667,-19.33378 l -46.20714,-4.85674 a 93.185477,93.185525 71.999991 0 0 4.05037,38.53676 z"
       id="path884-6-8-0-8-64-2"
       inkscape:connector-curvature="0" />
    <path
       style="fill:#296c92;fill-opacity:1;stroke:#ffffff;stroke-width:1.99549;stroke-linecap:round;stroke-linejoin:round;stroke-miterlimit:4;stroke-dasharray:none;stroke-dashoffset:0;stroke-opacity:1"
       d="m -166.55227,227.92364 34.50103,-31.06477 a 46.759614,46.759651 47.999991 0 1 -9.68781,-16.85017 l -44.18773,14.35729 a 93.185477,93.185525 47.999991 0 0 19.37451,33.55764 z"
       id="path884-6-8-0-8-3-3"
       inkscape:connector-curvature="0" />
    <path
       style="fill:#296c92;fill-opacity:1;stroke:#ffffff;stroke-width:1.99549;stroke-linecap:round;stroke-linejoin:round;stroke-miterlimit:4;stroke-dasharray:none;stroke-dashoffset:0;stroke-opacity:1"
       d="m -135.21706,250.71178 18.88308,-42.41191 a 46.759614,46.759651 23.999991 0 1 -15.70384,-11.45302 l -34.52787,31.0888 a 93.185477,93.185525 23.999991 0 0 31.34863,22.77613 z"
       id="path884-6-8-0-8-5-42"
       inkscape:connector-curvature="0" />
    <path
       style="fill:#296c92;fill-opacity:1;stroke:#ffffff;stroke-width:1.99549;stroke-linecap:round;stroke-linejoin:round;stroke-miterlimit:4;stroke-dasharray:none;stroke-dashoffset:0;stroke-opacity:1"
       d="m -97.322144,258.7846 7e-5,-46.42564 a 46.759651,46.759614 89.999991 0 1 -19.004536,-4.07554 l -18.89782,42.44479 a 93.185525,93.185477 89.999991 0 0 37.902286,8.05639 z"
       id="path884-6-8-0-8-27-7"
       inkscape:connector-curvature="0" />
    <path
       style="fill:#296c92;fill-opacity:1;stroke:#ffffff;stroke-width:1.99549;stroke-linecap:round;stroke-linejoin:round;stroke-miterlimit:4;stroke-dasharray:none;stroke-dashoffset:0;stroke-opacity:1"
       d="m -59.379889,250.71908 -18.882963,-42.41196 a 46.759651,46.759614 65.999991 0 1 -19.019164,4.00665 l -1.71e-4,46.46168 a 93.185525,93.185477 65.999991 0 0 37.902298,-8.05637 z"
       id="path884-6-8-0-8-38-8"
       inkscape:connector-curvature="0" />
  </g>
</svg>
