<?xml version="1.0" encoding="UTF-8" standalone="no"?>
<svg
   xmlns:dc="http://purl.org/dc/elements/1.1/"
   xmlns:cc="http://creativecommons.org/ns#"
   xmlns:rdf="http://www.w3.org/1999/02/22-rdf-syntax-ns#"
   xmlns:svg="http://www.w3.org/2000/svg"
   xmlns="http://www.w3.org/2000/svg"
   xmlns:sodipodi="http://sodipodi.sourceforge.net/DTD/sodipodi-0.dtd"
   xmlns:inkscape="http://www.inkscape.org/namespaces/inkscape"
   width="188.40509mm"
   height="188.35396mm"
   viewBox="0 0 188.40507 188.35397"
   version="1.1"
   id="svg8"
   inkscape:version="1.0.2 (e86c870879, 2021-01-15)"
   sodipodi:docname="14_7_blue.svg">
  <defs
     id="defs2" />
  <sodipodi:namedview
     id="base"
     pagecolor="#ffffff"
     bordercolor="#666666"
     borderopacity="1.0"
     inkscape:pageopacity="0.0"
     inkscape:pageshadow="2"
     inkscape:zoom="0.35"
     inkscape:cx="1235.7476"
     inkscape:cy="816.30889"
     inkscape:document-units="mm"
     inkscape:current-layer="layer1"
     inkscape:document-rotation="0"
     showgrid="false"
     inkscape:window-width="2155"
     inkscape:window-height="1262"
     inkscape:window-x="138"
     inkscape:window-y="-11"
     inkscape:window-maximized="1" />
  <metadata
     id="metadata5">
    <rdf:RDF>
      <cc:Work
         rdf:about="">
        <dc:format>image/svg+xml</dc:format>
        <dc:type
           rdf:resource="http://purl.org/dc/dcmitype/StillImage" />
        <dc:title />
      </cc:Work>
    </rdf:RDF>
  </metadata>
  <g
     inkscape:label="Layer 1"
     inkscape:groupmode="layer"
     id="layer1"
     transform="translate(221.1249,67.815057)">
    <path
       style="fill:#296c92;fill-opacity:1;stroke:#ffffff;stroke-width:1.99549;stroke-linecap:round;stroke-linejoin:round;stroke-miterlimit:4;stroke-dasharray:none;stroke-dashoffset:0;stroke-opacity:1"
       d="m -126.92447,119.54116 8e-5,-46.425636 a 46.759651,46.759613 89.999991 0 1 -19.00453,-4.075505 l -18.89782,42.444771 a 93.185524,93.185476 89.999991 0 0 37.90227,8.05637 z"
       id="path884-6-8-0-8-761"
       inkscape:connector-curvature="0" />
    <path
       style="fill:#296c92;fill-opacity:1;stroke:#ffffff;stroke-width:1.99549;stroke-linecap:round;stroke-linejoin:round;stroke-miterlimit:4;stroke-dasharray:none;stroke-dashoffset:0;stroke-opacity:1"
       d="M -57.666335,88.725193 -92.167207,57.660295 a 46.759651,46.759614 41.999991 0 1 -15.745213,11.396066 l 18.897469,42.444929 a 93.185525,93.185477 41.999991 0 0 31.348616,-22.776097 z"
       id="path884-6-8-0-8-8-20"
       inkscape:connector-curvature="0" />
    <path
       style="fill:#bfd3de;fill-opacity:1;stroke:#ffffff;stroke-width:1.99549;stroke-linecap:round;stroke-linejoin:round;stroke-miterlimit:4;stroke-dasharray:none;stroke-dashoffset:0;stroke-opacity:1"
       d="M -89.022198,111.4848 -107.90513,69.072835 a 46.759651,46.759614 65.999991 0 1 -19.01917,4.006663 l -1.8e-4,46.461642 a 93.185525,93.185477 65.999991 0 0 37.902278,-8.05636 z"
       id="path884-6-8-0-8-7-30"
       inkscape:connector-curvature="0" />
    <path
       style="fill:#296c92;fill-opacity:1;stroke:#ffffff;stroke-width:1.99549;stroke-linecap:round;stroke-linejoin:round;stroke-miterlimit:4;stroke-dasharray:none;stroke-dashoffset:0;stroke-opacity:1"
       d="M -38.278474,55.17965 -82.431779,40.833224 a 46.759651,46.759614 17.999991 0 1 -9.748822,16.814992 l 34.527648,31.089049 A 93.185525,93.185477 17.999991 0 0 -38.278474,55.17965 Z"
       id="path884-6-8-0-8-84-30"
       inkscape:connector-curvature="0" />
    <path
       style="fill:#296c92;fill-opacity:1;stroke:#ffffff;stroke-width:1.99549;stroke-linecap:round;stroke-linejoin:round;stroke-miterlimit:4;stroke-dasharray:none;stroke-dashoffset:0;stroke-opacity:1"
       d="m -34.228048,16.642878 -46.171405,4.852739 a 46.759614,46.759651 83.999991 0 1 -2.06666,19.326431 l 44.187639,14.357602 a 93.185477,93.185525 83.999991 0 0 4.050426,-38.536772 z"
       id="path884-6-8-0-8-76-4"
       inkscape:connector-curvature="0" />
    <path
       style="fill:#296c92;fill-opacity:1;stroke:#ffffff;stroke-width:1.99549;stroke-linecap:round;stroke-linejoin:round;stroke-miterlimit:4;stroke-dasharray:none;stroke-dashoffset:0;stroke-opacity:1"
       d="M -46.202147,-20.209623 -86.407932,3.003104 a 46.759614,46.759651 59.999991 0 1 5.972948,18.496098 l 46.207127,-4.856385 a 93.185477,93.185525 59.999991 0 0 -11.9741,-36.852511 z"
       id="path884-6-8-0-8-81-6"
       inkscape:connector-curvature="0" />
    <path
       style="fill:#296c92;fill-opacity:1;stroke:#ffffff;stroke-width:1.99549;stroke-linecap:round;stroke-linejoin:round;stroke-miterlimit:4;stroke-dasharray:none;stroke-dashoffset:0;stroke-opacity:1"
       d="M -72.130266,-49.005779 -99.41866,-11.446696 A 46.759614,46.759651 35.999991 0 1 -86.439213,3.02106 l 40.237066,-23.230683 a 93.185477,93.185525 35.999991 0 0 -25.928214,-28.796125 z"
       id="path884-6-8-0-8-9-56"
       inkscape:connector-curvature="0" />
    <path
       style="fill:#296c92;fill-opacity:1;stroke:#ffffff;stroke-width:1.99549;stroke-linecap:round;stroke-linejoin:round;stroke-miterlimit:4;stroke-dasharray:none;stroke-dashoffset:0;stroke-opacity:1"
       d="m -107.5186,-64.780997 -9.65253,45.411106 a 46.759614,46.759651 11.999991 0 1 17.741854,7.93775 l 27.309636,-37.588195 a 93.185477,93.185525 11.999991 0 0 -35.39905,-15.76063 z"
       id="path884-6-8-0-8-2-9"
       inkscape:connector-curvature="0" />
    <path
       style="fill:#296c92;fill-opacity:1;stroke:#ffffff;stroke-width:1.99549;stroke-linecap:round;stroke-linejoin:round;stroke-miterlimit:4;stroke-dasharray:none;stroke-dashoffset:0;stroke-opacity:1"
       d="m -146.2676,-64.780966 9.65231,45.411165 a 46.759651,46.759614 77.999991 0 1 19.43659,0.03519 l 9.66011,-45.446352 a 93.185525,93.185477 77.999991 0 0 -38.74901,2e-6 z"
       id="path884-6-8-0-8-6-72"
       inkscape:connector-curvature="0" />
    <path
       style="fill:#296c92;fill-opacity:1;stroke:#ffffff;stroke-width:1.99549;stroke-linecap:round;stroke-linejoin:round;stroke-miterlimit:4;stroke-dasharray:none;stroke-dashoffset:0;stroke-opacity:1"
       d="m -181.67033,-49.037952 27.28825,37.559183 a 46.759651,46.759614 53.999991 0 1 17.77051,-7.873411 l -9.65976,-45.446404 a 93.185525,93.185477 53.999991 0 0 -35.39899,15.760651 z"
       id="path884-6-8-0-8-1-21"
       inkscape:connector-curvature="0" />
    <path
       style="fill:#296c92;fill-opacity:1;stroke:#ffffff;stroke-width:1.99549;stroke-linecap:round;stroke-linejoin:round;stroke-miterlimit:4;stroke-dasharray:none;stroke-dashoffset:0;stroke-opacity:1"
       d="m -207.60906,-20.256421 40.20576,23.2128901 a 46.759651,46.759614 29.999991 0 1 13.03176,-14.4206421 l -27.30935,-37.588383 a 93.185525,93.185477 29.999991 0 0 -25.92816,28.796133 z"
       id="path884-6-8-0-8-64-0"
       inkscape:connector-curvature="0" />
    <path
       style="fill:#296c92;fill-opacity:1;stroke:#ffffff;stroke-width:1.99549;stroke-linecap:round;stroke-linejoin:round;stroke-miterlimit:4;stroke-dasharray:none;stroke-dashoffset:0;stroke-opacity:1"
       d="m -219.59875,16.587053 46.17133,4.85288 a 46.759651,46.759614 5.999991 0 1 6.0397,-18.4744158 L -207.62464,-20.26546 a 93.185525,93.185477 5.999991 0 0 -11.9741,36.852511 z"
       id="path884-6-8-0-8-3-20"
       inkscape:connector-curvature="0" />
    <path
       style="fill:#296c92;fill-opacity:1;stroke:#ffffff;stroke-width:1.99549;stroke-linecap:round;stroke-linejoin:round;stroke-miterlimit:4;stroke-dasharray:none;stroke-dashoffset:0;stroke-opacity:1"
       d="m -215.56628,55.121896 44.15343,-14.346245 a 46.759614,46.759651 71.999991 0 1 -1.99666,-19.33379 l -46.20714,-4.856738 a 93.185477,93.185525 71.999991 0 0 4.05037,38.536773 z"
       id="path884-6-8-0-8-5-0"
       inkscape:connector-curvature="0" />
    <path
       style="fill:#296c92;fill-opacity:1;stroke:#ffffff;stroke-width:1.99549;stroke-linecap:round;stroke-linejoin:round;stroke-miterlimit:4;stroke-dasharray:none;stroke-dashoffset:0;stroke-opacity:1"
       d="m -196.20891,88.685078 34.50102,-31.064765 a 46.759614,46.759651 47.999991 0 1 -9.6878,-16.85019 l -44.18774,14.357288 a 93.185477,93.185525 47.999991 0 0 19.37452,33.557667 z"
       id="path884-6-8-0-8-27-69"
       inkscape:connector-curvature="0" />
    <path
       style="fill:#296c92;fill-opacity:1;stroke:#ffffff;stroke-width:1.99549;stroke-linecap:round;stroke-linejoin:round;stroke-miterlimit:4;stroke-dasharray:none;stroke-dashoffset:0;stroke-opacity:1"
       d="m -164.82674,111.48479 18.88306,-42.411926 a 46.759614,46.759651 23.999991 0 1 -15.70383,-11.453016 l -34.52787,31.088803 a 93.185477,93.185525 23.999991 0 0 31.34864,22.776139 z"
       id="path884-6-8-0-8-38-86"
       inkscape:connector-curvature="0" />
  </g>
</svg>
