<?xml version="1.0" encoding="UTF-8" standalone="no"?>
<svg
   xmlns:dc="http://purl.org/dc/elements/1.1/"
   xmlns:cc="http://creativecommons.org/ns#"
   xmlns:rdf="http://www.w3.org/1999/02/22-rdf-syntax-ns#"
   xmlns:svg="http://www.w3.org/2000/svg"
   xmlns="http://www.w3.org/2000/svg"
   xmlns:sodipodi="http://sodipodi.sourceforge.net/DTD/sodipodi-0.dtd"
   xmlns:inkscape="http://www.inkscape.org/namespaces/inkscape"
   width="188.39653mm"
   height="188.37807mm"
   viewBox="0 0 188.39651 188.37808"
   version="1.1"
   id="svg8"
   inkscape:version="1.0.2 (e86c870879, 2021-01-15)"
   sodipodi:docname="14_8_blue.svg">
  <defs
     id="defs2" />
  <sodipodi:namedview
     id="base"
     pagecolor="#ffffff"
     bordercolor="#666666"
     borderopacity="1.0"
     inkscape:pageopacity="0.0"
     inkscape:pageshadow="2"
     inkscape:zoom="0.35"
     inkscape:cx="1263.2011"
     inkscape:cy="638.0132"
     inkscape:document-units="mm"
     inkscape:current-layer="layer1"
     inkscape:document-rotation="0"
     showgrid="false"
     inkscape:window-width="2155"
     inkscape:window-height="1262"
     inkscape:window-x="138"
     inkscape:window-y="-11"
     inkscape:window-maximized="1" />
  <metadata
     id="metadata5">
    <rdf:RDF>
      <cc:Work
         rdf:about="">
        <dc:format>image/svg+xml</dc:format>
        <dc:type
           rdf:resource="http://purl.org/dc/dcmitype/StillImage" />
        <dc:title />
      </cc:Work>
    </rdf:RDF>
  </metadata>
  <g
     inkscape:label="Layer 1"
     inkscape:groupmode="layer"
     id="layer1"
     transform="translate(228.38865,20.640989)">
    <path
       style="fill:#296c92;fill-opacity:1;stroke:#ffffff;stroke-width:1.99549;stroke-linecap:round;stroke-linejoin:round;stroke-miterlimit:4;stroke-dasharray:none;stroke-dashoffset:0;stroke-opacity:1"
       d="m -172.08584,158.66493 18.88308,-42.4119 a 46.759613,46.759651 23.999991 0 1 -15.70385,-11.453 l -34.52786,31.08879 a 93.185476,93.185524 23.999991 0 0 31.34863,22.77611 z"
       id="path884-6-8-0-8-87"
       inkscape:connector-curvature="0" />
    <path
       style="fill:#296c92;fill-opacity:1;stroke:#ffffff;stroke-width:1.99549;stroke-linecap:round;stroke-linejoin:round;stroke-miterlimit:4;stroke-dasharray:none;stroke-dashoffset:0;stroke-opacity:1"
       d="m -96.281403,158.68296 -18.882887,-42.41197 a 46.759651,46.759614 65.999991 0 1 -19.01916,4.00667 l -2.1e-4,46.46167 a 93.185525,93.185477 65.999991 0 0 37.902257,-8.05637 z"
       id="path884-6-8-0-8-8-3"
       inkscape:connector-curvature="0" />
    <path
       style="fill:#bfd3de;fill-opacity:1;stroke:#ffffff;stroke-width:1.99549;stroke-linecap:round;stroke-linejoin:round;stroke-miterlimit:4;stroke-dasharray:none;stroke-dashoffset:0;stroke-opacity:1"
       d="m -134.18357,166.72131 8e-5,-46.42563 a 46.759651,46.759614 89.999991 0 1 -19.00454,-4.07553 l -18.89781,42.44476 a 93.185525,93.185477 89.999991 0 0 37.90227,8.05638 z"
       id="path884-6-8-0-8-7-4"
       inkscape:connector-curvature="0" />
    <path
       style="fill:#296c92;fill-opacity:1;stroke:#ffffff;stroke-width:1.99549;stroke-linecap:round;stroke-linejoin:round;stroke-miterlimit:4;stroke-dasharray:none;stroke-dashoffset:0;stroke-opacity:1"
       d="m -64.925509,135.92333 -34.500834,-31.06487 a 46.759651,46.759614 41.999991 0 1 -15.745267,11.39605 l 18.897523,42.44492 a 93.185525,93.185477 41.999991 0 0 31.348578,-22.7761 z"
       id="path884-6-8-0-8-84-5"
       inkscape:connector-curvature="0" />
    <path
       style="fill:#296c92;fill-opacity:1;stroke:#ffffff;stroke-width:1.99549;stroke-linecap:round;stroke-linejoin:round;stroke-miterlimit:4;stroke-dasharray:none;stroke-dashoffset:0;stroke-opacity:1"
       d="M -45.550943,102.3657 -89.704407,88.019293 a 46.759651,46.759614 17.999991 0 1 -9.748756,16.814987 l 34.527654,31.08905 a 93.185525,93.185477 17.999991 0 0 19.374566,-33.55763 z"
       id="path884-6-8-0-8-76-9"
       inkscape:connector-curvature="0" />
    <path
       style="fill:#296c92;fill-opacity:1;stroke:#ffffff;stroke-width:1.99549;stroke-linecap:round;stroke-linejoin:round;stroke-miterlimit:4;stroke-dasharray:none;stroke-dashoffset:0;stroke-opacity:1"
       d="m -41.500564,63.828959 -46.17128,4.852715 a 46.759614,46.759651 83.999991 0 1 -2.066481,19.326443 l 44.187581,14.357603 a 93.185477,93.185525 83.999991 0 0 4.050382,-38.536749 z"
       id="path884-6-8-0-8-81-57"
       inkscape:connector-curvature="0" />
    <path
       style="fill:#296c92;fill-opacity:1;stroke:#ffffff;stroke-width:1.99549;stroke-linecap:round;stroke-linejoin:round;stroke-miterlimit:4;stroke-dasharray:none;stroke-dashoffset:0;stroke-opacity:1"
       d="m -53.474628,26.976445 -40.205844,23.212739 a 46.759614,46.759651 59.999991 0 1 5.972749,18.49617 l 46.207159,-4.856395 A 93.185477,93.185525 59.999991 0 0 -53.474728,26.976434 Z"
       id="path884-6-8-0-8-9-42"
       inkscape:connector-curvature="0" />
    <path
       style="fill:#296c92;fill-opacity:1;stroke:#ffffff;stroke-width:1.99549;stroke-linecap:round;stroke-linejoin:round;stroke-miterlimit:4;stroke-dasharray:none;stroke-dashoffset:0;stroke-opacity:1"
       d="M -79.387119,-1.8286654 -106.67551,35.730406 a 46.759614,46.759651 35.999991 0 1 12.97942,14.467757 L -53.459,26.967468 A 93.185477,93.185525 35.999991 0 0 -79.387219,-1.8286764 Z"
       id="path884-6-8-0-8-2-56"
       inkscape:connector-curvature="0" />
    <path
       style="fill:#296c92;fill-opacity:1;stroke:#ffffff;stroke-width:1.99549;stroke-linecap:round;stroke-linejoin:round;stroke-miterlimit:4;stroke-dasharray:none;stroke-dashoffset:0;stroke-opacity:1"
       d="m -114.78611,-17.589276 -9.65256,45.411111 a 46.759614,46.759651 11.999991 0 1 17.7419,7.937726 L -79.387127,-1.8286263 A 93.185477,93.185525 11.999991 0 0 -114.78611,-17.589266 Z"
       id="path884-6-8-0-8-6-17"
       inkscape:connector-curvature="0" />
    <path
       style="fill:#296c92;fill-opacity:1;stroke:#ffffff;stroke-width:1.99549;stroke-linecap:round;stroke-linejoin:round;stroke-miterlimit:4;stroke-dasharray:none;stroke-dashoffset:0;stroke-opacity:1"
       d="m -153.53137,-17.606904 9.65236,45.411151 a 46.759651,46.759614 77.999991 0 1 19.43658,0.0352 l 9.66008,-45.446337 a 93.185525,93.185477 77.999991 0 0 -38.74902,6e-6 z"
       id="path884-6-8-0-8-1-02"
       inkscape:connector-curvature="0" />
    <path
       style="fill:#296c92;fill-opacity:1;stroke:#ffffff;stroke-width:1.99549;stroke-linecap:round;stroke-linejoin:round;stroke-miterlimit:4;stroke-dasharray:none;stroke-dashoffset:0;stroke-opacity:1"
       d="m -188.93408,-1.8638997 27.28825,37.5591857 a 46.759651,46.759614 53.999991 0 1 17.77052,-7.873416 l -9.65976,-45.44641 a 93.185525,93.185477 53.999991 0 0 -35.399,15.7606424 z"
       id="path884-6-8-0-8-64-43"
       inkscape:connector-curvature="0" />
    <path
       style="fill:#296c92;fill-opacity:1;stroke:#ffffff;stroke-width:1.99549;stroke-linecap:round;stroke-linejoin:round;stroke-miterlimit:4;stroke-dasharray:none;stroke-dashoffset:0;stroke-opacity:1"
       d="m -214.8728,26.917644 40.20576,23.212894 a 46.759651,46.759614 29.999991 0 1 13.03177,-14.420649 l -27.30936,-37.5883816 a 93.185525,93.185477 29.999991 0 0 -25.92816,28.7961386 z"
       id="path884-6-8-0-8-3-28"
       inkscape:connector-curvature="0" />
    <path
       style="fill:#296c92;fill-opacity:1;stroke:#ffffff;stroke-width:1.99549;stroke-linecap:round;stroke-linejoin:round;stroke-miterlimit:4;stroke-dasharray:none;stroke-dashoffset:0;stroke-opacity:1"
       d="m -226.86249,63.761125 46.17131,4.852872 a 46.759651,46.759614 5.999991 0 1 6.03972,-18.474412 l -40.23691,-23.230986 a 93.185525,93.185477 5.999991 0 0 -11.97412,36.852526 z"
       id="path884-6-8-0-8-5-8"
       inkscape:connector-curvature="0" />
    <path
       style="fill:#296c92;fill-opacity:1;stroke:#ffffff;stroke-width:1.99549;stroke-linecap:round;stroke-linejoin:round;stroke-miterlimit:4;stroke-dasharray:none;stroke-dashoffset:0;stroke-opacity:1"
       d="m -222.83003,102.29597 44.15343,-14.346246 a 46.759614,46.759651 71.999991 0 1 -1.99666,-19.333799 L -226.8804,63.75919 a 93.185477,93.185525 71.999991 0 0 4.05037,38.53678 z"
       id="path884-6-8-0-8-27-9"
       inkscape:connector-curvature="0" />
    <path
       style="fill:#296c92;fill-opacity:1;stroke:#ffffff;stroke-width:1.99549;stroke-linecap:round;stroke-linejoin:round;stroke-miterlimit:4;stroke-dasharray:none;stroke-dashoffset:0;stroke-opacity:1"
       d="m -203.43447,135.88882 34.50103,-31.06479 a 46.759614,46.759651 47.999991 0 1 -9.68781,-16.85017 l -44.18773,14.35728 a 93.185477,93.185525 47.999991 0 0 19.37451,33.55768 z"
       id="path884-6-8-0-8-38-9"
       inkscape:connector-curvature="0" />
  </g>
</svg>
