<?xml version="1.0" encoding="UTF-8" standalone="no"?>
<svg
   xmlns:dc="http://purl.org/dc/elements/1.1/"
   xmlns:cc="http://creativecommons.org/ns#"
   xmlns:rdf="http://www.w3.org/1999/02/22-rdf-syntax-ns#"
   xmlns:svg="http://www.w3.org/2000/svg"
   xmlns="http://www.w3.org/2000/svg"
   xmlns:sodipodi="http://sodipodi.sourceforge.net/DTD/sodipodi-0.dtd"
   xmlns:inkscape="http://www.inkscape.org/namespaces/inkscape"
   width="188.36058mm"
   height="188.40195mm"
   viewBox="0 0 188.36056 188.40196"
   version="1.1"
   id="svg8"
   inkscape:version="1.0.2 (e86c870879, 2021-01-15)"
   sodipodi:docname="14_9_blue.svg">
  <defs
     id="defs2" />
  <sodipodi:namedview
     id="base"
     pagecolor="#ffffff"
     bordercolor="#666666"
     borderopacity="1.0"
     inkscape:pageopacity="0.0"
     inkscape:pageshadow="2"
     inkscape:zoom="0.35"
     inkscape:cx="1319.1581"
     inkscape:cy="782.6198"
     inkscape:document-units="mm"
     inkscape:current-layer="layer1"
     inkscape:document-rotation="0"
     showgrid="false"
     inkscape:window-width="2155"
     inkscape:window-height="1262"
     inkscape:window-x="138"
     inkscape:window-y="-11"
     inkscape:window-maximized="1" />
  <metadata
     id="metadata5">
    <rdf:RDF>
      <cc:Work
         rdf:about="">
        <dc:format>image/svg+xml</dc:format>
        <dc:type
           rdf:resource="http://purl.org/dc/dcmitype/StillImage" />
        <dc:title />
      </cc:Work>
    </rdf:RDF>
  </metadata>
  <g
     inkscape:label="Layer 1"
     inkscape:groupmode="layer"
     id="layer1"
     transform="translate(243.19395,58.901485)">
    <path
       style="fill:#296c92;fill-opacity:1;stroke:#ffffff;stroke-width:1.99549;stroke-linecap:round;stroke-linejoin:round;stroke-miterlimit:4;stroke-dasharray:none;stroke-dashoffset:0;stroke-opacity:1"
       d="m -218.26082,97.635783 34.50103,-31.064756 a 46.759613,46.759651 47.999991 0 1 -9.68782,-16.850164 l -44.18772,14.357276 a 93.185476,93.185524 47.999991 0 0 19.37451,33.557644 z"
       id="path884-6-8-0-8-48"
       inkscape:connector-curvature="0" />
    <path
       style="fill:#296c92;fill-opacity:1;stroke:#ffffff;stroke-width:1.99549;stroke-linecap:round;stroke-linejoin:round;stroke-miterlimit:4;stroke-dasharray:none;stroke-dashoffset:0;stroke-opacity:1"
       d="m -149.01735,128.4847 1.3e-4,-46.425618 a 46.759651,46.759614 89.999991 0 1 -19.00453,-4.075519 l -18.89786,42.444757 a 93.185525,93.185477 89.999991 0 0 37.90226,8.05638 z"
       id="path884-6-8-0-8-8-01"
       inkscape:connector-curvature="0" />
    <path
       style="fill:#bfd3de;fill-opacity:1;stroke:#ffffff;stroke-width:1.99549;stroke-linecap:round;stroke-linejoin:round;stroke-miterlimit:4;stroke-dasharray:none;stroke-dashoffset:0;stroke-opacity:1"
       d="m -186.9122,120.4119 18.88309,-42.411893 a 46.759614,46.759651 23.999991 0 1 -15.70385,-11.453018 l -34.52784,31.088778 a 93.185477,93.185525 23.999991 0 0 31.34861,22.776113 z"
       id="path884-6-8-0-8-7-92"
       inkscape:connector-curvature="0" />
    <path
       style="fill:#296c92;fill-opacity:1;stroke:#ffffff;stroke-width:1.99549;stroke-linecap:round;stroke-linejoin:round;stroke-miterlimit:4;stroke-dasharray:none;stroke-dashoffset:0;stroke-opacity:1"
       d="M -111.11514,120.44634 -129.998,78.034407 a 46.759651,46.759614 65.999991 0 1 -19.01921,4.006639 l -1.6e-4,46.461674 a 93.185525,93.185477 65.999991 0 0 37.90223,-8.05638 z"
       id="path884-6-8-0-8-84-05"
       inkscape:connector-curvature="0" />
    <path
       style="fill:#296c92;fill-opacity:1;stroke:#ffffff;stroke-width:1.99549;stroke-linecap:round;stroke-linejoin:round;stroke-miterlimit:4;stroke-dasharray:none;stroke-dashoffset:0;stroke-opacity:1"
       d="M -79.766474,97.670259 -114.26746,66.605335 a 46.759651,46.759614 41.999991 0 1 -15.74521,11.396079 l 18.89753,42.444926 a 93.185525,93.185477 41.999991 0 0 31.348666,-22.776081 z"
       id="path884-6-8-0-8-76-22"
       inkscape:connector-curvature="0" />
    <path
       style="fill:#296c92;fill-opacity:1;stroke:#ffffff;stroke-width:1.99549;stroke-linecap:round;stroke-linejoin:round;stroke-miterlimit:4;stroke-dasharray:none;stroke-dashoffset:0;stroke-opacity:1"
       d="M -60.391965,64.112634 -104.5453,49.766258 a 46.759651,46.759614 17.999991 0 1 -9.7486,16.815071 l 34.527599,31.089031 a 93.185525,93.185477 17.999991 0 0 19.374516,-33.557633 z"
       id="path884-6-8-0-8-81-75"
       inkscape:connector-curvature="0" />
    <path
       style="fill:#296c92;fill-opacity:1;stroke:#ffffff;stroke-width:1.99549;stroke-linecap:round;stroke-linejoin:round;stroke-miterlimit:4;stroke-dasharray:none;stroke-dashoffset:0;stroke-opacity:1"
       d="m -56.341549,25.575897 -46.171341,4.852702 a 46.759614,46.759651 83.999991 0 1 -2.06669,19.326428 l 44.187615,14.357607 a 93.185477,93.185525 83.999991 0 0 4.05033,-38.536788 z"
       id="path884-6-8-0-8-9-1"
       inkscape:connector-curvature="0" />
    <path
       style="fill:#296c92;fill-opacity:1;stroke:#ffffff;stroke-width:1.99549;stroke-linecap:round;stroke-linejoin:round;stroke-miterlimit:4;stroke-dasharray:none;stroke-dashoffset:0;stroke-opacity:1"
       d="m -68.297693,-11.278441 -40.205837,23.212732 a 46.759614,46.759651 59.999991 0 1 5.97272,18.496158 l 46.20719,-4.856397 a 93.185477,93.185525 59.999991 0 0 -11.97416,-36.852543 z"
       id="path884-6-8-0-8-2-36"
       inkscape:connector-curvature="0" />
    <path
       style="fill:#296c92;fill-opacity:1;stroke:#ffffff;stroke-width:1.99549;stroke-linecap:round;stroke-linejoin:round;stroke-miterlimit:4;stroke-dasharray:none;stroke-dashoffset:0;stroke-opacity:1"
       d="m -94.225859,-40.07454 -27.288421,37.5590632 a 46.759614,46.759651 35.999991 0 1 12.97947,14.4677538 l 40.237094,-23.230685 a 93.185477,93.185525 35.999991 0 0 -25.928149,-28.796124 z"
       id="path884-6-8-0-8-6-69"
       inkscape:connector-curvature="0" />
    <path
       style="fill:#296c92;fill-opacity:1;stroke:#ffffff;stroke-width:1.99549;stroke-linecap:round;stroke-linejoin:round;stroke-miterlimit:4;stroke-dasharray:none;stroke-dashoffset:0;stroke-opacity:1"
       d="m -129.61425,-55.849762 -9.65251,45.411118 a 46.759614,46.759651 11.999991 0 1 17.74188,7.9377259 l 27.309615,-37.5881869 a 93.185477,93.185525 11.999991 0 0 -35.398995,-15.760641 z"
       id="path884-6-8-0-8-1-3"
       inkscape:connector-curvature="0" />
    <path
       style="fill:#296c92;fill-opacity:1;stroke:#ffffff;stroke-width:1.99549;stroke-linecap:round;stroke-linejoin:round;stroke-miterlimit:4;stroke-dasharray:none;stroke-dashoffset:0;stroke-opacity:1"
       d="m -168.35949,-55.867393 9.65236,45.411157 a 46.759651,46.759614 77.999991 0 1 19.43658,0.0352 l 9.66009,-45.44634 a 93.185525,93.185477 77.999991 0 0 -38.74902,-7e-6 z"
       id="path884-6-8-0-8-64-15"
       inkscape:connector-curvature="0" />
    <path
       style="fill:#296c92;fill-opacity:1;stroke:#ffffff;stroke-width:1.99549;stroke-linecap:round;stroke-linejoin:round;stroke-miterlimit:4;stroke-dasharray:none;stroke-dashoffset:0;stroke-opacity:1"
       d="m -203.7622,-40.124371 27.28826,37.5591899 a 46.759651,46.759614 53.999991 0 1 17.77051,-7.8734209 l -9.65977,-45.446414 a 93.185525,93.185477 53.999991 0 0 -35.39899,15.760651 z"
       id="path884-6-8-0-8-3-6"
       inkscape:connector-curvature="0" />
    <path
       style="fill:#296c92;fill-opacity:1;stroke:#ffffff;stroke-width:1.99549;stroke-linecap:round;stroke-linejoin:round;stroke-miterlimit:4;stroke-dasharray:none;stroke-dashoffset:0;stroke-opacity:1"
       d="m -229.70092,-11.342823 40.20575,23.212884 a 46.759651,46.759614 29.999991 0 1 13.03178,-14.4206406 l -27.30935,-37.5883864 a 93.185525,93.185477 29.999991 0 0 -25.92818,28.796143 z"
       id="path884-6-8-0-8-5-45"
       inkscape:connector-curvature="0" />
    <path
       style="fill:#296c92;fill-opacity:1;stroke:#ffffff;stroke-width:1.99549;stroke-linecap:round;stroke-linejoin:round;stroke-miterlimit:4;stroke-dasharray:none;stroke-dashoffset:0;stroke-opacity:1"
       d="m -241.69062,25.500659 46.17131,4.85287 a 46.759651,46.759614 5.999991 0 1 6.03973,-18.474418 l -40.23691,-23.230985 a 93.185525,93.185477 5.999991 0 0 -11.97413,36.852533 z"
       id="path884-6-8-0-8-27-42"
       inkscape:connector-curvature="0" />
    <path
       style="fill:#296c92;fill-opacity:1;stroke:#ffffff;stroke-width:1.99549;stroke-linecap:round;stroke-linejoin:round;stroke-miterlimit:4;stroke-dasharray:none;stroke-dashoffset:0;stroke-opacity:1"
       d="m -237.63533,64.078139 44.15344,-14.346262 a 46.759614,46.759651 71.999991 0 1 -1.99667,-19.333785 l -46.20713,-4.856738 a 93.185477,93.185525 71.999991 0 0 4.05036,38.536785 z"
       id="path884-6-8-0-8-38-98"
       inkscape:connector-curvature="0" />
  </g>
</svg>
