<?xml version="1.0" encoding="UTF-8" standalone="no"?>
<svg
   xmlns:dc="http://purl.org/dc/elements/1.1/"
   xmlns:cc="http://creativecommons.org/ns#"
   xmlns:rdf="http://www.w3.org/1999/02/22-rdf-syntax-ns#"
   xmlns:svg="http://www.w3.org/2000/svg"
   xmlns="http://www.w3.org/2000/svg"
   xmlns:sodipodi="http://sodipodi.sourceforge.net/DTD/sodipodi-0.dtd"
   xmlns:inkscape="http://www.inkscape.org/namespaces/inkscape"
   width="188.40364mm"
   height="188.36292mm"
   viewBox="0 0 188.40364 188.36292"
   version="1.1"
   id="svg914"
   sodipodi:docname="1_13_blue.svg"
   inkscape:version="1.0.2 (e86c870879, 2021-01-15)">
  <defs
     id="defs908" />
  <sodipodi:namedview
     id="base"
     pagecolor="#ffffff"
     bordercolor="#666666"
     borderopacity="1.0"
     inkscape:pageopacity="0.0"
     inkscape:pageshadow="2"
     inkscape:zoom="0.35"
     inkscape:cx="1318.8955"
     inkscape:cy="350.73647"
     inkscape:document-units="mm"
     inkscape:current-layer="layer1"
     inkscape:document-rotation="0"
     showgrid="false"
     inkscape:window-width="2304"
     inkscape:window-height="1195"
     inkscape:window-x="2293"
     inkscape:window-y="-11"
     inkscape:window-maximized="1" />
  <metadata
     id="metadata911">
    <rdf:RDF>
      <cc:Work
         rdf:about="">
        <dc:format>image/svg+xml</dc:format>
        <dc:type
           rdf:resource="http://purl.org/dc/dcmitype/StillImage" />
        <dc:title />
      </cc:Work>
    </rdf:RDF>
  </metadata>
  <g
     inkscape:label="Layer 1"
     inkscape:groupmode="layer"
     id="layer1"
     transform="translate(243.12444,-316.30068)">
    <path
       style="fill:#bfd3de;fill-opacity:1;stroke:#ffffff;stroke-width:1.99549;stroke-linecap:round;stroke-linejoin:round;stroke-miterlimit:4;stroke-dasharray:none;stroke-dashoffset:0;stroke-opacity:1"
       d="m -203.68778,335.10129 27.28822,37.55917 a 46.759651,46.759613 53.999991 0 1 17.77051,-7.87341 l -9.65975,-45.44641 a 93.185524,93.185476 53.999991 0 0 -35.39898,15.76065 z"
       id="path884-6-8-0-8"
       inkscape:connector-curvature="0" />
    <path
       style="fill:#bfd3de;fill-opacity:1;stroke:#ffffff;stroke-width:1.99549;stroke-linecap:round;stroke-linejoin:round;stroke-miterlimit:4;stroke-dasharray:none;stroke-dashoffset:0;stroke-opacity:1"
       d="m -241.60564,400.74085 46.1713,4.85293 a 46.759651,46.759614 5.999991 0 1 6.03969,-18.47443 l -40.23686,-23.23102 a 93.185525,93.185477 5.999991 0 0 -11.97413,36.85252 z"
       id="path884-6-8-0-8-8"
       inkscape:connector-curvature="0" />
    <path
       style="fill:#bfd3de;fill-opacity:1;stroke:#ffffff;stroke-width:1.99549;stroke-linecap:round;stroke-linejoin:round;stroke-miterlimit:4;stroke-dasharray:none;stroke-dashoffset:0;stroke-opacity:1"
       d="m -229.61597,363.89744 40.20574,23.21288 a 46.759651,46.759614 29.999991 0 1 13.03178,-14.42066 l -27.30934,-37.58835 a 93.185525,93.185477 29.999991 0 0 -25.92816,28.79615 z"
       id="path884-6-8-0-8-7"
       inkscape:connector-curvature="0" />
    <path
       style="fill:#bfd3de;fill-opacity:1;stroke:#ffffff;stroke-width:1.99549;stroke-linecap:round;stroke-linejoin:round;stroke-miterlimit:4;stroke-dasharray:none;stroke-dashoffset:0;stroke-opacity:1"
       d="m -237.57317,439.27568 44.1534,-14.34618 a 46.759614,46.759651 71.999991 0 1 -1.99671,-19.33381 l -46.20711,-4.85675 a 93.185477,93.185525 71.999991 0 0 4.05038,38.53671 z"
       id="path884-6-8-0-8-84"
       inkscape:connector-curvature="0" />
    <path
       style="fill:#bfd3de;fill-opacity:1;stroke:#ffffff;stroke-width:1.99549;stroke-linecap:round;stroke-linejoin:round;stroke-miterlimit:4;stroke-dasharray:none;stroke-dashoffset:0;stroke-opacity:1"
       d="m -218.19868,472.83334 34.50107,-31.06481 a 46.759614,46.759651 47.999991 0 1 -9.6878,-16.85018 l -44.18772,14.35729 a 93.185477,93.185525 47.999991 0 0 19.37448,33.55769 z"
       id="path884-6-8-0-8-76"
       inkscape:connector-curvature="0" />
    <path
       style="fill:#bfd3de;fill-opacity:1;stroke:#ffffff;stroke-width:1.99549;stroke-linecap:round;stroke-linejoin:round;stroke-miterlimit:4;stroke-dasharray:none;stroke-dashoffset:0;stroke-opacity:1"
       d="m -186.85008,495.60944 18.88306,-42.41185 a 46.759614,46.759651 23.999991 0 1 -15.70394,-11.45285 l -34.52784,31.08876 a 93.185477,93.185525 23.999991 0 0 31.34861,22.7761 z"
       id="path884-6-8-0-8-81"
       inkscape:connector-curvature="0" />
    <path
       style="fill:#bfd3de;fill-opacity:1;stroke:#ffffff;stroke-width:1.99549;stroke-linecap:round;stroke-linejoin:round;stroke-miterlimit:4;stroke-dasharray:none;stroke-dashoffset:0;stroke-opacity:1"
       d="m -148.94783,503.66585 1e-4,-46.42564 a 46.759651,46.759614 89.999991 0 1 -19.00453,-4.07552 l -18.89781,42.44478 a 93.185525,93.185477 89.999991 0 0 37.90227,8.05633 z"
       id="path884-6-8-0-8-9"
       inkscape:connector-curvature="0" />
    <path
       style="fill:#bfd3de;fill-opacity:1;stroke:#ffffff;stroke-width:1.99549;stroke-linecap:round;stroke-linejoin:round;stroke-miterlimit:4;stroke-dasharray:none;stroke-dashoffset:0;stroke-opacity:1"
       d="m -111.04563,495.62753 -18.88292,-42.41199 a 46.759651,46.759614 65.999991 0 1 -19.01916,4.00667 l -1.7e-4,46.4617 a 93.185525,93.185477 65.999991 0 0 37.9023,-8.05642 z"
       id="path884-6-8-0-8-2"
       inkscape:connector-curvature="0" />
    <path
       style="fill:#bfd3de;fill-opacity:1;stroke:#ffffff;stroke-width:1.99549;stroke-linecap:round;stroke-linejoin:round;stroke-miterlimit:4;stroke-dasharray:none;stroke-dashoffset:0;stroke-opacity:1"
       d="m -79.697048,472.85141 -34.500902,-31.0649 a 46.759651,46.759614 41.999991 0 1 -15.74522,11.39605 l 18.89749,42.44494 a 93.185525,93.185477 41.999991 0 0 31.348616,-22.77609 z"
       id="path884-6-8-0-8-6"
       inkscape:connector-curvature="0" />
    <path
       style="fill:#bfd3de;fill-opacity:1;stroke:#ffffff;stroke-width:1.99549;stroke-linecap:round;stroke-linejoin:round;stroke-miterlimit:4;stroke-dasharray:none;stroke-dashoffset:0;stroke-opacity:1"
       d="m -60.309163,439.30586 -44.153387,-14.34638 a 46.759651,46.759614 17.999991 0 1 -9.74876,16.81495 l 34.527631,31.08906 a 93.185525,93.185477 17.999991 0 0 19.374494,-33.55766 z"
       id="path884-6-8-0-8-1"
       inkscape:connector-curvature="0" />
    <path
       style="fill:#296c92;fill-opacity:1;stroke:#ffffff;stroke-width:1.99549;stroke-linecap:round;stroke-linejoin:round;stroke-miterlimit:4;stroke-dasharray:none;stroke-dashoffset:0;stroke-opacity:1"
       d="m -56.241625,400.77471 -46.171335,4.85274 a 46.759614,46.759651 83.999991 0 1 -2.06669,19.32641 l 44.187608,14.35761 a 93.185477,93.185525 83.999991 0 0 4.050384,-38.53675 z"
       id="path884-6-8-0-8-64"
       inkscape:connector-curvature="0" />
    <path
       style="fill:#bfd3de;fill-opacity:1;stroke:#ffffff;stroke-width:1.99549;stroke-linecap:round;stroke-linejoin:round;stroke-miterlimit:4;stroke-dasharray:none;stroke-dashoffset:0;stroke-opacity:1"
       d="m -68.197826,363.92033 -40.205844,23.21276 a 46.759614,46.759651 59.999991 0 1 5.97277,18.49618 l 46.207159,-4.8564 a 93.185477,93.185525 59.999991 0 0 -11.974108,-36.85252 z"
       id="path884-6-8-0-8-3"
       inkscape:connector-curvature="0" />
    <path
       style="fill:#bfd3de;fill-opacity:1;stroke:#ffffff;stroke-width:1.99549;stroke-linecap:round;stroke-linejoin:round;stroke-miterlimit:4;stroke-dasharray:none;stroke-dashoffset:0;stroke-opacity:1"
       d="m -94.110367,335.11523 -27.288373,37.5591 a 46.759614,46.759651 35.999991 0 1 12.97945,14.46774 L -68.1822,363.9114 a 93.185477,93.185525 35.999991 0 0 -25.928167,-28.79617 z"
       id="path884-6-8-0-8-5"
       inkscape:connector-curvature="0" />
    <path
       style="fill:#bfd3de;fill-opacity:1;stroke:#ffffff;stroke-width:1.99549;stroke-linecap:round;stroke-linejoin:round;stroke-miterlimit:4;stroke-dasharray:none;stroke-dashoffset:0;stroke-opacity:1"
       d="m -129.49875,319.34002 -9.65252,45.41111 a 46.759614,46.759651 11.999991 0 1 17.74189,7.93773 l 27.309638,-37.58818 a 93.185477,93.185525 11.999991 0 0 -35.398998,-15.76067 z"
       id="path884-6-8-0-8-27"
       inkscape:connector-curvature="0" />
    <path
       style="fill:#bfd3de;fill-opacity:1;stroke:#ffffff;stroke-width:1.99549;stroke-linecap:round;stroke-linejoin:round;stroke-miterlimit:4;stroke-dasharray:none;stroke-dashoffset:0;stroke-opacity:1"
       d="m -168.2888,319.34064 9.65237,45.41114 a 46.759651,46.759614 77.999991 0 1 19.43659,0.0352 l 9.6601,-45.44636 a 93.185525,93.185477 77.999991 0 0 -38.74906,-2e-5 z"
       id="path884-6-8-0-8-38"
       inkscape:connector-curvature="0" />
  </g>
</svg>
