<?xml version="1.0" encoding="UTF-8" standalone="no"?>
<svg
   xmlns:dc="http://purl.org/dc/elements/1.1/"
   xmlns:cc="http://creativecommons.org/ns#"
   xmlns:rdf="http://www.w3.org/1999/02/22-rdf-syntax-ns#"
   xmlns:svg="http://www.w3.org/2000/svg"
   xmlns="http://www.w3.org/2000/svg"
   xmlns:sodipodi="http://sodipodi.sourceforge.net/DTD/sodipodi-0.dtd"
   xmlns:inkscape="http://www.inkscape.org/namespaces/inkscape"
   width="188.40364mm"
   height="188.36292mm"
   viewBox="0 0 188.40364 188.36292"
   version="1.1"
   id="svg914"
   sodipodi:docname="2_9_blue.svg"
   inkscape:version="1.0.2 (e86c870879, 2021-01-15)">
  <defs
     id="defs908" />
  <sodipodi:namedview
     id="base"
     pagecolor="#ffffff"
     bordercolor="#666666"
     borderopacity="1.0"
     inkscape:pageopacity="0.0"
     inkscape:pageshadow="2"
     inkscape:zoom="0.35"
     inkscape:cx="1318.8955"
     inkscape:cy="350.73647"
     inkscape:document-units="mm"
     inkscape:current-layer="layer1"
     inkscape:document-rotation="0"
     showgrid="false"
     inkscape:window-width="1774"
     inkscape:window-height="1024"
     inkscape:window-x="2449"
     inkscape:window-y="226"
     inkscape:window-maximized="0" />
  <metadata
     id="metadata911">
    <rdf:RDF>
      <cc:Work
         rdf:about="">
        <dc:format>image/svg+xml</dc:format>
        <dc:type
           rdf:resource="http://purl.org/dc/dcmitype/StillImage" />
        <dc:title></dc:title>
      </cc:Work>
    </rdf:RDF>
  </metadata>
  <g
     inkscape:label="Layer 1"
     inkscape:groupmode="layer"
     id="layer1"
     transform="translate(243.12444,-316.30068)">
    <path
       style="fill:#f8cdc7;fill-opacity:1;stroke:#ffffff;stroke-width:1.99549;stroke-linecap:round;stroke-linejoin:round;stroke-miterlimit:4;stroke-dasharray:none;stroke-dashoffset:0;stroke-opacity:1"
       d="m -218.17236,472.83067 34.50101,-31.06473 a 46.759613,46.759651 47.999991 0 1 -9.6878,-16.85017 l -44.18773,14.35728 a 93.185476,93.185524 47.999991 0 0 19.37452,33.55762 z"
       id="path884-6-8-0-8"
       inkscape:connector-curvature="0" />
    <path
       style="fill:#f8cdc7;fill-opacity:1;stroke:#ffffff;stroke-width:1.99549;stroke-linecap:round;stroke-linejoin:round;stroke-miterlimit:4;stroke-dasharray:none;stroke-dashoffset:0;stroke-opacity:1"
       d="m -148.92889,503.6796 1.2e-4,-46.42562 a 46.759651,46.759614 89.999991 0 1 -19.00453,-4.07551 l -18.89786,42.44475 a 93.185525,93.185477 89.999991 0 0 37.90227,8.05638 z"
       id="path884-6-8-0-8-8"
       inkscape:connector-curvature="0" />
    <path
       style="fill:#f8cdc7;fill-opacity:1;stroke:#ffffff;stroke-width:1.99549;stroke-linecap:round;stroke-linejoin:round;stroke-miterlimit:4;stroke-dasharray:none;stroke-dashoffset:0;stroke-opacity:1"
       d="m -186.82373,495.60681 18.88308,-42.4119 a 46.759614,46.759651 23.999991 0 1 -15.70386,-11.45302 l -34.52784,31.08879 a 93.185477,93.185525 23.999991 0 0 31.34863,22.77611 z"
       id="path884-6-8-0-8-7"
       inkscape:connector-curvature="0" />
    <path
       style="fill:#f8cdc7;fill-opacity:1;stroke:#ffffff;stroke-width:1.99549;stroke-linecap:round;stroke-linejoin:round;stroke-miterlimit:4;stroke-dasharray:none;stroke-dashoffset:0;stroke-opacity:1"
       d="m -111.02668,495.64124 -18.88286,-42.41193 a 46.759651,46.759614 65.999991 0 1 -19.01919,4.00669 l -1.8e-4,46.46166 a 93.185525,93.185477 65.999991 0 0 37.90222,-8.05638 z"
       id="path884-6-8-0-8-84"
       inkscape:connector-curvature="0" />
    <path
       style="fill:#f8cdc7;fill-opacity:1;stroke:#ffffff;stroke-width:1.99549;stroke-linecap:round;stroke-linejoin:round;stroke-miterlimit:4;stroke-dasharray:none;stroke-dashoffset:0;stroke-opacity:1"
       d="m -79.67802,472.86516 -34.50099,-31.06492 a 46.759651,46.759614 41.999991 0 1 -15.74521,11.39606 l 18.89752,42.44491 a 93.185525,93.185477 41.999991 0 0 31.348661,-22.77608 z"
       id="path884-6-8-0-8-76"
       inkscape:connector-curvature="0" />
    <path
       style="fill:#f8cdc7;fill-opacity:1;stroke:#ffffff;stroke-width:1.99549;stroke-linecap:round;stroke-linejoin:round;stroke-miterlimit:4;stroke-dasharray:none;stroke-dashoffset:0;stroke-opacity:1"
       d="m -60.303515,439.30754 -44.153335,-14.34637 a 46.759651,46.759614 17.999991 0 1 -9.74859,16.81506 l 34.527587,31.08904 a 93.185525,93.185477 17.999991 0 0 19.374515,-33.55763 z"
       id="path884-6-8-0-8-81"
       inkscape:connector-curvature="0" />
    <path
       style="fill:#f8cdc7;fill-opacity:1;stroke:#ffffff;stroke-width:1.99549;stroke-linecap:round;stroke-linejoin:round;stroke-miterlimit:4;stroke-dasharray:none;stroke-dashoffset:0;stroke-opacity:1"
       d="m -56.253096,400.7708 -46.171324,4.85271 a 46.759614,46.759651 83.999991 0 1 -2.06668,19.32642 l 44.187614,14.3576 a 93.185477,93.185525 83.999991 0 0 4.050324,-38.53676 z"
       id="path884-6-8-0-8-9"
       inkscape:connector-curvature="0" />
    <path
       style="fill:#f8cdc7;fill-opacity:1;stroke:#ffffff;stroke-width:1.99549;stroke-linecap:round;stroke-linejoin:round;stroke-miterlimit:4;stroke-dasharray:none;stroke-dashoffset:0;stroke-opacity:1"
       d="m -68.209243,363.91647 -40.205847,23.21273 a 46.759614,46.759651 59.999991 0 1 5.97276,18.49615 l 46.207197,-4.85639 a 93.185477,93.185525 59.999991 0 0 -11.974161,-36.85255 z"
       id="path884-6-8-0-8-2"
       inkscape:connector-curvature="0" />
    <path
       style="fill:#f8cdc7;fill-opacity:1;stroke:#ffffff;stroke-width:1.99549;stroke-linecap:round;stroke-linejoin:round;stroke-miterlimit:4;stroke-dasharray:none;stroke-dashoffset:0;stroke-opacity:1"
       d="m -94.137418,335.12036 -27.288392,37.55907 a 46.759614,46.759651 35.999991 0 1 12.97945,14.46775 l 40.237094,-23.23066 a 93.185477,93.185525 35.999991 0 0 -25.928151,-28.79614 z"
       id="path884-6-8-0-8-6"
       inkscape:connector-curvature="0" />
    <path
       style="fill:#f8cdc7;fill-opacity:1;stroke:#ffffff;stroke-width:1.99549;stroke-linecap:round;stroke-linejoin:round;stroke-miterlimit:4;stroke-dasharray:none;stroke-dashoffset:0;stroke-opacity:1"
       d="m -129.52579,319.34515 -9.6525,45.41111 a 46.759614,46.759651 11.999991 0 1 17.74187,7.93772 l 27.309618,-37.58817 a 93.185477,93.185525 11.999991 0 0 -35.399008,-15.76063 z"
       id="path884-6-8-0-8-1"
       inkscape:connector-curvature="0" />
    <path
       style="fill:#296c92;fill-opacity:1;stroke:#ffffff;stroke-width:1.99549;stroke-linecap:round;stroke-linejoin:round;stroke-miterlimit:4;stroke-dasharray:none;stroke-dashoffset:0;stroke-opacity:1"
       d="m -168.27103,319.32751 9.65238,45.41115 a 46.759651,46.759614 77.999991 0 1 19.43656,0.0352 l 9.66009,-45.44632 a 93.185525,93.185477 77.999991 0 0 -38.74902,-1e-5 z"
       id="path884-6-8-0-8-64"
       inkscape:connector-curvature="0" />
    <path
       style="fill:#296c92;fill-opacity:1;stroke:#ffffff;stroke-width:1.99549;stroke-linecap:round;stroke-linejoin:round;stroke-miterlimit:4;stroke-dasharray:none;stroke-dashoffset:0;stroke-opacity:1"
       d="m -203.67375,335.07054 27.28826,37.55919 a 46.759651,46.759614 53.999991 0 1 17.77052,-7.87343 l -9.65977,-45.44641 a 93.185525,93.185477 53.999991 0 0 -35.39899,15.76065 z"
       id="path884-6-8-0-8-3"
       inkscape:connector-curvature="0" />
    <path
       style="fill:#f8cdc7;fill-opacity:1;stroke:#ffffff;stroke-width:1.99549;stroke-linecap:round;stroke-linejoin:round;stroke-miterlimit:4;stroke-dasharray:none;stroke-dashoffset:0;stroke-opacity:1"
       d="m -229.61246,363.85207 40.20575,23.2129 a 46.759651,46.759614 29.999991 0 1 13.03178,-14.42064 l -27.30935,-37.5884 a 93.185525,93.185477 29.999991 0 0 -25.92818,28.79614 z"
       id="path884-6-8-0-8-5"
       inkscape:connector-curvature="0" />
    <path
       style="fill:#f8cdc7;fill-opacity:1;stroke:#ffffff;stroke-width:1.99549;stroke-linecap:round;stroke-linejoin:round;stroke-miterlimit:4;stroke-dasharray:none;stroke-dashoffset:0;stroke-opacity:1"
       d="m -241.60215,400.69556 46.1713,4.85288 a 46.759651,46.759614 5.999991 0 1 6.03973,-18.47441 l -40.23691,-23.23099 a 93.185525,93.185477 5.999991 0 0 -11.97412,36.85252 z"
       id="path884-6-8-0-8-27"
       inkscape:connector-curvature="0" />
    <path
       style="fill:#f8cdc7;fill-opacity:1;stroke:#ffffff;stroke-width:1.99549;stroke-linecap:round;stroke-linejoin:round;stroke-miterlimit:4;stroke-dasharray:none;stroke-dashoffset:0;stroke-opacity:1"
       d="m -237.54688,439.27305 44.15343,-14.34626 a 46.759614,46.759651 71.999991 0 1 -1.99664,-19.33379 l -46.20715,-4.85674 a 93.185477,93.185525 71.999991 0 0 4.05036,38.53679 z"
       id="path884-6-8-0-8-38"
       inkscape:connector-curvature="0" />
  </g>
</svg>
