<?xml version="1.0" encoding="UTF-8" standalone="no"?>
<svg
   xmlns:dc="http://purl.org/dc/elements/1.1/"
   xmlns:cc="http://creativecommons.org/ns#"
   xmlns:rdf="http://www.w3.org/1999/02/22-rdf-syntax-ns#"
   xmlns:svg="http://www.w3.org/2000/svg"
   xmlns="http://www.w3.org/2000/svg"
   xmlns:sodipodi="http://sodipodi.sourceforge.net/DTD/sodipodi-0.dtd"
   xmlns:inkscape="http://www.inkscape.org/namespaces/inkscape"
   width="188.40364mm"
   height="188.36292mm"
   viewBox="0 0 188.40364 188.36292"
   version="1.1"
   id="svg914"
   sodipodi:docname="3_1_blue.svg"
   inkscape:version="1.0.2 (e86c870879, 2021-01-15)">
  <defs
     id="defs908" />
  <sodipodi:namedview
     id="base"
     pagecolor="#ffffff"
     bordercolor="#666666"
     borderopacity="1.0"
     inkscape:pageopacity="0.0"
     inkscape:pageshadow="2"
     inkscape:zoom="0.35"
     inkscape:cx="1318.8955"
     inkscape:cy="350.73647"
     inkscape:document-units="mm"
     inkscape:current-layer="layer1"
     inkscape:document-rotation="0"
     showgrid="false"
     inkscape:window-width="2155"
     inkscape:window-height="1262"
     inkscape:window-x="138"
     inkscape:window-y="-11"
     inkscape:window-maximized="1" />
  <metadata
     id="metadata911">
    <rdf:RDF>
      <cc:Work
         rdf:about="">
        <dc:format>image/svg+xml</dc:format>
        <dc:type
           rdf:resource="http://purl.org/dc/dcmitype/StillImage" />
        <dc:title />
      </cc:Work>
    </rdf:RDF>
  </metadata>
  <g
     inkscape:label="Layer 1"
     inkscape:groupmode="layer"
     id="layer1"
     transform="translate(243.12444,-316.30068)">
    <path
       style="fill:#bfd3de;fill-opacity:1;stroke:#ffffff;stroke-width:1.99549;stroke-linecap:round;stroke-linejoin:round;stroke-miterlimit:4;stroke-dasharray:none;stroke-dashoffset:0;stroke-opacity:1"
       d="m -94.156255,335.09696 -27.288365,37.55908 a 46.759613,46.759651 35.999991 0 1 12.97946,14.46774 l 40.237068,-23.23068 a 93.185476,93.185524 35.999991 0 0 -25.928163,-28.79614 z"
       id="path884-6-8-0-8"
       inkscape:connector-curvature="0" />
    <path
       style="fill:#bfd3de;fill-opacity:1;stroke:#ffffff;stroke-width:1.99549;stroke-linecap:round;stroke-linejoin:round;stroke-miterlimit:4;stroke-dasharray:none;stroke-dashoffset:0;stroke-opacity:1"
       d="m -168.30044,319.31869 9.65231,45.41113 a 46.759651,46.759614 77.999991 0 1 19.43658,0.0352 l 9.66013,-45.44632 a 93.185525,93.185477 77.999991 0 0 -38.74902,-10e-6 z"
       id="path884-6-8-0-8-8"
       inkscape:connector-curvature="0" />
    <path
       style="fill:#bfd3de;fill-opacity:1;stroke:#ffffff;stroke-width:1.99549;stroke-linecap:round;stroke-linejoin:round;stroke-miterlimit:4;stroke-dasharray:none;stroke-dashoffset:0;stroke-opacity:1"
       d="m -129.55525,319.3363 -9.65252,45.4111 a 46.759614,46.759651 11.999991 0 1 17.7419,7.93773 l 27.309607,-37.58815 a 93.185477,93.185525 11.999991 0 0 -35.398997,-15.76066 z"
       id="path884-6-8-0-8-7"
       inkscape:connector-curvature="0" />
    <path
       style="fill:#bfd3de;fill-opacity:1;stroke:#ffffff;stroke-width:1.99549;stroke-linecap:round;stroke-linejoin:round;stroke-miterlimit:4;stroke-dasharray:none;stroke-dashoffset:0;stroke-opacity:1"
       d="m -203.70312,335.06171 27.28816,37.55916 a 46.759651,46.759614 53.999991 0 1 17.77056,-7.8734 l -9.65977,-45.44641 a 93.185525,93.185477 53.999991 0 0 -35.39895,15.76065 z"
       id="path884-6-8-0-8-84"
       inkscape:connector-curvature="0" />
    <path
       style="fill:#bfd3de;fill-opacity:1;stroke:#ffffff;stroke-width:1.99549;stroke-linecap:round;stroke-linejoin:round;stroke-miterlimit:4;stroke-dasharray:none;stroke-dashoffset:0;stroke-opacity:1"
       d="m -229.63133,363.85783 40.20582,23.21292 a 46.759651,46.759614 29.999991 0 1 13.03175,-14.42066 l -27.30936,-37.58838 a 93.185525,93.185477 29.999991 0 0 -25.92821,28.79612 z"
       id="path884-6-8-0-8-76"
       inkscape:connector-curvature="0" />
    <path
       style="fill:#bfd3de;fill-opacity:1;stroke:#ffffff;stroke-width:1.99549;stroke-linecap:round;stroke-linejoin:round;stroke-miterlimit:4;stroke-dasharray:none;stroke-dashoffset:0;stroke-opacity:1"
       d="m -241.60544,400.71033 46.17126,4.85287 a 46.759651,46.759614 5.999991 0 1 6.03952,-18.47446 l -40.23686,-23.23097 a 93.185525,93.185477 5.999991 0 0 -11.97411,36.8525 z"
       id="path884-6-8-0-8-81"
       inkscape:connector-curvature="0" />
    <path
       style="fill:#bfd3de;fill-opacity:1;stroke:#ffffff;stroke-width:1.99549;stroke-linecap:round;stroke-linejoin:round;stroke-miterlimit:4;stroke-dasharray:none;stroke-dashoffset:0;stroke-opacity:1"
       d="m -237.5551,439.24707 44.15344,-14.34622 a 46.759614,46.759651 71.999991 0 1 -1.99666,-19.33379 l -46.20712,-4.85673 a 93.185477,93.185525 71.999991 0 0 4.05043,38.53677 z"
       id="path884-6-8-0-8-9"
       inkscape:connector-curvature="0" />
    <path
       style="fill:#bfd3de;fill-opacity:1;stroke:#ffffff;stroke-width:1.99549;stroke-linecap:round;stroke-linejoin:round;stroke-miterlimit:4;stroke-dasharray:none;stroke-dashoffset:0;stroke-opacity:1"
       d="m -218.19778,472.81023 34.50104,-31.06474 a 46.759614,46.759651 47.999991 0 1 -9.68777,-16.85017 l -44.18775,14.35728 a 93.185477,93.185525 47.999991 0 0 19.37457,33.55766 z"
       id="path884-6-8-0-8-2"
       inkscape:connector-curvature="0" />
    <path
       style="fill:#bfd3de;fill-opacity:1;stroke:#ffffff;stroke-width:1.99549;stroke-linecap:round;stroke-linejoin:round;stroke-miterlimit:4;stroke-dasharray:none;stroke-dashoffset:0;stroke-opacity:1"
       d="m -186.84916,495.5863 18.88313,-42.41189 a 46.759614,46.759651 23.999991 0 1 -15.70385,-11.45302 l -34.52789,31.0888 a 93.185477,93.185525 23.999991 0 0 31.34861,22.7761 z"
       id="path884-6-8-0-8-6"
       inkscape:connector-curvature="0" />
    <path
       style="fill:#296c92;fill-opacity:1;stroke:#ffffff;stroke-width:1.99549;stroke-linecap:round;stroke-linejoin:round;stroke-miterlimit:4;stroke-dasharray:none;stroke-dashoffset:0;stroke-opacity:1"
       d="m -148.95424,503.65913 7e-5,-46.42564 a 46.759651,46.759614 89.999991 0 1 -19.00452,-4.07553 l -18.89781,42.44479 a 93.185525,93.185477 89.999991 0 0 37.90226,8.05637 z"
       id="path884-6-8-0-8-1"
       inkscape:connector-curvature="0" />
    <path
       style="fill:#296c92;fill-opacity:1;stroke:#ffffff;stroke-width:1.99549;stroke-linecap:round;stroke-linejoin:round;stroke-miterlimit:4;stroke-dasharray:none;stroke-dashoffset:0;stroke-opacity:1"
       d="m -111.05201,495.62079 -18.88295,-42.41197 a 46.759651,46.759614 65.999991 0 1 -19.01916,4.00666 l -1.7e-4,46.46167 a 93.185525,93.185477 65.999991 0 0 37.90227,-8.05636 z"
       id="path884-6-8-0-8-64"
       inkscape:connector-curvature="0" />
    <path
       style="fill:#296c92;fill-opacity:1;stroke:#ffffff;stroke-width:1.99549;stroke-linecap:round;stroke-linejoin:round;stroke-miterlimit:4;stroke-dasharray:none;stroke-dashoffset:0;stroke-opacity:1"
       d="m -79.696098,472.86115 -34.500932,-31.06488 a 46.759651,46.759614 41.999991 0 1 -15.74521,11.39607 l 18.89752,42.44492 a 93.185525,93.185477 41.999991 0 0 31.348613,-22.77611 z"
       id="path884-6-8-0-8-3"
       inkscape:connector-curvature="0" />
    <path
       style="fill:#bfd3de;fill-opacity:1;stroke:#ffffff;stroke-width:1.99549;stroke-linecap:round;stroke-linejoin:round;stroke-miterlimit:4;stroke-dasharray:none;stroke-dashoffset:0;stroke-opacity:1"
       d="m -60.308218,439.31559 -44.153392,-14.34638 a 46.759651,46.759614 17.999991 0 1 -9.74878,16.81497 l 34.527641,31.08906 a 93.185525,93.185477 17.999991 0 0 19.374531,-33.55765 z"
       id="path884-6-8-0-8-5"
       inkscape:connector-curvature="0" />
    <path
       style="fill:#bfd3de;fill-opacity:1;stroke:#ffffff;stroke-width:1.99549;stroke-linecap:round;stroke-linejoin:round;stroke-miterlimit:4;stroke-dasharray:none;stroke-dashoffset:0;stroke-opacity:1"
       d="m -56.240716,400.78443 -46.171324,4.85273 a 46.759614,46.759651 83.999991 0 1 -2.0667,19.32644 l 44.187635,14.35761 a 93.185477,93.185525 83.999991 0 0 4.050389,-38.53678 z"
       id="path884-6-8-0-8-27"
       inkscape:connector-curvature="0" />
    <path
       style="fill:#bfd3de;fill-opacity:1;stroke:#ffffff;stroke-width:1.99549;stroke-linecap:round;stroke-linejoin:round;stroke-miterlimit:4;stroke-dasharray:none;stroke-dashoffset:0;stroke-opacity:1"
       d="m -68.228092,363.8931 -40.205828,23.21278 a 46.759614,46.759651 59.999991 0 1 5.97276,18.49616 l 46.207169,-4.85639 A 93.185477,93.185525 59.999991 0 0 -68.228092,363.8931 Z"
       id="path884-6-8-0-8-38"
       inkscape:connector-curvature="0" />
  </g>
</svg>
