<?xml version="1.0" encoding="UTF-8" standalone="no"?>
<svg
   xmlns:dc="http://purl.org/dc/elements/1.1/"
   xmlns:cc="http://creativecommons.org/ns#"
   xmlns:rdf="http://www.w3.org/1999/02/22-rdf-syntax-ns#"
   xmlns:svg="http://www.w3.org/2000/svg"
   xmlns="http://www.w3.org/2000/svg"
   xmlns:sodipodi="http://sodipodi.sourceforge.net/DTD/sodipodi-0.dtd"
   xmlns:inkscape="http://www.inkscape.org/namespaces/inkscape"
   width="188.40364mm"
   height="188.36292mm"
   viewBox="0 0 188.40364 188.36292"
   version="1.1"
   id="svg914"
   sodipodi:docname="4_5_blue.svg"
   inkscape:version="1.0.2 (e86c870879, 2021-01-15)">
  <defs
     id="defs908" />
  <sodipodi:namedview
     id="base"
     pagecolor="#ffffff"
     bordercolor="#666666"
     borderopacity="1.0"
     inkscape:pageopacity="0.0"
     inkscape:pageshadow="2"
     inkscape:zoom="0.35"
     inkscape:cx="1318.8955"
     inkscape:cy="350.73647"
     inkscape:document-units="mm"
     inkscape:current-layer="layer1"
     inkscape:document-rotation="0"
     showgrid="false"
     inkscape:window-width="1774"
     inkscape:window-height="1024"
     inkscape:window-x="2449"
     inkscape:window-y="226"
     inkscape:window-maximized="0" />
  <metadata
     id="metadata911">
    <rdf:RDF>
      <cc:Work
         rdf:about="">
        <dc:format>image/svg+xml</dc:format>
        <dc:type
           rdf:resource="http://purl.org/dc/dcmitype/StillImage" />
        <dc:title></dc:title>
      </cc:Work>
    </rdf:RDF>
  </metadata>
  <g
     inkscape:label="Layer 1"
     inkscape:groupmode="layer"
     id="layer1"
     transform="translate(243.12444,-316.30068)">
    <path
       style="fill:#f8cdc7;fill-opacity:1;stroke:#ffffff;stroke-width:1.99549;stroke-linecap:round;stroke-linejoin:round;stroke-miterlimit:4;stroke-dasharray:none;stroke-dashoffset:0;stroke-opacity:1"
       d="M -79.682523,472.83377 -114.18343,441.7689 a 46.759651,46.759613 41.999991 0 1 -15.7452,11.39607 l 18.89749,42.44491 a 93.185524,93.185476 41.999991 0 0 31.348617,-22.77611 z"
       id="path884-6-8-0-8"
       inkscape:connector-curvature="0" />
    <path
       style="fill:#f8cdc7;fill-opacity:1;stroke:#ffffff;stroke-width:1.99549;stroke-linecap:round;stroke-linejoin:round;stroke-miterlimit:4;stroke-dasharray:none;stroke-dashoffset:0;stroke-opacity:1"
       d="m -56.240504,400.74503 -46.171296,4.85268 a 46.759614,46.759651 83.999991 0 1 -2.06669,19.32643 l 44.187603,14.35764 a 93.185477,93.185525 83.999991 0 0 4.050383,-38.53675 z"
       id="path884-6-8-0-8-8"
       inkscape:connector-curvature="0" />
    <path
       style="fill:#f8cdc7;fill-opacity:1;stroke:#ffffff;stroke-width:1.99549;stroke-linecap:round;stroke-linejoin:round;stroke-miterlimit:4;stroke-dasharray:none;stroke-dashoffset:0;stroke-opacity:1"
       d="m -60.307989,439.27612 -44.153371,-14.34639 a 46.759651,46.759614 17.999991 0 1 -9.74879,16.81499 l 34.527617,31.08904 a 93.185525,93.185477 17.999991 0 0 19.374525,-33.55765 z"
       id="path884-6-8-0-8-7"
       inkscape:connector-curvature="0" />
    <path
       style="fill:#f8cdc7;fill-opacity:1;stroke:#ffffff;stroke-width:1.99549;stroke-linecap:round;stroke-linejoin:round;stroke-miterlimit:4;stroke-dasharray:none;stroke-dashoffset:0;stroke-opacity:1"
       d="m -68.196697,363.89069 -40.205793,23.21267 a 46.759614,46.759651 59.999991 0 1 5.97278,18.49619 l 46.207158,-4.85639 a 93.185477,93.185525 59.999991 0 0 -11.974109,-36.85247 z"
       id="path884-6-8-0-8-84"
       inkscape:connector-curvature="0" />
    <path
       style="fill:#f8cdc7;fill-opacity:1;stroke:#ffffff;stroke-width:1.99549;stroke-linecap:round;stroke-linejoin:round;stroke-miterlimit:4;stroke-dasharray:none;stroke-dashoffset:0;stroke-opacity:1"
       d="m -94.124827,335.09451 -27.288413,37.55916 a 46.759614,46.759651 35.999991 0 1 12.97945,14.46774 l 40.237066,-23.2307 a 93.185477,93.185525 35.999991 0 0 -25.928133,-28.79618 z"
       id="path884-6-8-0-8-76"
       inkscape:connector-curvature="0" />
    <path
       style="fill:#f8cdc7;fill-opacity:1;stroke:#ffffff;stroke-width:1.99549;stroke-linecap:round;stroke-linejoin:round;stroke-miterlimit:4;stroke-dasharray:none;stroke-dashoffset:0;stroke-opacity:1"
       d="m -129.52381,319.33386 -9.6525,45.41107 a 46.759614,46.759651 11.999991 0 1 17.74196,7.93754 l 27.309605,-37.58814 a 93.185477,93.185525 11.999991 0 0 -35.398975,-15.76065 z"
       id="path884-6-8-0-8-81"
       inkscape:connector-curvature="0" />
    <path
       style="fill:#f8cdc7;fill-opacity:1;stroke:#ffffff;stroke-width:1.99549;stroke-linecap:round;stroke-linejoin:round;stroke-miterlimit:4;stroke-dasharray:none;stroke-dashoffset:0;stroke-opacity:1"
       d="m -168.27282,319.33382 9.65235,45.41115 a 46.759651,46.759614 77.999991 0 1 19.43657,0.0352 l 9.66009,-45.44633 a 93.185525,93.185477 77.999991 0 0 -38.74904,5e-5 z"
       id="path884-6-8-0-8-9"
       inkscape:connector-curvature="0" />
    <path
       style="fill:#f8cdc7;fill-opacity:1;stroke:#ffffff;stroke-width:1.99549;stroke-linecap:round;stroke-linejoin:round;stroke-miterlimit:4;stroke-dasharray:none;stroke-dashoffset:0;stroke-opacity:1"
       d="m -203.6755,335.0768 27.28822,37.55919 a 46.759651,46.759614 53.999991 0 1 17.77051,-7.87338 l -9.65975,-45.44644 a 93.185525,93.185477 53.999991 0 0 -35.39903,15.76071 z"
       id="path884-6-8-0-8-2"
       inkscape:connector-curvature="0" />
    <path
       style="fill:#f8cdc7;fill-opacity:1;stroke:#ffffff;stroke-width:1.99549;stroke-linecap:round;stroke-linejoin:round;stroke-miterlimit:4;stroke-dasharray:none;stroke-dashoffset:0;stroke-opacity:1"
       d="m -229.60363,363.87295 40.20573,23.21292 a 46.759651,46.759614 29.999991 0 1 13.03178,-14.42065 l -27.30934,-37.5884 a 93.185525,93.185477 29.999991 0 0 -25.92816,28.79612 z"
       id="path884-6-8-0-8-6"
       inkscape:connector-curvature="0" />
    <path
       style="fill:#296c92;fill-opacity:1;stroke:#ffffff;stroke-width:1.99549;stroke-linecap:round;stroke-linejoin:round;stroke-miterlimit:4;stroke-dasharray:none;stroke-dashoffset:0;stroke-opacity:1"
       d="m -241.59333,400.71642 46.1713,4.85288 a 46.759651,46.759614 5.999991 0 1 6.03972,-18.47441 l -40.23691,-23.23098 a 93.185525,93.185477 5.999991 0 0 -11.97409,36.85252 z"
       id="path884-6-8-0-8-1"
       inkscape:connector-curvature="0" />
    <path
       style="fill:#296c92;fill-opacity:1;stroke:#ffffff;stroke-width:1.99549;stroke-linecap:round;stroke-linejoin:round;stroke-miterlimit:4;stroke-dasharray:none;stroke-dashoffset:0;stroke-opacity:1"
       d="m -237.56089,439.25126 44.15343,-14.34626 a 46.759614,46.759651 71.999991 0 1 -1.99667,-19.33377 l -46.20712,-4.85673 a 93.185477,93.185525 71.999991 0 0 4.05037,38.53674 z"
       id="path884-6-8-0-8-64"
       inkscape:connector-curvature="0" />
    <path
       style="fill:#296c92;fill-opacity:1;stroke:#ffffff;stroke-width:1.99549;stroke-linecap:round;stroke-linejoin:round;stroke-miterlimit:4;stroke-dasharray:none;stroke-dashoffset:0;stroke-opacity:1"
       d="m -218.20351,472.81444 34.50103,-31.06477 a 46.759614,46.759651 47.999991 0 1 -9.68782,-16.85019 l -44.18773,14.3573 a 93.185477,93.185525 47.999991 0 0 19.37452,33.55763 z"
       id="path884-6-8-0-8-3"
       inkscape:connector-curvature="0" />
    <path
       style="fill:#296c92;fill-opacity:1;stroke:#ffffff;stroke-width:1.99549;stroke-linecap:round;stroke-linejoin:round;stroke-miterlimit:4;stroke-dasharray:none;stroke-dashoffset:0;stroke-opacity:1"
       d="m -186.86831,495.60256 18.88308,-42.4119 a 46.759614,46.759651 23.999991 0 1 -15.70383,-11.45302 l -34.52788,31.08879 a 93.185477,93.185525 23.999991 0 0 31.34863,22.77613 z"
       id="path884-6-8-0-8-5"
       inkscape:connector-curvature="0" />
    <path
       style="fill:#f8cdc7;fill-opacity:1;stroke:#ffffff;stroke-width:1.99549;stroke-linecap:round;stroke-linejoin:round;stroke-miterlimit:4;stroke-dasharray:none;stroke-dashoffset:0;stroke-opacity:1"
       d="m -148.97339,503.67538 7e-5,-46.42563 a 46.759651,46.759614 89.999991 0 1 -19.00454,-4.07555 l -18.89782,42.4448 a 93.185525,93.185477 89.999991 0 0 37.90229,8.05638 z"
       id="path884-6-8-0-8-27"
       inkscape:connector-curvature="0" />
    <path
       style="fill:#f8cdc7;fill-opacity:1;stroke:#ffffff;stroke-width:1.99549;stroke-linecap:round;stroke-linejoin:round;stroke-miterlimit:4;stroke-dasharray:none;stroke-dashoffset:0;stroke-opacity:1"
       d="m -111.03114,495.60988 -18.88296,-42.41197 a 46.759651,46.759614 65.999991 0 1 -19.01916,4.00665 l -1.8e-4,46.46168 a 93.185525,93.185477 65.999991 0 0 37.9023,-8.05636 z"
       id="path884-6-8-0-8-38"
       inkscape:connector-curvature="0" />
  </g>
</svg>
