<?xml version="1.0" encoding="UTF-8" standalone="no"?>
<svg
   xmlns:dc="http://purl.org/dc/elements/1.1/"
   xmlns:cc="http://creativecommons.org/ns#"
   xmlns:rdf="http://www.w3.org/1999/02/22-rdf-syntax-ns#"
   xmlns:svg="http://www.w3.org/2000/svg"
   xmlns="http://www.w3.org/2000/svg"
   xmlns:sodipodi="http://sodipodi.sourceforge.net/DTD/sodipodi-0.dtd"
   xmlns:inkscape="http://www.inkscape.org/namespaces/inkscape"
   width="188.40364mm"
   height="188.36292mm"
   viewBox="0 0 188.40364 188.36292"
   version="1.1"
   id="svg914"
   sodipodi:docname="5_3_blue.svg"
   inkscape:version="1.0.2 (e86c870879, 2021-01-15)">
  <defs
     id="defs908" />
  <sodipodi:namedview
     id="base"
     pagecolor="#ffffff"
     bordercolor="#666666"
     borderopacity="1.0"
     inkscape:pageopacity="0.0"
     inkscape:pageshadow="2"
     inkscape:zoom="0.35"
     inkscape:cx="1318.8955"
     inkscape:cy="350.73647"
     inkscape:document-units="mm"
     inkscape:current-layer="layer1"
     inkscape:document-rotation="0"
     showgrid="false"
     inkscape:window-width="1774"
     inkscape:window-height="1024"
     inkscape:window-x="2449"
     inkscape:window-y="226"
     inkscape:window-maximized="0" />
  <metadata
     id="metadata911">
    <rdf:RDF>
      <cc:Work
         rdf:about="">
        <dc:format>image/svg+xml</dc:format>
        <dc:type
           rdf:resource="http://purl.org/dc/dcmitype/StillImage" />
        <dc:title></dc:title>
      </cc:Work>
    </rdf:RDF>
  </metadata>
  <g
     inkscape:label="Layer 1"
     inkscape:groupmode="layer"
     id="layer1"
     transform="translate(243.12444,-316.30068)">
    <path
       style="fill:#f8cdc7;fill-opacity:1;stroke:#ffffff;stroke-width:1.99549;stroke-linecap:round;stroke-linejoin:round;stroke-miterlimit:4;stroke-dasharray:none;stroke-dashoffset:0;stroke-opacity:1"
       d="m -56.260243,400.74219 -46.171307,4.85271 a 46.759613,46.759651 83.999991 0 1 -2.06667,19.32643 l 44.187606,14.35761 a 93.185476,93.185524 83.999991 0 0 4.050371,-38.53675 z"
       id="path884-6-8-0-8"
       inkscape:connector-curvature="0" />
    <path
       style="fill:#f8cdc7;fill-opacity:1;stroke:#ffffff;stroke-width:1.99549;stroke-linecap:round;stroke-linejoin:round;stroke-miterlimit:4;stroke-dasharray:none;stroke-dashoffset:0;stroke-opacity:1"
       d="m -94.146846,335.08459 -27.288384,37.55904 a 46.759614,46.759651 35.999991 0 1 12.97945,14.46775 l 40.237083,-23.23065 a 93.185477,93.185525 35.999991 0 0 -25.928149,-28.79614 z"
       id="path884-6-8-0-8-8"
       inkscape:connector-curvature="0" />
    <path
       style="fill:#f8cdc7;fill-opacity:1;stroke:#ffffff;stroke-width:1.99549;stroke-linecap:round;stroke-linejoin:round;stroke-miterlimit:4;stroke-dasharray:none;stroke-dashoffset:0;stroke-opacity:1"
       d="m -68.23434,363.88966 -40.20582,23.21274 a 46.759614,46.759651 59.999991 0 1 5.97276,18.49618 l 46.20714,-4.85639 a 93.185477,93.185525 59.999991 0 0 -11.974099,-36.85252 z"
       id="path884-6-8-0-8-7"
       inkscape:connector-curvature="0" />
    <path
       style="fill:#f8cdc7;fill-opacity:1;stroke:#ffffff;stroke-width:1.99549;stroke-linecap:round;stroke-linejoin:round;stroke-miterlimit:4;stroke-dasharray:none;stroke-dashoffset:0;stroke-opacity:1"
       d="m -129.53521,319.30941 -9.65255,45.41103 a 46.759614,46.759651 11.999991 0 1 17.74191,7.93774 L -94.136223,335.07 a 93.185477,93.185525 11.999991 0 0 -35.398967,-15.76062 z"
       id="path884-6-8-0-8-84"
       inkscape:connector-curvature="0" />
    <path
       style="fill:#f8cdc7;fill-opacity:1;stroke:#ffffff;stroke-width:1.99549;stroke-linecap:round;stroke-linejoin:round;stroke-miterlimit:4;stroke-dasharray:none;stroke-dashoffset:0;stroke-opacity:1"
       d="m -168.28425,319.30936 9.65239,45.41123 a 46.759651,46.759614 77.999991 0 1 19.43657,0.0352 l 9.66008,-45.44634 a 93.185525,93.185477 77.999991 0 0 -38.74904,-5e-5 z"
       id="path884-6-8-0-8-76"
       inkscape:connector-curvature="0" />
    <path
       style="fill:#f8cdc7;fill-opacity:1;stroke:#ffffff;stroke-width:1.99549;stroke-linecap:round;stroke-linejoin:round;stroke-miterlimit:4;stroke-dasharray:none;stroke-dashoffset:0;stroke-opacity:1"
       d="m -203.68324,335.07 27.28822,37.55914 a 46.759651,46.759614 53.999991 0 1 17.77043,-7.8736 l -9.65974,-45.44636 a 93.185525,93.185477 53.999991 0 0 -35.39899,15.76063 z"
       id="path884-6-8-0-8-81"
       inkscape:connector-curvature="0" />
    <path
       style="fill:#f8cdc7;fill-opacity:1;stroke:#ffffff;stroke-width:1.99549;stroke-linecap:round;stroke-linejoin:round;stroke-miterlimit:4;stroke-dasharray:none;stroke-dashoffset:0;stroke-opacity:1"
       d="m -229.61141,363.8661 40.20573,23.2129 a 46.759651,46.759614 29.999991 0 1 13.03178,-14.42063 L -203.68324,335.07 a 93.185525,93.185477 29.999991 0 0 -25.92813,28.79618 z"
       id="path884-6-8-0-8-9"
       inkscape:connector-curvature="0" />
    <path
       style="fill:#f8cdc7;fill-opacity:1;stroke:#ffffff;stroke-width:1.99549;stroke-linecap:round;stroke-linejoin:round;stroke-miterlimit:4;stroke-dasharray:none;stroke-dashoffset:0;stroke-opacity:1"
       d="m -241.60112,400.70952 46.1713,4.85291 a 46.759651,46.759614 5.999991 0 1 6.03973,-18.47438 L -229.627,363.85704 a 93.185525,93.185477 5.999991 0 0 -11.97409,36.85258 z"
       id="path884-6-8-0-8-2"
       inkscape:connector-curvature="0" />
    <path
       style="fill:#296c92;fill-opacity:1;stroke:#ffffff;stroke-width:1.99549;stroke-linecap:round;stroke-linejoin:round;stroke-miterlimit:4;stroke-dasharray:none;stroke-dashoffset:0;stroke-opacity:1"
       d="m -237.55072,439.24626 44.15346,-14.3462 a 46.759614,46.759651 71.999991 0 1 -1.99668,-19.33379 l -46.20714,-4.85676 a 93.185477,93.185525 71.999991 0 0 4.05036,38.53674 z"
       id="path884-6-8-0-8-6"
       inkscape:connector-curvature="0" />
    <path
       style="fill:#296c92;fill-opacity:1;stroke:#ffffff;stroke-width:1.99549;stroke-linecap:round;stroke-linejoin:round;stroke-miterlimit:4;stroke-dasharray:none;stroke-dashoffset:0;stroke-opacity:1"
       d="m -218.19336,472.80945 34.50103,-31.06476 a 46.759614,46.759651 47.999991 0 1 -9.6878,-16.85018 l -44.18773,14.3573 a 93.185477,93.185525 47.999991 0 0 19.37452,33.55763 z"
       id="path884-6-8-0-8-1"
       inkscape:connector-curvature="0" />
    <path
       style="fill:#296c92;fill-opacity:1;stroke:#ffffff;stroke-width:1.99549;stroke-linecap:round;stroke-linejoin:round;stroke-miterlimit:4;stroke-dasharray:none;stroke-dashoffset:0;stroke-opacity:1"
       d="m -186.85816,495.5976 18.88307,-42.41192 a 46.759614,46.759651 23.999991 0 1 -15.70383,-11.453 l -34.52786,31.08879 a 93.185477,93.185525 23.999991 0 0 31.34861,22.77611 z"
       id="path884-6-8-0-8-64"
       inkscape:connector-curvature="0" />
    <path
       style="fill:#296c92;fill-opacity:1;stroke:#ffffff;stroke-width:1.99549;stroke-linecap:round;stroke-linejoin:round;stroke-miterlimit:4;stroke-dasharray:none;stroke-dashoffset:0;stroke-opacity:1"
       d="m -148.96325,503.67041 8e-5,-46.42565 a 46.759651,46.759614 89.999991 0 1 -19.00454,-4.07552 l -18.89781,42.44479 a 93.185525,93.185477 89.999991 0 0 37.90226,8.05637 z"
       id="path884-6-8-0-8-3"
       inkscape:connector-curvature="0" />
    <path
       style="fill:#296c92;fill-opacity:1;stroke:#ffffff;stroke-width:1.99549;stroke-linecap:round;stroke-linejoin:round;stroke-miterlimit:4;stroke-dasharray:none;stroke-dashoffset:0;stroke-opacity:1"
       d="m -111.06102,495.63205 -18.88295,-42.41196 a 46.759651,46.759614 65.999991 0 1 -19.01916,4.00665 l -1.8e-4,46.46168 a 93.185525,93.185477 65.999991 0 0 37.90229,-8.05637 z"
       id="path884-6-8-0-8-5"
       inkscape:connector-curvature="0" />
    <path
       style="fill:#f8cdc7;fill-opacity:1;stroke:#ffffff;stroke-width:1.99549;stroke-linecap:round;stroke-linejoin:round;stroke-miterlimit:4;stroke-dasharray:none;stroke-dashoffset:0;stroke-opacity:1"
       d="m -79.705094,472.87241 -34.500926,-31.06487 a 46.759651,46.759614 41.999991 0 1 -15.74524,11.39606 l 18.89752,42.44493 a 93.185525,93.185477 41.999991 0 0 31.348646,-22.77612 z"
       id="path884-6-8-0-8-27"
       inkscape:connector-curvature="0" />
    <path
       style="fill:#f8cdc7;fill-opacity:1;stroke:#ffffff;stroke-width:1.99549;stroke-linecap:round;stroke-linejoin:round;stroke-miterlimit:4;stroke-dasharray:none;stroke-dashoffset:0;stroke-opacity:1"
       d="m -60.310614,439.27894 -44.153406,-14.34637 a 46.759651,46.759614 17.999991 0 1 -9.74877,16.81497 l 34.52763,31.08906 a 93.185525,93.185477 17.999991 0 0 19.374546,-33.55766 z"
       id="path884-6-8-0-8-38"
       inkscape:connector-curvature="0" />
  </g>
</svg>
