<?xml version="1.0" encoding="UTF-8" standalone="no"?>
<svg
   xmlns:dc="http://purl.org/dc/elements/1.1/"
   xmlns:cc="http://creativecommons.org/ns#"
   xmlns:rdf="http://www.w3.org/1999/02/22-rdf-syntax-ns#"
   xmlns:svg="http://www.w3.org/2000/svg"
   xmlns="http://www.w3.org/2000/svg"
   xmlns:sodipodi="http://sodipodi.sourceforge.net/DTD/sodipodi-0.dtd"
   xmlns:inkscape="http://www.inkscape.org/namespaces/inkscape"
   width="188.40364mm"
   height="188.36292mm"
   viewBox="0 0 188.40364 188.36292"
   version="1.1"
   id="svg914"
   sodipodi:docname="5_6_blue.svg"
   inkscape:version="1.0.2 (e86c870879, 2021-01-15)">
  <defs
     id="defs908" />
  <sodipodi:namedview
     id="base"
     pagecolor="#ffffff"
     bordercolor="#666666"
     borderopacity="1.0"
     inkscape:pageopacity="0.0"
     inkscape:pageshadow="2"
     inkscape:zoom="0.35"
     inkscape:cx="1318.8955"
     inkscape:cy="350.73647"
     inkscape:document-units="mm"
     inkscape:current-layer="layer1"
     inkscape:document-rotation="0"
     showgrid="false"
     inkscape:window-width="1774"
     inkscape:window-height="1024"
     inkscape:window-x="2449"
     inkscape:window-y="226"
     inkscape:window-maximized="0" />
  <metadata
     id="metadata911">
    <rdf:RDF>
      <cc:Work
         rdf:about="">
        <dc:format>image/svg+xml</dc:format>
        <dc:type
           rdf:resource="http://purl.org/dc/dcmitype/StillImage" />
        <dc:title></dc:title>
      </cc:Work>
    </rdf:RDF>
  </metadata>
  <g
     inkscape:label="Layer 1"
     inkscape:groupmode="layer"
     id="layer1"
     transform="translate(243.12444,-316.30068)">
    <path
       style="fill:#f8cdc7;fill-opacity:1;stroke:#ffffff;stroke-width:1.99549;stroke-linecap:round;stroke-linejoin:round;stroke-miterlimit:4;stroke-dasharray:none;stroke-dashoffset:0;stroke-opacity:1"
       d="m -111.02787,495.60737 -18.88292,-42.41195 a 46.759651,46.759613 65.999991 0 1 -19.01916,4.00667 l -1.8e-4,46.46166 a 93.185524,93.185476 65.999991 0 0 37.90226,-8.05638 z"
       id="path884-6-8-0-8"
       inkscape:connector-curvature="0" />
    <path
       style="fill:#f8cdc7;fill-opacity:1;stroke:#ffffff;stroke-width:1.99549;stroke-linecap:round;stroke-linejoin:round;stroke-miterlimit:4;stroke-dasharray:none;stroke-dashoffset:0;stroke-opacity:1"
       d="m -60.291386,439.28576 -44.153344,-14.34642 a 46.759651,46.759614 17.999991 0 1 -9.74878,16.81498 l 34.527607,31.08907 a 93.185525,93.185477 17.999991 0 0 19.374517,-33.55763 z"
       id="path884-6-8-0-8-8"
       inkscape:connector-curvature="0" />
    <path
       style="fill:#f8cdc7;fill-opacity:1;stroke:#ffffff;stroke-width:1.99549;stroke-linecap:round;stroke-linejoin:round;stroke-miterlimit:4;stroke-dasharray:none;stroke-dashoffset:0;stroke-opacity:1"
       d="m -79.679225,472.83126 -34.500905,-31.06487 a 46.759651,46.759614 41.999991 0 1 -15.74524,11.39607 l 18.8975,42.4449 a 93.185525,93.185477 41.999991 0 0 31.348632,-22.77611 z"
       id="path884-6-8-0-8-7"
       inkscape:connector-curvature="0" />
    <path
       style="fill:#f8cdc7;fill-opacity:1;stroke:#ffffff;stroke-width:1.99549;stroke-linecap:round;stroke-linejoin:round;stroke-miterlimit:4;stroke-dasharray:none;stroke-dashoffset:0;stroke-opacity:1"
       d="m -56.223901,400.75462 -46.171259,4.85266 a 46.759614,46.759651 83.999991 0 1 -2.06668,19.32646 l 44.187615,14.35761 a 93.185477,93.185525 83.999991 0 0 4.050357,-38.53671 z"
       id="path884-6-8-0-8-84"
       inkscape:connector-curvature="0" />
    <path
       style="fill:#f8cdc7;fill-opacity:1;stroke:#ffffff;stroke-width:1.99549;stroke-linecap:round;stroke-linejoin:round;stroke-miterlimit:4;stroke-dasharray:none;stroke-dashoffset:0;stroke-opacity:1"
       d="m -68.197965,363.90208 -40.205895,23.2128 a 46.759614,46.759651 59.999991 0 1 5.97276,18.49616 l 46.207166,-4.85641 a 93.185477,93.185525 59.999991 0 0 -11.974067,-36.85254 z"
       id="path884-6-8-0-8-76"
       inkscape:connector-curvature="0" />
    <path
       style="fill:#f8cdc7;fill-opacity:1;stroke:#ffffff;stroke-width:1.99549;stroke-linecap:round;stroke-linejoin:round;stroke-miterlimit:4;stroke-dasharray:none;stroke-dashoffset:0;stroke-opacity:1"
       d="M -94.126111,335.10595 -121.41445,372.665 a 46.759614,46.759651 35.999991 0 1 12.97959,14.46761 l 40.237043,-23.23066 a 93.185477,93.185525 35.999991 0 0 -25.928139,-28.79613 z"
       id="path884-6-8-0-8-81"
       inkscape:connector-curvature="0" />
    <path
       style="fill:#f8cdc7;fill-opacity:1;stroke:#ffffff;stroke-width:1.99549;stroke-linecap:round;stroke-linejoin:round;stroke-miterlimit:4;stroke-dasharray:none;stroke-dashoffset:0;stroke-opacity:1"
       d="m -129.52508,319.34527 -9.65252,45.41111 a 46.759614,46.759651 11.999991 0 1 17.74188,7.93772 l 27.309617,-37.58817 a 93.185477,93.185525 11.999991 0 0 -35.399027,-15.76061 z"
       id="path884-6-8-0-8-9"
       inkscape:connector-curvature="0" />
    <path
       style="fill:#f8cdc7;fill-opacity:1;stroke:#ffffff;stroke-width:1.99549;stroke-linecap:round;stroke-linejoin:round;stroke-miterlimit:4;stroke-dasharray:none;stroke-dashoffset:0;stroke-opacity:1"
       d="m -168.27028,319.32763 9.65233,45.41115 a 46.759651,46.759614 77.999991 0 1 19.43656,0.0352 l 9.66011,-45.44636 a 93.185525,93.185477 77.999991 0 0 -38.74908,4e-5 z"
       id="path884-6-8-0-8-2"
       inkscape:connector-curvature="0" />
    <path
       style="fill:#296c92;fill-opacity:1;stroke:#ffffff;stroke-width:1.99549;stroke-linecap:round;stroke-linejoin:round;stroke-miterlimit:4;stroke-dasharray:none;stroke-dashoffset:0;stroke-opacity:1"
       d="m -203.66926,335.0883 27.28822,37.5592 a 46.759651,46.759614 53.999991 0 1 17.77053,-7.87342 l -9.65974,-45.44642 a 93.185525,93.185477 53.999991 0 0 -35.39899,15.76064 z"
       id="path884-6-8-0-8-6"
       inkscape:connector-curvature="0" />
    <path
       style="fill:#296c92;fill-opacity:1;stroke:#ffffff;stroke-width:1.99549;stroke-linecap:round;stroke-linejoin:round;stroke-miterlimit:4;stroke-dasharray:none;stroke-dashoffset:0;stroke-opacity:1"
       d="m -229.60798,363.86983 40.20574,23.21289 a 46.759651,46.759614 29.999991 0 1 13.03177,-14.42064 l -27.30935,-37.58838 a 93.185525,93.185477 29.999991 0 0 -25.92815,28.79615 z"
       id="path884-6-8-0-8-1"
       inkscape:connector-curvature="0" />
    <path
       style="fill:#296c92;fill-opacity:1;stroke:#ffffff;stroke-width:1.99549;stroke-linecap:round;stroke-linejoin:round;stroke-miterlimit:4;stroke-dasharray:none;stroke-dashoffset:0;stroke-opacity:1"
       d="m -241.5977,400.7133 46.17132,4.85286 a 46.759651,46.759614 5.999991 0 1 6.0397,-18.4744 l -40.23689,-23.23097 a 93.185525,93.185477 5.999991 0 0 -11.97411,36.8525 z"
       id="path884-6-8-0-8-64"
       inkscape:connector-curvature="0" />
    <path
       style="fill:#296c92;fill-opacity:1;stroke:#ffffff;stroke-width:1.99549;stroke-linecap:round;stroke-linejoin:round;stroke-miterlimit:4;stroke-dasharray:none;stroke-dashoffset:0;stroke-opacity:1"
       d="m -237.56522,439.24815 44.15344,-14.34625 a 46.759614,46.759651 71.999991 0 1 -1.99668,-19.3338 l -46.20714,-4.85672 a 93.185477,93.185525 71.999991 0 0 4.05039,38.53674 z"
       id="path884-6-8-0-8-3"
       inkscape:connector-curvature="0" />
    <path
       style="fill:#296c92;fill-opacity:1;stroke:#ffffff;stroke-width:1.99549;stroke-linecap:round;stroke-linejoin:round;stroke-miterlimit:4;stroke-dasharray:none;stroke-dashoffset:0;stroke-opacity:1"
       d="m -218.20786,472.81131 34.50103,-31.06476 a 46.759614,46.759651 47.999991 0 1 -9.6878,-16.85018 l -44.18774,14.35727 a 93.185477,93.185525 47.999991 0 0 19.37451,33.55767 z"
       id="path884-6-8-0-8-5"
       inkscape:connector-curvature="0" />
    <path
       style="fill:#f8cdc7;fill-opacity:1;stroke:#ffffff;stroke-width:1.99549;stroke-linecap:round;stroke-linejoin:round;stroke-miterlimit:4;stroke-dasharray:none;stroke-dashoffset:0;stroke-opacity:1"
       d="m -186.87264,495.59945 18.88307,-42.4119 a 46.759614,46.759651 23.999991 0 1 -15.70383,-11.45304 l -34.52788,31.08882 a 93.185477,93.185525 23.999991 0 0 31.34864,22.77612 z"
       id="path884-6-8-0-8-27"
       inkscape:connector-curvature="0" />
    <path
       style="fill:#f8cdc7;fill-opacity:1;stroke:#ffffff;stroke-width:1.99549;stroke-linecap:round;stroke-linejoin:round;stroke-miterlimit:4;stroke-dasharray:none;stroke-dashoffset:0;stroke-opacity:1"
       d="m -148.93013,503.66375 6e-5,-46.42565 a 46.759651,46.759614 89.999991 0 1 -19.00452,-4.07554 l -18.89783,42.44479 a 93.185525,93.185477 89.999991 0 0 37.90229,8.0564 z"
       id="path884-6-8-0-8-38"
       inkscape:connector-curvature="0" />
  </g>
</svg>
