<?xml version="1.0" encoding="UTF-8" standalone="no"?>
<svg
   xmlns:dc="http://purl.org/dc/elements/1.1/"
   xmlns:cc="http://creativecommons.org/ns#"
   xmlns:rdf="http://www.w3.org/1999/02/22-rdf-syntax-ns#"
   xmlns:svg="http://www.w3.org/2000/svg"
   xmlns="http://www.w3.org/2000/svg"
   xmlns:sodipodi="http://sodipodi.sourceforge.net/DTD/sodipodi-0.dtd"
   xmlns:inkscape="http://www.inkscape.org/namespaces/inkscape"
   width="188.40364mm"
   height="188.36292mm"
   viewBox="0 0 188.40364 188.36292"
   version="1.1"
   id="svg914"
   sodipodi:docname="6_12_blue.svg"
   inkscape:version="1.0.2 (e86c870879, 2021-01-15)">
  <defs
     id="defs908" />
  <sodipodi:namedview
     id="base"
     pagecolor="#ffffff"
     bordercolor="#666666"
     borderopacity="1.0"
     inkscape:pageopacity="0.0"
     inkscape:pageshadow="2"
     inkscape:zoom="0.35"
     inkscape:cx="1318.8955"
     inkscape:cy="350.73647"
     inkscape:document-units="mm"
     inkscape:current-layer="layer1"
     inkscape:document-rotation="0"
     showgrid="false"
     inkscape:window-width="1774"
     inkscape:window-height="1024"
     inkscape:window-x="2449"
     inkscape:window-y="226"
     inkscape:window-maximized="0" />
  <metadata
     id="metadata911">
    <rdf:RDF>
      <cc:Work
         rdf:about="">
        <dc:format>image/svg+xml</dc:format>
        <dc:type
           rdf:resource="http://purl.org/dc/dcmitype/StillImage" />
        <dc:title></dc:title>
      </cc:Work>
    </rdf:RDF>
  </metadata>
  <g
     inkscape:label="Layer 1"
     inkscape:groupmode="layer"
     id="layer1"
     transform="translate(243.12444,-316.30068)">
    <path
       style="fill:#f8cdc7;fill-opacity:1;stroke:#ffffff;stroke-width:1.99549;stroke-linecap:round;stroke-linejoin:round;stroke-miterlimit:4;stroke-dasharray:none;stroke-dashoffset:0;stroke-opacity:1"
       d="m -229.61196,363.89217 40.20572,23.21289 a 46.759651,46.759613 29.999991 0 1 13.03177,-14.42063 l -27.30935,-37.58839 a 93.185524,93.185476 29.999991 0 0 -25.92814,28.79613 z"
       id="path884-6-8-0-8"
       inkscape:connector-curvature="0" />
    <path
       style="fill:#f8cdc7;fill-opacity:1;stroke:#ffffff;stroke-width:1.99549;stroke-linecap:round;stroke-linejoin:round;stroke-miterlimit:4;stroke-dasharray:none;stroke-dashoffset:0;stroke-opacity:1"
       d="m -237.55363,439.27948 44.15344,-14.34619 a 46.759614,46.759651 71.999991 0 1 -1.99669,-19.33379 l -46.20711,-4.85679 a 93.185477,93.185525 71.999991 0 0 4.05036,38.53677 z"
       id="path884-6-8-0-8-8"
       inkscape:connector-curvature="0" />
    <path
       style="fill:#f8cdc7;fill-opacity:1;stroke:#ffffff;stroke-width:1.99549;stroke-linecap:round;stroke-linejoin:round;stroke-miterlimit:4;stroke-dasharray:none;stroke-dashoffset:0;stroke-opacity:1"
       d="m -241.58609,400.74471 46.1713,4.85288 a 46.759651,46.759614 5.999991 0 1 6.03971,-18.47444 l -40.23688,-23.23095 a 93.185525,93.185477 5.999991 0 0 -11.9741,36.85252 z"
       id="path884-6-8-0-8-7"
       inkscape:connector-curvature="0" />
    <path
       style="fill:#f8cdc7;fill-opacity:1;stroke:#ffffff;stroke-width:1.99549;stroke-linecap:round;stroke-linejoin:round;stroke-miterlimit:4;stroke-dasharray:none;stroke-dashoffset:0;stroke-opacity:1"
       d="m -218.19626,472.84264 34.50102,-31.06469 a 46.759614,46.759651 47.999991 0 1 -9.68785,-16.85018 l -44.18772,14.35727 a 93.185477,93.185525 47.999991 0 0 19.3745,33.55759 z"
       id="path884-6-8-0-8-84"
       inkscape:connector-curvature="0" />
    <path
       style="fill:#f8cdc7;fill-opacity:1;stroke:#ffffff;stroke-width:1.99549;stroke-linecap:round;stroke-linejoin:round;stroke-miterlimit:4;stroke-dasharray:none;stroke-dashoffset:0;stroke-opacity:1"
       d="m -186.84765,495.61878 18.8831,-42.41197 a 46.759614,46.759651 23.999991 0 1 -15.70383,-11.45302 l -34.52786,31.0888 a 93.185477,93.185525 23.999991 0 0 31.34861,22.77617 z"
       id="path884-6-8-0-8-76"
       inkscape:connector-curvature="0" />
    <path
       style="fill:#f8cdc7;fill-opacity:1;stroke:#ffffff;stroke-width:1.99549;stroke-linecap:round;stroke-linejoin:round;stroke-miterlimit:4;stroke-dasharray:none;stroke-dashoffset:0;stroke-opacity:1"
       d="m -148.94541,503.67516 8e-5,-46.42559 a 46.759651,46.759614 89.999991 0 1 -19.00455,-4.07533 l -18.89782,42.44473 a 93.185525,93.185477 89.999991 0 0 37.90226,8.05638 z"
       id="path884-6-8-0-8-81"
       inkscape:connector-curvature="0" />
    <path
       style="fill:#f8cdc7;fill-opacity:1;stroke:#ffffff;stroke-width:1.99549;stroke-linecap:round;stroke-linejoin:round;stroke-miterlimit:4;stroke-dasharray:none;stroke-dashoffset:0;stroke-opacity:1"
       d="m -111.04314,495.61882 -18.88292,-42.41197 a 46.759651,46.759614 65.999991 0 1 -19.01916,4.00666 l -1.7e-4,46.46167 a 93.185525,93.185477 65.999991 0 0 37.90225,-8.05642 z"
       id="path884-6-8-0-8-9"
       inkscape:connector-curvature="0" />
    <path
       style="fill:#f8cdc7;fill-opacity:1;stroke:#ffffff;stroke-width:1.99549;stroke-linecap:round;stroke-linejoin:round;stroke-miterlimit:4;stroke-dasharray:none;stroke-dashoffset:0;stroke-opacity:1"
       d="m -79.687241,472.85924 -34.500909,-31.06491 a 46.759651,46.759614 41.999991 0 1 -15.74521,11.39606 l 18.89752,42.44495 a 93.185525,93.185477 41.999991 0 0 31.348635,-22.77616 z"
       id="path884-6-8-0-8-2"
       inkscape:connector-curvature="0" />
    <path
       style="fill:#296c92;fill-opacity:1;stroke:#ffffff;stroke-width:1.99549;stroke-linecap:round;stroke-linejoin:round;stroke-miterlimit:4;stroke-dasharray:none;stroke-dashoffset:0;stroke-opacity:1"
       d="m -60.312765,439.3016 -44.153375,-14.34642 a 46.759651,46.759614 17.999991 0 1 -9.74878,16.81497 l 34.527621,31.08908 a 93.185525,93.185477 17.999991 0 0 19.374517,-33.55763 z"
       id="path884-6-8-0-8-6"
       inkscape:connector-curvature="0" />
    <path
       style="fill:#296c92;fill-opacity:1;stroke:#ffffff;stroke-width:1.99549;stroke-linecap:round;stroke-linejoin:round;stroke-miterlimit:4;stroke-dasharray:none;stroke-dashoffset:0;stroke-opacity:1"
       d="m -56.245256,400.77045 -46.171324,4.85273 a 46.759614,46.759651 83.999991 0 1 -2.06668,19.3264 l 44.187618,14.35761 a 93.185477,93.185525 83.999991 0 0 4.050353,-38.53676 z"
       id="path884-6-8-0-8-1"
       inkscape:connector-curvature="0" />
    <path
       style="fill:#296c92;fill-opacity:1;stroke:#ffffff;stroke-width:1.99549;stroke-linecap:round;stroke-linejoin:round;stroke-miterlimit:4;stroke-dasharray:none;stroke-dashoffset:0;stroke-opacity:1"
       d="m -68.201408,363.91607 -40.205822,23.21278 a 46.759614,46.759651 59.999991 0 1 5.97274,18.49615 l 46.207156,-4.85639 A 93.185477,93.185525 59.999991 0 0 -68.201431,363.9161 Z"
       id="path884-6-8-0-8-64"
       inkscape:connector-curvature="0" />
    <path
       style="fill:#296c92;fill-opacity:1;stroke:#ffffff;stroke-width:1.99549;stroke-linecap:round;stroke-linejoin:round;stroke-miterlimit:4;stroke-dasharray:none;stroke-dashoffset:0;stroke-opacity:1"
       d="m -94.113965,335.11095 -27.288385,37.5591 a 46.759614,46.759651 35.999991 0 1 12.97947,14.46776 l 40.237064,-23.23069 a 93.185477,93.185525 35.999991 0 0 -25.928161,-28.79614 z"
       id="path884-6-8-0-8-3"
       inkscape:connector-curvature="0" />
    <path
       style="fill:#296c92;fill-opacity:1;stroke:#ffffff;stroke-width:1.99549;stroke-linecap:round;stroke-linejoin:round;stroke-miterlimit:4;stroke-dasharray:none;stroke-dashoffset:0;stroke-opacity:1"
       d="m -129.50234,319.33576 -9.65251,45.41113 a 46.759614,46.759651 11.999991 0 1 17.74188,7.93772 l 27.309645,-37.58818 a 93.185477,93.185525 11.999991 0 0 -35.399015,-15.76067 z"
       id="path884-6-8-0-8-5"
       inkscape:connector-curvature="0" />
    <path
       style="fill:#296c92;fill-opacity:1;stroke:#ffffff;stroke-width:1.99549;stroke-linecap:round;stroke-linejoin:round;stroke-miterlimit:4;stroke-dasharray:none;stroke-dashoffset:0;stroke-opacity:1"
       d="m -168.24759,319.31814 9.65235,45.41115 a 46.759651,46.759614 77.999991 0 1 19.43658,0.0352 l 9.66011,-45.44634 a 93.185525,93.185477 77.999991 0 0 -38.74904,-2e-5 z"
       id="path884-6-8-0-8-27"
       inkscape:connector-curvature="0" />
    <path
       style="fill:#f8cdc7;fill-opacity:1;stroke:#ffffff;stroke-width:1.99549;stroke-linecap:round;stroke-linejoin:round;stroke-miterlimit:4;stroke-dasharray:none;stroke-dashoffset:0;stroke-opacity:1"
       d="m -203.68382,335.09604 27.28826,37.55917 a 46.759651,46.759614 53.999991 0 1 17.77054,-7.87338 l -9.65976,-45.44643 a 93.185525,93.185477 53.999991 0 0 -35.39904,15.76064 z"
       id="path884-6-8-0-8-38"
       inkscape:connector-curvature="0" />
  </g>
</svg>
