<?xml version="1.0" encoding="UTF-8" standalone="no"?>
<svg
   xmlns:dc="http://purl.org/dc/elements/1.1/"
   xmlns:cc="http://creativecommons.org/ns#"
   xmlns:rdf="http://www.w3.org/1999/02/22-rdf-syntax-ns#"
   xmlns:svg="http://www.w3.org/2000/svg"
   xmlns="http://www.w3.org/2000/svg"
   xmlns:sodipodi="http://sodipodi.sourceforge.net/DTD/sodipodi-0.dtd"
   xmlns:inkscape="http://www.inkscape.org/namespaces/inkscape"
   width="188.40364mm"
   height="188.36292mm"
   viewBox="0 0 188.40364 188.36292"
   version="1.1"
   id="svg914"
   sodipodi:docname="7_4_blue.svg"
   inkscape:version="1.0.2 (e86c870879, 2021-01-15)">
  <defs
     id="defs908" />
  <sodipodi:namedview
     id="base"
     pagecolor="#ffffff"
     bordercolor="#666666"
     borderopacity="1.0"
     inkscape:pageopacity="0.0"
     inkscape:pageshadow="2"
     inkscape:zoom="0.35"
     inkscape:cx="1275.4006"
     inkscape:cy="350.73647"
     inkscape:document-units="mm"
     inkscape:current-layer="layer1"
     inkscape:document-rotation="0"
     showgrid="false"
     inkscape:window-width="2155"
     inkscape:window-height="1262"
     inkscape:window-x="138"
     inkscape:window-y="-11"
     inkscape:window-maximized="1" />
  <metadata
     id="metadata911">
    <rdf:RDF>
      <cc:Work
         rdf:about="">
        <dc:format>image/svg+xml</dc:format>
        <dc:type
           rdf:resource="http://purl.org/dc/dcmitype/StillImage" />
        <dc:title />
      </cc:Work>
    </rdf:RDF>
  </metadata>
  <g
     inkscape:label="Layer 1"
     inkscape:groupmode="layer"
     id="layer1"
     transform="translate(243.12444,-316.30068)">
    <path
       style="fill:#bfd3de;fill-opacity:1;stroke:#ffffff;stroke-width:1.99549;stroke-linecap:round;stroke-linejoin:round;stroke-miterlimit:4;stroke-dasharray:none;stroke-dashoffset:0;stroke-opacity:1"
       d="M -60.310995,439.27659 -104.46436,424.9302 a 46.759651,46.759613 17.999991 0 1 -9.74876,16.81498 l 34.527618,31.08905 a 93.185524,93.185476 17.999991 0 0 19.374507,-33.55764 z"
       id="path884-6-8-0-8"
       inkscape:connector-curvature="0" />
    <path
       style="fill:#bfd3de;fill-opacity:1;stroke:#ffffff;stroke-width:1.99549;stroke-linecap:round;stroke-linejoin:round;stroke-miterlimit:4;stroke-dasharray:none;stroke-dashoffset:0;stroke-opacity:1"
       d="m -68.216778,363.88552 -40.205812,23.2127 a 46.759614,46.759651 59.999991 0 1 5.97275,18.49617 l 46.20716,-4.85636 a 93.185477,93.185525 59.999991 0 0 -11.974098,-36.85251 z"
       id="path884-6-8-0-8-8"
       inkscape:connector-curvature="0" />
    <path
       style="fill:#bfd3de;fill-opacity:1;stroke:#ffffff;stroke-width:1.99549;stroke-linecap:round;stroke-linejoin:round;stroke-miterlimit:4;stroke-dasharray:none;stroke-dashoffset:0;stroke-opacity:1"
       d="m -56.260603,400.73982 -46.171317,4.85271 a 46.759614,46.759651 83.999991 0 1 -2.06669,19.32645 l 44.187599,14.3576 a 93.185477,93.185525 83.999991 0 0 4.050387,-38.53676 z"
       id="path884-6-8-0-8-7"
       inkscape:connector-curvature="0" />
    <path
       style="fill:#bfd3de;fill-opacity:1;stroke:#ffffff;stroke-width:1.99549;stroke-linecap:round;stroke-linejoin:round;stroke-miterlimit:4;stroke-dasharray:none;stroke-dashoffset:0;stroke-opacity:1"
       d="m -94.129313,335.08043 -27.288377,37.55899 a 46.759614,46.759651 35.999991 0 1 12.97948,14.46777 l 40.237071,-23.23068 a 93.185477,93.185525 35.999991 0 0 -25.928143,-28.7961 z"
       id="path884-6-8-0-8-84"
       inkscape:connector-curvature="0" />
    <path
       style="fill:#bfd3de;fill-opacity:1;stroke:#ffffff;stroke-width:1.99549;stroke-linecap:round;stroke-linejoin:round;stroke-miterlimit:4;stroke-dasharray:none;stroke-dashoffset:0;stroke-opacity:1"
       d="m -129.5283,319.31973 -9.65252,45.4112 a 46.759614,46.759651 11.999991 0 1 17.74188,7.93772 l 27.309611,-37.58819 a 93.185477,93.185525 11.999991 0 0 -35.398991,-15.7607 z"
       id="path884-6-8-0-8-76"
       inkscape:connector-curvature="0" />
    <path
       style="fill:#bfd3de;fill-opacity:1;stroke:#ffffff;stroke-width:1.99549;stroke-linecap:round;stroke-linejoin:round;stroke-miterlimit:4;stroke-dasharray:none;stroke-dashoffset:0;stroke-opacity:1"
       d="m -168.27732,319.31972 9.65235,45.4111 a 46.759651,46.759614 77.999991 0 1 19.43658,0.035 l 9.66009,-45.44629 a 93.185525,93.185477 77.999991 0 0 -38.74901,-10e-6 z"
       id="path884-6-8-0-8-81"
       inkscape:connector-curvature="0" />
    <path
       style="fill:#bfd3de;fill-opacity:1;stroke:#ffffff;stroke-width:1.99549;stroke-linecap:round;stroke-linejoin:round;stroke-miterlimit:4;stroke-dasharray:none;stroke-dashoffset:0;stroke-opacity:1"
       d="m -203.67631,335.08033 27.28823,37.55918 a 46.759651,46.759614 53.999991 0 1 17.77052,-7.87339 l -9.65976,-45.4464 a 93.185525,93.185477 53.999991 0 0 -35.39899,15.7607 z"
       id="path884-6-8-0-8-9"
       inkscape:connector-curvature="0" />
    <path
       style="fill:#296c92;fill-opacity:1;stroke:#ffffff;stroke-width:1.99549;stroke-linecap:round;stroke-linejoin:round;stroke-miterlimit:4;stroke-dasharray:none;stroke-dashoffset:0;stroke-opacity:1"
       d="m -229.61502,363.86182 40.20572,23.21291 a 46.759651,46.759614 29.999991 0 1 13.03178,-14.42061 l -27.30935,-37.58841 a 93.185525,93.185477 29.999991 0 0 -25.92817,28.79621 z"
       id="path884-6-8-0-8-2"
       inkscape:connector-curvature="0" />
    <path
       style="fill:#296c92;fill-opacity:1;stroke:#ffffff;stroke-width:1.99549;stroke-linecap:round;stroke-linejoin:round;stroke-miterlimit:4;stroke-dasharray:none;stroke-dashoffset:0;stroke-opacity:1"
       d="m -241.5891,400.71433 46.17131,4.85292 a 46.759651,46.759614 5.999991 0 1 6.03971,-18.47442 l -40.2369,-23.23101 a 93.185525,93.185477 5.999991 0 0 -11.97412,36.8525 z"
       id="path884-6-8-0-8-6"
       inkscape:connector-curvature="0" />
    <path
       style="fill:#296c92;fill-opacity:1;stroke:#ffffff;stroke-width:1.99549;stroke-linecap:round;stroke-linejoin:round;stroke-miterlimit:4;stroke-dasharray:none;stroke-dashoffset:0;stroke-opacity:1"
       d="m -237.55665,439.24917 44.15343,-14.34623 a 46.759614,46.759651 71.999991 0 1 -1.99666,-19.33379 l -46.20714,-4.85673 a 93.185477,93.185525 71.999991 0 0 4.05039,38.53675 z"
       id="path884-6-8-0-8-1"
       inkscape:connector-curvature="0" />
    <path
       style="fill:#296c92;fill-opacity:1;stroke:#ffffff;stroke-width:1.99549;stroke-linecap:round;stroke-linejoin:round;stroke-miterlimit:4;stroke-dasharray:none;stroke-dashoffset:0;stroke-opacity:1"
       d="m -218.1993,472.81236 34.50102,-31.06478 a 46.759614,46.759651 47.999991 0 1 -9.6878,-16.85016 l -44.18772,14.35728 a 93.185477,93.185525 47.999991 0 0 19.3745,33.55764 z"
       id="path884-6-8-0-8-64"
       inkscape:connector-curvature="0" />
    <path
       style="fill:#296c92;fill-opacity:1;stroke:#ffffff;stroke-width:1.99549;stroke-linecap:round;stroke-linejoin:round;stroke-miterlimit:4;stroke-dasharray:none;stroke-dashoffset:0;stroke-opacity:1"
       d="m -186.86408,495.60049 18.88308,-42.41191 a 46.759614,46.759651 23.999991 0 1 -15.70385,-11.45302 l -34.52786,31.08881 a 93.185477,93.185525 23.999991 0 0 31.34862,22.7761 z"
       id="path884-6-8-0-8-3"
       inkscape:connector-curvature="0" />
    <path
       style="fill:#296c92;fill-opacity:1;stroke:#ffffff;stroke-width:1.99549;stroke-linecap:round;stroke-linejoin:round;stroke-miterlimit:4;stroke-dasharray:none;stroke-dashoffset:0;stroke-opacity:1"
       d="m -148.96918,503.6733 7e-5,-46.42564 a 46.759651,46.759614 89.999991 0 1 -19.00452,-4.07553 l -18.89784,42.44478 a 93.185525,93.185477 89.999991 0 0 37.90229,8.05639 z"
       id="path884-6-8-0-8-5"
       inkscape:connector-curvature="0" />
    <path
       style="fill:#296c92;fill-opacity:1;stroke:#ffffff;stroke-width:1.99549;stroke-linecap:round;stroke-linejoin:round;stroke-miterlimit:4;stroke-dasharray:none;stroke-dashoffset:0;stroke-opacity:1"
       d="m -111.06694,495.63494 -18.88294,-42.41196 a 46.759651,46.759614 65.999991 0 1 -19.01919,4.00665 l -1.6e-4,46.46169 a 93.185525,93.185477 65.999991 0 0 37.90229,-8.05638 z"
       id="path884-6-8-0-8-27"
       inkscape:connector-curvature="0" />
    <path
       style="fill:#bfd3de;fill-opacity:1;stroke:#ffffff;stroke-width:1.99549;stroke-linecap:round;stroke-linejoin:round;stroke-miterlimit:4;stroke-dasharray:none;stroke-dashoffset:0;stroke-opacity:1"
       d="m -79.685502,472.83423 -34.500948,-31.06487 a 46.759651,46.759614 41.999991 0 1 -15.74521,11.39605 l 18.8975,42.44493 a 93.185525,93.185477 41.999991 0 0 31.348658,-22.77611 z"
       id="path884-6-8-0-8-38"
       inkscape:connector-curvature="0" />
  </g>
</svg>
