<?xml version="1.0" encoding="UTF-8" standalone="no"?>
<svg
   xmlns:dc="http://purl.org/dc/elements/1.1/"
   xmlns:cc="http://creativecommons.org/ns#"
   xmlns:rdf="http://www.w3.org/1999/02/22-rdf-syntax-ns#"
   xmlns:svg="http://www.w3.org/2000/svg"
   xmlns="http://www.w3.org/2000/svg"
   xmlns:sodipodi="http://sodipodi.sourceforge.net/DTD/sodipodi-0.dtd"
   xmlns:inkscape="http://www.inkscape.org/namespaces/inkscape"
   width="188.40364mm"
   height="188.36292mm"
   viewBox="0 0 188.40364 188.36292"
   version="1.1"
   id="svg914"
   sodipodi:docname="7_7_blue.svg"
   inkscape:version="1.0.2 (e86c870879, 2021-01-15)">
  <defs
     id="defs908" />
  <sodipodi:namedview
     id="base"
     pagecolor="#ffffff"
     bordercolor="#666666"
     borderopacity="1.0"
     inkscape:pageopacity="0.0"
     inkscape:pageshadow="2"
     inkscape:zoom="0.35"
     inkscape:cx="1275.4006"
     inkscape:cy="350.73647"
     inkscape:document-units="mm"
     inkscape:current-layer="layer1"
     inkscape:document-rotation="0"
     showgrid="false"
     inkscape:window-width="1774"
     inkscape:window-height="1024"
     inkscape:window-x="2449"
     inkscape:window-y="226"
     inkscape:window-maximized="0" />
  <metadata
     id="metadata911">
    <rdf:RDF>
      <cc:Work
         rdf:about="">
        <dc:format>image/svg+xml</dc:format>
        <dc:type
           rdf:resource="http://purl.org/dc/dcmitype/StillImage" />
        <dc:title></dc:title>
      </cc:Work>
    </rdf:RDF>
  </metadata>
  <g
     inkscape:label="Layer 1"
     inkscape:groupmode="layer"
     id="layer1"
     transform="translate(243.12444,-316.30068)">
    <path
       style="fill:#f8cdc7;fill-opacity:1;stroke:#ffffff;stroke-width:1.99549;stroke-linecap:round;stroke-linejoin:round;stroke-miterlimit:4;stroke-dasharray:none;stroke-dashoffset:0;stroke-opacity:1"
       d="m -148.92923,503.65952 9e-5,-46.42562 a 46.759651,46.759613 89.999991 0 1 -19.00452,-4.07552 l -18.89783,42.44477 a 93.185524,93.185476 89.999991 0 0 37.90226,8.05637 z"
       id="path884-6-8-0-8"
       inkscape:connector-curvature="0" />
    <path
       style="fill:#f8cdc7;fill-opacity:1;stroke:#ffffff;stroke-width:1.99549;stroke-linecap:round;stroke-linejoin:round;stroke-miterlimit:4;stroke-dasharray:none;stroke-dashoffset:0;stroke-opacity:1"
       d="m -79.671078,472.84355 -34.500872,-31.06489 a 46.759651,46.759614 41.999991 0 1 -15.74522,11.39606 l 18.89747,42.44493 a 93.185525,93.185477 41.999991 0 0 31.348622,-22.7761 z"
       id="path884-6-8-0-8-8"
       inkscape:connector-curvature="0" />
    <path
       style="fill:#f8cdc7;fill-opacity:1;stroke:#ffffff;stroke-width:1.99549;stroke-linecap:round;stroke-linejoin:round;stroke-miterlimit:4;stroke-dasharray:none;stroke-dashoffset:0;stroke-opacity:1"
       d="m -111.02693,495.60315 -18.88293,-42.41196 a 46.759651,46.759614 65.999991 0 1 -19.01919,4.00667 l -1.7e-4,46.46165 a 93.185525,93.185477 65.999991 0 0 37.90228,-8.05638 z"
       id="path884-6-8-0-8-7"
       inkscape:connector-curvature="0" />
    <path
       style="fill:#f8cdc7;fill-opacity:1;stroke:#ffffff;stroke-width:1.99549;stroke-linecap:round;stroke-linejoin:round;stroke-miterlimit:4;stroke-dasharray:none;stroke-dashoffset:0;stroke-opacity:1"
       d="m -60.283219,439.298 -44.153301,-14.34642 a 46.759651,46.759614 17.999991 0 1 -9.74878,16.81501 l 34.527625,31.08905 a 93.185525,93.185477 17.999991 0 0 19.374478,-33.55761 z"
       id="path884-6-8-0-8-84"
       inkscape:connector-curvature="0" />
    <path
       style="fill:#f8cdc7;fill-opacity:1;stroke:#ffffff;stroke-width:1.99549;stroke-linecap:round;stroke-linejoin:round;stroke-miterlimit:4;stroke-dasharray:none;stroke-dashoffset:0;stroke-opacity:1"
       d="m -56.232793,400.76124 -46.171407,4.85274 a 46.759614,46.759651 83.999991 0 1 -2.06668,19.32642 l 44.187626,14.35759 a 93.185477,93.185525 83.999991 0 0 4.050424,-38.53676 z"
       id="path884-6-8-0-8-76"
       inkscape:connector-curvature="0" />
    <path
       style="fill:#f8cdc7;fill-opacity:1;stroke:#ffffff;stroke-width:1.99549;stroke-linecap:round;stroke-linejoin:round;stroke-miterlimit:4;stroke-dasharray:none;stroke-dashoffset:0;stroke-opacity:1"
       d="m -68.206892,363.90874 -40.205778,23.21273 a 46.759614,46.759651 59.999991 0 1 5.97294,18.49609 l 46.207125,-4.85638 a 93.185477,93.185525 59.999991 0 0 -11.974092,-36.8525 z"
       id="path884-6-8-0-8-81"
       inkscape:connector-curvature="0" />
    <path
       style="fill:#f8cdc7;fill-opacity:1;stroke:#ffffff;stroke-width:1.99549;stroke-linecap:round;stroke-linejoin:round;stroke-miterlimit:4;stroke-dasharray:none;stroke-dashoffset:0;stroke-opacity:1"
       d="m -94.135013,335.11258 -27.288377,37.55908 a 46.759614,46.759651 35.999991 0 1 12.97945,14.46774 l 40.237064,-23.23068 a 93.185477,93.185525 35.999991 0 0 -25.928203,-28.79611 z"
       id="path884-6-8-0-8-9"
       inkscape:connector-curvature="0" />
    <path
       style="fill:#296c92;fill-opacity:1;stroke:#ffffff;stroke-width:1.99549;stroke-linecap:round;stroke-linejoin:round;stroke-miterlimit:4;stroke-dasharray:none;stroke-dashoffset:0;stroke-opacity:1"
       d="m -129.52334,319.33737 -9.65254,45.41111 a 46.759614,46.759651 11.999991 0 1 17.74187,7.93772 l 27.309648,-37.5882 a 93.185477,93.185525 11.999991 0 0 -35.399058,-15.76063 z"
       id="path884-6-8-0-8-2"
       inkscape:connector-curvature="0" />
    <path
       style="fill:#296c92;fill-opacity:1;stroke:#ffffff;stroke-width:1.99549;stroke-linecap:round;stroke-linejoin:round;stroke-miterlimit:4;stroke-dasharray:none;stroke-dashoffset:0;stroke-opacity:1"
       d="m -168.27236,319.3374 9.65233,45.41116 a 46.759651,46.759614 77.999991 0 1 19.43659,0.0352 l 9.66012,-45.44634 a 93.185525,93.185477 77.999991 0 0 -38.74902,0 z"
       id="path884-6-8-0-8-6"
       inkscape:connector-curvature="0" />
    <path
       style="fill:#296c92;fill-opacity:1;stroke:#ffffff;stroke-width:1.99549;stroke-linecap:round;stroke-linejoin:round;stroke-miterlimit:4;stroke-dasharray:none;stroke-dashoffset:0;stroke-opacity:1"
       d="m -203.67506,335.08041 27.28824,37.55918 a 46.759651,46.759614 53.999991 0 1 17.77051,-7.87342 l -9.65976,-45.4464 a 93.185525,93.185477 53.999991 0 0 -35.39899,15.76066 z"
       id="path884-6-8-0-8-1"
       inkscape:connector-curvature="0" />
    <path
       style="fill:#296c92;fill-opacity:1;stroke:#ffffff;stroke-width:1.99549;stroke-linecap:round;stroke-linejoin:round;stroke-miterlimit:4;stroke-dasharray:none;stroke-dashoffset:0;stroke-opacity:1"
       d="m -229.61381,363.86193 40.20577,23.21288 a 46.759651,46.759614 29.999991 0 1 13.03175,-14.42064 l -27.30934,-37.58836 a 93.185525,93.185477 29.999991 0 0 -25.92815,28.79612 z"
       id="path884-6-8-0-8-64"
       inkscape:connector-curvature="0" />
    <path
       style="fill:#296c92;fill-opacity:1;stroke:#ffffff;stroke-width:1.99549;stroke-linecap:round;stroke-linejoin:round;stroke-miterlimit:4;stroke-dasharray:none;stroke-dashoffset:0;stroke-opacity:1"
       d="m -241.60349,400.70543 46.17132,4.85287 a 46.759651,46.759614 5.999991 0 1 6.03971,-18.47443 l -40.23692,-23.23097 a 93.185525,93.185477 5.999991 0 0 -11.97409,36.85251 z"
       id="path884-6-8-0-8-3"
       inkscape:connector-curvature="0" />
    <path
       style="fill:#296c92;fill-opacity:1;stroke:#ffffff;stroke-width:1.99549;stroke-linecap:round;stroke-linejoin:round;stroke-miterlimit:4;stroke-dasharray:none;stroke-dashoffset:0;stroke-opacity:1"
       d="m -237.57103,439.24025 44.15344,-14.34624 a 46.759614,46.759651 71.999991 0 1 -1.99666,-19.33379 l -46.20714,-4.85675 a 93.185477,93.185525 71.999991 0 0 4.05036,38.53678 z"
       id="path884-6-8-0-8-5"
       inkscape:connector-curvature="0" />
    <path
       style="fill:#296c92;fill-opacity:1;stroke:#ffffff;stroke-width:1.99549;stroke-linecap:round;stroke-linejoin:round;stroke-miterlimit:4;stroke-dasharray:none;stroke-dashoffset:0;stroke-opacity:1"
       d="m -218.21365,472.80343 34.50102,-31.06476 a 46.759614,46.759651 47.999991 0 1 -9.68779,-16.85019 l -44.18775,14.35729 a 93.185477,93.185525 47.999991 0 0 19.37452,33.55766 z"
       id="path884-6-8-0-8-27"
       inkscape:connector-curvature="0" />
    <path
       style="fill:#f8cdc7;fill-opacity:1;stroke:#ffffff;stroke-width:1.99549;stroke-linecap:round;stroke-linejoin:round;stroke-miterlimit:4;stroke-dasharray:none;stroke-dashoffset:0;stroke-opacity:1"
       d="m -186.83149,495.60315 18.88307,-42.41192 a 46.759614,46.759651 23.999991 0 1 -15.70382,-11.45303 l -34.52788,31.08881 a 93.185477,93.185525 23.999991 0 0 31.34863,22.77614 z"
       id="path884-6-8-0-8-38"
       inkscape:connector-curvature="0" />
  </g>
</svg>
