<?xml version="1.0" encoding="UTF-8" standalone="no"?>
<svg
   xmlns:dc="http://purl.org/dc/elements/1.1/"
   xmlns:cc="http://creativecommons.org/ns#"
   xmlns:rdf="http://www.w3.org/1999/02/22-rdf-syntax-ns#"
   xmlns:svg="http://www.w3.org/2000/svg"
   xmlns="http://www.w3.org/2000/svg"
   xmlns:sodipodi="http://sodipodi.sourceforge.net/DTD/sodipodi-0.dtd"
   xmlns:inkscape="http://www.inkscape.org/namespaces/inkscape"
   width="188.40364mm"
   height="188.36292mm"
   viewBox="0 0 188.40364 188.36292"
   version="1.1"
   id="svg914"
   sodipodi:docname="8_13_blue.svg"
   inkscape:version="1.0.2 (e86c870879, 2021-01-15)">
  <defs
     id="defs908" />
  <sodipodi:namedview
     id="base"
     pagecolor="#ffffff"
     bordercolor="#666666"
     borderopacity="1.0"
     inkscape:pageopacity="0.0"
     inkscape:pageshadow="2"
     inkscape:zoom="0.35"
     inkscape:cx="1318.8955"
     inkscape:cy="350.73647"
     inkscape:document-units="mm"
     inkscape:current-layer="layer1"
     inkscape:document-rotation="0"
     showgrid="false"
     inkscape:window-width="2155"
     inkscape:window-height="1262"
     inkscape:window-x="138"
     inkscape:window-y="-11"
     inkscape:window-maximized="1" />
  <metadata
     id="metadata911">
    <rdf:RDF>
      <cc:Work
         rdf:about="">
        <dc:format>image/svg+xml</dc:format>
        <dc:type
           rdf:resource="http://purl.org/dc/dcmitype/StillImage" />
        <dc:title />
      </cc:Work>
    </rdf:RDF>
  </metadata>
  <g
     inkscape:label="Layer 1"
     inkscape:groupmode="layer"
     id="layer1"
     transform="translate(243.12444,-316.30068)">
    <path
       style="fill:#bfd3de;fill-opacity:1;stroke:#ffffff;stroke-width:1.99549;stroke-linecap:round;stroke-linejoin:round;stroke-miterlimit:4;stroke-dasharray:none;stroke-dashoffset:0;stroke-opacity:1"
       d="m -203.68741,335.10429 27.28822,37.55917 a 46.759651,46.759613 53.999991 0 1 17.77051,-7.87341 l -9.65976,-45.44641 a 93.185524,93.185476 53.999991 0 0 -35.39897,15.76065 z"
       id="path884-6-8-0-8"
       inkscape:connector-curvature="0" />
    <path
       style="fill:#bfd3de;fill-opacity:1;stroke:#ffffff;stroke-width:1.99549;stroke-linecap:round;stroke-linejoin:round;stroke-miterlimit:4;stroke-dasharray:none;stroke-dashoffset:0;stroke-opacity:1"
       d="m -241.60527,400.74385 46.1713,4.85292 a 46.759651,46.759614 5.999991 0 1 6.03969,-18.47443 l -40.23686,-23.23102 a 93.185525,93.185477 5.999991 0 0 -11.97413,36.85253 z"
       id="path884-6-8-0-8-8"
       inkscape:connector-curvature="0" />
    <path
       style="fill:#bfd3de;fill-opacity:1;stroke:#ffffff;stroke-width:1.99549;stroke-linecap:round;stroke-linejoin:round;stroke-miterlimit:4;stroke-dasharray:none;stroke-dashoffset:0;stroke-opacity:1"
       d="m -229.6156,363.90044 40.20574,23.21288 a 46.759651,46.759614 29.999991 0 1 13.03178,-14.42066 l -27.30935,-37.58836 a 93.185525,93.185477 29.999991 0 0 -25.92816,28.79615 z"
       id="path884-6-8-0-8-7"
       inkscape:connector-curvature="0" />
    <path
       style="fill:#bfd3de;fill-opacity:1;stroke:#ffffff;stroke-width:1.99549;stroke-linecap:round;stroke-linejoin:round;stroke-miterlimit:4;stroke-dasharray:none;stroke-dashoffset:0;stroke-opacity:1"
       d="m -237.5728,439.27867 44.1534,-14.34617 a 46.759614,46.759651 71.999991 0 1 -1.99671,-19.33382 l -46.20711,-4.85675 a 93.185477,93.185525 71.999991 0 0 4.05038,38.53672 z"
       id="path884-6-8-0-8-84"
       inkscape:connector-curvature="0" />
    <path
       style="fill:#bfd3de;fill-opacity:1;stroke:#ffffff;stroke-width:1.99549;stroke-linecap:round;stroke-linejoin:round;stroke-miterlimit:4;stroke-dasharray:none;stroke-dashoffset:0;stroke-opacity:1"
       d="m -218.19832,472.83633 34.50108,-31.0648 a 46.759614,46.759651 47.999991 0 1 -9.6878,-16.85018 l -44.18772,14.35729 a 93.185477,93.185525 47.999991 0 0 19.37448,33.55769 z"
       id="path884-6-8-0-8-76"
       inkscape:connector-curvature="0" />
    <path
       style="fill:#bfd3de;fill-opacity:1;stroke:#ffffff;stroke-width:1.99549;stroke-linecap:round;stroke-linejoin:round;stroke-miterlimit:4;stroke-dasharray:none;stroke-dashoffset:0;stroke-opacity:1"
       d="m -186.84971,495.61244 18.88306,-42.41186 a 46.759614,46.759651 23.999991 0 1 -15.70394,-11.45285 l -34.52784,31.08876 a 93.185477,93.185525 23.999991 0 0 31.3486,22.77611 z"
       id="path884-6-8-0-8-81"
       inkscape:connector-curvature="0" />
    <path
       style="fill:#296c92;fill-opacity:1;stroke:#ffffff;stroke-width:1.99549;stroke-linecap:round;stroke-linejoin:round;stroke-miterlimit:4;stroke-dasharray:none;stroke-dashoffset:0;stroke-opacity:1"
       d="m -148.94746,503.66885 1e-4,-46.42564 a 46.759651,46.759614 89.999991 0 1 -19.00453,-4.07552 l -18.89781,42.44477 a 93.185525,93.185477 89.999991 0 0 37.90227,8.05634 z"
       id="path884-6-8-0-8-9"
       inkscape:connector-curvature="0" />
    <path
       style="fill:#296c92;fill-opacity:1;stroke:#ffffff;stroke-width:1.99549;stroke-linecap:round;stroke-linejoin:round;stroke-miterlimit:4;stroke-dasharray:none;stroke-dashoffset:0;stroke-opacity:1"
       d="m -111.04527,495.63052 -18.88291,-42.41198 a 46.759651,46.759614 65.999991 0 1 -19.01916,4.00666 l -1.7e-4,46.46171 a 93.185525,93.185477 65.999991 0 0 37.9023,-8.05642 z"
       id="path884-6-8-0-8-2"
       inkscape:connector-curvature="0" />
    <path
       style="fill:#296c92;fill-opacity:1;stroke:#ffffff;stroke-width:1.99549;stroke-linecap:round;stroke-linejoin:round;stroke-miterlimit:4;stroke-dasharray:none;stroke-dashoffset:0;stroke-opacity:1"
       d="m -79.69668,472.85441 -34.5009,-31.0649 a 46.759651,46.759614 41.999991 0 1 -15.74522,11.39604 l 18.89749,42.44495 a 93.185525,93.185477 41.999991 0 0 31.348617,-22.7761 z"
       id="path884-6-8-0-8-6"
       inkscape:connector-curvature="0" />
    <path
       style="fill:#296c92;fill-opacity:1;stroke:#ffffff;stroke-width:1.99549;stroke-linecap:round;stroke-linejoin:round;stroke-miterlimit:4;stroke-dasharray:none;stroke-dashoffset:0;stroke-opacity:1"
       d="m -60.308793,439.30886 -44.153387,-14.34638 a 46.759651,46.759614 17.999991 0 1 -9.74876,16.81494 l 34.527628,31.08906 a 93.185525,93.185477 17.999991 0 0 19.374495,-33.55766 z"
       id="path884-6-8-0-8-1"
       inkscape:connector-curvature="0" />
    <path
       style="fill:#296c92;fill-opacity:1;stroke:#ffffff;stroke-width:1.99549;stroke-linecap:round;stroke-linejoin:round;stroke-miterlimit:4;stroke-dasharray:none;stroke-dashoffset:0;stroke-opacity:1"
       d="m -56.241256,400.77771 -46.171334,4.85273 a 46.759614,46.759651 83.999991 0 1 -2.06669,19.32642 l 44.187608,14.35761 a 93.185477,93.185525 83.999991 0 0 4.050381,-38.53676 z"
       id="path884-6-8-0-8-64"
       inkscape:connector-curvature="0" />
    <path
       style="fill:#296c92;fill-opacity:1;stroke:#ffffff;stroke-width:1.99549;stroke-linecap:round;stroke-linejoin:round;stroke-miterlimit:4;stroke-dasharray:none;stroke-dashoffset:0;stroke-opacity:1"
       d="m -68.197458,363.92332 -40.205842,23.21276 a 46.759614,46.759651 59.999991 0 1 5.97277,18.49619 l 46.207157,-4.85641 A 93.185477,93.185525 59.999991 0 0 -68.19748,363.92334 Z"
       id="path884-6-8-0-8-3"
       inkscape:connector-curvature="0" />
    <path
       style="fill:#296c92;fill-opacity:1;stroke:#ffffff;stroke-width:1.99549;stroke-linecap:round;stroke-linejoin:round;stroke-miterlimit:4;stroke-dasharray:none;stroke-dashoffset:0;stroke-opacity:1"
       d="m -94.11,335.11822 -27.28837,37.55911 a 46.759614,46.759651 35.999991 0 1 12.97945,14.46773 L -68.181831,363.9144 A 93.185477,93.185525 35.999991 0 0 -94.11,335.11822 Z"
       id="path884-6-8-0-8-5"
       inkscape:connector-curvature="0" />
    <path
       style="fill:#296c92;fill-opacity:1;stroke:#ffffff;stroke-width:1.99549;stroke-linecap:round;stroke-linejoin:round;stroke-miterlimit:4;stroke-dasharray:none;stroke-dashoffset:0;stroke-opacity:1"
       d="m -129.49838,319.34302 -9.65252,45.41111 a 46.759614,46.759651 11.999991 0 1 17.74189,7.93772 l 27.309636,-37.58818 a 93.185477,93.185525 11.999991 0 0 -35.398996,-15.76066 z"
       id="path884-6-8-0-8-27"
       inkscape:connector-curvature="0" />
    <path
       style="fill:#bfd3de;fill-opacity:1;stroke:#ffffff;stroke-width:1.99549;stroke-linecap:round;stroke-linejoin:round;stroke-miterlimit:4;stroke-dasharray:none;stroke-dashoffset:0;stroke-opacity:1"
       d="m -168.28844,319.34364 9.65238,45.41114 a 46.759651,46.759614 77.999991 0 1 19.43659,0.0352 l 9.6601,-45.44636 a 93.185525,93.185477 77.999991 0 0 -38.74906,-2e-5 z"
       id="path884-6-8-0-8-38"
       inkscape:connector-curvature="0" />
  </g>
</svg>
