<?xml version="1.0" encoding="UTF-8" standalone="no"?>
<svg
   xmlns:dc="http://purl.org/dc/elements/1.1/"
   xmlns:cc="http://creativecommons.org/ns#"
   xmlns:rdf="http://www.w3.org/1999/02/22-rdf-syntax-ns#"
   xmlns:svg="http://www.w3.org/2000/svg"
   xmlns="http://www.w3.org/2000/svg"
   xmlns:sodipodi="http://sodipodi.sourceforge.net/DTD/sodipodi-0.dtd"
   xmlns:inkscape="http://www.inkscape.org/namespaces/inkscape"
   width="188.40364mm"
   height="188.36292mm"
   viewBox="0 0 188.40364 188.36292"
   version="1.1"
   id="svg914"
   sodipodi:docname="9_2_blue.svg"
   inkscape:version="1.0.2 (e86c870879, 2021-01-15)">
  <defs
     id="defs908" />
  <sodipodi:namedview
     id="base"
     pagecolor="#ffffff"
     bordercolor="#666666"
     borderopacity="1.0"
     inkscape:pageopacity="0.0"
     inkscape:pageshadow="2"
     inkscape:zoom="0.35"
     inkscape:cx="1318.8955"
     inkscape:cy="350.73647"
     inkscape:document-units="mm"
     inkscape:current-layer="layer1"
     inkscape:document-rotation="0"
     showgrid="false"
     inkscape:window-width="2155"
     inkscape:window-height="1262"
     inkscape:window-x="138"
     inkscape:window-y="-11"
     inkscape:window-maximized="1" />
  <metadata
     id="metadata911">
    <rdf:RDF>
      <cc:Work
         rdf:about="">
        <dc:format>image/svg+xml</dc:format>
        <dc:type
           rdf:resource="http://purl.org/dc/dcmitype/StillImage" />
        <dc:title />
      </cc:Work>
    </rdf:RDF>
  </metadata>
  <g
     inkscape:label="Layer 1"
     inkscape:groupmode="layer"
     id="layer1"
     transform="translate(243.12444,-316.30068)">
    <path
       style="fill:#bfd3de;fill-opacity:1;stroke:#ffffff;stroke-width:1.99549;stroke-linecap:round;stroke-linejoin:round;stroke-miterlimit:4;stroke-dasharray:none;stroke-dashoffset:0;stroke-opacity:1"
       d="m -68.233048,363.89168 -40.205812,23.21273 a 46.759613,46.759651 59.999991 0 1 5.97277,18.49616 l 46.207152,-4.85639 a 93.185476,93.185524 59.999991 0 0 -11.97411,-36.8525 z"
       id="path884-6-8-0-8"
       inkscape:connector-curvature="0" />
    <path
       style="fill:#bfd3de;fill-opacity:1;stroke:#ffffff;stroke-width:1.99549;stroke-linecap:round;stroke-linejoin:round;stroke-miterlimit:4;stroke-dasharray:none;stroke-dashoffset:0;stroke-opacity:1"
       d="m -129.54953,319.32034 -9.65255,45.41108 a 46.759614,46.759651 11.999991 0 1 17.74189,7.93773 L -94.150546,335.081 a 93.185477,93.185525 11.999991 0 0 -35.398984,-15.76066 z"
       id="path884-6-8-0-8-8"
       inkscape:connector-curvature="0" />
    <path
       style="fill:#bfd3de;fill-opacity:1;stroke:#ffffff;stroke-width:1.99549;stroke-linecap:round;stroke-linejoin:round;stroke-miterlimit:4;stroke-dasharray:none;stroke-dashoffset:0;stroke-opacity:1"
       d="m -94.161204,335.09552 -27.288376,37.55907 a 46.759614,46.759651 35.999991 0 1 12.97947,14.46776 l 40.237046,-23.23067 a 93.185477,93.185525 35.999991 0 0 -25.928154,-28.79614 z"
       id="path884-6-8-0-8-7"
       inkscape:connector-curvature="0" />
    <path
       style="fill:#bfd3de;fill-opacity:1;stroke:#ffffff;stroke-width:1.99549;stroke-linecap:round;stroke-linejoin:round;stroke-miterlimit:4;stroke-dasharray:none;stroke-dashoffset:0;stroke-opacity:1"
       d="m -168.29476,319.30274 9.65229,45.41109 a 46.759651,46.759614 77.999991 0 1 19.43661,0.0352 l 9.6601,-45.44634 a 93.185525,93.185477 77.999991 0 0 -38.74899,2e-5 z"
       id="path884-6-8-0-8-84"
       inkscape:connector-curvature="0" />
    <path
       style="fill:#bfd3de;fill-opacity:1;stroke:#ffffff;stroke-width:1.99549;stroke-linecap:round;stroke-linejoin:round;stroke-miterlimit:4;stroke-dasharray:none;stroke-dashoffset:0;stroke-opacity:1"
       d="m -203.69379,335.06335 27.28831,37.55925 a 46.759651,46.759614 53.999991 0 1 17.77051,-7.87341 l -9.65977,-45.44641 a 93.185525,93.185477 53.999991 0 0 -35.39903,15.76061 z"
       id="path884-6-8-0-8-76"
       inkscape:connector-curvature="0" />
    <path
       style="fill:#bfd3de;fill-opacity:1;stroke:#ffffff;stroke-width:1.99549;stroke-linecap:round;stroke-linejoin:round;stroke-miterlimit:4;stroke-dasharray:none;stroke-dashoffset:0;stroke-opacity:1"
       d="m -229.62194,363.85948 40.2057,23.21286 a 46.759651,46.759614 29.999991 0 1 13.03162,-14.42077 l -27.30931,-37.58835 a 93.185525,93.185477 29.999991 0 0 -25.92816,28.79612 z"
       id="path884-6-8-0-8-81"
       inkscape:connector-curvature="0" />
    <path
       style="fill:#296c92;fill-opacity:1;stroke:#ffffff;stroke-width:1.99549;stroke-linecap:round;stroke-linejoin:round;stroke-miterlimit:4;stroke-dasharray:none;stroke-dashoffset:0;stroke-opacity:1"
       d="m -241.59608,400.71196 46.1713,4.8529 a 46.759651,46.759614 5.999991 0 1 6.03973,-18.4744 l -40.23689,-23.23098 a 93.185525,93.185477 5.999991 0 0 -11.97407,36.85254 z"
       id="path884-6-8-0-8-9"
       inkscape:connector-curvature="0" />
    <path
       style="fill:#296c92;fill-opacity:1;stroke:#ffffff;stroke-width:1.99549;stroke-linecap:round;stroke-linejoin:round;stroke-miterlimit:4;stroke-dasharray:none;stroke-dashoffset:0;stroke-opacity:1"
       d="m -237.56365,439.24676 44.15344,-14.34621 a 46.759614,46.759651 71.999991 0 1 -1.99664,-19.33376 l -46.20715,-4.85676 a 93.185477,93.185525 71.999991 0 0 4.05042,38.53681 z"
       id="path884-6-8-0-8-2"
       inkscape:connector-curvature="0" />
    <path
       style="fill:#296c92;fill-opacity:1;stroke:#ffffff;stroke-width:1.99549;stroke-linecap:round;stroke-linejoin:round;stroke-miterlimit:4;stroke-dasharray:none;stroke-dashoffset:0;stroke-opacity:1"
       d="m -218.18912,472.80438 34.50106,-31.06474 a 46.759614,46.759651 47.999991 0 1 -9.68781,-16.85017 l -44.18775,14.35726 a 93.185477,93.185525 47.999991 0 0 19.37449,33.55764 z"
       id="path884-6-8-0-8-6"
       inkscape:connector-curvature="0" />
    <path
       style="fill:#296c92;fill-opacity:1;stroke:#ffffff;stroke-width:1.99549;stroke-linecap:round;stroke-linejoin:round;stroke-miterlimit:4;stroke-dasharray:none;stroke-dashoffset:0;stroke-opacity:1"
       d="m -186.85392,495.59253 18.88309,-42.41191 a 46.759614,46.759651 23.999991 0 1 -15.70383,-11.45302 l -34.52786,31.08882 a 93.185477,93.185525 23.999991 0 0 31.34862,22.77609 z"
       id="path884-6-8-0-8-1"
       inkscape:connector-curvature="0" />
    <path
       style="fill:#296c92;fill-opacity:1;stroke:#ffffff;stroke-width:1.99549;stroke-linecap:round;stroke-linejoin:round;stroke-miterlimit:4;stroke-dasharray:none;stroke-dashoffset:0;stroke-opacity:1"
       d="m -148.95901,503.66536 6e-5,-46.42565 a 46.759651,46.759614 89.999991 0 1 -19.00452,-4.07551 l -18.89782,42.44477 a 93.185525,93.185477 89.999991 0 0 37.90226,8.05638 z"
       id="path884-6-8-0-8-64"
       inkscape:connector-curvature="0" />
    <path
       style="fill:#296c92;fill-opacity:1;stroke:#ffffff;stroke-width:1.99549;stroke-linecap:round;stroke-linejoin:round;stroke-miterlimit:4;stroke-dasharray:none;stroke-dashoffset:0;stroke-opacity:1"
       d="m -111.05678,495.62699 -18.88294,-42.41197 a 46.759651,46.759614 65.999991 0 1 -19.01917,4.00667 l -1.6e-4,46.46168 a 93.185525,93.185477 65.999991 0 0 37.90226,-8.05638 z"
       id="path884-6-8-0-8-3"
       inkscape:connector-curvature="0" />
    <path
       style="fill:#296c92;fill-opacity:1;stroke:#ffffff;stroke-width:1.99549;stroke-linecap:round;stroke-linejoin:round;stroke-miterlimit:4;stroke-dasharray:none;stroke-dashoffset:0;stroke-opacity:1"
       d="M -79.700866,472.86736 -114.2018,441.8025 a 46.759651,46.759614 41.999991 0 1 -15.74521,11.39604 l 18.8975,42.44493 a 93.185525,93.185477 41.999991 0 0 31.348644,-22.77611 z"
       id="path884-6-8-0-8-5"
       inkscape:connector-curvature="0" />
    <path
       style="fill:#296c92;fill-opacity:1;stroke:#ffffff;stroke-width:1.99549;stroke-linecap:round;stroke-linejoin:round;stroke-miterlimit:4;stroke-dasharray:none;stroke-dashoffset:0;stroke-opacity:1"
       d="m -60.312982,439.32179 -44.153388,-14.34638 a 46.759651,46.759614 17.999991 0 1 -9.74879,16.81499 l 34.527648,31.08906 a 93.185525,93.185477 17.999991 0 0 19.37453,-33.55767 z"
       id="path884-6-8-0-8-27"
       inkscape:connector-curvature="0" />
    <path
       style="fill:#296c92;fill-opacity:1;stroke:#ffffff;stroke-width:1.99549;stroke-linecap:round;stroke-linejoin:round;stroke-miterlimit:4;stroke-dasharray:none;stroke-dashoffset:0;stroke-opacity:1"
       d="m -56.258938,400.74418 -46.171342,4.85275 a 46.759614,46.759651 83.999991 0 1 -2.06668,19.32642 l 44.187624,14.35762 a 93.185477,93.185525 83.999991 0 0 4.050398,-38.53679 z"
       id="path884-6-8-0-8-38"
       inkscape:connector-curvature="0" />
  </g>
</svg>
