<?xml version="1.0" encoding="UTF-8" standalone="no"?>
<svg
   xmlns:dc="http://purl.org/dc/elements/1.1/"
   xmlns:cc="http://creativecommons.org/ns#"
   xmlns:rdf="http://www.w3.org/1999/02/22-rdf-syntax-ns#"
   xmlns:svg="http://www.w3.org/2000/svg"
   xmlns="http://www.w3.org/2000/svg"
   xmlns:sodipodi="http://sodipodi.sourceforge.net/DTD/sodipodi-0.dtd"
   xmlns:inkscape="http://www.inkscape.org/namespaces/inkscape"
   width="188.40364mm"
   height="188.36292mm"
   viewBox="0 0 188.40364 188.36292"
   version="1.1"
   id="svg914"
   sodipodi:docname="9_7_blue.svg"
   inkscape:version="1.0.2 (e86c870879, 2021-01-15)">
  <defs
     id="defs908" />
  <sodipodi:namedview
     id="base"
     pagecolor="#ffffff"
     bordercolor="#666666"
     borderopacity="1.0"
     inkscape:pageopacity="0.0"
     inkscape:pageshadow="2"
     inkscape:zoom="0.35"
     inkscape:cx="1318.8955"
     inkscape:cy="350.73647"
     inkscape:document-units="mm"
     inkscape:current-layer="layer1"
     inkscape:document-rotation="0"
     showgrid="false"
     inkscape:window-width="2155"
     inkscape:window-height="1262"
     inkscape:window-x="138"
     inkscape:window-y="-11"
     inkscape:window-maximized="1" />
  <metadata
     id="metadata911">
    <rdf:RDF>
      <cc:Work
         rdf:about="">
        <dc:format>image/svg+xml</dc:format>
        <dc:type
           rdf:resource="http://purl.org/dc/dcmitype/StillImage" />
        <dc:title />
      </cc:Work>
    </rdf:RDF>
  </metadata>
  <g
     inkscape:label="Layer 1"
     inkscape:groupmode="layer"
     id="layer1"
     transform="translate(243.12444,-316.30068)">
    <path
       style="fill:#bfd3de;fill-opacity:1;stroke:#ffffff;stroke-width:1.99549;stroke-linecap:round;stroke-linejoin:round;stroke-miterlimit:4;stroke-dasharray:none;stroke-dashoffset:0;stroke-opacity:1"
       d="m -148.92506,503.66125 9e-5,-46.42562 a 46.759651,46.759613 89.999991 0 1 -19.00452,-4.07552 l -18.89783,42.44477 a 93.185524,93.185476 89.999991 0 0 37.90226,8.05637 z"
       id="path884-6-8-0-8"
       inkscape:connector-curvature="0" />
    <path
       style="fill:#bfd3de;fill-opacity:1;stroke:#ffffff;stroke-width:1.99549;stroke-linecap:round;stroke-linejoin:round;stroke-miterlimit:4;stroke-dasharray:none;stroke-dashoffset:0;stroke-opacity:1"
       d="m -79.666913,472.84528 -34.500867,-31.06489 a 46.759651,46.759614 41.999991 0 1 -15.74523,11.39606 l 18.89748,42.44493 a 93.185525,93.185477 41.999991 0 0 31.348617,-22.7761 z"
       id="path884-6-8-0-8-8"
       inkscape:connector-curvature="0" />
    <path
       style="fill:#bfd3de;fill-opacity:1;stroke:#ffffff;stroke-width:1.99549;stroke-linecap:round;stroke-linejoin:round;stroke-miterlimit:4;stroke-dasharray:none;stroke-dashoffset:0;stroke-opacity:1"
       d="m -111.02277,495.60488 -18.88292,-42.41195 a 46.759651,46.759614 65.999991 0 1 -19.0192,4.00665 l -1.6e-4,46.46166 a 93.185525,93.185477 65.999991 0 0 37.90227,-8.05638 z"
       id="path884-6-8-0-8-7"
       inkscape:connector-curvature="0" />
    <path
       style="fill:#bfd3de;fill-opacity:1;stroke:#ffffff;stroke-width:1.99549;stroke-linecap:round;stroke-linejoin:round;stroke-miterlimit:4;stroke-dasharray:none;stroke-dashoffset:0;stroke-opacity:1"
       d="m -60.279055,439.29973 -44.153295,-14.34642 a 46.759651,46.759614 17.999991 0 1 -9.74878,16.81501 l 34.52762,31.08905 a 93.185525,93.185477 17.999991 0 0 19.37448,-33.55761 z"
       id="path884-6-8-0-8-84"
       inkscape:connector-curvature="0" />
    <path
       style="fill:#bfd3de;fill-opacity:1;stroke:#ffffff;stroke-width:1.99549;stroke-linecap:round;stroke-linejoin:round;stroke-miterlimit:4;stroke-dasharray:none;stroke-dashoffset:0;stroke-opacity:1"
       d="m -56.228628,400.76297 -46.171402,4.85274 a 46.759614,46.759651 83.999991 0 1 -2.06669,19.32642 l 44.187632,14.3576 a 93.185477,93.185525 83.999991 0 0 4.050425,-38.53677 z"
       id="path884-6-8-0-8-76"
       inkscape:connector-curvature="0" />
    <path
       style="fill:#bfd3de;fill-opacity:1;stroke:#ffffff;stroke-width:1.99549;stroke-linecap:round;stroke-linejoin:round;stroke-miterlimit:4;stroke-dasharray:none;stroke-dashoffset:0;stroke-opacity:1"
       d="M -68.202729,363.91047 -108.4085,387.1232 a 46.759614,46.759651 59.999991 0 1 5.97294,18.4961 l 46.20712,-4.85639 a 93.185477,93.185525 59.999991 0 0 -11.974094,-36.8525 z"
       id="path884-6-8-0-8-81"
       inkscape:connector-curvature="0" />
    <path
       style="fill:#296c92;fill-opacity:1;stroke:#ffffff;stroke-width:1.99549;stroke-linecap:round;stroke-linejoin:round;stroke-miterlimit:4;stroke-dasharray:none;stroke-dashoffset:0;stroke-opacity:1"
       d="m -94.130843,335.11431 -27.288377,37.55908 a 46.759614,46.759651 35.999991 0 1 12.97944,14.46774 l 40.237058,-23.23067 a 93.185477,93.185525 35.999991 0 0 -25.928201,-28.79612 z"
       id="path884-6-8-0-8-9"
       inkscape:connector-curvature="0" />
    <path
       style="fill:#296c92;fill-opacity:1;stroke:#ffffff;stroke-width:1.99549;stroke-linecap:round;stroke-linejoin:round;stroke-miterlimit:4;stroke-dasharray:none;stroke-dashoffset:0;stroke-opacity:1"
       d="m -129.51917,319.33911 -9.65254,45.4111 a 46.759614,46.759651 11.999991 0 1 17.74186,7.93772 l 27.309648,-37.5882 A 93.185477,93.185525 11.999991 0 0 -129.51926,319.3391 Z"
       id="path884-6-8-0-8-2"
       inkscape:connector-curvature="0" />
    <path
       style="fill:#296c92;fill-opacity:1;stroke:#ffffff;stroke-width:1.99549;stroke-linecap:round;stroke-linejoin:round;stroke-miterlimit:4;stroke-dasharray:none;stroke-dashoffset:0;stroke-opacity:1"
       d="m -168.26819,319.33913 9.65232,45.41115 a 46.759651,46.759614 77.999991 0 1 19.4366,0.0352 l 9.66011,-45.44636 a 93.185525,93.185477 77.999991 0 0 -38.74901,10e-6 z"
       id="path884-6-8-0-8-6"
       inkscape:connector-curvature="0" />
    <path
       style="fill:#296c92;fill-opacity:1;stroke:#ffffff;stroke-width:1.99549;stroke-linecap:round;stroke-linejoin:round;stroke-miterlimit:4;stroke-dasharray:none;stroke-dashoffset:0;stroke-opacity:1"
       d="m -203.67089,335.08214 27.28824,37.55918 a 46.759651,46.759614 53.999991 0 1 17.77051,-7.87341 l -9.65977,-45.44641 a 93.185525,93.185477 53.999991 0 0 -35.39898,15.76066 z"
       id="path884-6-8-0-8-1"
       inkscape:connector-curvature="0" />
    <path
       style="fill:#296c92;fill-opacity:1;stroke:#ffffff;stroke-width:1.99549;stroke-linecap:round;stroke-linejoin:round;stroke-miterlimit:4;stroke-dasharray:none;stroke-dashoffset:0;stroke-opacity:1"
       d="m -229.60964,363.86367 40.20576,23.21287 a 46.759651,46.759614 29.999991 0 1 13.03176,-14.42063 l -27.30935,-37.58837 a 93.185525,93.185477 29.999991 0 0 -25.92815,28.79612 z"
       id="path884-6-8-0-8-64"
       inkscape:connector-curvature="0" />
    <path
       style="fill:#296c92;fill-opacity:1;stroke:#ffffff;stroke-width:1.99549;stroke-linecap:round;stroke-linejoin:round;stroke-miterlimit:4;stroke-dasharray:none;stroke-dashoffset:0;stroke-opacity:1"
       d="m -241.59932,400.70716 46.17132,4.85287 a 46.759651,46.759614 5.999991 0 1 6.0397,-18.47443 l -40.23691,-23.23098 a 93.185525,93.185477 5.999991 0 0 -11.97409,36.85251 z"
       id="path884-6-8-0-8-3"
       inkscape:connector-curvature="0" />
    <path
       style="fill:#296c92;fill-opacity:1;stroke:#ffffff;stroke-width:1.99549;stroke-linecap:round;stroke-linejoin:round;stroke-miterlimit:4;stroke-dasharray:none;stroke-dashoffset:0;stroke-opacity:1"
       d="m -237.56687,439.24198 44.15345,-14.34624 a 46.759614,46.759651 71.999991 0 1 -1.99667,-19.33379 l -46.20714,-4.85675 a 93.185477,93.185525 71.999991 0 0 4.05036,38.53678 z"
       id="path884-6-8-0-8-5"
       inkscape:connector-curvature="0" />
    <path
       style="fill:#296c92;fill-opacity:1;stroke:#ffffff;stroke-width:1.99549;stroke-linecap:round;stroke-linejoin:round;stroke-miterlimit:4;stroke-dasharray:none;stroke-dashoffset:0;stroke-opacity:1"
       d="m -218.20949,472.80516 34.50102,-31.06476 a 46.759614,46.759651 47.999991 0 1 -9.68778,-16.85019 l -44.18776,14.35729 a 93.185477,93.185525 47.999991 0 0 19.37452,33.55766 z"
       id="path884-6-8-0-8-27"
       inkscape:connector-curvature="0" />
    <path
       style="fill:#296c92;fill-opacity:1;stroke:#ffffff;stroke-width:1.99549;stroke-linecap:round;stroke-linejoin:round;stroke-miterlimit:4;stroke-dasharray:none;stroke-dashoffset:0;stroke-opacity:1"
       d="m -186.82732,495.60488 18.88307,-42.41192 a 46.759614,46.759651 23.999991 0 1 -15.70383,-11.45304 l -34.52787,31.08882 a 93.185477,93.185525 23.999991 0 0 31.34863,22.77614 z"
       id="path884-6-8-0-8-38"
       inkscape:connector-curvature="0" />
  </g>
</svg>
