<?xml version="1.0" encoding="UTF-8" standalone="no"?>
<svg
   xmlns:dc="http://purl.org/dc/elements/1.1/"
   xmlns:cc="http://creativecommons.org/ns#"
   xmlns:rdf="http://www.w3.org/1999/02/22-rdf-syntax-ns#"
   xmlns:svg="http://www.w3.org/2000/svg"
   xmlns="http://www.w3.org/2000/svg"
   xmlns:sodipodi="http://sodipodi.sourceforge.net/DTD/sodipodi-0.dtd"
   xmlns:inkscape="http://www.inkscape.org/namespaces/inkscape"
   width="188.40364mm"
   height="188.36292mm"
   viewBox="0 0 188.40364 188.36292"
   version="1.1"
   id="svg914"
   sodipodi:docname="9_8_blue.svg"
   inkscape:version="1.0.2 (e86c870879, 2021-01-15)">
  <defs
     id="defs908" />
  <sodipodi:namedview
     id="base"
     pagecolor="#ffffff"
     bordercolor="#666666"
     borderopacity="1.0"
     inkscape:pageopacity="0.0"
     inkscape:pageshadow="2"
     inkscape:zoom="0.35"
     inkscape:cx="1318.8955"
     inkscape:cy="350.73647"
     inkscape:document-units="mm"
     inkscape:current-layer="layer1"
     inkscape:document-rotation="0"
     showgrid="false"
     inkscape:window-width="1774"
     inkscape:window-height="1024"
     inkscape:window-x="2449"
     inkscape:window-y="226"
     inkscape:window-maximized="0" />
  <metadata
     id="metadata911">
    <rdf:RDF>
      <cc:Work
         rdf:about="">
        <dc:format>image/svg+xml</dc:format>
        <dc:type
           rdf:resource="http://purl.org/dc/dcmitype/StillImage" />
        <dc:title />
      </cc:Work>
    </rdf:RDF>
  </metadata>
  <g
     inkscape:label="Layer 1"
     inkscape:groupmode="layer"
     id="layer1"
     transform="translate(243.12444,-316.30068)">
    <path
       style="fill:#f8cdc7;fill-opacity:1;stroke:#ffffff;stroke-width:1.99549;stroke-linecap:round;stroke-linejoin:round;stroke-miterlimit:4;stroke-dasharray:none;stroke-dashoffset:0;stroke-opacity:1"
       d="m -186.82845,495.60289 18.88308,-42.41187 a 46.759613,46.759651 23.999991 0 1 -15.70383,-11.45301 l -34.52787,31.08879 a 93.185476,93.185524 23.999991 0 0 31.34862,22.77609 z"
       id="path884-6-8-0-8"
       inkscape:connector-curvature="0" />
    <path
       style="fill:#f8cdc7;fill-opacity:1;stroke:#ffffff;stroke-width:1.99549;stroke-linecap:round;stroke-linejoin:round;stroke-miterlimit:4;stroke-dasharray:none;stroke-dashoffset:0;stroke-opacity:1"
       d="m -111.024,495.62093 -18.88289,-42.41196 a 46.759651,46.759614 65.999991 0 1 -19.01916,4.00667 l -2.2e-4,46.46166 a 93.185525,93.185477 65.999991 0 0 37.90227,-8.05637 z"
       id="path884-6-8-0-8-8"
       inkscape:connector-curvature="0" />
    <path
       style="fill:#f8cdc7;fill-opacity:1;stroke:#ffffff;stroke-width:1.99549;stroke-linecap:round;stroke-linejoin:round;stroke-miterlimit:4;stroke-dasharray:none;stroke-dashoffset:0;stroke-opacity:1"
       d="m -148.92616,503.65929 8e-5,-46.42564 a 46.759651,46.759614 89.999991 0 1 -19.00455,-4.07552 l -18.89781,42.44476 a 93.185525,93.185477 89.999991 0 0 37.90228,8.05638 z"
       id="path884-6-8-0-8-7"
       inkscape:connector-curvature="0" />
    <path
       style="fill:#f8cdc7;fill-opacity:1;stroke:#ffffff;stroke-width:1.99549;stroke-linecap:round;stroke-linejoin:round;stroke-miterlimit:4;stroke-dasharray:none;stroke-dashoffset:0;stroke-opacity:1"
       d="m -79.668105,472.8613 -34.500835,-31.06487 a 46.759651,46.759614 41.999991 0 1 -15.74523,11.39609 l 18.8975,42.44491 a 93.185525,93.185477 41.999991 0 0 31.348573,-22.77609 z"
       id="path884-6-8-0-8-84"
       inkscape:connector-curvature="0" />
    <path
       style="fill:#f8cdc7;fill-opacity:1;stroke:#ffffff;stroke-width:1.99549;stroke-linecap:round;stroke-linejoin:round;stroke-miterlimit:4;stroke-dasharray:none;stroke-dashoffset:0;stroke-opacity:1"
       d="m -60.293544,439.30367 -44.153466,-14.3464 a 46.759651,46.759614 17.999991 0 1 -9.74877,16.81497 l 34.527647,31.08904 a 93.185525,93.185477 17.999991 0 0 19.374559,-33.55763 z"
       id="path884-6-8-0-8-76"
       inkscape:connector-curvature="0" />
    <path
       style="fill:#f8cdc7;fill-opacity:1;stroke:#ffffff;stroke-width:1.99549;stroke-linecap:round;stroke-linejoin:round;stroke-miterlimit:4;stroke-dasharray:none;stroke-dashoffset:0;stroke-opacity:1"
       d="m -56.243166,400.76694 -46.171274,4.85272 a 46.759614,46.759651 83.999991 0 1 -2.06648,19.32643 l 44.187572,14.35761 a 93.185477,93.185525 83.999991 0 0 4.050385,-38.53674 z"
       id="path884-6-8-0-8-81"
       inkscape:connector-curvature="0" />
    <path
       style="fill:#296c92;fill-opacity:1;stroke:#ffffff;stroke-width:1.99549;stroke-linecap:round;stroke-linejoin:round;stroke-miterlimit:4;stroke-dasharray:none;stroke-dashoffset:0;stroke-opacity:1"
       d="m -68.217229,363.91442 -40.205831,23.21274 a 46.759614,46.759651 59.999991 0 1 5.97276,18.49616 l 46.207157,-4.8564 a 93.185477,93.185525 59.999991 0 0 -11.974159,-36.8525 z"
       id="path884-6-8-0-8-9"
       inkscape:connector-curvature="0" />
    <path
       style="fill:#296c92;fill-opacity:1;stroke:#ffffff;stroke-width:1.99549;stroke-linecap:round;stroke-linejoin:round;stroke-miterlimit:4;stroke-dasharray:none;stroke-dashoffset:0;stroke-opacity:1"
       d="m -94.129719,335.10932 -27.288401,37.55907 a 46.759614,46.759651 35.999991 0 1 12.97945,14.46774 l 40.237101,-23.2307 a 93.185477,93.185525 35.999991 0 0 -25.928223,-28.79615 z"
       id="path884-6-8-0-8-2"
       inkscape:connector-curvature="0" />
    <path
       style="fill:#296c92;fill-opacity:1;stroke:#ffffff;stroke-width:1.99549;stroke-linecap:round;stroke-linejoin:round;stroke-miterlimit:4;stroke-dasharray:none;stroke-dashoffset:0;stroke-opacity:1"
       d="m -129.52872,319.3487 -9.65254,45.41111 a 46.759614,46.759651 11.999991 0 1 17.74189,7.93773 l 27.309649,-37.58817 a 93.185477,93.185525 11.999991 0 0 -35.398989,-15.76065 z"
       id="path884-6-8-0-8-6"
       inkscape:connector-curvature="0" />
    <path
       style="fill:#296c92;fill-opacity:1;stroke:#ffffff;stroke-width:1.99549;stroke-linecap:round;stroke-linejoin:round;stroke-miterlimit:4;stroke-dasharray:none;stroke-dashoffset:0;stroke-opacity:1"
       d="m -168.27396,319.33108 9.65236,45.41114 a 46.759651,46.759614 77.999991 0 1 19.43657,0.0352 l 9.66009,-45.44633 a 93.185525,93.185477 77.999991 0 0 -38.74903,2e-5 z"
       id="path884-6-8-0-8-1"
       inkscape:connector-curvature="0" />
    <path
       style="fill:#296c92;fill-opacity:1;stroke:#ffffff;stroke-width:1.99549;stroke-linecap:round;stroke-linejoin:round;stroke-miterlimit:4;stroke-dasharray:none;stroke-dashoffset:0;stroke-opacity:1"
       d="m -203.67668,335.07407 27.28827,37.55918 a 46.759651,46.759614 53.999991 0 1 17.7705,-7.87342 l -9.65976,-45.44639 a 93.185525,93.185477 53.999991 0 0 -35.39899,15.76064 z"
       id="path884-6-8-0-8-64"
       inkscape:connector-curvature="0" />
    <path
       style="fill:#296c92;fill-opacity:1;stroke:#ffffff;stroke-width:1.99549;stroke-linecap:round;stroke-linejoin:round;stroke-miterlimit:4;stroke-dasharray:none;stroke-dashoffset:0;stroke-opacity:1"
       d="m -229.6154,363.85563 40.20576,23.21289 a 46.759651,46.759614 29.999991 0 1 13.03177,-14.42066 l -27.30936,-37.58838 a 93.185525,93.185477 29.999991 0 0 -25.92815,28.79614 z"
       id="path884-6-8-0-8-3"
       inkscape:connector-curvature="0" />
    <path
       style="fill:#296c92;fill-opacity:1;stroke:#ffffff;stroke-width:1.99549;stroke-linecap:round;stroke-linejoin:round;stroke-miterlimit:4;stroke-dasharray:none;stroke-dashoffset:0;stroke-opacity:1"
       d="m -241.60509,400.69909 46.17132,4.85288 a 46.759651,46.759614 5.999991 0 1 6.03972,-18.47441 l -40.23691,-23.231 a 93.185525,93.185477 5.999991 0 0 -11.97413,36.85253 z"
       id="path884-6-8-0-8-5"
       inkscape:connector-curvature="0" />
    <path
       style="fill:#296c92;fill-opacity:1;stroke:#ffffff;stroke-width:1.99549;stroke-linecap:round;stroke-linejoin:round;stroke-miterlimit:4;stroke-dasharray:none;stroke-dashoffset:0;stroke-opacity:1"
       d="m -237.57262,439.23394 44.15343,-14.34624 a 46.759614,46.759651 71.999991 0 1 -1.99665,-19.33379 l -46.20715,-4.85674 a 93.185477,93.185525 71.999991 0 0 4.05037,38.53677 z"
       id="path884-6-8-0-8-27"
       inkscape:connector-curvature="0" />
    <path
       style="fill:#296c92;fill-opacity:1;stroke:#ffffff;stroke-width:1.99549;stroke-linecap:round;stroke-linejoin:round;stroke-miterlimit:4;stroke-dasharray:none;stroke-dashoffset:0;stroke-opacity:1"
       d="m -218.17707,472.8268 34.50102,-31.06478 a 46.759614,46.759651 47.999991 0 1 -9.68778,-16.85019 l -44.18775,14.35729 a 93.185477,93.185525 47.999991 0 0 19.37451,33.55768 z"
       id="path884-6-8-0-8-38"
       inkscape:connector-curvature="0" />
  </g>
</svg>
