<?xml version="1.0" encoding="UTF-8" standalone="no"?>
<svg
   xmlns:dc="http://purl.org/dc/elements/1.1/"
   xmlns:cc="http://creativecommons.org/ns#"
   xmlns:rdf="http://www.w3.org/1999/02/22-rdf-syntax-ns#"
   xmlns:svg="http://www.w3.org/2000/svg"
   xmlns="http://www.w3.org/2000/svg"
   xmlns:sodipodi="http://sodipodi.sourceforge.net/DTD/sodipodi-0.dtd"
   xmlns:inkscape="http://www.inkscape.org/namespaces/inkscape"
   version="1.1"
   id="svg833"
   width="44.010365"
   height="51.265697"
   viewBox="0 0 44.010364 51.265697"
   sodipodi:docname="Arrow1.svg"
   inkscape:version="1.0.2 (e86c870879, 2021-01-15)"
   inkscape:export-filename="C:\Users\Maria\Arrow1.png"
   inkscape:export-xdpi="96"
   inkscape:export-ydpi="96">
  <metadata
     id="metadata839">
    <rdf:RDF>
      <cc:Work
         rdf:about="">
        <dc:format>image/svg+xml</dc:format>
        <dc:type
           rdf:resource="http://purl.org/dc/dcmitype/StillImage" />
        <dc:title />
      </cc:Work>
    </rdf:RDF>
  </metadata>
  <defs
     id="defs837" />
  <sodipodi:namedview
     pagecolor="#ffffff"
     bordercolor="#666666"
     borderopacity="1"
     objecttolerance="10"
     gridtolerance="10"
     guidetolerance="10"
     inkscape:pageopacity="0"
     inkscape:pageshadow="2"
     inkscape:window-width="2880"
     inkscape:window-height="1544"
     id="namedview835"
     showgrid="true"
     inkscape:snap-global="false"
     inkscape:zoom="10.556063"
     inkscape:cx="-41.747616"
     inkscape:cy="45.506672"
     inkscape:window-x="1909"
     inkscape:window-y="-11"
     inkscape:window-maximized="1"
     inkscape:current-layer="g841"
     inkscape:document-rotation="0">
    <inkscape:grid
       type="xygrid"
       id="grid831"
       originx="1.8946485"
       originy="2.0454474e-08" />
  </sodipodi:namedview>
  <g
     inkscape:groupmode="layer"
     inkscape:label="Image"
     id="g841"
     transform="translate(-113.21577,-2.9087459)">
    <path
       id="path845"
       style="fill:#000000;stroke-width:0.666667"
       d="m 135.03596,2.9166241 c -0.37303,0.085978 -0.70634,0.8699349 -1.27344,2.0937499 -2.44263,5.271216 -4.48047,9.895605 -4.48047,10.166016 0,0.161601 -0.71619,1.878587 -1.5918,3.814453 -0.8756,1.935866 -2.26072,5.02018 -3.07617,6.853516 -0.81545,1.833333 -2.19861,4.917649 -3.07422,6.853515 -0.8756,1.935867 -1.59179,3.663381 -1.59179,3.839844 0,0.176463 -0.57983,1.592148 -1.28907,3.146484 -5.053,11.073968 -6.07348,13.826172 -5.125,13.826172 0.13891,0 2.01326,-1.066542 4.16602,-2.371094 1.68817,-1.023016 3.58002,-1.959342 4.83203,-2.433593 0.0143,-0.0456 0.0256,-0.09264 0.0508,-0.132813 0.0141,-0.02246 0.0456,-0.02936 0.0703,-0.03906 0.0497,-0.01946 0.0864,-0.01883 0.12109,-0.02734 0.37405,-0.363934 3.971,-1.662111 4.79883,-1.662109 1.08691,0 2.38653,1.088592 4.375,3.666015 1.55585,2.016667 3.01764,3.666063 3.24805,3.664063 0.23041,-0.002 1.60887,-1.653266 3.06445,-3.667969 1.45558,-2.014704 3.14398,-3.662109 3.75195,-3.662109 1.78833,0 9.80019,3.455089 12.80665,5.523437 2.18598,1.503882 2.97909,1.093612 1.98047,-1.025391 -2.1811,-4.628166 -4.85156,-10.597624 -4.85156,-10.845703 0,-0.157688 -0.9,-2.250647 -2,-4.652343 -1.1,-2.4017 -2,-4.500777 -2,-4.664063 0,-0.163284 -0.78204,-2.031191 -1.73828,-4.150391 -0.95624,-2.119199 -2.12209,-4.753515 -2.58985,-5.853515 -0.46777,-1.1 -1.52492,-3.498699 -2.34961,-5.332031 -0.8247,-1.833335 -2.07462,-4.683985 -2.77735,-6.333985 -2.104,-4.940221 -2.83531,-6.7370521 -3.45702,-6.5937559 z" />
  </g>
</svg>
