<?xml version="1.0" encoding="UTF-8" standalone="no"?>
<svg
   xmlns:dc="http://purl.org/dc/elements/1.1/"
   xmlns:cc="http://creativecommons.org/ns#"
   xmlns:rdf="http://www.w3.org/1999/02/22-rdf-syntax-ns#"
   xmlns:svg="http://www.w3.org/2000/svg"
   xmlns="http://www.w3.org/2000/svg"
   xmlns:sodipodi="http://sodipodi.sourceforge.net/DTD/sodipodi-0.dtd"
   xmlns:inkscape="http://www.inkscape.org/namespaces/inkscape"
   width="1105.9182mm"
   height="215.80457mm"
   viewBox="0 0 1105.9182 215.80457"
   version="1.1"
   id="svg891"
   inkscape:version="1.0.2 (e86c870879, 2021-01-15)"
   sodipodi:docname="five_wheelsS2_15.svg"
   inkscape:export-filename="C:\Users\Maria\Dropbox\Doctorat\Testing MAP elicitation\Left_skew_new.png"
   inkscape:export-xdpi="96"
   inkscape:export-ydpi="96">
  <defs
     id="defs885" />
  <sodipodi:namedview
     id="base"
     pagecolor="#ffffff"
     bordercolor="#666666"
     borderopacity="1.0"
     inkscape:pageopacity="0.0"
     inkscape:pageshadow="2"
     inkscape:zoom="0.34103623"
     inkscape:cx="1261.098"
     inkscape:cy="652.08587"
     inkscape:document-units="mm"
     inkscape:current-layer="layer1"
     inkscape:document-rotation="0"
     showgrid="false"
     inkscape:window-width="2880"
     inkscape:window-height="1544"
     inkscape:window-x="1909"
     inkscape:window-y="-11"
     inkscape:window-maximized="1"
     showguides="false"
     inkscape:snap-grids="true" />
  <metadata
     id="metadata888">
    <rdf:RDF>
      <cc:Work
         rdf:about="">
        <dc:format>image/svg+xml</dc:format>
        <dc:type
           rdf:resource="http://purl.org/dc/dcmitype/StillImage" />
        <dc:title></dc:title>
      </cc:Work>
    </rdf:RDF>
  </metadata>
  <g
     inkscape:label="Layer 1"
     inkscape:groupmode="layer"
     id="layer1"
     transform="translate(527.01187,579.04574)">
    <text
       xml:space="preserve"
       style="font-style:normal;font-variant:normal;font-weight:normal;font-stretch:normal;font-size:16.9333px;line-height:1.25;font-family:sans-serif;-inkscape-font-specification:'sans-serif, Normal';font-variant-ligatures:normal;font-variant-caps:normal;font-variant-numeric:normal;font-variant-east-asian:normal;letter-spacing:0px;word-spacing:0px;fill:#000000;fill-opacity:1;stroke:none;stroke-width:0.264583"
       x="259.29166"
       y="133.80357"
       id="text1541"><tspan
         sodipodi:role="line"
         id="tspan1543"
         x="259.29166"
         y="133.80357" /></text>
    <g
       id="g1464">
      <path
         style="fill:#f8cdc7;fill-opacity:1;stroke:#ffffff;stroke-width:1.99549;stroke-linecap:round;stroke-linejoin:round;stroke-miterlimit:4;stroke-dasharray:none;stroke-dashoffset:0;stroke-opacity:1"
         d="m 53.27916,-562.98908 -9.65251,45.41111 a 46.759613,46.759651 11.999991 0 1 17.74189,7.93771 l 27.30962,-37.58817 a 93.185476,93.185524 11.999991 0 0 -35.399,-15.76065 z"
         id="path884-6-8-0-8-83"
         inkscape:connector-curvature="0" />
      <path
         style="fill:#f8cdc7;fill-opacity:1;stroke:#ffffff;stroke-width:1.99549;stroke-linecap:round;stroke-linejoin:round;stroke-miterlimit:4;stroke-dasharray:none;stroke-dashoffset:0;stroke-opacity:1"
         d="m -20.87252,-547.24609 27.28819,37.55919 a 46.759651,46.759614 53.999991 0 1 17.77052,-7.87342 l -9.65972,-45.44641 a 93.185525,93.185477 53.999991 0 0 -35.39899,15.76064 z"
         id="path884-6-8-0-8-8-5"
         inkscape:connector-curvature="0" />
      <path
         style="fill:#f8cdc7;fill-opacity:1;stroke:#ffffff;stroke-width:1.99549;stroke-linecap:round;stroke-linejoin:round;stroke-miterlimit:4;stroke-dasharray:none;stroke-dashoffset:0;stroke-opacity:1"
         d="m 14.53013,-562.98909 9.65235,45.41114 a 46.759651,46.759614 77.999991 0 1 19.43659,0.0352 l 9.66009,-45.44631 a 93.185525,93.185477 77.999991 0 0 -38.74903,-10e-6 z"
         id="path884-6-8-0-8-7-6"
         inkscape:connector-curvature="0" />
      <path
         style="fill:#f8cdc7;fill-opacity:1;stroke:#ffffff;stroke-width:1.99549;stroke-linecap:round;stroke-linejoin:round;stroke-miterlimit:4;stroke-dasharray:none;stroke-dashoffset:0;stroke-opacity:1"
         d="m -46.81122,-518.46456 40.20566,23.21291 A 46.759651,46.759614 29.999991 0 1 6.42626,-509.6723 l -27.30936,-37.58838 a 93.185525,93.185477 29.999991 0 0 -25.92812,28.79612 z"
         id="path884-6-8-0-8-84-2"
         inkscape:connector-curvature="0" />
      <path
         style="fill:#f8cdc7;fill-opacity:1;stroke:#ffffff;stroke-width:1.99549;stroke-linecap:round;stroke-linejoin:round;stroke-miterlimit:4;stroke-dasharray:none;stroke-dashoffset:0;stroke-opacity:1"
         d="m -58.78538,-481.61204 46.17139,4.85288 a 46.759651,46.759614 5.999991 0 1 6.03969,-18.47442 l -40.23692,-23.23098 a 93.185525,93.185477 5.999991 0 0 -11.97416,36.85252 z"
         id="path884-6-8-0-8-76-1"
         inkscape:connector-curvature="0" />
      <path
         style="fill:#f8cdc7;fill-opacity:1;stroke:#ffffff;stroke-width:1.99549;stroke-linecap:round;stroke-linejoin:round;stroke-miterlimit:4;stroke-dasharray:none;stroke-dashoffset:0;stroke-opacity:1"
         d="m -54.73501,-443.0753 44.15339,-14.34622 a 46.759614,46.759651 71.999991 0 1 -1.99687,-19.33376 l -46.20709,-4.85674 a 93.185477,93.185525 71.999991 0 0 4.05037,38.53675 z"
         id="path884-6-8-0-8-81-9"
         inkscape:connector-curvature="0" />
      <path
         style="fill:#f8cdc7;fill-opacity:1;stroke:#ffffff;stroke-width:1.99549;stroke-linecap:round;stroke-linejoin:round;stroke-miterlimit:4;stroke-dasharray:none;stroke-dashoffset:0;stroke-opacity:1"
         d="m -35.36054,-409.51765 34.50105,-31.06475 a 46.759614,46.759651 47.999991 0 1 -9.6878,-16.85018 l -44.18772,14.35728 a 93.185477,93.185525 47.999991 0 0 19.37457,33.55764 z"
         id="path884-6-8-0-8-9-4"
         inkscape:connector-curvature="0" />
      <path
         style="fill:#296c92;fill-opacity:1;stroke:#ffffff;stroke-width:1.99549;stroke-linecap:round;stroke-linejoin:round;stroke-miterlimit:4;stroke-dasharray:none;stroke-dashoffset:0;stroke-opacity:1"
         d="m -4.02538,-386.72951 18.8831,-42.41189 a 46.759614,46.759651 23.999991 0 1 -15.7038,-11.45303 l -34.52788,31.08881 a 93.185477,93.185525 23.999991 0 0 31.34868,22.7761 z"
         id="path884-6-8-0-8-2-6"
         inkscape:connector-curvature="0" />
      <path
         style="fill:#296c92;fill-opacity:1;stroke:#ffffff;stroke-width:1.99549;stroke-linecap:round;stroke-linejoin:round;stroke-miterlimit:4;stroke-dasharray:none;stroke-dashoffset:0;stroke-opacity:1"
         d="m 33.87687,-378.67317 1.3e-4,-46.42565 a 46.759651,46.759614 89.999991 0 1 -19.00454,-4.07552 l -18.89784,42.44479 a 93.185525,93.185477 89.999991 0 0 37.90225,8.05637 z"
         id="path884-6-8-0-8-6-7"
         inkscape:connector-curvature="0" />
      <path
         style="fill:#296c92;fill-opacity:1;stroke:#ffffff;stroke-width:1.99549;stroke-linecap:round;stroke-linejoin:round;stroke-miterlimit:4;stroke-dasharray:none;stroke-dashoffset:0;stroke-opacity:1"
         d="m 71.77912,-386.71152 -18.88294,-42.41197 a 46.759651,46.759614 65.999991 0 1 -19.01916,4.00666 l -1.6e-4,46.46167 a 93.185525,93.185477 65.999991 0 0 37.90226,-8.05638 z"
         id="path884-6-8-0-8-1-3"
         inkscape:connector-curvature="0" />
      <path
         style="fill:#296c92;fill-opacity:1;stroke:#ffffff;stroke-width:1.99549;stroke-linecap:round;stroke-linejoin:round;stroke-miterlimit:4;stroke-dasharray:none;stroke-dashoffset:0;stroke-opacity:1"
         d="m 103.13504,-409.47114 -34.50093,-31.06488 a 46.759651,46.759614 41.999991 0 1 -15.74521,11.39606 l 18.89751,42.44492 a 93.185525,93.185477 41.999991 0 0 31.34862,-22.7761 z"
         id="path884-6-8-0-8-64-4"
         inkscape:connector-curvature="0" />
      <path
         style="fill:#296c92;fill-opacity:1;stroke:#ffffff;stroke-width:1.99549;stroke-linecap:round;stroke-linejoin:round;stroke-miterlimit:4;stroke-dasharray:none;stroke-dashoffset:0;stroke-opacity:1"
         d="m 122.52292,-443.0167 -44.1534,-14.34639 a 46.759651,46.759614 17.999991 0 1 -9.74877,16.81498 l 34.52765,31.08905 a 93.185525,93.185477 17.999991 0 0 19.37451,-33.55764 z"
         id="path884-6-8-0-8-3-4"
         inkscape:connector-curvature="0" />
      <path
         style="fill:#296c92;fill-opacity:1;stroke:#ffffff;stroke-width:1.99549;stroke-linecap:round;stroke-linejoin:round;stroke-miterlimit:4;stroke-dasharray:none;stroke-dashoffset:0;stroke-opacity:1"
         d="m 126.59042,-481.54786 -46.17133,4.85273 a 46.759614,46.759651 83.999991 0 1 -2.06669,19.32643 l 44.18763,14.35761 a 93.185477,93.185525 83.999991 0 0 4.05039,-38.53677 z"
         id="path884-6-8-0-8-5-0"
         inkscape:connector-curvature="0" />
      <path
         style="fill:#296c92;fill-opacity:1;stroke:#ffffff;stroke-width:1.99549;stroke-linecap:round;stroke-linejoin:round;stroke-miterlimit:4;stroke-dasharray:none;stroke-dashoffset:0;stroke-opacity:1"
         d="m 114.63423,-518.40223 -40.20582,23.21276 a 46.759614,46.759651 59.999991 0 1 5.97275,18.49618 l 46.20717,-4.8564 a 93.185477,93.185525 59.999991 0 0 -11.9741,-36.85254 z"
         id="path884-6-8-0-8-27-1"
         inkscape:connector-curvature="0" />
      <path
         style="fill:#f8cdc7;fill-opacity:1;stroke:#ffffff;stroke-width:1.99549;stroke-linecap:round;stroke-linejoin:round;stroke-miterlimit:4;stroke-dasharray:none;stroke-dashoffset:0;stroke-opacity:1"
         d="m 88.67816,-547.22843 -27.28836,37.55911 a 46.759614,46.759651 35.999991 0 1 12.97945,14.46775 l 40.23708,-23.23069 a 93.185477,93.185525 35.999991 0 0 -25.92817,-28.79617 z"
         id="path884-6-8-0-8-38-7"
         inkscape:connector-curvature="0" />
    </g>
    <g
       id="g1498">
      <path
         style="fill:#296c92;fill-opacity:1;stroke:#ffffff;stroke-width:1.99549;stroke-linecap:round;stroke-linejoin:round;stroke-miterlimit:4;stroke-dasharray:none;stroke-dashoffset:0;stroke-opacity:1"
         d="m 504.08685,-562.98909 -9.65251,45.41111 a 46.759613,46.759651 11.999991 0 1 17.74189,7.93771 l 27.30962,-37.58817 a 93.185476,93.185524 11.999991 0 0 -35.399,-15.76065 z"
         id="path884-6-8-0-8-0"
         inkscape:connector-curvature="0" />
      <path
         style="fill:#296c92;fill-opacity:1;stroke:#ffffff;stroke-width:1.99549;stroke-linecap:round;stroke-linejoin:round;stroke-miterlimit:4;stroke-dasharray:none;stroke-dashoffset:0;stroke-opacity:1"
         d="m 429.93517,-547.2461 27.28819,37.55919 a 46.759651,46.759614 53.999991 0 1 17.77052,-7.87342 l -9.65972,-45.44641 a 93.185525,93.185477 53.999991 0 0 -35.39899,15.76064 z"
         id="path884-6-8-0-8-8-2"
         inkscape:connector-curvature="0" />
      <path
         style="fill:#296c92;fill-opacity:1;stroke:#ffffff;stroke-width:1.99549;stroke-linecap:round;stroke-linejoin:round;stroke-miterlimit:4;stroke-dasharray:none;stroke-dashoffset:0;stroke-opacity:1"
         d="m 465.33782,-562.9891 9.65235,45.41114 a 46.759651,46.759614 77.999991 0 1 19.43659,0.0352 l 9.66009,-45.44631 a 93.185525,93.185477 77.999991 0 0 -38.74903,-10e-6 z"
         id="path884-6-8-0-8-7-2"
         inkscape:connector-curvature="0" />
      <path
         style="fill:#296c92;fill-opacity:1;stroke:#ffffff;stroke-width:1.99549;stroke-linecap:round;stroke-linejoin:round;stroke-miterlimit:4;stroke-dasharray:none;stroke-dashoffset:0;stroke-opacity:1"
         d="m 403.99647,-518.46457 40.20566,23.21291 a 46.759651,46.759614 29.999991 0 1 13.03182,-14.42065 l -27.30936,-37.58838 a 93.185525,93.185477 29.999991 0 0 -25.92812,28.79612 z"
         id="path884-6-8-0-8-84-4"
         inkscape:connector-curvature="0" />
      <path
         style="fill:#296c92;fill-opacity:1;stroke:#ffffff;stroke-width:1.99549;stroke-linecap:round;stroke-linejoin:round;stroke-miterlimit:4;stroke-dasharray:none;stroke-dashoffset:0;stroke-opacity:1"
         d="m 392.02231,-481.61205 46.17139,4.85288 a 46.759651,46.759614 5.999991 0 1 6.03969,-18.47442 l -40.23692,-23.23098 a 93.185525,93.185477 5.999991 0 0 -11.97416,36.85252 z"
         id="path884-6-8-0-8-76-4"
         inkscape:connector-curvature="0" />
      <path
         style="fill:#296c92;fill-opacity:1;stroke:#ffffff;stroke-width:1.99549;stroke-linecap:round;stroke-linejoin:round;stroke-miterlimit:4;stroke-dasharray:none;stroke-dashoffset:0;stroke-opacity:1"
         d="m 396.07268,-443.07531 44.15339,-14.34622 a 46.759614,46.759651 71.999991 0 1 -1.99687,-19.33376 l -46.20709,-4.85674 a 93.185477,93.185525 71.999991 0 0 4.05037,38.53675 z"
         id="path884-6-8-0-8-81-6"
         inkscape:connector-curvature="0" />
      <path
         style="fill:#296c92;fill-opacity:1;stroke:#ffffff;stroke-width:1.99549;stroke-linecap:round;stroke-linejoin:round;stroke-miterlimit:4;stroke-dasharray:none;stroke-dashoffset:0;stroke-opacity:1"
         d="m 415.44715,-409.51766 34.50105,-31.06475 a 46.759614,46.759651 47.999991 0 1 -9.6878,-16.85018 l -44.18772,14.35728 a 93.185477,93.185525 47.999991 0 0 19.37457,33.55764 z"
         id="path884-6-8-0-8-9-2"
         inkscape:connector-curvature="0" />
      <path
         style="fill:#296c92;fill-opacity:1;stroke:#ffffff;stroke-width:1.99549;stroke-linecap:round;stroke-linejoin:round;stroke-miterlimit:4;stroke-dasharray:none;stroke-dashoffset:0;stroke-opacity:1"
         d="m 446.78231,-386.72952 18.8831,-42.41189 a 46.759614,46.759651 23.999991 0 1 -15.7038,-11.45303 l -34.52788,31.08881 a 93.185477,93.185525 23.999991 0 0 31.34868,22.7761 z"
         id="path884-6-8-0-8-2-8"
         inkscape:connector-curvature="0" />
      <path
         style="fill:#296c92;fill-opacity:1;stroke:#ffffff;stroke-width:1.99549;stroke-linecap:round;stroke-linejoin:round;stroke-miterlimit:4;stroke-dasharray:none;stroke-dashoffset:0;stroke-opacity:1"
         d="m 484.68456,-378.67318 1.3e-4,-46.42565 a 46.759651,46.759614 89.999991 0 1 -19.00454,-4.07552 l -18.89784,42.44479 a 93.185525,93.185477 89.999991 0 0 37.90225,8.05637 z"
         id="path884-6-8-0-8-6-4"
         inkscape:connector-curvature="0" />
      <path
         style="fill:#296c92;fill-opacity:1;stroke:#ffffff;stroke-width:1.99549;stroke-linecap:round;stroke-linejoin:round;stroke-miterlimit:4;stroke-dasharray:none;stroke-dashoffset:0;stroke-opacity:1"
         d="m 522.58681,-386.71153 -18.88294,-42.41197 a 46.759651,46.759614 65.999991 0 1 -19.01916,4.00666 l -1.6e-4,46.46167 a 93.185525,93.185477 65.999991 0 0 37.90226,-8.05638 z"
         id="path884-6-8-0-8-1-1"
         inkscape:connector-curvature="0" />
      <path
         style="fill:#296c92;fill-opacity:1;stroke:#ffffff;stroke-width:1.99549;stroke-linecap:round;stroke-linejoin:round;stroke-miterlimit:4;stroke-dasharray:none;stroke-dashoffset:0;stroke-opacity:1"
         d="m 553.94273,-409.47115 -34.50093,-31.06488 a 46.759651,46.759614 41.999991 0 1 -15.74521,11.39606 l 18.89751,42.44492 a 93.185525,93.185477 41.999991 0 0 31.34862,-22.7761 z"
         id="path884-6-8-0-8-64-7"
         inkscape:connector-curvature="0" />
      <path
         style="fill:#296c92;fill-opacity:1;stroke:#ffffff;stroke-width:1.99549;stroke-linecap:round;stroke-linejoin:round;stroke-miterlimit:4;stroke-dasharray:none;stroke-dashoffset:0;stroke-opacity:1"
         d="m 573.33061,-443.01671 -44.1534,-14.34639 a 46.759651,46.759614 17.999991 0 1 -9.74877,16.81498 l 34.52765,31.08905 a 93.185525,93.185477 17.999991 0 0 19.37451,-33.55764 z"
         id="path884-6-8-0-8-3-2"
         inkscape:connector-curvature="0" />
      <path
         style="fill:#296c92;fill-opacity:1;stroke:#ffffff;stroke-width:1.99549;stroke-linecap:round;stroke-linejoin:round;stroke-miterlimit:4;stroke-dasharray:none;stroke-dashoffset:0;stroke-opacity:1"
         d="m 577.39811,-481.54787 -46.17133,4.85273 a 46.759614,46.759651 83.999991 0 1 -2.06669,19.32643 l 44.18763,14.35761 a 93.185477,93.185525 83.999991 0 0 4.05039,-38.53677 z"
         id="path884-6-8-0-8-5-7"
         inkscape:connector-curvature="0" />
      <path
         style="fill:#296c92;fill-opacity:1;stroke:#ffffff;stroke-width:1.99549;stroke-linecap:round;stroke-linejoin:round;stroke-miterlimit:4;stroke-dasharray:none;stroke-dashoffset:0;stroke-opacity:1"
         d="m 565.44192,-518.40224 -40.20582,23.21276 a 46.759614,46.759651 59.999991 0 1 5.97275,18.49618 l 46.20717,-4.8564 a 93.185477,93.185525 59.999991 0 0 -11.9741,-36.85254 z"
         id="path884-6-8-0-8-27-0"
         inkscape:connector-curvature="0" />
      <path
         style="fill:#296c92;fill-opacity:1;stroke:#ffffff;stroke-width:1.99549;stroke-linecap:round;stroke-linejoin:round;stroke-miterlimit:4;stroke-dasharray:none;stroke-dashoffset:0;stroke-opacity:1"
         d="m 539.48585,-547.22844 -27.28836,37.55911 a 46.759614,46.759651 35.999991 0 1 12.97945,14.46775 l 40.23708,-23.23069 a 93.185477,93.185525 35.999991 0 0 -25.92817,-28.79617 z"
         id="path884-6-8-0-8-38-6"
         inkscape:connector-curvature="0" />
    </g>
    <g
       id="g1481">
      <path
         style="fill:#f8cdc7;fill-opacity:1;stroke:#ffffff;stroke-width:1.99549;stroke-linecap:round;stroke-linejoin:round;stroke-miterlimit:4;stroke-dasharray:none;stroke-dashoffset:0;stroke-opacity:1"
         d="m 278.68295,-562.98908 -9.65251,45.41111 a 46.759613,46.759651 11.999991 0 1 17.74189,7.93771 l 27.30962,-37.58817 a 93.185476,93.185524 11.999991 0 0 -35.399,-15.76065 z"
         id="path884-6-8-0-8-83-3"
         inkscape:connector-curvature="0" />
      <path
         style="fill:#f8cdc7;fill-opacity:1;stroke:#ffffff;stroke-width:1.99549;stroke-linecap:round;stroke-linejoin:round;stroke-miterlimit:4;stroke-dasharray:none;stroke-dashoffset:0;stroke-opacity:1"
         d="m 204.53127,-547.24609 27.28819,37.55919 a 46.759651,46.759614 53.999991 0 1 17.77052,-7.87342 l -9.65972,-45.44641 a 93.185525,93.185477 53.999991 0 0 -35.39899,15.76064 z"
         id="path884-6-8-0-8-8-5-0"
         inkscape:connector-curvature="0" />
      <path
         style="fill:#f8cdc7;fill-opacity:1;stroke:#ffffff;stroke-width:1.99549;stroke-linecap:round;stroke-linejoin:round;stroke-miterlimit:4;stroke-dasharray:none;stroke-dashoffset:0;stroke-opacity:1"
         d="m 239.93392,-562.98909 9.65235,45.41114 a 46.759651,46.759614 77.999991 0 1 19.43659,0.0352 l 9.66009,-45.44631 a 93.185525,93.185477 77.999991 0 0 -38.74903,-10e-6 z"
         id="path884-6-8-0-8-7-6-2"
         inkscape:connector-curvature="0" />
      <path
         style="fill:#f8cdc7;fill-opacity:1;stroke:#ffffff;stroke-width:1.99549;stroke-linecap:round;stroke-linejoin:round;stroke-miterlimit:4;stroke-dasharray:none;stroke-dashoffset:0;stroke-opacity:1"
         d="m 178.59257,-518.46456 40.20566,23.21291 a 46.759651,46.759614 29.999991 0 1 13.03182,-14.42065 l -27.30936,-37.58838 a 93.185525,93.185477 29.999991 0 0 -25.92812,28.79612 z"
         id="path884-6-8-0-8-84-2-7"
         inkscape:connector-curvature="0" />
      <path
         style="fill:#f8cdc7;fill-opacity:1;stroke:#ffffff;stroke-width:1.99549;stroke-linecap:round;stroke-linejoin:round;stroke-miterlimit:4;stroke-dasharray:none;stroke-dashoffset:0;stroke-opacity:1"
         d="m 166.61841,-481.61204 46.17139,4.85288 a 46.759651,46.759614 5.999991 0 1 6.03969,-18.47442 l -40.23692,-23.23098 a 93.185525,93.185477 5.999991 0 0 -11.97416,36.85252 z"
         id="path884-6-8-0-8-76-1-8"
         inkscape:connector-curvature="0" />
      <path
         style="fill:#f8cdc7;fill-opacity:1;stroke:#ffffff;stroke-width:1.99549;stroke-linecap:round;stroke-linejoin:round;stroke-miterlimit:4;stroke-dasharray:none;stroke-dashoffset:0;stroke-opacity:1"
         d="m 170.66878,-443.0753 44.15339,-14.34622 a 46.759614,46.759651 71.999991 0 1 -1.99687,-19.33376 l -46.20709,-4.85674 a 93.185477,93.185525 71.999991 0 0 4.05037,38.53675 z"
         id="path884-6-8-0-8-81-9-5"
         inkscape:connector-curvature="0" />
      <path
         style="fill:#296c92;fill-opacity:1;stroke:#ffffff;stroke-width:1.99549;stroke-linecap:round;stroke-linejoin:round;stroke-miterlimit:4;stroke-dasharray:none;stroke-dashoffset:0;stroke-opacity:1"
         d="m 190.04325,-409.51765 34.50105,-31.06475 a 46.759614,46.759651 47.999991 0 1 -9.6878,-16.85018 l -44.18772,14.35728 a 93.185477,93.185525 47.999991 0 0 19.37457,33.55764 z"
         id="path884-6-8-0-8-9-4-3"
         inkscape:connector-curvature="0" />
      <path
         style="fill:#296c92;fill-opacity:1;stroke:#ffffff;stroke-width:1.99549;stroke-linecap:round;stroke-linejoin:round;stroke-miterlimit:4;stroke-dasharray:none;stroke-dashoffset:0;stroke-opacity:1"
         d="m 221.37841,-386.72951 18.8831,-42.41189 a 46.759614,46.759651 23.999991 0 1 -15.7038,-11.45303 l -34.52788,31.08881 a 93.185477,93.185525 23.999991 0 0 31.34868,22.7761 z"
         id="path884-6-8-0-8-2-6-9"
         inkscape:connector-curvature="0" />
      <path
         style="fill:#296c92;fill-opacity:1;stroke:#ffffff;stroke-width:1.99549;stroke-linecap:round;stroke-linejoin:round;stroke-miterlimit:4;stroke-dasharray:none;stroke-dashoffset:0;stroke-opacity:1"
         d="m 259.28066,-378.67317 1.3e-4,-46.42565 a 46.759651,46.759614 89.999991 0 1 -19.00454,-4.07552 l -18.89784,42.44479 a 93.185525,93.185477 89.999991 0 0 37.90225,8.05637 z"
         id="path884-6-8-0-8-6-7-5"
         inkscape:connector-curvature="0" />
      <path
         style="fill:#296c92;fill-opacity:1;stroke:#ffffff;stroke-width:1.99549;stroke-linecap:round;stroke-linejoin:round;stroke-miterlimit:4;stroke-dasharray:none;stroke-dashoffset:0;stroke-opacity:1"
         d="m 297.18291,-386.71152 -18.88294,-42.41197 a 46.759651,46.759614 65.999991 0 1 -19.01916,4.00666 l -1.6e-4,46.46167 a 93.185525,93.185477 65.999991 0 0 37.90226,-8.05638 z"
         id="path884-6-8-0-8-1-3-0"
         inkscape:connector-curvature="0" />
      <path
         style="fill:#296c92;fill-opacity:1;stroke:#ffffff;stroke-width:1.99549;stroke-linecap:round;stroke-linejoin:round;stroke-miterlimit:4;stroke-dasharray:none;stroke-dashoffset:0;stroke-opacity:1"
         d="m 328.53883,-409.47114 -34.50093,-31.06488 a 46.759651,46.759614 41.999991 0 1 -15.74521,11.39606 l 18.89751,42.44492 a 93.185525,93.185477 41.999991 0 0 31.34862,-22.7761 z"
         id="path884-6-8-0-8-64-4-6"
         inkscape:connector-curvature="0" />
      <path
         style="fill:#296c92;fill-opacity:1;stroke:#ffffff;stroke-width:1.99549;stroke-linecap:round;stroke-linejoin:round;stroke-miterlimit:4;stroke-dasharray:none;stroke-dashoffset:0;stroke-opacity:1"
         d="m 347.92671,-443.0167 -44.1534,-14.34639 a 46.759651,46.759614 17.999991 0 1 -9.74877,16.81498 l 34.52765,31.08905 a 93.185525,93.185477 17.999991 0 0 19.37451,-33.55764 z"
         id="path884-6-8-0-8-3-4-7"
         inkscape:connector-curvature="0" />
      <path
         style="fill:#296c92;fill-opacity:1;stroke:#ffffff;stroke-width:1.99549;stroke-linecap:round;stroke-linejoin:round;stroke-miterlimit:4;stroke-dasharray:none;stroke-dashoffset:0;stroke-opacity:1"
         d="m 351.99421,-481.54786 -46.17133,4.85273 a 46.759614,46.759651 83.999991 0 1 -2.06669,19.32643 l 44.18763,14.35761 a 93.185477,93.185525 83.999991 0 0 4.05039,-38.53677 z"
         id="path884-6-8-0-8-5-0-0"
         inkscape:connector-curvature="0" />
      <path
         style="fill:#296c92;fill-opacity:1;stroke:#ffffff;stroke-width:1.99549;stroke-linecap:round;stroke-linejoin:round;stroke-miterlimit:4;stroke-dasharray:none;stroke-dashoffset:0;stroke-opacity:1"
         d="m 340.03802,-518.40223 -40.20582,23.21276 a 46.759614,46.759651 59.999991 0 1 5.97275,18.49618 l 46.20717,-4.8564 a 93.185477,93.185525 59.999991 0 0 -11.9741,-36.85254 z"
         id="path884-6-8-0-8-27-1-5"
         inkscape:connector-curvature="0" />
      <path
         style="fill:#296c92;fill-opacity:1;stroke:#ffffff;stroke-width:1.99549;stroke-linecap:round;stroke-linejoin:round;stroke-miterlimit:4;stroke-dasharray:none;stroke-dashoffset:0;stroke-opacity:1"
         d="m 314.08195,-547.22843 -27.28836,37.55911 a 46.759614,46.759651 35.999991 0 1 12.97945,14.46775 l 40.23708,-23.23069 a 93.185477,93.185525 35.999991 0 0 -25.92817,-28.79617 z"
         id="path884-6-8-0-8-38-7-1"
         inkscape:connector-curvature="0" />
    </g>
    <g
       id="g1447">
      <path
         style="fill:#f8cdc7;fill-opacity:1;stroke:#ffffff;stroke-width:1.99549;stroke-linecap:round;stroke-linejoin:round;stroke-miterlimit:4;stroke-dasharray:none;stroke-dashoffset:0;stroke-opacity:1"
         d="m -172.12466,-562.98907 -9.65251,45.41111 a 46.759613,46.759651 11.999991 0 1 17.74189,7.93771 l 27.30962,-37.58817 a 93.185476,93.185524 11.999991 0 0 -35.399,-15.76065 z"
         id="path884-6-8-0-8-98"
         inkscape:connector-curvature="0" />
      <path
         style="fill:#f8cdc7;fill-opacity:1;stroke:#ffffff;stroke-width:1.99549;stroke-linecap:round;stroke-linejoin:round;stroke-miterlimit:4;stroke-dasharray:none;stroke-dashoffset:0;stroke-opacity:1"
         d="m -246.27634,-547.24608 27.28819,37.55919 a 46.759651,46.759614 53.999991 0 1 17.77052,-7.87342 l -9.65972,-45.44641 a 93.185525,93.185477 53.999991 0 0 -35.39899,15.76064 z"
         id="path884-6-8-0-8-8-27"
         inkscape:connector-curvature="0" />
      <path
         style="fill:#f8cdc7;fill-opacity:1;stroke:#ffffff;stroke-width:1.99549;stroke-linecap:round;stroke-linejoin:round;stroke-miterlimit:4;stroke-dasharray:none;stroke-dashoffset:0;stroke-opacity:1"
         d="m -210.87369,-562.98908 9.65235,45.41114 a 46.759651,46.759614 77.999991 0 1 19.43659,0.0352 l 9.66009,-45.44631 a 93.185525,93.185477 77.999991 0 0 -38.74903,-10e-6 z"
         id="path884-6-8-0-8-7-8"
         inkscape:connector-curvature="0" />
      <path
         style="fill:#f8cdc7;fill-opacity:1;stroke:#ffffff;stroke-width:1.99549;stroke-linecap:round;stroke-linejoin:round;stroke-miterlimit:4;stroke-dasharray:none;stroke-dashoffset:0;stroke-opacity:1"
         d="m -272.21504,-518.46455 40.20566,23.21291 a 46.759651,46.759614 29.999991 0 1 13.03182,-14.42065 l -27.30936,-37.58838 a 93.185525,93.185477 29.999991 0 0 -25.92812,28.79612 z"
         id="path884-6-8-0-8-84-24"
         inkscape:connector-curvature="0" />
      <path
         style="fill:#f8cdc7;fill-opacity:1;stroke:#ffffff;stroke-width:1.99549;stroke-linecap:round;stroke-linejoin:round;stroke-miterlimit:4;stroke-dasharray:none;stroke-dashoffset:0;stroke-opacity:1"
         d="m -284.1892,-481.61203 46.17139,4.85288 a 46.759651,46.759614 5.999991 0 1 6.03969,-18.47442 l -40.23692,-23.23098 a 93.185525,93.185477 5.999991 0 0 -11.97416,36.85252 z"
         id="path884-6-8-0-8-76-5"
         inkscape:connector-curvature="0" />
      <path
         style="fill:#f8cdc7;fill-opacity:1;stroke:#ffffff;stroke-width:1.99549;stroke-linecap:round;stroke-linejoin:round;stroke-miterlimit:4;stroke-dasharray:none;stroke-dashoffset:0;stroke-opacity:1"
         d="m -280.13883,-443.07529 44.15339,-14.34622 a 46.759614,46.759651 71.999991 0 1 -1.99687,-19.33376 l -46.20709,-4.85674 a 93.185477,93.185525 71.999991 0 0 4.05037,38.53675 z"
         id="path884-6-8-0-8-81-2"
         inkscape:connector-curvature="0" />
      <path
         style="fill:#f8cdc7;fill-opacity:1;stroke:#ffffff;stroke-width:1.99549;stroke-linecap:round;stroke-linejoin:round;stroke-miterlimit:4;stroke-dasharray:none;stroke-dashoffset:0;stroke-opacity:1"
         d="m -260.76436,-409.51764 34.50105,-31.06475 a 46.759614,46.759651 47.999991 0 1 -9.6878,-16.85018 l -44.18772,14.35728 a 93.185477,93.185525 47.999991 0 0 19.37457,33.55764 z"
         id="path884-6-8-0-8-9-28"
         inkscape:connector-curvature="0" />
      <path
         style="fill:#f8cdc7;fill-opacity:1;stroke:#ffffff;stroke-width:1.99549;stroke-linecap:round;stroke-linejoin:round;stroke-miterlimit:4;stroke-dasharray:none;stroke-dashoffset:0;stroke-opacity:1"
         d="m -229.4292,-386.7295 18.8831,-42.41189 a 46.759614,46.759651 23.999991 0 1 -15.7038,-11.45303 l -34.52788,31.08881 a 93.185477,93.185525 23.999991 0 0 31.34868,22.7761 z"
         id="path884-6-8-0-8-2-4"
         inkscape:connector-curvature="0" />
      <path
         style="fill:#f8cdc7;fill-opacity:1;stroke:#ffffff;stroke-width:1.99549;stroke-linecap:round;stroke-linejoin:round;stroke-miterlimit:4;stroke-dasharray:none;stroke-dashoffset:0;stroke-opacity:1"
         d="m -191.52695,-378.67316 1.3e-4,-46.42565 a 46.759651,46.759614 89.999991 0 1 -19.00454,-4.07552 l -18.89784,42.44479 a 93.185525,93.185477 89.999991 0 0 37.90225,8.05637 z"
         id="path884-6-8-0-8-6-8"
         inkscape:connector-curvature="0" />
      <path
         style="fill:#296c92;fill-opacity:1;stroke:#ffffff;stroke-width:1.99549;stroke-linecap:round;stroke-linejoin:round;stroke-miterlimit:4;stroke-dasharray:none;stroke-dashoffset:0;stroke-opacity:1"
         d="m -153.6247,-386.71151 -18.88294,-42.41197 a 46.759651,46.759614 65.999991 0 1 -19.01916,4.00666 l -1.6e-4,46.46167 a 93.185525,93.185477 65.999991 0 0 37.90226,-8.05638 z"
         id="path884-6-8-0-8-1-8"
         inkscape:connector-curvature="0" />
      <path
         style="fill:#296c92;fill-opacity:1;stroke:#ffffff;stroke-width:1.99549;stroke-linecap:round;stroke-linejoin:round;stroke-miterlimit:4;stroke-dasharray:none;stroke-dashoffset:0;stroke-opacity:1"
         d="m -122.26877,-409.47113 -34.50094,-31.06488 a 46.759651,46.759614 41.999991 0 1 -15.74521,11.39606 l 18.89751,42.44492 a 93.185525,93.185477 41.999991 0 0 31.34863,-22.7761 z"
         id="path884-6-8-0-8-64-6"
         inkscape:connector-curvature="0" />
      <path
         style="fill:#296c92;fill-opacity:1;stroke:#ffffff;stroke-width:1.99549;stroke-linecap:round;stroke-linejoin:round;stroke-miterlimit:4;stroke-dasharray:none;stroke-dashoffset:0;stroke-opacity:1"
         d="m -102.8809,-443.01669 -44.1534,-14.34639 a 46.759651,46.759614 17.999991 0 1 -9.74877,16.81498 l 34.52765,31.08905 a 93.185525,93.185477 17.999991 0 0 19.37451,-33.55764 z"
         id="path884-6-8-0-8-3-5"
         inkscape:connector-curvature="0" />
      <path
         style="fill:#296c92;fill-opacity:1;stroke:#ffffff;stroke-width:1.99549;stroke-linecap:round;stroke-linejoin:round;stroke-miterlimit:4;stroke-dasharray:none;stroke-dashoffset:0;stroke-opacity:1"
         d="m -98.8134,-481.54785 -46.17133,4.85273 a 46.759614,46.759651 83.999991 0 1 -2.06669,19.32643 l 44.18763,14.35761 a 93.185477,93.185525 83.999991 0 0 4.05039,-38.53677 z"
         id="path884-6-8-0-8-5-3"
         inkscape:connector-curvature="0" />
      <path
         style="fill:#f8cdc7;fill-opacity:1;stroke:#ffffff;stroke-width:1.99549;stroke-linecap:round;stroke-linejoin:round;stroke-miterlimit:4;stroke-dasharray:none;stroke-dashoffset:0;stroke-opacity:1"
         d="m -110.76959,-518.40222 -40.20582,23.21276 a 46.759614,46.759651 59.999991 0 1 5.97275,18.49618 l 46.207177,-4.8564 a 93.185477,93.185525 59.999991 0 0 -11.974107,-36.85254 z"
         id="path884-6-8-0-8-27-9"
         inkscape:connector-curvature="0" />
      <path
         style="fill:#f8cdc7;fill-opacity:1;stroke:#ffffff;stroke-width:1.99549;stroke-linecap:round;stroke-linejoin:round;stroke-miterlimit:4;stroke-dasharray:none;stroke-dashoffset:0;stroke-opacity:1"
         d="m -136.72566,-547.22842 -27.28836,37.55911 a 46.759614,46.759651 35.999991 0 1 12.97945,14.46775 l 40.23708,-23.23069 a 93.185477,93.185525 35.999991 0 0 -25.92817,-28.79617 z"
         id="path884-6-8-0-8-38-5"
         inkscape:connector-curvature="0" />
    </g>
    <g
       id="g1400">
      <g
         id="g860"
         transform="translate(-267.97391,-882.32457)">
        <path
           style="fill:#f8cdc7;fill-opacity:1;stroke:#ffffff;stroke-width:1.99549;stroke-linecap:round;stroke-linejoin:round;stroke-miterlimit:4;stroke-dasharray:none;stroke-dashoffset:0;stroke-opacity:1"
           d="m -129.5546,319.3355 -9.65251,45.41111 a 46.759613,46.759651 11.999991 0 1 17.74189,7.93771 l 27.309621,-37.58817 A 93.185476,93.185524 11.999991 0 0 -129.5546,319.3355 Z"
           id="path884-6-8-0-8"
           inkscape:connector-curvature="0" />
        <path
           style="fill:#f8cdc7;fill-opacity:1;stroke:#ffffff;stroke-width:1.99549;stroke-linecap:round;stroke-linejoin:round;stroke-miterlimit:4;stroke-dasharray:none;stroke-dashoffset:0;stroke-opacity:1"
           d="m -203.70628,335.07849 27.28819,37.55919 a 46.759651,46.759614 53.999991 0 1 17.77052,-7.87342 l -9.65972,-45.44641 a 93.185525,93.185477 53.999991 0 0 -35.39899,15.76064 z"
           id="path884-6-8-0-8-8"
           inkscape:connector-curvature="0" />
        <path
           style="fill:#f8cdc7;fill-opacity:1;stroke:#ffffff;stroke-width:1.99549;stroke-linecap:round;stroke-linejoin:round;stroke-miterlimit:4;stroke-dasharray:none;stroke-dashoffset:0;stroke-opacity:1"
           d="m -168.30363,319.33549 9.65235,45.41114 a 46.759651,46.759614 77.999991 0 1 19.43659,0.0352 l 9.66009,-45.44631 a 93.185525,93.185477 77.999991 0 0 -38.74903,-10e-6 z"
           id="path884-6-8-0-8-7"
           inkscape:connector-curvature="0" />
        <path
           style="fill:#f8cdc7;fill-opacity:1;stroke:#ffffff;stroke-width:1.99549;stroke-linecap:round;stroke-linejoin:round;stroke-miterlimit:4;stroke-dasharray:none;stroke-dashoffset:0;stroke-opacity:1"
           d="m -229.64498,363.86002 40.20566,23.21291 a 46.759651,46.759614 29.999991 0 1 13.03182,-14.42065 l -27.30936,-37.58838 a 93.185525,93.185477 29.999991 0 0 -25.92812,28.79612 z"
           id="path884-6-8-0-8-84"
           inkscape:connector-curvature="0" />
        <path
           style="fill:#f8cdc7;fill-opacity:1;stroke:#ffffff;stroke-width:1.99549;stroke-linecap:round;stroke-linejoin:round;stroke-miterlimit:4;stroke-dasharray:none;stroke-dashoffset:0;stroke-opacity:1"
           d="m -241.61914,400.71254 46.17139,4.85288 a 46.759651,46.759614 5.999991 0 1 6.03969,-18.47442 l -40.23692,-23.23098 a 93.185525,93.185477 5.999991 0 0 -11.97416,36.85252 z"
           id="path884-6-8-0-8-76"
           inkscape:connector-curvature="0" />
        <path
           style="fill:#f8cdc7;fill-opacity:1;stroke:#ffffff;stroke-width:1.99549;stroke-linecap:round;stroke-linejoin:round;stroke-miterlimit:4;stroke-dasharray:none;stroke-dashoffset:0;stroke-opacity:1"
           d="m -237.56877,439.24928 44.15339,-14.34622 a 46.759614,46.759651 71.999991 0 1 -1.99687,-19.33376 l -46.20709,-4.85674 a 93.185477,93.185525 71.999991 0 0 4.05037,38.53675 z"
           id="path884-6-8-0-8-81"
           inkscape:connector-curvature="0" />
        <path
           style="fill:#f8cdc7;fill-opacity:1;stroke:#ffffff;stroke-width:1.99549;stroke-linecap:round;stroke-linejoin:round;stroke-miterlimit:4;stroke-dasharray:none;stroke-dashoffset:0;stroke-opacity:1"
           d="m -218.1943,472.80693 34.50105,-31.06475 a 46.759614,46.759651 47.999991 0 1 -9.6878,-16.85018 l -44.18772,14.35728 a 93.185477,93.185525 47.999991 0 0 19.37457,33.55764 z"
           id="path884-6-8-0-8-9"
           inkscape:connector-curvature="0" />
        <path
           style="fill:#f8cdc7;fill-opacity:1;stroke:#ffffff;stroke-width:1.99549;stroke-linecap:round;stroke-linejoin:round;stroke-miterlimit:4;stroke-dasharray:none;stroke-dashoffset:0;stroke-opacity:1"
           d="m -186.85914,495.59507 18.8831,-42.41189 a 46.759614,46.759651 23.999991 0 1 -15.7038,-11.45303 l -34.52788,31.08881 a 93.185477,93.185525 23.999991 0 0 31.34868,22.7761 z"
           id="path884-6-8-0-8-2"
           inkscape:connector-curvature="0" />
        <path
           style="fill:#f8cdc7;fill-opacity:1;stroke:#ffffff;stroke-width:1.99549;stroke-linecap:round;stroke-linejoin:round;stroke-miterlimit:4;stroke-dasharray:none;stroke-dashoffset:0;stroke-opacity:1"
           d="m -148.95689,503.65141 1.3e-4,-46.42565 a 46.759651,46.759614 89.999991 0 1 -19.00454,-4.07552 l -18.89784,42.44479 a 93.185525,93.185477 89.999991 0 0 37.90225,8.05637 z"
           id="path884-6-8-0-8-6"
           inkscape:connector-curvature="0" />
        <path
           style="fill:#f8cdc7;fill-opacity:1;stroke:#ffffff;stroke-width:1.99549;stroke-linecap:round;stroke-linejoin:round;stroke-miterlimit:4;stroke-dasharray:none;stroke-dashoffset:0;stroke-opacity:1"
           d="m -111.05464,495.61306 -18.88294,-42.41197 a 46.759651,46.759614 65.999991 0 1 -19.01916,4.00666 l -1.6e-4,46.46167 a 93.185525,93.185477 65.999991 0 0 37.90226,-8.05638 z"
           id="path884-6-8-0-8-1"
           inkscape:connector-curvature="0" />
        <path
           style="fill:#f8cdc7;fill-opacity:1;stroke:#ffffff;stroke-width:1.99549;stroke-linecap:round;stroke-linejoin:round;stroke-miterlimit:4;stroke-dasharray:none;stroke-dashoffset:0;stroke-opacity:1"
           d="m -79.698715,472.85344 -34.500935,-31.06488 a 46.759651,46.759614 41.999991 0 1 -15.74521,11.39606 l 18.89751,42.44492 a 93.185525,93.185477 41.999991 0 0 31.348625,-22.7761 z"
           id="path884-6-8-0-8-64"
           inkscape:connector-curvature="0" />
        <path
           style="fill:#f8cdc7;fill-opacity:1;stroke:#ffffff;stroke-width:1.99549;stroke-linecap:round;stroke-linejoin:round;stroke-miterlimit:4;stroke-dasharray:none;stroke-dashoffset:0;stroke-opacity:1"
           d="m -60.310842,439.30788 -44.153398,-14.34639 a 46.759651,46.759614 17.999991 0 1 -9.74877,16.81498 l 34.527651,31.08905 a 93.185525,93.185477 17.999991 0 0 19.374507,-33.55764 z"
           id="path884-6-8-0-8-3"
           inkscape:connector-curvature="0" />
        <path
           style="fill:#f8cdc7;fill-opacity:1;stroke:#ffffff;stroke-width:1.99549;stroke-linecap:round;stroke-linejoin:round;stroke-miterlimit:4;stroke-dasharray:none;stroke-dashoffset:0;stroke-opacity:1"
           d="m -56.243343,400.77672 -46.171327,4.85273 a 46.759614,46.759651 83.999991 0 1 -2.06669,19.32643 l 44.187628,14.35761 a 93.185477,93.185525 83.999991 0 0 4.050389,-38.53677 z"
           id="path884-6-8-0-8-5"
           inkscape:connector-curvature="0" />
        <path
           style="fill:#f8cdc7;fill-opacity:1;stroke:#ffffff;stroke-width:1.99549;stroke-linecap:round;stroke-linejoin:round;stroke-miterlimit:4;stroke-dasharray:none;stroke-dashoffset:0;stroke-opacity:1"
           d="m -68.199531,363.92235 -40.205819,23.21276 a 46.759614,46.759651 59.999991 0 1 5.97275,18.49618 l 46.207174,-4.8564 a 93.185477,93.185525 59.999991 0 0 -11.974105,-36.85254 z"
           id="path884-6-8-0-8-27"
           inkscape:connector-curvature="0" />
        <path
           style="fill:#f8cdc7;fill-opacity:1;stroke:#ffffff;stroke-width:1.99549;stroke-linecap:round;stroke-linejoin:round;stroke-miterlimit:4;stroke-dasharray:none;stroke-dashoffset:0;stroke-opacity:1"
           d="m -94.155599,335.09615 -27.288361,37.55911 a 46.759614,46.759651 35.999991 0 1 12.97945,14.46775 l 40.237078,-23.23069 a 93.185477,93.185525 35.999991 0 0 -25.928167,-28.79617 z"
           id="path884-6-8-0-8-38"
           inkscape:connector-curvature="0" />
      </g>
      <text
         xml:space="preserve"
         style="font-style:normal;font-variant:normal;font-weight:normal;font-stretch:normal;font-size:40.5694px;line-height:1.25;font-family:Arial;-inkscape-font-specification:'Arial, Normal';font-variant-ligatures:normal;font-variant-caps:normal;font-variant-numeric:normal;font-variant-east-asian:normal;letter-spacing:0px;word-spacing:0px;fill:#000000;fill-opacity:1;stroke:none;stroke-width:0.264583"
         x="-428.05786"
         y="-457.50827"
         id="text1547-68-8"><tspan
           sodipodi:role="line"
           id="tspan1545-2-3"
           x="-428.05786"
           y="-457.50827"
           style="font-style:normal;font-variant:normal;font-weight:normal;font-stretch:normal;font-size:40.5694px;font-family:Arial;-inkscape-font-specification:'Arial, Normal';font-variant-ligatures:normal;font-variant-caps:normal;font-variant-numeric:normal;font-variant-east-asian:normal;stroke-width:0.264583">0</tspan></text>
    </g>
    <text
       xml:space="preserve"
       style="font-style:normal;font-variant:normal;font-weight:normal;font-stretch:normal;font-size:40.5694px;line-height:1.25;font-family:Arial;-inkscape-font-specification:'Arial, Normal';font-variant-ligatures:normal;font-variant-caps:normal;font-variant-numeric:normal;font-variant-east-asian:normal;letter-spacing:0px;word-spacing:0px;fill:#000000;fill-opacity:1;stroke:none;stroke-width:0.264583"
       x="-202.05975"
       y="-457.32007"
       id="text1547-68-2"><tspan
         sodipodi:role="line"
         id="tspan1545-2-5"
         x="-202.05975"
         y="-457.32007"
         style="font-style:normal;font-variant:normal;font-weight:normal;font-stretch:normal;font-size:40.5694px;font-family:Arial;-inkscape-font-specification:'Arial, Normal';font-variant-ligatures:normal;font-variant-caps:normal;font-variant-numeric:normal;font-variant-east-asian:normal;stroke-width:0.264583">4</tspan></text>
    <text
       xml:space="preserve"
       style="font-style:normal;font-variant:normal;font-weight:normal;font-stretch:normal;font-size:40.5694px;line-height:1.25;font-family:Arial;-inkscape-font-specification:'Arial, Normal';font-variant-ligatures:normal;font-variant-caps:normal;font-variant-numeric:normal;font-variant-east-asian:normal;letter-spacing:0px;word-spacing:0px;fill:#000000;fill-opacity:1;stroke:none;stroke-width:0.264583"
       x="22.581417"
       y="-457.50827"
       id="text1547-68-5-2"><tspan
         sodipodi:role="line"
         id="tspan1545-2-8-3"
         x="22.581417"
         y="-457.50827"
         style="font-style:normal;font-variant:normal;font-weight:normal;font-stretch:normal;font-size:40.5694px;font-family:Arial;-inkscape-font-specification:'Arial, Normal';font-variant-ligatures:normal;font-variant-caps:normal;font-variant-numeric:normal;font-variant-east-asian:normal;stroke-width:0.264583">7</tspan></text>
    <text
       xml:space="preserve"
       style="font-style:normal;font-variant:normal;font-weight:normal;font-stretch:normal;font-size:40.5694px;line-height:1.25;font-family:Arial;-inkscape-font-specification:'Arial, Normal';font-variant-ligatures:normal;font-variant-caps:normal;font-variant-numeric:normal;font-variant-east-asian:normal;letter-spacing:0px;word-spacing:0px;fill:#000000;fill-opacity:1;stroke:none;stroke-width:0.264583"
       x="248.07434"
       y="-457.50827"
       id="text1547-68-5-8"><tspan
         sodipodi:role="line"
         id="tspan1545-2-8-8"
         x="248.07434"
         y="-457.50827"
         style="font-style:normal;font-variant:normal;font-weight:normal;font-stretch:normal;font-size:40.5694px;font-family:Arial;-inkscape-font-specification:'Arial, Normal';font-variant-ligatures:normal;font-variant-caps:normal;font-variant-numeric:normal;font-variant-east-asian:normal;stroke-width:0.264583">9</tspan></text>
    <text
       xml:space="preserve"
       style="font-style:normal;font-variant:normal;font-weight:normal;font-stretch:normal;font-size:40.5694px;line-height:1.25;font-family:Arial;-inkscape-font-specification:'Arial, Normal';font-variant-ligatures:normal;font-variant-caps:normal;font-variant-numeric:normal;font-variant-east-asian:normal;letter-spacing:0px;word-spacing:0px;fill:#000000;fill-opacity:1;stroke:none;stroke-width:0.264583"
       x="460.75079"
       y="-457.5083"
       id="text1547-7"><tspan
         sodipodi:role="line"
         id="tspan1545-4"
         x="460.75079"
         y="-457.5083"
         style="font-style:normal;font-variant:normal;font-weight:normal;font-stretch:normal;font-size:40.5694px;font-family:Arial;-inkscape-font-specification:'Arial, Normal';font-variant-ligatures:normal;font-variant-caps:normal;font-variant-numeric:normal;font-variant-east-asian:normal;stroke-width:0.264583">15</tspan></text>
    <rect
       style="opacity:1;fill:#000000;fill-opacity:0.25;stroke:#000000;stroke-width:0.606424;stroke-opacity:0.25"
       id="rect923"
       width="667.2605"
       height="215.19815"
       x="-526.70868"
       y="-578.74255"
       ry="0.1000629" />
    <rect
       style="opacity:1;fill:#000000;fill-opacity:0;stroke:#000000;stroke-width:3.14363;stroke-miterlimit:4;stroke-dasharray:none;stroke-opacity:1"
       id="rect923-5"
       width="213.76779"
       height="210.13043"
       x="-72.079163"
       y="-576.06744"
       ry="0.097706512" />
  </g>
</svg>
