<?xml version="1.0" encoding="UTF-8" standalone="no"?>
<svg
   xmlns:dc="http://purl.org/dc/elements/1.1/"
   xmlns:cc="http://creativecommons.org/ns#"
   xmlns:rdf="http://www.w3.org/1999/02/22-rdf-syntax-ns#"
   xmlns:svg="http://www.w3.org/2000/svg"
   xmlns="http://www.w3.org/2000/svg"
   xmlns:sodipodi="http://sodipodi.sourceforge.net/DTD/sodipodi-0.dtd"
   xmlns:inkscape="http://www.inkscape.org/namespaces/inkscape"
   width="297.29764mm"
   height="42.232479mm"
   viewBox="0 0 297.29764 42.232479"
   version="1.1"
   id="svg8"
   inkscape:version="1.0.2 (e86c870879, 2021-01-15)"
   sodipodi:docname="logo.svg">
  <defs
     id="defs2">
    <pattern
       id="EMFhbasepattern"
       patternUnits="userSpaceOnUse"
       width="6"
       height="6"
       x="0"
       y="0" />
    <pattern
       id="EMFhbasepattern-2"
       patternUnits="userSpaceOnUse"
       width="6"
       height="6"
       x="0"
       y="0" />
  </defs>
  <sodipodi:namedview
     id="base"
     pagecolor="#ffffff"
     bordercolor="#666666"
     borderopacity="1.0"
     inkscape:pageopacity="0.0"
     inkscape:pageshadow="2"
     inkscape:zoom="0.9983453"
     inkscape:cx="545.49254"
     inkscape:cy="47.636153"
     inkscape:document-units="mm"
     inkscape:current-layer="layer1"
     inkscape:document-rotation="0"
     showgrid="false"
     inkscape:window-width="2880"
     inkscape:window-height="1544"
     inkscape:window-x="1909"
     inkscape:window-y="-11"
     inkscape:window-maximized="1" />
  <metadata
     id="metadata5">
    <rdf:RDF>
      <cc:Work
         rdf:about="">
        <dc:format>image/svg+xml</dc:format>
        <dc:type
           rdf:resource="http://purl.org/dc/dcmitype/StillImage" />
        <dc:title></dc:title>
      </cc:Work>
    </rdf:RDF>
  </metadata>
  <g
     inkscape:label="Layer 1"
     inkscape:groupmode="layer"
     id="layer1"
     transform="translate(140.72374,-134.66942)">
    <path
       id="path902"
       style="fill:#00133e;fill-opacity:1;stroke-width:0.667068"
       transform="scale(0.26458333)"
       d="m -531.5332,509.00977 c -0.15874,-0.82549 -0.30936,20.71162 -0.33203,47.86132 h -0.002 c -0.0242,27.14971 0.17249,48.81759 0.43555,48.15039 0.26623,-0.6754 2.97992,-2.33006 6.12305,-3.73242 3.10492,-1.38531 7.3256,-3.31477 9.3789,-4.28906 2.05327,-0.97432 3.90875,-1.77148 4.12305,-1.77148 0.2143,0 3.33681,-1.37561 6.93945,-3.05664 7.53082,-3.51402 10.31342,-4.78354 15.88867,-7.25 4.58809,-2.0298 6.21041,-2.75956 12.67579,-5.70313 6.20458,-2.82486 8.04735,-3.64928 12.00585,-5.36719 1.83444,-0.79608 4.83745,-2.13688 6.67188,-2.98047 7.05324,-3.2434 12.09356,-5.50077 14.28516,-6.39648 5.49388,-2.24527 7.72656,-3.63882 7.72656,-4.82227 0,-0.93516 -5.17336,-3.84808 -22.01172,-12.38672 -25.62671,-12.99512 -67.14161,-34.14599 -70.04297,-35.68554 -1.10067,-0.58405 -2.35597,-1.06414 -2.78906,-1.06641 -0.4331,-0.002 -0.91706,-0.67838 -1.07617,-1.5039 z m 18.99218,32.37695 c 1.04435,-0.007 2.07812,0.22032 2.8418,0.7207 1.58997,1.0419 1.62416,1.26039 1.83203,12.01367 0.18675,9.65553 0.36217,11.11938 1.48242,12.35547 1.61125,1.77774 5.04415,1.83964 7.16016,0.12891 1.51249,-1.22275 1.5877,-1.70938 1.9082,-12.30859 0.23532,-7.7867 0.58931,-11.29173 1.20118,-11.90235 0.47693,-0.47599 2.22643,-0.86523 3.88867,-0.86523 4.83265,0 5.07089,0.67953 4.78515,13.67382 -0.2296,10.43902 -0.33175,11.15589 -1.9707,13.88868 -0.9504,1.58471 -2.8852,3.66893 -4.30078,4.63086 -2.16023,1.46793 -3.43468,1.77831 -7.92578,1.93554 -5.95253,0.20829 -7.8857,-0.23106 -10.94141,-2.49023 -4.01699,-2.96988 -4.74806,-5.72255 -4.74804,-17.88477 -10e-6,-6.03768 0.29971,-11.39887 0.67578,-12.10156 0.60127,-1.12353 2.37075,-1.78366 4.11132,-1.79492 z m 548.773442,13.77539 c -4.24903,0.003 -3.895018,2.06897 -3.884766,34.94336 0.0056,18.04305 0.230444,33.13545 0.5,33.53906 0.269552,0.40358 0.939901,0.90585 1.490235,1.11524 2.262285,0.86116 7.210926,0.46771 8.578125,-0.68165 1.309024,-1.10042 1.398697,-1.93128 1.574218,-14.50781 l 0.1875,-13.34179 2.052735,-3.33594 c 3.347508,-5.4398 8.395633,-7.75393 12.326172,-5.65039 2.972337,1.59076 3.298828,3.62814 3.298828,20.60351 0,18.19121 -0.257852,17.40039 5.669922,17.40039 5.985377,0 5.669922,1.09756 5.669921,-19.72265 0,-19.93342 -0.2196,-21.36887 -3.839843,-25.14844 -4.13,-4.31169 -15.087487,-4.40091 -20.822266,-0.16992 -1.254002,0.92515 -2.821873,1.68164 -3.484375,1.68164 -1.116174,0 -1.205078,-0.87059 -1.205078,-11.85938 0,-14.49739 -0.132426,-14.82421 -5.994141,-14.82422 -0.809245,0 -1.510183,-0.0414 -2.117187,-0.041 z m 444.755858,1.74219 c -0.78025,-0.0145 -1.60127,0.0904 -2.45508,0.32031 -3.13107,0.84314 -4.59765,2.81143 -4.59765,6.17578 0,3.20047 0.85649,4.84347 3.18554,6.10742 3.57736,1.94136 7.96825,0.62496 9.8125,-2.9414 1.34011,-2.59144 1.27562,-3.77162 -0.34179,-6.38868 -1.30074,-2.10452 -3.26277,-3.22987 -5.60352,-3.27343 z m -204.21484,0.0351 c -2.25511,0.0765 -4.48093,1.10225 -5.82422,3.15235 -2.18092,3.32848 -1.23213,6.93465 2.4082,9.15429 1.16897,0.71278 2.87575,1.29493 3.79297,1.29493 4.56575,0 8.34445,-5.29247 6.66797,-9.33985 -1.19607,-2.88762 -4.1455,-4.36007 -7.04492,-4.26172 z m -307.539065,0.11719 c -4.933271,0.11683 -8.624836,5.09251 -6.230469,9.56641 0.390303,0.72929 1.666966,1.9103 2.835938,2.62304 2.559491,1.56072 4.534894,1.64059 7.148437,0.28907 2.07728,-1.07422 3.982422,-4.05921 3.982422,-6.24219 0,-1.95209 -3.144184,-5.32999 -5.558594,-5.97266 -0.74128,-0.1973 -1.472981,-0.28036 -2.177734,-0.26367 z m 186.140625,3.4668 c -2.2052,0.0235 -4.41399,0.3505 -4.92383,0.96484 -0.58202,0.70023 -0.73317,7.36607 -0.58203,25.51563 l 0.20508,24.56836 1.77148,3.33398 c 2.86267,5.38753 7.02071,8.658 12.78125,10.05469 4.43161,1.07459 14.48266,1.17161 19.38282,0.1875 7.89743,-1.58604 13.68907,-6.77802 16.34961,-14.65625 1.32605,-3.92674 1.4121,-5.53634 1.4121,-26.26758 0,-16.28693 -0.21042,-22.29245 -0.80078,-22.88281 -1.0449,-1.04485 -8.69338,-1.04485 -9.73828,0 -0.5883,0.58832 -0.80078,6.30275 -0.80078,21.55859 0,17.07175 -0.18819,21.39484 -1.06445,24.3457 -1.88647,6.35241 -6.3878,9.35275 -13.94336,9.29493 -6.22462,-0.0477 -9.98665,-2.13132 -12.58008,-6.97071 -1.36624,-2.54944 -1.4384,-3.66339 -1.64453,-25.00586 -0.13802,-14.28975 -0.46835,-22.64027 -0.91602,-23.17968 -0.5009,-0.60358 -2.703,-0.88481 -4.9082,-0.86133 z m -437.29492,0.0176 c -5.41526,0 -5.98907,0.1266 -6.9043,1.52343 -0.54905,0.83796 -3.87378,10.21839 -7.38867,20.84571 -3.51489,10.62727 -6.82356,19.7603 -7.35156,20.29492 -1.39751,1.41498 -2.03121,0.44554 -3.91016,-5.98438 -3.47594,-11.89485 -11.68717,-35.57301 -12.52539,-36.11718 -0.48233,-0.31302 -3.57502,-0.4918 -6.87305,-0.39844 -7.27434,0.20598 -7.14886,0.043 -8.65429,11.21094 -0.56616,4.2 -1.93505,13.18913 -3.04102,19.97656 -1.10596,6.78742 -2.43795,15.1992 -2.96094,18.6914 -0.52299,3.49221 -1.26231,7.69365 -1.64258,9.3379 -0.62151,2.68741 -0.55027,3.10877 0.70313,4.1582 0.94147,0.78826 2.53848,1.16601 4.91602,1.16601 5.37102,0 6.11628,-0.96151 6.98242,-9.00586 1.18109,-10.96951 3.41028,-27.90177 3.90039,-29.6289 1.32028,-4.65264 2.6842,-1.83302 9.82617,20.29101 2.84248,8.80528 5.57075,16.44587 6.0625,16.97852 1.20678,1.30715 8.73622,1.69385 10.86523,0.55859 1.15703,-0.61697 2.04266,-2.18396 3.125,-5.52929 0.83092,-2.56823 3.6507,-11.34409 6.26563,-19.5 2.61494,-8.15592 5.06181,-15.01794 5.4375,-15.25 1.36556,-0.84393 1.94323,1.00068 3.58203,11.4414 4.56404,29.07734 4.47711,28.68547 6.49609,29.22656 2.65388,0.71127 7.54339,0.44465 8.8086,-0.48046 1.0738,-0.7852 1.17209,-1.48673 0.78125,-5.50391 -0.24634,-2.53194 -1.02248,-7.90566 -1.72461,-11.94141 -0.70212,-4.03578 -2.06926,-12.44064 -3.03906,-18.67773 -2.85771,-18.37875 -4.26284,-25.79657 -5.07032,-26.76953 -0.53861,-0.6491 -2.47574,-0.91406 -6.66601,-0.91406 z m 184.343748,0.12304 c -0.767252,-0.015 -1.768033,0.17297 -3.072268,0.46485 -5.96145,1.33409 -6.43164,1.94089 -6.43164,8.30664 0,6.56976 -0.943,8.44922 -4.24023,8.44922 -2.88612,0 -3.76563,1.03674 -3.76563,4.44531 0,3.1864 1.12788,4.22656 4.58594,4.22656 1.10313,0 2.25007,0.3754 2.54688,0.83398 0.29679,0.45861 0.69636,7.28769 0.88867,15.17579 0.31134,12.77174 0.5051,14.68227 1.77148,17.45312 1.38823,3.03749 2.70697,4.16845 6.177736,5.29883 0.938645,0.30576 4.321213,0.47276 7.515625,0.37109 6.888525,-0.21906 8.533203,-1.19803 8.533203,-5.08203 0,-3.08148 -0.964484,-4.0332 -4.091797,-4.0332 -7.008246,0 -7.916016,-1.88081 -7.916016,-16.42383 0,-13.36059 0.105262,-13.59375 6.070313,-13.59375 3.233858,0 4.028726,-0.24073 4.898437,-1.48242 0.571132,-0.8154 1.039063,-2.29626 1.039063,-3.28906 0,-2.77905 -1.601507,-3.90039 -5.56836,-3.90039 -2.063531,0 -4.076099,-0.42206 -4.957031,-1.03907 -1.369183,-0.95901 -1.482422,-1.56555 -1.482422,-7.92382 0,-6.34553 -0.200198,-8.21274 -2.501953,-8.25782 z m 197.410156,0.004 c -0.782326,-0.009 -1.80247,0.18622 -3.134765,0.48437 -5.259118,1.17691 -6.37298,2.84009 -6.160157,9.20508 0.151144,4.52039 0.02441,5.0846 -1.408203,6.24805 -0.86615,0.70341 -2.382502,1.2793 -3.36914,1.2793 -2.494583,0 -3.394531,1.14983 -3.394531,4.33593 0,3.27413 0.89894,4.33594 3.673828,4.33594 1.140608,0 2.656964,0.42521 3.36914,0.94531 1.20028,0.87651 1.319743,2.08735 1.628906,16.56446 l 0.333985,15.61718 1.8125,2.37696 c 1.172878,1.5366 2.705604,2.61228 4.335937,3.04492 5.532796,1.46819 15.016576,0.68486 16.306636,-1.34766 0.83717,-1.31898 0.65135,-5.6112 -0.27539,-6.34961 -0.45861,-0.3654 -2.43579,-0.81146 -4.39257,-0.99023 -2.44732,-0.22382 -4.00781,-0.77654 -5.00196,-1.76953 -1.36016,-1.35863 -1.45743,-2.164 -1.65234,-13.67969 -0.24675,-14.57934 -0.31924,-14.41211 6.23437,-14.41211 4.65545,0 5.64649,-0.76065 5.64649,-4.33594 0,-3.53975 -1.0056,-4.33593 -5.47461,-4.33593 -6.07999,0 -6.5332,-0.62614 -6.5332,-9.02735 0,-6.31652 -0.19795,-8.16387 -2.544926,-8.18945 z m 417.128906,0.20703 -3.17383,0.10742 c -1.74565,0.0596 -4.14843,0.67639 -5.33789,1.36914 -2.12205,1.23583 -2.16878,1.36796 -2.49609,6.9961 -0.3851,6.62354 -1.49984,8.53711 -4.97266,8.53711 -2.69265,0 -3.69922,1.04586 -3.69922,3.8457 0,3.48563 1.02634,4.82617 3.69336,4.82617 1.42186,0 2.82377,0.51324 3.64453,1.33398 1.24604,1.24604 1.33034,2.22581 1.33789,14.8418 0.005,17.42415 0.78888,20.16197 6.35938,22.21289 1.73639,0.63935 4.62046,0.91581 8.41016,0.80469 6.86328,-0.20134 8.57421,-1.22778 8.57421,-5.14258 0,-3.1251 -0.96344,-4.03163 -4.30273,-4.04297 -3.73538,-0.0136 -5.89647,-1.28109 -6.83398,-4.00976 -1.1102,-3.23207 -1.11717,-21.79732 -0.01,-23.9961 0.74105,-1.47069 1.37289,-1.7079 5.35156,-2.00195 4.95852,-0.36665 5.77004,-0.99042 5.78516,-4.45508 0.0153,-3.18187 -1.44695,-4.21679 -5.95899,-4.21679 -5.29012,0 -5.63053,-0.54015 -6.03906,-9.60743 z m -702.88477,16.13086 c -1.52009,0.0232 -3.02896,0.11844 -4.4746,0.28711 -7.72314,0.90111 -10.01882,1.69357 -10.79102,3.72461 -0.68675,1.80627 0.31251,6.87306 1.35547,6.87304 0.32311,0 2.46332,-0.48102 4.75586,-1.06835 2.65021,-0.67903 5.97499,-0.97553 9.1289,-0.81641 4.60962,0.23278 5.09745,0.40303 6.89258,2.41211 2.07009,2.31681 2.50692,5.10957 1.09766,7.01562 -0.55993,0.75731 -2.47638,1.33838 -5.83594,1.76758 -9.27675,1.18511 -14.85934,3.73727 -18.44141,8.4336 -1.53465,2.01206 -1.91818,3.27954 -2.13085,7.04296 -0.14925,2.64133 0.0756,5.39806 0.53125,6.49805 1.09218,2.63675 3.91507,5.16417 6.69921,5.99805 5.22548,1.5651 12.25059,0.26141 17.78907,-3.29883 1.93324,-1.24256 2.18985,-1.26538 3.00195,-0.2793 2.70451,3.28388 3.3017,3.65039 5.93555,3.65039 5.50344,0 5.29297,0.70352 5.29297,-17.66797 0,-9.39656 -0.31387,-17.74431 -0.74024,-19.73242 -0.86517,-4.03415 -4.22158,-8.18394 -7.47656,-9.24414 -3.36778,-1.09701 -8.0295,-1.66528 -12.58985,-1.5957 z m 428.51758,0.0566 c -3.8521,0.13657 -8.06763,1.37617 -10.94726,3.35742 -1.70517,1.17313 -3.49625,2.1267 -3.98047,2.11914 -0.48422,-0.008 -1.33053,-0.98354 -1.88086,-2.16797 -0.93336,-2.00885 -1.25323,-2.16712 -4.75781,-2.35156 -6.19573,-0.32602 -5.91602,-1.44254 -5.91602,23.55469 0,21.55873 0.002,21.59609 1.48242,22.63281 v 0.002 c 1.65033,1.1559 6.22402,1.37221 8.74414,0.41407 l 1.64063,-0.625 0.23633,-13.2168 c 0.23054,-12.8499 0.28791,-13.32332 2.07812,-16.96875 3.79649,-7.73072 11.7729,-9.84561 14.83008,-3.93359 0.81316,1.57243 1.00586,4.9148 1.00586,17.32421 0,14.48629 0.077,15.45199 1.33398,16.70899 1.66107,1.66091 6.99702,1.8319 9.19141,0.29492 1.46707,-1.02765 1.48242,-1.21694 1.48242,-18.31836 0,-15.89159 -0.11147,-17.57977 -1.39258,-21.0039 -1.62718,-4.34896 -4.50195,-6.64569 -9.48242,-7.57618 -1.1404,-0.21305 -2.38393,-0.29161 -3.66797,-0.24609 z m -374.79101,0.0215 c -9.88775,-0.14555 -16.43858,2.83455 -19.38477,8.81641 -2.85201,5.79061 -1.29932,12.79285 3.58789,16.17969 1.44453,1.00104 2.88718,1.82031 3.20508,1.82031 1.73244,0 9.64202,4.33565 10.36133,5.67969 1.19163,2.22659 0.30506,4.81543 -2.19141,6.39648 -1.87073,1.18477 -2.9026,1.31755 -7.94336,1.02539 -6.7523,-0.39118 -7.40159,0.007 -7.08789,4.34375 0.16381,2.26436 0.55867,3.05418 1.875,3.75196 1.96241,1.0402 13.49924,0.7185 17.49414,-0.48828 10.53715,-3.18312 14.56143,-15.78719 7.25196,-22.71094 -1.36016,-1.28837 -4.94864,-3.37652 -8.00782,-4.66016 -5.83448,-2.44819 -7.39843,-3.86588 -7.39843,-6.70117 0,-3.78119 3.82485,-5.57611 10.43945,-4.89844 4.11349,0.42146 4.21401,0.39319 4.88476,-1.37109 1.92508,-5.06332 -0.0645,-7.08041 -7.08593,-7.1836 z m 584.9707,0.006 c -2.97122,-0.0598 -6.49819,0.22016 -9.43359,0.86328 -10.57486,2.31693 -15.42851,14.299 -8.92383,22.0293 1.05509,1.25397 4.39345,3.3001 8.58789,5.26367 5.48043,2.56562 6.94638,3.54819 7.28125,4.88282 0.6311,2.51459 0.16324,3.8246 -1.91992,5.375 -1.59689,1.18832 -2.82906,1.40424 -8.00391,1.40625 -3.3645,10e-4 -6.49256,0.24583 -6.95117,0.54101 -0.45853,0.29533 -0.83399,1.85233 -0.83399,3.46094 10e-6,2.26598 0.33375,3.1583 1.48243,3.96289 h 0.002 c 1.81164,1.26875 9.81703,1.40419 15.50586,0.26172 6.70734,-1.34702 12.42004,-6.30252 13.42187,-11.64258 0.23207,-1.24558 0.21814,-3.63736 -0.0332,-5.31445 -0.68281,-4.5535 -3.6872,-7.48037 -10.82812,-10.55078 -6.24643,-2.68577 -8.17264,-4.35599 -8.19532,-7.10938 -0.0325,-3.742 3.81988,-5.55612 10.37305,-4.88476 3.74306,0.3835 4.2207,0.28964 4.88477,-0.95118 1.0614,-1.98315 0.9045,-5.20096 -0.3125,-6.41797 -0.7166,-0.71665 -3.1323,-1.11602 -6.10352,-1.17578 z m -865.44727,0.041 c -1.45931,0.003 -6.0585,2.15842 -19.39453,8.95898 -10.38829,5.29743 -31.19587,15.86285 -46.23828,23.47852 -15.0424,7.61567 -27.76659,14.23581 -28.27539,14.71094 -0.50872,0.47508 -0.76294,1.28272 -0.5664,1.79492 0.19653,0.5122 5.26469,3.12937 11.26367,5.8164 5.99901,2.68706 12.70884,5.71199 14.91015,6.72071 2.20135,1.00875 8.20538,3.6956 13.3418,5.97265 5.13645,2.27709 11.52528,5.16212 14.19922,6.41016 2.67394,1.24804 4.99203,2.26953 5.15039,2.26953 0.27942,0 4.46893,1.84472 11.33398,4.99024 1.83444,0.84053 4.83745,2.19616 6.67188,3.01367 5.38866,2.4014 10.48224,4.72062 13.3418,6.07422 1.46755,0.69467 2.98194,1.26337 3.36718,1.26367 2.24546,0.002 2.30274,-1.11795 2.30274,-46.08008 0,-37.83254 -0.14454,-44.59559 -0.95899,-45.27148 -0.0966,-0.0802 -0.24074,-0.12351 -0.44922,-0.12305 z m 176.5293,0.11523 c -5.61309,0.0764 -12.47747,0.78129 -14.57617,1.65039 -1.61228,0.66766 -2.51187,3.1809 -2.01953,5.64258 0.64919,3.2459 1.63079,3.61464 6.42578,2.41211 4.83093,-1.21153 10.71896,-1.37851 13.55664,-0.38476 2.1689,0.75953 4.93555,4.36499 4.93555,6.43164 0,2.26386 -2.14298,3.49366 -7.37305,4.23437 -8.4368,1.19486 -12.57879,2.768 -16.53906,6.2793 -4.2272,3.74801 -5.56414,11.06219 -2.94336,16.10937 1.69262,3.25973 2.71044,4.16265 6.0039,5.33789 5.15169,1.83829 12.34418,0.82708 16.83008,-2.36718 2.49164,-1.77419 3.35535,-1.70196 5.04883,0.42187 1.14089,1.43082 2.11314,1.82855 5.07422,2.07422 6.03843,0.50075 5.86394,1.13234 5.42773,-19.68359 -0.35674,-17.02413 -0.44646,-17.99321 -1.94531,-20.98633 -2.23093,-4.45504 -5.68292,-6.32843 -12.93359,-7.02149 -1.37011,-0.13096 -3.10163,-0.17587 -4.97266,-0.15039 z m 604.11719,0.0156 c -0.80586,0.004 -1.64869,0.0322 -2.53125,0.084 -8.54615,0.50174 -13.96006,4.08364 -17.72266,11.72657 -2.14272,4.35193 -2.19531,4.67229 -2.19531,13.14648 0,8.25471 0.0943,8.86874 1.90625,12.35547 3.1793,6.11796 6.51518,8.85979 12.70703,10.44726 4.17011,1.06912 17.40503,0.70492 21.73633,-0.59765 3.6802,-1.1068 4.91635,-3.51159 3.28711,-6.39453 -0.8852,-1.56639 -1.38065,-1.76951 -3.98047,-1.64063 -12.39201,0.61542 -15.6881,0.49599 -17.77734,-0.64648 -2.8814,-1.57565 -5.51504,-5.17466 -6.00782,-8.21094 -0.66017,-4.06851 0.1214,-4.29726 14.77149,-4.30859 6.9925,-0.006 13.04549,-0.23052 13.44922,-0.5 1.95794,-1.30749 2.35745,-3.49802 1.58593,-8.69336 -0.88858,-5.98368 -2.79899,-9.68665 -6.73828,-13.0586 -3.01609,-2.58167 -6.8492,-3.73782 -12.49023,-3.70898 z m -417.123048,0.0273 c -2.242173,0.0717 -5.019799,1.39903 -7.488281,3.62305 -2.024833,1.82438 -2.785819,2.16464 -3.501953,1.57031 -0.503248,-0.41767 -0.914062,-1.26149 -0.914062,-1.87695 0,-0.6155 -0.360516,-1.47965 -0.800782,-1.91992 -1.039321,-1.0393 -8.032944,-1.0393 -9.072265,0 -0.590567,0.59059 -0.800781,6.63076 -0.800781,23.03515 v 22.23438 l 1.501953,0.60351 c 2.229157,0.89609 7.428648,0.80774 8.648437,-0.14648 0.879976,-0.6884 1.122619,-2.87036 1.390625,-12.50781 0.389129,-13.9931 1.281307,-17.99761 4.710938,-21.14063 1.298487,-1.18998 3.201648,-2.3441 4.228515,-2.56445 4.785997,-1.0269 4.947402,-1.23648 4.732422,-6.14453 -0.179701,-4.10245 -0.331082,-4.52335 -1.708984,-4.71875 -0.296072,-0.042 -0.605471,-0.0571 -0.925782,-0.0469 z m 470.683598,0.0508 c -1.84913,0.0987 -4.37417,1.27318 -6.96485,3.33594 -2.76782,2.20377 -3.58095,2.56789 -4.05664,1.81641 -0.32742,-0.51693 -0.59791,-1.40399 -0.60547,-1.97266 -0.006,-0.56867 -0.37027,-1.39374 -0.81054,-1.83398 -1.0393,-1.03934 -8.03297,-1.03934 -9.07227,0 -0.59074,0.59055 -0.80078,6.63079 -0.80078,23.03515 v 22.23438 l 1.5,0.60351 c 2.07296,0.83328 6.98981,0.83067 8.54883,-0.004 1.18571,-0.63455 1.28736,-1.48621 1.29492,-10.50586 0.006,-15.93521 1.7268,-22.30494 6.71094,-24.84766 1.41426,-0.72151 3.03269,-1.31055 3.59765,-1.31055 0.56493,0 1.62757,-0.60018 2.36133,-1.33398 1.65914,-1.65906 1.88521,-7.3851 0.3418,-8.66602 -0.50341,-0.41775 -1.20441,-0.59565 -2.04492,-0.55078 z m -410.326176,0.21289 c -7.4230841,9.1e-4 -8.1216777,0.11725 -11.79687462,1.97852 -7.95914098,4.03083 -11.76312138,10.81287 -12.28515638,21.89648 -0.611468,12.98245 3.8651273,20.90398 13.23828138,23.42383 6.48213492,1.74263 18.09707062,0.9274 19.79687462,-1.39062 1.107648,-1.51045 1.059788,-4.9883 -0.08984,-6.56055 -0.801238,-1.09512 -1.676319,-1.23894 -6.63086,-1.08398 -6.0721088,0.19011 -7.539768,-0.24182 -10.6386716,-3.13282 -2.01677672,-1.88145 -3.8250481,-6.97319 -3.8125,-10.73828 0.014242,-4.28247 1.80311803,-9.4574 4.0800781,-11.80664 2.8546885,-2.94527 5.8016012,-3.84654 10.8808595,-3.32617 4.986633,0.51092 6.089517,-0.16947 6.566406,-4.05664 0.587705,-4.79048 -0.153924,-5.20445 -9.308594,-5.20313 z m -41.78125,0.31836 c -2.190213,-0.0448 -4.399898,0.21631 -4.998046,0.81446 -0.590576,0.59059 -0.800782,6.63076 -0.800782,23.03515 v 22.23438 l 1.5,0.60351 c 2.228265,0.89575 7.423539,0.80781 8.685547,-0.14648 0.98206,-0.74264 1.115972,-3.22301 1.212891,-22.67773 0.08272,-16.60479 -0.09205,-22.08548 -0.72461,-22.84766 -0.515344,-0.62096 -2.684786,-0.97078 -4.875,-1.01563 z m 305.652346,0.01 c -4.1718,0.10431 -3.9336,1.88289 -3.9336,23.69336 0,21.55873 0.002,21.59609 1.48243,22.63281 0.81542,0.57113 2.85034,1.03906 4.52148,1.03906 1.67114,0 3.70606,-0.46793 4.52149,-1.03906 1.48254,-1.03672 1.48242,-1.07408 1.48242,-22.63281 0,-24.92625 0.31283,-23.68945 -6.00391,-23.68945 -0.78959,0 -1.47434,-0.0186 -2.07031,-0.004 z m 23.61328,0.004 c -3.80049,0 -4.996,0.23104 -5.30078,1.02539 -0.40698,1.06042 -0.25932,1.50984 5.23633,15.98437 1.81089,4.76958 4.05416,10.77357 4.98632,13.3418 0.9321,2.56822 2.23617,6.01891 2.89844,7.66992 0.6622,1.65097 1.57363,3.99024 2.02344,5.19727 0.44987,1.20699 1.44217,2.63225 2.20703,3.16796 0.84758,0.59365 2.968,0.97461 5.42969,0.97461 4.5332,0 6.43862,-0.96196 7.54101,-3.80859 0.94651,-2.44407 3.27245,-8.61281 7.11328,-18.87109 1.71711,-4.58612 3.53525,-9.3897 4.04102,-10.67383 3.61085,-9.16725 4.38903,-11.48885 4.19336,-12.51367 -0.18404,-0.96367 -1.0982,-1.19446 -5.35156,-1.35547 -6.39646,-0.24219 -5.95603,-0.82618 -11.3086,14.98437 -2.21446,6.54119 -4.38039,12.26725 -4.81445,12.72461 -1.18825,1.25201 -3.54458,-0.67512 -4.07617,-3.33398 -0.8838,-4.42027 -7.26387,-21.5643 -8.56445,-23.01367 -1.16511,-1.29835 -2.00822,-1.5 -6.25391,-1.5 z m 182.02344,0 c -2.62039,0 -4.8477,0.33398 -5.3125,0.79882 -0.89911,0.89919 -1.17588,43.63603 -0.29102,44.96094 0.26931,0.40324 0.94019,0.9055 1.49024,1.11524 h 0.002 c 0.55191,0.20925 2.47893,0.40337 4.2832,0.43359 5.93953,0.0953 5.72266,0.98424 5.72266,-23.44141 0,-13.39778 -0.25676,-21.76601 -0.69141,-22.57812 -0.57823,-1.08053 -1.42439,-1.28906 -5.20312,-1.28906 z m 95.30273,0 c -3.56115,0 -4.7204,0.26134 -5.63281,1.26953 -0.6319,0.69826 -3.02659,6.77658 -5.32031,13.50781 -3.57049,10.47825 -4.3772,12.26938 -5.61719,12.45117 -1.669,0.24469 -1.66128,0.26215 -5.01758,-10.21875 -4.01945,-12.55162 -5.28865,-15.7214 -6.56836,-16.40625 -0.68073,-0.36427 -3.40829,-0.57451 -6.0625,-0.4668 -4.24048,0.17205 -4.8497,0.35896 -5.01562,1.53125 -0.10379,0.73376 1.21558,5.08576 2.93164,9.67188 1.71602,4.58608 3.78357,10.13853 4.59375,12.33984 5.44426,14.79258 6.49431,17.5782 7.36523,19.53516 1.4767,3.31778 1.18462,6.36849 -1.0664,11.13281 -2.66926,5.64956 -4.92265,7.28589 -9.85157,7.15625 -2.0301,-0.0534 -4.08615,0.23101 -4.57031,0.63281 -0.52622,0.43669 -0.88086,2.15078 -0.88086,4.26172 0,3.23709 0.15249,3.59026 1.83398,4.23633 1.70688,0.65582 7.3805,0.46341 11.70118,-0.39844 2.77428,-0.55336 7.97159,-5.59501 10.30273,-9.99218 1.13053,-2.13256 3.14631,-6.7294 4.47852,-10.21485 1.33217,-3.48544 3.34566,-8.73872 4.47461,-11.67383 1.12894,-2.9351 2.78309,-7.2871 3.67578,-9.67187 1.68174,-4.49295 5.48065,-14.34094 8.5664,-22.20898 2.28643,-5.83012 1.85559,-6.47461 -4.32031,-6.47461 z m -208.15234,7.44335 c 2.46609,0.13396 4.8087,1.2448 6.30078,3.375 1.48713,2.12289 1.35315,5.64506 -0.24805,6.50196 -1.41959,0.75976 -11.40608,0.82757 -14.05273,0.0957 -2.25116,-0.62249 -2.48562,-2.9506 -0.57813,-5.73437 2.03387,-2.96828 5.40744,-4.4105 8.57813,-4.23829 z m -549.28711,18.72657 c 3.31502,-0.0662 4.58246,1.2537 4.01172,4.10742 -0.60334,3.01663 -3.73465,7.1532 -6.19141,8.17969 -4.20139,1.75547 -8.22876,0.71541 -9.54687,-2.4668 -0.77994,-1.88292 -0.42645,-4.21992 0.88476,-5.85547 1.2963,-1.61696 5.65917,-3.42425 9.29492,-3.85156 0.55774,-0.0655 1.0733,-0.10383 1.54688,-0.11328 z m -52.05469,0.23828 c 2.31151,-0.0329 4.42811,0.16626 4.70508,0.44141 1.9347,1.9222 -1.27731,8.77617 -5.24805,11.19726 -4.05753,2.474 -9.1068,1.25428 -10.55273,-2.54883 -1.6968,-4.4629 3.82511,-8.98628 11.0957,-9.08984 z m -217.78125,1.60742 c 5.20823,0 6.2239,1.23766 7.59375,9.23828 1.08499,6.33706 1.93154,8.77344 3.04688,8.77344 0.93516,0 1.79431,-1.99004 2.30273,-5.33594 0.729,-4.79777 2.4,-10.24311 3.53125,-11.50781 0.78142,-0.87371 2.08183,-1.16797 5.17187,-1.16797 3.10303,0 4.38155,0.2907 5.14063,1.16797 0.55555,0.64207 1.64539,4.09657 2.42187,7.67578 0.77651,3.57921 2.03701,9.34575 2.80274,12.81445 0.76573,3.46874 1.29849,7.4435 1.18359,8.83399 l -0.20898,2.5293 -3.39453,0.19726 c -2.33276,0.13603 -3.64178,-0.10226 -4.1875,-0.75976 -0.43673,-0.52627 -1.40951,-4.21597 -2.16016,-8.20118 -2.01173,-10.68037 -2.50121,-10.65927 -5.30078,0.22657 -0.96261,3.74294 -2.13604,7.2699 -2.60742,7.83789 -0.97115,1.17014 -7.6759,1.44395 -9.36524,0.38281 -0.55914,-0.35123 -1.88728,-4.09497 -3.00976,-8.48633 -2.686,-10.50796 -3.49133,-10.612 -5.58594,-0.71875 -0.87564,4.13594 -2.0484,8.04547 -2.60547,8.6875 -0.67196,0.77454 -1.97923,1.16602 -3.88672,1.16602 -5.10262,0 -5.09841,-1.39897 0.0684,-20.34571 0.50026,-1.83443 1.25347,-5.05746 1.67383,-7.16406 0.95214,-4.7718 2.30371,-5.84375 7.375,-5.84375 z M 591.76367,637.1977 c 0.004,-0.0238 0.007,0.2332 0.0117,0.0137 -0.004,-0.004 -0.008,-0.01 -0.0117,-0.0137 z" />
  </g>
</svg>
